# Blender 5.0.0
# www.blender.org
mtllib bush_A.mtl
o bush_A
v -0.110637 -0.110306 -0.022806
v 0.585851 0.075362 0.438704
v -0.189434 -0.111602 0.555263
v -0.643893 0.082856 -0.208287
v -0.358405 0.118494 -0.658124
v 0.620685 0.135985 -0.430783
v 0.095026 0.719391 0.653049
v -0.548673 0.689207 0.308689
v -0.505769 0.747186 -0.402652
v 0.182853 0.728634 -0.534568
v 0.793824 0.848259 0.049790
v 0.159918 1.172470 0.154698
v -0.193163 -0.082308 0.276532
v 0.200838 -0.135161 0.215091
v 0.018341 -0.082008 0.721520
v 0.734351 0.025903 -0.009203
v 0.258544 -0.103796 -0.249646
v -0.426424 -0.029307 -0.118374
v -0.646731 -0.050747 0.211585
v -0.202027 -0.064779 -0.318442
v -0.581213 0.042821 -0.497099
v 0.142398 0.013047 -0.525753
v 0.830077 0.508712 0.160908
v 0.802317 0.465451 -0.274249
v -0.154541 0.320340 0.794719
v 0.511335 0.487356 0.567624
v -0.765285 0.322102 0.199668
v -0.694651 0.276892 0.469905
v -0.500670 0.479831 -0.558552
v -0.704097 0.413348 -0.187663
v 0.463789 0.518746 -0.574226
v -0.008604 0.468445 -0.652506
v 0.599733 0.817551 0.430203
v -0.367434 0.702946 0.649388
v -0.486399 0.796141 0.037207
v -0.185648 0.846572 -0.575235
v 0.603133 0.939924 -0.385616
v 0.178740 0.979143 0.498337
v 0.574340 1.181757 -0.010970
v -0.239926 0.956318 0.252784
v -0.147409 1.049909 -0.137199
v 0.224881 1.049903 -0.313713
vn -0.1238 -0.9906 0.0585
vn 0.3659 -0.9040 0.2211
vn -0.2542 -0.9669 0.0204
vn -0.2249 -0.9711 -0.0800
vn -0.0640 -0.9891 -0.1325
vn 0.8970 -0.2941 0.3299
vn -0.5472 -0.3716 0.7500
vn -0.9469 -0.3044 -0.1033
vn -0.5843 -0.0064 -0.8115
vn 0.2497 -0.2484 -0.9359
vn 0.7874 -0.0499 0.6144
vn -0.4468 -0.4059 0.7973
vn -0.9676 -0.1643 -0.1916
vn -0.1796 0.1950 -0.9642
vn 0.6624 -0.0092 -0.7491
vn 0.2985 0.4155 0.8592
vn -0.5965 0.7495 0.2871
vn -0.6178 0.7840 -0.0601
vn 0.2574 0.5243 -0.8117
vn 0.8280 0.4980 -0.2578
vn -0.1284 0.9549 -0.2677
vn 0.1427 0.8365 -0.5290
vn 0.0078 0.5658 -0.8245
vn -0.1268 0.9552 -0.2675
vn -0.1895 0.8968 -0.3998
vn -0.4430 0.8273 -0.3454
vn -0.4529 0.8854 0.1050
vn -0.5791 0.8132 0.0578
vn -0.6301 0.7608 0.1551
vn -0.3244 0.8167 0.4772
vn -0.3048 0.8440 0.4412
vn -0.0252 0.5175 0.8553
vn 0.1709 0.8627 0.4760
vn 0.3723 0.7261 0.5780
vn 0.7240 0.5519 0.4139
vn 0.8957 0.2987 -0.3294
vn 0.6688 0.1081 -0.7355
vn 0.1427 0.3648 -0.9201
vn 0.1942 0.2829 -0.9393
vn -0.1838 0.1135 -0.9764
vn -0.5282 0.4202 -0.7378
vn -0.8646 0.5022 -0.0178
vn -0.8645 0.5023 -0.0182
vn -0.8616 0.5077 0.0023
vn -0.7991 0.4422 0.4073
vn -0.5172 0.0370 0.8551
vn -0.0197 0.3454 0.9382
vn 0.3411 0.2819 0.8968
vn 0.7850 0.0469 0.6177
vn 0.8565 0.2408 0.4565
vn 0.1191 0.3359 -0.9343
vn 0.1814 -0.2074 -0.9613
vn 0.2117 -0.1963 -0.9574
vn -0.8691 0.2367 -0.4343
vn -0.8799 0.0967 -0.4653
vn -0.9684 -0.1647 -0.1873
vn -0.8588 0.4192 0.2946
vn -0.9363 -0.2914 0.1960
vn -0.5415 -0.5679 0.6199
vn 0.2827 0.1590 0.9459
vn 0.3294 -0.0301 0.9437
vn 0.4786 -0.1822 0.8589
vn 0.9940 0.0827 -0.0716
vn 0.9828 -0.1790 -0.0449
vn 0.8849 -0.3331 -0.3256
vn 0.3065 -0.8235 -0.4774
vn -0.0212 -0.9239 -0.3821
vn -0.0689 -0.8909 -0.4489
vn -0.0334 -0.8859 -0.4626
vn -0.2327 -0.9684 -0.0893
vn -0.4653 -0.8849 0.0217
vn -0.3427 -0.8945 -0.2870
vn -0.0547 -0.9934 -0.1010
vn -0.0543 -0.9931 -0.1036
vn 0.4002 -0.8545 -0.3310
vn 0.2771 -0.9603 -0.0304
vn -0.0257 -0.9972 -0.0705
vn 0.2220 -0.9694 -0.1049
vn -0.1236 -0.9906 0.0594
vn 0.3632 -0.9040 0.2257
vt 0.821724 0.801496
vt 0.833492 0.806128
vt 0.819923 0.806072
vt 0.846466 0.815298
vt 0.851526 0.813635
vt 0.812260 0.808303
vt 0.819633 0.806786
vt 0.833988 0.801721
vt 0.850779 0.830092
vt 0.821056 0.808805
vt 0.828058 0.809986
vt 0.821640 0.823502
vt 0.805864 0.815478
vt 0.805718 0.810722
vt 0.801600 0.823531
vt 0.815364 0.816705
vt 0.807987 0.814165
vt 0.809514 0.828882
vt 0.847236 0.817254
vt 0.831056 0.810104
vt 0.838928 0.830397
vt 0.841037 0.829308
vt 0.804104 0.822008
vt 0.803152 0.826623
vt 0.824539 0.828608
vt 0.850477 0.828597
vt 0.826176 0.837144
vt 0.839939 0.840662
vt 0.825985 0.846062
vt 0.806603 0.835987
vt 0.812867 0.836433
vt 0.813410 0.845191
vt 0.807730 0.837951
vt 0.807360 0.839665
vt 0.815126 0.848426
vt 0.827604 0.837566
vt 0.816746 0.841404
vt 0.825530 0.848578
vt 0.844862 0.841807
vt 0.838526 0.844872
vt 0.834730 0.853178
vt 0.822941 0.852712
s 0
usemtl Winter_Pack_Texture
f 1/1/1 14/2/1 13/3/1
f 2/4/2 14/2/2 16/5/2
f 1/1/3 13/3/3 18/6/3
f 1/1/4 18/6/4 20/7/4
f 1/1/5 20/7/5 17/8/5
f 2/4/6 16/5/6 23/9/6
f 3/10/7 15/11/7 25/12/7
f 4/13/8 19/14/8 27/15/8
f 5/16/9 21/17/9 29/18/9
f 6/19/10 22/20/10 31/21/10
f 2/4/11 23/9/11 26/22/11
f 3/10/12 25/12/12 28/23/12
f 4/13/13 27/15/13 30/24/13
f 5/16/14 29/18/14 32/25/14
f 6/19/15 31/21/15 24/26/15
f 7/27/16 33/28/16 38/29/16
f 8/30/17 34/31/17 40/32/17
f 9/33/18 35/34/18 41/35/18
f 10/36/19 36/37/19 42/38/19
f 11/39/20 37/40/20 39/41/20
f 39/41/21 42/38/21 12/42/21
f 39/41/22 37/40/22 42/38/22
f 37/40/23 10/36/23 42/38/23
f 42/38/24 41/35/24 12/42/24
f 42/38/25 36/37/25 41/35/25
f 36/37/26 9/33/26 41/35/26
f 41/35/27 40/32/27 12/42/27
f 41/35/28 35/34/28 40/32/28
f 35/34/29 8/30/29 40/32/29
f 40/32/30 38/29/30 12/42/30
f 40/32/31 34/31/31 38/29/31
f 34/31/32 7/27/32 38/29/32
f 38/29/33 39/41/33 12/42/33
f 38/29/34 33/28/34 39/41/34
f 33/28/35 11/39/35 39/41/35
f 24/26/36 37/40/36 11/39/36
f 24/26/37 31/21/37 37/40/37
f 31/21/38 10/36/38 37/40/38
f 32/25/39 36/37/39 10/36/39
f 32/25/40 29/18/40 36/37/40
f 29/18/41 9/33/41 36/37/41
f 30/24/42 35/34/42 9/33/42
f 30/24/43 27/15/43 35/34/43
f 27/15/44 8/30/44 35/34/44
f 28/23/45 34/31/45 8/30/45
f 28/23/46 25/12/46 34/31/46
f 25/12/47 7/27/47 34/31/47
f 26/22/48 33/28/48 7/27/48
f 26/22/49 23/9/49 33/28/49
f 23/9/50 11/39/50 33/28/50
f 31/21/51 32/25/51 10/36/51
f 31/21/52 22/20/52 32/25/52
f 22/20/53 5/16/53 32/25/53
f 29/18/54 30/24/54 9/33/54
f 29/18/55 21/17/55 30/24/55
f 21/17/56 4/13/56 30/24/56
f 27/15/57 28/23/57 8/30/57
f 27/15/58 19/14/58 28/23/58
f 19/14/59 3/10/59 28/23/59
f 25/12/60 26/22/60 7/27/60
f 25/12/61 15/11/61 26/22/61
f 15/11/62 2/4/62 26/22/62
f 23/9/63 24/26/63 11/39/63
f 23/9/64 16/5/64 24/26/64
f 16/5/65 6/19/65 24/26/65
f 17/8/66 22/20/66 6/19/66
f 17/8/67 20/7/67 22/20/67
f 20/7/68 5/16/68 22/20/68
f 20/7/69 21/17/69 5/16/69
f 20/7/70 18/6/70 21/17/70
f 18/6/71 4/13/71 21/17/71
f 18/6/72 19/14/72 4/13/72
f 18/6/73 13/3/73 19/14/73
f 13/3/74 3/10/74 19/14/74
f 16/5/75 17/8/75 6/19/75
f 16/5/76 14/2/76 17/8/76
f 14/2/77 1/1/77 17/8/77
f 13/3/78 15/11/78 3/10/78
f 13/3/79 14/2/79 15/11/79
f 14/2/80 2/4/80 15/11/80
