# Blender 5.0.0
# www.blender.org
mtllib bush_C.mtl
o bush_C
v -0.132291 -0.083292 0.054108
v 0.548499 0.002642 0.389542
v -0.255234 -0.061051 0.480346
v -0.582637 0.021065 -0.149036
v -0.158752 0.001181 -0.475845
v 0.465312 -0.058950 -0.221944
v -0.023376 0.523742 0.462077
v -0.565210 0.491651 0.119860
v -0.536267 0.521978 -0.341913
v -0.028377 0.534056 -0.444495
v 0.542896 0.624379 0.146552
v -0.129372 0.888908 0.071433
v -0.211931 -0.027338 0.250949
v 0.194798 -0.112330 0.252145
v 0.036215 -0.090716 0.544450
v 0.650739 -0.073812 0.129241
v 0.157073 -0.142822 -0.117330
v -0.394045 -0.035836 -0.086498
v -0.575868 -0.048234 0.136240
v -0.212765 -0.102377 -0.277138
v -0.423577 -0.033518 -0.398703
v 0.070925 -0.027656 -0.380888
v 0.660182 0.334725 0.234399
v 0.566122 0.226119 -0.114609
v -0.149806 0.214646 0.565610
v 0.395282 0.329058 0.459792
v -0.679309 0.201993 0.127739
v -0.631726 0.168281 0.287966
v -0.466805 0.290341 -0.466164
v -0.641555 0.269387 -0.141049
v 0.255658 0.327675 -0.443578
v -0.093412 0.303648 -0.576476
v 0.382788 0.595673 0.342836
v -0.365200 0.502899 0.431225
v -0.548777 0.572575 -0.096374
v -0.308545 0.603342 -0.498734
v 0.342072 0.700234 -0.207712
v -0.036932 0.728817 0.319293
v 0.277980 0.900023 0.102035
v -0.410131 0.706616 0.036004
v -0.376042 0.779922 -0.242766
v -0.076637 0.786085 -0.262590
vn -0.2013 -0.9606 0.1916
vn 0.1694 -0.9256 0.3384
vn -0.2610 -0.9512 0.1648
vn -0.2356 -0.9653 0.1129
vn -0.1477 -0.9847 0.0926
vn 0.9110 -0.1224 0.3938
vn -0.2302 -0.2061 0.9511
vn -0.9209 -0.3831 -0.0712
vn -0.2445 -0.2289 -0.9422
vn 0.3306 -0.3280 -0.8849
vn 0.6401 0.1378 0.7558
vn -0.4918 -0.0801 0.8670
vn -0.9567 -0.2209 -0.1898
vn -0.2659 -0.2521 -0.9304
vn 0.7274 0.0011 -0.6862
vn 0.1361 0.5721 0.8088
vn -0.6611 0.6337 0.4018
vn -0.8106 0.5640 -0.1575
vn 0.2922 0.5959 -0.7481
vn 0.7159 0.6448 -0.2678
vn -0.0039 0.9556 -0.2948
vn 0.2363 0.8381 -0.4917
vn 0.2235 0.5982 -0.7695
vn -0.0395 0.9532 -0.2997
vn -0.0550 0.8151 -0.5768
vn -0.5919 0.5820 -0.5576
vn -0.5516 0.8208 0.1484
vn -0.7342 0.6733 0.0873
vn -0.7652 0.6199 0.1738
vn -0.4893 0.6380 0.5946
vn -0.3937 0.7981 0.4561
vn -0.1083 0.5632 0.8192
vn -0.0645 0.8271 0.5583
vn 0.1631 0.6461 0.7456
vn 0.5580 0.6245 0.5465
vn 0.8517 0.3212 -0.4140
vn 0.7423 0.2270 -0.6305
vn 0.3292 0.4494 -0.8305
vn 0.2714 0.4195 -0.8662
vn -0.2845 0.0442 -0.9577
vn -0.6061 0.2271 -0.7623
vn -0.9456 0.3057 -0.1112
vn -0.9521 0.3000 -0.0585
vn -0.9277 0.3673 0.0669
vn -0.7741 0.4100 0.4824
vn -0.5011 0.0288 0.8649
vn -0.1055 0.3544 0.9291
vn 0.1917 0.4018 0.8954
vn 0.6043 0.3437 0.7188
vn 0.6588 0.4497 0.6031
vn 0.3000 0.4090 -0.8618
vn 0.3551 -0.3383 -0.8715
vn 0.3174 -0.3604 -0.8771
vn -0.8805 -0.0098 -0.4739
vn -0.8549 -0.2127 -0.4732
vn -0.8467 -0.1848 -0.4990
vn -0.8739 0.3533 0.3339
vn -0.9092 -0.3693 0.1923
vn -0.6207 -0.5510 0.5578
vn 0.1294 0.2670 0.9550
vn 0.1818 0.0427 0.9824
vn 0.2996 -0.0643 0.9519
vn 0.9062 0.2676 -0.3275
vn 0.9605 0.0483 -0.2739
vn 0.8741 -0.1332 -0.4672
vn 0.1002 -0.8993 -0.4257
vn 0.0835 -0.9028 -0.4218
vn 0.0721 -0.8924 -0.4455
vn -0.0200 -0.8844 -0.4663
vn -0.3226 -0.9462 0.0235
vn -0.2951 -0.9552 0.0208
vn -0.2119 -0.9508 -0.2259
vn 0.0595 -0.9982 -0.0070
vn 0.0967 -0.9872 -0.1268
vn 0.2110 -0.9655 -0.1523
vn 0.1030 -0.9921 0.0714
vn -0.1456 -0.9847 0.0961
vn -0.0657 -0.9854 -0.1572
vn -0.2043 -0.9782 -0.0385
vn 0.2331 -0.9523 0.1969
vt 0.882523 0.900126
vt 0.895013 0.904548
vt 0.880237 0.904495
vt 0.907910 0.913305
vt 0.912401 0.911716
vt 0.872540 0.906625
vt 0.877916 0.905177
vt 0.893756 0.900341
vt 0.911758 0.927431
vt 0.881301 0.907105
vt 0.889161 0.908233
vt 0.882007 0.921139
vt 0.866406 0.913476
vt 0.866436 0.908935
vt 0.862218 0.921166
vt 0.873346 0.914648
vt 0.866429 0.912223
vt 0.867736 0.926275
vt 0.906679 0.915172
vt 0.889800 0.908345
vt 0.897495 0.927722
vt 0.901773 0.926682
vt 0.864050 0.919711
vt 0.863265 0.924118
vt 0.882104 0.926014
vt 0.909468 0.926003
vt 0.886169 0.934165
vt 0.900989 0.937524
vt 0.885361 0.942680
vt 0.866060 0.933060
vt 0.873470 0.933486
vt 0.871534 0.941848
vt 0.866692 0.934935
vt 0.866498 0.936572
vt 0.872673 0.944938
vt 0.885933 0.934567
vt 0.875070 0.938233
vt 0.883796 0.945083
vt 0.906957 0.938617
vt 0.899557 0.941544
vt 0.896882 0.949475
vt 0.881796 0.949030
s 0
usemtl Winter_Pack_Texture
f 1/1/1 14/2/1 13/3/1
f 2/4/2 14/2/2 16/5/2
f 1/1/3 13/3/3 18/6/3
f 1/1/4 18/6/4 20/7/4
f 1/1/5 20/7/5 17/8/5
f 2/4/6 16/5/6 23/9/6
f 3/10/7 15/11/7 25/12/7
f 4/13/8 19/14/8 27/15/8
f 5/16/9 21/17/9 29/18/9
f 6/19/10 22/20/10 31/21/10
f 2/4/11 23/9/11 26/22/11
f 3/10/12 25/12/12 28/23/12
f 4/13/13 27/15/13 30/24/13
f 5/16/14 29/18/14 32/25/14
f 6/19/15 31/21/15 24/26/15
f 7/27/16 33/28/16 38/29/16
f 8/30/17 34/31/17 40/32/17
f 9/33/18 35/34/18 41/35/18
f 10/36/19 36/37/19 42/38/19
f 11/39/20 37/40/20 39/41/20
f 39/41/21 42/38/21 12/42/21
f 39/41/22 37/40/22 42/38/22
f 37/40/23 10/36/23 42/38/23
f 42/38/24 41/35/24 12/42/24
f 42/38/25 36/37/25 41/35/25
f 36/37/26 9/33/26 41/35/26
f 41/35/27 40/32/27 12/42/27
f 41/35/28 35/34/28 40/32/28
f 35/34/29 8/30/29 40/32/29
f 40/32/30 38/29/30 12/42/30
f 40/32/31 34/31/31 38/29/31
f 34/31/32 7/27/32 38/29/32
f 38/29/33 39/41/33 12/42/33
f 38/29/34 33/28/34 39/41/34
f 33/28/35 11/39/35 39/41/35
f 24/26/36 37/40/36 11/39/36
f 24/26/37 31/21/37 37/40/37
f 31/21/38 10/36/38 37/40/38
f 32/25/39 36/37/39 10/36/39
f 32/25/40 29/18/40 36/37/40
f 29/18/41 9/33/41 36/37/41
f 30/24/42 35/34/42 9/33/42
f 30/24/43 27/15/43 35/34/43
f 27/15/44 8/30/44 35/34/44
f 28/23/45 34/31/45 8/30/45
f 28/23/46 25/12/46 34/31/46
f 25/12/47 7/27/47 34/31/47
f 26/22/48 33/28/48 7/27/48
f 26/22/49 23/9/49 33/28/49
f 23/9/50 11/39/50 33/28/50
f 31/21/51 32/25/51 10/36/51
f 31/21/52 22/20/52 32/25/52
f 22/20/53 5/16/53 32/25/53
f 29/18/54 30/24/54 9/33/54
f 29/18/55 21/17/55 30/24/55
f 21/17/56 4/13/56 30/24/56
f 27/15/57 28/23/57 8/30/57
f 27/15/58 19/14/58 28/23/58
f 19/14/59 3/10/59 28/23/59
f 25/12/60 26/22/60 7/27/60
f 25/12/61 15/11/61 26/22/61
f 15/11/62 2/4/62 26/22/62
f 23/9/63 24/26/63 11/39/63
f 23/9/64 16/5/64 24/26/64
f 16/5/65 6/19/65 24/26/65
f 17/8/66 22/20/66 6/19/66
f 17/8/67 20/7/67 22/20/67
f 20/7/68 5/16/68 22/20/68
f 20/7/69 21/17/69 5/16/69
f 20/7/70 18/6/70 21/17/70
f 18/6/71 4/13/71 21/17/71
f 18/6/72 19/14/72 4/13/72
f 18/6/73 13/3/73 19/14/73
f 13/3/74 3/10/74 19/14/74
f 16/5/75 17/8/75 6/19/75
f 16/5/76 14/2/76 17/8/76
f 14/2/77 1/1/77 17/8/77
f 13/3/78 15/11/78 3/10/78
f 13/3/79 14/2/79 15/11/79
f 14/2/80 2/4/80 15/11/80
