# Blender 5.0.0
# www.blender.org
mtllib bush_B.mtl
o bush_B
v -0.183666 -0.179655 0.067193
v 0.532231 0.239162 0.524843
v -0.212695 0.064774 0.536987
v -0.578115 0.124402 -0.200982
v -0.265972 0.184419 -0.794728
v 0.726246 0.230431 -0.355510
v -0.007909 0.720696 0.547871
v -0.504982 0.849907 0.144862
v -0.407790 0.930904 -0.361728
v 0.214360 0.923434 -0.549228
v 0.551982 0.873199 0.357518
v 0.147460 1.272617 0.123768
v -0.243503 -0.115676 0.323681
v 0.172479 -0.080402 0.326383
v -0.024845 0.139261 0.746906
v 0.711635 0.172599 0.163337
v 0.380983 -0.112551 -0.234003
v -0.414286 -0.078267 -0.160866
v -0.591608 0.069950 0.134565
v -0.023817 -0.046713 -0.464962
v -0.466317 0.118910 -0.600225
v 0.443959 0.083111 -0.606483
v 0.667079 0.582870 0.387508
v 0.707724 0.522179 -0.091315
v -0.195390 0.410654 0.698674
v 0.351669 0.575208 0.665838
v -0.670621 0.433061 0.133056
v -0.613435 0.380077 0.291975
v -0.442877 0.559155 -0.585699
v -0.627622 0.505882 -0.164516
v 0.511746 0.537465 -0.659602
v -0.012347 0.559326 -0.742417
v 0.365455 0.839043 0.552866
v -0.318309 0.743483 0.459576
v -0.447800 0.983034 -0.066612
v -0.208118 0.976961 -0.567636
v 0.527834 0.938442 -0.180533
v 0.108068 1.004273 0.420982
v 0.412178 1.153968 0.246327
v -0.190805 1.147482 0.076332
v -0.115978 1.263554 -0.234643
v 0.235749 1.186092 -0.309361
vn 0.0799 -0.9626 0.2588
vn 0.4849 -0.7851 0.3852
vn -0.4844 -0.8687 0.1037
vn -0.1410 -0.9497 -0.2796
vn -0.0166 -0.9689 -0.2470
vn 0.8727 -0.1577 0.4621
vn -0.6593 -0.2911 0.6933
vn -0.9744 -0.2123 -0.0736
vn -0.7055 0.0609 -0.7061
vn 0.7052 -0.1852 -0.6844
vn 0.6606 0.0404 0.7497
vn -0.6557 -0.2926 0.6960
vn -0.9794 -0.1110 -0.1687
vn -0.3217 0.3409 -0.8834
vn 0.8956 0.3285 -0.3000
vn -0.1562 0.4560 0.8762
vn -0.5175 0.6692 0.5333
vn -0.6918 0.6892 -0.2155
vn 0.1164 0.6646 -0.7381
vn 0.8928 0.4503 0.0145
vn 0.4412 0.8930 -0.0885
vn 0.6805 0.7116 -0.1749
vn 0.6601 0.4765 -0.5807
vn 0.1804 0.9709 -0.1572
vn 0.0266 0.7540 -0.6563
vn -0.5945 0.6834 -0.4237
vn -0.3665 0.8971 0.2467
vn -0.5916 0.7915 0.1531
vn -0.6247 0.7258 0.2880
vn -0.3500 0.7179 0.6018
vn -0.3715 0.6980 0.6122
vn -0.2095 0.4695 0.8577
vn 0.0211 0.7407 0.6715
vn 0.0739 0.6899 0.7201
vn 0.5644 0.5313 0.6318
vn 0.9174 0.3980 0.0071
vn 0.8972 0.3233 -0.3007
vn 0.5926 0.6078 -0.5286
vn 0.0927 0.4210 -0.9023
vn -0.3332 0.2268 -0.9152
vn -0.6973 0.4170 -0.5829
vn -0.9052 0.3801 -0.1899
vn -0.9316 0.3606 -0.0464
vn -0.9290 0.3697 -0.0185
vn -0.7494 0.3491 0.5626
vn -0.6859 0.2402 0.6869
vn -0.1975 0.5228 0.8293
vn -0.1377 0.3959 0.9079
vn 0.6320 0.2769 0.7238
vn 0.6534 0.3294 0.6815
vn 0.1597 0.3832 -0.9097
vn 0.1490 -0.1367 -0.9793
vn 0.2515 -0.0352 -0.9672
vn -0.8880 0.2959 -0.3521
vn -0.9169 0.0618 -0.3944
vn -0.9586 -0.0989 -0.2671
vn -0.8497 0.3259 0.4144
vn -0.9409 -0.2036 0.2707
vn -0.6788 -0.3698 0.6344
vn -0.0920 0.4800 0.8724
vn 0.0054 0.1783 0.9840
vn 0.3910 -0.1695 0.9047
vn 0.9280 0.3712 0.0317
vn 0.9949 0.0665 0.0760
vn 0.9989 0.0345 0.0320
vn 0.6264 -0.7287 -0.2769
vn 0.1109 -0.8874 -0.4474
vn 0.0430 -0.8030 -0.5944
vn -0.1780 -0.8625 -0.4738
vn -0.2212 -0.8993 -0.3774
vn -0.7425 -0.6396 -0.1991
vn -0.7575 -0.6389 -0.1341
vn -0.5158 -0.8488 0.1163
vn -0.6057 -0.5622 0.5631
vn 0.6926 -0.7187 -0.0606
vn 0.4686 -0.8547 0.2234
vn 0.1819 -0.9755 0.1236
vn -0.4303 -0.6575 0.6184
vn 0.0706 -0.8702 0.4877
vn 0.3569 -0.7487 0.5586
vt 0.883503 0.799563
vt 0.896674 0.803234
vt 0.881290 0.801929
vt 0.909979 0.815052
vt 0.916614 0.812590
vt 0.874974 0.803313
vt 0.889415 0.804480
vt 0.904385 0.802045
vt 0.914966 0.827763
vt 0.882430 0.808603
vt 0.889377 0.811357
vt 0.883070 0.821394
vt 0.868915 0.810808
vt 0.868416 0.808794
vt 0.865494 0.822223
vt 0.880459 0.813027
vt 0.873050 0.810605
vt 0.873917 0.826886
vt 0.917154 0.814729
vt 0.906714 0.809281
vt 0.909221 0.826084
vt 0.903301 0.827480
vt 0.867609 0.820263
vt 0.867085 0.824916
vt 0.889839 0.826892
vt 0.916469 0.825519
vt 0.890003 0.832860
vt 0.903811 0.837237
vt 0.894292 0.843348
vt 0.871620 0.837639
vt 0.878524 0.833703
vt 0.883239 0.848644
vt 0.875214 0.840634
vt 0.873735 0.842562
vt 0.886006 0.852937
vt 0.898223 0.840358
vt 0.882599 0.842338
vt 0.899014 0.850072
vt 0.910709 0.838500
vt 0.909816 0.840913
vt 0.905539 0.848884
vt 0.895749 0.853272
s 0
usemtl Winter_Pack_Texture
f 1/1/1 14/2/1 13/3/1
f 2/4/2 14/2/2 16/5/2
f 1/1/3 13/3/3 18/6/3
f 1/1/4 18/6/4 20/7/4
f 1/1/5 20/7/5 17/8/5
f 2/4/6 16/5/6 23/9/6
f 3/10/7 15/11/7 25/12/7
f 4/13/8 19/14/8 27/15/8
f 5/16/9 21/17/9 29/18/9
f 6/19/10 22/20/10 31/21/10
f 2/4/11 23/9/11 26/22/11
f 3/10/12 25/12/12 28/23/12
f 4/13/13 27/15/13 30/24/13
f 5/16/14 29/18/14 32/25/14
f 6/19/15 31/21/15 24/26/15
f 7/27/16 33/28/16 38/29/16
f 8/30/17 34/31/17 40/32/17
f 9/33/18 35/34/18 41/35/18
f 10/36/19 36/37/19 42/38/19
f 11/39/20 37/40/20 39/41/20
f 39/41/21 42/38/21 12/42/21
f 39/41/22 37/40/22 42/38/22
f 37/40/23 10/36/23 42/38/23
f 42/38/24 41/35/24 12/42/24
f 42/38/25 36/37/25 41/35/25
f 36/37/26 9/33/26 41/35/26
f 41/35/27 40/32/27 12/42/27
f 41/35/28 35/34/28 40/32/28
f 35/34/29 8/30/29 40/32/29
f 40/32/30 38/29/30 12/42/30
f 40/32/31 34/31/31 38/29/31
f 34/31/32 7/27/32 38/29/32
f 38/29/33 39/41/33 12/42/33
f 38/29/34 33/28/34 39/41/34
f 33/28/35 11/39/35 39/41/35
f 24/26/36 37/40/36 11/39/36
f 24/26/37 31/21/37 37/40/37
f 31/21/38 10/36/38 37/40/38
f 32/25/39 36/37/39 10/36/39
f 32/25/40 29/18/40 36/37/40
f 29/18/41 9/33/41 36/37/41
f 30/24/42 35/34/42 9/33/42
f 30/24/43 27/15/43 35/34/43
f 27/15/44 8/30/44 35/34/44
f 28/23/45 34/31/45 8/30/45
f 28/23/46 25/12/46 34/31/46
f 25/12/47 7/27/47 34/31/47
f 26/22/48 33/28/48 7/27/48
f 26/22/49 23/9/49 33/28/49
f 23/9/50 11/39/50 33/28/50
f 31/21/51 32/25/51 10/36/51
f 31/21/52 22/20/52 32/25/52
f 22/20/53 5/16/53 32/25/53
f 29/18/54 30/24/54 9/33/54
f 29/18/55 21/17/55 30/24/55
f 21/17/56 4/13/56 30/24/56
f 27/15/57 28/23/57 8/30/57
f 27/15/58 19/14/58 28/23/58
f 19/14/59 3/10/59 28/23/59
f 25/12/60 26/22/60 7/27/60
f 25/12/61 15/11/61 26/22/61
f 15/11/62 2/4/62 26/22/62
f 23/9/63 24/26/63 11/39/63
f 23/9/64 16/5/64 24/26/64
f 16/5/65 6/19/65 24/26/65
f 17/8/66 22/20/66 6/19/66
f 17/8/67 20/7/67 22/20/67
f 20/7/68 5/16/68 22/20/68
f 20/7/69 21/17/69 5/16/69
f 20/7/70 18/6/70 21/17/70
f 18/6/71 4/13/71 21/17/71
f 18/6/72 19/14/72 4/13/72
f 18/6/73 13/3/73 19/14/73
f 13/3/74 3/10/74 19/14/74
f 16/5/75 17/8/75 6/19/75
f 16/5/76 14/2/76 17/8/76
f 14/2/77 1/1/77 17/8/77
f 13/3/78 15/11/78 3/10/78
f 13/3/79 14/2/79 15/11/79
f 14/2/80 2/4/80 15/11/80
