# Blender 5.0.0
# www.blender.org
mtllib cabin_Window_Round.mtl
o cabin_Window_Round
v -0.614114 0.519788 0.321713
v 0.612984 0.519788 0.321078
v -0.614114 0.588150 0.288089
v 0.612984 0.587772 0.287639
v -0.614114 0.616466 0.206912
v 0.612984 0.615932 0.206911
v -0.614114 0.588150 0.125735
v 0.612984 0.587772 0.126183
v -0.614114 0.519788 0.092111
v 0.612984 0.519788 0.092745
v -0.614114 0.519788 0.358522
v -0.614114 0.610069 0.314117
v -0.614114 0.647464 0.206912
v -0.614114 0.610069 0.099708
v -0.614114 0.519788 0.055302
v 0.612984 0.519788 0.358521
v 0.612984 0.610069 0.314116
v 0.612984 0.647464 0.206911
v 0.612984 0.610069 0.099707
v 0.612983 0.519788 0.055301
v -0.614114 -0.510599 0.092112
v 0.612983 -0.510600 0.092746
v -0.614114 -0.578961 0.125736
v 0.612983 -0.578584 0.126184
v -0.614114 -0.607278 0.206913
v 0.612983 -0.606744 0.206912
v -0.614114 -0.578961 0.288090
v 0.612983 -0.578584 0.287640
v -0.614114 -0.510599 0.321714
v 0.612983 -0.510599 0.321079
v -0.614114 -0.510599 0.055303
v -0.614114 -0.600881 0.099709
v -0.614114 -0.638276 0.206913
v -0.614114 -0.600881 0.314118
v -0.614114 -0.510599 0.358523
v 0.612983 -0.510600 0.055302
v 0.612983 -0.600881 0.099708
v 0.612983 -0.638276 0.206912
v 0.612983 -0.600881 0.314117
v 0.612983 -0.510599 0.358523
v -0.442544 -0.624673 0.213408
v -0.442544 0.632859 0.213407
v -0.442544 -0.624674 0.042224
v -0.442544 0.632859 0.042223
v 0.443144 -0.624674 0.213407
v 0.443144 0.632859 0.213407
v 0.443144 -0.624674 0.042223
v 0.443144 0.632859 0.042223
v -0.542544 0.019808 0.213408
v -0.542544 -0.035928 0.213408
v -0.542544 -0.035928 0.042224
v -0.542544 0.019808 0.042224
v 0.543144 0.019808 0.042223
v 0.543144 -0.035928 0.042223
v 0.543144 -0.035928 0.213407
v 0.543144 0.019809 0.213407
v 0.045728 -0.748978 0.213407
v -0.045128 -0.748978 0.213407
v -0.045128 0.732859 0.213407
v 0.045728 0.732859 0.213407
v 0.045728 0.019808 0.213407
v -0.045128 0.019808 0.213407
v -0.045128 -0.035928 0.213407
v 0.045728 -0.035928 0.213407
v 0.483597 -0.031730 0.266602
v 0.483597 0.015611 0.266602
v -0.482997 0.015611 0.266602
v -0.482997 -0.031730 0.266602
v -0.039019 0.686489 0.266602
v 0.039619 0.686489 0.266602
v 0.039619 -0.674356 0.266602
v -0.039019 -0.674356 0.266602
v 0.039619 0.015611 0.266602
v -0.039019 0.015611 0.266602
v -0.039019 -0.031730 0.266602
v 0.039619 -0.031730 0.266602
v -0.418405 0.620160 0.092110
v -0.418406 -0.613227 0.092746
v -0.499582 0.620160 0.125735
v -0.499134 -0.613227 0.126184
v -0.533207 0.620160 0.206912
v -0.532573 -0.613227 0.206912
v -0.499582 0.620160 0.288089
v -0.499134 -0.613227 0.287640
v -0.418405 0.620160 0.321713
v -0.418406 -0.613227 0.321079
v -0.418405 0.620160 0.055302
v -0.525610 0.620160 0.099707
v -0.570015 0.620160 0.206912
v -0.525610 0.620160 0.314116
v -0.418405 0.620160 0.358522
v -0.418406 -0.613227 0.055302
v -0.525610 -0.613227 0.099708
v -0.570016 -0.613227 0.206912
v -0.525610 -0.613227 0.314117
v -0.418406 -0.613227 0.358522
v 0.418951 0.620160 0.321713
v 0.418952 -0.613227 0.321078
v 0.500128 0.620160 0.288088
v 0.499680 -0.613227 0.287639
v 0.533752 0.620160 0.206911
v 0.533118 -0.613227 0.206911
v 0.500128 0.620160 0.125734
v 0.499680 -0.613227 0.126183
v 0.418951 0.620160 0.092110
v 0.418952 -0.613227 0.092745
v 0.418951 0.620160 0.358521
v 0.526156 0.620160 0.314116
v 0.570561 0.620160 0.206911
v 0.526155 0.620160 0.099707
v 0.418951 0.620160 0.055301
v 0.418952 -0.613227 0.358522
v 0.526156 -0.613227 0.314116
v 0.570562 -0.613227 0.206911
v 0.526156 -0.613227 0.099707
v 0.418952 -0.613227 0.055301
v -0.000569 0.696830 0.410621
v -0.000569 0.818135 0.350956
v -0.000569 0.868382 0.206912
v -0.000569 0.818135 0.062867
v -0.000569 0.696830 0.003202
v -0.000569 0.696830 0.360737
v -0.000569 0.696830 0.053086
v -0.540379 0.003466 0.011133
v -0.678815 0.003466 0.068476
v -0.736157 0.003466 0.206912
v -0.678815 0.003466 0.345349
v -0.540378 0.003466 0.402691
v -0.540379 0.003466 0.059075
v -0.540378 0.003466 0.354749
v 0.540925 0.003466 0.402690
v 0.679362 0.003466 0.345348
v 0.736704 0.003466 0.206911
v 0.679361 0.003466 0.068475
v 0.540925 0.003466 0.011133
v 0.540925 0.003466 0.354748
v 0.540925 0.003466 0.059075
v -0.000570 -0.687642 0.003203
v -0.000570 -0.808947 0.062868
v -0.000570 -0.859194 0.206913
v -0.000570 -0.808947 0.350957
v -0.000570 -0.687641 0.410623
v -0.000570 -0.687642 0.053087
v -0.000570 -0.687641 0.360738
vn 0.1995 0.4325 0.8793
vn 0.3219 0.8940 0.3118
vn 0.3219 0.8940 -0.3118
vn 0.1995 0.4325 -0.8793
vn -1.0000 -0.0000 -0.0000
vn 1.0000 -0.0000 -0.0000
vn -0.2772 -0.9608 -0.0000
vn 0.1995 -0.4325 -0.8793
vn 0.3219 -0.8940 -0.3118
vn 0.3219 -0.8940 0.3118
vn 0.1995 -0.4325 0.8793
vn -0.2772 0.9608 -0.0000
vn -0.9859 -0.1675 -0.0000
vn -0.9870 0.1610 -0.0000
vn 0.9859 -0.1675 -0.0000
vn 0.9870 0.1610 -0.0000
vn 0.6662 -0.0000 0.7458
vn 0.9935 -0.0000 0.1141
vn -0.0000 -0.9969 0.0787
vn -0.0000 -0.0000 1.0000
vn -0.0000 0.9969 0.0787
vn -0.9935 -0.0000 0.1141
vn -0.6662 -0.0000 0.7458
vn -0.0000 0.7538 0.6571
vn -0.0000 -0.5805 0.8143
vn -0.3789 -0.1405 -0.9147
vn -0.8965 -0.2415 -0.3714
vn -0.8965 -0.2415 0.3714
vn -0.3789 -0.1405 0.9147
vn -0.0000 1.0000 -0.0000
vn -0.0000 -1.0000 -0.0000
vn 0.9810 0.1940 -0.0000
vn 0.3789 -0.1405 0.9147
vn 0.8965 -0.2415 0.3714
vn 0.8965 -0.2415 -0.3714
vn 0.3789 -0.1405 -0.9147
vn -0.9810 0.1940 -0.0000
vn 0.2772 -0.9608 -0.0000
vn -0.1995 0.4325 -0.8793
vn -0.3219 0.8940 -0.3118
vn -0.3219 0.8940 0.3118
vn -0.1995 0.4325 0.8793
vn 0.9810 -0.1940 -0.0000
vn -0.3789 0.1405 0.9147
vn -0.8965 0.2415 0.3714
vn -0.8965 0.2415 -0.3714
vn -0.3789 0.1405 -0.9147
vn -0.9810 -0.1940 -0.0000
vn 0.3789 0.1405 -0.9147
vn 0.8965 0.2415 -0.3714
vn 0.8965 0.2415 0.3714
vn 0.3789 0.1405 0.9147
vn 0.2772 0.9608 -0.0000
vn -0.1995 -0.4325 0.8793
vn -0.3219 -0.8940 0.3118
vn -0.3219 -0.8940 -0.3118
vn -0.1995 -0.4325 -0.8793
vt 0.238576 0.883613
vt 0.248503 0.883613
vt 0.248503 0.885348
vt 0.238576 0.885348
vt 0.248503 0.886066
vt 0.238576 0.886066
vt 0.248503 0.885348
vt 0.238576 0.885348
vt 0.248503 0.883613
vt 0.238576 0.883613
vt 0.228649 0.884927
vt 0.228649 0.883613
vt 0.228649 0.885348
vt 0.228649 0.885471
vt 0.228649 0.886066
vt 0.248503 0.884919
vt 0.248503 0.885460
vt 0.248503 0.884919
vt 0.853672 0.577919
vt 0.238576 0.863817
vt 0.248503 0.863817
vt 0.248503 0.862082
vt 0.238576 0.862082
vt 0.248503 0.861364
vt 0.238576 0.861364
vt 0.228649 0.862503
vt 0.228649 0.863817
vt 0.228649 0.862082
vt 0.228649 0.861959
vt 0.228649 0.861364
vt 0.248503 0.862510
vt 0.248503 0.861969
vt 0.245755 0.874007
vt 0.245755 0.872936
vt 0.231425 0.874007
vt 0.231425 0.872936
vt 0.231425 0.863546
vt 0.231425 0.883864
vt 0.245755 0.863546
vt 0.245755 0.883864
vt 0.864295 0.570441
vt 0.864295 0.571428
vt 0.863407 0.571354
vt 0.863407 0.570516
vt 0.858369 0.561357
vt 0.858369 0.570441
vt 0.858278 0.570516
vt 0.858278 0.562678
vt 0.060629 0.518114
vt 0.060629 0.550438
vt 0.044008 0.550438
vt 0.044008 0.516506
vt 0.040208 0.516506
vt 0.040208 0.550438
vt 0.023587 0.550438
vt 0.023587 0.518114
vt 0.040208 0.554125
vt 0.040208 0.588056
vt 0.023587 0.588056
vt 0.023587 0.554125
vt 0.060629 0.554125
vt 0.060629 0.588056
vt 0.044008 0.588056
vt 0.044008 0.554125
vt 0.858369 0.571428
vt 0.858278 0.571354
vt 0.857014 0.580513
vt 0.857014 0.571428
vt 0.857105 0.571354
vt 0.857105 0.579692
vt 0.857105 0.570516
vt 0.858278 0.579692
vt 0.857105 0.562678
vt 0.851976 0.571354
vt 0.851976 0.570516
vt 0.851088 0.570441
vt 0.857014 0.570441
vt 0.857014 0.561357
vt 0.858369 0.580513
vt 0.851088 0.571428
vt 0.231815 0.873693
vt 0.231815 0.863766
vt 0.230081 0.863766
vt 0.230081 0.873693
vt 0.229362 0.863766
vt 0.229362 0.873693
vt 0.230502 0.883620
vt 0.231815 0.883620
vt 0.230081 0.883620
vt 0.229958 0.883620
vt 0.229362 0.883620
vt 0.230509 0.863766
vt 0.229968 0.863766
vt 0.857863 0.571167
vt 0.856112 0.571167
vt 0.856115 0.566475
vt 0.857861 0.566475
vt 0.245363 0.873693
vt 0.245363 0.863766
vt 0.247098 0.863766
vt 0.247098 0.873693
vt 0.247816 0.863766
vt 0.247816 0.873693
vt 0.246677 0.883620
vt 0.245363 0.883620
vt 0.247098 0.883620
vt 0.247221 0.883620
vt 0.247816 0.883620
vt 0.246670 0.863766
vt 0.247211 0.863766
vt 0.857866 0.575859
vt 0.856110 0.575859
s 0
usemtl Winter_Pack_Texture
f 117/1/1 16/2/1 17/3/1 118/4/1
f 118/4/2 17/3/2 18/5/2 119/6/2
f 119/6/3 18/5/3 19/7/3 120/8/3
f 120/8/4 19/7/4 20/9/4 121/10/4
f 3/11/5 1/12/5 11/12/5 12/13/5
f 5/14/5 3/11/5 12/13/5 13/15/5
f 7/11/5 5/14/5 13/15/5 14/13/5
f 9/12/5 7/11/5 14/13/5 15/12/5
f 2/2/6 4/16/6 17/3/6 16/2/6
f 4/16/6 6/17/6 18/5/6 17/3/6
f 6/17/6 8/18/6 19/7/6 18/5/6
f 8/18/6 10/9/6 20/9/6 19/7/6
f 9/19/5 1/19/5 3/19/5 5/19/5 7/19/5
f 2/19/6 10/19/6 8/19/6 6/19/6 4/19/6
f 117/1/7 122/1/7 2/2/7 16/2/7
f 122/19/7 123/19/7 10/19/7 2/19/7
f 123/10/7 121/10/7 20/9/7 10/9/7
f 138/20/8 36/21/8 37/22/8 139/23/8
f 139/23/9 37/22/9 38/24/9 140/25/9
f 140/25/10 38/24/10 39/22/10 141/23/10
f 141/23/11 39/22/11 40/21/11 142/20/11
f 23/26/5 21/27/5 31/27/5 32/28/5
f 25/29/5 23/26/5 32/28/5 33/30/5
f 27/26/5 25/29/5 33/30/5 34/28/5
f 29/27/5 27/26/5 34/28/5 35/27/5
f 22/21/6 24/31/6 37/22/6 36/21/6
f 24/31/6 26/32/6 38/24/6 37/22/6
f 26/32/6 28/31/6 39/22/6 38/24/6
f 28/31/6 30/21/6 40/21/6 39/22/6
f 29/19/5 21/19/5 23/19/5 25/19/5 27/19/5
f 22/19/6 30/19/6 28/19/6 26/19/6 24/19/6
f 138/20/12 143/20/12 22/21/12 36/21/12
f 143/19/12 144/19/12 30/19/12 22/19/12
f 144/20/12 142/20/12 40/21/12 30/21/12
f 53/33/6 56/33/6 55/34/6 54/34/6
f 49/35/5 52/35/5 51/36/5 50/36/5
f 41/37/13 50/36/13 51/36/13 43/37/13
f 49/35/14 42/38/14 44/38/14 52/35/14
f 47/39/15 54/34/15 55/34/15 45/39/15
f 53/33/16 48/40/16 46/40/16 56/33/16
f 55/41/17 56/42/17 66/43/17 65/44/17
f 57/45/18 64/46/18 76/47/18 71/48/18
f 64/46/19 55/41/19 65/44/19 76/47/19
f 45/49/20 55/50/20 64/51/20 57/52/20
f 58/53/20 63/54/20 50/55/20 41/56/20
f 62/57/20 59/58/20 42/59/20 49/60/20
f 56/61/20 46/62/20 60/63/20 61/64/20
f 56/42/21 61/65/21 73/66/21 66/43/21
f 59/67/22 62/68/22 74/69/22 69/70/22
f 74/69/20 75/71/20 76/47/20 73/66/20
f 73/66/20 70/72/20 69/70/20 74/69/20
f 71/48/20 76/47/20 75/71/20 72/73/20
f 66/43/20 73/66/20 76/47/20 65/44/20
f 74/69/20 67/74/20 68/75/20 75/71/20
f 50/76/19 63/77/19 75/71/19 68/75/19
f 63/77/22 58/78/22 72/73/22 75/71/22
f 61/65/18 60/79/18 70/72/18 73/66/18
f 49/80/23 50/76/23 68/75/23 67/74/23
f 60/79/24 59/67/24 69/70/24 70/72/24
f 62/68/21 49/80/21 67/74/21 74/69/21
f 58/78/25 57/45/25 71/48/25 72/73/25
f 124/81/26 92/82/26 93/83/26 125/84/26
f 125/84/27 93/83/27 94/85/27 126/86/27
f 126/86/28 94/85/28 95/83/28 127/84/28
f 127/84/29 95/83/29 96/82/29 128/81/29
f 79/87/30 77/88/30 87/88/30 88/89/30
f 81/90/30 79/87/30 88/89/30 89/91/30
f 83/87/30 81/90/30 89/91/30 90/89/30
f 85/88/30 83/87/30 90/89/30 91/88/30
f 78/82/31 80/92/31 93/83/31 92/82/31
f 80/92/31 82/93/31 94/85/31 93/83/31
f 82/93/31 84/92/31 95/83/31 94/85/31
f 84/92/31 86/82/31 96/82/31 95/83/31
f 85/88/30 77/88/30 79/87/30 81/90/30 83/87/30
f 78/82/31 86/82/31 84/92/31 82/93/31 80/92/31
f 124/81/32 129/81/32 78/82/32 92/82/32
f 129/94/32 130/95/32 86/96/32 78/97/32
f 130/81/32 128/81/32 96/82/32 86/82/32
f 131/98/33 112/99/33 113/100/33 132/101/33
f 132/101/34 113/100/34 114/102/34 133/103/34
f 133/103/35 114/102/35 115/100/35 134/101/35
f 134/101/36 115/100/36 116/99/36 135/98/36
f 99/104/30 97/105/30 107/105/30 108/106/30
f 101/107/30 99/104/30 108/106/30 109/108/30
f 103/104/30 101/107/30 109/108/30 110/106/30
f 105/105/30 103/104/30 110/106/30 111/105/30
f 98/99/31 100/109/31 113/100/31 112/99/31
f 100/109/31 102/110/31 114/102/31 113/100/31
f 102/110/31 104/109/31 115/100/31 114/102/31
f 104/109/31 106/99/31 116/99/31 115/100/31
f 105/105/30 97/105/30 99/104/30 101/107/30 103/104/30
f 98/99/31 106/99/31 104/109/31 102/110/31 100/109/31
f 131/98/37 136/98/37 98/99/37 112/99/37
f 136/95/37 137/94/37 106/97/37 98/96/37
f 137/98/37 135/98/37 116/99/37 106/99/37
f 9/12/38 15/12/38 121/10/38 123/10/38
f 1/19/38 9/19/38 123/19/38 122/19/38
f 11/12/38 1/12/38 122/1/38 117/1/38
f 14/13/39 120/8/39 121/10/39 15/12/39
f 13/15/40 119/6/40 120/8/40 14/13/40
f 12/13/41 118/4/41 119/6/41 13/15/41
f 11/12/42 117/1/42 118/4/42 12/13/42
f 85/88/43 91/88/43 128/81/43 130/81/43
f 77/111/43 85/112/43 130/95/43 129/94/43
f 87/88/43 77/88/43 129/81/43 124/81/43
f 90/89/44 127/84/44 128/81/44 91/88/44
f 89/91/45 126/86/45 127/84/45 90/89/45
f 88/89/46 125/84/46 126/86/46 89/91/46
f 87/88/47 124/81/47 125/84/47 88/89/47
f 105/105/48 111/105/48 135/98/48 137/98/48
f 97/112/48 105/111/48 137/94/48 136/95/48
f 107/105/48 97/105/48 136/98/48 131/98/48
f 110/106/49 134/101/49 135/98/49 111/105/49
f 109/108/50 133/103/50 134/101/50 110/106/50
f 108/106/51 132/101/51 133/103/51 109/108/51
f 107/105/52 131/98/52 132/101/52 108/106/52
f 29/27/53 35/27/53 142/20/53 144/20/53
f 21/19/53 29/19/53 144/19/53 143/19/53
f 31/27/53 21/27/53 143/20/53 138/20/53
f 34/28/54 141/23/54 142/20/54 35/27/54
f 33/30/55 140/25/55 141/23/55 34/28/55
f 32/28/56 139/23/56 140/25/56 33/30/56
f 31/27/57 138/20/57 139/23/57 32/28/57
