# Blender 5.0.0
# www.blender.org
mtllib cabin_Support_Log.mtl
o cabin_Support_Log
v 4.930605 0.205520 0.085126
v -4.930605 0.204385 0.084662
v 4.930605 0.085129 0.205518
v -4.930605 0.084660 0.204388
v 4.930605 -0.085130 0.205518
v -4.930605 -0.084657 0.204388
v 4.930605 -0.205521 0.085127
v -4.930605 -0.204383 0.084662
v 4.930605 -0.205521 -0.085132
v -4.930605 -0.204383 -0.084656
v 4.930605 -0.085130 -0.205523
v -4.930605 -0.084658 -0.204381
v 4.930605 0.085129 -0.205523
v -4.930605 0.084660 -0.204381
v 4.930605 0.205520 -0.085132
v -4.930605 0.204386 -0.084656
v 4.930605 0.271416 0.112422
v 4.930605 0.112424 0.271414
v 4.930605 -0.112425 0.271414
v 4.930605 -0.271417 0.112422
v 4.930605 -0.271417 -0.112427
v 4.930605 -0.112425 -0.271419
v 4.930605 0.112424 -0.271419
v 4.930605 0.271416 -0.112427
v -4.930605 0.112426 0.271420
v -4.930605 0.271418 0.112428
v -4.930605 -0.112423 0.271420
v -4.930605 -0.271415 0.112428
v -4.930605 -0.271415 -0.112421
v -4.930605 -0.112423 -0.271413
v -4.930605 0.112426 -0.271413
v -4.930605 0.271418 -0.112421
vn -1.0000 -0.0000 -0.0000
vn -0.0000 0.7071 0.7071
vn -0.0000 -0.0000 1.0000
vn -0.0000 -0.7071 0.7071
vn -0.0000 -1.0000 -0.0000
vn -0.0000 -0.7071 -0.7071
vn -0.0000 -0.0000 -1.0000
vn -0.0000 0.7071 -0.7071
vn -0.0000 1.0000 -0.0000
vn 1.0000 -0.0000 -0.0000
vt 0.865099 0.573426
vt 0.865099 0.568464
vt 0.861590 0.564955
vt 0.856627 0.564955
vt 0.853119 0.568464
vt 0.853119 0.573426
vt 0.856627 0.576935
vt 0.861590 0.576935
vt 0.229646 0.876931
vt 0.247893 0.876931
vt 0.247893 0.874656
vt 0.229646 0.874656
vt 0.247893 0.871438
vt 0.229646 0.871438
vt 0.247893 0.869162
vt 0.229646 0.869162
vt 0.229646 0.874265
vt 0.229646 0.875988
vt 0.229646 0.871828
vt 0.229646 0.870105
vt 0.247893 0.875972
vt 0.247893 0.874259
vt 0.247893 0.871835
vt 0.247893 0.870122
vt 0.853085 0.568450
vt 0.856614 0.564922
vt 0.861603 0.564922
vt 0.865132 0.568450
vt 0.865132 0.573440
vt 0.861603 0.576969
vt 0.856614 0.576969
vt 0.853085 0.573440
s 0
usemtl Winter_Pack_Texture
f 14/1/1 12/2/1 10/3/1 8/4/1 6/5/1 4/6/1 2/7/1 16/8/1
f 17/9/2 26/10/2 25/11/2 18/12/2
f 18/12/3 25/11/3 27/13/3 19/14/3
f 19/14/4 27/13/4 28/15/4 20/16/4
f 20/16/5 28/15/5 29/15/5 21/16/5
f 21/16/6 29/15/6 30/13/6 22/14/6
f 22/14/7 30/13/7 31/11/7 23/12/7
f 23/12/8 31/11/8 32/10/8 24/9/8
f 24/9/9 32/10/9 26/10/9 17/9/9
f 3/17/10 1/18/10 17/9/10 18/12/10
f 5/19/10 3/17/10 18/12/10 19/14/10
f 7/20/10 5/19/10 19/14/10 20/16/10
f 9/20/10 7/20/10 20/16/10 21/16/10
f 11/19/10 9/20/10 21/16/10 22/14/10
f 13/17/10 11/19/10 22/14/10 23/12/10
f 15/18/10 13/17/10 23/12/10 24/9/10
f 1/18/10 15/18/10 24/9/10 17/9/10
f 2/21/1 4/22/1 25/11/1 26/10/1
f 4/22/1 6/23/1 27/13/1 25/11/1
f 6/23/1 8/24/1 28/15/1 27/13/1
f 8/24/1 10/24/1 29/15/1 28/15/1
f 10/24/1 12/23/1 30/13/1 29/15/1
f 12/23/1 14/22/1 31/11/1 30/13/1
f 14/22/1 16/21/1 32/10/1 31/11/1
f 16/21/1 2/21/1 26/10/1 32/10/1
f 5/25/10 7/26/10 9/27/10 11/28/10 13/29/10 15/30/10 1/31/10 3/32/10
