# Blender 5.0.0
# www.blender.org
mtllib cabin_Window.mtl
o cabin_Window
v -0.614114 0.519788 0.321713
v 0.612984 0.519788 0.321078
v -0.614114 0.588150 0.288089
v 0.612984 0.587772 0.287639
v -0.614114 0.616466 0.206912
v 0.612984 0.615932 0.206911
v -0.614114 0.588150 0.125735
v 0.612984 0.587772 0.126183
v -0.614114 0.519788 0.092111
v 0.612984 0.519788 0.092745
v -0.614114 0.519788 0.358522
v -0.614114 0.610069 0.314117
v -0.614114 0.647464 0.206912
v -0.614114 0.610069 0.099708
v -0.614114 0.519788 0.055302
v 0.612984 0.519788 0.358521
v 0.612984 0.610069 0.314116
v 0.612984 0.647464 0.206911
v 0.612984 0.610069 0.099707
v 0.612983 0.519788 0.055301
v -0.614114 -0.510599 0.092112
v 0.612983 -0.510600 0.092746
v -0.614114 -0.578961 0.125736
v 0.612983 -0.578584 0.126184
v -0.614114 -0.607278 0.206913
v 0.612983 -0.606744 0.206912
v -0.614114 -0.578961 0.288090
v 0.612983 -0.578584 0.287640
v -0.614114 -0.510599 0.321714
v 0.612983 -0.510599 0.321079
v -0.614114 -0.510599 0.055303
v -0.614114 -0.600881 0.099709
v -0.614114 -0.638276 0.206913
v -0.614114 -0.600881 0.314118
v -0.614114 -0.510599 0.358523
v 0.612983 -0.510600 0.055302
v 0.612983 -0.600881 0.099708
v 0.612983 -0.638276 0.206912
v 0.612983 -0.600881 0.314117
v 0.612983 -0.510599 0.358523
v -0.442544 -0.524673 0.213408
v -0.442544 0.532859 0.213407
v -0.442544 -0.524674 0.042224
v -0.442544 0.532859 0.042223
v 0.443144 -0.524674 0.213407
v 0.443144 0.532859 0.213407
v 0.443144 -0.524674 0.042223
v 0.443144 0.532859 0.042223
v -0.442544 0.019808 0.213408
v -0.442544 -0.035928 0.213408
v -0.442544 -0.035928 0.042224
v -0.442544 0.019808 0.042224
v 0.443144 0.019808 0.042223
v 0.443144 -0.035928 0.042223
v 0.443144 -0.035928 0.213407
v 0.443144 0.019809 0.213407
v 0.045728 -0.548978 0.213407
v -0.045128 -0.548978 0.213407
v -0.045128 0.532859 0.213407
v 0.045728 0.532859 0.213407
v 0.045728 0.019808 0.213407
v -0.045128 0.019808 0.213407
v -0.045128 -0.035928 0.213407
v 0.045728 -0.035928 0.213407
v 0.383597 -0.031730 0.266602
v 0.383597 0.015611 0.266602
v -0.382997 0.015611 0.266602
v -0.382997 -0.031730 0.266602
v -0.039019 0.486489 0.266602
v 0.039619 0.486489 0.266602
v 0.039619 -0.474355 0.266602
v -0.039019 -0.474355 0.266602
v 0.039619 0.015611 0.266602
v -0.039019 0.015611 0.266602
v -0.039019 -0.031730 0.266602
v 0.039619 -0.031730 0.266602
v -0.418405 0.520160 0.092110
v -0.418406 -0.513227 0.092745
v -0.499582 0.520160 0.125735
v -0.499134 -0.513227 0.126184
v -0.533207 0.520160 0.206912
v -0.532573 -0.513227 0.206912
v -0.499582 0.520160 0.288089
v -0.499134 -0.513227 0.287640
v -0.418405 0.520160 0.321713
v -0.418406 -0.513227 0.321079
v -0.418405 0.520160 0.055302
v -0.525610 0.520160 0.099707
v -0.570015 0.520160 0.206912
v -0.525610 0.520160 0.314116
v -0.418405 0.520160 0.358522
v -0.418406 -0.513227 0.055302
v -0.525610 -0.513227 0.099708
v -0.570016 -0.513227 0.206912
v -0.525610 -0.513227 0.314117
v -0.418406 -0.513227 0.358522
v 0.418951 0.520160 0.321713
v 0.418952 -0.513227 0.321078
v 0.500128 0.520160 0.288088
v 0.499680 -0.513227 0.287639
v 0.533752 0.520160 0.206911
v 0.533118 -0.513227 0.206911
v 0.500128 0.520160 0.125734
v 0.499680 -0.513227 0.126183
v 0.418951 0.520160 0.092110
v 0.418952 -0.513227 0.092745
v 0.418951 0.520160 0.358521
v 0.526156 0.520160 0.314116
v 0.570561 0.520160 0.206911
v 0.526155 0.520160 0.099707
v 0.418951 0.520160 0.055301
v 0.418952 -0.513227 0.358522
v 0.526156 -0.513227 0.314116
v 0.570562 -0.513227 0.206911
v 0.526156 -0.513227 0.099707
v 0.418952 -0.513227 0.055301
vn -0.0000 0.4414 0.8973
vn -0.0000 0.9442 0.3294
vn -0.0000 0.9442 -0.3294
vn -0.0000 0.4414 -0.8973
vn -1.0000 -0.0000 -0.0000
vn 1.0000 -0.0000 -0.0000
vn -0.0000 -1.0000 -0.0000
vn -0.0000 -0.4414 -0.8973
vn -0.0000 -0.9442 -0.3294
vn -0.0000 -0.9442 0.3294
vn -0.0000 -0.4414 0.8973
vn -0.0000 1.0000 -0.0000
vn 0.6662 -0.0000 0.7458
vn 0.9935 -0.0000 0.1141
vn -0.0000 -0.9969 0.0787
vn -0.0000 -0.0000 1.0000
vn -0.0000 0.9969 0.0787
vn -0.9935 -0.0000 0.1141
vn -0.6662 -0.0000 0.7458
vn -0.0000 0.7538 0.6571
vn -0.0000 -0.5805 0.8143
vn -0.3827 -0.0000 -0.9239
vn -0.9239 -0.0000 -0.3827
vn -0.9239 -0.0000 0.3827
vn -0.3827 -0.0000 0.9239
vn 0.3827 -0.0000 0.9239
vn 0.9239 -0.0000 0.3827
vn 0.9239 -0.0000 -0.3827
vn 0.3827 -0.0000 -0.9239
vt 0.228649 0.883613
vt 0.248503 0.883613
vt 0.248503 0.885348
vt 0.228649 0.885348
vt 0.248503 0.886066
vt 0.228649 0.886066
vt 0.248503 0.885348
vt 0.248503 0.883613
vt 0.228649 0.884927
vt 0.228649 0.885471
vt 0.248503 0.884919
vt 0.248503 0.885460
vt 0.248503 0.884919
vt 0.853672 0.577919
vt 0.228649 0.863817
vt 0.248503 0.863817
vt 0.248503 0.862082
vt 0.228649 0.862082
vt 0.248503 0.861364
vt 0.228649 0.861364
vt 0.228649 0.862503
vt 0.228649 0.861959
vt 0.248503 0.862510
vt 0.248503 0.861969
vt 0.245755 0.874007
vt 0.245755 0.872936
vt 0.231425 0.874007
vt 0.231425 0.872936
vt 0.231425 0.863546
vt 0.231425 0.883864
vt 0.245755 0.863546
vt 0.245755 0.883864
vt 0.864295 0.570441
vt 0.864295 0.571428
vt 0.863407 0.571354
vt 0.863407 0.570516
vt 0.858369 0.561357
vt 0.858369 0.570441
vt 0.858278 0.570516
vt 0.858278 0.562678
vt 0.060629 0.518114
vt 0.060629 0.550438
vt 0.044008 0.550438
vt 0.044008 0.516506
vt 0.040208 0.516506
vt 0.040208 0.550438
vt 0.023587 0.550438
vt 0.023587 0.518114
vt 0.040208 0.554125
vt 0.040208 0.588056
vt 0.023587 0.588056
vt 0.023587 0.554125
vt 0.060629 0.554125
vt 0.060629 0.588056
vt 0.044008 0.588056
vt 0.044008 0.554125
vt 0.858369 0.571428
vt 0.858278 0.571354
vt 0.857014 0.580513
vt 0.857014 0.571428
vt 0.857105 0.571354
vt 0.857105 0.579692
vt 0.857105 0.570516
vt 0.858278 0.579692
vt 0.857105 0.562678
vt 0.851976 0.571354
vt 0.851976 0.570516
vt 0.851088 0.570441
vt 0.857014 0.570441
vt 0.857014 0.561357
vt 0.858369 0.580513
vt 0.851088 0.571428
vt 0.231815 0.883620
vt 0.231815 0.863766
vt 0.230081 0.863766
vt 0.230081 0.883620
vt 0.229362 0.863766
vt 0.229362 0.883620
vt 0.230502 0.883620
vt 0.229958 0.883620
vt 0.230509 0.863766
vt 0.229968 0.863766
vt 0.857866 0.575859
vt 0.856110 0.575859
vt 0.856115 0.566475
vt 0.857861 0.566475
vt 0.245363 0.883620
vt 0.245363 0.863766
vt 0.247098 0.863766
vt 0.247098 0.883620
vt 0.247816 0.863766
vt 0.247816 0.883620
vt 0.246677 0.883620
vt 0.247221 0.883620
vt 0.246670 0.863766
vt 0.247211 0.863766
s 0
usemtl Winter_Pack_Texture
f 11/1/1 16/2/1 17/3/1 12/4/1
f 12/4/2 17/3/2 18/5/2 13/6/2
f 13/6/3 18/5/3 19/7/3 14/4/3
f 14/4/4 19/7/4 20/8/4 15/1/4
f 3/9/5 1/1/5 11/1/5 12/4/5
f 5/10/5 3/9/5 12/4/5 13/6/5
f 7/9/5 5/10/5 13/6/5 14/4/5
f 9/1/5 7/9/5 14/4/5 15/1/5
f 2/2/6 4/11/6 17/3/6 16/2/6
f 4/11/6 6/12/6 18/5/6 17/3/6
f 6/12/6 8/13/6 19/7/6 18/5/6
f 8/13/6 10/8/6 20/8/6 19/7/6
f 9/14/5 1/14/5 3/14/5 5/14/5 7/14/5
f 2/14/6 10/14/6 8/14/6 6/14/6 4/14/6
f 11/1/7 1/1/7 2/2/7 16/2/7
f 1/14/7 9/14/7 10/14/7 2/14/7
f 9/1/7 15/1/7 20/8/7 10/8/7
f 31/15/8 36/16/8 37/17/8 32/18/8
f 32/18/9 37/17/9 38/19/9 33/20/9
f 33/20/10 38/19/10 39/17/10 34/18/10
f 34/18/11 39/17/11 40/16/11 35/15/11
f 23/21/5 21/15/5 31/15/5 32/18/5
f 25/22/5 23/21/5 32/18/5 33/20/5
f 27/21/5 25/22/5 33/20/5 34/18/5
f 29/15/5 27/21/5 34/18/5 35/15/5
f 22/16/6 24/23/6 37/17/6 36/16/6
f 24/23/6 26/24/6 38/19/6 37/17/6
f 26/24/6 28/23/6 39/17/6 38/19/6
f 28/23/6 30/16/6 40/16/6 39/17/6
f 29/14/5 21/14/5 23/14/5 25/14/5 27/14/5
f 22/14/6 30/14/6 28/14/6 26/14/6 24/14/6
f 31/15/12 21/15/12 22/16/12 36/16/12
f 21/14/12 29/14/12 30/14/12 22/14/12
f 29/15/12 35/15/12 40/16/12 30/16/12
f 53/25/6 56/25/6 55/26/6 54/26/6
f 49/27/5 52/27/5 51/28/5 50/28/5
f 41/29/5 50/28/5 51/28/5 43/29/5
f 49/27/5 42/30/5 44/30/5 52/27/5
f 47/31/6 54/26/6 55/26/6 45/31/6
f 53/25/6 48/32/6 46/32/6 56/25/6
f 55/33/13 56/34/13 66/35/13 65/36/13
f 57/37/14 64/38/14 76/39/14 71/40/14
f 64/38/15 55/33/15 65/36/15 76/39/15
f 45/41/16 55/42/16 64/43/16 57/44/16
f 58/45/16 63/46/16 50/47/16 41/48/16
f 62/49/16 59/50/16 42/51/16 49/52/16
f 56/53/16 46/54/16 60/55/16 61/56/16
f 56/34/17 61/57/17 73/58/17 66/35/17
f 59/59/18 62/60/18 74/61/18 69/62/18
f 74/61/16 75/63/16 76/39/16 73/58/16
f 73/58/16 70/64/16 69/62/16 74/61/16
f 71/40/16 76/39/16 75/63/16 72/65/16
f 66/35/16 73/58/16 76/39/16 65/36/16
f 74/61/16 67/66/16 68/67/16 75/63/16
f 50/68/15 63/69/15 75/63/15 68/67/15
f 63/69/18 58/70/18 72/65/18 75/63/18
f 61/57/14 60/71/14 70/64/14 73/58/14
f 49/72/19 50/68/19 68/67/19 67/66/19
f 60/71/20 59/59/20 69/62/20 70/64/20
f 62/60/17 49/72/17 67/66/17 74/61/17
f 58/70/21 57/37/21 71/40/21 72/65/21
f 87/73/22 92/74/22 93/75/22 88/76/22
f 88/76/23 93/75/23 94/77/23 89/78/23
f 89/78/24 94/77/24 95/75/24 90/76/24
f 90/76/25 95/75/25 96/74/25 91/73/25
f 79/79/12 77/73/12 87/73/12 88/76/12
f 81/80/12 79/79/12 88/76/12 89/78/12
f 83/79/12 81/80/12 89/78/12 90/76/12
f 85/73/12 83/79/12 90/76/12 91/73/12
f 78/74/7 80/81/7 93/75/7 92/74/7
f 80/81/7 82/82/7 94/77/7 93/75/7
f 82/82/7 84/81/7 95/75/7 94/77/7
f 84/81/7 86/74/7 96/74/7 95/75/7
f 85/73/12 77/73/12 79/79/12 81/80/12 83/79/12
f 78/74/7 86/74/7 84/81/7 82/82/7 80/81/7
f 87/73/6 77/73/6 78/74/6 92/74/6
f 77/83/6 85/84/6 86/85/6 78/86/6
f 85/73/6 91/73/6 96/74/6 86/74/6
f 107/87/26 112/88/26 113/89/26 108/90/26
f 108/90/27 113/89/27 114/91/27 109/92/27
f 109/92/28 114/91/28 115/89/28 110/90/28
f 110/90/29 115/89/29 116/88/29 111/87/29
f 99/93/12 97/87/12 107/87/12 108/90/12
f 101/94/12 99/93/12 108/90/12 109/92/12
f 103/93/12 101/94/12 109/92/12 110/90/12
f 105/87/12 103/93/12 110/90/12 111/87/12
f 98/88/7 100/95/7 113/89/7 112/88/7
f 100/95/7 102/96/7 114/91/7 113/89/7
f 102/96/7 104/95/7 115/89/7 114/91/7
f 104/95/7 106/88/7 116/88/7 115/89/7
f 105/87/12 97/87/12 99/93/12 101/94/12 103/93/12
f 98/88/7 106/88/7 104/95/7 102/96/7 100/95/7
f 107/87/5 97/87/5 98/88/5 112/88/5
f 97/84/5 105/83/5 106/86/5 98/85/5
f 105/87/5 111/87/5 116/88/5 106/88/5
