# Blender 5.0.0
# www.blender.org
mtllib cabin_Roof_Side_Snow.mtl
o cabin_Roof_Side_Snow
v -4.648512 -0.105166 3.173341
v -4.648512 0.105167 3.173341
v 4.648518 -0.105166 3.173332
v 4.648518 0.105167 3.173332
v 0.000003 -0.105166 3.173337
v 0.000003 0.105167 3.173337
v 2.231289 -0.105166 3.173335
v 2.417230 -0.105166 3.173335
v 2.417230 0.105167 3.173335
v 2.231289 0.105167 3.173335
v -2.231284 0.105167 3.173339
v -2.417225 0.105167 3.173339
v -2.417225 -0.105166 3.173339
v -2.231284 -0.105166 3.173339
v -4.648516 0.213782 0.677495
v -4.648516 0.213782 0.591849
v -4.648514 0.213782 1.946830
v -4.648514 0.213782 1.861184
v 4.648516 0.213782 0.591839
v 4.648516 0.213782 0.677486
v 4.648517 0.213782 1.861174
v 4.648517 0.213782 1.946820
v 2.231287 0.213782 0.677488
v 2.231287 0.213782 0.591842
v 2.417228 0.213782 0.591842
v 2.417228 0.213782 0.677488
v 2.231289 0.213782 1.946823
v 2.231289 0.213782 1.861176
v 2.417229 0.213782 1.861176
v 2.417229 0.213782 1.946823
v 0.000001 0.213782 0.591844
v 0.000001 0.213782 0.677491
v 0.000002 0.213782 1.861179
v 0.000002 0.213782 1.946825
v -2.417228 0.213782 0.677493
v -2.417228 0.213782 0.591847
v -2.231287 0.213782 0.591846
v -2.231287 0.213782 0.677493
v -2.417226 0.213782 1.946828
v -2.417226 0.213782 1.861181
v -2.231286 0.213782 1.861181
v -2.231286 0.213782 1.946828
v 4.648517 -0.105166 1.772719
v 4.648517 -0.105166 2.035276
v 4.648515 -0.105167 0.503385
v 4.648517 -0.105166 0.765941
v 4.648515 -0.105167 -0.503394
v 4.648515 0.105167 -0.503394
v 4.648517 0.105167 0.765941
v 4.648515 0.105167 0.503385
v 4.648517 0.105167 2.035276
v 4.648517 0.105167 1.772719
v -4.648515 -0.105167 -0.503385
v -4.648514 -0.105167 0.765950
v -4.648515 -0.105167 0.503394
v -4.648514 -0.105166 2.035285
v -4.648514 -0.105166 1.772729
v -4.648514 0.105167 1.772729
v -4.648514 0.105167 2.035285
v -4.648515 0.105167 0.503394
v -4.648514 0.105167 0.765950
v -4.648515 0.105167 -0.503385
v -0.000001 0.105167 -0.503390
v 0.000001 0.105167 0.765945
v 0.000001 0.105167 0.503389
v 0.000002 0.105167 2.035280
v 0.000002 0.105167 1.772724
v 0.000002 -0.105166 1.772724
v 0.000002 -0.105166 2.035280
v 0.000001 -0.105167 0.503390
v 0.000001 -0.105166 0.765945
v -0.000001 -0.105167 -0.503389
v 2.417228 -0.105166 1.772722
v 2.417229 -0.105166 2.035278
v 2.417228 -0.105167 0.503387
v 2.417228 -0.105166 0.765943
v 2.417226 -0.105167 -0.503392
v 2.231288 -0.105166 2.035278
v 2.231288 -0.105166 1.772722
v 2.231287 -0.105166 0.765943
v 2.231287 -0.105167 0.503387
v 2.231286 -0.105167 -0.503392
v 2.417226 0.105167 -0.503392
v 2.417228 0.105167 0.765943
v 2.417228 0.105167 0.503387
v 2.417229 0.105167 2.035278
v 2.417228 0.105167 1.772722
v 2.231286 0.105167 -0.503392
v 2.231287 0.105167 0.503387
v 2.231287 0.105167 0.765943
v 2.231288 0.105167 1.772722
v 2.231288 0.105167 2.035278
v -2.231288 0.105167 -0.503387
v -2.231287 0.105167 0.765948
v -2.231287 0.105167 0.503392
v -2.231285 0.105167 2.035282
v -2.231286 0.105167 1.772726
v -2.417228 0.105167 -0.503387
v -2.417227 0.105167 0.503392
v -2.417227 0.105167 0.765948
v -2.417226 0.105167 1.772727
v -2.417226 0.105167 2.035282
v -2.231286 -0.105166 1.772726
v -2.231285 -0.105166 2.035282
v -2.231287 -0.105167 0.503392
v -2.231287 -0.105166 0.765948
v -2.231288 -0.105167 -0.503387
v -2.417226 -0.105166 2.035282
v -2.417226 -0.105166 1.772727
v -2.417227 -0.105167 0.765948
v -2.417227 -0.105167 0.503392
v -2.417228 -0.105167 -0.503387
vn -0.0000 -0.0000 1.0000
vn -0.0000 0.6315 0.7754
vn -0.0000 0.6315 -0.7754
vn -0.0000 1.0000 -0.0000
vn -0.0000 -0.0000 -1.0000
vn -1.0000 -0.0000 -0.0000
vn -0.0000 -1.0000 -0.0000
vn 1.0000 -0.0000 -0.0000
vt 0.725512 0.477733
vt 0.725512 0.498851
vt 0.691869 0.531118
vt 0.690094 0.531118
vt 0.690094 0.530258
vt 0.691869 0.530258
vt 0.690094 0.528565
vt 0.691869 0.528565
vt 0.691869 0.529425
vt 0.690094 0.529425
vt 0.725512 0.477733
vt 0.725512 0.498851
vt 0.680682 0.520546
vt 0.682457 0.520546
vt 0.682457 0.521543
vt 0.680682 0.521543
vt 0.686396 0.529425
vt 0.688171 0.529425
vt 0.688171 0.530258
vt 0.686396 0.530258
vt 0.676984 0.520546
vt 0.678759 0.520546
vt 0.678759 0.521543
vt 0.676984 0.521543
vt 0.684474 0.529425
vt 0.686248 0.529425
vt 0.686248 0.530258
vt 0.684474 0.530258
vt 0.675062 0.520546
vt 0.676837 0.520546
vt 0.676837 0.521543
vt 0.675062 0.521543
vt 0.689946 0.529425
vt 0.689946 0.530258
vt 0.680534 0.520546
vt 0.680534 0.521543
vt 0.678759 0.522573
vt 0.676984 0.522573
vt 0.676984 0.519516
vt 0.678759 0.519516
vt 0.686396 0.531118
vt 0.686248 0.531118
vt 0.689946 0.531118
vt 0.686248 0.528565
vt 0.686396 0.528565
vt 0.689946 0.528565
vt 0.676837 0.522573
vt 0.680682 0.522573
vt 0.680534 0.522573
vt 0.676837 0.519516
vt 0.714522 0.477733
vt 0.714522 0.498851
vt 0.680534 0.519516
vt 0.680682 0.519516
vt 0.682344 0.459475
vt 0.684170 0.459475
vt 0.673515 0.459475
vt 0.675342 0.459475
vt 0.682457 0.522573
vt 0.684474 0.531118
vt 0.682457 0.519516
vt 0.684474 0.528565
vt 0.688171 0.531118
vt 0.688171 0.528565
vt 0.675062 0.522573
vt 0.675062 0.519516
vt 0.684170 0.459475
vt 0.673515 0.459475
vt 0.721326 0.498851
vt 0.721326 0.477733
vt 0.722110 0.477733
vt 0.722110 0.498851
vt 0.717531 0.498851
vt 0.717531 0.477733
vt 0.718316 0.477733
vt 0.718316 0.498851
vt 0.718316 0.498851
vt 0.718316 0.477733
vt 0.717531 0.477733
vt 0.717531 0.498851
vt 0.722110 0.498851
vt 0.722110 0.477733
vt 0.721326 0.477733
vt 0.721326 0.498851
vt 0.665600 0.459475
vt 0.665600 0.459475
vt 0.714522 0.477733
vt 0.714522 0.498851
vt 0.691173 0.459475
vt 0.685657 0.563554
vt 0.685657 0.555454
vt 0.692695 0.555454
vt 0.692695 0.563554
vt 0.686513 0.526080
vt 0.686513 0.515513
vt 0.692266 0.515514
vt 0.692266 0.526080
vt 0.685657 0.585036
vt 0.685657 0.575879
vt 0.692695 0.575879
vt 0.692695 0.585036
vt 0.704733 0.540780
vt 0.704733 0.528836
vt 0.710486 0.528836
vt 0.710486 0.540780
vt 0.707945 0.573767
vt 0.707945 0.565666
vt 0.714983 0.565666
vt 0.714983 0.573767
vt 0.699349 0.535285
vt 0.699349 0.529189
vt 0.704646 0.529189
vt 0.704646 0.535285
vt 0.707267 0.558019
vt 0.707267 0.567231
vt 0.699263 0.567231
vt 0.699263 0.558019
vt 0.693611 0.535285
vt 0.693611 0.529189
vt 0.698908 0.529189
vt 0.698908 0.535285
vt 0.696775 0.582721
vt 0.696775 0.572093
vt 0.706010 0.572093
vt 0.706010 0.582721
vt 0.698499 0.526080
vt 0.698499 0.515514
vt 0.704253 0.515514
vt 0.704253 0.526080
vt 0.688314 0.551451
vt 0.688314 0.544560
vt 0.693611 0.544560
vt 0.693611 0.551451
vt 0.698908 0.544560
vt 0.698908 0.551451
vt 0.692888 0.532180
vt 0.692888 0.515935
vt 0.694065 0.515935
vt 0.694065 0.532180
vt 0.696903 0.571467
vt 0.696903 0.555222
vt 0.698079 0.555222
vt 0.698079 0.571467
vt 0.685597 0.550813
vt 0.685597 0.532450
vt 0.686774 0.532450
vt 0.686774 0.550813
vt 0.705192 0.527517
vt 0.705192 0.511272
vt 0.706368 0.511272
vt 0.706368 0.527517
vt 0.703717 0.555520
vt 0.703717 0.539275
vt 0.704893 0.539275
vt 0.704893 0.555520
vt 0.709288 0.520239
vt 0.709288 0.501877
vt 0.710464 0.501877
vt 0.710464 0.520239
s 0
usemtl Winter_Pack_Texture
f 13/1/1 12/2/1 2/2/1 1/1/1
f 61/3/2 100/4/2 35/5/2 15/6/2
f 99/7/3 60/8/3 16/9/3 36/10/3
f 7/1/1 10/2/1 6/2/1 5/1/1
f 3/11/1 4/12/1 9/12/1 8/11/1
f 8/11/1 9/12/1 10/2/1 7/1/1
f 40/13/4 18/14/4 17/15/4 39/16/4
f 24/17/4 31/18/4 32/19/4 23/20/4
f 28/21/4 33/22/4 34/23/4 27/24/4
f 19/25/4 25/26/4 26/27/4 20/28/4
f 21/29/4 29/30/4 30/31/4 22/32/4
f 5/1/1 6/2/1 11/2/1 14/1/1
f 14/1/1 11/2/1 12/2/1 13/1/1
f 25/26/4 24/17/4 23/20/4 26/27/4
f 29/30/4 28/21/4 27/24/4 30/31/4
f 31/18/4 37/33/4 38/34/4 32/19/4
f 33/22/4 41/35/4 42/36/4 34/23/4
f 37/33/4 36/10/4 35/5/4 38/34/4
f 41/35/4 40/13/4 39/16/4 42/36/4
f 66/37/2 92/38/2 27/24/2 34/23/2
f 91/39/3 67/40/3 33/22/3 28/21/3
f 90/41/2 84/42/2 26/27/2 23/20/2
f 100/4/2 94/43/2 38/34/2 35/5/2
f 85/44/3 89/45/3 24/17/3 25/26/3
f 95/46/3 99/7/3 36/10/3 37/33/3
f 92/38/2 86/47/2 30/31/2 27/24/2
f 102/48/2 96/49/2 42/36/2 39/16/2
f 87/50/3 91/39/3 28/21/3 29/30/3
f 112/51/5 98/52/5 93/52/5 107/51/5
f 97/53/3 101/54/3 40/13/3 41/35/3
f 36/10/4 16/9/4 15/6/4 35/5/4
f 60/8/6 61/3/6 15/6/6 16/9/6
f 106/55/7 110/55/7 111/56/7 105/56/7
f 104/57/7 108/57/7 109/58/7 103/58/7
f 71/55/7 106/55/7 105/56/7 70/56/7
f 69/57/7 104/57/7 103/58/7 68/58/7
f 59/59/2 102/48/2 39/16/2 17/15/2
f 84/42/2 49/60/2 20/28/2 26/27/2
f 58/61/6 59/59/6 17/15/6 18/14/6
f 50/62/3 85/44/3 25/26/3 19/25/3
f 101/54/3 58/61/3 18/14/3 40/13/3
f 94/43/2 64/63/2 32/19/2 38/34/2
f 49/60/8 50/62/8 19/25/8 20/28/8
f 65/64/3 95/46/3 37/33/3 31/18/3
f 86/47/2 51/65/2 22/32/2 30/31/2
f 52/66/3 87/50/3 29/30/3 21/29/3
f 76/55/7 80/55/7 81/56/7 75/56/7
f 74/57/7 78/57/7 79/58/7 73/58/7
f 46/55/7 76/55/7 75/56/7 45/67/7
f 44/68/7 74/57/7 73/58/7 43/58/7
f 80/55/7 71/55/7 70/56/7 81/56/7
f 78/57/7 69/57/7 68/58/7 79/58/7
f 96/49/2 66/37/2 34/23/2 42/36/2
f 51/65/8 52/66/8 21/29/8 22/32/8
f 67/40/3 97/53/3 41/35/3 33/22/3
f 64/63/2 90/41/2 23/20/2 32/19/2
f 89/45/3 65/64/3 31/18/3 24/17/3
f 110/55/7 54/55/7 55/56/7 111/56/7
f 108/57/7 56/57/7 57/58/7 109/58/7
f 58/69/6 57/70/6 56/71/6 59/72/6
f 60/73/6 55/74/6 54/75/6 61/76/6
f 53/51/5 62/52/5 98/52/5 112/51/5
f 49/77/8 46/78/8 45/79/8 50/80/8
f 51/81/8 44/82/8 43/83/8 52/84/8
f 44/68/7 3/85/7 8/86/7 74/57/7
f 46/78/8 49/77/8 52/84/8 43/83/8
f 46/55/7 43/58/7 73/58/7 76/55/7
f 44/82/8 51/81/8 4/12/8 3/11/8
f 47/87/8 48/88/8 50/80/8 45/79/8
f 47/89/7 45/67/7 75/56/7 77/89/7
f 77/87/5 83/88/5 48/88/5 47/87/5
f 82/51/5 88/52/5 83/88/5 77/87/5
f 50/90/4 48/91/4 83/92/4 85/93/4
f 52/94/4 49/95/4 84/96/4 87/97/4
f 4/98/4 51/99/4 86/100/4 9/101/4
f 72/51/5 63/52/5 88/52/5 82/51/5
f 107/51/5 93/52/5 63/52/5 72/51/5
f 55/74/6 60/73/6 62/52/6 53/51/6
f 112/89/7 111/56/7 55/56/7 53/89/7
f 57/70/6 58/69/6 61/76/6 54/75/6
f 110/55/7 109/58/7 57/58/7 54/55/7
f 1/1/6 2/2/6 59/72/6 56/71/6
f 108/57/7 13/86/7 1/86/7 56/57/7
f 12/102/4 102/103/4 59/104/4 2/105/4
f 101/106/4 100/107/4 61/108/4 58/109/4
f 99/110/4 98/111/4 62/112/4 60/113/4
f 89/114/4 88/115/4 63/116/4 65/117/4
f 65/118/4 63/119/4 93/120/4 95/121/4
f 91/122/4 90/123/4 64/124/4 67/125/4
f 67/126/4 64/127/4 94/128/4 97/129/4
f 10/130/4 92/131/4 66/132/4 6/133/4
f 6/133/4 66/132/4 96/134/4 11/135/4
f 69/57/7 5/86/7 14/86/7 104/57/7
f 80/55/7 79/58/7 68/58/7 71/55/7
f 71/55/7 68/58/7 103/58/7 106/55/7
f 78/57/7 7/86/7 5/86/7 69/57/7
f 82/89/7 81/56/7 70/56/7 72/89/7
f 72/89/7 70/56/7 105/56/7 107/89/7
f 74/57/7 8/86/7 7/86/7 78/57/7
f 76/55/7 73/58/7 79/58/7 80/55/7
f 77/89/7 75/56/7 81/56/7 82/89/7
f 85/136/4 83/137/4 88/138/4 89/139/4
f 87/140/4 84/141/4 90/142/4 91/143/4
f 9/144/4 86/145/4 92/146/4 10/147/4
f 95/148/4 93/149/4 98/150/4 99/151/4
f 97/152/4 94/153/4 100/154/4 101/155/4
f 11/156/4 96/157/4 102/158/4 12/159/4
f 104/57/7 14/86/7 13/86/7 108/57/7
f 106/55/7 103/58/7 109/58/7 110/55/7
f 107/89/7 105/56/7 111/56/7 112/89/7
