# Blender 5.0.0
# www.blender.org
mtllib cabin_Floor.mtl
o cabin_Floor
v -4.648513 -0.127276 1.838368
v 2.231284 0.127276 -1.838365
v 4.648517 -0.127276 1.838358
v 4.648515 0.127276 -0.367677
v 0.000002 -0.127276 1.838363
v 4.648514 0.127276 -1.103023
v 2.231289 -0.127276 1.838361
v -4.648516 0.127276 -1.103013
v -4.648515 0.127276 -0.367668
v -4.648515 0.127277 0.367678
v -4.648513 0.127277 1.103023
v -2.231285 -0.127276 1.838366
v 4.648514 -0.127277 -1.838368
v -4.648516 -0.127277 -1.838358
v -0.000002 0.127276 -1.838363
v -4.648516 0.127276 -1.838358
v 4.648514 0.127276 -1.838368
v -2.231285 0.127277 1.838366
v -0.000002 -0.127277 -1.838363
v 2.231284 -0.127277 -1.838365
v 2.231289 0.127277 1.838361
v 0.000001 -0.127276 1.103018
v 0.000002 0.127277 1.838363
v 2.231288 -0.127276 1.103016
v 2.231287 -0.127276 0.367671
v 2.231286 -0.127277 -0.367675
v 2.231285 -0.127277 -1.103020
v 4.648517 0.127277 1.838358
v -4.648513 0.127277 1.838368
v -4.648513 -0.127276 1.103023
v -4.648515 -0.127276 0.367678
v -4.648515 -0.127277 -0.367668
v -4.648516 -0.127277 -1.103013
v 4.648514 -0.127277 -1.103023
v 4.648515 -0.127277 -0.367677
v 4.648515 -0.127276 0.367668
v 4.648517 -0.127276 1.103013
v -2.231289 -0.127277 -1.838361
v 2.231285 0.127276 -1.103020
v 2.231286 0.127276 -0.367675
v 2.231287 0.127277 0.367671
v 2.231288 0.127277 1.103016
v -0.000001 0.127276 -1.103018
v -0.000000 0.127276 -0.367673
v 0.000001 0.127277 0.367673
v 0.000001 0.127277 1.103018
v -2.231288 0.127276 -1.103016
v -2.231288 0.127276 -0.367670
v -2.231286 0.127277 0.367675
v -2.231285 0.127277 1.103020
v -2.231289 0.127276 -1.838361
v 4.648517 0.127277 1.103013
v 4.648515 0.127277 0.367668
v 0.000001 -0.127276 0.367673
v -0.000000 -0.127277 -0.367672
v -0.000001 -0.127277 -1.103018
v -2.231286 -0.127276 1.103020
v -2.231286 -0.127276 0.367675
v -2.231288 -0.127277 -0.367670
v -2.231288 -0.127277 -1.103016
v -3.439899 -0.127276 1.838367
v -3.439900 -0.127276 0.367676
v -3.439902 -0.127277 -0.367669
v -3.439903 -0.127277 -1.103014
v -3.439903 0.127276 -1.838360
v -3.439903 -0.127277 -1.838360
v -3.439899 0.127277 1.838367
v -3.439902 0.127276 -0.367669
v -3.439900 0.127277 0.367676
v -3.439900 0.127277 1.103021
v -3.439900 -0.127276 1.103021
v -3.439903 0.127276 -1.103014
v 3.439903 -0.127276 1.838360
v 3.439900 0.127276 -0.367676
v 3.439899 0.127276 -1.838366
v 3.439899 -0.127277 -1.838366
v 3.439903 0.127277 1.838360
v 3.439902 0.127277 0.367669
v 3.439903 0.127277 1.103015
v 3.439900 -0.127277 -1.103021
v 3.439900 -0.127277 -0.367676
v 3.439902 -0.127276 0.367669
v 3.439903 -0.127276 1.103015
v 3.439900 0.127276 -1.103021
v 1.115645 -0.127276 1.838362
v 1.115641 0.127276 -1.838364
v 1.115641 -0.127277 -1.838364
v 1.115643 0.127276 -0.367674
v 1.115645 0.127277 1.838362
v 1.115644 0.127277 0.367672
v 1.115644 0.127277 1.103017
v 1.115642 -0.127277 -1.103019
v 1.115643 -0.127277 -0.367674
v 1.115644 -0.127276 0.367672
v 1.115644 -0.127276 1.103017
v 1.115642 0.127276 -1.103019
v -1.115641 -0.127276 1.838364
v -1.115645 -0.127277 -1.838362
v -1.115645 0.127276 -1.838362
v -1.115644 0.127276 -0.367671
v -1.115641 0.127277 1.838364
v -1.115643 0.127277 0.367674
v -1.115642 0.127277 1.103019
v -1.115642 -0.127276 1.103019
v -1.115643 -0.127276 0.367674
v -1.115644 -0.127277 -0.367671
v -1.115644 -0.127277 -1.103017
v -1.115644 0.127276 -1.103017
vn 1.0000 -0.0000 -0.0000
vn -0.0000 -0.0000 1.0000
vn -0.0000 -0.0000 -1.0000
vn -1.0000 -0.0000 -0.0000
vn -0.0000 -1.0000 -0.0000
vn -0.0000 1.0000 -0.0000
vt 0.852215 0.540090
vt 0.835916 0.597763
vt 0.851075 0.494836
vt 0.852141 0.521782
s 0
usemtl Winter_Pack_Texture
f 34/1/1 13/1/1 17/1/1 6/1/1
f 85/1/2 7/1/2 21/1/2 89/1/2
f 37/1/1 36/1/1 53/1/1 52/1/1
f 66/1/3 14/1/3 16/1/3 65/1/3
f 32/1/4 31/1/4 10/1/4 9/1/4
f 33/1/4 32/1/4 9/1/4 8/1/4
f 61/1/5 71/1/5 57/1/5 12/1/5
f 63/1/5 32/1/5 33/1/5 64/1/5
f 107/1/5 98/1/5 19/1/5 56/1/5
f 83/1/5 24/1/5 25/1/5 82/1/5
f 81/1/5 35/1/5 36/1/5 82/1/5
f 95/1/5 85/1/5 5/1/5 22/1/5
f 78/2/6 53/2/6 4/2/6 74/2/6
f 62/1/5 71/1/5 30/1/5 31/1/5
f 69/3/6 49/3/6 48/3/6 68/3/6
f 80/1/5 27/1/5 20/1/5 76/1/5
f 68/4/6 48/4/6 47/4/6 72/4/6
f 3/1/1 37/1/1 52/1/1 28/1/1
f 30/1/4 1/1/4 29/1/4 11/1/4
f 98/1/3 38/1/3 51/1/3 99/1/3
f 79/1/6 52/1/6 53/1/6 78/1/6
f 97/1/2 5/1/2 23/1/2 101/1/2
f 31/1/4 30/1/4 11/1/4 10/1/4
f 83/1/5 37/1/5 3/1/5 73/1/5
f 93/1/5 94/1/5 54/1/5 55/1/5
f 92/1/5 93/1/5 55/1/5 56/1/5
f 80/1/5 34/1/5 35/1/5 81/1/5
f 87/1/5 92/1/5 56/1/5 19/1/5
f 70/4/6 50/4/6 49/4/6 69/4/6
f 91/3/6 42/3/6 41/3/6 90/3/6
f 103/1/6 46/1/6 45/1/6 102/1/6
f 77/4/6 79/4/6 42/4/6 21/4/6
f 67/3/6 18/3/6 50/3/6 70/3/6
f 89/4/6 21/4/6 42/4/6 91/4/6
f 101/2/6 23/2/6 46/2/6 103/2/6
f 61/1/2 12/1/2 18/1/2 67/1/2
f 35/1/1 34/1/1 6/1/1 4/1/1
f 36/1/1 35/1/1 4/1/1 53/1/1
f 14/1/4 33/1/4 8/1/4 16/1/4
f 73/1/2 3/1/2 28/1/2 77/1/2
f 87/1/3 19/1/3 15/1/3 86/1/3
f 76/1/3 75/1/3 17/1/3 13/1/3
f 94/1/5 95/1/5 22/1/5 54/1/5
f 97/1/5 104/1/5 22/1/5 5/1/5
f 104/1/5 105/1/5 54/1/5 22/1/5
f 105/1/5 106/1/5 55/1/5 54/1/5
f 106/1/5 107/1/5 56/1/5 55/1/5
f 102/3/6 45/3/6 44/3/6 100/3/6
f 90/2/6 41/2/6 40/2/6 88/2/6
f 64/1/5 33/1/5 14/1/5 66/1/5
f 74/4/6 4/4/6 6/4/6 84/4/6
f 100/2/6 44/2/6 43/2/6 108/2/6
f 88/3/6 40/3/6 39/3/6 96/3/6
f 72/3/6 47/3/6 51/3/6 65/3/6
f 84/3/6 6/3/6 17/3/6 75/3/6
f 108/4/6 43/4/6 15/4/6 99/4/6
f 96/4/6 39/4/6 2/4/6 86/4/6
f 63/1/5 62/1/5 31/1/5 32/1/5
f 59/1/5 58/1/5 62/1/5 63/1/5
f 8/3/6 72/3/6 65/3/6 16/3/6
f 60/1/5 64/1/5 66/1/5 38/1/5
f 1/1/2 61/1/2 67/1/2 29/1/2
f 29/3/6 67/3/6 70/3/6 11/3/6
f 11/4/6 70/4/6 69/4/6 10/4/6
f 9/4/6 68/4/6 72/4/6 8/4/6
f 10/1/6 69/1/6 68/1/6 9/1/6
f 58/1/5 57/1/5 71/1/5 62/1/5
f 59/1/5 63/1/5 64/1/5 60/1/5
f 1/1/5 30/1/5 71/1/5 61/1/5
f 38/1/3 66/1/3 65/1/3 51/1/3
f 39/3/6 84/3/6 75/3/6 2/3/6
f 40/4/6 74/4/6 84/4/6 39/4/6
f 20/1/3 2/1/3 75/1/3 76/1/3
f 7/1/2 73/1/2 77/1/2 21/1/2
f 28/4/6 52/4/6 79/4/6 77/4/6
f 27/1/5 80/1/5 81/1/5 26/1/5
f 24/1/5 83/1/5 73/1/5 7/1/5
f 42/3/6 79/3/6 78/3/6 41/3/6
f 34/1/5 80/1/5 76/1/5 13/1/5
f 41/2/6 78/2/6 74/2/6 40/2/6
f 26/1/5 81/1/5 82/1/5 25/1/5
f 37/1/5 83/1/5 82/1/5 36/1/5
f 43/4/6 96/4/6 86/4/6 15/4/6
f 44/3/6 88/3/6 96/3/6 43/3/6
f 45/2/6 90/2/6 88/2/6 44/2/6
f 25/1/5 24/1/5 95/1/5 94/1/5
f 20/1/3 87/1/3 86/1/3 2/1/3
f 23/2/6 89/2/6 91/2/6 46/2/6
f 46/3/6 91/3/6 90/3/6 45/3/6
f 20/1/5 27/1/5 92/1/5 87/1/5
f 27/1/5 26/1/5 93/1/5 92/1/5
f 26/1/5 25/1/5 94/1/5 93/1/5
f 24/1/5 7/1/5 85/1/5 95/1/5
f 5/1/2 85/1/2 89/1/2 23/1/2
f 47/3/6 108/3/6 99/3/6 51/3/6
f 48/2/6 100/2/6 108/2/6 47/2/6
f 49/3/6 102/3/6 100/3/6 48/3/6
f 59/1/5 60/1/5 107/1/5 106/1/5
f 58/1/5 59/1/5 106/1/5 105/1/5
f 57/1/5 58/1/5 105/1/5 104/1/5
f 12/1/5 57/1/5 104/1/5 97/1/5
f 18/2/6 101/2/6 103/2/6 50/2/6
f 50/4/6 103/4/6 102/4/6 49/4/6
f 12/1/2 97/1/2 101/1/2 18/1/2
f 19/1/3 98/1/3 99/1/3 15/1/3
f 60/1/5 38/1/5 98/1/5 107/1/5
