# Blender 5.0.0
# www.blender.org
mtllib cabin_Roof_L.mtl
o cabin_Roof_L
v -4.527051 -3.913090 4.655792
v -4.653555 -3.759853 4.655792
v -4.527057 -3.913091 -4.655784
v -4.653561 -3.759855 -4.655784
v 0.096762 -0.095895 4.655788
v -0.029743 0.057342 4.655788
v 0.096756 -0.095897 -4.655788
v -0.029749 0.057340 -4.655788
v -4.527054 -3.913090 0.000004
v -4.653558 -3.759854 0.000004
v 0.096759 -0.095896 -0.000000
v -0.029746 0.057341 -0.000000
v -4.653560 -3.759855 -2.234774
v -4.653560 -3.759855 -2.421006
v 0.096757 -0.095896 -2.234778
v 0.096757 -0.095896 -2.421009
v -4.527056 -3.913091 -2.421006
v -4.527056 -3.913091 -2.234774
v -0.029747 0.057340 -2.421009
v -0.029747 0.057340 -2.234778
v -4.527052 -3.913090 2.234782
v -4.527052 -3.913090 2.421013
v -0.029744 0.057341 2.234778
v -0.029744 0.057341 2.421010
v -4.653556 -3.759853 2.421013
v -4.653556 -3.759853 2.234782
v 0.096760 -0.095895 2.421010
v 0.096760 -0.095895 2.234778
v -3.762921 -2.891528 4.655792
v -3.825318 -2.943040 4.655792
v -2.838158 -2.128089 4.655791
v -2.900555 -2.179601 4.655791
v -1.913395 -1.364650 4.655790
v -1.975792 -1.416162 4.655790
v -0.988633 -0.601211 4.655789
v -1.051030 -0.652723 4.655789
v -3.825324 -2.943042 -4.655786
v -3.762927 -2.891530 -4.655786
v -2.900561 -2.179603 -4.655787
v -2.838164 -2.128091 -4.655787
v -1.975799 -1.416164 -4.655788
v -1.913401 -1.364652 -4.655788
v -1.051036 -0.652725 -4.655788
v -0.988639 -0.601213 -4.655788
v -3.762925 -2.891529 -2.234775
v -3.825322 -2.943042 -2.234775
v -3.825322 -2.943042 -2.421007
v -3.762925 -2.891529 -2.421007
v -2.838163 -2.128091 -2.234775
v -2.900560 -2.179603 -2.234775
v -2.900560 -2.179603 -2.421007
v -2.838163 -2.128091 -2.421007
v -1.913400 -1.364651 -2.234776
v -1.975797 -1.416163 -2.234776
v -1.975797 -1.416163 -2.421008
v -1.913400 -1.364651 -2.421008
v -0.988637 -0.601212 -2.234777
v -1.051035 -0.652724 -2.234777
v -1.051035 -0.652724 -2.421009
v -0.988638 -0.601212 -2.421009
v -3.825321 -2.943041 0.000003
v -3.762924 -2.891529 0.000003
v -2.900558 -2.179602 0.000002
v -2.838161 -2.128090 0.000002
v -1.975796 -1.416163 0.000001
v -1.913398 -1.364651 0.000001
v -1.051033 -0.652724 0.000001
v -0.988636 -0.601212 0.000000
v -3.762922 -2.891528 2.421013
v -3.825319 -2.943040 2.421013
v -3.825319 -2.943040 2.234781
v -3.762922 -2.891528 2.234781
v -2.838160 -2.128089 2.421012
v -2.900557 -2.179601 2.421012
v -2.900557 -2.179601 2.234781
v -2.838160 -2.128089 2.234781
v -1.913397 -1.364650 2.421012
v -1.975794 -1.416162 2.421012
v -1.975794 -1.416162 2.234780
v -1.913397 -1.364650 2.234780
v -0.988634 -0.601211 2.421010
v -1.051031 -0.652723 2.421010
v -1.051032 -0.652723 2.234779
v -0.988635 -0.601211 2.234779
v -0.923648 -0.938293 -4.655787
v -0.732365 -0.780379 -4.655787
v -1.848411 -1.701732 -4.655787
v -1.657128 -1.543818 -4.655787
v -2.773173 -2.465171 -4.655786
v -2.581890 -2.307257 -4.655786
v -3.697936 -3.228609 -4.655785
v -3.506653 -3.070696 -4.655786
v -3.633157 -2.917459 -4.655786
v -3.824440 -3.075373 -4.655785
v -2.708395 -2.154020 -4.655786
v -2.899678 -2.311934 -4.655786
v -1.783633 -1.390581 -4.655787
v -1.974915 -1.548495 -4.655787
v -0.858870 -0.627142 -4.655787
v -1.050153 -0.785056 -4.655787
v -3.506647 -3.070694 4.655791
v -3.697930 -3.228607 4.655792
v -2.581885 -2.307255 4.655791
v -2.773167 -2.465169 4.655791
v -1.657122 -1.543816 4.655789
v -1.848405 -1.701729 4.655789
v -0.732359 -0.780377 4.655789
v -0.923642 -0.938291 4.655789
v -1.050147 -0.785054 4.655789
v -0.858864 -0.627140 4.655789
v -1.974909 -1.548493 4.655789
v -1.783626 -1.390579 4.655789
v -2.899672 -2.311932 4.655791
v -2.708389 -2.154018 4.655790
v -3.824435 -3.075371 4.655792
v -3.633152 -2.917457 4.655791
v -3.633155 -2.917458 0.000003
v -3.824437 -3.075372 0.000003
v -2.708392 -2.154019 0.000002
v -2.899675 -2.311933 0.000002
v -1.783630 -1.390580 0.000001
v -1.974912 -1.548494 0.000001
v -0.858867 -0.627141 0.000000
v -1.050150 -0.785055 0.000001
v -0.923645 -0.938292 0.000001
v -0.732362 -0.780378 0.000000
v -1.848408 -1.701730 0.000001
v -1.657125 -1.543817 0.000001
v -2.773170 -2.465170 0.000002
v -2.581887 -2.307256 0.000002
v -3.697933 -3.228608 0.000003
v -3.506650 -3.070695 0.000003
v -0.923647 -0.938292 -2.421009
v -0.732364 -0.780378 -2.421009
v -1.848409 -1.701731 -2.421007
v -1.657127 -1.543817 -2.421008
v -2.773172 -2.465170 -2.421007
v -2.581889 -2.307256 -2.421007
v -3.697934 -3.228609 -2.421006
v -3.506651 -3.070695 -2.421006
v -0.732364 -0.780378 -2.234777
v -0.923647 -0.938292 -2.234777
v -1.657126 -1.543817 -2.234776
v -1.848409 -1.701731 -2.234776
v -2.581889 -2.307256 -2.234775
v -2.773172 -2.465170 -2.234775
v -3.506651 -3.070695 -2.234775
v -3.697934 -3.228609 -2.234775
v -3.633156 -2.917459 -2.421006
v -3.824439 -3.075373 -2.421006
v -2.708394 -2.154020 -2.421007
v -2.899676 -2.311934 -2.421007
v -1.783631 -1.390581 -2.421008
v -1.974914 -1.548495 -2.421007
v -0.858868 -0.627142 -2.421009
v -1.050151 -0.785056 -2.421009
v -3.824439 -3.075373 -2.234775
v -3.633156 -2.917459 -2.234775
v -2.899676 -2.311934 -2.234775
v -2.708394 -2.154020 -2.234775
v -1.974914 -1.548495 -2.234776
v -1.783631 -1.390581 -2.234776
v -1.050151 -0.785056 -2.234777
v -0.858868 -0.627142 -2.234777
v -3.633153 -2.917458 2.234781
v -3.824436 -3.075371 2.234781
v -2.708391 -2.154019 2.234781
v -2.899673 -2.311933 2.234781
v -1.783628 -1.390580 2.234779
v -1.974911 -1.548494 2.234780
v -0.858865 -0.627141 2.234779
v -1.050148 -0.785055 2.234779
v -3.824436 -3.075371 2.421012
v -3.633153 -2.917458 2.421012
v -2.899673 -2.311933 2.421012
v -2.708391 -2.154019 2.421012
v -1.974910 -1.548494 2.421011
v -1.783628 -1.390580 2.421011
v -1.050148 -0.785055 2.421010
v -0.858865 -0.627141 2.421010
v -0.923644 -0.938291 2.234779
v -0.732361 -0.780377 2.234779
v -1.848406 -1.701730 2.234780
v -1.657124 -1.543816 2.234779
v -2.773169 -2.465169 2.234781
v -2.581886 -2.307255 2.234781
v -3.697931 -3.228608 2.234781
v -3.506649 -3.070694 2.234781
v -0.732361 -0.780377 2.421010
v -0.923644 -0.938291 2.421010
v -1.657123 -1.543816 2.421011
v -1.848406 -1.701730 2.421011
v -2.581886 -2.307255 2.421012
v -2.773169 -2.465169 2.421012
v -3.506649 -3.070694 2.421012
v -3.697931 -3.228608 2.421012
vn -0.7712 -0.6366 -0.0000
vn 0.1959 0.9806 -0.0000
vn 0.7712 0.6366 -0.0000
vn -0.6366 0.7712 -0.0000
vn -1.0000 -0.0067 -0.0000
vn -0.0000 -0.0000 1.0000
vn -0.0000 -0.0000 -1.0000
vn 0.6366 -0.7712 -0.0000
vt 0.906653 0.478829
vt 0.906653 0.482792
vt 0.903648 0.482792
vt 0.903648 0.478829
vt 0.878882 0.586221
vt 0.868351 0.586221
vt 0.868351 0.587557
vt 0.878882 0.587557
vt 0.913165 0.577554
vt 0.913165 0.581517
vt 0.916171 0.581517
vt 0.916171 0.577554
vt 0.923821 0.465510
vt 0.916797 0.465510
vt 0.916797 0.466569
vt 0.923821 0.466569
vt 0.876579 0.551289
vt 0.871045 0.551289
vt 0.871045 0.552146
vt 0.876579 0.552146
vt 0.868351 0.584903
vt 0.878882 0.584903
vt 0.916797 0.459062
vt 0.923821 0.459062
vt 0.923821 0.464465
vt 0.916797 0.464465
vt 0.879759 0.584903
vt 0.890290 0.584903
vt 0.890290 0.587557
vt 0.879759 0.587557
vt 0.906904 0.577554
vt 0.906904 0.581517
vt 0.909909 0.581517
vt 0.909909 0.577554
vt 0.912915 0.478829
vt 0.912915 0.482792
vt 0.909909 0.482792
vt 0.909909 0.478829
vt 0.903648 0.577554
vt 0.903648 0.581517
vt 0.906653 0.581517
vt 0.906653 0.577554
vt 0.849035 0.498354
vt 0.853799 0.498354
vt 0.853799 0.499043
vt 0.849035 0.499043
vt 0.857820 0.584903
vt 0.857820 0.587557
vt 0.877040 0.550444
vt 0.882575 0.550444
vt 0.882575 0.552146
vt 0.877040 0.552146
vt 0.902164 0.464465
vt 0.909188 0.464465
vt 0.909188 0.466569
vt 0.902164 0.466569
vt 0.906904 0.482792
vt 0.906904 0.478829
vt 0.916171 0.478829
vt 0.916171 0.482792
vt 0.913165 0.482792
vt 0.913165 0.478829
vt 0.839110 0.498354
vt 0.843874 0.498354
vt 0.843874 0.499043
vt 0.839110 0.499043
vt 0.846411 0.584903
vt 0.856942 0.584903
vt 0.856942 0.587557
vt 0.846411 0.587557
vt 0.894555 0.464465
vt 0.901579 0.464465
vt 0.901579 0.466569
vt 0.894555 0.466569
vt 0.833949 0.498354
vt 0.838713 0.498354
vt 0.838713 0.499043
vt 0.833949 0.499043
vt 0.912915 0.581517
vt 0.912915 0.577554
vt 0.876579 0.550444
vt 0.888109 0.550444
vt 0.888109 0.552146
vt 0.916212 0.464465
vt 0.916212 0.466569
vt 0.848638 0.498354
vt 0.848638 0.499043
vt 0.888570 0.550444
vt 0.888570 0.552146
vt 0.856942 0.578083
vt 0.857820 0.578083
vt 0.843874 0.498696
vt 0.839110 0.498696
vt 0.839110 0.496581
vt 0.843874 0.496581
vt 0.878882 0.578083
vt 0.879759 0.578083
vt 0.877040 0.551289
vt 0.888570 0.551289
vt 0.888109 0.551289
vt 0.876579 0.546071
vt 0.877040 0.546071
vt 0.888109 0.546071
vt 0.888570 0.546071
vt 0.902164 0.465510
vt 0.901579 0.465510
vt 0.916212 0.465510
vt 0.901579 0.459062
vt 0.902164 0.459062
vt 0.890290 0.586221
vt 0.879759 0.586221
vt 0.890290 0.578083
vt 0.916212 0.459062
vt 0.838713 0.498696
vt 0.894104 0.551289
vt 0.894104 0.552146
vt 0.849035 0.498696
vt 0.848638 0.498696
vt 0.838713 0.496581
vt 0.856942 0.586221
vt 0.846411 0.586221
vt 0.894104 0.546071
vt 0.894104 0.550444
vt 0.846411 0.578083
vt 0.848638 0.496581
vt 0.849035 0.496581
vt 0.871045 0.550444
vt 0.868351 0.578083
vt 0.871045 0.546071
vt 0.912915 0.500616
vt 0.913165 0.500616
vt 0.913165 0.496532
vt 0.912915 0.496532
vt 0.912915 0.520361
vt 0.913165 0.520361
vt 0.913165 0.516277
vt 0.912915 0.516277
vt 0.912915 0.540106
vt 0.913165 0.540106
vt 0.913165 0.536022
vt 0.912915 0.536022
vt 0.912915 0.559851
vt 0.913165 0.559851
vt 0.913165 0.555767
vt 0.912915 0.555767
vt 0.909909 0.500616
vt 0.909909 0.496532
vt 0.909909 0.520361
vt 0.909909 0.516277
vt 0.909909 0.540106
vt 0.909909 0.536022
vt 0.909909 0.559851
vt 0.909909 0.555767
vt 0.882575 0.551289
vt 0.853799 0.498696
vt 0.882575 0.546071
vt 0.894555 0.465510
vt 0.853799 0.496581
vt 0.894555 0.459062
vt 0.909188 0.465510
vt 0.857820 0.586221
vt 0.909188 0.459062
vt 0.833949 0.498696
vt 0.833949 0.496581
vt 0.906653 0.500616
vt 0.906904 0.500616
vt 0.906904 0.496532
vt 0.906653 0.496532
vt 0.906653 0.520361
vt 0.906904 0.520361
vt 0.906904 0.516277
vt 0.906653 0.516277
vt 0.906653 0.540106
vt 0.906904 0.540106
vt 0.906904 0.536022
vt 0.906653 0.536022
vt 0.906653 0.559851
vt 0.906904 0.559851
vt 0.906904 0.555767
vt 0.906653 0.555767
vt 0.903648 0.500616
vt 0.903648 0.496532
vt 0.903648 0.520361
vt 0.903648 0.516277
vt 0.903648 0.540106
vt 0.903648 0.536022
vt 0.903648 0.559851
vt 0.903648 0.555767
vt 0.916171 0.500616
vt 0.916171 0.496532
vt 0.916171 0.520361
vt 0.916171 0.516277
vt 0.916171 0.540106
vt 0.916171 0.536022
vt 0.916171 0.559851
vt 0.916171 0.555767
vt 0.916171 0.559730
vt 0.916171 0.563814
vt 0.916171 0.539985
vt 0.916171 0.544069
vt 0.916171 0.520240
vt 0.916171 0.524324
vt 0.916171 0.500495
vt 0.916171 0.504579
vt 0.903648 0.504579
vt 0.903648 0.500495
vt 0.903648 0.524324
vt 0.903648 0.520240
vt 0.903648 0.544069
vt 0.903648 0.539985
vt 0.903648 0.563814
vt 0.903648 0.559730
vt 0.804315 0.485102
vt 0.804315 0.478554
vt 0.824483 0.478554
vt 0.824483 0.485102
vt 0.795571 0.500403
vt 0.795571 0.495559
vt 0.812436 0.495559
vt 0.812436 0.500403
vt 0.800670 0.544460
vt 0.800670 0.533025
vt 0.813965 0.533025
vt 0.813965 0.544460
vt 0.831628 0.488866
vt 0.831628 0.483258
vt 0.851150 0.483258
vt 0.851150 0.488866
vt 0.795571 0.519359
vt 0.795571 0.513883
vt 0.812436 0.513883
vt 0.812436 0.519359
vt 0.878190 0.511901
vt 0.878190 0.505352
vt 0.898358 0.505352
vt 0.898358 0.511901
vt 0.852538 0.573525
vt 0.852538 0.562090
vt 0.865834 0.562090
vt 0.865834 0.573525
vt 0.851418 0.515545
vt 0.851418 0.510700
vt 0.868283 0.510700
vt 0.868283 0.515545
vt 0.871093 0.536635
vt 0.871093 0.525201
vt 0.884388 0.525201
vt 0.884388 0.536635
vt 0.875992 0.489741
vt 0.875992 0.483192
vt 0.896160 0.483192
vt 0.896160 0.489741
vt 0.831543 0.531008
vt 0.831543 0.518082
vt 0.844838 0.518082
vt 0.844838 0.531008
vt 0.813853 0.564711
vt 0.813853 0.553277
vt 0.827148 0.553277
vt 0.827148 0.564711
vt 0.861712 0.496801
vt 0.861712 0.491008
vt 0.881880 0.491008
vt 0.881880 0.496801
vt 0.840570 0.510380
vt 0.840570 0.504040
vt 0.860093 0.504040
vt 0.860093 0.510380
vt 0.815424 0.508895
vt 0.815424 0.503287
vt 0.834946 0.503287
vt 0.834946 0.508895
vt 0.830566 0.550319
vt 0.830566 0.538885
vt 0.843862 0.538885
vt 0.843862 0.550319
vt 0.829093 0.562923
vt 0.829093 0.557130
vt 0.849261 0.557130
vt 0.849261 0.562923
vt 0.854722 0.488134
vt 0.854722 0.482526
vt 0.874244 0.482526
vt 0.874244 0.488134
vt 0.825327 0.585282
vt 0.825327 0.572356
vt 0.838623 0.572356
vt 0.838623 0.585282
vt 0.840806 0.480555
vt 0.840806 0.474215
vt 0.860328 0.474215
vt 0.860328 0.480555
vt 0.848366 0.565227
vt 0.848366 0.544231
vt 0.853755 0.544231
vt 0.853755 0.565227
vt 0.815138 0.477431
vt 0.815138 0.458856
vt 0.820526 0.458856
vt 0.820526 0.477431
vt 0.853792 0.508987
vt 0.853792 0.490412
vt 0.859180 0.490412
vt 0.859180 0.508987
vt 0.903296 0.508670
vt 0.903296 0.490096
vt 0.908684 0.490096
vt 0.908684 0.508670
vt 0.828022 0.508741
vt 0.828022 0.487745
vt 0.833411 0.487745
vt 0.833411 0.508741
vt 0.814899 0.548952
vt 0.814899 0.527955
vt 0.820287 0.527955
vt 0.820287 0.548952
vt 0.865081 0.540498
vt 0.865081 0.521923
vt 0.870469 0.521923
vt 0.870469 0.540498
vt 0.859656 0.472367
vt 0.859656 0.453793
vt 0.865044 0.453793
vt 0.865044 0.472367
vt 0.821002 0.533083
vt 0.821002 0.514509
vt 0.826390 0.514509
vt 0.826390 0.533083
vt 0.893563 0.507385
vt 0.893563 0.486388
vt 0.898951 0.486388
vt 0.898951 0.507385
s 0
usemtl Winter_Pack_Texture
f 17/1/1 14/2/1 4/3/1 3/4/1
f 165/5/2 117/6/2 62/7/2 72/8/2
f 27/9/3 24/10/3 6/11/3 5/12/3
f 112/13/2 178/14/2 77/15/2 33/16/2
f 151/17/2 95/18/2 40/19/2 52/20/2
f 61/21/4 71/22/4 72/8/4 62/7/4
f 177/23/5 111/24/5 34/25/5 78/26/5
f 70/27/4 30/28/4 29/29/4 69/30/4
f 15/31/3 20/32/3 12/33/3 11/34/3
f 21/35/1 26/36/1 10/37/1 9/38/1
f 7/39/3 8/40/3 19/41/3 16/42/3
f 16/42/3 19/41/3 20/32/3 15/31/3
f 82/43/4 36/44/4 35/45/4 81/46/4
f 46/47/4 61/21/4 62/7/4 45/48/4
f 50/49/4 63/50/4 64/51/4 49/52/4
f 54/53/4 65/54/4 66/55/4 53/56/4
f 9/38/1 10/37/1 13/57/1 18/58/1
f 18/58/1 13/57/1 14/2/1 17/1/1
f 1/59/1 2/60/1 25/61/1 22/62/1
f 22/62/1 25/61/1 26/36/1 21/35/1
f 58/63/4 67/64/4 68/65/4 57/66/4
f 37/67/4 47/68/4 48/69/4 38/70/4
f 41/71/4 55/72/4 56/73/4 42/74/4
f 43/75/4 59/76/4 60/77/4 44/78/4
f 11/34/3 12/33/3 23/79/3 28/80/3
f 28/80/3 23/79/3 24/10/3 27/9/3
f 47/68/4 46/47/4 45/48/4 48/69/4
f 51/81/4 50/49/4 49/52/4 52/20/4
f 55/72/4 54/53/4 53/56/4 56/73/4
f 59/76/4 58/63/4 57/66/4 60/77/4
f 63/50/4 75/82/4 76/83/4 64/51/4
f 65/54/4 79/84/4 80/85/4 66/55/4
f 67/64/4 83/86/4 84/87/4 68/65/4
f 71/22/4 70/27/4 69/30/4 72/8/4
f 75/82/4 74/88/4 73/89/4 76/83/4
f 79/84/4 78/26/4 77/15/4 80/85/4
f 83/86/4 82/43/4 81/46/4 84/87/4
f 150/90/5 157/91/5 46/47/5 47/68/5
f 123/92/2 164/93/2 57/66/2 68/65/2
f 163/94/5 124/95/5 67/64/5 58/63/5
f 166/96/5 173/97/5 70/27/5 71/22/5
f 160/98/2 151/17/2 52/20/2 49/52/2
f 176/99/2 167/100/2 76/83/2 73/89/2
f 152/101/5 159/102/5 50/49/5 51/81/5
f 168/103/5 175/104/5 74/88/5 75/82/5
f 162/105/2 153/106/2 56/73/2 53/56/2
f 178/14/2 169/107/2 80/85/2 77/15/2
f 154/108/5 161/109/5 54/53/5 55/72/5
f 116/110/2 174/111/2 69/30/2 29/29/2
f 115/112/6 116/110/6 29/29/6 30/28/6
f 170/113/5 177/23/5 78/26/5 79/84/5
f 164/93/2 155/114/2 60/77/2 57/66/2
f 173/97/5 115/112/5 30/28/5 70/27/5
f 114/115/2 176/99/2 73/89/2 31/116/2
f 180/117/2 171/118/2 84/87/2 81/46/2
f 156/119/5 163/94/5 58/63/5 59/76/5
f 149/120/2 93/121/2 38/70/2 48/69/2
f 113/122/6 114/115/6 31/116/6 32/123/6
f 94/124/5 150/90/5 47/68/5 37/67/5
f 175/104/5 113/122/5 32/123/5 74/88/5
f 172/125/5 179/126/5 82/43/5 83/86/5
f 78/26/4 34/25/4 33/16/4 77/15/4
f 93/121/7 94/124/7 37/67/7 38/70/7
f 39/127/4 51/81/4 52/20/4 40/19/4
f 118/128/5 166/96/5 71/22/5 61/21/5
f 111/24/6 112/13/6 33/16/6 34/25/6
f 96/129/5 152/101/5 51/81/5 39/127/5
f 74/88/4 32/123/4 31/116/4 73/89/4
f 188/130/8 195/131/8 196/132/8 187/133/8
f 186/134/8 193/135/8 194/136/8 185/137/8
f 184/138/8 191/139/8 192/140/8 183/141/8
f 182/142/8 189/143/8 190/144/8 181/145/8
f 132/146/8 188/130/8 187/133/8 131/147/8
f 130/148/8 186/134/8 185/137/8 129/149/8
f 128/150/8 184/138/8 183/141/8 127/151/8
f 126/152/8 182/142/8 181/145/8 125/153/8
f 167/100/2 119/154/2 64/51/2 76/83/2
f 95/18/7 96/129/7 39/127/7 40/19/7
f 110/155/2 180/117/2 81/46/2 35/45/2
f 120/156/5 168/103/5 75/82/5 63/50/5
f 153/106/2 97/157/2 42/74/2 56/73/2
f 109/158/6 110/155/6 35/45/6 36/44/6
f 98/159/5 154/108/5 55/72/5 41/71/5
f 179/126/5 109/158/5 36/44/5 82/43/5
f 169/107/2 121/160/2 66/55/2 80/85/2
f 97/157/7 98/159/7 41/71/7 42/74/7
f 117/6/2 158/161/2 45/48/2 62/7/2
f 122/162/5 170/113/5 79/84/5 65/54/5
f 155/114/2 99/163/2 44/78/2 60/77/2
f 157/91/5 118/128/5 61/21/5 46/47/5
f 100/164/5 156/119/5 59/76/5 43/75/5
f 119/154/2 160/98/2 49/52/2 64/51/2
f 140/165/8 147/166/8 148/167/8 139/168/8
f 138/169/8 145/170/8 146/171/8 137/172/8
f 136/173/8 143/174/8 144/175/8 135/176/8
f 134/177/8 141/178/8 142/179/8 133/180/8
f 92/181/8 140/165/8 139/168/8 91/182/8
f 90/183/8 138/169/8 137/172/8 89/184/8
f 88/185/8 136/173/8 135/176/8 87/186/8
f 86/187/8 134/177/8 133/180/8 85/188/8
f 147/166/8 132/146/8 131/147/8 148/167/8
f 145/170/8 130/148/8 129/149/8 146/171/8
f 143/174/8 128/150/8 127/151/8 144/175/8
f 141/178/8 126/152/8 125/153/8 142/179/8
f 171/118/2 123/92/2 68/65/2 84/87/2
f 99/163/7 100/164/7 43/75/7 44/78/7
f 159/102/5 120/156/5 63/50/5 50/49/5
f 124/95/5 172/125/5 83/86/5 67/64/5
f 158/161/2 149/120/2 48/69/2 45/48/2
f 121/160/2 162/105/2 53/56/2 66/55/2
f 161/109/5 122/162/5 65/54/5 54/53/5
f 174/111/2 165/5/2 72/8/2 69/30/2
f 195/131/8 101/189/8 102/190/8 196/132/8
f 193/135/8 103/191/8 104/192/8 194/136/8
f 191/139/8 105/193/8 106/194/8 192/140/8
f 189/143/8 107/195/8 108/196/8 190/144/8
f 109/197/6 108/196/6 107/195/6 110/198/6
f 111/199/6 106/194/6 105/193/6 112/200/6
f 113/201/6 104/192/6 103/191/6 114/202/6
f 115/203/6 102/190/6 101/189/6 116/204/6
f 93/205/7 92/181/7 91/182/7 94/206/7
f 95/207/7 90/183/7 89/184/7 96/208/7
f 97/209/7 88/185/7 87/186/7 98/210/7
f 99/211/7 86/187/7 85/188/7 100/212/7
f 86/187/8 7/39/8 16/42/8 134/177/8
f 88/185/7 97/209/7 100/212/7 85/188/7
f 88/185/8 85/188/8 133/180/8 136/173/8
f 86/187/7 99/211/7 8/40/7 7/39/7
f 90/183/7 95/207/7 98/210/7 87/186/7
f 90/183/8 87/186/8 135/176/8 138/169/8
f 92/181/7 93/205/7 96/208/7 89/184/7
f 92/181/8 89/184/8 137/172/8 140/165/8
f 3/4/7 4/3/7 94/206/7 91/182/7
f 3/4/8 91/182/8 139/168/8 17/1/8
f 94/213/4 4/214/4 14/215/4 150/216/4
f 96/217/4 93/218/4 149/219/4 152/220/4
f 98/221/4 95/222/4 151/223/4 154/224/4
f 100/225/4 97/226/4 153/227/4 156/228/4
f 8/229/4 99/230/4 155/231/4 19/232/4
f 22/62/8 196/132/8 102/190/8 1/59/8
f 104/192/6 113/201/6 116/204/6 101/189/6
f 195/131/8 194/136/8 104/192/8 101/189/8
f 102/190/6 115/203/6 2/60/6 1/59/6
f 106/194/6 111/199/6 114/202/6 103/191/6
f 193/135/8 192/140/8 106/194/8 103/191/8
f 108/196/6 109/197/6 112/200/6 105/193/6
f 191/139/8 190/144/8 108/196/8 105/193/8
f 5/12/6 6/11/6 110/198/6 107/195/6
f 189/143/8 27/9/8 5/12/8 107/195/8
f 24/233/4 180/234/4 110/235/4 6/236/4
f 179/237/4 178/238/4 112/239/4 109/240/4
f 177/241/4 176/242/4 114/243/4 111/244/4
f 175/245/4 174/246/4 116/247/4 113/248/4
f 173/249/4 25/250/4 2/251/4 115/252/4
f 118/253/4 10/254/4 26/255/4 166/256/4
f 159/257/4 158/258/4 117/259/4 120/260/4
f 120/261/4 117/262/4 165/263/4 168/264/4
f 157/265/4 13/266/4 10/267/4 118/268/4
f 161/269/4 160/270/4 119/271/4 122/272/4
f 122/273/4 119/274/4 167/275/4 170/276/4
f 163/277/4 162/278/4 121/279/4 124/280/4
f 124/281/4 121/282/4 169/283/4 172/284/4
f 20/285/4 164/286/4 123/287/4 12/288/4
f 12/289/4 123/290/4 171/291/4 23/292/4
f 126/152/8 11/34/8 28/80/8 182/142/8
f 143/174/8 142/179/8 125/153/8 128/150/8
f 128/150/8 125/153/8 181/145/8 184/138/8
f 141/178/8 15/31/8 11/34/8 126/152/8
f 145/170/8 144/175/8 127/151/8 130/148/8
f 130/148/8 127/151/8 183/141/8 186/134/8
f 147/166/8 146/171/8 129/149/8 132/146/8
f 132/146/8 129/149/8 185/137/8 188/130/8
f 18/58/8 148/167/8 131/147/8 9/38/8
f 9/38/8 131/147/8 187/133/8 21/35/8
f 134/177/8 16/42/8 15/31/8 141/178/8
f 136/173/8 133/180/8 142/179/8 143/174/8
f 138/169/8 135/176/8 144/175/8 145/170/8
f 140/165/8 137/172/8 146/171/8 147/166/8
f 17/1/8 139/168/8 148/167/8 18/58/8
f 150/293/4 14/294/4 13/295/4 157/296/4
f 152/297/4 149/298/4 158/299/4 159/300/4
f 154/301/4 151/302/4 160/303/4 161/304/4
f 156/305/4 153/306/4 162/307/4 163/308/4
f 19/309/4 155/310/4 164/311/4 20/312/4
f 166/313/4 26/314/4 25/315/4 173/316/4
f 168/317/4 165/318/4 174/319/4 175/320/4
f 170/321/4 167/322/4 176/323/4 177/324/4
f 172/325/4 169/326/4 178/327/4 179/328/4
f 23/329/4 171/330/4 180/331/4 24/332/4
f 182/142/8 28/80/8 27/9/8 189/143/8
f 184/138/8 181/145/8 190/144/8 191/139/8
f 186/134/8 183/141/8 192/140/8 193/135/8
f 188/130/8 185/137/8 194/136/8 195/131/8
f 21/35/8 187/133/8 196/132/8 22/62/8
