# Blender 5.0.0
# www.blender.org
mtllib cabin_Wall_Tall.mtl
o cabin_Wall_Tall
v -4.455336 -1.143420 -0.085128
v 4.455353 -1.144555 -0.084662
v -4.455335 -1.263811 -0.205519
v 4.455353 -1.264280 -0.204387
v -4.455335 -1.434070 -0.205519
v 4.455353 -1.433598 -0.204387
v -4.455335 -1.554461 -0.085127
v 4.455353 -1.553323 -0.084662
v -4.455335 -1.554461 0.085131
v 4.455353 -1.553323 0.084656
v -4.455336 -1.434070 0.205522
v 4.455353 -1.433598 0.204382
v -4.455336 -1.263811 0.205522
v 4.455353 -1.264280 0.204381
v -4.455336 -1.143420 0.085131
v 4.455353 -1.144555 0.084656
v -4.455336 -1.077524 -0.112423
v -4.455335 -1.236516 -0.271415
v -4.455335 -1.461365 -0.271415
v -4.455335 -1.620357 -0.112422
v -4.455335 -1.620357 0.112426
v -4.455336 -1.461365 0.271419
v -4.455336 -1.236516 0.271419
v -4.455336 -1.077524 0.112426
v 4.455353 -1.236515 -0.271419
v 4.455353 -1.077522 -0.112427
v 4.455353 -1.461364 -0.271419
v 4.455353 -1.620355 -0.112427
v 4.455353 -1.620355 0.112422
v 4.455353 -1.461363 0.271414
v 4.455353 -1.236514 0.271414
v 4.455353 -1.077522 0.112422
v -4.455336 1.554460 -0.085127
v 4.455352 1.553326 -0.084661
v -4.455336 1.434069 -0.205518
v 4.455353 1.433600 -0.204386
v -4.455336 1.263811 -0.205518
v 4.455353 1.264283 -0.204386
v -4.455336 1.143420 -0.085127
v 4.455353 1.144557 -0.084661
v -4.455336 1.143420 0.085132
v 4.455353 1.144557 0.084657
v -4.455336 1.263811 0.205523
v 4.455352 1.264283 0.204382
v -4.455336 1.434070 0.205523
v 4.455352 1.433601 0.204382
v -4.455336 1.554461 0.085132
v 4.455352 1.553326 0.084657
v -4.455336 1.620357 -0.112422
v -4.455336 1.461364 -0.271414
v -4.455336 1.236516 -0.271414
v -4.455336 1.077523 -0.112422
v -4.455336 1.077523 0.112427
v -4.455336 1.236516 0.271419
v -4.455336 1.461365 0.271419
v -4.455336 1.620357 0.112427
v 4.455353 1.461366 -0.271419
v 4.455352 1.620358 -0.112427
v 4.455353 1.236517 -0.271419
v 4.455353 1.077525 -0.112427
v 4.455353 1.077525 0.112422
v 4.455352 1.236517 0.271414
v 4.455352 1.461366 0.271414
v 4.455352 1.620358 0.112422
v -4.455336 1.014884 -0.085127
v 4.455353 1.013750 -0.084661
v -4.455336 0.894493 -0.205518
v 4.455353 0.894024 -0.204387
v -4.455336 0.724235 -0.205518
v 4.455353 0.724707 -0.204387
v -4.455336 0.603844 -0.085127
v 4.455353 0.604981 -0.084661
v -4.455336 0.603844 0.085132
v 4.455353 0.604981 0.084656
v -4.455336 0.724235 0.205523
v 4.455353 0.724707 0.204382
v -4.455336 0.894493 0.205523
v 4.455353 0.894024 0.204382
v -4.455336 1.014884 0.085131
v 4.455353 1.013750 0.084656
v -4.455336 1.080781 -0.112422
v -4.455336 0.921788 -0.271414
v -4.455336 0.696939 -0.271414
v -4.455336 0.537947 -0.112422
v -4.455336 0.537947 0.112427
v -4.455336 0.696940 0.271419
v -4.455336 0.921789 0.271419
v -4.455336 1.080781 0.112427
v 4.455353 0.921790 -0.271419
v 4.455353 1.080782 -0.112427
v 4.455353 0.696941 -0.271419
v 4.455353 0.537949 -0.112427
v 4.455353 0.537949 0.112422
v 4.455353 0.696941 0.271414
v 4.455353 0.921790 0.271414
v 4.455353 1.080782 0.112422
v -4.455337 0.475308 -0.085128
v 4.455352 0.474174 -0.084662
v -4.455337 0.354917 -0.205519
v 4.455352 0.354448 -0.204387
v -4.455337 0.184658 -0.205519
v 4.455352 0.185131 -0.204387
v -4.455337 0.064267 -0.085128
v 4.455352 0.065405 -0.084662
v -4.455337 0.064267 0.085131
v 4.455352 0.065405 0.084656
v -4.455337 0.184658 0.205522
v 4.455352 0.185131 0.204381
v -4.455337 0.354917 0.205522
v 4.455352 0.354448 0.204381
v -4.455337 0.475308 0.085131
v 4.455352 0.474174 0.084656
v -4.455337 0.541204 -0.112423
v -4.455337 0.382212 -0.271415
v -4.455337 0.157363 -0.271415
v -4.455337 -0.001629 -0.112423
v -4.455337 -0.001629 0.112426
v -4.455337 0.157364 0.271418
v -4.455337 0.382212 0.271418
v -4.455337 0.541205 0.112426
v 4.455352 0.382214 -0.271420
v 4.455352 0.541206 -0.112427
v 4.455352 0.157365 -0.271420
v 4.455352 -0.001627 -0.112427
v 4.455352 -0.001627 0.112422
v 4.455352 0.157365 0.271414
v 4.455352 0.382214 0.271414
v 4.455352 0.541206 0.112421
v -4.455337 -0.064267 -0.085127
v 4.455352 -0.065402 -0.084661
v -4.455337 -0.184659 -0.205518
v 4.455352 -0.185128 -0.204387
v -4.455337 -0.354917 -0.205518
v 4.455352 -0.354445 -0.204387
v -4.455337 -0.475308 -0.085127
v 4.455352 -0.474171 -0.084661
v -4.455337 -0.475308 0.085132
v 4.455352 -0.474170 0.084657
v -4.455337 -0.354917 0.205523
v 4.455352 -0.354445 0.204382
v -4.455337 -0.184658 0.205523
v 4.455352 -0.185127 0.204382
v -4.455337 -0.064267 0.085132
v 4.455352 -0.065402 0.084656
v -4.455337 0.001629 -0.112422
v -4.455337 -0.157364 -0.271414
v -4.455337 -0.382212 -0.271414
v -4.455337 -0.541205 -0.112422
v -4.455337 -0.541204 0.112427
v -4.455337 -0.382212 0.271419
v -4.455337 -0.157363 0.271419
v -4.455337 0.001629 0.112427
v 4.455352 -0.157362 -0.271419
v 4.455352 0.001630 -0.112427
v 4.455352 -0.382211 -0.271419
v 4.455352 -0.541203 -0.112427
v 4.455352 -0.541203 0.112422
v 4.455352 -0.382211 0.271414
v 4.455352 -0.157362 0.271414
v 4.455352 0.001630 0.112422
v -4.455337 -0.603843 -0.085127
v 4.455352 -0.604978 -0.084661
v -4.455337 -0.724235 -0.205518
v 4.455352 -0.724704 -0.204387
v -4.455337 -0.894493 -0.205518
v 4.455352 -0.894021 -0.204387
v -4.455337 -1.014884 -0.085127
v 4.455352 -1.013747 -0.084661
v -4.455337 -1.014884 0.085131
v 4.455352 -1.013747 0.084656
v -4.455337 -0.894493 0.205523
v 4.455352 -0.894021 0.204382
v -4.455337 -0.724234 0.205523
v 4.455352 -0.724704 0.204382
v -4.455337 -0.603843 0.085131
v 4.455352 -0.604978 0.084656
v -4.455337 -0.537947 -0.112422
v -4.455337 -0.696940 -0.271415
v -4.455337 -0.921788 -0.271414
v -4.455337 -1.080781 -0.112422
v -4.455337 -1.080781 0.112427
v -4.455337 -0.921788 0.271419
v -4.455337 -0.696939 0.271419
v -4.455337 -0.537947 0.112426
v 4.455352 -0.696938 -0.271419
v 4.455352 -0.537946 -0.112427
v 4.455352 -0.921787 -0.271419
v 4.455352 -1.080779 -0.112427
v 4.455352 -1.080779 0.112422
v 4.455352 -0.921787 0.271414
v 4.455352 -0.696938 0.271414
v 4.455352 -0.537946 0.112422
vn -0.0000 0.7071 -0.7071
vn -0.0000 -0.0000 -1.0000
vn -0.0000 -0.7071 -0.7071
vn -0.0000 -1.0000 -0.0000
vn -0.0000 -0.7071 0.7071
vn -0.0000 -0.0000 1.0000
vn -0.0000 0.7071 0.7071
vn -0.0000 1.0000 -0.0000
vn 1.0000 -0.0000 -0.0000
vn -1.0000 -0.0000 -0.0000
vt 0.226018 0.867157
vt 0.247249 0.867157
vt 0.247249 0.866342
vt 0.226018 0.866342
vt 0.247249 0.865191
vt 0.226018 0.865191
vt 0.247249 0.864377
vt 0.226018 0.864377
vt 0.856384 0.579559
vt 0.856384 0.578406
vt 0.855568 0.577590
vt 0.854415 0.577590
vt 0.853599 0.578406
vt 0.853599 0.579559
vt 0.854415 0.580375
vt 0.855568 0.580375
vt 0.226018 0.866203
vt 0.226018 0.866819
vt 0.226018 0.865331
vt 0.226018 0.864714
vt 0.247249 0.866813
vt 0.247249 0.866200
vt 0.247249 0.865333
vt 0.247249 0.864720
vt 0.226018 0.880972
vt 0.247249 0.880972
vt 0.247249 0.880158
vt 0.226018 0.880158
vt 0.247249 0.879007
vt 0.226018 0.879007
vt 0.247249 0.878193
vt 0.226018 0.878193
vt 0.856384 0.575883
vt 0.856384 0.574730
vt 0.855568 0.573914
vt 0.854415 0.573914
vt 0.853599 0.574730
vt 0.853599 0.575883
vt 0.854415 0.576699
vt 0.855568 0.576699
vt 0.853592 0.574727
vt 0.854412 0.573906
vt 0.855572 0.573906
vt 0.856392 0.574727
vt 0.856392 0.575886
vt 0.855572 0.576707
vt 0.854412 0.576707
vt 0.853592 0.575886
vt 0.226018 0.880018
vt 0.226018 0.880635
vt 0.226018 0.879147
vt 0.226018 0.878530
vt 0.247249 0.880629
vt 0.247249 0.880016
vt 0.247249 0.879149
vt 0.247249 0.878536
vt 0.226018 0.878209
vt 0.247249 0.878209
vt 0.247249 0.877395
vt 0.226018 0.877395
vt 0.247249 0.876244
vt 0.226018 0.876244
vt 0.247249 0.875429
vt 0.226018 0.875429
vt 0.856384 0.572207
vt 0.856384 0.571054
vt 0.855568 0.570238
vt 0.854415 0.570238
vt 0.853599 0.571054
vt 0.853599 0.572207
vt 0.854415 0.573023
vt 0.855568 0.573023
vt 0.853592 0.571051
vt 0.854412 0.570231
vt 0.855572 0.570231
vt 0.856392 0.571051
vt 0.856392 0.572211
vt 0.855572 0.573031
vt 0.854412 0.573031
vt 0.853592 0.572211
vt 0.226018 0.877255
vt 0.226018 0.877872
vt 0.226018 0.876383
vt 0.226018 0.875767
vt 0.226018 0.875767
vt 0.247249 0.877866
vt 0.247249 0.877253
vt 0.247249 0.876386
vt 0.247249 0.875773
vt 0.226018 0.875446
vt 0.247249 0.875446
vt 0.247249 0.874632
vt 0.226018 0.874632
vt 0.247249 0.873480
vt 0.226018 0.873480
vt 0.247249 0.872666
vt 0.226018 0.872666
vt 0.856384 0.568532
vt 0.856384 0.567378
vt 0.855568 0.566562
vt 0.854415 0.566562
vt 0.853599 0.567378
vt 0.853599 0.568532
vt 0.854415 0.569347
vt 0.855568 0.569347
vt 0.853592 0.567375
vt 0.854412 0.566555
vt 0.855572 0.566555
vt 0.856392 0.567375
vt 0.856392 0.568535
vt 0.855572 0.569355
vt 0.854412 0.569355
vt 0.853592 0.568535
vt 0.226018 0.874492
vt 0.226018 0.875109
vt 0.226018 0.873620
vt 0.226018 0.873004
vt 0.247249 0.875103
vt 0.247249 0.874490
vt 0.247249 0.873623
vt 0.247249 0.873010
vt 0.226018 0.872683
vt 0.247249 0.872683
vt 0.247249 0.871869
vt 0.226018 0.871869
vt 0.247249 0.870717
vt 0.226018 0.870717
vt 0.247249 0.869903
vt 0.226018 0.869903
vt 0.856384 0.564856
vt 0.856384 0.563702
vt 0.855568 0.562887
vt 0.854415 0.562887
vt 0.853599 0.563702
vt 0.853599 0.564856
vt 0.854415 0.565671
vt 0.855568 0.565671
vt 0.853592 0.563699
vt 0.854412 0.562879
vt 0.855572 0.562879
vt 0.856392 0.563699
vt 0.856392 0.564859
vt 0.855572 0.565679
vt 0.854412 0.565679
vt 0.853592 0.564859
vt 0.226018 0.871729
vt 0.226018 0.872345
vt 0.226018 0.870857
vt 0.226018 0.870241
vt 0.247249 0.872340
vt 0.247249 0.871727
vt 0.247249 0.870860
vt 0.247249 0.870246
vt 0.226018 0.869920
vt 0.247249 0.869920
vt 0.247249 0.869106
vt 0.226018 0.869106
vt 0.247249 0.867954
vt 0.226018 0.867954
vt 0.247249 0.867140
vt 0.226018 0.867140
vt 0.853592 0.560023
vt 0.854412 0.559203
vt 0.855572 0.559203
vt 0.856392 0.560023
vt 0.856392 0.561183
vt 0.855572 0.562003
vt 0.854412 0.562003
vt 0.853592 0.561183
vt 0.226018 0.868966
vt 0.226018 0.869582
vt 0.226018 0.868094
vt 0.226018 0.867477
vt 0.247249 0.869577
vt 0.247249 0.868963
vt 0.247249 0.868096
vt 0.247249 0.867483
vt 0.853592 0.578403
vt 0.854412 0.577582
vt 0.855572 0.577582
vt 0.856392 0.578403
vt 0.856392 0.579562
vt 0.855572 0.580383
vt 0.854412 0.580383
vt 0.853592 0.579562
vt 0.856384 0.561180
vt 0.856384 0.560026
vt 0.855568 0.559211
vt 0.854415 0.559211
vt 0.853599 0.560026
vt 0.853599 0.561180
vt 0.854415 0.561995
vt 0.855568 0.561995
s 0
usemtl Winter_Pack_Texture
f 17/1/1 26/2/1 25/3/1 18/4/1
f 18/4/2 25/3/2 27/5/2 19/6/2
f 19/6/3 27/5/3 28/7/3 20/8/3
f 20/8/4 28/7/4 29/7/4 21/8/4
f 21/8/5 29/7/5 30/5/5 22/6/5
f 22/6/6 30/5/6 31/3/6 23/4/6
f 23/4/7 31/3/7 32/2/7 24/1/7
f 24/1/8 32/2/8 26/2/8 17/1/8
f 46/9/9 44/10/9 42/11/9 40/12/9 38/13/9 36/14/9 34/15/9 48/16/9
f 3/17/10 1/18/10 17/1/10 18/4/10
f 5/19/10 3/17/10 18/4/10 19/6/10
f 7/20/10 5/19/10 19/6/10 20/8/10
f 9/20/10 7/20/10 20/8/10 21/8/10
f 11/19/10 9/20/10 21/8/10 22/6/10
f 13/17/10 11/19/10 22/6/10 23/4/10
f 15/18/10 13/17/10 23/4/10 24/1/10
f 1/18/10 15/18/10 24/1/10 17/1/10
f 2/21/9 4/22/9 25/3/9 26/2/9
f 4/22/9 6/23/9 27/5/9 25/3/9
f 6/23/9 8/24/9 28/7/9 27/5/9
f 8/24/9 10/24/9 29/7/9 28/7/9
f 10/24/9 12/23/9 30/5/9 29/7/9
f 12/23/9 14/22/9 31/3/9 30/5/9
f 14/22/9 16/21/9 32/2/9 31/3/9
f 16/21/9 2/21/9 26/2/9 32/2/9
f 49/25/1 58/26/1 57/27/1 50/28/1
f 50/28/2 57/27/2 59/29/2 51/30/2
f 51/30/3 59/29/3 60/31/3 52/32/3
f 52/32/4 60/31/4 61/31/4 53/32/4
f 53/32/5 61/31/5 62/29/5 54/30/5
f 54/30/6 62/29/6 63/27/6 55/28/6
f 78/33/9 76/34/9 74/35/9 72/36/9 70/37/9 68/38/9 66/39/9 80/40/9
f 55/28/7 63/27/7 64/26/7 56/25/7
f 56/25/8 64/26/8 58/26/8 49/25/8
f 69/41/10 71/42/10 73/43/10 75/44/10 77/45/10 79/46/10 65/47/10 67/48/10
f 35/49/10 33/50/10 49/25/10 50/28/10
f 37/51/10 35/49/10 50/28/10 51/30/10
f 39/52/10 37/51/10 51/30/10 52/32/10
f 41/52/10 39/52/10 52/32/10 53/32/10
f 43/51/10 41/52/10 53/32/10 54/30/10
f 45/49/10 43/51/10 54/30/10 55/28/10
f 47/50/10 45/49/10 55/28/10 56/25/10
f 33/50/10 47/50/10 56/25/10 49/25/10
f 34/53/9 36/54/9 57/27/9 58/26/9
f 36/54/9 38/55/9 59/29/9 57/27/9
f 38/55/9 40/56/9 60/31/9 59/29/9
f 40/56/9 42/56/9 61/31/9 60/31/9
f 42/56/9 44/55/9 62/29/9 61/31/9
f 44/55/9 46/54/9 63/27/9 62/29/9
f 46/54/9 48/53/9 64/26/9 63/27/9
f 48/53/9 34/53/9 58/26/9 64/26/9
f 81/57/1 90/58/1 89/59/1 82/60/1
f 82/60/2 89/59/2 91/61/2 83/62/2
f 83/62/3 91/61/3 92/63/3 84/64/3
f 84/64/4 92/63/4 93/63/4 85/64/4
f 85/64/5 93/63/5 94/61/5 86/62/5
f 86/62/6 94/61/6 95/59/6 87/60/6
f 110/65/9 108/66/9 106/67/9 104/68/9 102/69/9 100/70/9 98/71/9 112/72/9
f 87/60/7 95/59/7 96/58/7 88/57/7
f 88/57/8 96/58/8 90/58/8 81/57/8
f 101/73/10 103/74/10 105/75/10 107/76/10 109/77/10 111/78/10 97/79/10 99/80/10
f 67/81/10 65/82/10 81/57/10 82/60/10
f 69/83/10 67/81/10 82/60/10 83/62/10
f 71/84/10 69/83/10 83/62/10 84/64/10
f 73/85/10 71/84/10 84/64/10 85/64/10
f 75/83/10 73/85/10 85/64/10 86/62/10
f 77/81/10 75/83/10 86/62/10 87/60/10
f 79/82/10 77/81/10 87/60/10 88/57/10
f 65/82/10 79/82/10 88/57/10 81/57/10
f 66/86/9 68/87/9 89/59/9 90/58/9
f 68/87/9 70/88/9 91/61/9 89/59/9
f 70/88/9 72/89/9 92/63/9 91/61/9
f 72/89/9 74/89/9 93/63/9 92/63/9
f 74/89/9 76/88/9 94/61/9 93/63/9
f 76/88/9 78/87/9 95/59/9 94/61/9
f 78/87/9 80/86/9 96/58/9 95/59/9
f 80/86/9 66/86/9 90/58/9 96/58/9
f 113/90/1 122/91/1 121/92/1 114/93/1
f 114/93/2 121/92/2 123/94/2 115/95/2
f 115/95/3 123/94/3 124/96/3 116/97/3
f 116/97/4 124/96/4 125/96/4 117/97/4
f 117/97/5 125/96/5 126/94/5 118/95/5
f 118/95/6 126/94/6 127/92/6 119/93/6
f 142/98/9 140/99/9 138/100/9 136/101/9 134/102/9 132/103/9 130/104/9 144/105/9
f 119/93/7 127/92/7 128/91/7 120/90/7
f 120/90/8 128/91/8 122/91/8 113/90/8
f 133/106/10 135/107/10 137/108/10 139/109/10 141/110/10 143/111/10 129/112/10 131/113/10
f 99/114/10 97/115/10 113/90/10 114/93/10
f 101/116/10 99/114/10 114/93/10 115/95/10
f 103/117/10 101/116/10 115/95/10 116/97/10
f 105/117/10 103/117/10 116/97/10 117/97/10
f 107/116/10 105/117/10 117/97/10 118/95/10
f 109/114/10 107/116/10 118/95/10 119/93/10
f 111/115/10 109/114/10 119/93/10 120/90/10
f 97/115/10 111/115/10 120/90/10 113/90/10
f 98/118/9 100/119/9 121/92/9 122/91/9
f 100/119/9 102/120/9 123/94/9 121/92/9
f 102/120/9 104/121/9 124/96/9 123/94/9
f 104/121/9 106/121/9 125/96/9 124/96/9
f 106/121/9 108/120/9 126/94/9 125/96/9
f 108/120/9 110/119/9 127/92/9 126/94/9
f 110/119/9 112/118/9 128/91/9 127/92/9
f 112/118/9 98/118/9 122/91/9 128/91/9
f 145/122/1 154/123/1 153/124/1 146/125/1
f 146/125/2 153/124/2 155/126/2 147/127/2
f 147/127/3 155/126/3 156/128/3 148/129/3
f 148/129/4 156/128/4 157/128/4 149/129/4
f 149/129/5 157/128/5 158/126/5 150/127/5
f 150/127/6 158/126/6 159/124/6 151/125/6
f 174/130/9 172/131/9 170/132/9 168/133/9 166/134/9 164/135/9 162/136/9 176/137/9
f 151/125/7 159/124/7 160/123/7 152/122/7
f 152/122/8 160/123/8 154/123/8 145/122/8
f 165/138/10 167/139/10 169/140/10 171/141/10 173/142/10 175/143/10 161/144/10 163/145/10
f 131/146/10 129/147/10 145/122/10 146/125/10
f 133/148/10 131/146/10 146/125/10 147/127/10
f 135/149/10 133/148/10 147/127/10 148/129/10
f 137/149/10 135/149/10 148/129/10 149/129/10
f 139/148/10 137/149/10 149/129/10 150/127/10
f 141/146/10 139/148/10 150/127/10 151/125/10
f 143/147/10 141/146/10 151/125/10 152/122/10
f 129/147/10 143/147/10 152/122/10 145/122/10
f 130/150/9 132/151/9 153/124/9 154/123/9
f 132/151/9 134/152/9 155/126/9 153/124/9
f 134/152/9 136/153/9 156/128/9 155/126/9
f 136/153/9 138/153/9 157/128/9 156/128/9
f 138/153/9 140/152/9 158/126/9 157/128/9
f 140/152/9 142/151/9 159/124/9 158/126/9
f 142/151/9 144/150/9 160/123/9 159/124/9
f 144/150/9 130/150/9 154/123/9 160/123/9
f 177/154/1 186/155/1 185/156/1 178/157/1
f 178/157/2 185/156/2 187/158/2 179/159/2
f 179/159/3 187/158/3 188/160/3 180/161/3
f 180/161/4 188/160/4 189/160/4 181/161/4
f 181/161/5 189/160/5 190/158/5 182/159/5
f 182/159/6 190/158/6 191/156/6 183/157/6
f 183/157/7 191/156/7 192/155/7 184/154/7
f 184/154/8 192/155/8 186/155/8 177/154/8
f 5/162/10 7/163/10 9/164/10 11/165/10 13/166/10 15/167/10 1/168/10 3/169/10
f 163/170/10 161/171/10 177/154/10 178/157/10
f 165/172/10 163/170/10 178/157/10 179/159/10
f 167/173/10 165/172/10 179/159/10 180/161/10
f 169/173/10 167/173/10 180/161/10 181/161/10
f 171/172/10 169/173/10 181/161/10 182/159/10
f 173/170/10 171/172/10 182/159/10 183/157/10
f 175/171/10 173/170/10 183/157/10 184/154/10
f 161/171/10 175/171/10 184/154/10 177/154/10
f 162/174/9 164/175/9 185/156/9 186/155/9
f 164/175/9 166/176/9 187/158/9 185/156/9
f 166/176/9 168/177/9 188/160/9 187/158/9
f 168/177/9 170/177/9 189/160/9 188/160/9
f 170/177/9 172/176/9 190/158/9 189/160/9
f 172/176/9 174/175/9 191/156/9 190/158/9
f 174/175/9 176/174/9 192/155/9 191/156/9
f 176/174/9 162/174/9 186/155/9 192/155/9
f 37/178/10 39/179/10 41/180/10 43/181/10 45/182/10 47/183/10 33/184/10 35/185/10
f 14/186/9 12/187/9 10/188/9 8/189/9 6/190/9 4/191/9 2/192/9 16/193/9
