# Blender 5.0.0
# www.blender.org
mtllib cabin_Wall_Pointed_Snow.mtl
o cabin_Wall_Pointed_Snow
v -4.460960 -1.554461 -0.085127
v 4.460968 -1.553323 -0.084661
v -4.460960 -1.554461 0.085132
v 4.460968 -1.553323 0.084656
v -4.460960 -1.620357 -0.112422
v -4.460960 -1.620357 0.112427
v 4.460968 -1.620356 -0.112427
v 4.460968 -1.620355 0.112422
v -4.370940 -1.461365 -0.271414
v -4.460959 -1.535681 -0.197098
v -4.098578 -1.236516 -0.271414
v -4.460960 -1.535681 -0.103907
v -4.460960 -1.535681 0.103912
v -4.460959 -1.535681 0.197103
v -4.370940 -1.461365 0.271419
v 4.370940 -1.461364 -0.271419
v 4.460968 -1.535686 -0.197096
v 4.098578 -1.236515 -0.271419
v 4.460968 -1.535686 -0.102298
v 4.460968 -1.535686 0.102293
v 4.460968 -1.535686 0.197091
v 4.370940 -1.461363 0.271414
v 4.218962 -1.335898 0.271414
v -0.830605 1.461365 -0.271416
v -1.102968 1.236516 -0.271416
v -0.638017 1.620357 -0.112424
v -0.638016 1.620357 0.112425
v -0.830605 1.461365 0.271417
v -1.756562 0.696940 -0.271416
v -1.484200 0.921789 -0.271416
v -1.291611 1.080781 -0.112424
v -1.295556 1.077524 -0.112423
v -1.295557 1.077524 0.112426
v -1.291611 1.080781 0.112425
v -1.102967 1.236516 0.271417
v -1.484200 0.921789 0.271417
v -1.756562 0.696940 0.271418
v -1.949151 0.537947 -0.112423
v -1.945205 0.541205 -0.112424
v -1.945206 0.541205 0.112425
v -2.137794 0.382212 -0.271416
v -1.949151 0.537948 0.112426
v -2.410156 0.157364 -0.271416
v -2.137794 0.382213 0.271417
v -2.602746 -0.001629 -0.112423
v -2.410156 0.157364 0.271418
v -3.256340 -0.541205 -0.112422
v -3.063751 -0.382212 -0.271415
v -2.791389 -0.157363 -0.271415
v -2.598800 0.001629 -0.112423
v -2.598800 0.001629 0.112426
v -2.602746 -0.001629 0.112426
v -2.791389 -0.157363 0.271418
v -3.063751 -0.382212 0.271419
v -3.444983 -0.696939 -0.271415
v -3.717345 -0.921788 -0.271415
v -3.909934 -1.080781 -0.112422
v -3.252394 -0.537947 -0.112423
v -3.905988 -1.077524 -0.112423
v -3.905989 -1.077524 0.112426
v -3.252395 -0.537947 0.112426
v -3.256340 -0.541204 0.112427
v -3.444983 -0.696939 0.271418
v -3.717345 -0.921788 0.271419
v -3.909934 -1.080781 0.112427
v -4.098577 -1.236516 0.271419
v 0.830603 1.461365 -0.271416
v 1.102966 1.236517 -0.271416
v 0.638014 1.620358 -0.112424
v 0.638014 1.620358 0.112425
v 0.830604 1.461366 0.271417
v 1.756560 0.696941 -0.271417
v 1.484199 0.921790 -0.271417
v 1.291610 1.080782 -0.112425
v 1.295554 1.077525 -0.112424
v 1.295554 1.077525 0.112425
v 1.291610 1.080782 0.112424
v 1.102965 1.236517 0.271417
v 1.484199 0.921790 0.271416
v 1.756561 0.696941 0.271416
v 1.721737 0.725690 0.271416
v 1.949150 0.537949 -0.112425
v 1.945205 0.541206 -0.112426
v 1.945205 0.541206 0.112423
v 2.137794 0.382214 -0.271418
v 1.949149 0.537949 0.112424
v 2.410156 0.157365 -0.271418
v 2.137794 0.382214 0.271416
v 2.602745 -0.001627 -0.112426
v 2.387981 0.175671 0.271415
v 2.410156 0.157365 0.271415
v 3.256339 -0.541203 -0.112425
v 3.063749 -0.382211 -0.271418
v 2.791386 -0.157362 -0.271418
v 2.598798 0.001630 -0.112425
v 2.598798 0.001630 0.112424
v 2.602745 -0.001627 0.112423
v 2.791386 -0.157362 0.271416
v 3.063749 -0.382211 0.271416
v 3.444982 -0.696938 -0.271418
v 3.717344 -0.921787 -0.271418
v 3.909933 -1.080779 -0.112426
v 3.252393 -0.537946 -0.112426
v 3.905988 -1.077523 -0.112427
v 3.905988 -1.077523 0.112422
v 3.252393 -0.537946 0.112423
v 3.256338 -0.541203 0.112423
v 3.444983 -0.696938 0.271415
v 3.709136 -0.915010 0.271415
v 3.717345 -0.921787 0.271415
v 3.909933 -1.080779 0.112423
v 4.098578 -1.236514 0.271414
v -0.318876 2.000941 -0.256341
v -0.517524 1.776092 -0.256341
v -0.178411 2.159933 -0.106180
v -0.178411 2.159933 0.106180
v -0.318876 2.000941 0.256342
v -0.657989 1.617100 -0.106180
v -0.657989 1.617100 0.106181
v -0.517523 1.776092 0.256342
v 0.318873 2.000942 -0.256341
v 0.517521 1.776093 -0.256341
v 0.178409 2.159934 -0.106180
v 0.178409 2.159934 0.106181
v 0.318874 2.000942 0.256342
v 0.657986 1.617101 -0.106180
v 0.657986 1.617101 0.106181
v 0.517521 1.776093 0.256342
vn -0.0000 -1.0000 -0.0000
vn -0.0000 -0.7071 0.7071
vn -1.0000 -0.0000 -0.0000
vn 1.0000 -0.0000 -0.0000
vn -0.0000 0.7071 -0.7071
vn -0.0000 1.0000 -0.0000
vn -0.0000 -0.7071 -0.7071
vn -0.0000 0.7071 0.7071
vn -0.0000 -0.0000 1.0000
vn -0.0000 -0.0000 -1.0000
vn -0.6366 0.7712 -0.0000
vn 0.6366 0.7712 -0.0000
vn -0.0000 0.6866 -0.7270
vn -0.0000 -0.6866 0.7270
vn -0.0000 0.6866 0.7270
vn -0.7494 0.6621 -0.0000
vn 0.7494 0.6621 -0.0000
vn -0.0000 -0.6866 -0.7270
vt 0.220098 0.264785
vt 0.256507 0.264785
vt 0.220098 0.264785
vt 0.256507 0.265130
vt 0.256139 0.265434
vt 0.220465 0.265434
vt 0.220098 0.265131
vt 0.220098 0.265054
vt 0.256507 0.265059
vt 0.227681 0.271391
vt 0.248924 0.271391
vt 0.233015 0.275795
vt 0.243589 0.275795
vt 0.224244 0.268553
vt 0.225030 0.269202
vt 0.251575 0.269202
vt 0.252361 0.268553
vt 0.227697 0.271404
vt 0.248907 0.271404
vt 0.234913 0.277361
vt 0.235699 0.278010
vt 0.240906 0.278010
vt 0.241692 0.277361
vt 0.225013 0.269189
vt 0.251591 0.269189
vt 0.222346 0.266987
vt 0.254258 0.266987
vt 0.225799 0.269838
vt 0.250805 0.269838
vt 0.226911 0.270755
vt 0.249693 0.270755
vt 0.233031 0.275808
vt 0.243573 0.275808
vt 0.221576 0.266351
vt 0.255519 0.265946
vt 0.255028 0.266351
vt 0.223132 0.267636
vt 0.253472 0.267636
vt 0.253439 0.267663
vt 0.232245 0.275159
vt 0.244359 0.275159
vt 0.230364 0.273606
vt 0.229578 0.272957
vt 0.247026 0.272957
vt 0.246240 0.273606
vt 0.228467 0.272040
vt 0.248138 0.272040
vt 0.233801 0.276443
vt 0.242803 0.276443
vt 0.222362 0.267000
vt 0.254242 0.267000
vt 0.231134 0.274242
vt 0.230348 0.273593
vt 0.246256 0.273593
vt 0.245470 0.274242
vt 0.245328 0.274359
vt 0.248047 0.272114
vt 0.235617 0.277997
vt 0.240987 0.277997
vt 0.237001 0.279563
vt 0.237574 0.280212
vt 0.239030 0.280212
vt 0.239603 0.279563
vt 0.236190 0.278645
vt 0.240414 0.278645
s 0
usemtl Winter_Pack_Texture
f 5/1/1 7/2/1 8/2/1 6/3/1
f 6/3/2 8/2/2 21/4/2 22/5/2 15/6/2 14/7/2
f 1/8/3 12/7/3 10/7/3 5/1/3
f 3/8/3 1/8/3 5/1/3 6/3/3
f 2/9/4 4/9/4 8/2/4 7/2/4
f 4/9/4 20/4/4 21/4/4 8/2/4
f 52/10/1 45/10/1 89/11/1 97/11/1
f 33/12/1 32/12/1 75/13/1 76/13/1
f 55/14/5 58/15/5 103/16/5 100/17/5
f 50/18/6 51/18/6 96/19/6 95/19/6
f 58/15/6 61/15/6 106/16/6 103/16/6
f 24/20/5 26/21/5 69/22/5 67/23/5
f 62/24/1 47/24/1 92/25/1 107/25/1
f 10/7/7 9/6/7 16/5/7 17/4/7 7/2/7 5/1/7
f 65/26/1 57/26/1 102/27/1 111/27/1
f 54/28/2 62/24/2 107/25/2 99/29/2
f 51/18/8 53/30/8 98/31/8 96/19/8
f 31/32/6 34/32/6 77/33/6 74/33/6
f 66/34/9 15/6/9 22/5/9 23/35/9 112/36/9
f 13/7/3 12/7/3 1/8/3 3/8/3
f 47/24/7 48/28/7 93/29/7 92/25/7
f 26/21/6 27/21/6 70/22/6 69/22/6
f 63/14/9 64/37/9 110/38/9 109/39/9 108/17/9
f 34/32/8 36/40/8 79/41/8 77/33/8
f 30/40/5 31/32/5 74/33/5 73/41/5
f 40/42/8 44/43/8 88/44/8 84/45/8
f 49/30/5 50/18/5 95/19/5 94/31/5
f 45/10/7 43/46/7 87/47/7 89/11/7
f 35/48/2 33/12/2 76/13/2 78/49/2
f 41/43/5 39/42/5 83/45/5 85/44/5
f 59/50/6 60/50/6 105/51/6 104/51/6
f 37/52/2 42/53/2 86/54/2 80/55/2
f 11/34/5 59/50/5 104/51/5 18/36/5
f 38/53/7 29/52/7 72/55/7 82/54/7
f 48/28/10 49/30/10 94/31/10 93/29/10
f 14/7/3 13/7/3 3/8/3 6/3/3
f 64/37/2 65/26/2 111/27/2 110/38/2
f 27/21/8 28/20/8 71/23/8 70/22/8
f 36/40/9 37/52/9 80/55/9 81/56/9 79/41/9
f 39/42/6 40/42/6 84/45/6 83/45/6
f 56/37/11 57/26/11 65/26/11 64/37/11 63/14/11 61/15/11 58/15/11 55/14/11
f 11/34/11 9/6/11 10/7/11 12/7/11 13/7/11 14/7/11 15/6/11 66/34/11 60/50/11 59/50/11
f 25/48/11 32/12/11 33/12/11 35/48/11 28/20/11 27/21/11 26/21/11 24/20/11
f 30/40/11 29/52/11 38/53/11 42/53/11 37/52/11 36/40/11 34/32/11 31/32/11
f 41/43/11 43/46/11 45/10/11 52/10/11 46/46/11 44/43/11 40/42/11 39/42/11
f 67/23/12 69/22/12 70/22/12 71/23/12 78/49/12 76/13/12 75/13/12 68/49/12
f 88/44/12 90/57/12 91/47/12 97/11/12 89/11/12 87/47/12 85/44/12 83/45/12 84/45/12
f 73/41/12 74/33/12 77/33/12 79/41/12 81/56/12 80/55/12 86/54/12 82/54/12 72/55/12
f 18/36/12 104/51/12 105/51/12 112/36/12 23/35/12 22/5/12 21/4/12 20/4/12 19/4/12 17/4/12 16/5/12
f 100/17/12 103/16/12 106/16/12 108/17/12 109/39/12 110/38/12 111/27/12 102/27/12 101/38/12
f 93/29/12 94/31/12 95/19/12 96/19/12 98/31/12 99/29/12 107/25/12 92/25/12
f 46/46/2 52/10/2 97/11/2 91/47/2
f 44/43/9 46/46/9 91/47/9 90/57/9 88/44/9
f 53/30/9 54/28/9 99/29/9 98/31/9
f 9/6/10 11/34/10 18/36/10 16/5/10
f 42/53/1 38/53/1 82/54/1 86/54/1
f 17/4/4 19/4/4 2/9/4 7/2/4
f 56/37/10 55/14/10 100/17/10 101/38/10
f 61/15/8 63/14/8 108/17/8 106/16/8
f 57/26/7 56/37/7 101/38/7 102/27/7
f 60/50/8 66/34/8 112/36/8 105/51/8
f 25/48/10 24/20/10 67/23/10 68/49/10
f 32/12/7 25/48/7 68/49/7 75/13/7
f 29/52/10 30/40/10 73/41/10 72/55/10
f 19/4/4 20/4/4 4/9/4 2/9/4
f 28/20/9 35/48/9 78/49/9 71/23/9
f 43/46/10 41/43/10 85/44/10 87/47/10
f 54/28/11 53/30/11 51/18/11 50/18/11 49/30/11 48/28/11 47/24/11 62/24/11
f 119/58/1 118/58/1 126/59/1 127/59/1
f 113/60/13 115/61/13 123/62/13 121/63/13
f 115/61/6 116/61/6 124/62/6 123/62/6
f 120/64/14 119/58/14 127/59/14 128/65/14
f 116/61/15 117/60/15 125/63/15 124/62/15
f 114/64/16 118/58/16 119/58/16 120/64/16 117/60/16 116/61/16 115/61/16 113/60/16
f 121/63/17 123/62/17 124/62/17 125/63/17 128/65/17 127/59/17 126/59/17 122/65/17
f 114/64/10 113/60/10 121/63/10 122/65/10
f 118/58/18 114/64/18 122/65/18 126/59/18
f 117/60/9 120/64/9 128/65/9 125/63/9
