# Blender 5.0.0
# www.blender.org
mtllib cabin_Roof_Side.mtl
o cabin_Roof_Side
v -4.648512 -0.105166 3.173341
v -4.648512 0.105167 3.173341
v 4.648518 -0.105166 3.173332
v 4.648518 0.105167 3.173332
v 0.000003 -0.105166 3.173337
v 0.000003 0.105167 3.173337
v 2.231289 -0.105166 3.173335
v 2.417230 -0.105166 3.173335
v 2.417230 0.105167 3.173335
v 2.231289 0.105167 3.173335
v -2.231284 0.105167 3.173339
v -2.417225 0.105167 3.173339
v -2.417225 -0.105166 3.173339
v -2.231284 -0.105166 3.173339
v -4.648516 0.213782 0.677495
v -4.648516 0.213782 0.591849
v -4.648514 0.213782 1.946830
v -4.648514 0.213782 1.861184
v 4.648516 0.213782 0.591839
v 4.648516 0.213782 0.677486
v 4.648517 0.213782 1.861174
v 4.648517 0.213782 1.946820
v 2.231287 0.213782 0.677488
v 2.231287 0.213782 0.591842
v 2.417228 0.213782 0.591842
v 2.417228 0.213782 0.677488
v 2.231289 0.213782 1.946823
v 2.231289 0.213782 1.861176
v 2.417229 0.213782 1.861176
v 2.417229 0.213782 1.946823
v 0.000001 0.213782 0.591844
v 0.000001 0.213782 0.677491
v 0.000002 0.213782 1.861179
v 0.000002 0.213782 1.946825
v -2.417228 0.213782 0.677493
v -2.417228 0.213782 0.591847
v -2.231287 0.213782 0.591846
v -2.231287 0.213782 0.677493
v -2.417226 0.213782 1.946828
v -2.417226 0.213782 1.861181
v -2.231286 0.213782 1.861181
v -2.231286 0.213782 1.946828
v 4.648517 -0.105166 1.772719
v 4.648517 -0.105166 2.035276
v 4.648515 -0.105167 0.503385
v 4.648517 -0.105166 0.765941
v 4.648515 -0.105167 -0.503394
v 4.648515 0.105167 -0.503394
v 4.648517 0.105167 0.765941
v 4.648515 0.105167 0.503385
v 4.648517 0.105167 2.035276
v 4.648517 0.105167 1.772719
v -4.648515 -0.105167 -0.503385
v -4.648514 -0.105167 0.765950
v -4.648515 -0.105167 0.503394
v -4.648514 -0.105166 2.035285
v -4.648514 -0.105166 1.772729
v -4.648514 0.105167 1.772729
v -4.648514 0.105167 2.035285
v -4.648515 0.105167 0.503394
v -4.648514 0.105167 0.765950
v -4.648515 0.105167 -0.503385
v -0.000001 0.105167 -0.503390
v 0.000001 0.105167 0.765945
v 0.000001 0.105167 0.503389
v 0.000002 0.105167 2.035280
v 0.000002 0.105167 1.772724
v 0.000002 -0.105166 1.772724
v 0.000002 -0.105166 2.035280
v 0.000001 -0.105167 0.503390
v 0.000001 -0.105166 0.765945
v -0.000001 -0.105167 -0.503389
v 2.417228 -0.105166 1.772722
v 2.417229 -0.105166 2.035278
v 2.417228 -0.105167 0.503387
v 2.417228 -0.105166 0.765943
v 2.417226 -0.105167 -0.503392
v 2.231288 -0.105166 2.035278
v 2.231288 -0.105166 1.772722
v 2.231287 -0.105166 0.765943
v 2.231287 -0.105167 0.503387
v 2.231286 -0.105167 -0.503392
v 2.417226 0.105167 -0.503392
v 2.417228 0.105167 0.765943
v 2.417228 0.105167 0.503387
v 2.417229 0.105167 2.035278
v 2.417228 0.105167 1.772722
v 2.231286 0.105167 -0.503392
v 2.231287 0.105167 0.503387
v 2.231287 0.105167 0.765943
v 2.231288 0.105167 1.772722
v 2.231288 0.105167 2.035278
v -2.231288 0.105167 -0.503387
v -2.231287 0.105167 0.765948
v -2.231287 0.105167 0.503392
v -2.231285 0.105167 2.035282
v -2.231286 0.105167 1.772726
v -2.417228 0.105167 -0.503387
v -2.417227 0.105167 0.503392
v -2.417227 0.105167 0.765948
v -2.417226 0.105167 1.772727
v -2.417226 0.105167 2.035282
v -2.231286 -0.105166 1.772726
v -2.231285 -0.105166 2.035282
v -2.231287 -0.105167 0.503392
v -2.231287 -0.105166 0.765948
v -2.231288 -0.105167 -0.503387
v -2.417226 -0.105166 2.035282
v -2.417226 -0.105166 1.772727
v -2.417227 -0.105167 0.765948
v -2.417227 -0.105167 0.503392
v -2.417228 -0.105167 -0.503387
vn -0.0000 -0.0000 1.0000
vn -0.0000 0.6315 0.7754
vn -0.0000 0.6315 -0.7754
vn -0.0000 1.0000 -0.0000
vn -0.0000 -0.0000 -1.0000
vn -1.0000 -0.0000 -0.0000
vn -0.0000 -1.0000 -0.0000
vn 1.0000 -0.0000 -0.0000
vt 0.923737 0.501842
vt 0.923737 0.532930
vt 0.824496 0.504938
vt 0.817832 0.504938
vt 0.817832 0.503672
vt 0.824496 0.503672
vt 0.817832 0.501180
vt 0.824496 0.501180
vt 0.824496 0.502446
vt 0.817832 0.502446
vt 0.923737 0.501842
vt 0.923737 0.532930
vt 0.896068 0.453752
vt 0.902732 0.453752
vt 0.902732 0.455220
vt 0.896068 0.455220
vt 0.803948 0.502446
vt 0.810612 0.502446
vt 0.810612 0.503672
vt 0.803948 0.503672
vt 0.882184 0.453752
vt 0.888848 0.453752
vt 0.888848 0.455220
vt 0.882184 0.455220
vt 0.796729 0.502446
vt 0.803393 0.502446
vt 0.803393 0.503672
vt 0.796729 0.503672
vt 0.874965 0.453752
vt 0.881629 0.453752
vt 0.881629 0.455220
vt 0.874965 0.455220
vt 0.817276 0.502446
vt 0.817276 0.503672
vt 0.895512 0.453752
vt 0.895512 0.455220
vt 0.888848 0.456736
vt 0.882184 0.456736
vt 0.882184 0.452236
vt 0.888848 0.452236
vt 0.803948 0.504938
vt 0.803393 0.504938
vt 0.817276 0.504938
vt 0.803393 0.501180
vt 0.803948 0.501180
vt 0.817276 0.501180
vt 0.881629 0.456736
vt 0.896068 0.456736
vt 0.895512 0.456736
vt 0.881629 0.452236
vt 0.882471 0.501842
vt 0.882471 0.532930
vt 0.895512 0.452236
vt 0.896068 0.452236
vt 0.896718 0.501842
vt 0.893771 0.501842
vt 0.910964 0.501842
vt 0.908017 0.501842
vt 0.902732 0.456736
vt 0.796729 0.504938
vt 0.902732 0.452236
vt 0.796729 0.501180
vt 0.810612 0.504938
vt 0.810612 0.501180
vt 0.874965 0.456736
vt 0.874965 0.452236
vt 0.896718 0.501842
vt 0.893771 0.501842
vt 0.910964 0.501842
vt 0.908017 0.501842
vt 0.908017 0.532930
vt 0.910964 0.532930
vt 0.893771 0.532930
vt 0.896718 0.532930
vt 0.896718 0.532930
vt 0.893771 0.532930
vt 0.910964 0.532930
vt 0.908017 0.532930
vt 0.882471 0.501842
vt 0.882471 0.532930
vt 0.801172 0.552686
vt 0.801172 0.540762
vt 0.827600 0.540762
vt 0.827600 0.552686
vt 0.804385 0.497522
vt 0.804385 0.481966
vt 0.825989 0.481967
vt 0.825989 0.497522
vt 0.801172 0.584309
vt 0.801172 0.570830
vt 0.827600 0.570830
vt 0.827600 0.584309
vt 0.872798 0.519161
vt 0.872798 0.501578
vt 0.894402 0.501578
vt 0.894402 0.519161
vt 0.884859 0.567720
vt 0.884859 0.555796
vt 0.911286 0.555796
vt 0.911286 0.567720
vt 0.852583 0.511071
vt 0.852583 0.502098
vt 0.872471 0.502098
vt 0.872471 0.511071
vt 0.882314 0.544539
vt 0.882314 0.558100
vt 0.852259 0.558100
vt 0.852259 0.544539
vt 0.831038 0.511071
vt 0.831038 0.502098
vt 0.850926 0.502098
vt 0.850926 0.511071
vt 0.842920 0.580902
vt 0.842920 0.565256
vt 0.877595 0.565256
vt 0.877595 0.580902
vt 0.849393 0.497522
vt 0.849393 0.481967
vt 0.870997 0.481967
vt 0.870997 0.497522
vt 0.811149 0.534869
vt 0.811149 0.524726
vt 0.831038 0.524726
vt 0.831038 0.534869
vt 0.850926 0.524726
vt 0.850926 0.534869
vt 0.828325 0.506501
vt 0.828325 0.482588
vt 0.832742 0.482588
vt 0.832742 0.506501
vt 0.843398 0.564335
vt 0.843398 0.540422
vt 0.847814 0.540422
vt 0.847814 0.564335
vt 0.800949 0.533931
vt 0.800949 0.506899
vt 0.805366 0.506899
vt 0.805366 0.533931
vt 0.874522 0.499636
vt 0.874522 0.475723
vt 0.878938 0.475723
vt 0.878938 0.499636
vt 0.868985 0.540860
vt 0.868985 0.516946
vt 0.873401 0.516946
vt 0.873401 0.540860
vt 0.889901 0.488924
vt 0.889901 0.461892
vt 0.894318 0.461892
vt 0.894318 0.488924
s 0
usemtl Winter_Pack_Texture
f 13/1/1 12/2/1 2/2/1 1/1/1
f 61/3/2 100/4/2 35/5/2 15/6/2
f 99/7/3 60/8/3 16/9/3 36/10/3
f 7/1/1 10/2/1 6/2/1 5/1/1
f 3/11/1 4/12/1 9/12/1 8/11/1
f 8/11/1 9/12/1 10/2/1 7/1/1
f 40/13/4 18/14/4 17/15/4 39/16/4
f 24/17/4 31/18/4 32/19/4 23/20/4
f 28/21/4 33/22/4 34/23/4 27/24/4
f 19/25/4 25/26/4 26/27/4 20/28/4
f 21/29/4 29/30/4 30/31/4 22/32/4
f 5/1/1 6/2/1 11/2/1 14/1/1
f 14/1/1 11/2/1 12/2/1 13/1/1
f 25/26/4 24/17/4 23/20/4 26/27/4
f 29/30/4 28/21/4 27/24/4 30/31/4
f 31/18/4 37/33/4 38/34/4 32/19/4
f 33/22/4 41/35/4 42/36/4 34/23/4
f 37/33/4 36/10/4 35/5/4 38/34/4
f 41/35/4 40/13/4 39/16/4 42/36/4
f 66/37/2 92/38/2 27/24/2 34/23/2
f 91/39/3 67/40/3 33/22/3 28/21/3
f 90/41/2 84/42/2 26/27/2 23/20/2
f 100/4/2 94/43/2 38/34/2 35/5/2
f 85/44/3 89/45/3 24/17/3 25/26/3
f 95/46/3 99/7/3 36/10/3 37/33/3
f 92/38/2 86/47/2 30/31/2 27/24/2
f 102/48/2 96/49/2 42/36/2 39/16/2
f 87/50/3 91/39/3 28/21/3 29/30/3
f 112/51/5 98/52/5 93/52/5 107/51/5
f 97/53/3 101/54/3 40/13/3 41/35/3
f 36/10/4 16/9/4 15/6/4 35/5/4
f 60/8/6 61/3/6 15/6/6 16/9/6
f 106/55/7 110/55/7 111/56/7 105/56/7
f 104/57/7 108/57/7 109/58/7 103/58/7
f 71/55/7 106/55/7 105/56/7 70/56/7
f 69/57/7 104/57/7 103/58/7 68/58/7
f 59/59/2 102/48/2 39/16/2 17/15/2
f 84/42/2 49/60/2 20/28/2 26/27/2
f 58/61/6 59/59/6 17/15/6 18/14/6
f 50/62/3 85/44/3 25/26/3 19/25/3
f 101/54/3 58/61/3 18/14/3 40/13/3
f 94/43/2 64/63/2 32/19/2 38/34/2
f 49/60/8 50/62/8 19/25/8 20/28/8
f 65/64/3 95/46/3 37/33/3 31/18/3
f 86/47/2 51/65/2 22/32/2 30/31/2
f 52/66/3 87/50/3 29/30/3 21/29/3
f 76/67/7 80/55/7 81/56/7 75/68/7
f 74/69/7 78/57/7 79/58/7 73/70/7
f 46/67/7 76/67/7 75/68/7 45/68/7
f 44/69/7 74/69/7 73/70/7 43/70/7
f 80/55/7 71/55/7 70/56/7 81/56/7
f 78/57/7 69/57/7 68/58/7 79/58/7
f 96/49/2 66/37/2 34/23/2 42/36/2
f 51/65/8 52/66/8 21/29/8 22/32/8
f 67/40/3 97/53/3 41/35/3 33/22/3
f 64/63/2 90/41/2 23/20/2 32/19/2
f 89/45/3 65/64/3 31/18/3 24/17/3
f 110/55/7 54/55/7 55/56/7 111/56/7
f 108/57/7 56/57/7 57/58/7 109/58/7
f 58/71/6 57/58/6 56/57/6 59/72/6
f 60/73/6 55/56/6 54/55/6 61/74/6
f 53/51/5 62/52/5 98/52/5 112/51/5
f 49/75/8 46/67/8 45/68/8 50/76/8
f 51/77/8 44/69/8 43/70/8 52/78/8
f 44/69/7 3/11/7 8/11/7 74/69/7
f 46/67/8 49/75/8 52/78/8 43/70/8
f 46/67/7 43/70/7 73/70/7 76/67/7
f 44/69/8 51/77/8 4/12/8 3/11/8
f 47/79/8 48/80/8 50/76/8 45/68/8
f 47/79/7 45/68/7 75/68/7 77/79/7
f 77/79/5 83/80/5 48/80/5 47/79/5
f 82/51/5 88/52/5 83/80/5 77/79/5
f 50/81/4 48/82/4 83/83/4 85/84/4
f 52/85/4 49/86/4 84/87/4 87/88/4
f 4/89/4 51/90/4 86/91/4 9/92/4
f 72/51/5 63/52/5 88/52/5 82/51/5
f 107/51/5 93/52/5 63/52/5 72/51/5
f 55/56/6 60/73/6 62/52/6 53/51/6
f 112/51/7 111/56/7 55/56/7 53/51/7
f 57/58/6 58/71/6 61/74/6 54/55/6
f 110/55/7 109/58/7 57/58/7 54/55/7
f 1/1/6 2/2/6 59/72/6 56/57/6
f 108/57/7 13/1/7 1/1/7 56/57/7
f 12/93/4 102/94/4 59/95/4 2/96/4
f 101/97/4 100/98/4 61/99/4 58/100/4
f 99/101/4 98/102/4 62/103/4 60/104/4
f 89/105/4 88/106/4 63/107/4 65/108/4
f 65/109/4 63/110/4 93/111/4 95/112/4
f 91/113/4 90/114/4 64/115/4 67/116/4
f 67/117/4 64/118/4 94/119/4 97/120/4
f 10/121/4 92/122/4 66/123/4 6/124/4
f 6/124/4 66/123/4 96/125/4 11/126/4
f 69/57/7 5/1/7 14/1/7 104/57/7
f 80/55/7 79/58/7 68/58/7 71/55/7
f 71/55/7 68/58/7 103/58/7 106/55/7
f 78/57/7 7/1/7 5/1/7 69/57/7
f 82/51/7 81/56/7 70/56/7 72/51/7
f 72/51/7 70/56/7 105/56/7 107/51/7
f 74/69/7 8/11/7 7/1/7 78/57/7
f 76/67/7 73/70/7 79/58/7 80/55/7
f 77/79/7 75/68/7 81/56/7 82/51/7
f 85/127/4 83/128/4 88/129/4 89/130/4
f 87/131/4 84/132/4 90/133/4 91/134/4
f 9/135/4 86/136/4 92/137/4 10/138/4
f 95/139/4 93/140/4 98/141/4 99/142/4
f 97/143/4 94/144/4 100/145/4 101/146/4
f 11/147/4 96/148/4 102/149/4 12/150/4
f 104/57/7 14/1/7 13/1/7 108/57/7
f 106/55/7 103/58/7 109/58/7 110/55/7
f 107/51/7 105/56/7 111/56/7 112/51/7
