# Blender 5.0.0
# www.blender.org
mtllib cabin_Roof_Snow_R.mtl
o cabin_Roof_Snow_R
v 4.531102 -3.913087 4.655787
v 4.657607 -3.759850 4.655787
v 4.531098 -3.913089 -4.655788
v 4.657603 -3.759852 -4.655788
v -0.092711 -0.095895 4.655788
v 0.033793 0.057342 4.655788
v -0.092716 -0.095897 -4.655787
v 0.033789 0.057340 -4.655787
v 4.531100 -3.913088 -0.000001
v 4.657605 -3.759851 -0.000001
v -0.092713 -0.095896 0.000000
v 0.033791 0.057341 0.000000
v 4.657604 -3.759852 -2.234778
v 4.657604 -3.759852 -2.421010
v -0.092714 -0.095897 -2.234777
v -0.092714 -0.095897 -2.421008
v 4.531098 -3.913088 -2.421010
v 4.531098 -3.913088 -2.234778
v 0.033790 0.057340 -2.421008
v 0.033790 0.057340 -2.234777
v 4.531101 -3.913087 2.234777
v 4.531101 -3.913087 2.421009
v 0.033792 0.057341 2.234778
v 0.033792 0.057341 2.421010
v 4.657606 -3.759851 2.421009
v 4.657606 -3.759851 2.234777
v -0.092712 -0.095895 2.421010
v -0.092713 -0.095895 2.234778
v 3.766972 -2.891526 4.655787
v 3.829369 -2.943038 4.655787
v 2.842209 -2.128087 4.655787
v 2.904606 -2.179599 4.655787
v 1.917446 -1.364649 4.655788
v 1.979843 -1.416161 4.655788
v 0.992684 -0.601210 4.655788
v 1.055081 -0.652722 4.655788
v 3.829365 -2.943039 -4.655789
v 3.766968 -2.891527 -4.655789
v 2.904602 -2.179600 -4.655789
v 2.842205 -2.128089 -4.655789
v 1.979839 -1.416163 -4.655788
v 1.917442 -1.364651 -4.655788
v 1.055076 -0.652725 -4.655789
v 0.992679 -0.601213 -4.655789
v 3.766968 -2.891527 -2.234778
v 3.829366 -2.943039 -2.234778
v 3.829366 -2.943039 -2.421010
v 3.766968 -2.891527 -2.421010
v 2.842206 -2.128089 -2.234777
v 2.904603 -2.179600 -2.234777
v 2.904603 -2.179600 -2.421009
v 2.842206 -2.128089 -2.421009
v 1.917443 -1.364650 -2.234778
v 1.979840 -1.416162 -2.234778
v 1.979840 -1.416162 -2.421009
v 1.917443 -1.364650 -2.421009
v 0.992680 -0.601212 -2.234777
v 1.055078 -0.652724 -2.234777
v 1.055077 -0.652724 -2.421009
v 0.992681 -0.601212 -2.421009
v 3.829367 -2.943038 -0.000001
v 3.766970 -2.891527 -0.000001
v 2.904604 -2.179600 -0.000000
v 2.842207 -2.128088 -0.000000
v 1.979841 -1.416162 -0.000000
v 1.917444 -1.364650 -0.000000
v 1.055079 -0.652723 -0.000000
v 0.992681 -0.601212 -0.000000
v 3.766970 -2.891526 2.421009
v 3.829368 -2.943038 2.421009
v 3.829368 -2.943038 2.234778
v 3.766970 -2.891526 2.234777
v 2.842208 -2.128087 2.421010
v 2.904605 -2.179599 2.421010
v 2.904605 -2.179599 2.234778
v 2.842208 -2.128087 2.234778
v 1.917445 -1.364649 2.421010
v 1.979842 -1.416161 2.421010
v 1.979842 -1.416161 2.234778
v 1.917445 -1.364649 2.234778
v 0.992682 -0.601211 2.421010
v 1.055080 -0.652723 2.421010
v 1.055079 -0.652723 2.234779
v 0.992682 -0.601211 2.234779
v 0.927689 -0.938292 -4.655787
v 0.736406 -0.780379 -4.655787
v 1.852451 -1.701731 -4.655787
v 1.661169 -1.543817 -4.655787
v 2.777214 -2.465168 -4.655787
v 2.585932 -2.307255 -4.655788
v 3.701977 -3.228607 -4.655788
v 3.510694 -3.070693 -4.655787
v 3.637199 -2.917457 -4.655787
v 3.828482 -3.075371 -4.655788
v 2.712436 -2.154018 -4.655788
v 2.903719 -2.311932 -4.655787
v 1.787673 -1.390581 -4.655787
v 1.978956 -1.548494 -4.655787
v 0.862910 -0.627142 -4.655788
v 1.054193 -0.785056 -4.655787
v 3.510698 -3.070692 4.655788
v 3.701981 -3.228605 4.655787
v 2.585935 -2.307253 4.655787
v 2.777218 -2.465167 4.655788
v 1.661173 -1.543815 4.655787
v 1.852455 -1.701729 4.655788
v 0.736410 -0.780376 4.655787
v 0.927693 -0.938290 4.655787
v 1.054198 -0.785054 4.655787
v 0.862914 -0.627140 4.655787
v 1.978960 -1.548492 4.655788
v 1.787677 -1.390578 4.655787
v 2.903723 -2.311930 4.655788
v 2.712440 -2.154016 4.655787
v 3.828485 -3.075369 4.655787
v 3.637203 -2.917455 4.655788
v 3.637201 -2.917456 -0.000001
v 3.828484 -3.075369 -0.000001
v 2.712438 -2.154017 -0.000000
v 2.903721 -2.311931 -0.000000
v 1.787675 -1.390579 -0.000000
v 1.978958 -1.548493 -0.000000
v 0.862912 -0.627141 0.000000
v 1.054195 -0.785055 -0.000000
v 0.927691 -0.938291 0.000000
v 0.736408 -0.780378 0.000000
v 1.852453 -1.701730 -0.000000
v 1.661171 -1.543816 -0.000000
v 2.777216 -2.465168 -0.000000
v 2.585933 -2.307254 -0.000000
v 3.701979 -3.228606 -0.000001
v 3.510696 -3.070692 -0.000000
v 0.927690 -0.938292 -2.421008
v 0.736407 -0.780378 -2.421008
v 1.852452 -1.701730 -2.421009
v 1.661170 -1.543817 -2.421009
v 2.777215 -2.465168 -2.421009
v 2.585933 -2.307255 -2.421009
v 3.701978 -3.228607 -2.421010
v 3.510695 -3.070693 -2.421010
v 0.736407 -0.780378 -2.234777
v 0.927690 -0.938292 -2.234777
v 1.661170 -1.543817 -2.234777
v 1.852452 -1.701730 -2.234777
v 2.585933 -2.307255 -2.234777
v 2.777215 -2.465168 -2.234777
v 3.510695 -3.070693 -2.234778
v 3.701978 -3.228607 -2.234778
v 3.637200 -2.917457 -2.421010
v 3.828483 -3.075371 -2.421010
v 2.712437 -2.154018 -2.421009
v 2.903720 -2.311932 -2.421009
v 1.787674 -1.390580 -2.421009
v 1.978957 -1.548494 -2.421009
v 0.862911 -0.627141 -2.421008
v 1.054194 -0.785055 -2.421008
v 3.828483 -3.075371 -2.234778
v 3.637200 -2.917457 -2.234778
v 2.903720 -2.311932 -2.234777
v 2.712437 -2.154018 -2.234777
v 1.978957 -1.548493 -2.234777
v 1.787674 -1.390580 -2.234777
v 1.054194 -0.785055 -2.234777
v 0.862911 -0.627142 -2.234777
v 3.637201 -2.917455 2.234777
v 3.828485 -3.075369 2.234777
v 2.712439 -2.154017 2.234778
v 2.903722 -2.311930 2.234778
v 1.787676 -1.390579 2.234778
v 1.978959 -1.548493 2.234778
v 0.862913 -0.627141 2.234778
v 1.054196 -0.785054 2.234778
v 3.828485 -3.075369 2.421009
v 3.637201 -2.917455 2.421009
v 2.903722 -2.311930 2.421010
v 2.712439 -2.154017 2.421009
v 1.978959 -1.548493 2.421010
v 1.787676 -1.390579 2.421010
v 1.054196 -0.785054 2.421010
v 0.862913 -0.627140 2.421010
v 0.927692 -0.938291 2.234778
v 0.736409 -0.780377 2.234778
v 1.852454 -1.701729 2.234778
v 1.661172 -1.543815 2.234778
v 2.777217 -2.465167 2.234778
v 2.585934 -2.307254 2.234778
v 3.701980 -3.228605 2.234777
v 3.510697 -3.070692 2.234777
v 0.736409 -0.780377 2.421010
v 0.927692 -0.938291 2.421010
v 1.661172 -1.543815 2.421010
v 1.852454 -1.701729 2.421010
v 2.585934 -2.307254 2.421009
v 2.777217 -2.465167 2.421010
v 3.510697 -3.070692 2.421009
v 3.701980 -3.228606 2.421009
vn 0.7712 -0.6366 -0.0000
vn -0.1959 0.9806 -0.0000
vn -0.7712 0.6366 -0.0000
vn 0.6366 0.7712 -0.0000
vn 1.0000 -0.0067 -0.0000
vn -0.0000 -0.0000 1.0000
vn -0.0000 -0.0000 -1.0000
vn -0.6366 -0.7712 -0.0000
vt 0.709122 0.503097
vt 0.709122 0.505976
vt 0.708326 0.505976
vt 0.708326 0.503097
vt 0.701767 0.581118
vt 0.698978 0.581118
vt 0.698978 0.582089
vt 0.701767 0.582089
vt 0.710846 0.574821
vt 0.710846 0.577701
vt 0.711642 0.577701
vt 0.711642 0.574821
vt 0.723210 0.549398
vt 0.721350 0.549398
vt 0.721350 0.550167
vt 0.723210 0.550167
vt 0.701157 0.555740
vt 0.699691 0.555740
vt 0.699691 0.556363
vt 0.701157 0.556363
vt 0.698978 0.580160
vt 0.701767 0.580160
vt 0.721350 0.544713
vt 0.723210 0.544713
vt 0.723210 0.548639
vt 0.721350 0.548639
vt 0.701999 0.580160
vt 0.704788 0.580160
vt 0.704788 0.582089
vt 0.701999 0.582089
vt 0.709188 0.574821
vt 0.709188 0.577701
vt 0.709984 0.577701
vt 0.709984 0.574821
vt 0.710780 0.503097
vt 0.710780 0.505976
vt 0.709984 0.505976
vt 0.709984 0.503097
vt 0.708326 0.574821
vt 0.708326 0.577701
vt 0.709122 0.577701
vt 0.709122 0.574821
vt 0.693862 0.517281
vt 0.695124 0.517281
vt 0.695124 0.517783
vt 0.693862 0.517783
vt 0.696189 0.580160
vt 0.696189 0.582089
vt 0.701279 0.555126
vt 0.702745 0.555126
vt 0.702745 0.556363
vt 0.701279 0.556363
vt 0.717474 0.548639
vt 0.719334 0.548639
vt 0.719334 0.550167
vt 0.717474 0.550167
vt 0.709188 0.505976
vt 0.709188 0.503097
vt 0.711642 0.503097
vt 0.711642 0.505976
vt 0.710846 0.505976
vt 0.710846 0.503097
vt 0.691234 0.517281
vt 0.692495 0.517281
vt 0.692495 0.517783
vt 0.691234 0.517783
vt 0.693167 0.580160
vt 0.695956 0.580160
vt 0.695956 0.582089
vt 0.693167 0.582089
vt 0.715459 0.548639
vt 0.717319 0.548639
vt 0.717319 0.550167
vt 0.715459 0.550167
vt 0.689867 0.517281
vt 0.691129 0.517281
vt 0.691129 0.517783
vt 0.689867 0.517783
vt 0.710780 0.577701
vt 0.710780 0.574821
vt 0.701157 0.555126
vt 0.704210 0.555126
vt 0.704210 0.556363
vt 0.721195 0.548639
vt 0.721195 0.550167
vt 0.693757 0.517281
vt 0.693757 0.517783
vt 0.704332 0.555126
vt 0.704332 0.556363
vt 0.695956 0.575206
vt 0.696189 0.575206
vt 0.692495 0.517530
vt 0.691234 0.517530
vt 0.691234 0.515994
vt 0.692495 0.515994
vt 0.701767 0.575206
vt 0.701999 0.575206
vt 0.701279 0.555740
vt 0.704332 0.555740
vt 0.704210 0.555740
vt 0.701157 0.551949
vt 0.701279 0.551949
vt 0.704210 0.551949
vt 0.704332 0.551949
vt 0.717474 0.549398
vt 0.717319 0.549398
vt 0.721195 0.549398
vt 0.717319 0.544713
vt 0.717474 0.544713
vt 0.704788 0.581118
vt 0.701999 0.581118
vt 0.704788 0.575206
vt 0.721195 0.544713
vt 0.691129 0.517530
vt 0.705798 0.555740
vt 0.705798 0.556363
vt 0.693862 0.517530
vt 0.693757 0.517530
vt 0.691129 0.515994
vt 0.695956 0.581118
vt 0.693167 0.581118
vt 0.705798 0.551949
vt 0.705798 0.555126
vt 0.693167 0.575206
vt 0.693757 0.515994
vt 0.693862 0.515994
vt 0.699691 0.555126
vt 0.698978 0.575206
vt 0.699691 0.551949
vt 0.710780 0.518925
vt 0.710846 0.518925
vt 0.710846 0.515958
vt 0.710780 0.515958
vt 0.710780 0.533270
vt 0.710846 0.533270
vt 0.710846 0.530303
vt 0.710780 0.530303
vt 0.710780 0.547615
vt 0.710846 0.547615
vt 0.710846 0.544648
vt 0.710780 0.544648
vt 0.710780 0.561960
vt 0.710846 0.561960
vt 0.710846 0.558993
vt 0.710780 0.558993
vt 0.709984 0.518925
vt 0.709984 0.515958
vt 0.709984 0.533270
vt 0.709984 0.530303
vt 0.709984 0.547615
vt 0.709984 0.544648
vt 0.709984 0.561960
vt 0.709984 0.558993
vt 0.702745 0.555740
vt 0.695124 0.517530
vt 0.702745 0.551949
vt 0.715459 0.549398
vt 0.695124 0.515994
vt 0.715459 0.544713
vt 0.719334 0.549398
vt 0.696189 0.581118
vt 0.719334 0.544713
vt 0.689867 0.517530
vt 0.689867 0.515994
vt 0.709122 0.518925
vt 0.709188 0.518925
vt 0.709188 0.515958
vt 0.709122 0.515958
vt 0.709122 0.533270
vt 0.709188 0.533270
vt 0.709188 0.530303
vt 0.709122 0.530303
vt 0.709122 0.547615
vt 0.709188 0.547615
vt 0.709188 0.544648
vt 0.709122 0.544648
vt 0.709122 0.561960
vt 0.709188 0.561960
vt 0.709188 0.558993
vt 0.709122 0.558993
vt 0.708326 0.518925
vt 0.708326 0.515958
vt 0.708326 0.533270
vt 0.708326 0.530303
vt 0.708326 0.547615
vt 0.708326 0.544648
vt 0.708326 0.561960
vt 0.708326 0.558993
vt 0.711642 0.518925
vt 0.711642 0.515958
vt 0.711642 0.533270
vt 0.711642 0.530303
vt 0.711642 0.547615
vt 0.711642 0.544648
vt 0.711642 0.561960
vt 0.711642 0.558993
vt 0.711642 0.561872
vt 0.711642 0.564839
vt 0.711642 0.547527
vt 0.711642 0.550494
vt 0.711642 0.533182
vt 0.711642 0.536149
vt 0.711642 0.518837
vt 0.711642 0.521804
vt 0.708326 0.521804
vt 0.708326 0.518837
vt 0.708326 0.536149
vt 0.708326 0.533182
vt 0.708326 0.550494
vt 0.708326 0.547527
vt 0.708326 0.564839
vt 0.708326 0.561872
vt 0.682019 0.507654
vt 0.682019 0.502896
vt 0.687360 0.502896
vt 0.687360 0.507654
vt 0.679703 0.518771
vt 0.679703 0.515251
vt 0.684170 0.515251
vt 0.684170 0.518771
vt 0.681054 0.550778
vt 0.681054 0.542471
vt 0.684575 0.542471
vt 0.684575 0.550778
vt 0.689252 0.510389
vt 0.689252 0.506314
vt 0.694422 0.506314
vt 0.694422 0.510389
vt 0.679703 0.532542
vt 0.679703 0.528563
vt 0.684170 0.528563
vt 0.684170 0.532542
vt 0.701583 0.527124
vt 0.701583 0.522366
vt 0.706924 0.522366
vt 0.706924 0.527124
vt 0.694790 0.571894
vt 0.694790 0.563587
vt 0.698311 0.563587
vt 0.698311 0.571894
vt 0.694493 0.529771
vt 0.694493 0.526251
vt 0.698960 0.526251
vt 0.698960 0.529771
vt 0.699704 0.545094
vt 0.699704 0.536786
vt 0.703225 0.536786
vt 0.703225 0.545094
vt 0.701001 0.511024
vt 0.701001 0.506266
vt 0.706343 0.506266
vt 0.706343 0.511024
vt 0.689230 0.541005
vt 0.689230 0.531615
vt 0.692751 0.531615
vt 0.692751 0.541005
vt 0.684545 0.565491
vt 0.684545 0.557184
vt 0.688066 0.557184
vt 0.688066 0.565491
vt 0.697220 0.516154
vt 0.697220 0.511945
vt 0.702561 0.511945
vt 0.702561 0.516154
vt 0.691620 0.526018
vt 0.691620 0.521413
vt 0.696791 0.521413
vt 0.696791 0.526018
vt 0.684961 0.524940
vt 0.684961 0.520866
vt 0.690131 0.520866
vt 0.690131 0.524940
vt 0.688971 0.555035
vt 0.688971 0.546728
vt 0.692492 0.546728
vt 0.692492 0.555035
vt 0.688581 0.564192
vt 0.688581 0.559983
vt 0.693922 0.559983
vt 0.693922 0.564192
vt 0.695368 0.509857
vt 0.695368 0.505782
vt 0.700538 0.505782
vt 0.700538 0.509857
vt 0.687584 0.580436
vt 0.687584 0.571045
vt 0.691105 0.571045
vt 0.691105 0.580436
vt 0.691683 0.504350
vt 0.691683 0.499745
vt 0.696853 0.499745
vt 0.696853 0.504350
vt 0.693685 0.565866
vt 0.693685 0.550612
vt 0.695112 0.550612
vt 0.695112 0.565866
vt 0.667392 0.574916
vt 0.667392 0.561421
vt 0.668819 0.561421
vt 0.668819 0.574916
vt 0.695122 0.525006
vt 0.695122 0.511512
vt 0.696549 0.511512
vt 0.696549 0.525006
vt 0.708232 0.524776
vt 0.708232 0.511282
vt 0.709659 0.511282
vt 0.709659 0.524776
vt 0.688297 0.524828
vt 0.688297 0.509574
vt 0.689724 0.509574
vt 0.689724 0.524828
vt 0.684822 0.554042
vt 0.684822 0.538788
vt 0.686249 0.538788
vt 0.686249 0.554042
vt 0.698112 0.547900
vt 0.698112 0.534405
vt 0.699539 0.534405
vt 0.699539 0.547900
vt 0.679182 0.571237
vt 0.679182 0.557742
vt 0.680609 0.557742
vt 0.680609 0.571237
vt 0.686438 0.542513
vt 0.686438 0.529018
vt 0.687865 0.529018
vt 0.687865 0.542513
vt 0.705655 0.523843
vt 0.705655 0.508589
vt 0.707082 0.508589
vt 0.707082 0.523843
s 0
usemtl Winter_Pack_Texture
f 17/1/1 3/2/1 4/3/1 14/4/1
f 165/5/2 72/6/2 62/7/2 117/8/2
f 27/9/3 5/10/3 6/11/3 24/12/3
f 112/13/2 33/14/2 77/15/2 178/16/2
f 151/17/2 52/18/2 40/19/2 95/20/2
f 61/21/4 62/22/4 72/8/4 71/7/4
f 177/23/5 78/24/5 34/25/5 111/26/5
f 70/27/4 69/28/4 29/29/4 30/30/4
f 15/31/3 11/32/3 12/33/3 20/34/3
f 21/35/1 9/36/1 10/37/1 26/38/1
f 7/39/3 16/40/3 19/41/3 8/42/3
f 16/42/3 15/41/3 20/32/3 19/31/3
f 82/43/4 81/44/4 35/45/4 36/46/4
f 46/47/4 45/21/4 62/7/4 61/48/4
f 50/49/4 49/50/4 64/51/4 63/52/4
f 54/53/4 53/54/4 66/55/4 65/56/4
f 9/38/1 18/37/1 13/57/1 10/58/1
f 18/58/1 17/57/1 14/2/1 13/1/1
f 1/59/1 22/60/1 25/61/1 2/62/1
f 22/62/1 21/61/1 26/36/1 25/35/1
f 58/63/4 57/64/4 68/65/4 67/66/4
f 37/67/4 38/68/4 48/69/4 47/70/4
f 41/71/4 42/72/4 56/73/4 55/74/4
f 43/75/4 44/76/4 60/77/4 59/78/4
f 11/34/3 28/33/3 23/79/3 12/80/3
f 28/80/3 27/79/3 24/10/3 23/9/3
f 47/68/4 48/47/4 45/48/4 46/69/4
f 51/81/4 52/49/4 49/52/4 50/20/4
f 55/72/4 56/53/4 53/56/4 54/73/4
f 59/76/4 60/63/4 57/66/4 58/77/4
f 63/50/4 64/82/4 76/83/4 75/51/4
f 65/54/4 66/84/4 80/85/4 79/55/4
f 67/64/4 68/86/4 84/87/4 83/65/4
f 71/22/4 72/27/4 69/30/4 70/8/4
f 75/82/4 76/88/4 73/89/4 74/83/4
f 79/84/4 80/26/4 77/15/4 78/85/4
f 83/86/4 84/43/4 81/46/4 82/87/4
f 150/90/5 47/91/5 46/47/5 157/68/5
f 123/92/2 68/93/2 57/66/2 164/65/2
f 163/94/5 58/95/5 67/64/5 124/63/5
f 166/96/5 71/97/5 70/27/5 173/22/5
f 160/98/2 49/17/2 52/20/2 151/52/2
f 176/99/2 73/100/2 76/83/2 167/89/2
f 152/101/5 51/102/5 50/49/5 159/81/5
f 168/103/5 75/104/5 74/88/5 175/82/5
f 162/105/2 53/106/2 56/73/2 153/56/2
f 178/14/2 77/107/2 80/85/2 169/15/2
f 154/108/5 55/109/5 54/53/5 161/72/5
f 116/110/2 29/111/2 69/30/2 174/29/2
f 115/112/6 30/110/6 29/29/6 116/28/6
f 170/113/5 79/23/5 78/26/5 177/84/5
f 164/93/2 57/114/2 60/77/2 155/66/2
f 173/97/5 70/112/5 30/28/5 115/27/5
f 114/115/2 31/99/2 73/89/2 176/116/2
f 180/117/2 81/118/2 84/87/2 171/46/2
f 156/119/5 59/94/5 58/63/5 163/76/5
f 149/120/2 48/121/2 38/70/2 93/69/2
f 113/122/6 32/115/6 31/116/6 114/123/6
f 94/124/5 37/90/5 47/68/5 150/67/5
f 175/104/5 74/122/5 32/123/5 113/88/5
f 172/125/5 83/126/5 82/43/5 179/86/5
f 78/26/4 77/25/4 33/16/4 34/15/4
f 93/121/7 38/124/7 37/67/7 94/70/7
f 39/127/4 40/81/4 52/20/4 51/19/4
f 118/128/5 61/96/5 71/22/5 166/21/5
f 111/24/6 34/13/6 33/16/6 112/25/6
f 96/129/5 39/101/5 51/81/5 152/127/5
f 74/88/4 73/123/4 31/116/4 32/89/4
f 188/130/8 187/131/8 196/132/8 195/133/8
f 186/134/8 185/135/8 194/136/8 193/137/8
f 184/138/8 183/139/8 192/140/8 191/141/8
f 182/142/8 181/143/8 190/144/8 189/145/8
f 132/146/8 131/130/8 187/133/8 188/147/8
f 130/148/8 129/134/8 185/137/8 186/149/8
f 128/150/8 127/138/8 183/141/8 184/151/8
f 126/152/8 125/142/8 181/145/8 182/153/8
f 167/100/2 76/154/2 64/51/2 119/83/2
f 95/18/7 40/129/7 39/127/7 96/19/7
f 110/155/2 35/117/2 81/46/2 180/45/2
f 120/156/5 63/103/5 75/82/5 168/50/5
f 153/106/2 56/157/2 42/74/2 97/73/2
f 109/158/6 36/155/6 35/45/6 110/44/6
f 98/159/5 41/108/5 55/72/5 154/71/5
f 179/126/5 82/158/5 36/44/5 109/43/5
f 169/107/2 80/160/2 66/55/2 121/85/2
f 97/157/7 42/159/7 41/71/7 98/74/7
f 117/6/2 62/161/2 45/48/2 158/7/2
f 122/162/5 65/113/5 79/84/5 170/54/5
f 155/114/2 60/163/2 44/78/2 99/77/2
f 157/91/5 46/128/5 61/21/5 118/47/5
f 100/164/5 43/119/5 59/76/5 156/75/5
f 119/154/2 64/98/2 49/52/2 160/51/2
f 140/165/8 139/166/8 148/167/8 147/168/8
f 138/169/8 137/170/8 146/171/8 145/172/8
f 136/173/8 135/174/8 144/175/8 143/176/8
f 134/177/8 133/178/8 142/179/8 141/180/8
f 92/181/8 91/165/8 139/168/8 140/182/8
f 90/183/8 89/169/8 137/172/8 138/184/8
f 88/185/8 87/173/8 135/176/8 136/186/8
f 86/187/8 85/177/8 133/180/8 134/188/8
f 147/166/8 148/146/8 131/147/8 132/167/8
f 145/170/8 146/148/8 129/149/8 130/171/8
f 143/174/8 144/150/8 127/151/8 128/175/8
f 141/178/8 142/152/8 125/153/8 126/179/8
f 171/118/2 84/92/2 68/65/2 123/87/2
f 99/163/7 44/164/7 43/75/7 100/78/7
f 159/102/5 50/156/5 63/50/5 120/49/5
f 124/95/5 67/125/5 83/86/5 172/64/5
f 158/161/2 45/120/2 48/69/2 149/48/2
f 121/160/2 66/105/2 53/56/2 162/55/2
f 161/109/5 54/162/5 65/54/5 122/53/5
f 174/111/2 69/5/2 72/8/2 165/30/2
f 195/131/8 196/189/8 102/190/8 101/132/8
f 193/135/8 194/191/8 104/192/8 103/136/8
f 191/139/8 192/193/8 106/194/8 105/140/8
f 189/143/8 190/195/8 108/196/8 107/144/8
f 109/197/6 110/196/6 107/195/6 108/198/6
f 111/199/6 112/194/6 105/193/6 106/200/6
f 113/201/6 114/192/6 103/191/6 104/202/6
f 115/203/6 116/190/6 101/189/6 102/204/6
f 93/205/7 94/181/7 91/182/7 92/206/7
f 95/207/7 96/183/7 89/184/7 90/208/7
f 97/209/7 98/185/7 87/186/7 88/210/7
f 99/211/7 100/187/7 85/188/7 86/212/7
f 86/187/8 134/39/8 16/42/8 7/177/8
f 88/185/7 85/209/7 100/212/7 97/188/7
f 88/185/8 136/188/8 133/180/8 85/173/8
f 86/187/7 7/211/7 8/40/7 99/39/7
f 90/183/7 87/207/7 98/210/7 95/186/7
f 90/183/8 138/186/8 135/176/8 87/169/8
f 92/181/7 89/205/7 96/208/7 93/184/7
f 92/181/8 140/184/8 137/172/8 89/165/8
f 3/4/7 91/3/7 94/206/7 4/182/7
f 3/4/8 17/182/8 139/168/8 91/1/8
f 94/213/4 150/214/4 14/215/4 4/216/4
f 96/217/4 152/218/4 149/219/4 93/220/4
f 98/221/4 154/222/4 151/223/4 95/224/4
f 100/225/4 156/226/4 153/227/4 97/228/4
f 8/229/4 19/230/4 155/231/4 99/232/4
f 22/62/8 1/132/8 102/190/8 196/59/8
f 104/192/6 101/201/6 116/204/6 113/189/6
f 195/131/8 101/136/8 104/192/8 194/189/8
f 102/190/6 1/203/6 2/60/6 115/59/6
f 106/194/6 103/199/6 114/202/6 111/191/6
f 193/135/8 103/140/8 106/194/8 192/191/8
f 108/196/6 105/197/6 112/200/6 109/193/6
f 191/139/8 105/144/8 108/196/8 190/193/8
f 5/12/6 107/11/6 110/198/6 6/195/6
f 189/143/8 107/9/8 5/12/8 27/195/8
f 24/233/4 6/234/4 110/235/4 180/236/4
f 179/237/4 109/238/4 112/239/4 178/240/4
f 177/241/4 111/242/4 114/243/4 176/244/4
f 175/245/4 113/246/4 116/247/4 174/248/4
f 173/249/4 115/250/4 2/251/4 25/252/4
f 118/253/4 166/254/4 26/255/4 10/256/4
f 159/257/4 120/258/4 117/259/4 158/260/4
f 120/261/4 168/262/4 165/263/4 117/264/4
f 157/265/4 118/266/4 10/267/4 13/268/4
f 161/269/4 122/270/4 119/271/4 160/272/4
f 122/273/4 170/274/4 167/275/4 119/276/4
f 163/277/4 124/278/4 121/279/4 162/280/4
f 124/281/4 172/282/4 169/283/4 121/284/4
f 20/285/4 12/286/4 123/287/4 164/288/4
f 12/289/4 23/290/4 171/291/4 123/292/4
f 126/152/8 182/34/8 28/80/8 11/142/8
f 143/174/8 128/179/8 125/153/8 142/150/8
f 128/150/8 184/153/8 181/145/8 125/138/8
f 141/178/8 126/31/8 11/34/8 15/152/8
f 145/170/8 130/175/8 127/151/8 144/148/8
f 130/148/8 186/151/8 183/141/8 127/134/8
f 147/166/8 132/171/8 129/149/8 146/146/8
f 132/146/8 188/149/8 185/137/8 129/130/8
f 18/58/8 9/167/8 131/147/8 148/38/8
f 9/38/8 21/147/8 187/133/8 131/35/8
f 134/177/8 141/42/8 15/31/8 16/178/8
f 136/173/8 143/180/8 142/179/8 133/174/8
f 138/169/8 145/176/8 144/175/8 135/170/8
f 140/165/8 147/172/8 146/171/8 137/166/8
f 17/1/8 18/168/8 148/167/8 139/58/8
f 150/293/4 157/294/4 13/295/4 14/296/4
f 152/297/4 159/298/4 158/299/4 149/300/4
f 154/301/4 161/302/4 160/303/4 151/304/4
f 156/305/4 163/306/4 162/307/4 153/308/4
f 19/309/4 20/310/4 164/311/4 155/312/4
f 166/313/4 173/314/4 25/315/4 26/316/4
f 168/317/4 175/318/4 174/319/4 165/320/4
f 170/321/4 177/322/4 176/323/4 167/324/4
f 172/325/4 179/326/4 178/327/4 169/328/4
f 23/329/4 24/330/4 180/331/4 171/332/4
f 182/142/8 189/80/8 27/9/8 28/143/8
f 184/138/8 191/145/8 190/144/8 181/139/8
f 186/134/8 193/141/8 192/140/8 183/135/8
f 188/130/8 195/137/8 194/136/8 185/131/8
f 21/35/8 22/133/8 196/132/8 187/62/8
