# Blender 5.0.0
# www.blender.org
mtllib cabin_Door.mtl
o cabin_Door
v -0.511730 -1.072839 0.118764
v -0.511730 1.072839 0.118764
v 0.511734 -1.072839 0.118764
v 0.511734 1.072839 0.118763
v -0.341152 -1.072839 0.118764
v 0.000002 -1.072839 0.118764
v 0.341156 -1.072839 0.118764
v 0.341156 1.072839 0.118763
v 0.000002 1.072839 0.118764
v -0.341152 1.072839 0.118764
v -0.511730 -0.650161 0.118764
v -0.511730 -0.756356 0.118764
v -0.511730 0.756355 0.118764
v -0.511730 0.650160 0.118764
v 0.511734 0.650160 0.118763
v 0.511734 0.756355 0.118763
v 0.511734 -0.756356 0.118764
v 0.511734 -0.650161 0.118764
v 0.341156 0.650160 0.118764
v 0.341156 0.756355 0.118763
v 0.341156 -0.756356 0.118764
v 0.341156 -0.650161 0.118764
v 0.000002 0.650160 0.118764
v 0.000002 0.756355 0.118764
v 0.000002 -0.756356 0.118764
v 0.000002 -0.650161 0.118764
v -0.341152 0.756355 0.118764
v -0.341152 0.650160 0.118764
v -0.341152 -0.650161 0.118764
v -0.341152 -0.756356 0.118764
v 0.000002 -0.746559 0.153754
v -0.288977 0.659956 0.153754
v -0.462284 0.043300 0.153754
v -0.462284 -0.043301 0.153754
v -0.288977 0.746558 0.153754
v -0.433466 0.659956 0.153754
v -0.433466 0.746558 0.153754
v -0.288977 -0.746559 0.153754
v -0.433466 -0.746559 0.153755
v -0.433466 -0.659957 0.153755
v 0.433470 0.746558 0.153754
v -0.288977 -0.659957 0.153754
v 0.433470 0.659956 0.153754
v 0.433470 -0.659957 0.153754
v 0.433470 -0.746559 0.153754
v 0.288981 0.746558 0.153754
v 0.288981 0.659956 0.153754
v -0.511730 -0.053098 0.118764
v -0.511730 0.053097 0.118764
v 0.511734 0.053097 0.118764
v 0.511734 -0.053098 0.118764
v 0.341156 0.053097 0.118764
v 0.341156 -0.053098 0.118764
v 0.000002 0.053097 0.118764
v 0.000002 -0.053098 0.118764
v -0.341152 -0.053098 0.118764
v -0.341152 0.053097 0.118764
v 0.288981 -0.659957 0.153754
v 0.288981 -0.746559 0.153754
v 0.000002 0.746558 0.153754
v 0.000002 0.659956 0.153754
v 0.000002 -0.659957 0.153754
v 0.433470 0.043300 0.153754
v 0.433470 -0.043301 0.153754
v -0.288977 -0.043301 0.153754
v -0.288977 0.043300 0.153754
v 0.288981 0.043300 0.153754
v 0.288981 -0.043301 0.153754
v 0.000002 0.043300 0.153754
v 0.000002 -0.043301 0.153754
v -0.354790 0.004055 0.269532
v -0.281005 0.019331 0.222662
v -0.347138 0.078493 0.221836
v -0.423847 0.033885 0.222458
v -0.405120 -0.052847 0.223669
v -0.316840 -0.061841 0.223795
v -0.304460 0.058602 0.146620
v -0.392740 0.067595 0.146494
v -0.428575 -0.013576 0.147628
v -0.362442 -0.072738 0.148453
v -0.285733 -0.028130 0.147831
v -0.354790 0.001699 0.100757
v -0.702610 1.050265 0.277475
v 0.704787 1.050265 0.276953
v -0.702610 1.143369 0.249832
v 0.704787 1.142854 0.249462
v -0.702610 1.181934 0.183097
v 0.704787 1.181206 0.183096
v -0.702610 1.143369 0.116361
v 0.704787 1.142854 0.116729
v -0.702610 1.050265 0.088718
v 0.704787 1.050265 0.089239
v -0.702610 1.050265 0.307736
v -0.702610 1.173221 0.271230
v -0.702610 1.224151 0.183097
v -0.702610 1.173221 0.094963
v -0.702610 1.050265 0.058457
v 0.704787 1.050265 0.307735
v 0.704787 1.173221 0.271229
v 0.704787 1.224151 0.183096
v 0.704787 1.173221 0.094962
v 0.704787 1.050265 0.058456
v -0.478146 1.050772 0.088718
v -0.478146 -1.078685 0.089240
v -0.571250 1.050772 0.116361
v -0.570736 -1.078685 0.116730
v -0.609815 1.050772 0.183096
v -0.609088 -1.078685 0.183097
v -0.571250 1.050772 0.249832
v -0.570736 -1.078685 0.249464
v -0.478146 1.050772 0.277475
v -0.478146 -1.078685 0.276953
v -0.478146 1.050772 0.058457
v -0.601102 1.050772 0.094963
v -0.652032 1.050772 0.183096
v -0.601102 1.050772 0.271230
v -0.478146 1.050772 0.307736
v -0.478146 -1.078685 0.058457
v -0.601103 -1.078685 0.094964
v -0.652033 -1.078685 0.183097
v -0.601103 -1.078685 0.271230
v -0.478146 -1.078685 0.307736
v 0.482245 1.050772 0.277474
v 0.482246 -1.078685 0.276953
v 0.575349 1.050772 0.249831
v 0.574835 -1.078685 0.249463
v 0.613914 1.050772 0.183096
v 0.613187 -1.078685 0.183096
v 0.575349 1.050772 0.116360
v 0.574835 -1.078685 0.116729
v 0.482245 1.050772 0.088717
v 0.482246 -1.078685 0.089239
v 0.482245 1.050772 0.307735
v 0.605201 1.050772 0.271229
v 0.656131 1.050772 0.183096
v 0.605201 1.050772 0.094962
v 0.482245 1.050772 0.058456
v 0.482246 -1.078685 0.307735
v 0.605202 -1.078685 0.271229
v 0.656132 -1.078685 0.183096
v 0.605202 -1.078685 0.094963
v 0.482246 -1.078685 0.058457
vn -0.0000 -0.9630 0.2696
vn -0.0000 0.9630 0.2696
vn -0.4081 -0.0000 0.9129
vn -0.0000 -0.0000 1.0000
vn -0.5776 -0.0000 0.8163
vn 0.4081 -0.0000 0.9129
vn 0.4048 0.4635 0.7883
vn 0.5554 -0.2340 0.7980
vn -0.3052 0.5358 0.7873
vn -0.5934 -0.1170 0.7964
vn -0.0615 -0.5928 0.8030
vn 0.8986 -0.3940 0.1931
vn 0.6549 0.7346 0.1774
vn -0.4938 0.8516 0.1757
vn -0.9601 -0.2046 0.1905
vn -0.0996 -0.9745 0.2012
vn 0.9601 0.2046 -0.1905
vn 0.0996 0.9745 -0.2012
vn -0.8986 0.3940 -0.1931
vn -0.6549 -0.7346 -0.1774
vn 0.4938 -0.8516 -0.1757
vn 0.5934 0.1170 -0.7964
vn 0.0615 0.5928 -0.8030
vn -0.5554 0.2340 -0.7980
vn -0.4048 -0.4635 -0.7883
vn 0.3052 -0.5358 -0.7872
vn -0.0000 0.2846 0.9586
vn -0.0000 0.8658 0.5003
vn -0.0000 0.8658 -0.5003
vn -0.0000 0.2846 -0.9586
vn -1.0000 -0.0000 -0.0000
vn 1.0000 -0.0000 -0.0000
vn -0.0000 -1.0000 -0.0000
vn -0.2846 -0.0000 -0.9586
vn -0.8658 -0.0000 -0.5003
vn -0.8658 -0.0000 0.5003
vn -0.2846 -0.0000 0.9586
vn -0.0000 1.0000 -0.0000
vn 0.2846 -0.0000 0.9586
vn 0.8658 -0.0000 0.5003
vn 0.8658 -0.0000 -0.5003
vn 0.2846 -0.0000 -0.9586
vt 0.490410 0.632307
vt 0.495646 0.632307
vt 0.497248 0.633246
vt 0.492813 0.633246
vt 0.516759 0.659542
vt 0.506287 0.659542
vt 0.506287 0.658603
vt 0.515158 0.658603
vt 0.490410 0.642487
vt 0.492813 0.641548
vt 0.506287 0.678186
vt 0.506287 0.677247
vt 0.515158 0.677247
vt 0.516759 0.678186
vt 0.519593 0.677247
vt 0.515158 0.668945
vt 0.519593 0.668945
vt 0.495646 0.642487
vt 0.497248 0.641548
vt 0.519423 0.641548
vt 0.514988 0.641548
vt 0.514988 0.633246
vt 0.519423 0.633246
vt 0.506287 0.668006
vt 0.516759 0.668006
vt 0.506287 0.668945
vt 0.506118 0.632307
vt 0.506118 0.633246
vt 0.506118 0.641548
vt 0.506118 0.642487
vt 0.490580 0.659542
vt 0.490580 0.649362
vt 0.492098 0.650301
vt 0.492098 0.658603
vt 0.495816 0.649362
vt 0.497417 0.650301
vt 0.516589 0.642487
vt 0.495816 0.659542
vt 0.497417 0.658603
vt 0.490580 0.668006
vt 0.495816 0.668006
vt 0.497417 0.668945
vt 0.492982 0.668945
vt 0.490580 0.678186
vt 0.492982 0.677247
vt 0.516759 0.649362
vt 0.515158 0.650301
vt 0.506287 0.650301
vt 0.506287 0.649362
vt 0.521995 0.668006
vt 0.516589 0.632307
vt 0.495816 0.678186
vt 0.497417 0.677247
vt 0.521995 0.649362
vt 0.521995 0.659542
vt 0.519593 0.658603
vt 0.519593 0.650301
vt 0.521995 0.678186
vt 0.235140 0.843001
vt 0.235140 0.846826
vt 0.233078 0.846826
vt 0.233078 0.843001
vt 0.235140 0.848109
vt 0.235140 0.855325
vt 0.233078 0.855325
vt 0.233078 0.848109
vt 0.235140 0.865107
vt 0.235140 0.868932
vt 0.233078 0.868932
vt 0.233078 0.865107
vt 0.235140 0.856608
vt 0.235140 0.863824
vt 0.233078 0.863824
vt 0.233078 0.856608
vt 0.521825 0.632307
vt 0.245447 0.865107
vt 0.245447 0.868932
vt 0.243385 0.868932
vt 0.243385 0.865107
vt 0.245447 0.856608
vt 0.245447 0.863824
vt 0.243385 0.863824
vt 0.243385 0.856608
vt 0.245447 0.848109
vt 0.245447 0.855325
vt 0.243385 0.855325
vt 0.243385 0.848109
vt 0.245447 0.843001
vt 0.245447 0.846826
vt 0.243385 0.846826
vt 0.243385 0.843001
vt 0.239263 0.863824
vt 0.239263 0.856608
vt 0.239263 0.855325
vt 0.239263 0.848109
vt 0.239263 0.846826
vt 0.239263 0.843001
vt 0.239263 0.868932
vt 0.239263 0.865107
vt 0.521825 0.642487
vt 0.431002 0.661395
vt 0.433787 0.661971
vt 0.431290 0.664205
vt 0.432434 0.658907
vt 0.428394 0.662521
vt 0.429101 0.659246
vt 0.433609 0.660179
vt 0.432902 0.663454
vt 0.429569 0.663794
vt 0.428216 0.660729
vt 0.430713 0.658495
vt 0.431002 0.661306
vt 0.230772 0.868659
vt 0.247780 0.868659
vt 0.247780 0.870145
vt 0.230772 0.870145
vt 0.247780 0.870761
vt 0.230772 0.870761
vt 0.230772 0.869784
vt 0.230772 0.870250
vt 0.247780 0.869778
vt 0.247780 0.870241
vt 0.854774 0.573177
vt 0.856260 0.573177
vt 0.856043 0.573577
vt 0.855517 0.573742
vt 0.854992 0.573577
vt 0.856256 0.573177
vt 0.854778 0.573177
vt 0.854995 0.573575
vt 0.855517 0.573739
vt 0.856040 0.573575
vt 0.233484 0.868665
vt 0.233484 0.842931
vt 0.231998 0.842931
vt 0.231998 0.868665
vt 0.231383 0.842931
vt 0.231383 0.868665
vt 0.232359 0.868665
vt 0.231893 0.868665
vt 0.232359 0.868665
vt 0.232365 0.842931
vt 0.231902 0.842931
vt 0.854778 0.564033
vt 0.856256 0.564033
vt 0.856040 0.564033
vt 0.855517 0.564033
vt 0.854995 0.564033
vt 0.854774 0.573179
vt 0.856260 0.573179
vt 0.245091 0.868665
vt 0.245091 0.842931
vt 0.246576 0.842931
vt 0.246576 0.868665
vt 0.247192 0.842931
vt 0.247192 0.868665
vt 0.246216 0.868665
vt 0.246682 0.868665
vt 0.246209 0.842931
vt 0.246673 0.842931
vt 0.854995 0.564033
s 0
usemtl Winter_Pack_Texture
f 12/1/1 30/2/1 38/3/1 39/4/1
f 52/5/2 54/6/2 69/7/2 67/8/2
f 11/9/3 12/1/3 39/4/3 40/10/3
f 24/11/2 60/12/2 46/13/2 20/14/2
f 41/15/4 46/13/4 47/16/4 43/17/4
f 29/18/2 11/9/2 40/10/2 42/19/2
f 44/20/4 58/21/4 59/22/4 45/23/4
f 23/24/1 19/25/1 47/16/1 61/26/1
f 30/2/1 25/27/1 31/28/1 38/3/1
f 29/18/2 42/19/2 62/29/2 26/30/2
f 49/31/5 48/32/5 34/33/5 33/34/5
f 48/32/1 56/35/1 65/36/1 34/33/1
f 26/30/2 62/29/2 58/21/2 22/37/2
f 60/12/4 61/26/4 47/16/4 46/13/4
f 57/38/2 49/31/2 33/34/2 66/39/2
f 14/40/1 28/41/1 32/42/1 36/43/1
f 62/29/4 31/28/4 59/22/4 58/21/4
f 13/44/3 14/40/3 36/43/3 37/45/3
f 53/46/1 68/47/1 70/48/1 55/49/1
f 19/25/1 15/50/1 43/17/1 47/16/1
f 25/27/1 21/51/1 59/22/1 31/28/1
f 67/8/4 69/7/4 70/48/4 68/47/4
f 27/52/2 13/44/2 37/45/2 35/53/2
f 60/12/4 35/53/4 32/42/4 61/26/4
f 51/54/6 50/55/6 63/56/6 64/57/6
f 16/58/2 20/14/2 46/13/2 41/15/2
f 15/50/6 16/58/6 41/15/6 43/17/6
f 5/59/4 30/60/4 12/61/4 1/62/4
f 29/63/4 56/64/4 48/65/4 11/66/4
f 27/67/4 10/68/4 2/69/4 13/70/4
f 57/71/4 28/72/4 14/73/4 49/74/4
f 69/7/4 66/39/4 65/36/4 70/48/4
f 21/51/1 17/75/1 45/23/1 59/22/1
f 53/46/1 51/54/1 64/57/1 68/47/1
f 16/76/4 4/77/4 8/78/4 20/79/4
f 50/80/4 15/81/4 19/82/4 52/83/4
f 18/84/4 51/85/4 53/86/4 22/87/4
f 3/88/4 17/89/4 21/90/4 7/91/4
f 23/92/4 54/93/4 52/83/4 19/82/4
f 53/86/4 55/94/4 26/95/4 22/87/4
f 25/96/4 6/97/4 7/91/4 21/90/4
f 9/98/4 10/68/4 27/67/4 24/99/4
f 28/72/4 57/71/4 54/93/4 23/92/4
f 55/94/4 56/64/4 29/63/4 26/95/4
f 30/60/4 5/59/4 6/97/4 25/96/4
f 62/29/4 42/19/4 38/3/4 31/28/4
f 8/78/4 9/98/4 24/99/4 20/79/4
f 18/100/2 22/37/2 58/21/2 44/20/2
f 17/75/6 18/100/6 44/20/6 45/23/6
f 28/41/1 23/24/1 61/26/1 32/42/1
f 50/55/2 52/5/2 67/8/2 63/56/2
f 55/49/1 70/48/1 65/36/1 56/35/1
f 54/6/2 57/38/2 66/39/2 69/7/2
f 63/56/4 67/8/4 68/47/4 64/57/4
f 66/39/4 33/34/4 34/33/4 65/36/4
f 35/53/4 37/45/4 36/43/4 32/42/4
f 42/19/4 40/10/4 39/4/4 38/3/4
f 71/101/7 72/102/7 73/103/7
f 72/102/8 71/101/8 76/104/8
f 71/101/9 73/103/9 74/105/9
f 71/101/10 74/105/10 75/106/10
f 71/101/11 75/106/11 76/104/11
f 72/102/12 76/104/12 81/107/12
f 73/103/13 72/102/13 77/108/13
f 74/105/14 73/103/14 78/109/14
f 75/106/15 74/105/15 79/110/15
f 76/104/16 75/106/16 80/111/16
f 72/102/17 81/107/17 77/108/17
f 73/103/18 77/108/18 78/109/18
f 74/105/19 78/109/19 79/110/19
f 75/106/20 79/110/20 80/111/20
f 76/104/21 80/111/21 81/107/21
f 77/108/22 81/107/22 82/112/22
f 78/109/23 77/108/23 82/112/23
f 79/110/24 78/109/24 82/112/24
f 80/111/25 79/110/25 82/112/25
f 81/107/26 80/111/26 82/112/26
f 93/113/27 98/114/27 99/115/27 94/116/27
f 94/116/28 99/115/28 100/117/28 95/118/28
f 95/118/29 100/117/29 101/115/29 96/116/29
f 96/116/30 101/115/30 102/114/30 97/113/30
f 85/119/31 83/113/31 93/113/31 94/116/31
f 87/120/31 85/119/31 94/116/31 95/118/31
f 89/119/31 87/120/31 95/118/31 96/116/31
f 91/113/31 89/119/31 96/116/31 97/113/31
f 84/114/32 86/121/32 99/115/32 98/114/32
f 86/121/32 88/122/32 100/117/32 99/115/32
f 88/122/32 90/121/32 101/115/32 100/117/32
f 90/121/32 92/114/32 102/114/32 101/115/32
f 91/123/31 83/124/31 85/125/31 87/126/31 89/127/31
f 84/128/32 92/129/32 90/130/32 88/131/32 86/132/32
f 93/113/33 83/113/33 84/114/33 98/114/33
f 83/124/33 91/123/33 92/129/33 84/128/33
f 91/113/33 97/113/33 102/114/33 92/114/33
f 113/133/34 118/134/34 119/135/34 114/136/34
f 114/136/35 119/135/35 120/137/35 115/138/35
f 115/138/36 120/137/36 121/135/36 116/136/36
f 116/136/37 121/135/37 122/134/37 117/133/37
f 105/139/38 103/133/38 113/133/38 114/136/38
f 107/140/38 105/139/38 114/136/38 115/138/38
f 109/141/38 107/140/38 115/138/38 116/136/38
f 111/133/38 109/141/38 116/136/38 117/133/38
f 104/134/33 106/142/33 119/135/33 118/134/33
f 106/142/33 108/143/33 120/137/33 119/135/33
f 108/143/33 110/142/33 121/135/33 120/137/33
f 110/142/33 112/134/33 122/134/33 121/135/33
f 111/133/38 103/133/38 105/139/38 107/140/38 109/141/38
f 104/144/33 112/145/33 110/146/33 108/147/33 106/148/33
f 113/133/32 103/133/32 104/134/32 118/134/32
f 103/149/32 111/150/32 112/145/32 104/144/32
f 111/133/32 117/133/32 122/134/32 112/134/32
f 133/151/39 138/152/39 139/153/39 134/154/39
f 134/154/40 139/153/40 140/155/40 135/156/40
f 135/156/41 140/155/41 141/153/41 136/154/41
f 136/154/42 141/153/42 142/152/42 137/151/42
f 125/157/38 123/151/38 133/151/38 134/154/38
f 127/158/38 125/157/38 134/154/38 135/156/38
f 129/157/38 127/158/38 135/156/38 136/154/38
f 131/151/38 129/157/38 136/154/38 137/151/38
f 124/152/33 126/159/33 139/153/33 138/152/33
f 126/159/33 128/160/33 140/155/33 139/153/33
f 128/160/33 130/159/33 141/153/33 140/155/33
f 130/159/33 132/152/33 142/152/33 141/153/33
f 131/151/38 123/151/38 125/157/38 127/158/38 129/157/38
f 124/145/33 132/144/33 130/161/33 128/147/33 126/146/33
f 133/151/31 123/151/31 124/152/31 138/152/31
f 123/150/31 131/149/31 132/144/31 124/145/31
f 131/151/31 137/151/31 142/152/31 132/152/31
f 24/11/2 27/52/2 35/53/2 60/12/2
