# Blender 5.0.0
# www.blender.org
mtllib cabin_Wall_Half.mtl
o cabin_Wall_Half
v -4.455344 -0.334057 -0.085127
v 4.455345 -0.335191 -0.084661
v -4.455343 -0.454448 -0.205518
v 4.455345 -0.454917 -0.204387
v -4.455343 -0.624707 -0.205518
v 4.455345 -0.624234 -0.204387
v -4.455343 -0.745098 -0.085127
v 4.455345 -0.743960 -0.084661
v -4.455343 -0.745098 0.085132
v 4.455345 -0.743960 0.084656
v -4.455344 -0.624707 0.205523
v 4.455345 -0.624234 0.204382
v -4.455344 -0.454448 0.205523
v 4.455345 -0.454917 0.204382
v -4.455344 -0.334057 0.085131
v 4.455345 -0.335191 0.084656
v -4.455344 -0.268161 -0.112422
v -4.455343 -0.427153 -0.271414
v -4.455343 -0.652002 -0.271414
v -4.455343 -0.810994 -0.112422
v -4.455343 -0.810994 0.112427
v -4.455344 -0.652002 0.271419
v -4.455344 -0.427153 0.271419
v -4.455344 -0.268161 0.112426
v 4.455345 -0.427151 -0.271419
v 4.455345 -0.268159 -0.112427
v 4.455345 -0.652000 -0.271419
v 4.455345 -0.810992 -0.112427
v 4.455345 -0.810992 0.112422
v 4.455345 -0.652000 0.271414
v 4.455345 -0.427151 0.271414
v 4.455345 -0.268159 0.112422
v -4.455345 0.745096 -0.085127
v 4.455344 0.743961 -0.084661
v -4.455345 0.624705 -0.205518
v 4.455344 0.624236 -0.204386
v -4.455345 0.454446 -0.205518
v 4.455344 0.454918 -0.204386
v -4.455345 0.334055 -0.085127
v 4.455344 0.335193 -0.084661
v -4.455345 0.334055 0.085132
v 4.455344 0.335193 0.084657
v -4.455345 0.454446 0.205523
v 4.455344 0.454918 0.204382
v -4.455345 0.624705 0.205523
v 4.455344 0.624236 0.204382
v -4.455345 0.745096 0.085132
v 4.455344 0.743961 0.084657
v -4.455345 0.810992 -0.112422
v -4.455345 0.652000 -0.271414
v -4.455345 0.427151 -0.271414
v -4.455345 0.268159 -0.112422
v -4.455345 0.268159 0.112427
v -4.455345 0.427151 0.271419
v -4.455345 0.652000 0.271419
v -4.455345 0.810992 0.112427
v 4.455344 0.652001 -0.271419
v 4.455344 0.810994 -0.112427
v 4.455344 0.427153 -0.271419
v 4.455344 0.268160 -0.112426
v 4.455344 0.268160 0.112422
v 4.455344 0.427153 0.271415
v 4.455344 0.652002 0.271414
v 4.455344 0.810994 0.112422
v -4.455345 0.205520 -0.085127
v 4.455344 0.204385 -0.084661
v -4.455345 0.085129 -0.205518
v 4.455344 0.084660 -0.204387
v -4.455345 -0.085130 -0.205518
v 4.455344 -0.084658 -0.204387
v -4.455345 -0.205521 -0.085127
v 4.455344 -0.204383 -0.084661
v -4.455345 -0.205521 0.085132
v 4.455344 -0.204383 0.084656
v -4.455345 -0.085130 0.205523
v 4.455344 -0.084658 0.204382
v -4.455345 0.085129 0.205523
v 4.455344 0.084660 0.204382
v -4.455345 0.205520 0.085132
v 4.455344 0.204385 0.084656
v -4.455345 0.271416 -0.112422
v -4.455345 0.112424 -0.271414
v -4.455345 -0.112425 -0.271414
v -4.455345 -0.271417 -0.112422
v -4.455345 -0.271417 0.112427
v -4.455345 -0.112425 0.271419
v -4.455345 0.112424 0.271419
v -4.455345 0.271416 0.112427
v 4.455344 0.112425 -0.271419
v 4.455344 0.271418 -0.112427
v 4.455344 -0.112424 -0.271419
v 4.455344 -0.271416 -0.112427
v 4.455344 -0.271416 0.112422
v 4.455344 -0.112423 0.271414
v 4.455344 0.112426 0.271414
v 4.455344 0.271418 0.112422
vn -0.0000 0.7071 -0.7071
vn -0.0000 -0.0000 -1.0000
vn -0.0000 -0.7071 -0.7071
vn -0.0000 -1.0000 -0.0000
vn -0.0000 -0.7071 0.7071
vn -0.0000 -0.0000 1.0000
vn -0.0000 0.7071 0.7071
vn -0.0000 1.0000 -0.0000
vn -1.0000 -0.0000 -0.0000
vn 1.0000 -0.0000 -0.0000
vt 0.226018 0.867157
vt 0.247249 0.867157
vt 0.247249 0.866342
vt 0.226018 0.866342
vt 0.247249 0.865191
vt 0.226018 0.865191
vt 0.247249 0.864377
vt 0.226018 0.864377
vt 0.226018 0.866203
vt 0.226018 0.866819
vt 0.226018 0.865331
vt 0.226018 0.864714
vt 0.247249 0.866813
vt 0.247249 0.866200
vt 0.247249 0.865333
vt 0.247249 0.864720
vt 0.856384 0.568532
vt 0.856384 0.567378
vt 0.855568 0.566562
vt 0.854415 0.566562
vt 0.853599 0.567378
vt 0.853599 0.568532
vt 0.854415 0.569347
vt 0.855568 0.569347
vt 0.853592 0.567375
vt 0.854412 0.566555
vt 0.855572 0.566555
vt 0.856392 0.567375
vt 0.856392 0.568535
vt 0.855572 0.569355
vt 0.854412 0.569355
vt 0.853592 0.568535
vt 0.226018 0.872683
vt 0.247249 0.872683
vt 0.247249 0.871869
vt 0.226018 0.871869
vt 0.247249 0.870717
vt 0.226018 0.870717
vt 0.247249 0.869903
vt 0.226018 0.869903
vt 0.856384 0.564856
vt 0.856384 0.563702
vt 0.855568 0.562887
vt 0.854415 0.562887
vt 0.853599 0.563702
vt 0.853599 0.564856
vt 0.854415 0.565671
vt 0.855568 0.565671
vt 0.853592 0.563699
vt 0.854412 0.562879
vt 0.855572 0.562879
vt 0.856392 0.563699
vt 0.856392 0.564859
vt 0.855572 0.565679
vt 0.854412 0.565679
vt 0.853592 0.564859
vt 0.226018 0.871729
vt 0.226018 0.872345
vt 0.226018 0.870857
vt 0.226018 0.870241
vt 0.247249 0.872340
vt 0.247249 0.871727
vt 0.247249 0.870860
vt 0.247249 0.870246
vt 0.226018 0.869920
vt 0.247249 0.869920
vt 0.247249 0.869106
vt 0.226018 0.869106
vt 0.247249 0.867954
vt 0.226018 0.867954
vt 0.247249 0.867140
vt 0.226018 0.867140
vt 0.853592 0.560023
vt 0.854412 0.559203
vt 0.855572 0.559203
vt 0.856392 0.560023
vt 0.856392 0.561183
vt 0.855572 0.562003
vt 0.854412 0.562003
vt 0.853592 0.561183
vt 0.226018 0.868966
vt 0.226018 0.869582
vt 0.226018 0.868094
vt 0.226018 0.867477
vt 0.247249 0.869577
vt 0.247249 0.868963
vt 0.247249 0.868096
vt 0.247249 0.867483
vt 0.856384 0.561180
vt 0.856384 0.560026
vt 0.855568 0.559211
vt 0.854415 0.559211
vt 0.853599 0.560026
vt 0.853599 0.561180
vt 0.854415 0.561995
vt 0.855568 0.561995
s 0
usemtl Winter_Pack_Texture
f 17/1/1 26/2/1 25/3/1 18/4/1
f 18/4/2 25/3/2 27/5/2 19/6/2
f 19/6/3 27/5/3 28/7/3 20/8/3
f 20/8/4 28/7/4 29/7/4 21/8/4
f 21/8/5 29/7/5 30/5/5 22/6/5
f 22/6/6 30/5/6 31/3/6 23/4/6
f 23/4/7 31/3/7 32/2/7 24/1/7
f 24/1/8 32/2/8 26/2/8 17/1/8
f 3/9/9 1/10/9 17/1/9 18/4/9
f 5/11/9 3/9/9 18/4/9 19/6/9
f 7/12/9 5/11/9 19/6/9 20/8/9
f 9/12/9 7/12/9 20/8/9 21/8/9
f 11/11/9 9/12/9 21/8/9 22/6/9
f 13/9/9 11/11/9 22/6/9 23/4/9
f 15/10/9 13/9/9 23/4/9 24/1/9
f 1/10/9 15/10/9 24/1/9 17/1/9
f 2/13/10 4/14/10 25/3/10 26/2/10
f 4/14/10 6/15/10 27/5/10 25/3/10
f 6/15/10 8/16/10 28/7/10 27/5/10
f 8/16/10 10/16/10 29/7/10 28/7/10
f 10/16/10 12/15/10 30/5/10 29/7/10
f 12/15/10 14/14/10 31/3/10 30/5/10
f 14/14/10 16/13/10 32/2/10 31/3/10
f 16/13/10 2/13/10 26/2/10 32/2/10
f 46/17/10 44/18/10 42/19/10 40/20/10 38/21/10 36/22/10 34/23/10 48/24/10
f 37/25/9 39/26/9 41/27/9 43/28/9 45/29/9 47/30/9 33/31/9 35/32/9
f 49/33/1 58/34/1 57/35/1 50/36/1
f 50/36/2 57/35/2 59/37/2 51/38/2
f 51/38/3 59/37/3 60/39/3 52/40/3
f 52/40/4 60/39/4 61/39/4 53/40/4
f 53/40/5 61/39/5 62/37/5 54/38/5
f 54/38/6 62/37/6 63/35/6 55/36/6
f 78/41/10 76/42/10 74/43/10 72/44/10 70/45/10 68/46/10 66/47/10 80/48/10
f 55/36/7 63/35/7 64/34/7 56/33/7
f 56/33/8 64/34/8 58/34/8 49/33/8
f 69/49/9 71/50/9 73/51/9 75/52/9 77/53/9 79/54/9 65/55/9 67/56/9
f 35/57/9 33/58/9 49/33/9 50/36/9
f 37/59/9 35/57/9 50/36/9 51/38/9
f 39/60/9 37/59/9 51/38/9 52/40/9
f 41/60/9 39/60/9 52/40/9 53/40/9
f 43/59/9 41/60/9 53/40/9 54/38/9
f 45/57/9 43/59/9 54/38/9 55/36/9
f 47/58/9 45/57/9 55/36/9 56/33/9
f 33/58/9 47/58/9 56/33/9 49/33/9
f 34/61/10 36/62/10 57/35/10 58/34/10
f 36/62/10 38/63/10 59/37/10 57/35/10
f 38/63/10 40/64/10 60/39/10 59/37/10
f 40/64/10 42/64/10 61/39/10 60/39/10
f 42/64/10 44/63/10 62/37/10 61/39/10
f 44/63/10 46/62/10 63/35/10 62/37/10
f 46/62/10 48/61/10 64/34/10 63/35/10
f 48/61/10 34/61/10 58/34/10 64/34/10
f 81/65/1 90/66/1 89/67/1 82/68/1
f 82/68/2 89/67/2 91/69/2 83/70/2
f 83/70/3 91/69/3 92/71/3 84/72/3
f 84/72/4 92/71/4 93/71/4 85/72/4
f 85/72/5 93/71/5 94/69/5 86/70/5
f 86/70/6 94/69/6 95/67/6 87/68/6
f 87/68/7 95/67/7 96/66/7 88/65/7
f 88/65/8 96/66/8 90/66/8 81/65/8
f 5/73/9 7/74/9 9/75/9 11/76/9 13/77/9 15/78/9 1/79/9 3/80/9
f 67/81/9 65/82/9 81/65/9 82/68/9
f 69/83/9 67/81/9 82/68/9 83/70/9
f 71/84/9 69/83/9 83/70/9 84/72/9
f 73/84/9 71/84/9 84/72/9 85/72/9
f 75/83/9 73/84/9 85/72/9 86/70/9
f 77/81/9 75/83/9 86/70/9 87/68/9
f 79/82/9 77/81/9 87/68/9 88/65/9
f 65/82/9 79/82/9 88/65/9 81/65/9
f 66/85/10 68/86/10 89/67/10 90/66/10
f 68/86/10 70/87/10 91/69/10 89/67/10
f 70/87/10 72/88/10 92/71/10 91/69/10
f 72/88/10 74/88/10 93/71/10 92/71/10
f 74/88/10 76/87/10 94/69/10 93/71/10
f 76/87/10 78/86/10 95/67/10 94/69/10
f 78/86/10 80/85/10 96/66/10 95/67/10
f 80/85/10 66/85/10 90/66/10 96/66/10
f 14/89/10 12/90/10 10/91/10 8/92/10 6/93/10 4/94/10 2/95/10 16/96/10
