# Blender 5.0.0
# www.blender.org
mtllib CampFire.mtl
o CampFire
v 0.139504 -0.023320 -0.268991
v -0.326403 -0.023320 0.042018
v 0.154203 0.040683 -0.246928
v -0.311785 0.040329 0.063959
v 0.189690 0.067194 -0.193663
v -0.276494 0.066694 0.116929
v 0.225178 0.040683 -0.140398
v -0.241203 0.040329 0.169899
v 0.239877 -0.023320 -0.118335
v -0.226585 -0.023320 0.191840
v 0.123412 -0.023320 -0.293143
v 0.142825 0.061205 -0.264006
v 0.189690 0.096216 -0.193663
v 0.236556 0.061205 -0.123320
v 0.255968 -0.023320 -0.094183
v -0.342771 -0.023320 0.017449
v -0.323359 0.061205 0.046586
v -0.276494 0.096216 0.116929
v -0.229628 0.061205 0.187272
v -0.210216 -0.023320 0.216409
v 0.320588 -0.022556 0.075882
v -0.145422 0.083966 -0.216150
v 0.316797 0.040280 0.104806
v -0.149192 0.146454 -0.187386
v 0.287030 0.066307 0.161690
v -0.178794 0.172337 -0.130816
v 0.248725 0.040280 0.213213
v -0.216888 0.146454 -0.079579
v 0.224319 -0.022556 0.229192
v -0.241158 0.083965 -0.063688
v 0.336021 -0.022556 0.051304
v 0.331015 0.060427 0.089502
v 0.291704 0.094800 0.164625
v 0.241117 0.060427 0.232667
v 0.208886 -0.022556 0.253770
v -0.129723 0.083966 -0.241152
v -0.134729 0.166948 -0.202954
v -0.174040 0.201321 -0.127831
v -0.224627 0.166948 -0.059789
v -0.256858 0.083965 -0.038686
v 0.012926 -0.052605 0.070945
v 0.180879 -0.029345 0.077437
v -0.036698 0.020020 0.234915
v -0.191664 -0.014901 0.069378
v -0.105055 0.001494 -0.155434
v 0.206884 0.008517 -0.030192
v 0.181690 0.107514 0.114103
v -0.131803 0.194493 0.119115
v -0.141677 0.099252 -0.144687
v 0.241491 0.050570 -0.002433
v -0.001833 0.305629 0.052422
v -0.025518 0.425394 -0.004060
v 0.003946 0.417601 0.129276
v 0.232061 0.201118 -0.003276
v 0.224385 0.164920 -0.045910
v 0.100373 0.458403 -0.002788
v 0.068314 0.085903 -0.164373
v 0.179150 0.120515 -0.143449
v -0.233095 0.056808 0.064626
v 0.040577 0.458584 -0.117097
v -0.128350 0.434467 0.046363
v -0.166851 -0.030220 0.617835
v -0.102590 0.107297 0.578565
v -0.190852 -0.031235 0.295939
v 0.267849 -0.029794 0.567066
v 0.216394 0.097645 0.481034
v 0.223276 -0.029727 0.285275
v 0.164726 0.113801 0.352776
v -0.273929 -0.029994 0.439738
v -0.138602 0.059736 0.584764
v -0.162243 0.120411 0.424769
v -0.172060 0.028376 0.288873
v -0.033904 -0.029535 0.214894
v 0.018706 0.100504 0.318409
v 0.185656 0.042092 0.281562
v 0.315034 -0.030435 0.422451
v 0.238823 0.046342 0.570818
v 0.053106 -0.029061 0.669517
v 0.044727 0.092779 0.616324
v -0.242529 0.044039 0.440295
v -0.001800 0.024435 0.235149
v 0.281388 0.050472 0.413549
v 0.066620 0.142453 0.416509
v 0.146780 0.132303 0.417336
v 0.066812 0.039695 0.643668
v -0.560804 -0.021140 -0.185414
v -0.542184 0.073847 -0.192045
v -0.391965 -0.016565 -0.382380
v -0.435093 -0.021720 0.013454
v -0.354780 0.081229 -0.125515
v -0.214499 -0.019580 -0.179212
v -0.261890 0.065004 -0.192377
v -0.518457 -0.019989 -0.355143
v -0.559965 0.040766 -0.188213
v -0.488254 0.086116 -0.297381
v -0.367436 0.019377 -0.364709
v -0.292946 -0.019587 -0.317783
v -0.293012 0.050421 -0.291327
v -0.235549 0.025863 -0.196329
v -0.316015 -0.021388 -0.043901
v -0.448369 0.029096 -0.021753
v -0.556918 -0.020983 -0.072031
v -0.556080 0.091339 -0.104388
v -0.527388 0.027934 -0.331063
v -0.265352 0.014206 -0.309401
v -0.324876 0.031613 -0.084395
v -0.354051 0.122692 -0.232839
v -0.321344 0.128931 -0.215060
v -0.556478 0.037792 -0.069987
v 0.173135 -0.025994 -0.230545
v 0.231268 0.107765 -0.244352
v 0.316093 -0.017921 -0.423662
v 0.428057 -0.024986 -0.027504
v 0.455255 0.121507 -0.168074
v 0.571910 -0.021966 -0.234316
v 0.519825 0.097439 -0.244272
v 0.189504 -0.021627 -0.362093
v 0.197242 0.061051 -0.237963
v 0.296432 0.130241 -0.307492
v 0.348007 0.033012 -0.409645
v 0.440163 -0.021977 -0.367622
v 0.454227 0.079698 -0.332922
v 0.544366 0.042164 -0.250043
v 0.523863 -0.024518 -0.092547
v 0.401185 0.046727 -0.061807
v 0.271186 -0.022874 -0.105519
v 0.314856 0.124406 -0.179185
v 0.197432 0.045529 -0.354982
v 0.470798 0.025714 -0.361046
v 0.499314 0.050280 -0.132419
v 0.411105 0.140182 -0.217672
v 0.274951 0.058103 -0.107325
v -0.517690 -0.028407 0.199325
v -0.495762 0.122773 0.197836
v -0.389471 -0.029313 0.078517
v -0.339136 -0.028027 0.374321
v -0.300743 0.112041 0.332009
v -0.235399 -0.027966 0.258137
v -0.230828 0.115611 0.249554
v -0.480620 -0.028205 0.090975
v -0.514336 0.070313 0.198030
v -0.448922 0.139033 0.113869
v -0.383412 0.038074 0.064406
v -0.298335 -0.027795 0.120231
v -0.296743 0.094594 0.135622
v -0.216724 0.051949 0.244508
v -0.260600 -0.028599 0.345699
v -0.350644 0.056543 0.384788
v -0.460244 -0.027372 0.314357
v -0.449530 0.106630 0.295087
v -0.486816 0.054176 0.088171
v -0.276418 0.032316 0.121457
v -0.255974 0.060789 0.344505
v -0.341672 0.163541 0.236434
v -0.306077 0.152255 0.280948
v -0.457793 0.049710 0.325872
v -0.183071 -0.028078 -0.267798
v -0.152023 0.115536 -0.319155
v -0.204186 -0.021255 -0.532605
v 0.072409 -0.028942 -0.263770
v 0.013187 0.125101 -0.408181
v 0.056734 -0.025751 -0.547058
v 0.000918 0.158531 -0.530507
v -0.258770 -0.026361 -0.419772
v -0.156043 0.064251 -0.288673
v -0.196656 0.131869 -0.408415
v -0.176490 0.032984 -0.540717
v -0.095843 -0.025763 -0.569729
v -0.108024 0.125680 -0.557935
v 0.015244 0.053428 -0.548033
v 0.099572 -0.028448 -0.388891
v 0.037609 0.046837 -0.274613
v -0.061333 -0.028007 -0.212073
v -0.085909 0.145439 -0.338091
v -0.245702 0.045104 -0.398600
v -0.081611 0.037878 -0.583926
v 0.063366 0.050591 -0.406256
v -0.122667 0.163088 -0.445061
v -0.036082 0.174144 -0.490986
v -0.043451 0.057715 -0.237085
v 0.324274 -0.024524 0.050834
v 0.369569 0.127395 0.087239
v 0.557894 -0.015355 0.045376
v 0.320473 -0.023379 0.367775
v 0.444658 0.143003 0.304774
v 0.565145 -0.019949 0.354831
v 0.541708 0.115668 0.308889
v 0.435068 -0.019564 -0.015099
v 0.344357 0.074339 0.064920
v 0.456947 0.152923 0.099603
v 0.566175 0.042493 0.078249
v 0.588899 -0.019961 0.174100
v 0.570643 0.095518 0.205609
v 0.560786 0.052888 0.324293
v 0.427599 -0.022847 0.402535
v 0.330781 0.058070 0.326667
v 0.286771 -0.020981 0.200745
v 0.369405 0.146296 0.190321
v 0.434338 0.056709 -0.004767
v 0.602130 0.034204 0.201552
v 0.443569 0.062106 0.359888
v 0.456401 0.164214 0.241270
v 0.290405 0.070991 0.202559
vn -0.5123 0.3827 -0.7689
vn -0.2122 0.9239 -0.3185
vn 0.2122 0.9239 0.3185
vn 0.5123 0.3827 0.7689
vn 0.8322 -0.0000 -0.5545
vn -0.8322 -0.0000 0.5545
vn -0.0000 -1.0000 -0.0000
vn 0.5529 0.3757 -0.7437
vn 0.3523 0.9070 -0.2307
vn -0.0547 0.9070 0.4175
vn -0.4297 0.3757 0.8211
vn 0.8314 -0.1902 0.5221
vn -0.8314 0.1902 -0.5221
vn -0.1610 -0.9818 -0.1011
vn 0.1076 -0.8966 0.4297
vn 0.1422 -0.9440 -0.2977
vn -0.1721 -0.9189 0.3549
vn -0.1784 -0.9740 -0.1398
vn 0.1414 -0.9437 -0.2992
vn 0.7815 -0.6231 -0.0304
vn 0.5384 -0.2211 0.8132
vn -0.7343 0.0491 0.6770
vn -0.8852 -0.2918 -0.3623
vn 0.9210 -0.1396 -0.3636
vn 0.8513 -0.1405 0.5055
vn -0.0029 0.0472 -0.9989
vn 0.3036 -0.6554 -0.6916
vn 0.7224 -0.1487 -0.6753
vn 0.8995 0.0588 0.4329
vn 0.1252 0.3988 0.9085
vn 0.0839 0.6579 -0.7484
vn 0.9724 0.0596 -0.2257
vn 0.8498 -0.0778 -0.5214
vn 0.0841 0.4386 0.8947
vn -0.9230 0.3717 -0.0996
vn -0.4217 -0.0451 -0.9056
vn 0.7804 0.4003 -0.4804
vn -0.6785 0.2220 0.7002
vn 0.4142 0.1939 0.8893
vn -0.5044 0.2695 0.8203
vn 0.0297 0.3221 0.9462
vn 0.7144 0.3645 0.5973
vn -0.3291 -0.1281 0.9356
vn -0.7685 -0.4726 -0.4315
vn -0.0883 0.0761 -0.9932
vn -0.2706 0.0635 0.9606
vn 0.7742 0.3580 -0.5220
vn 0.1429 0.1350 -0.9805
vn -0.9074 0.2348 -0.3487
vn 0.9993 -0.0232 -0.0290
vn -0.0852 0.1191 -0.9892
vn -0.7817 0.3821 0.4930
vn -0.6512 0.6727 0.3513
vn -0.8410 0.2938 -0.4543
vn -0.3654 0.2673 -0.8916
vn 0.0998 0.7191 -0.6877
vn 0.2466 0.1370 -0.9594
vn 0.7743 0.3160 -0.5483
vn 0.5144 0.8517 -0.0999
vn 0.8914 0.3646 0.2692
vn -0.0336 0.9834 0.1782
vn 0.5156 0.8509 -0.1005
vn 0.0422 0.9340 -0.3549
vn 0.7073 0.6753 0.2092
vn 0.5979 0.6459 -0.4747
vn 0.1658 0.9476 0.2732
vn -0.2250 0.8142 -0.5352
vn -0.1023 0.9317 -0.3484
vn -0.6751 0.6325 -0.3796
vn -0.1840 0.7478 -0.6379
vn 0.3148 0.7649 0.5620
vn -0.2182 0.3356 0.9164
vn -0.2155 0.3894 0.8955
vn 0.4039 0.1795 0.8970
vn -0.9723 -0.0267 -0.2321
vn -0.7744 0.5716 -0.2712
vn -0.1761 0.4647 -0.8678
vn 0.5094 -0.0600 -0.8584
vn 0.7368 0.6120 -0.2875
vn 0.9141 -0.1182 -0.3878
vn 0.6839 0.5120 0.5197
vn 0.4877 0.7123 0.5047
vn 0.3492 0.5996 0.7201
vn -0.2741 0.9539 -0.1222
vn 0.5087 0.6665 0.5450
vn 0.6074 0.6554 -0.4490
vn 0.3069 0.7101 0.6336
vn 0.7173 0.4271 0.5505
vn 0.0206 0.9326 0.3604
vn 0.1688 0.8346 -0.5243
vn 0.1489 0.6950 -0.7034
vn -0.1407 0.5652 -0.8128
vn 0.3933 0.6331 -0.6667
vn -0.0047 0.7958 0.6055
vn -0.9820 0.1786 -0.0622
vn -0.9994 0.0108 0.0319
vn -0.4864 0.2004 0.8505
vn -0.9764 0.2027 -0.0741
vn -0.6538 0.7272 -0.2091
vn -0.3635 0.2815 -0.8881
vn 0.3876 -0.0537 -0.9203
vn 0.7004 0.4383 -0.5633
vn 0.7659 -0.0734 -0.6387
vn 0.8496 0.4368 0.2956
vn 0.6856 0.6173 0.3860
vn 0.4807 0.5245 0.7027
vn -0.1872 0.9797 0.0714
vn 0.3701 0.9288 0.0203
vn 0.2599 0.8917 -0.3707
vn 0.4498 0.6065 0.6556
vn 0.8799 0.3581 0.3123
vn -0.0092 0.9331 0.3595
vn 0.1365 0.7511 -0.6460
vn 0.2245 0.8949 -0.3857
vn -0.2098 0.6531 -0.7276
vn 0.3418 0.5146 -0.7864
vn -0.0827 0.8020 0.5916
vn -0.5857 0.6841 0.4347
vn -0.8127 0.1655 0.5586
vn -0.3888 0.1559 0.9080
vn -0.9591 -0.0214 -0.2823
vn -0.8514 0.4107 -0.3264
vn -0.1913 -0.1103 -0.9753
vn 0.4353 -0.1846 -0.8812
vn 0.8211 0.2987 -0.4864
vn 0.8748 -0.2881 -0.3896
vn 0.9396 -0.1007 0.3273
vn 0.5780 0.6310 0.5174
vn 0.3701 -0.0348 0.9284
vn -0.2911 0.9419 0.1674
vn 0.5381 0.6886 0.4861
vn 0.4079 0.8573 -0.3140
vn 0.3247 0.4820 0.8138
vn 0.9214 0.1767 0.3460
vn -0.2087 0.8208 0.5317
vn 0.2754 0.5611 -0.7806
vn 0.3091 0.8436 -0.4392
vn -0.1577 0.3501 -0.9234
vn 0.4571 0.3364 -0.8233
vn -0.2901 0.6631 0.6901
vn -0.8376 0.3290 0.4361
vn -0.9051 0.0052 0.4252
vn -0.4539 -0.1450 0.8792
vn -0.8340 0.2032 0.5130
vn -0.7498 0.4340 0.4994
vn -0.8491 0.3191 -0.4211
vn -0.3672 -0.0452 -0.9291
vn 0.2277 0.2598 -0.9385
vn 0.2317 -0.0589 -0.9710
vn 0.8785 0.4014 -0.2590
vn 0.8266 0.5585 0.0697
vn 0.8792 0.4376 0.1884
vn -0.2891 0.9159 0.2785
vn 0.5338 0.8278 0.1727
vn -0.2367 0.8899 -0.3898
vn 0.8145 0.5531 0.1751
vn 0.9327 0.1793 -0.3130
vn 0.1254 0.8845 0.4493
vn -0.7513 0.4686 -0.4647
vn -0.5011 0.8000 -0.3301
vn -0.8068 0.4077 -0.4277
vn -0.4163 0.1407 -0.8983
vn 0.4057 0.7967 0.4481
vn -0.2183 0.6381 0.7384
vn -0.3871 0.3205 0.8646
vn 0.3837 0.2383 0.8922
vn 0.2500 0.9655 0.0734
vn -0.5436 0.1745 -0.8210
vn -0.2547 0.6719 -0.6955
vn 0.4833 0.2436 -0.8408
vn 0.9649 -0.0460 -0.2587
vn 0.8979 0.3853 0.2130
vn 0.9750 -0.0629 0.2130
vn 0.2955 0.3840 0.8748
vn 0.1223 0.5577 0.8210
vn -0.2701 0.4666 0.8422
vn -0.1986 0.9726 -0.1206
vn 0.2406 0.9064 0.3472
vn 0.5094 0.8602 -0.0251
vn -0.2545 0.5468 0.7976
vn 0.2984 0.3120 0.9020
vn -0.3304 0.9119 0.2435
vn 0.6442 0.6978 -0.3131
vn 0.4987 0.8642 -0.0670
vn 0.4735 0.5941 -0.6503
vn 0.8616 0.4571 -0.2205
vn -0.5690 0.7545 0.3271
vn -0.7511 0.6262 -0.2093
vn -0.9432 0.1422 -0.3001
vn -0.9587 0.1339 0.2510
vt 0.265129 0.865366
vt 0.215339 0.865366
vt 0.215339 0.859035
vt 0.265129 0.859035
vt 0.215339 0.843750
vt 0.265129 0.843750
vt 0.215339 0.828465
vt 0.265129 0.828465
vt 0.215339 0.822134
vt 0.265129 0.822134
vt 0.265129 0.855324
vt 0.265129 0.860118
vt 0.265129 0.832176
vt 0.265129 0.827382
vt 0.215339 0.860028
vt 0.215339 0.855260
vt 0.215339 0.832240
vt 0.215339 0.827472
vt 0.487731 0.550676
vt 0.512269 0.550676
vt 0.508675 0.550676
vt 0.500000 0.550676
vt 0.491325 0.550676
vt 0.512201 0.587996
vt 0.487799 0.587996
vt 0.491373 0.587996
vt 0.500000 0.587996
vt 0.508627 0.587996
vt 0.568332 0.934950
vt 0.585705 0.937356
vt 0.563199 0.942462
vt 0.588394 0.941272
vt 0.547169 0.938850
vt 0.556128 0.940546
vt 0.591974 0.945622
vt 0.585788 0.951512
vt 0.553361 0.960509
vt 0.552340 0.950658
vt 0.590205 0.957450
vt 0.585526 0.952857
vt 0.567403 0.983587
vt 0.574061 0.949277
vt 0.590999 0.961195
vt 0.566805 0.972005
vt 0.564355 0.984393
vt 0.577377 0.987808
vt 0.542884 0.946267
vt 0.553718 0.985332
vt 0.571192 0.987826
vt 0.493471 0.659343
vt 0.495547 0.663615
vt 0.489225 0.662869
vt 0.487102 0.659354
vt 0.498015 0.665873
vt 0.494735 0.666496
vt 0.494741 0.662126
vt 0.493434 0.659295
vt 0.506530 0.661938
vt 0.504457 0.659376
vt 0.507507 0.665550
vt 0.517221 0.666182
vt 0.518989 0.662777
vt 0.521517 0.659367
vt 0.524818 0.663175
vt 0.527052 0.659333
vt 0.520086 0.665415
vt 0.521162 0.662979
vt 0.523145 0.659364
vt 0.510267 0.667542
vt 0.507800 0.665184
vt 0.515688 0.667060
vt 0.509160 0.662663
vt 0.508105 0.659398
vt 0.480736 0.617091
vt 0.480621 0.620665
vt 0.474338 0.619924
vt 0.473423 0.617157
vt 0.481158 0.622575
vt 0.477774 0.623283
vt 0.479216 0.619430
vt 0.477247 0.617355
vt 0.486437 0.619131
vt 0.484837 0.617180
vt 0.486250 0.621222
vt 0.492843 0.622064
vt 0.493731 0.619804
vt 0.495526 0.617181
vt 0.495991 0.620136
vt 0.498527 0.617076
vt 0.492542 0.623001
vt 0.494186 0.619991
vt 0.496624 0.617057
vt 0.486830 0.625394
vt 0.485268 0.623584
vt 0.489147 0.625755
vt 0.487092 0.620493
vt 0.486964 0.617100
vt 0.498885 0.711018
vt 0.499835 0.714311
vt 0.494828 0.713724
vt 0.494106 0.711184
vt 0.501351 0.716078
vt 0.502072 0.716928
vt 0.500406 0.713250
vt 0.498126 0.711324
vt 0.508949 0.712974
vt 0.507056 0.711170
vt 0.509283 0.715016
vt 0.516535 0.715687
vt 0.517578 0.713596
vt 0.519702 0.711171
vt 0.520251 0.713903
vt 0.523252 0.711074
vt 0.516405 0.716597
vt 0.518117 0.713769
vt 0.521001 0.711057
vt 0.511956 0.717304
vt 0.508543 0.716707
vt 0.509524 0.714199
vt 0.509404 0.711136
vt 0.495646 0.724101
vt 0.495808 0.741213
vt 0.488462 0.738416
vt 0.489216 0.724136
vt 0.497316 0.750306
vt 0.493820 0.753125
vt 0.494872 0.735625
vt 0.495609 0.723944
vt 0.508644 0.734627
vt 0.506738 0.724207
vt 0.508214 0.745422
vt 0.523587 0.749065
vt 0.524304 0.738030
vt 0.523962 0.724177
vt 0.529825 0.739562
vt 0.529550 0.724068
vt 0.525058 0.748446
vt 0.525576 0.738826
vt 0.525606 0.724167
vt 0.513341 0.757373
vt 0.509615 0.747508
vt 0.520155 0.755417
vt 0.511629 0.737642
vt 0.510421 0.724280
vt 0.428397 0.655975
vt 0.431566 0.669467
vt 0.421054 0.666669
vt 0.419521 0.656226
vt 0.432038 0.676962
vt 0.426804 0.679349
vt 0.429169 0.664898
vt 0.425921 0.656972
vt 0.440294 0.665613
vt 0.438625 0.656313
vt 0.437197 0.678444
vt 0.449970 0.683245
vt 0.451650 0.667886
vt 0.456515 0.656315
vt 0.457292 0.667471
vt 0.461538 0.655921
vt 0.451409 0.678360
vt 0.454272 0.666922
vt 0.458353 0.655848
vt 0.435480 0.683911
vt 0.439790 0.681332
vt 0.445632 0.685526
vt 0.444768 0.668512
vt 0.442671 0.655985
vt 0.413706 0.618504
vt 0.415191 0.632923
vt 0.407365 0.630352
vt 0.406237 0.619227
vt 0.417561 0.640661
vt 0.418688 0.644385
vt 0.416083 0.628278
vt 0.412520 0.619841
vt 0.429436 0.627069
vt 0.426476 0.619169
vt 0.429958 0.636012
vt 0.441292 0.638951
vt 0.442923 0.629795
vt 0.446242 0.619171
vt 0.447101 0.631139
vt 0.451791 0.618749
vt 0.441089 0.642938
vt 0.443764 0.630550
vt 0.448272 0.618671
vt 0.434135 0.646031
vt 0.428801 0.643418
vt 0.430335 0.632435
vt 0.430146 0.619021
s 0
usemtl Winter_Pack_Texture
f 11/1/1 16/2/1 17/3/1 12/4/1
f 12/4/2 17/3/2 18/5/2 13/6/2
f 13/6/3 18/5/3 19/7/3 14/8/3
f 14/8/4 19/7/4 20/9/4 15/10/4
f 3/11/5 1/12/5 11/1/5 12/4/5
f 5/6/5 3/11/5 12/4/5 13/6/5
f 7/13/5 5/6/5 13/6/5 14/8/5
f 9/14/5 7/13/5 14/8/5 15/10/5
f 2/15/6 4/16/6 17/3/6 16/2/6
f 4/16/6 6/5/6 18/5/6 17/3/6
f 6/5/6 8/17/6 19/7/6 18/5/6
f 8/17/6 10/18/6 20/9/6 19/7/6
f 9/19/5 1/20/5 3/21/5 5/22/5 7/23/5
f 2/24/6 10/25/6 8/26/6 6/27/6 4/28/6
f 11/1/7 1/12/7 2/15/7 16/2/7
f 1/20/7 9/19/7 10/25/7 2/24/7
f 9/14/7 15/10/7 20/9/7 10/18/7
f 31/1/8 36/2/8 37/3/8 32/4/8
f 32/4/9 37/3/9 38/5/9 33/6/9
f 33/6/10 38/5/10 39/7/10 34/8/10
f 34/8/11 39/7/11 40/9/11 35/10/11
f 23/11/12 21/12/12 31/1/12 32/4/12
f 25/6/12 23/11/12 32/4/12 33/6/12
f 27/13/12 25/6/12 33/6/12 34/8/12
f 29/14/12 27/13/12 34/8/12 35/10/12
f 22/15/13 24/16/13 37/3/13 36/2/13
f 24/16/13 26/5/13 38/5/13 37/3/13
f 26/5/13 28/17/13 39/7/13 38/5/13
f 28/17/13 30/18/13 40/9/13 39/7/13
f 29/19/12 21/20/12 23/21/12 25/22/12 27/23/12
f 22/24/13 30/25/13 28/26/13 26/27/13 24/28/13
f 31/1/14 21/12/14 22/15/14 36/2/14
f 21/20/14 29/19/14 30/25/14 22/24/14
f 29/14/14 35/10/14 40/9/14 30/18/14
f 41/29/15 42/30/15 43/31/15
f 42/30/16 41/29/16 46/32/16
f 41/29/17 43/31/17 44/33/17
f 41/29/18 44/33/18 45/34/18
f 41/29/19 45/34/19 46/32/19
f 42/30/20 46/32/20 50/35/20
f 43/31/21 42/30/21 47/36/21
f 44/33/22 43/31/22 48/37/22
f 45/34/23 44/33/23 49/38/23
f 55/39/24 46/32/24 58/40/24
f 42/30/25 50/35/25 47/36/25
f 47/36/26 48/37/26 53/41/26
f 46/32/27 45/34/27 57/42/27 58/40/27
f 46/32/28 55/39/28 50/35/28
f 47/36/29 50/35/29 54/43/29
f 48/37/30 47/36/30 51/44/30
f 55/39/31 49/38/31 51/44/31
f 50/35/32 55/39/32 54/43/32
f 51/44/33 49/38/33 52/45/33
f 48/37/34 51/44/34 52/45/34
f 49/38/35 48/37/35 52/45/35
f 55/39/36 51/44/36 56/46/36
f 54/43/37 55/39/37 56/46/37
f 59/47/38 48/37/38 61/48/38
f 43/31/39 47/36/39 53/41/39
f 48/37/40 43/31/40 53/41/40
f 51/44/41 47/36/41 56/46/41
f 47/36/42 54/43/42 56/46/42
f 44/33/43 48/37/43 59/47/43
f 49/38/44 44/33/44 59/47/44
f 45/34/45 49/38/45 57/42/45
f 49/38/46 55/39/46 60/49/46
f 55/39/47 58/40/47 60/49/47
f 58/40/48 57/42/48 60/49/48
f 49/38/49 59/47/49 61/48/49
f 48/37/50 49/38/50 61/48/50
f 57/42/51 49/38/51 60/49/51
f 62/50/52 70/51/52 80/52/52 69/53/52
f 70/51/53 63/54/53 71/55/53 80/52/53
f 69/53/54 80/52/54 72/56/54 64/57/54
f 64/57/55 72/56/55 81/58/55 73/59/55
f 81/58/56 74/60/56 68/61/56 75/62/56
f 73/59/57 81/58/57 75/62/57 67/63/57
f 67/63/58 75/62/58 82/64/58 76/65/58
f 68/61/59 66/66/59 82/64/59
f 76/65/60 82/64/60 77/67/60 65/68/60
f 83/69/61 71/55/61 63/54/61 79/70/61
f 84/71/62 66/66/62 68/61/62
f 68/61/63 74/60/63 83/69/63 84/71/63
f 82/64/64 66/66/64 77/67/64
f 75/62/65 68/61/65 82/64/65
f 66/66/66 84/71/66 83/69/66 79/70/66
f 74/60/67 72/56/67 71/55/67
f 74/60/68 71/55/68 83/69/68
f 80/52/69 71/55/69 72/56/69
f 72/56/70 74/60/70 81/58/70
f 77/67/71 66/66/71 79/70/71 85/72/71
f 85/72/72 79/70/72 63/54/72 70/51/72
f 78/73/73 85/72/73 70/51/73 62/50/73
f 65/68/74 77/67/74 85/72/74 78/73/74
f 86/74/75 94/75/75 104/76/75 93/77/75
f 94/75/76 87/78/76 95/79/76 104/76/76
f 93/77/77 104/76/77 96/80/77 88/81/77
f 88/81/78 96/80/78 105/82/78 97/83/78
f 105/82/79 98/84/79 92/85/79 99/86/79
f 97/83/80 105/82/80 99/86/80 91/87/80
f 91/87/81 99/86/81 106/88/81 100/89/81
f 92/85/82 90/90/82 106/88/82
f 100/89/83 106/88/83 101/91/83 89/92/83
f 107/93/84 95/79/84 87/78/84 103/94/84
f 108/95/85 90/90/85 92/85/85
f 92/85/86 98/84/86 107/93/86 108/95/86
f 106/88/87 90/90/87 101/91/87
f 99/86/88 92/85/88 106/88/88
f 90/90/89 108/95/89 107/93/89 103/94/89
f 98/84/90 96/80/90 95/79/90
f 98/84/91 95/79/91 107/93/91
f 104/76/92 95/79/92 96/80/92
f 96/80/93 98/84/93 105/82/93
f 101/91/94 90/90/94 103/94/94 109/96/94
f 109/96/95 103/94/95 87/78/95 94/75/95
f 102/97/96 109/96/96 94/75/96 86/74/96
f 89/92/97 101/91/97 109/96/97 102/97/97
f 110/98/98 118/99/98 128/100/98 117/101/98
f 118/99/99 111/102/99 119/103/99 128/100/99
f 117/101/100 128/100/100 120/104/100 112/105/100
f 112/105/101 120/104/101 129/106/101 121/107/101
f 129/106/102 122/108/102 116/109/102 123/110/102
f 121/107/103 129/106/103 123/110/103 115/111/103
f 115/111/104 123/110/104 130/112/104 124/113/104
f 116/109/105 114/114/105 130/112/105
f 124/113/106 130/112/106 125/115/106 113/116/106
f 131/117/107 119/103/107 111/102/107 127/118/107
f 131/117/108 114/114/108 116/109/108
f 116/109/109 122/108/109 131/117/109
f 130/112/110 114/114/110 125/115/110
f 123/110/111 116/109/111 130/112/111
f 114/114/112 131/117/112 127/118/112
f 122/108/113 120/104/113 119/103/113
f 122/108/114 119/103/114 131/117/114
f 128/100/115 119/103/115 120/104/115
f 120/104/116 122/108/116 129/106/116
f 125/115/117 114/114/117 127/118/117 132/119/117
f 132/119/118 127/118/118 111/102/118 118/99/118
f 126/120/119 132/119/119 118/99/119 110/98/119
f 113/116/120 125/115/120 132/119/120 126/120/120
f 133/121/121 141/122/121 151/123/121 140/124/121
f 141/122/122 134/125/122 142/126/122 151/123/122
f 140/124/123 151/123/123 143/127/123 135/128/123
f 135/128/124 143/127/124 152/129/124 144/130/124
f 152/129/125 145/131/125 139/132/125 146/133/125
f 144/130/126 152/129/126 146/133/126 138/134/126
f 138/134/127 146/133/127 153/135/127 147/136/127
f 139/132/128 137/137/128 153/135/128
f 147/136/129 153/135/129 148/138/129 136/139/129
f 154/140/130 142/126/130 134/125/130 150/141/130
f 155/142/131 137/137/131 139/132/131
f 139/132/132 145/131/132 154/140/132 155/142/132
f 153/135/133 137/137/133 148/138/133
f 146/133/134 139/132/134 153/135/134
f 137/137/135 155/142/135 154/140/135 150/141/135
f 145/131/136 143/127/136 142/126/136
f 145/131/137 142/126/137 154/140/137
f 151/123/138 142/126/138 143/127/138
f 143/127/139 145/131/139 152/129/139
f 148/138/140 137/137/140 150/141/140 156/143/140
f 156/143/141 150/141/141 134/125/141 141/122/141
f 149/144/142 156/143/142 141/122/142 133/121/142
f 136/139/143 148/138/143 156/143/143 149/144/143
f 157/145/144 165/146/144 175/147/144 164/148/144
f 165/146/145 158/149/145 166/150/145 175/147/145
f 164/148/146 175/147/146 167/151/146 159/152/146
f 159/152/147 167/151/147 176/153/147 168/154/147
f 176/153/148 169/155/148 163/156/148 170/157/148
f 168/154/149 176/153/149 170/157/149 162/158/149
f 162/158/150 170/157/150 177/159/150 171/160/150
f 163/156/151 161/161/151 177/159/151
f 171/160/152 177/159/152 172/162/152 160/163/152
f 178/164/153 166/150/153 158/149/153 174/165/153
f 179/166/154 161/161/154 163/156/154
f 163/156/155 169/155/155 178/164/155 179/166/155
f 177/159/156 161/161/156 172/162/156
f 170/157/157 163/156/157 177/159/157
f 161/161/158 179/166/158 178/164/158
f 169/155/159 167/151/159 166/150/159
f 169/155/160 166/150/160 178/164/160
f 175/147/161 166/150/161 167/151/161
f 167/151/162 169/155/162 176/153/162
f 172/162/163 161/161/163 174/165/163 180/167/163
f 180/167/164 174/165/164 158/149/164 165/146/164
f 173/168/165 180/167/165 165/146/165 157/145/165
f 160/163/166 172/162/166 180/167/166 173/168/166
f 178/164/167 174/165/167 161/161/167
f 181/169/168 189/170/168 199/171/168 188/172/168
f 189/170/169 182/173/169 190/174/169 199/171/169
f 188/172/170 199/171/170 191/175/170 183/176/170
f 183/176/171 191/175/171 200/177/171 192/178/171
f 200/177/172 193/179/172 187/180/172 194/181/172
f 192/178/173 200/177/173 194/181/173 186/182/173
f 186/182/174 194/181/174 201/183/174 195/184/174
f 187/180/175 185/185/175 201/183/175
f 195/184/176 201/183/176 196/186/176 184/187/176
f 202/188/177 190/174/177 182/173/177 198/189/177
f 202/188/178 185/185/178 187/180/178
f 187/180/179 193/179/179 202/188/179
f 201/183/180 185/185/180 196/186/180
f 194/181/181 187/180/181 201/183/181
f 185/185/182 202/188/182 198/189/182
f 193/179/183 191/175/183 190/174/183
f 193/179/184 190/174/184 202/188/184
f 199/171/185 190/174/185 191/175/185
f 191/175/186 193/179/186 200/177/186
f 196/186/187 185/185/187 198/189/187 203/190/187
f 203/190/188 198/189/188 182/173/188 189/170/188
f 197/191/189 203/190/189 189/170/189 181/169/189
f 184/187/190 196/186/190 203/190/190 197/191/190
