# Blender 5.0.0
# www.blender.org
mtllib Chopped_Log.mtl
o Chopped_Log
v -0.143372 -0.029119 0.059387
v -0.142579 0.442931 0.059058
v -0.143372 -0.029119 -0.059387
v -0.142580 0.442931 -0.059059
v -0.059387 -0.029119 -0.143372
v -0.059059 0.442931 -0.142580
v 0.059387 -0.029119 -0.143372
v 0.059058 0.442931 -0.142580
v 0.143372 -0.029119 -0.059387
v 0.142580 0.442931 -0.059059
v 0.143372 -0.029119 0.059387
v 0.142580 0.442931 0.059058
v 0.059387 -0.029119 0.143372
v 0.059058 0.442931 0.142579
v -0.059387 -0.029119 0.143372
v -0.059058 0.442931 0.142580
v -0.189342 -0.029119 0.078428
v -0.189342 -0.029119 -0.078428
v -0.078428 -0.029119 -0.189342
v 0.078428 -0.029119 -0.189342
v 0.189342 -0.029119 -0.078428
v 0.189342 -0.029119 0.078428
v 0.078428 -0.029119 0.189342
v -0.078428 -0.029119 0.189342
v -0.189342 0.442931 -0.078428
v -0.189342 0.442931 0.078428
v -0.078428 0.442931 -0.189342
v 0.078428 0.442931 -0.189342
v 0.189342 0.442931 -0.078428
v 0.189342 0.442931 0.078428
v 0.078428 0.442931 0.189342
v -0.078428 0.442931 0.189342
vn -0.0000 1.0000 -0.0000
vn -1.0000 -0.0000 -0.0000
vn -0.7071 -0.0000 -0.7071
vn -0.0000 -0.0000 -1.0000
vn 0.7071 -0.0000 -0.7071
vn 1.0000 -0.0000 -0.0000
vn 0.7071 -0.0000 0.7071
vn -0.0000 -0.0000 1.0000
vn -0.7071 -0.0000 0.7071
vn -0.0000 -1.0000 -0.0000
vt 0.867202 0.574091
vt 0.869893 0.574091
vt 0.863398 0.574091
vt 0.860708 0.574091
vt 0.213892 0.812549
vt 0.213892 0.870310
vt 0.227464 0.870310
vt 0.227464 0.812549
vt 0.246657 0.870310
vt 0.246657 0.812549
vt 0.260228 0.870310
vt 0.260228 0.812549
vt 0.227464 0.812549
vt 0.219517 0.812549
vt 0.229793 0.812549
vt 0.244327 0.812549
vt 0.254604 0.812549
vt 0.244327 0.812549
vt 0.229794 0.812549
vt 0.219614 0.870310
vt 0.219614 0.870310
vt 0.229834 0.870310
vt 0.244287 0.870310
vt 0.254507 0.870310
vt 0.863387 0.558886
vt 0.867213 0.558886
vt 0.869918 0.558886
vt 0.863387 0.558886
vt 0.860682 0.558886
s 0
usemtl Winter_Pack_Texture
f 14/1/1 12/2/1 10/2/1 8/1/1 6/3/1 4/4/1 2/4/1 16/3/1
f 17/5/2 26/6/2 25/6/2 18/5/2
f 18/5/3 25/6/3 27/7/3 19/8/3
f 19/8/4 27/7/4 28/9/4 20/10/4
f 20/10/5 28/9/5 29/11/5 21/12/5
f 21/12/6 29/11/6 30/11/6 22/12/6
f 22/12/7 30/11/7 31/9/7 23/10/7
f 23/10/8 31/9/8 32/7/8 24/13/8
f 24/13/9 32/7/9 26/6/9 17/5/9
f 3/14/10 1/14/10 17/5/10 18/5/10
f 5/15/10 3/14/10 18/5/10 19/8/10
f 7/16/10 5/15/10 19/8/10 20/10/10
f 9/17/10 7/16/10 20/10/10 21/12/10
f 11/17/10 9/17/10 21/12/10 22/12/10
f 13/18/10 11/17/10 22/12/10 23/10/10
f 15/19/10 13/18/10 23/10/10 24/13/10
f 1/14/10 15/19/10 24/13/10 17/5/10
f 2/20/1 4/21/1 25/6/1 26/6/1
f 4/21/1 6/22/1 27/7/1 25/6/1
f 6/22/1 8/23/1 28/9/1 27/7/1
f 8/23/1 10/24/1 29/11/1 28/9/1
f 10/24/1 12/24/1 30/11/1 29/11/1
f 12/24/1 14/23/1 31/9/1 30/11/1
f 14/23/1 16/22/1 32/7/1 31/9/1
f 16/22/1 2/20/1 26/6/1 32/7/1
f 5/25/10 7/26/10 9/27/10 11/27/10 13/26/10 15/28/10 1/29/10 3/29/10
