# Blender 5.0.0
# www.blender.org
mtllib Chopped_Log_half.mtl
o Chopped_Log_half
v -0.086839 0.447069 0.155185
v -0.086839 -0.024981 0.154327
v 0.022894 0.447069 0.109732
v 0.022287 -0.024981 0.109126
v 0.068346 0.447069 -0.000000
v 0.067488 -0.024981 -0.000000
v 0.022893 0.447069 -0.109732
v 0.022287 -0.024981 -0.109126
v -0.086839 0.447069 -0.155185
v -0.086839 -0.024981 -0.154327
v -0.086839 0.447069 0.204942
v 0.058077 0.447069 0.144916
v 0.118103 0.447069 -0.000000
v 0.058077 0.447069 -0.144916
v -0.086839 0.447069 -0.204942
v -0.086839 -0.024981 0.204942
v 0.058077 -0.024981 0.144916
v 0.118103 -0.024981 -0.000000
v 0.058077 -0.024981 -0.144916
v -0.086839 -0.024981 -0.204942
vn 0.3827 -0.0000 0.9239
vn 0.9239 -0.0000 0.3827
vn 0.9239 -0.0000 -0.3827
vn 0.3827 -0.0000 -0.9239
vn -0.0000 1.0000 -0.0000
vn -0.0000 -1.0000 -0.0000
vn -1.0000 -0.0000 -0.0000
vt 0.265129 0.865366
vt 0.215339 0.865366
vt 0.215339 0.859035
vt 0.265129 0.859035
vt 0.215339 0.843750
vt 0.265129 0.843750
vt 0.215339 0.828465
vt 0.265129 0.828465
vt 0.215339 0.822134
vt 0.265129 0.822134
vt 0.265129 0.855324
vt 0.265129 0.860118
vt 0.265129 0.832176
vt 0.265129 0.827382
vt 0.215339 0.860028
vt 0.215339 0.855260
vt 0.215339 0.832240
vt 0.215339 0.827472
vt 0.844276 0.552226
vt 0.868814 0.552226
vt 0.865221 0.552226
vt 0.856545 0.552226
vt 0.847870 0.552226
vt 0.868746 0.589546
vt 0.844344 0.589546
vt 0.847918 0.589546
vt 0.856545 0.589546
vt 0.865173 0.589546
s 0
usemtl Winter_Pack_Texture
f 11/1/1 16/2/1 17/3/1 12/4/1
f 12/4/2 17/3/2 18/5/2 13/6/2
f 13/6/3 18/5/3 19/7/3 14/8/3
f 14/8/4 19/7/4 20/9/4 15/10/4
f 3/11/5 1/12/5 11/1/5 12/4/5
f 5/6/5 3/11/5 12/4/5 13/6/5
f 7/13/5 5/6/5 13/6/5 14/8/5
f 9/14/5 7/13/5 14/8/5 15/10/5
f 2/15/6 4/16/6 17/3/6 16/2/6
f 4/16/6 6/5/6 18/5/6 17/3/6
f 6/5/6 8/17/6 19/7/6 18/5/6
f 8/17/6 10/18/6 20/9/6 19/7/6
f 9/19/5 1/20/5 3/21/5 5/22/5 7/23/5
f 2/24/6 10/25/6 8/26/6 6/27/6 4/28/6
f 11/1/7 1/12/7 2/15/7 16/2/7
f 1/20/7 9/19/7 10/25/7 2/24/7
f 9/14/7 15/10/7 20/9/7 10/18/7
