# Blender 5.0.0
# www.blender.org
mtllib Christmas_Light_Rope_Straight_Short.mtl
o Christmas_Light_Rope_Straight_Short
v -0.000001 -0.098583 -0.077673
v -0.000001 -0.098583 0.077673
v -0.072616 -0.098583 0.038837
v -0.072616 -0.098583 -0.038836
v -0.000001 -0.241997 0.000000
v -0.000001 0.009846 -0.034917
v -0.000001 0.009846 0.034917
v -0.035589 0.009846 0.017459
v -0.035589 0.009846 -0.017459
v -0.000001 0.054882 -0.034917
v -0.000001 0.054882 0.034917
v -0.035589 0.054882 0.017459
v -0.035589 0.054882 -0.017459
v -0.000001 0.064641 0.050683
v -0.270441 0.065102 0.050683
v -0.000001 0.064641 -0.050683
v -0.270441 0.065102 -0.050683
v -0.000001 0.022790 -0.000000
v -0.270441 0.023285 0.000000
v -0.000001 0.106149 -0.000000
v -0.270441 0.106575 -0.000000
v 0.072615 -0.098583 0.038836
v 0.072614 -0.098583 -0.038836
v 0.035587 0.009846 0.017459
v 0.035587 0.009846 -0.017459
v 0.035587 0.054882 0.017459
v 0.035587 0.054882 -0.017459
v 0.270440 0.065102 0.050682
v 0.270440 0.065102 -0.050683
v 0.270440 0.023285 -0.000000
v 0.270440 0.106575 -0.000000
v 0.540881 -0.098583 -0.077673
v 0.540881 -0.098583 0.077672
v 0.468266 -0.098583 0.038836
v 0.468266 -0.098583 -0.038836
v 0.540881 -0.241997 -0.000000
v 0.540881 0.009846 -0.034918
v 0.540881 0.009846 0.034917
v 0.505293 0.009846 0.017458
v 0.505293 0.009846 -0.017459
v 0.540881 0.054882 -0.034918
v 0.540881 0.054882 0.034917
v 0.505293 0.054882 0.017458
v 0.505293 0.054882 -0.017459
v 0.540881 0.064641 0.050682
v 0.540881 0.064641 -0.050683
v 0.540881 0.022790 -0.000000
v 0.540881 0.106149 -0.000001
v 0.613496 -0.098583 0.038836
v 0.613496 -0.098583 -0.038837
v 0.576469 0.009846 0.017458
v 0.576469 0.009846 -0.017459
v 0.576469 0.054882 0.017458
v 0.576469 0.054882 -0.017459
v 0.811322 0.065102 0.050682
v 0.811322 0.065102 -0.050683
v 0.811322 0.023285 -0.000001
v 0.811322 0.106575 -0.000001
v 1.081762 -0.098583 -0.077673
v 1.081762 -0.098583 0.077672
v 1.009147 -0.098583 0.038836
v 1.009147 -0.098583 -0.038837
v 1.081762 -0.241997 -0.000001
v 1.081762 0.009846 -0.034918
v 1.081762 0.009846 0.034917
v 1.046174 0.009846 0.017458
v 1.046174 0.009846 -0.017459
v 1.081762 0.054882 -0.034918
v 1.081762 0.054882 0.034917
v 1.046174 0.054882 0.017458
v 1.046174 0.054882 -0.017459
v 1.081762 0.064641 0.050682
v 1.081762 0.064641 -0.050683
v 1.081762 0.022790 -0.000001
v 1.081762 0.106149 -0.000001
v 1.154378 -0.098583 0.038836
v 1.154378 -0.098583 -0.038837
v 1.117350 0.009846 0.017458
v 1.117350 0.009846 -0.017459
v 1.117350 0.054882 0.017458
v 1.117350 0.054882 -0.017459
v 1.352203 0.065102 0.050682
v 1.352203 0.065102 -0.050684
v 1.352203 0.023285 -0.000001
v 1.352203 0.106575 -0.000001
v 1.622644 -0.098583 -0.077674
v 1.622644 -0.098583 0.077672
v 1.550029 -0.098583 0.038835
v 1.550029 -0.098583 -0.038837
v 1.622644 -0.241997 -0.000001
v 1.622644 0.009846 -0.034918
v 1.622644 0.009846 0.034916
v 1.587056 0.009846 0.017458
v 1.587056 0.009846 -0.017460
v 1.622644 0.054882 -0.034918
v 1.622644 0.054882 0.034916
v 1.587056 0.054882 0.017458
v 1.587056 0.054882 -0.017460
v 1.622644 0.064641 0.050682
v 1.622644 0.064641 -0.050684
v 1.622644 0.022790 -0.000001
v 1.622644 0.106149 -0.000001
v 1.695259 -0.098583 0.038835
v 1.695259 -0.098583 -0.038837
v 1.658232 0.009846 0.017458
v 1.658232 0.009846 -0.017460
v 1.658232 0.054882 0.017458
v 1.658232 0.054882 -0.017460
v 1.893085 0.065102 0.050681
v 1.893085 0.065102 -0.050684
v 1.893085 0.023285 -0.000001
v 1.893085 0.106575 -0.000001
vn -0.4256 -0.4310 0.7957
vn -0.8922 -0.4517 -0.0000
vn -1.0000 -0.0000 -0.0000
vn -0.4368 0.3229 -0.8396
vn -0.9463 0.3232 -0.0000
vn -0.4368 0.3229 0.8396
vn -0.4256 -0.4310 -0.7957
vn -0.4404 -0.0000 -0.8978
vn -0.4404 -0.0000 0.8978
vn -0.0014 -0.7712 -0.6366
vn -0.0014 -0.7712 0.6366
vn 0.0013 0.7738 0.6334
vn 0.0013 0.7738 -0.6334
vn 0.4256 -0.4310 0.7957
vn 0.8922 -0.4517 -0.0000
vn 1.0000 -0.0000 -0.0000
vn 0.4368 0.3229 -0.8396
vn 0.9463 0.3232 -0.0000
vn 0.4368 0.3229 0.8396
vn 0.4256 -0.4310 -0.7957
vn 0.4404 -0.0000 -0.8978
vn 0.4404 -0.0000 0.8978
vn 0.0014 -0.7712 -0.6366
vn 0.0014 -0.7712 0.6366
vn -0.0013 0.7738 0.6334
vn -0.0013 0.7738 -0.6334
vt 0.109559 0.850881
vt 0.095801 0.850881
vt 0.109559 0.823709
vt 0.102816 0.871424
vt 0.102816 0.879957
vt 0.109559 0.871424
vt 0.109559 0.879957
vt 0.853346 0.310698
vt 0.850697 0.308638
vt 0.846000 0.315796
vt 0.848647 0.317854
vt 0.855973 0.312741
vt 0.851272 0.319896
vt 0.123317 0.850881
vt 0.116302 0.871424
vt 0.116302 0.879957
vt 0.859124 0.304379
vt 0.856477 0.302321
vt 0.861749 0.306421
vt 0.303895 0.750295
vt 0.290137 0.750295
vt 0.303895 0.723123
vt 0.297152 0.770838
vt 0.297152 0.779371
vt 0.303895 0.770838
vt 0.303895 0.779371
vt 0.317653 0.750295
vt 0.310638 0.770838
vt 0.310638 0.779371
vt 0.367371 0.850881
vt 0.353614 0.850881
vt 0.367371 0.823709
vt 0.360629 0.871424
vt 0.360629 0.879957
vt 0.367371 0.871424
vt 0.367371 0.879957
vt 0.381129 0.850881
vt 0.374114 0.871424
vt 0.374114 0.879957
vt 0.436707 0.850881
vt 0.422950 0.850881
vt 0.436707 0.823709
vt 0.429965 0.871424
vt 0.429965 0.879957
vt 0.436707 0.871424
vt 0.436707 0.879957
vt 0.450465 0.850881
vt 0.443450 0.871424
vt 0.443450 0.879957
s 0
usemtl Winter_Pack_Texture
f 2/1/1 3/2/1 5/3/1
f 3/2/2 4/2/2 5/3/2
f 9/4/3 8/4/3 12/5/3 13/5/3
f 1/1/4 4/2/4 9/4/4 6/6/4
f 4/2/5 3/2/5 8/4/5 9/4/5
f 3/2/6 2/1/6 7/6/6 8/4/6
f 4/2/7 1/1/7 5/3/7
f 6/6/8 9/4/8 13/5/8 10/7/8
f 8/4/9 7/6/9 11/7/9 12/5/9
f 16/8/10 18/9/10 19/10/10 17/11/10
f 14/8/11 15/11/11 19/10/11 18/9/11
f 20/12/12 21/13/12 15/11/12 14/8/12
f 20/12/13 16/8/13 17/11/13 21/13/13
f 2/1/14 5/3/14 22/14/14
f 22/14/15 5/3/15 23/14/15
f 25/15/16 27/16/16 26/16/16 24/15/16
f 1/1/17 6/6/17 25/15/17 23/14/17
f 23/14/18 25/15/18 24/15/18 22/14/18
f 22/14/19 24/15/19 7/6/19 2/1/19
f 23/14/20 5/3/20 1/1/20
f 6/6/21 10/7/21 27/16/21 25/15/21
f 24/15/22 26/16/22 11/7/22 7/6/22
f 16/8/23 29/17/23 30/18/23 18/9/23
f 14/8/24 18/9/24 30/18/24 28/17/24
f 20/12/25 14/8/25 28/17/25 31/19/25
f 20/12/26 31/19/26 29/17/26 16/8/26
f 33/20/1 34/21/1 36/22/1
f 34/21/2 35/21/2 36/22/2
f 40/23/3 39/23/3 43/24/3 44/24/3
f 32/20/4 35/21/4 40/23/4 37/25/4
f 35/21/5 34/21/5 39/23/5 40/23/5
f 34/21/6 33/20/6 38/25/6 39/23/6
f 35/21/7 32/20/7 36/22/7
f 37/25/8 40/23/8 44/24/8 41/26/8
f 39/23/9 38/25/9 42/26/9 43/24/9
f 46/8/10 47/9/10 30/10/10 29/11/10
f 45/8/11 28/11/11 30/10/11 47/9/11
f 48/12/12 31/13/12 28/11/12 45/8/12
f 48/12/13 46/8/13 29/11/13 31/13/13
f 33/20/14 36/22/14 49/27/14
f 49/27/15 36/22/15 50/27/15
f 52/28/16 54/29/16 53/29/16 51/28/16
f 32/20/17 37/25/17 52/28/17 50/27/17
f 50/27/18 52/28/18 51/28/18 49/27/18
f 49/27/19 51/28/19 38/25/19 33/20/19
f 50/27/20 36/22/20 32/20/20
f 37/25/21 41/26/21 54/29/21 52/28/21
f 51/28/22 53/29/22 42/26/22 38/25/22
f 46/8/23 56/17/23 57/18/23 47/9/23
f 45/8/24 47/9/24 57/18/24 55/17/24
f 48/12/25 45/8/25 55/17/25 58/19/25
f 48/12/26 58/19/26 56/17/26 46/8/26
f 60/30/1 61/31/1 63/32/1
f 61/31/2 62/31/2 63/32/2
f 67/33/3 66/33/3 70/34/3 71/34/3
f 59/30/4 62/31/4 67/33/4 64/35/4
f 62/31/5 61/31/5 66/33/5 67/33/5
f 61/31/6 60/30/6 65/35/6 66/33/6
f 62/31/7 59/30/7 63/32/7
f 64/35/8 67/33/8 71/34/8 68/36/8
f 66/33/9 65/35/9 69/36/9 70/34/9
f 73/8/10 74/9/10 57/10/10 56/11/10
f 72/8/11 55/11/11 57/10/11 74/9/11
f 75/12/12 58/13/12 55/11/12 72/8/12
f 75/12/13 73/8/13 56/11/13 58/13/13
f 60/30/14 63/32/14 76/37/14
f 76/37/15 63/32/15 77/37/15
f 79/38/16 81/39/16 80/39/16 78/38/16
f 59/30/17 64/35/17 79/38/17 77/37/17
f 77/37/18 79/38/18 78/38/18 76/37/18
f 76/37/19 78/38/19 65/35/19 60/30/19
f 77/37/20 63/32/20 59/30/20
f 64/35/21 68/36/21 81/39/21 79/38/21
f 78/38/22 80/39/22 69/36/22 65/35/22
f 73/8/23 83/17/23 84/18/23 74/9/23
f 72/8/24 74/9/24 84/18/24 82/17/24
f 75/12/25 72/8/25 82/17/25 85/19/25
f 75/12/26 85/19/26 83/17/26 73/8/26
f 87/40/1 88/41/1 90/42/1
f 88/41/2 89/41/2 90/42/2
f 94/43/3 93/43/3 97/44/3 98/44/3
f 86/40/4 89/41/4 94/43/4 91/45/4
f 89/41/5 88/41/5 93/43/5 94/43/5
f 88/41/6 87/40/6 92/45/6 93/43/6
f 89/41/7 86/40/7 90/42/7
f 91/45/8 94/43/8 98/44/8 95/46/8
f 93/43/9 92/45/9 96/46/9 97/44/9
f 100/8/10 101/9/10 84/10/10 83/11/10
f 99/8/11 82/11/11 84/10/11 101/9/11
f 102/12/12 85/13/12 82/11/12 99/8/12
f 102/12/13 100/8/13 83/11/13 85/13/13
f 87/40/14 90/42/14 103/47/14
f 103/47/15 90/42/15 104/47/15
f 106/48/16 108/49/16 107/49/16 105/48/16
f 86/40/17 91/45/17 106/48/17 104/47/17
f 104/47/18 106/48/18 105/48/18 103/47/18
f 103/47/19 105/48/19 92/45/19 87/40/19
f 104/47/20 90/42/20 86/40/20
f 91/45/21 95/46/21 108/49/21 106/48/21
f 105/48/22 107/49/22 96/46/22 92/45/22
f 100/8/23 110/17/23 111/18/23 101/9/23
f 99/8/24 101/9/24 111/18/24 109/17/24
f 102/12/25 99/8/25 109/17/25 112/19/25
f 102/12/26 112/19/26 110/17/26 100/8/26
f 19/10/3 15/11/3 21/13/3 17/11/3
f 111/18/16 110/17/16 112/19/16 109/17/16
