# Blender 5.0.0
# www.blender.org
mtllib Christmas_Light_Rope_Straight_Long.mtl
o Christmas_Light_Rope_Straight_Long
v -0.000001 -0.105909 -0.083445
v -0.000001 -0.105909 0.083445
v -0.078012 -0.105909 0.041723
v -0.078012 -0.105909 -0.041722
v -0.000001 -0.259981 0.000000
v -0.000001 0.010578 -0.037512
v -0.000001 0.010578 0.037512
v -0.038233 0.010578 0.018756
v -0.038233 0.010578 -0.018756
v -0.000001 0.058960 -0.037512
v -0.000001 0.058960 0.037512
v -0.038233 0.058960 0.018756
v -0.038233 0.058960 -0.018756
v -0.000001 0.069445 0.054449
v -0.290539 0.069940 0.054449
v -0.000001 0.069445 -0.054449
v -0.290539 0.069940 -0.054449
v -0.000001 0.024484 -0.000000
v -0.290539 0.025015 0.000000
v -0.000001 0.114038 -0.000000
v -0.290539 0.114495 -0.000000
v 0.078011 -0.105909 0.041722
v 0.078011 -0.105909 -0.041722
v 0.038232 0.010578 0.018756
v 0.038232 0.010578 -0.018756
v 0.038232 0.058960 0.018756
v 0.038232 0.058960 -0.018756
v 0.290538 0.069940 0.054449
v 0.290537 0.069940 -0.054449
v 0.290537 0.025015 -0.000000
v 0.290537 0.114495 -0.000000
v 0.581076 -0.105909 -0.083445
v 0.581076 -0.105909 0.083445
v 0.503064 -0.105909 0.041722
v 0.503064 -0.105909 -0.041723
v 0.581076 -0.259981 -0.000000
v 0.581076 0.010578 -0.037512
v 0.581076 0.010578 0.037512
v 0.542843 0.010578 0.018756
v 0.542843 0.010578 -0.018756
v 0.581076 0.058960 -0.037512
v 0.581076 0.058960 0.037512
v 0.542843 0.058960 0.018756
v 0.542843 0.058960 -0.018756
v 0.581076 0.069445 0.054449
v 0.581076 0.069445 -0.054449
v 0.581076 0.024484 -0.000001
v 0.581076 0.114038 -0.000001
v 0.659087 -0.105909 0.041722
v 0.659087 -0.105909 -0.041723
v 0.619308 0.010578 0.018756
v 0.619308 0.010578 -0.018756
v 0.619308 0.058960 0.018756
v 0.619308 0.058960 -0.018756
v 0.871614 0.069940 0.054448
v 0.871614 0.069940 -0.054450
v 0.871614 0.025015 -0.000001
v 0.871614 0.114495 -0.000001
v 1.162152 -0.105909 -0.083445
v 1.162152 -0.105909 0.083444
v 1.084140 -0.105909 0.041722
v 1.084140 -0.105909 -0.041723
v 1.162152 -0.259981 -0.000001
v 1.162152 0.010578 -0.037513
v 1.162152 0.010578 0.037512
v 1.123919 0.010578 0.018755
v 1.123919 0.010578 -0.018757
v 1.162152 0.058960 -0.037513
v 1.162152 0.058960 0.037512
v 1.123919 0.058960 0.018755
v 1.123919 0.058960 -0.018757
v 1.162152 0.069445 0.054448
v 1.162152 0.069445 -0.054450
v 1.162152 0.024484 -0.000001
v 1.162152 0.114038 -0.000001
v 1.240163 -0.105909 0.041722
v 1.240163 -0.105909 -0.041723
v 1.200384 0.010578 0.018755
v 1.200384 0.010578 -0.018757
v 1.200384 0.058960 0.018755
v 1.200384 0.058960 -0.018757
v 1.452690 0.069940 0.054448
v 1.452690 0.069940 -0.054450
v 1.452690 0.025015 -0.000001
v 1.452690 0.114495 -0.000001
v 1.743228 -0.105909 -0.083446
v 1.743228 -0.105909 0.083444
v 1.665217 -0.105909 0.041721
v 1.665217 -0.105909 -0.041723
v 1.743228 -0.259981 -0.000001
v 1.743228 0.010578 -0.037513
v 1.743228 0.010578 0.037511
v 1.704995 0.010578 0.018755
v 1.704995 0.010578 -0.018757
v 1.743228 0.058960 -0.037513
v 1.743228 0.058960 0.037511
v 1.704995 0.058960 0.018755
v 1.704995 0.058960 -0.018757
v 1.743228 0.069445 0.054448
v 1.743228 0.069445 -0.054450
v 1.743228 0.024484 -0.000001
v 1.743228 0.114038 -0.000001
v 1.821239 -0.105909 0.041721
v 1.821239 -0.105909 -0.041723
v 1.781461 0.010578 0.018755
v 1.781461 0.010578 -0.018757
v 1.781461 0.058960 0.018755
v 1.781461 0.058960 -0.018757
v 2.033766 0.069940 0.054448
v 2.033766 0.069940 -0.054450
v 2.033766 0.025015 -0.000002
v 2.033766 0.114495 -0.000002
v 2.324304 -0.105909 -0.083446
v 2.324304 -0.105909 0.083443
v 2.246293 -0.105909 0.041721
v 2.246293 -0.105909 -0.041724
v 2.324304 -0.259981 -0.000001
v 2.324304 0.010578 -0.037514
v 2.324304 0.010578 0.037511
v 2.286072 0.010578 0.018755
v 2.286072 0.010578 -0.018757
v 2.324304 0.058960 -0.037514
v 2.324304 0.058960 0.037511
v 2.286072 0.058960 0.018755
v 2.286072 0.058960 -0.018757
v 2.324304 0.069445 0.054448
v 2.324304 0.069445 -0.054451
v 2.324304 0.024484 -0.000002
v 2.324304 0.114038 -0.000002
v 2.402316 -0.105909 0.041721
v 2.402316 -0.105909 -0.041724
v 2.362537 0.010578 0.018755
v 2.362537 0.010578 -0.018758
v 2.362537 0.058960 0.018755
v 2.362537 0.058960 -0.018758
v 2.614842 0.069940 0.054447
v 2.614842 0.069940 -0.054451
v 2.614842 0.025015 -0.000002
v 2.614842 0.114495 -0.000002
v 2.905380 -0.105909 -0.083447
v 2.905380 -0.105909 0.083443
v 2.827369 -0.105909 0.041721
v 2.827369 -0.105909 -0.041724
v 2.905380 -0.259981 -0.000002
v 2.905380 0.010578 -0.037514
v 2.905380 0.010578 0.037510
v 2.867148 0.010578 0.018754
v 2.867148 0.010578 -0.018758
v 2.905380 0.058960 -0.037514
v 2.905380 0.058960 0.037510
v 2.867148 0.058960 0.018754
v 2.867148 0.058960 -0.018758
v 2.905380 0.069445 0.054447
v 2.905380 0.069445 -0.054451
v 2.905380 0.024484 -0.000002
v 2.905380 0.114038 -0.000002
v 2.983392 -0.105909 0.041721
v 2.983392 -0.105909 -0.041724
v 2.943613 0.010578 0.018754
v 2.943613 0.010578 -0.018758
v 2.943613 0.058960 0.018754
v 2.943613 0.058960 -0.018758
v 3.195919 0.069940 0.054447
v 3.195919 0.069940 -0.054451
v 3.195919 0.025015 -0.000002
v 3.195919 0.114495 -0.000002
v 3.486457 -0.105909 -0.083447
v 3.486457 -0.105909 0.083443
v 3.408445 -0.105909 0.041720
v 3.408445 -0.105909 -0.041724
v 3.486457 -0.259981 -0.000002
v 3.486457 0.010578 -0.037514
v 3.486457 0.010578 0.037510
v 3.448224 0.010578 0.018754
v 3.448224 0.010578 -0.018758
v 3.486457 0.058960 -0.037514
v 3.486457 0.058960 0.037510
v 3.448224 0.058960 0.018754
v 3.448224 0.058960 -0.018758
v 3.486457 0.069445 0.054447
v 3.486457 0.069445 -0.054451
v 3.486457 0.024484 -0.000002
v 3.486457 0.114038 -0.000002
v 3.564468 -0.105909 0.041720
v 3.564468 -0.105909 -0.041725
v 3.524689 0.010578 0.018754
v 3.524689 0.010578 -0.018758
v 3.524689 0.058960 0.018754
v 3.524689 0.058960 -0.018758
v 3.776995 0.069940 0.054447
v 3.776995 0.069940 -0.054452
v 3.776995 0.025015 -0.000003
v 3.776995 0.114495 -0.000003
v 4.067533 -0.105909 -0.083447
v 4.067533 -0.105909 0.083442
v 3.989522 -0.105909 0.041720
v 3.989522 -0.105909 -0.041725
v 4.067533 -0.259981 -0.000002
v 4.067533 0.010578 -0.037515
v 4.067533 0.010578 0.037510
v 4.029301 0.010578 0.018754
v 4.029301 0.010578 -0.018759
v 4.067533 0.058960 -0.037515
v 4.067533 0.058960 0.037510
v 4.029301 0.058960 0.018754
v 4.029301 0.058960 -0.018759
v 4.067533 0.069445 0.054446
v 4.067533 0.069445 -0.054452
v 4.067533 0.024484 -0.000003
v 4.067533 0.114038 -0.000003
v 4.145545 -0.105909 0.041720
v 4.145545 -0.105909 -0.041725
v 4.105766 0.010578 0.018754
v 4.105766 0.010578 -0.018759
v 4.105766 0.058960 0.018754
v 4.105766 0.058960 -0.018759
v 4.358071 0.069940 0.054446
v 4.358071 0.069940 -0.054452
v 4.358071 0.025015 -0.000003
v 4.358071 0.114495 -0.000003
vn -0.4256 -0.4310 0.7957
vn -0.8922 -0.4517 -0.0000
vn -1.0000 -0.0000 -0.0000
vn -0.4368 0.3229 -0.8396
vn -0.9463 0.3232 -0.0000
vn -0.4368 0.3229 0.8396
vn -0.4256 -0.4310 -0.7957
vn -0.4404 -0.0000 -0.8978
vn -0.4404 -0.0000 0.8978
vn -0.0014 -0.7712 -0.6366
vn -0.0014 -0.7712 0.6366
vn 0.0013 0.7738 0.6334
vn 0.0013 0.7738 -0.6334
vn 0.4256 -0.4310 0.7957
vn 0.8922 -0.4517 -0.0000
vn 1.0000 -0.0000 -0.0000
vn 0.4368 0.3229 -0.8396
vn 0.9463 0.3232 -0.0000
vn 0.4368 0.3229 0.8396
vn 0.4256 -0.4310 -0.7957
vn 0.4404 -0.0000 -0.8978
vn 0.4404 -0.0000 0.8978
vn 0.0014 -0.7712 -0.6366
vn 0.0014 -0.7712 0.6366
vn -0.0013 0.7738 0.6334
vn -0.0013 0.7738 -0.6334
vt 0.109559 0.850881
vt 0.095801 0.850881
vt 0.109559 0.823709
vt 0.102816 0.871424
vt 0.102816 0.879957
vt 0.109559 0.871424
vt 0.109559 0.879957
vt 0.853346 0.310698
vt 0.850697 0.308638
vt 0.846000 0.315796
vt 0.848647 0.317854
vt 0.855973 0.312741
vt 0.851272 0.319896
vt 0.123317 0.850881
vt 0.116302 0.871424
vt 0.116302 0.879957
vt 0.859124 0.304379
vt 0.856477 0.302321
vt 0.861749 0.306421
vt 0.303895 0.750295
vt 0.290137 0.750295
vt 0.303895 0.723123
vt 0.297152 0.770838
vt 0.297152 0.779371
vt 0.303895 0.770838
vt 0.303895 0.779371
vt 0.317653 0.750295
vt 0.310638 0.770838
vt 0.310638 0.779371
vt 0.367371 0.850881
vt 0.353614 0.850881
vt 0.367371 0.823709
vt 0.360629 0.871424
vt 0.360629 0.879957
vt 0.367371 0.871424
vt 0.367371 0.879957
vt 0.381129 0.850881
vt 0.374114 0.871424
vt 0.374114 0.879957
vt 0.436707 0.850881
vt 0.422950 0.850881
vt 0.436707 0.823709
vt 0.429965 0.871424
vt 0.429965 0.879957
vt 0.436707 0.871424
vt 0.436707 0.879957
vt 0.450465 0.850881
vt 0.443450 0.871424
vt 0.443450 0.879957
vt 0.303895 0.751272
vt 0.290137 0.751272
vt 0.303895 0.724100
vt 0.297152 0.771815
vt 0.297152 0.780348
vt 0.303895 0.771815
vt 0.303895 0.780348
vt 0.317653 0.751272
vt 0.310638 0.771815
vt 0.310638 0.780348
vt 0.366395 0.850881
vt 0.352637 0.850881
vt 0.366395 0.823709
vt 0.359652 0.871424
vt 0.359652 0.879957
vt 0.366395 0.871424
vt 0.366395 0.879957
vt 0.380153 0.850881
vt 0.373138 0.871424
vt 0.373138 0.879957
s 0
usemtl Winter_Pack_Texture
f 2/1/1 3/2/1 5/3/1
f 3/2/2 4/2/2 5/3/2
f 9/4/3 8/4/3 12/5/3 13/5/3
f 1/1/4 4/2/4 9/4/4 6/6/4
f 4/2/5 3/2/5 8/4/5 9/4/5
f 3/2/6 2/1/6 7/6/6 8/4/6
f 4/2/7 1/1/7 5/3/7
f 6/6/8 9/4/8 13/5/8 10/7/8
f 8/4/9 7/6/9 11/7/9 12/5/9
f 16/8/10 18/9/10 19/10/10 17/11/10
f 14/8/11 15/11/11 19/10/11 18/9/11
f 20/12/12 21/13/12 15/11/12 14/8/12
f 20/12/13 16/8/13 17/11/13 21/13/13
f 2/1/14 5/3/14 22/14/14
f 22/14/15 5/3/15 23/14/15
f 25/15/16 27/16/16 26/16/16 24/15/16
f 1/1/17 6/6/17 25/15/17 23/14/17
f 23/14/18 25/15/18 24/15/18 22/14/18
f 22/14/19 24/15/19 7/6/19 2/1/19
f 23/14/20 5/3/20 1/1/20
f 6/6/21 10/7/21 27/16/21 25/15/21
f 24/15/22 26/16/22 11/7/22 7/6/22
f 16/8/23 29/17/23 30/18/23 18/9/23
f 14/8/24 18/9/24 30/18/24 28/17/24
f 20/12/25 14/8/25 28/17/25 31/19/25
f 20/12/26 31/19/26 29/17/26 16/8/26
f 33/20/1 34/21/1 36/22/1
f 34/21/2 35/21/2 36/22/2
f 40/23/3 39/23/3 43/24/3 44/24/3
f 32/20/4 35/21/4 40/23/4 37/25/4
f 35/21/5 34/21/5 39/23/5 40/23/5
f 34/21/6 33/20/6 38/25/6 39/23/6
f 35/21/7 32/20/7 36/22/7
f 37/25/8 40/23/8 44/24/8 41/26/8
f 39/23/9 38/25/9 42/26/9 43/24/9
f 46/8/10 47/9/10 30/10/10 29/11/10
f 45/8/11 28/11/11 30/10/11 47/9/11
f 48/12/12 31/13/12 28/11/12 45/8/12
f 48/12/13 46/8/13 29/11/13 31/13/13
f 33/20/14 36/22/14 49/27/14
f 49/27/15 36/22/15 50/27/15
f 52/28/16 54/29/16 53/29/16 51/28/16
f 32/20/17 37/25/17 52/28/17 50/27/17
f 50/27/18 52/28/18 51/28/18 49/27/18
f 49/27/19 51/28/19 38/25/19 33/20/19
f 50/27/20 36/22/20 32/20/20
f 37/25/21 41/26/21 54/29/21 52/28/21
f 51/28/22 53/29/22 42/26/22 38/25/22
f 46/8/23 56/17/23 57/18/23 47/9/23
f 45/8/24 47/9/24 57/18/24 55/17/24
f 48/12/25 45/8/25 55/17/25 58/19/25
f 48/12/26 58/19/26 56/17/26 46/8/26
f 60/30/1 61/31/1 63/32/1
f 61/31/2 62/31/2 63/32/2
f 67/33/3 66/33/3 70/34/3 71/34/3
f 59/30/4 62/31/4 67/33/4 64/35/4
f 62/31/5 61/31/5 66/33/5 67/33/5
f 61/31/6 60/30/6 65/35/6 66/33/6
f 62/31/7 59/30/7 63/32/7
f 64/35/8 67/33/8 71/34/8 68/36/8
f 66/33/9 65/35/9 69/36/9 70/34/9
f 73/8/10 74/9/10 57/10/10 56/11/10
f 72/8/11 55/11/11 57/10/11 74/9/11
f 75/12/12 58/13/12 55/11/12 72/8/12
f 75/12/13 73/8/13 56/11/13 58/13/13
f 60/30/14 63/32/14 76/37/14
f 76/37/15 63/32/15 77/37/15
f 79/38/16 81/39/16 80/39/16 78/38/16
f 59/30/17 64/35/17 79/38/17 77/37/17
f 77/37/18 79/38/18 78/38/18 76/37/18
f 76/37/19 78/38/19 65/35/19 60/30/19
f 77/37/20 63/32/20 59/30/20
f 64/35/21 68/36/21 81/39/21 79/38/21
f 78/38/22 80/39/22 69/36/22 65/35/22
f 73/8/23 83/17/23 84/18/23 74/9/23
f 72/8/24 74/9/24 84/18/24 82/17/24
f 75/12/25 72/8/25 82/17/25 85/19/25
f 75/12/26 85/19/26 83/17/26 73/8/26
f 87/40/1 88/41/1 90/42/1
f 88/41/2 89/41/2 90/42/2
f 94/43/3 93/43/3 97/44/3 98/44/3
f 86/40/4 89/41/4 94/43/4 91/45/4
f 89/41/5 88/41/5 93/43/5 94/43/5
f 88/41/6 87/40/6 92/45/6 93/43/6
f 89/41/7 86/40/7 90/42/7
f 91/45/8 94/43/8 98/44/8 95/46/8
f 93/43/9 92/45/9 96/46/9 97/44/9
f 100/8/10 101/9/10 84/10/10 83/11/10
f 99/8/11 82/11/11 84/10/11 101/9/11
f 102/12/12 85/13/12 82/11/12 99/8/12
f 102/12/13 100/8/13 83/11/13 85/13/13
f 87/40/14 90/42/14 103/47/14
f 103/47/15 90/42/15 104/47/15
f 106/48/16 108/49/16 107/49/16 105/48/16
f 86/40/17 91/45/17 106/48/17 104/47/17
f 104/47/18 106/48/18 105/48/18 103/47/18
f 103/47/19 105/48/19 92/45/19 87/40/19
f 104/47/20 90/42/20 86/40/20
f 91/45/21 95/46/21 108/49/21 106/48/21
f 105/48/22 107/49/22 96/46/22 92/45/22
f 100/8/23 110/17/23 111/18/23 101/9/23
f 99/8/24 101/9/24 111/18/24 109/17/24
f 102/12/25 99/8/25 109/17/25 112/19/25
f 102/12/26 112/19/26 110/17/26 100/8/26
f 114/1/1 115/2/1 117/3/1
f 115/2/2 116/2/2 117/3/2
f 121/4/3 120/4/3 124/5/3 125/5/3
f 113/1/4 116/2/4 121/4/4 118/6/4
f 116/2/5 115/2/5 120/4/5 121/4/5
f 115/2/6 114/1/6 119/6/6 120/4/6
f 116/2/7 113/1/7 117/3/7
f 118/6/8 121/4/8 125/5/8 122/7/8
f 120/4/9 119/6/9 123/7/9 124/5/9
f 127/8/10 128/9/10 111/10/10 110/11/10
f 126/8/11 109/11/11 111/10/11 128/9/11
f 129/12/12 112/13/12 109/11/12 126/8/12
f 129/12/13 127/8/13 110/11/13 112/13/13
f 114/1/14 117/3/14 130/14/14
f 130/14/15 117/3/15 131/14/15
f 133/15/16 135/16/16 134/16/16 132/15/16
f 113/1/17 118/6/17 133/15/17 131/14/17
f 131/14/18 133/15/18 132/15/18 130/14/18
f 130/14/19 132/15/19 119/6/19 114/1/19
f 131/14/20 117/3/20 113/1/20
f 118/6/21 122/7/21 135/16/21 133/15/21
f 132/15/22 134/16/22 123/7/22 119/6/22
f 127/8/23 137/17/23 138/18/23 128/9/23
f 126/8/24 128/9/24 138/18/24 136/17/24
f 129/12/25 126/8/25 136/17/25 139/19/25
f 129/12/26 139/19/26 137/17/26 127/8/26
f 141/50/1 142/51/1 144/52/1
f 142/51/2 143/51/2 144/52/2
f 148/53/3 147/53/3 151/54/3 152/54/3
f 140/50/4 143/51/4 148/53/4 145/55/4
f 143/51/5 142/51/5 147/53/5 148/53/5
f 142/51/6 141/50/6 146/55/6 147/53/6
f 143/51/7 140/50/7 144/52/7
f 145/55/8 148/53/8 152/54/8 149/56/8
f 147/53/9 146/55/9 150/56/9 151/54/9
f 154/8/10 155/9/10 138/10/10 137/11/10
f 153/8/11 136/11/11 138/10/11 155/9/11
f 156/12/12 139/13/12 136/11/12 153/8/12
f 156/12/13 154/8/13 137/11/13 139/13/13
f 141/50/14 144/52/14 157/57/14
f 157/57/15 144/52/15 158/57/15
f 160/58/16 162/59/16 161/59/16 159/58/16
f 140/50/17 145/55/17 160/58/17 158/57/17
f 158/57/18 160/58/18 159/58/18 157/57/18
f 157/57/19 159/58/19 146/55/19 141/50/19
f 158/57/20 144/52/20 140/50/20
f 145/55/21 149/56/21 162/59/21 160/58/21
f 159/58/22 161/59/22 150/56/22 146/55/22
f 154/8/23 164/17/23 165/18/23 155/9/23
f 153/8/24 155/9/24 165/18/24 163/17/24
f 156/12/25 153/8/25 163/17/25 166/19/25
f 156/12/26 166/19/26 164/17/26 154/8/26
f 168/60/1 169/61/1 171/62/1
f 169/61/2 170/61/2 171/62/2
f 175/63/3 174/63/3 178/64/3 179/64/3
f 167/60/4 170/61/4 175/63/4 172/65/4
f 170/61/5 169/61/5 174/63/5 175/63/5
f 169/61/6 168/60/6 173/65/6 174/63/6
f 170/61/7 167/60/7 171/62/7
f 172/65/8 175/63/8 179/64/8 176/66/8
f 174/63/9 173/65/9 177/66/9 178/64/9
f 181/8/10 182/9/10 165/10/10 164/11/10
f 180/8/11 163/11/11 165/10/11 182/9/11
f 183/12/12 166/13/12 163/11/12 180/8/12
f 183/12/13 181/8/13 164/11/13 166/13/13
f 168/60/14 171/62/14 184/67/14
f 184/67/15 171/62/15 185/67/15
f 187/68/16 189/69/16 188/69/16 186/68/16
f 167/60/17 172/65/17 187/68/17 185/67/17
f 185/67/18 187/68/18 186/68/18 184/67/18
f 184/67/19 186/68/19 173/65/19 168/60/19
f 185/67/20 171/62/20 167/60/20
f 172/65/21 176/66/21 189/69/21 187/68/21
f 186/68/22 188/69/22 177/66/22 173/65/22
f 181/8/23 191/17/23 192/18/23 182/9/23
f 180/8/24 182/9/24 192/18/24 190/17/24
f 183/12/25 180/8/25 190/17/25 193/19/25
f 183/12/26 193/19/26 191/17/26 181/8/26
f 195/40/1 196/41/1 198/42/1
f 196/41/2 197/41/2 198/42/2
f 202/43/3 201/43/3 205/44/3 206/44/3
f 194/40/4 197/41/4 202/43/4 199/45/4
f 197/41/5 196/41/5 201/43/5 202/43/5
f 196/41/6 195/40/6 200/45/6 201/43/6
f 197/41/7 194/40/7 198/42/7
f 199/45/8 202/43/8 206/44/8 203/46/8
f 201/43/9 200/45/9 204/46/9 205/44/9
f 208/8/10 209/9/10 192/10/10 191/11/10
f 207/8/11 190/11/11 192/10/11 209/9/11
f 210/12/12 193/13/12 190/11/12 207/8/12
f 210/12/13 208/8/13 191/11/13 193/13/13
f 195/40/14 198/42/14 211/47/14
f 211/47/15 198/42/15 212/47/15
f 214/48/16 216/49/16 215/49/16 213/48/16
f 194/40/17 199/45/17 214/48/17 212/47/17
f 212/47/18 214/48/18 213/48/18 211/47/18
f 211/47/19 213/48/19 200/45/19 195/40/19
f 212/47/20 198/42/20 194/40/20
f 199/45/21 203/46/21 216/49/21 214/48/21
f 213/48/22 215/49/22 204/46/22 200/45/22
f 208/8/23 218/17/23 219/18/23 209/9/23
f 207/8/24 209/9/24 219/18/24 217/17/24
f 210/12/25 207/8/25 217/17/25 220/19/25
f 210/12/26 220/19/26 218/17/26 208/8/26
f 219/18/16 218/17/16 220/19/16 217/17/16
f 19/10/3 15/11/3 21/13/3 17/11/3
