# Blender 5.0.0
# www.blender.org
mtllib Christmas_Light_Rope_Curved.mtl
o Christmas_Light_Rope_Curved
v -0.000000 -0.093191 -0.053978
v -0.000000 -0.093191 0.053978
v -0.050464 -0.093191 0.026989
v -0.050464 -0.093191 -0.026989
v -0.000000 -0.192856 0.000000
v -0.000000 -0.017839 -0.024265
v -0.000000 -0.017839 0.024266
v -0.024732 -0.017839 0.012133
v -0.024732 -0.017839 -0.012133
v -0.000000 0.013458 -0.024265
v -0.000000 0.013458 0.024266
v -0.024732 0.013458 0.012133
v -0.024732 0.013458 -0.012133
v -0.549249 0.151264 0.068515
v -0.370105 0.091903 0.068515
v -0.000000 0.044978 0.068515
v -0.723798 0.234648 0.068515
v -0.187941 0.056497 0.068515
v -0.892174 0.342120 0.068515
v -1.052645 0.473587 0.068515
v -0.549249 0.151264 -0.068515
v -0.370105 0.091903 -0.068515
v -0.000000 0.044978 -0.068515
v -0.723798 0.234648 -0.068514
v -0.187941 0.056497 -0.068515
v -0.892174 0.342120 -0.068514
v -1.052645 0.473587 -0.068514
v -0.000000 -0.011598 -0.000000
v -0.187941 -0.000032 -0.000000
v -0.370105 0.035510 0.000000
v -0.549249 0.095078 0.000000
v -0.723798 0.178701 0.000000
v -0.892174 0.286386 0.000000
v -1.108279 0.474480 0.000000
v -0.000000 0.101091 -0.000000
v -0.187941 0.112562 -0.000000
v -0.370105 0.147829 0.000000
v -0.549249 0.206980 0.000000
v -0.723798 0.290121 0.000000
v -0.892174 0.397377 0.000000
v -0.997489 0.472702 0.000000
v -0.762975 0.108693 -0.053977
v -0.762975 0.108693 0.053979
v -0.804835 0.127265 0.026990
v -0.804835 0.127265 -0.026988
v -0.803394 0.017592 0.000001
v -0.732416 0.177570 -0.024265
v -0.732416 0.177570 0.024266
v -0.750755 0.185707 0.012133
v -0.750755 0.185707 -0.012132
v -0.719723 0.206178 -0.024265
v -0.719723 0.206178 0.024266
v -0.738062 0.214315 0.012133
v -0.738062 0.214315 -0.012132
v -0.721114 0.090121 0.026990
v -0.721114 0.090121 -0.026988
v -0.714076 0.169433 0.012133
v -0.714076 0.169433 -0.012132
v -0.701384 0.198041 0.012133
v -0.701384 0.198041 -0.012132
v -0.347836 0.058675 -0.012132
v -0.347836 0.058675 0.012133
v -0.354917 0.028189 -0.012132
v -0.354917 0.028189 0.012133
v -0.346900 -0.051030 -0.026989
v -0.346900 -0.051030 0.026989
v -0.386922 0.067754 -0.012132
v -0.386922 0.067754 0.012133
v -0.367379 0.063215 0.024266
v -0.367379 0.063215 -0.024265
v -0.394003 0.037268 -0.012132
v -0.394003 0.037268 0.012133
v -0.374460 0.032729 0.024266
v -0.374460 0.032729 -0.024265
v -0.414056 -0.137750 0.000000
v -0.436115 -0.030308 -0.026989
v -0.436115 -0.030308 0.026989
v -0.391508 -0.040669 0.053978
v -0.391508 -0.040669 -0.053978
v 0.050463 -0.093191 0.026989
v 0.050463 -0.093191 -0.026989
v 0.024731 -0.017839 0.012133
v 0.024731 -0.017839 -0.012133
v 0.024731 0.013458 0.012133
v 0.024731 0.013458 -0.012133
v 0.549249 0.151264 0.068514
v 0.370105 0.091903 0.068514
v 0.723797 0.234648 0.068514
v 0.187940 0.056497 0.068515
v 0.892173 0.342120 0.068514
v 1.052644 0.473587 0.068514
v 0.549248 0.151264 -0.068515
v 0.370104 0.091903 -0.068515
v 0.723797 0.234648 -0.068515
v 0.187940 0.056497 -0.068515
v 0.892173 0.342120 -0.068516
v 1.052644 0.473587 -0.068516
v 0.187940 -0.000032 -0.000000
v 0.370104 0.035510 -0.000000
v 0.549248 0.095078 -0.000001
v 0.723797 0.178701 -0.000001
v 0.892173 0.286386 -0.000001
v 1.108278 0.474480 -0.000001
v 0.187940 0.112562 -0.000000
v 0.370104 0.147829 -0.000000
v 0.549248 0.206980 -0.000001
v 0.723797 0.290121 -0.000001
v 0.892173 0.397377 -0.000001
v 0.997488 0.472702 -0.000001
v 0.762974 0.108693 -0.053978
v 0.762974 0.108693 0.053978
v 0.804834 0.127265 0.026989
v 0.804834 0.127265 -0.026989
v 0.803393 0.017592 -0.000000
v 0.732415 0.177570 -0.024266
v 0.732415 0.177570 0.024265
v 0.750754 0.185707 0.012132
v 0.750754 0.185707 -0.012133
v 0.719722 0.206178 -0.024266
v 0.719722 0.206178 0.024265
v 0.738062 0.214315 0.012132
v 0.738062 0.214315 -0.012133
v 0.721114 0.090121 0.026989
v 0.721114 0.090121 -0.026989
v 0.714075 0.169433 0.012132
v 0.714075 0.169433 -0.012133
v 0.701383 0.198041 0.012132
v 0.701383 0.198041 -0.012133
v 0.347835 0.058675 -0.012133
v 0.347835 0.058675 0.012133
v 0.354916 0.028189 -0.012133
v 0.354916 0.028189 0.012133
v 0.346899 -0.051030 -0.026989
v 0.346899 -0.051030 0.026989
v 0.386921 0.067754 -0.012133
v 0.386921 0.067754 0.012133
v 0.367378 0.063215 0.024265
v 0.367378 0.063215 -0.024266
v 0.394002 0.037268 -0.012133
v 0.394002 0.037268 0.012133
v 0.374459 0.032729 0.024265
v 0.374459 0.032729 -0.024266
v 0.414055 -0.137750 -0.000000
v 0.436114 -0.030308 -0.026989
v 0.436114 -0.030308 0.026989
v 0.391507 -0.040669 0.053978
v 0.391507 -0.040669 -0.053978
vn -0.4256 -0.4310 0.7957
vn -0.8922 -0.4517 -0.0000
vn -1.0000 -0.0000 -0.0000
vn -0.4368 0.3229 -0.8396
vn -0.9463 0.3232 -0.0000
vn -0.4368 0.3229 0.8396
vn -0.4256 -0.4310 -0.7957
vn -0.4404 -0.0000 -0.8978
vn -0.4404 -0.0000 0.8978
vn -0.0473 -0.7704 -0.6359
vn -0.0473 -0.7704 0.6359
vn -0.1486 -0.7632 -0.6289
vn -0.1486 -0.7632 0.6289
vn -0.2484 -0.7484 -0.6149
vn -0.2484 -0.7484 0.6149
vn -0.3472 -0.7258 -0.5939
vn -0.3472 -0.7258 0.5939
vn -0.4438 -0.6946 -0.5661
vn -0.4438 -0.6946 0.5661
vn -0.5626 -0.6630 -0.4938
vn -0.5626 -0.6630 0.4938
vn 0.0473 0.7729 0.6327
vn 0.0473 0.7729 -0.6327
vn 0.1485 0.7657 0.6258
vn 0.1485 0.7657 -0.6258
vn 0.2484 0.7510 0.6118
vn 0.2484 0.7510 -0.6118
vn 0.3473 0.7282 0.5909
vn 0.3473 0.7282 -0.5909
vn 0.4443 0.6968 0.5631
vn 0.4443 0.6968 -0.5631
vn 0.5357 0.6885 0.4888
vn 0.5357 0.6885 -0.4888
vn 0.0160 0.9999 -0.0000
vn -0.5920 -0.1999 0.7807
vn -0.9999 -0.0131 -0.0000
vn -0.9141 0.4056 -0.0000
vn -0.3107 0.4914 -0.8136
vn -0.7340 0.6792 -0.0000
vn -0.3107 0.4914 0.8136
vn -0.5921 -0.1999 -0.7807
vn -0.4730 0.2099 -0.8557
vn -0.4730 0.2099 0.8557
vn 0.2491 -0.5731 0.7807
vn 0.6613 -0.7502 -0.0000
vn 0.9141 -0.4056 -0.0000
vn 0.5728 0.0994 -0.8136
vn 0.9961 -0.0884 -0.0000
vn 0.5728 0.0994 0.8136
vn 0.2491 -0.5731 -0.7807
vn 0.4730 -0.2099 -0.8557
vn 0.4730 -0.2099 0.8557
vn 0.5040 -0.1171 0.8557
vn 0.5040 -0.1171 -0.8557
vn 0.3525 -0.5160 -0.7807
vn 0.5439 0.2054 0.8136
vn 0.9949 0.1007 -0.0000
vn 0.5439 0.2054 -0.8136
vn 0.9741 -0.2262 -0.0000
vn 0.7906 -0.6123 -0.0000
vn 0.3525 -0.5160 0.7807
vn -0.5040 0.1171 0.8557
vn -0.5040 0.1171 -0.8557
vn -0.5438 -0.3078 -0.7807
vn -0.3977 0.4241 0.8136
vn -0.8487 0.5289 -0.0000
vn -0.3977 0.4241 -0.8136
vn -0.9741 0.2262 -0.0000
vn -0.9796 -0.2011 -0.0000
vn -0.5438 -0.3078 0.7807
vn 0.4256 -0.4310 0.7957
vn 0.8922 -0.4517 -0.0000
vn 1.0000 -0.0000 -0.0000
vn 0.4368 0.3229 -0.8396
vn 0.9463 0.3232 -0.0000
vn 0.4368 0.3229 0.8396
vn 0.4256 -0.4310 -0.7957
vn 0.4404 -0.0000 -0.8978
vn 0.4404 -0.0000 0.8978
vn 0.0473 -0.7704 -0.6359
vn 0.0473 -0.7704 0.6359
vn 0.1486 -0.7632 -0.6289
vn 0.1486 -0.7632 0.6289
vn 0.2484 -0.7484 -0.6149
vn 0.2484 -0.7484 0.6149
vn 0.3472 -0.7258 -0.5939
vn 0.3472 -0.7258 0.5939
vn 0.4438 -0.6946 -0.5661
vn 0.4438 -0.6946 0.5661
vn 0.5626 -0.6630 -0.4938
vn 0.5626 -0.6630 0.4938
vn -0.0473 0.7729 0.6327
vn -0.0473 0.7729 -0.6327
vn -0.1485 0.7657 0.6258
vn -0.1485 0.7657 -0.6258
vn -0.2484 0.7510 0.6118
vn -0.2484 0.7510 -0.6118
vn -0.3473 0.7282 0.5909
vn -0.3473 0.7282 -0.5909
vn -0.4443 0.6968 0.5631
vn -0.4443 0.6968 -0.5631
vn -0.5357 0.6885 0.4888
vn -0.5357 0.6885 -0.4888
vn -0.0160 0.9999 -0.0000
vn 0.5921 -0.1999 0.7807
vn 0.9999 -0.0131 -0.0000
vn 0.9141 0.4056 -0.0000
vn 0.3107 0.4914 -0.8136
vn 0.7340 0.6792 -0.0000
vn 0.3107 0.4914 0.8136
vn 0.5921 -0.1999 -0.7807
vn 0.4730 0.2099 -0.8557
vn 0.4730 0.2099 0.8557
vn -0.2491 -0.5731 0.7807
vn -0.6613 -0.7502 -0.0000
vn -0.9141 -0.4056 -0.0000
vn -0.5728 0.0994 -0.8136
vn -0.9961 -0.0884 -0.0000
vn -0.5728 0.0994 0.8136
vn -0.2491 -0.5731 -0.7807
vn -0.4730 -0.2099 -0.8557
vn -0.4730 -0.2099 0.8557
vn -0.5040 -0.1171 0.8557
vn -0.5040 -0.1171 -0.8557
vn -0.3525 -0.5160 -0.7807
vn -0.5439 0.2054 0.8136
vn -0.9949 0.1007 -0.0000
vn -0.5439 0.2054 -0.8136
vn -0.9741 -0.2262 -0.0000
vn -0.7906 -0.6123 -0.0000
vn -0.3525 -0.5160 0.7807
vn 0.5040 0.1171 0.8557
vn 0.5040 0.1171 -0.8557
vn 0.5438 -0.3078 -0.7807
vn 0.3977 0.4241 0.8136
vn 0.8487 0.5289 -0.0000
vn 0.3977 0.4241 -0.8136
vn 0.9741 0.2262 -0.0000
vn 0.9796 -0.2011 -0.0000
vn 0.5438 -0.3078 0.7807
vt 0.368348 0.850881
vt 0.354590 0.850881
vt 0.368348 0.823709
vt 0.361605 0.871424
vt 0.361605 0.879957
vt 0.368348 0.871424
vt 0.368348 0.879957
vt 0.853346 0.310698
vt 0.850697 0.308638
vt 0.846000 0.315796
vt 0.848647 0.317854
vt 0.842586 0.323621
vt 0.845227 0.325674
vt 0.840382 0.332211
vt 0.843013 0.334257
vt 0.839433 0.341513
vt 0.842052 0.343550
vt 0.839782 0.351470
vt 0.842391 0.353499
vt 0.842565 0.366065
vt 0.844074 0.364039
vt 0.855973 0.312741
vt 0.851272 0.319896
vt 0.847846 0.327710
vt 0.845622 0.336286
vt 0.844650 0.345570
vt 0.844979 0.355511
vt 0.845570 0.362029
vt 0.102509 0.845632
vt 0.091096 0.850695
vt 0.091489 0.820795
vt 0.105840 0.866628
vt 0.109300 0.874428
vt 0.102509 0.845632
vt 0.110840 0.864410
vt 0.114300 0.872209
vt 0.113921 0.840568
vt 0.115840 0.862191
vt 0.119300 0.869991
vt 0.314650 0.759704
vt 0.316581 0.768015
vt 0.311253 0.769253
vt 0.309322 0.760941
vt 0.316836 0.738106
vt 0.298527 0.714463
vt 0.304674 0.740930
vt 0.303994 0.762179
vt 0.305925 0.770490
vt 0.292513 0.743755
vt 0.382106 0.850881
vt 0.375091 0.871424
vt 0.375091 0.879957
vt 0.859124 0.304379
vt 0.856477 0.302321
vt 0.865860 0.299138
vt 0.863219 0.297085
vt 0.873633 0.294877
vt 0.871002 0.292832
vt 0.882403 0.291656
vt 0.879783 0.289619
vt 0.892128 0.289532
vt 0.889519 0.287503
vt 0.902757 0.288566
vt 0.904350 0.286604
vt 0.861749 0.306421
vt 0.868478 0.301174
vt 0.876242 0.296906
vt 0.885000 0.293675
vt 0.894716 0.291544
vt 0.901178 0.290511
vt 0.503766 0.845632
vt 0.514786 0.820795
vt 0.515178 0.850695
vt 0.500435 0.866628
vt 0.496974 0.874428
vt 0.495435 0.864410
vt 0.491974 0.872209
vt 0.492354 0.840568
vt 0.490435 0.862191
vt 0.486974 0.869991
vt 0.362987 0.957797
vt 0.368315 0.959034
vt 0.366385 0.967346
vt 0.361057 0.966108
vt 0.360802 0.936199
vt 0.372963 0.939023
vt 0.379110 0.912556
vt 0.373643 0.960272
vt 0.371713 0.968583
vt 0.385124 0.941848
s 0
usemtl Winter_Pack_Texture
f 2/1/1 3/2/1 5/3/1
f 3/2/2 4/2/2 5/3/2
f 9/4/3 8/4/3 12/5/3 13/5/3
f 1/1/4 4/2/4 9/4/4 6/6/4
f 4/2/5 3/2/5 8/4/5 9/4/5
f 3/2/6 2/1/6 7/6/6 8/4/6
f 4/2/7 1/1/7 5/3/7
f 6/6/8 9/4/8 13/5/8 10/7/8
f 8/4/9 7/6/9 11/7/9 12/5/9
f 23/8/10 28/9/10 29/10/10 25/11/10
f 16/8/11 18/11/11 29/10/11 28/9/11
f 25/11/12 29/10/12 30/12/12 22/13/12
f 18/11/13 15/13/13 30/12/13 29/10/13
f 22/13/14 30/12/14 31/14/14 21/15/14
f 15/13/15 14/15/15 31/14/15 30/12/15
f 21/15/16 31/14/16 32/16/16 24/17/16
f 14/15/17 17/17/17 32/16/17 31/14/17
f 24/17/18 32/16/18 33/18/18 26/19/18
f 17/17/19 19/19/19 33/18/19 32/16/19
f 26/19/20 33/18/20 34/20/20 27/21/20
f 19/19/21 20/21/21 34/20/21 33/18/21
f 35/22/22 36/23/22 18/11/22 16/8/22
f 35/22/23 23/8/23 25/11/23 36/23/23
f 36/23/24 37/24/24 15/13/24 18/11/24
f 36/23/25 25/11/25 22/13/25 37/24/25
f 37/24/26 38/25/26 14/15/26 15/13/26
f 37/24/27 22/13/27 21/15/27 38/25/27
f 38/25/28 39/26/28 17/17/28 14/15/28
f 38/25/29 21/15/29 24/17/29 39/26/29
f 39/26/30 40/27/30 19/19/30 17/17/30
f 39/26/31 24/17/31 26/19/31 40/27/31
f 40/27/32 41/28/32 20/21/32 19/19/32
f 40/27/33 26/19/33 27/21/33 41/28/33
f 34/20/34 20/21/34 41/28/34 27/21/34
f 43/29/35 44/30/35 46/31/35
f 44/30/36 45/30/36 46/31/36
f 50/32/37 49/32/37 53/33/37 54/33/37
f 42/34/38 45/30/38 50/32/38 47/35/38
f 45/30/39 44/30/39 49/32/39 50/32/39
f 44/30/40 43/29/40 48/35/40 49/32/40
f 45/30/41 42/34/41 46/31/41
f 47/35/42 50/32/42 54/33/42 51/36/42
f 49/32/43 48/35/43 52/36/43 53/33/43
f 43/29/44 46/31/44 55/37/44
f 55/37/45 46/31/45 56/37/45
f 58/38/46 60/39/46 59/39/46 57/38/46
f 42/34/47 47/35/47 58/38/47 56/37/47
f 56/37/48 58/38/48 57/38/48 55/37/48
f 55/37/49 57/38/49 48/35/49 43/29/49
f 56/37/50 46/31/50 42/34/50
f 47/35/51 51/36/51 60/39/51 58/38/51
f 57/38/52 59/39/52 52/36/52 48/35/52
f 64/40/53 62/41/53 69/42/53 73/43/53
f 74/43/54 70/42/54 61/41/54 63/40/54
f 65/44/55 75/45/55 79/46/55
f 66/44/56 64/40/56 73/43/56 78/46/56
f 65/44/57 63/40/57 64/40/57 66/44/57
f 79/46/58 74/43/58 63/40/58 65/44/58
f 63/40/59 61/41/59 62/41/59 64/40/59
f 66/44/60 75/45/60 65/44/60
f 78/46/61 75/45/61 66/44/61
f 72/47/62 73/43/62 69/42/62 68/48/62
f 74/43/63 71/47/63 67/48/63 70/42/63
f 76/49/64 79/46/64 75/45/64
f 77/49/65 78/46/65 73/43/65 72/47/65
f 76/49/66 77/49/66 72/47/66 71/47/66
f 79/46/67 76/49/67 71/47/67 74/43/67
f 71/47/68 72/47/68 68/48/68 67/48/68
f 77/49/69 76/49/69 75/45/69
f 78/46/70 77/49/70 75/45/70
f 2/1/71 5/3/71 80/50/71
f 80/50/72 5/3/72 81/50/72
f 83/51/73 85/52/73 84/52/73 82/51/73
f 1/1/74 6/6/74 83/51/74 81/50/74
f 81/50/75 83/51/75 82/51/75 80/50/75
f 80/50/76 82/51/76 7/6/76 2/1/76
f 81/50/77 5/3/77 1/1/77
f 6/6/78 10/7/78 85/52/78 83/51/78
f 82/51/79 84/52/79 11/7/79 7/6/79
f 23/8/80 95/53/80 98/54/80 28/9/80
f 16/8/81 28/9/81 98/54/81 89/53/81
f 95/53/82 93/55/82 99/56/82 98/54/82
f 89/53/83 98/54/83 99/56/83 87/55/83
f 93/55/84 92/57/84 100/58/84 99/56/84
f 87/55/85 99/56/85 100/58/85 86/57/85
f 92/57/86 94/59/86 101/60/86 100/58/86
f 86/57/87 100/58/87 101/60/87 88/59/87
f 94/59/88 96/61/88 102/62/88 101/60/88
f 88/59/89 101/60/89 102/62/89 90/61/89
f 96/61/90 97/63/90 103/64/90 102/62/90
f 90/61/91 102/62/91 103/64/91 91/63/91
f 35/22/92 16/8/92 89/53/92 104/65/92
f 35/22/93 104/65/93 95/53/93 23/8/93
f 104/65/94 89/53/94 87/55/94 105/66/94
f 104/65/95 105/66/95 93/55/95 95/53/95
f 105/66/96 87/55/96 86/57/96 106/67/96
f 105/66/97 106/67/97 92/57/97 93/55/97
f 106/67/98 86/57/98 88/59/98 107/68/98
f 106/67/99 107/68/99 94/59/99 92/57/99
f 107/68/100 88/59/100 90/61/100 108/69/100
f 107/68/101 108/69/101 96/61/101 94/59/101
f 108/69/102 90/61/102 91/63/102 109/70/102
f 108/69/103 109/70/103 97/63/103 96/61/103
f 103/64/104 97/63/104 109/70/104 91/63/104
f 111/71/105 114/72/105 112/73/105
f 112/73/106 114/72/106 113/73/106
f 118/74/107 122/75/107 121/75/107 117/74/107
f 110/71/108 115/76/108 118/74/108 113/73/108
f 113/73/109 118/74/109 117/74/109 112/73/109
f 112/73/110 117/74/110 116/76/110 111/71/110
f 113/73/111 114/72/111 110/71/111
f 115/76/112 119/77/112 122/75/112 118/74/112
f 117/74/113 121/75/113 120/77/113 116/76/113
f 111/71/114 123/78/114 114/72/114
f 123/78/115 124/78/115 114/72/115
f 126/79/116 125/79/116 127/80/116 128/80/116
f 110/71/117 124/78/117 126/79/117 115/76/117
f 124/78/118 123/78/118 125/79/118 126/79/118
f 123/78/119 111/71/119 116/76/119 125/79/119
f 124/78/120 110/71/120 114/72/120
f 115/76/121 126/79/121 128/80/121 119/77/121
f 125/79/122 116/76/122 120/77/122 127/80/122
f 132/81/123 141/82/123 137/83/123 130/84/123
f 142/82/124 131/81/124 129/84/124 138/83/124
f 133/85/125 147/86/125 143/87/125
f 134/85/126 146/86/126 141/82/126 132/81/126
f 133/85/127 134/85/127 132/81/127 131/81/127
f 147/86/128 133/85/128 131/81/128 142/82/128
f 131/81/129 132/81/129 130/84/129 129/84/129
f 134/85/130 133/85/130 143/87/130
f 146/86/131 134/85/131 143/87/131
f 140/88/132 136/89/132 137/83/132 141/82/132
f 142/82/133 138/83/133 135/89/133 139/88/133
f 144/90/134 143/87/134 147/86/134
f 145/90/135 140/88/135 141/82/135 146/86/135
f 144/90/136 139/88/136 140/88/136 145/90/136
f 147/86/137 142/82/137 139/88/137 144/90/137
f 139/88/138 135/89/138 136/89/138 140/88/138
f 145/90/139 143/87/139 144/90/139
f 146/86/140 143/87/140 145/90/140
