# Blender 5.0.0
# www.blender.org
mtllib Christmas_Light_Rope_Sngle.mtl
o Christmas_Light_Rope_Sngle
v 0.000001 -0.098583 0.077673
v 0.000001 -0.098583 -0.077673
v 0.072616 -0.098583 -0.038836
v 0.072616 -0.098583 0.038836
v 0.000001 -0.241997 -0.000000
v 0.000001 0.009846 0.034917
v 0.000001 0.009846 -0.034917
v 0.035589 0.009846 -0.017459
v 0.035589 0.009846 0.017459
v 0.000001 0.054882 0.034917
v 0.000001 0.054882 -0.034918
v 0.035589 0.054882 -0.017459
v 0.035589 0.054882 0.017459
v 0.000001 0.064641 -0.050683
v 0.270441 0.065102 -0.050683
v 0.000001 0.064641 0.050683
v 0.270441 0.065102 0.050682
v 0.000001 0.022790 0.000000
v 0.270441 0.023285 -0.000000
v 0.000001 0.106149 0.000000
v 0.270441 0.106575 -0.000000
v -0.072615 -0.098583 -0.038836
v -0.072614 -0.098583 0.038836
v -0.035587 0.009846 -0.017459
v -0.035587 0.009846 0.017459
v -0.035587 0.054882 -0.017459
v -0.035587 0.054882 0.017459
v -0.270440 0.065102 -0.050682
v -0.270440 0.065102 0.050683
v -0.270440 0.023285 0.000000
v -0.270440 0.106575 0.000000
vn 0.4256 -0.4310 -0.7957
vn 0.8922 -0.4517 -0.0000
vn 1.0000 -0.0000 -0.0000
vn 0.4368 0.3229 0.8396
vn 0.9463 0.3232 -0.0000
vn 0.4368 0.3229 -0.8396
vn 0.4256 -0.4310 0.7957
vn 0.4404 -0.0000 0.8978
vn 0.4404 -0.0000 -0.8978
vn 0.0014 -0.7712 0.6366
vn 0.0014 -0.7712 -0.6366
vn -0.0013 0.7738 -0.6334
vn -0.0013 0.7738 0.6334
vn -0.4256 -0.4310 -0.7957
vn -0.8922 -0.4517 -0.0000
vn -1.0000 -0.0000 -0.0000
vn -0.4368 0.3229 0.8396
vn -0.9463 0.3232 -0.0000
vn -0.4368 0.3229 -0.8396
vn -0.4256 -0.4310 0.7957
vn -0.4404 -0.0000 0.8978
vn -0.4404 -0.0000 -0.8978
vn -0.0014 -0.7712 0.6366
vn -0.0014 -0.7712 -0.6366
vn 0.0013 0.7738 -0.6334
vn 0.0013 0.7738 0.6334
vt 0.368348 0.850881
vt 0.354590 0.850881
vt 0.368348 0.823709
vt 0.361605 0.871424
vt 0.361605 0.879957
vt 0.368348 0.871424
vt 0.368348 0.879957
vt 0.853346 0.310698
vt 0.850697 0.308638
vt 0.846000 0.315796
vt 0.848647 0.317854
vt 0.855973 0.312741
vt 0.851272 0.319896
vt 0.382106 0.850881
vt 0.375091 0.871424
vt 0.375091 0.879957
vt 0.859124 0.304379
vt 0.856477 0.302321
vt 0.861749 0.306421
s 0
usemtl Winter_Pack_Texture
f 2/1/1 3/2/1 5/3/1
f 3/2/2 4/2/2 5/3/2
f 9/4/3 8/4/3 12/5/3 13/5/3
f 1/1/4 4/2/4 9/4/4 6/6/4
f 4/2/5 3/2/5 8/4/5 9/4/5
f 3/2/6 2/1/6 7/6/6 8/4/6
f 4/2/7 1/1/7 5/3/7
f 6/6/8 9/4/8 13/5/8 10/7/8
f 8/4/9 7/6/9 11/7/9 12/5/9
f 16/8/10 18/9/10 19/10/10 17/11/10
f 14/8/11 15/11/11 19/10/11 18/9/11
f 20/12/12 21/13/12 15/11/12 14/8/12
f 20/12/13 16/8/13 17/11/13 21/13/13
f 2/1/14 5/3/14 22/14/14
f 22/14/15 5/3/15 23/14/15
f 25/15/16 27/16/16 26/16/16 24/15/16
f 1/1/17 6/6/17 25/15/17 23/14/17
f 23/14/18 25/15/18 24/15/18 22/14/18
f 22/14/19 24/15/19 7/6/19 2/1/19
f 23/14/20 5/3/20 1/1/20
f 6/6/21 10/7/21 27/16/21 25/15/21
f 24/15/22 26/16/22 11/7/22 7/6/22
f 16/8/23 29/17/23 30/18/23 18/9/23
f 14/8/24 18/9/24 30/18/24 28/17/24
f 20/12/25 14/8/25 28/17/25 31/19/25
f 20/12/26 31/19/26 29/17/26 16/8/26
