# Blender 5.0.0
# www.blender.org
mtllib Dead_Bush_A.mtl
o Dead_Bush_A
v -0.000000 -0.061387 -0.061387
v -0.000000 0.061387 -0.061387
v 0.036082 -0.061387 -0.049663
v 0.036082 0.061387 -0.049663
v 0.058382 -0.061387 -0.018970
v 0.058382 0.061387 -0.018970
v 0.058382 -0.061387 0.018969
v 0.058382 0.061387 0.018969
v 0.036082 -0.061387 0.049663
v 0.036082 0.061387 0.049663
v 0.000000 -0.061387 0.061387
v 0.000000 0.061387 0.061387
v -0.036082 -0.061387 0.049663
v -0.036082 0.061387 0.049663
v -0.058382 -0.061387 0.018970
v -0.058382 0.061387 0.018970
v -0.058382 -0.061387 -0.018969
v -0.058382 0.061387 -0.018969
v -0.036082 -0.061387 -0.049663
v -0.036082 0.061387 -0.049663
v 0.095148 0.273890 -0.050137
v 0.053417 0.294041 -0.046711
v 0.117072 0.269811 -0.019444
v 0.117072 0.269811 0.018495
v 0.095148 0.273890 0.049188
v 0.054770 0.295142 0.051054
v 0.025192 0.330975 0.046582
v 0.002594 0.310785 0.022525
v 0.002150 0.314111 -0.008131
v 0.022783 0.330678 -0.033894
v 0.139004 0.357610 -0.034369
v 0.123809 0.377424 -0.042482
v 0.148394 0.345363 -0.013128
v 0.148394 0.345363 0.013127
v 0.139004 0.357609 0.034368
v 0.123809 0.377424 0.042482
v 0.064568 0.377435 0.043261
v 0.071840 0.405494 0.021625
v 0.069482 0.405221 -0.008134
v 0.058264 0.378556 -0.031797
v 0.404555 0.573031 -0.034368
v 0.379287 0.576371 -0.034083
v 0.419888 0.562125 -0.013128
v 0.419888 0.562125 0.013127
v 0.408354 0.571362 0.034368
v 0.390113 0.587839 0.043644
v 0.372011 0.604358 0.035961
v 0.354717 0.605408 0.013127
v 0.353143 0.607854 -0.018127
v 0.364066 0.589061 -0.026415
v 0.417228 0.616379 -0.046169
v 0.412029 0.644918 -0.049842
v 0.452971 0.621193 -0.008053
v 0.452971 0.621193 0.012077
v 0.441619 0.624530 0.028363
v 0.420938 0.629825 0.038030
v 0.400667 0.635246 0.033086
v 0.384169 0.640059 0.014084
v 0.385350 0.649170 -0.023363
v 0.401314 0.658364 -0.043565
v 0.496482 0.875608 -0.021847
v 0.513837 0.870550 -0.013808
v 0.514813 0.870227 0.012119
v 0.491442 0.877110 0.022046
v 0.476549 0.881469 0.006750
v 0.478820 0.880816 -0.013210
v -0.081546 0.484332 0.106668
v -0.054640 0.487019 0.119689
v -0.095104 0.497106 0.083138
v -0.087373 0.517857 0.062882
v -0.022418 0.524343 0.094318
v -0.030149 0.503592 0.114574
v -0.035976 0.537116 0.070788
v -0.062881 0.534429 0.057767
v -0.061039 0.612758 0.199356
v -0.039100 0.592297 0.200165
v -0.069306 0.634259 0.180120
v -0.059058 0.644204 0.153724
v -0.006092 0.594806 0.155676
v -0.016340 0.584860 0.182072
v -0.014359 0.616306 0.136440
v -0.036298 0.636768 0.135631
v 0.107834 0.784301 0.303979
v 0.120886 0.774151 0.301788
v 0.104700 0.792452 0.296686
v 0.112539 0.795861 0.282364
v 0.128666 0.777494 0.287419
v 0.125532 0.785646 0.280126
v 0.334233 0.671374 -0.168831
v 0.316369 0.661087 -0.166291
v 0.300531 0.662243 -0.152905
v 0.295996 0.674164 -0.136513
v 0.343658 0.687078 -0.159035
v 0.339123 0.699000 -0.142643
v 0.323285 0.700155 -0.129256
v 0.305421 0.689868 -0.126717
v 0.263435 0.806699 -0.222830
v 0.253377 0.809061 -0.208680
v 0.279735 0.813513 -0.220259
v 0.280389 0.819506 -0.206175
v 0.266679 0.818629 -0.196783
vn -0.2045 0.1211 0.9713
vn 0.7854 -0.1951 0.5874
vn 0.5893 0.6560 0.4717
vn 0.3221 -0.6617 0.6771
vn -0.1294 0.4436 0.8868
vn 0.3090 -0.0000 -0.9511
vn -0.9480 -0.3166 -0.0320
vn 0.8090 -0.0000 -0.5878
vn 1.0000 -0.0000 -0.0000
vn 0.8090 -0.0000 0.5878
vn 0.3090 -0.0000 0.9511
vn -0.3090 -0.0000 0.9511
vn -0.8090 -0.0000 0.5878
vn -1.0000 -0.0000 -0.0000
vn 0.7843 -0.2207 -0.5797
vn -0.8090 -0.0000 -0.5878
vn -0.3090 -0.0000 -0.9511
vn 0.9238 -0.3830 -0.0000
vn -0.0000 -1.0000 -0.0000
vn -0.2834 0.1211 -0.9513
vn -0.8068 0.2126 -0.5512
vn -0.9719 0.2347 0.0177
vn -0.7923 0.1861 0.5811
vn -0.2014 0.0725 0.9768
vn 0.1697 -0.0194 0.9853
vn 0.7849 -0.2183 0.5799
vn 0.1072 0.0046 -0.9942
vn 0.9626 -0.2710 -0.0000
vn -0.4780 0.6816 0.5539
vn -0.1660 0.1806 -0.9695
vn 0.3571 -0.2410 0.9025
vn 0.7746 -0.2947 0.5597
vn 0.1116 0.0425 -0.9928
vn 0.7577 0.6484 -0.0742
vn 0.1855 0.0123 0.9826
vn 0.7769 -0.2891 -0.5593
vn -0.8715 -0.4835 0.0815
vn -0.0032 0.0947 0.9955
vn 0.7218 -0.3908 0.5712
vn 0.5096 -0.6402 0.5748
vn 0.1174 -0.1277 -0.9848
vn -0.5765 0.8144 0.0662
vn 0.2056 -0.2623 0.9428
vn 0.4921 -0.6115 -0.6196
vn -0.3799 0.5336 -0.7556
vn -0.0669 0.1016 0.9926
vn 0.6239 -0.7815 -0.0000
vn -0.1703 0.2653 -0.9490
vn 0.4122 -0.0406 -0.9102
vn -0.6590 0.4319 0.6158
vn -0.7686 0.6301 0.1104
vn 0.3703 -0.1373 0.9187
vn 0.6918 -0.3505 -0.6313
vn -0.1541 0.8519 0.5005
vn -0.1705 0.2502 0.9531
vn 0.8725 -0.4887 -0.0000
vn -0.8450 -0.5213 0.1195
vn -0.6073 0.5551 0.5683
vn 0.2816 0.9595 0.0001
vn -0.9307 0.3657 -0.0021
vn 0.3931 -0.0546 0.9179
vn 0.9707 -0.2392 -0.0223
vn 0.7278 -0.1928 -0.6581
vn -0.8063 0.3464 -0.4795
vn -0.3269 0.2347 -0.9155
vn -0.6697 0.2800 0.6878
vn -0.9383 0.3066 -0.1599
vn 0.9160 0.0979 -0.3890
vn -0.4434 0.5986 -0.6671
vn -0.3325 0.2671 -0.9045
vn -0.7892 -0.1382 -0.5985
vn 0.2373 0.6232 -0.7452
vn -0.3333 -0.5359 0.7757
vn 0.7745 0.2578 0.5777
vn -0.7049 0.3028 0.6414
vn 0.7580 -0.6398 0.1266
vn 0.3457 0.4325 -0.8327
vn -0.4003 -0.5049 0.7648
vn 0.4434 -0.5988 0.6670
vn 0.3996 0.5009 -0.7677
vn 0.9364 -0.3159 0.1530
vn -0.9184 -0.1110 0.3797
vn 0.5907 0.6522 0.4751
vn 0.8062 -0.1909 -0.5599
vn 0.5922 0.6484 0.4785
vn -0.2271 0.7665 -0.6007
vn -0.6509 0.7581 -0.0405
vn -0.2386 -0.3142 0.9189
vn -0.6772 -0.4541 -0.5789
vn -0.7513 0.1184 0.6492
vn 0.7259 -0.2928 -0.6224
vn 0.0899 -0.7996 -0.5938
vn -0.5265 -0.8155 -0.2404
vn 0.8518 0.3322 -0.4051
vn 0.5031 0.8634 0.0383
vn -0.3062 0.8794 -0.3646
vn -0.3110 0.8796 -0.3599
vn 0.1499 -0.2978 -0.9428
vn 0.4968 0.5892 0.6372
vn 0.7077 0.0158 -0.7063
vn 0.9116 0.3944 -0.1157
vt 0.869347 0.575667
vt 0.873361 0.589629
vt 0.868202 0.575973
vt 0.871157 0.575179
vt 0.874572 0.589273
vt 0.870516 0.575367
vt 0.852369 0.583877
vt 0.852833 0.584010
vt 0.851656 0.584395
vt 0.844639 0.573126
vt 0.843353 0.573546
vt 0.863830 0.579641
vt 0.860636 0.586306
vt 0.862820 0.579059
vt 0.847601 0.536610
vt 0.845563 0.536610
vt 0.845563 0.543548
vt 0.847601 0.543548
vt 0.862288 0.578172
vt 0.859973 0.585823
vt 0.862544 0.577498
vt 0.848862 0.536610
vt 0.848862 0.543548
vt 0.843524 0.536610
vt 0.843524 0.543548
vt 0.842264 0.536610
vt 0.842264 0.543548
vt 0.850939 0.555555
vt 0.852178 0.555324
vt 0.853947 0.559593
vt 0.848581 0.556693
vt 0.846850 0.558764
vt 0.845684 0.557827
vt 0.845709 0.557640
vt 0.846986 0.558780
vt 0.848657 0.556756
vt 0.866583 0.574228
vt 0.865606 0.574287
vt 0.849622 0.562991
vt 0.849211 0.561406
vt 0.848855 0.561469
vt 0.852558 0.561405
vt 0.842475 0.567597
vt 0.843859 0.568534
vt 0.853417 0.560285
vt 0.843530 0.570428
vt 0.844296 0.569706
vt 0.849489 0.562976
vt 0.840189 0.568167
vt 0.840955 0.567446
vt 0.868636 0.572363
vt 0.869288 0.571841
vt 0.866994 0.572646
vt 0.868422 0.572458
vt 0.865517 0.574425
vt 0.867606 0.573294
vt 0.866134 0.573363
vt 0.874510 0.589292
vt 0.869138 0.574907
vt 0.868844 0.576519
vt 0.873616 0.589554
vt 0.867336 0.576760
vt 0.867270 0.576245
vt 0.871157 0.575179
vt 0.868238 0.577279
vt 0.872700 0.589824
vt 0.872490 0.589886
vt 0.841646 0.575917
vt 0.842226 0.576479
vt 0.840626 0.569340
vt 0.844751 0.574903
vt 0.845218 0.573688
vt 0.843512 0.576059
vt 0.842010 0.570276
vt 0.851479 0.584856
vt 0.842114 0.574702
vt 0.852656 0.584471
vt 0.851942 0.584989
vt 0.860448 0.585661
vt 0.863439 0.577433
vt 0.864448 0.578014
vt 0.864981 0.578902
vt 0.864724 0.579575
vt 0.861406 0.586384
vt 0.861301 0.586047
s 0
usemtl Winter_Pack_Texture
f 56/1/1 64/2/1 57/3/1
f 54/4/2 63/5/2 55/6/2
f 84/7/3 87/8/3 83/9/3
f 80/10/4 84/7/4 76/11/4
f 95/12/5 101/13/5 96/14/5
f 3/15/6 1/16/6 2/17/6 4/18/6
f 92/19/7 98/20/7 91/21/7
f 5/22/8 3/15/8 4/18/8 6/23/8
f 7/22/9 5/22/9 6/23/9 8/23/9
f 9/15/10 7/22/10 8/23/10 10/18/10
f 11/16/11 9/15/11 10/18/11 12/17/11
f 13/24/12 11/16/12 12/17/12 14/25/12
f 15/26/13 13/24/13 14/25/13 16/27/13
f 17/26/14 15/26/14 16/27/14 18/27/14
f 21/28/15 23/29/15 6/23/15 4/18/15
f 19/24/16 17/26/16 18/27/16 20/25/16
f 1/16/17 19/24/17 20/25/17 2/17/17
f 33/30/18 34/30/18 24/29/18 23/29/18
f 3/15/19 5/22/19 7/22/19 9/15/19 11/16/19 13/24/19 15/26/19 17/26/19 19/24/19 1/16/19
f 22/31/20 2/17/20 20/25/20 30/32/20
f 29/33/21 30/32/21 20/25/21 18/27/21
f 28/34/22 29/33/22 18/27/22 16/27/22
f 28/34/23 16/27/23 14/25/23 27/35/23
f 26/36/24 27/35/24 14/25/24 12/17/24
f 26/36/25 12/17/25 10/18/25 25/28/25
f 25/28/26 10/18/26 8/23/26 24/29/26
f 22/31/27 21/28/27 4/18/27 2/17/27
f 24/29/28 8/23/28 6/23/28 23/29/28
f 47/37/29 48/38/29 38/39/29 37/40/29
f 40/41/30 32/42/30 22/31/30 30/32/30
f 68/43/31 27/35/31 37/40/31 72/44/31
f 35/45/32 25/28/32 24/29/32 34/30/32
f 31/45/33 21/28/33 22/31/33 32/42/33
f 73/46/34 71/47/34 38/39/34 39/48/34
f 35/45/35 36/42/35 26/36/35 25/28/35
f 31/45/36 33/30/36 23/29/36 21/28/36
f 69/49/37 29/33/37 28/34/37 67/50/37
f 37/40/38 27/35/38 26/36/38 36/42/38
f 55/6/39 45/51/39 44/52/39 54/4/39
f 45/51/40 35/45/40 34/30/40 44/52/40
f 42/53/41 41/54/41 31/45/41 32/42/41
f 49/55/42 39/48/42 38/39/42 48/38/42
f 46/56/43 36/42/43 35/45/43 45/51/43
f 41/54/44 43/52/44 33/30/44 31/45/44
f 50/57/45 40/41/45 39/48/45 49/55/45
f 47/37/46 37/40/46 36/42/46 46/56/46
f 43/52/47 44/52/47 34/30/47 33/30/47
f 50/57/48 42/53/48 32/42/48 40/41/48
f 62/58/49 51/59/49 52/60/49 61/61/49
f 96/14/50 92/19/50 49/55/50 59/62/50
f 58/63/51 59/62/51 49/55/51 48/38/51
f 56/1/52 46/56/52 45/51/52 55/6/52
f 51/59/53 53/64/53 43/52/53 41/54/53
f 96/14/54 59/62/54 60/65/54 95/12/54
f 57/3/55 47/37/55 46/56/55 56/1/55
f 53/64/56 54/4/56 44/52/56 43/52/56
f 92/19/57 91/21/57 50/57/57 49/55/57
f 58/63/58 48/38/58 47/37/58 57/3/58
f 63/5/59 62/58/59 61/61/59 66/66/59 65/67/59 64/2/59
f 65/67/60 66/66/60 59/62/60 58/63/60
f 64/2/61 56/1/61 55/6/61 63/5/61
f 63/5/62 54/4/62 53/64/62 62/58/62
f 53/64/63 51/59/63 62/58/63
f 60/65/64 59/62/64 66/66/64
f 61/61/65 52/60/65 60/65/65 66/66/65
f 65/67/66 58/63/66 57/3/66 64/2/66
f 77/68/67 78/69/67 70/70/67 69/49/67
f 81/71/68 79/72/68 71/47/68 73/46/68
f 78/69/69 82/73/69 74/74/69 70/70/69
f 70/70/70 74/74/70 40/41/70 30/32/70
f 70/70/71 30/32/71 29/33/71 69/49/71
f 74/74/72 73/46/72 39/48/72 40/41/72
f 67/50/73 28/34/73 27/35/73 68/43/73
f 72/44/74 37/40/74 38/39/74 71/47/74
f 85/75/75 77/68/75 75/76/75 83/9/75
f 87/8/76 84/7/76 80/10/76 79/72/76
f 88/77/77 81/71/77 82/73/77 86/78/77
f 75/76/78 67/50/78 68/43/78 76/11/78
f 80/10/79 76/11/79 68/43/79 72/44/79
f 82/73/80 81/71/80 73/46/80 74/74/80
f 79/72/81 80/10/81 72/44/81 71/47/81
f 77/68/82 69/49/82 67/50/82 75/76/82
f 88/77/83 85/75/83 83/9/83 87/8/83
f 87/8/84 79/72/84 81/71/84 88/77/84
f 86/78/85 85/75/85 88/77/85
f 82/73/86 78/69/86 86/78/86
f 85/75/87 86/78/87 78/69/87 77/68/87
f 83/9/88 75/76/88 76/11/88 84/7/88
f 97/79/89 90/80/89 91/21/89 98/20/89
f 98/20/90 92/19/90 96/14/90 101/13/90
f 89/81/91 93/82/91 51/59/91 41/54/91
f 89/81/92 41/54/92 42/53/92 90/80/92
f 90/80/93 42/53/93 50/57/93 91/21/93
f 93/82/94 94/83/94 52/60/94 51/59/94
f 94/83/95 95/12/95 60/65/95 52/60/95
f 100/84/96 97/79/96 98/20/96 101/13/96
f 97/79/97 100/84/97 99/85/97
f 97/79/98 99/85/98 89/81/98 90/80/98
f 100/84/99 101/13/99 95/12/99 94/83/99
f 93/82/100 89/81/100 99/85/100
f 99/85/101 100/84/101 94/83/101 93/82/101
