# Blender 5.0.0
# www.blender.org
mtllib Dead_Bush_B.mtl
o Dead_Bush_B
v 0.092458 -0.071890 -0.041370
v 0.110544 0.038039 0.022057
v 0.087486 -0.071956 0.009598
v 0.105486 0.041646 0.061303
v 0.052611 -0.071717 0.052901
v 0.074479 0.062189 0.092993
v -0.000533 -0.070967 0.069530
v 0.035184 0.092079 0.117233
v -0.050740 -0.070457 0.054823
v -0.004112 0.118572 0.113733
v -0.079424 -0.070143 0.012876
v -0.031102 0.132022 0.074254
v -0.075667 -0.070537 -0.040502
v -0.031544 0.128280 0.022361
v -0.040860 -0.071201 -0.085255
v -0.005635 0.109013 -0.024172
v 0.012457 -0.071462 -0.101072
v 0.039073 0.078073 -0.034952
v 0.063518 -0.071803 -0.083925
v 0.084169 0.051077 -0.015843
v 0.198515 0.150480 0.076200
v 0.185036 0.162176 0.039982
v 0.171894 0.170574 0.112917
v 0.133404 0.202155 0.139517
v 0.092481 0.231128 0.131465
v 0.080848 0.240861 0.094038
v 0.097219 0.272665 0.056653
v 0.098984 0.225872 0.033628
v 0.130993 0.201524 0.012104
v 0.168154 0.190112 0.000527
v 0.272540 0.228166 0.042407
v 0.267236 0.231881 0.016860
v 0.257512 0.238691 0.070634
v 0.229892 0.258035 0.099547
v 0.200553 0.278583 0.114609
v 0.177600 0.294658 0.093204
v 0.156952 0.295541 0.027180
v 0.197008 0.294736 0.011798
v 0.204913 0.272334 -0.000157
v 0.193226 0.223873 -0.007809
v 0.364574 0.301089 -0.038500
v 0.335282 0.324479 -0.038029
v 0.387495 0.290667 0.031246
v 0.350311 0.337259 0.077429
v 0.334353 0.373523 0.066061
v 0.314177 0.385117 0.032171
v 0.314617 0.392397 -0.014252
v 0.319386 0.357563 -0.026595
v 0.392122 0.353051 -0.056021
v 0.407237 0.408021 -0.061453
v 0.383336 0.287653 -0.005755
v 0.377892 0.309289 0.059925
v 0.383469 0.401584 0.061758
v 0.368024 0.423527 0.033563
v 0.381654 0.433522 -0.022072
v 0.411000 0.436071 -0.052111
v 0.565892 0.475513 -0.016476
v 0.578114 0.472428 0.002131
v 0.574607 0.475725 0.032150
v 0.551990 0.484568 0.044601
v 0.538456 0.489230 0.038458
v 0.528930 0.491737 0.020707
v 0.540690 0.484796 -0.014052
v -0.000858 0.366282 -0.145781
v 0.006699 0.396040 -0.116418
v 0.021187 0.351061 -0.180857
v 0.059939 0.359248 -0.200869
v 0.077347 0.431740 -0.131882
v 0.039081 0.423180 -0.110772
v 0.099495 0.416476 -0.166453
v 0.092402 0.386334 -0.194759
v -0.062194 0.551806 -0.223650
v -0.053980 0.545569 -0.181056
v -0.037495 0.552983 -0.260716
v 0.005738 0.548396 -0.270244
v 0.024570 0.533268 -0.170284
v -0.018052 0.537916 -0.159041
v 0.049380 0.534360 -0.206836
v 0.041771 0.540658 -0.247730
v -0.014665 0.678917 -0.167639
v -0.011443 0.676574 -0.151214
v -0.005310 0.679358 -0.181709
v 0.011142 0.677640 -0.185181
v 0.010750 0.672692 -0.141506
v 0.028275 0.672427 -0.159596
v 0.025053 0.674769 -0.176021
v 0.408753 0.500721 -0.238144
v 0.378281 0.487781 -0.234349
v 0.358971 0.487911 -0.214443
v 0.364054 0.499461 -0.190089
v 0.433031 0.518710 -0.223605
v 0.438353 0.529873 -0.199251
v 0.422234 0.528795 -0.179349
v 0.391169 0.516554 -0.175553
v 0.394508 0.752132 -0.319112
v 0.375927 0.748256 -0.318142
v 0.364547 0.745350 -0.306535
v 0.367065 0.745214 -0.291091
v 0.415027 0.750632 -0.298581
v 0.403607 0.746502 -0.281834
v 0.383253 0.745702 -0.280860
vn 0.3285 -0.2466 0.9117
vn -0.1843 0.5437 0.8188
vn 0.5753 -0.5845 0.5722
vn 0.9694 -0.2164 0.1163
vn 0.1214 0.9857 0.1167
vn 0.9764 0.0059 -0.2161
vn 0.6519 -0.3538 0.6707
vn 0.2912 -0.3227 0.9006
vn -0.2587 -0.2240 0.9396
vn -0.8232 0.0254 0.5672
vn -0.9709 0.2362 -0.0398
vn -0.7459 0.3429 -0.5710
vn -0.1285 0.3778 -0.9169
vn 0.4703 -0.5259 0.7086
vn 0.4152 0.3430 -0.8426
vn 0.8249 0.1677 -0.5398
vn -0.0093 -1.0000 0.0023
vn 0.5221 -0.2203 0.8239
vn 0.7217 -0.3573 -0.5929
vn 0.1524 0.1344 -0.9791
vn -0.0601 0.4401 -0.8959
vn -0.3800 0.5905 -0.7120
vn -0.7311 0.6773 0.0825
vn -0.6706 0.5466 0.5015
vn -0.1648 -0.0330 0.9858
vn 0.8125 -0.5630 -0.1510
vn 0.2579 -0.4008 0.8791
vn 0.4453 -0.8920 -0.0774
vn 0.3697 -0.5992 -0.7102
vn -0.1977 0.6939 0.6924
vn 0.1973 0.1427 0.9699
vn 0.5686 -0.7408 -0.3577
vn 0.7811 0.6244 -0.0009
vn -0.3361 0.7737 0.5370
vn 0.6688 -0.4081 0.6213
vn -0.6882 -0.7070 -0.1630
vn -0.3742 0.8797 0.2935
vn 0.2762 -0.8066 -0.5226
vn -0.2418 0.0503 -0.9690
vn -0.3723 0.2203 -0.9016
vn -0.3811 0.2194 -0.8981
vn -0.4930 0.8569 0.1508
vn -0.2771 0.7552 0.5940
vn 0.2032 0.0987 0.9742
vn 0.3638 -0.4005 0.8410
vn 0.4484 -0.7018 0.5535
vn -0.5091 0.7818 0.3601
vn 0.3399 -0.1846 -0.9222
vn -0.5460 0.8352 0.0661
vn 0.0928 0.8408 0.5333
vn 0.6267 -0.5261 -0.5749
vn -0.0337 0.2529 0.9669
vn -0.9794 0.1294 -0.1552
vn -0.4194 0.6761 0.6058
vn 0.3420 0.9376 -0.0631
vn 0.5566 -0.5751 -0.5996
vn -0.3845 0.9204 0.0711
vn 0.3712 -0.2917 0.8815
vn -0.2864 0.9264 -0.2444
vn 0.6937 -0.7177 0.0608
vn 0.1209 0.3608 -0.9248
vn -0.3092 0.7595 0.5722
vn -0.2925 -0.4135 -0.8623
vn 0.7638 0.5033 0.4040
vn 0.4232 -0.1866 -0.8866
vn 0.5049 -0.5031 -0.7014
vn -0.2513 -0.8160 -0.5205
vn 0.8700 0.0175 -0.4927
vn -0.9154 -0.1779 0.3612
vn 0.1924 0.7909 0.5809
vn -0.7353 0.4839 -0.4744
vn 0.9676 0.2011 -0.1525
vn 0.2333 -0.1743 0.9566
vn -0.9346 -0.2223 0.2775
vn -0.4153 0.1945 0.8886
vn 0.9272 0.2465 -0.2819
vn 0.3048 0.4837 0.8205
vn -0.7958 -0.4229 -0.4333
vn 0.1279 0.9854 0.1123
vn 0.1272 0.9851 0.1155
vn 0.5450 0.4460 -0.7100
vn 0.7892 -0.0679 0.6104
vn -0.1222 0.5488 -0.8270
vn -0.9415 0.2555 0.2196
vn -0.4830 -0.0264 0.8752
vn -0.6870 -0.2298 -0.6893
vn -0.0225 0.4204 0.9070
vn -0.5654 0.3237 0.7587
vn 0.7330 -0.5596 -0.3868
vn -0.1726 -0.7069 -0.6859
vn -0.7899 -0.3933 -0.4705
vn 0.9579 -0.2841 -0.0416
vn 0.9522 0.1444 0.2691
vn -0.0389 0.9991 0.0147
vn -0.1848 0.9494 0.2540
vn -0.1253 0.9818 0.1429
vn 0.0124 -0.3060 -0.9520
vn 0.6480 -0.1944 -0.7364
vn 0.7268 0.3434 0.5949
vn -0.9831 0.0800 0.1648
vt 0.893826 0.507994
vt 0.895241 0.506600
vt 0.904732 0.515925
vt 0.903984 0.516199
vt 0.895616 0.511467
vt 0.895769 0.505556
vt 0.905837 0.515499
vt 0.879636 0.485901
vt 0.879905 0.485904
vt 0.880881 0.491839
vt 0.880608 0.492034
vt 0.874295 0.526314
vt 0.875469 0.526115
vt 0.874121 0.526440
vt 0.898292 0.517791
vt 0.897242 0.530299
vt 0.898579 0.518393
vt 0.877753 0.485914
vt 0.878934 0.493143
vt 0.874884 0.485954
vt 0.876813 0.494757
vt 0.872173 0.485982
vt 0.874691 0.496187
vt 0.873234 0.496914
vt 0.870625 0.485999
vt 0.873210 0.496711
vt 0.870828 0.485977
vt 0.874609 0.495671
vt 0.872707 0.485942
vt 0.877023 0.494001
vt 0.875585 0.485927
vt 0.885631 0.497910
vt 0.884193 0.498995
vt 0.878342 0.485909
vt 0.879457 0.492543
vt 0.887325 0.503717
vt 0.882115 0.500700
vt 0.888816 0.502673
vt 0.884903 0.498542
vt 0.883991 0.500050
vt 0.881985 0.500666
vt 0.880257 0.501980
vt 0.880162 0.504507
vt 0.879278 0.502790
vt 0.879906 0.502264
vt 0.889341 0.502305
vt 0.895601 0.505330
vt 0.889627 0.502104
vt 0.885345 0.501873
vt 0.877023 0.512633
vt 0.875274 0.511168
vt 0.883387 0.505742
vt 0.885741 0.504826
vt 0.880285 0.512271
vt 0.879089 0.513095
vt 0.885549 0.505698
vt 0.885976 0.504489
vt 0.884502 0.505694
vt 0.876057 0.508739
vt 0.874867 0.509561
vt 0.894596 0.506041
vt 0.893015 0.507304
vt 0.892157 0.509090
vt 0.891899 0.510971
vt 0.891875 0.510578
vt 0.892965 0.509952
vt 0.894568 0.516751
vt 0.895518 0.513191
vt 0.896032 0.517674
vt 0.896084 0.508847
vt 0.896900 0.511815
vt 0.905450 0.515462
vt 0.894782 0.512652
vt 0.897103 0.513329
vt 0.897709 0.518335
vt 0.894294 0.516128
vt 0.904105 0.515960
vt 0.903539 0.516304
vt 0.906125 0.515292
vt 0.875223 0.519393
vt 0.878149 0.509181
vt 0.872889 0.519641
vt 0.877579 0.518636
vt 0.876240 0.518577
vt 0.877168 0.518976
vt 0.879902 0.510644
vt 0.874626 0.526464
vt 0.871555 0.519578
vt 0.876266 0.526216
vt 0.876440 0.526090
vt 0.873938 0.518828
vt 0.871999 0.519241
vt 0.875515 0.526371
vt 0.894595 0.530027
vt 0.895209 0.530184
vt 0.895336 0.516121
vt 0.895605 0.530046
vt 0.896704 0.530089
vt 0.894731 0.530020
vt 0.896981 0.516819
vt 0.896212 0.530393
s 0
usemtl Winter_Pack_Texture
f 44/1/1 52/2/1 60/3/1
f 60/3/2 61/4/2 53/5/2
f 43/6/3 59/7/3 52/2/3
f 3/8/4 1/9/4 2/10/4 4/11/4
f 81/12/5 84/13/5 80/14/5
f 91/15/6 99/16/6 92/17/6
f 5/18/7 3/8/7 4/11/7 6/19/7
f 7/20/8 5/18/8 6/19/8 8/21/8
f 9/22/9 7/20/9 8/21/9 10/23/9
f 12/24/10 11/25/10 9/22/10 10/23/10
f 14/26/11 13/27/11 11/25/11 12/24/11
f 16/28/12 15/29/12 13/27/12 14/26/12
f 18/30/13 17/31/13 15/29/13 16/28/13
f 21/32/14 23/33/14 6/19/14 4/11/14
f 19/34/15 17/31/15 18/30/15 20/35/15
f 1/9/16 19/34/16 20/35/16 2/10/16
f 5/18/17 7/20/17 9/22/17 11/25/17 13/27/17 15/29/17 17/31/17 19/34/17 1/9/17 3/8/17
f 34/36/18 24/37/18 23/33/18 33/38/18
f 22/39/19 2/10/19 20/35/19 30/40/19
f 29/41/20 30/40/20 20/35/20 18/30/20
f 29/41/21 18/30/21 16/28/21 28/42/21
f 28/42/22 16/28/22 14/26/22 27/43/22
f 26/44/23 27/43/23 14/26/23 12/24/23
f 26/44/24 12/24/24 10/23/24 25/45/24
f 25/45/25 10/23/25 8/21/25 24/37/25
f 22/39/26 21/32/26 4/11/26 2/10/26
f 23/33/27 24/37/27 8/21/27 6/19/27
f 32/46/28 51/47/28 43/6/28 31/48/28
f 40/49/29 32/46/29 22/39/29 30/40/29
f 69/50/30 65/51/30 27/43/30 37/52/30
f 35/53/31 25/45/31 24/37/31 34/36/31
f 31/48/32 21/32/32 22/39/32 32/46/32
f 70/54/33 68/55/33 38/56/33 39/57/33
f 36/58/34 26/44/34 25/45/34 35/53/34
f 33/38/35 23/33/35 21/32/35 31/48/35
f 66/59/36 29/41/36 28/42/36 64/60/36
f 36/58/37 37/52/37 27/43/37 26/44/37
f 32/46/38 40/49/38 41/61/38 51/47/38
f 39/57/39 42/62/39 41/61/39 40/49/39
f 39/57/40 38/56/40 48/63/40 42/62/40
f 38/56/41 37/52/41 47/64/41 48/63/41
f 37/52/42 36/58/42 46/65/42 47/64/42
f 35/53/43 45/66/43 46/65/43 36/58/43
f 34/36/44 44/1/44 45/66/44 35/53/44
f 33/38/45 52/2/45 44/1/45 34/36/45
f 31/48/46 43/6/46 52/2/46 33/38/46
f 90/67/47 47/64/47 55/68/47 94/69/47
f 49/70/48 50/71/48 57/72/48
f 54/73/49 55/68/49 47/64/49 46/65/49
f 94/69/50 55/68/50 56/74/50 93/75/50
f 41/61/51 49/70/51 51/47/51
f 60/3/52 53/5/52 45/66/52 44/1/52
f 90/67/53 89/76/53 48/63/53 47/64/53
f 54/73/54 46/65/54 45/66/54 53/5/54
f 63/77/55 62/78/55 61/4/55 60/3/55 59/7/55 58/79/55 57/72/55
f 57/72/56 58/79/56 51/47/56 49/70/56
f 55/68/57 54/73/57 62/78/57
f 52/2/58 59/7/58 60/3/58
f 62/78/59 63/77/59 56/74/59 55/68/59
f 58/79/60 59/7/60 43/6/60 51/47/60
f 63/77/61 57/72/61 50/71/61 56/74/61
f 62/78/62 54/73/62 53/5/62 61/4/62
f 75/80/63 67/81/63 66/59/63 74/82/63
f 78/83/64 76/84/64 68/55/64 70/54/64
f 79/85/65 71/86/65 67/81/65 75/80/65
f 67/81/66 71/86/66 40/49/66 30/40/66
f 67/81/67 30/40/67 29/41/67 66/59/67
f 71/86/68 70/54/68 39/57/68 40/49/68
f 65/51/69 64/60/69 28/42/69 27/43/69
f 68/55/70 69/50/70 37/52/70 38/56/70
f 82/87/71 74/82/71 72/88/71 80/14/71
f 86/89/72 85/90/72 78/83/72 79/85/72
f 77/91/73 76/84/73 84/13/73
f 73/92/74 72/88/74 64/60/74 65/51/74
f 77/91/75 73/92/75 65/51/75 69/50/75
f 78/83/76 70/54/76 71/86/76 79/85/76
f 76/84/77 77/91/77 69/50/77 68/55/77
f 72/88/78 74/82/78 66/59/78 64/60/78
f 84/13/79 85/90/79 82/87/79 80/14/79
f 85/90/80 86/89/80 83/93/80 82/87/80
f 83/93/81 86/89/81 79/85/81 75/80/81
f 85/90/82 84/13/82 76/84/82 78/83/82
f 83/93/83 75/80/83 74/82/83 82/87/83
f 80/14/84 72/88/84 73/92/84 81/12/84
f 81/12/85 73/92/85 77/91/85 84/13/85
f 97/94/86 96/95/86 88/96/86 89/76/86
f 101/97/87 94/69/87 93/75/87 100/98/87
f 98/99/88 90/67/88 94/69/88 101/97/88
f 87/100/89 91/15/89 49/70/89 41/61/89
f 88/96/90 87/100/90 41/61/90 42/62/90
f 89/76/91 88/96/91 42/62/91 48/63/91
f 91/15/92 92/17/92 50/71/92 49/70/92
f 93/75/93 56/74/93 50/71/93 92/17/93
f 101/97/94 100/98/94 97/94/94 98/99/94
f 95/101/95 96/95/95 99/16/95
f 100/98/96 99/16/96 96/95/96 97/94/96
f 96/95/97 95/101/97 87/100/97 88/96/97
f 95/101/98 99/16/98 91/15/98 87/100/98
f 100/98/99 93/75/99 92/17/99 99/16/99
f 98/99/100 97/94/100 89/76/100 90/67/100
