# Blender 5.0.0
# www.blender.org
mtllib Dead_Bush_C.mtl
o Dead_Bush_C
v -0.004361 -0.086437 -0.085944
v -0.027444 0.076046 -0.087483
v 0.043758 -0.087813 -0.069774
v 0.017950 0.051974 -0.074379
v 0.073604 -0.088653 -0.027006
v 0.048008 0.036367 -0.033578
v 0.073464 -0.088735 0.026008
v 0.051249 0.035186 0.019336
v 0.044476 -0.087686 0.069077
v 0.026434 0.048883 0.064151
v -0.003986 -0.086442 0.085657
v -0.016957 0.072225 0.083750
v -0.052470 -0.085181 0.069466
v -0.062351 0.096297 0.070647
v -0.083551 -0.084731 0.026628
v -0.092408 0.111904 0.029846
v -0.083640 -0.084721 -0.026398
v -0.095649 0.113085 -0.023068
v -0.052803 -0.085186 -0.069364
v -0.070835 0.099388 -0.067884
v 0.045723 0.229999 -0.083750
v -0.001681 0.254819 -0.079774
v 0.069938 0.222633 -0.053327
v 0.070842 0.222664 -0.015205
v 0.047531 0.229782 0.016009
v -0.001217 0.262680 0.051012
v -0.016930 0.312923 0.050479
v -0.051388 0.283796 0.016694
v -0.051668 0.288553 -0.026135
v -0.020197 0.312540 -0.061994
v 0.116857 0.301814 -0.079894
v 0.058487 0.324978 -0.096520
v 0.139726 0.302283 -0.056265
v 0.142698 0.313027 -0.029979
v 0.128080 0.325836 -0.006372
v 0.082445 0.328693 0.014632
v 0.012930 0.328694 0.030945
v 0.023094 0.367912 0.000704
v 0.019799 0.367530 -0.040889
v 0.004120 0.330261 -0.073962
v 0.218083 0.460107 -0.107698
v 0.201386 0.473428 -0.108844
v 0.230366 0.451513 -0.090951
v 0.233079 0.450843 -0.068190
v 0.226522 0.457829 -0.048369
v 0.213432 0.469748 -0.038649
v 0.167490 0.489296 -0.081842
v 0.173515 0.487601 -0.099640
v 0.189234 0.483710 -0.040719
v 0.172387 0.488479 -0.055649
v -0.162926 0.382078 0.067292
v -0.127108 0.389178 0.087935
v -0.181206 0.398250 0.033178
v -0.171239 0.428221 0.005577
v -0.084768 0.445363 0.055412
v -0.094734 0.415392 0.083014
v -0.103048 0.461535 0.021299
v -0.138865 0.454434 0.000656
v -0.234966 0.478389 0.137102
v -0.197163 0.464589 0.148935
v -0.249255 0.502933 0.106234
v -0.231660 0.523845 0.074413
v -0.140398 0.490531 0.102980
v -0.157992 0.469619 0.134801
v -0.154687 0.515075 0.072113
v -0.192489 0.528875 0.060280
v -0.260871 0.576728 0.242241
v -0.247269 0.589169 0.250953
v -0.268022 0.588050 0.225266
v -0.263814 0.615768 0.214052
v -0.215918 0.588089 0.231080
v -0.228514 0.593580 0.245651
v -0.223948 0.603963 0.213002
v -0.245059 0.620180 0.208751
v 0.250587 0.635775 -0.072270
v 0.260235 0.631218 -0.059678
v 0.247541 0.617764 -0.091802
v 0.242901 0.622683 -0.087375
v 0.270844 0.628397 -0.055949
v 0.279215 0.621319 -0.060983
v 0.282413 0.613014 -0.072112
v 0.281434 0.612198 -0.086701
v 0.254536 0.611874 -0.095967
v 0.267844 0.605197 -0.096449
v 0.268517 0.647206 -0.085124
v 0.279544 0.637891 -0.091740
vn 0.3061 0.0302 -0.9515
vn 0.8177 0.1351 -0.5596
vn 0.9820 0.1872 -0.0265
vn 0.8540 0.1541 0.4969
vn 0.3799 0.0613 0.9230
vn -0.3023 -0.0183 0.9530
vn -0.8107 -0.0470 0.5836
vn -0.9981 -0.0533 0.0308
vn 0.7613 -0.1542 -0.6298
vn -0.8474 -0.0599 -0.5276
vn -0.3765 -0.0448 -0.9253
vn -0.0256 -0.9997 0.0002
vn 0.7700 -0.6352 0.0599
vn -0.4039 0.1103 -0.9081
vn -0.8151 0.2024 -0.5429
vn -0.9696 0.2396 0.0505
vn -0.7571 0.2212 0.6148
vn -0.0544 0.1367 0.9891
vn 0.5604 0.1228 0.8191
vn 0.8478 0.0253 0.5297
vn 0.0885 -0.0179 -0.9959
vn 0.9920 -0.1170 -0.0466
vn -0.6145 0.7849 0.0793
vn -0.4131 0.1015 -0.9050
vn 0.3726 -0.0118 0.9279
vn 0.6664 -0.4223 0.6145
vn 0.0546 -0.1402 -0.9886
vn 0.5957 0.8032 -0.0023
vn 0.4616 -0.1508 0.8742
vn 0.5942 -0.5492 -0.5876
vn -0.6638 -0.7467 -0.0430
vn 0.3004 0.2179 0.9286
vn 0.4493 -0.0667 0.8909
vn 0.6002 -0.5011 -0.6234
vn -0.6553 0.6545 -0.3770
vn 0.1785 0.2195 0.9591
vn 0.8470 -0.5314 0.0110
vn -0.3109 0.2021 -0.9287
vn -0.2907 0.6636 0.6893
vn 0.7574 -0.3701 0.5380
vn 0.1208 -0.2227 -0.9674
vn 0.8790 -0.2549 0.4030
vn -0.8346 -0.1625 -0.5263
vn 0.7132 0.6965 0.0789
vn -0.3881 0.3755 -0.8417
vn -0.3599 0.1082 -0.9267
vn -0.6095 -0.3616 -0.7055
vn 0.1772 0.6687 -0.7222
vn -0.2252 -0.6515 0.7244
vn 0.6277 0.3836 0.6773
vn -0.9168 -0.3785 0.1271
vn 0.8419 -0.0264 0.5391
vn 0.4967 0.8150 -0.2984
vn -0.3305 -0.7296 0.5987
vn 0.3813 -0.3517 0.8549
vn 0.3205 0.7561 -0.5707
vn 0.7456 0.2943 0.5978
vn -0.8077 -0.5885 0.0360
vn -0.3156 0.7559 -0.5736
vn 0.8346 0.5463 0.0706
vn -0.9417 0.1608 -0.2954
vn -0.2799 -0.7030 0.6538
vn 0.3473 -0.5071 0.7888
vn -0.8668 0.4839 0.1203
vn 0.5065 -0.0935 0.8571
vn 0.9508 -0.2956 -0.0929
vn -0.7557 0.4328 -0.4915
vn -0.5955 0.3864 0.7043
vn 0.6959 -0.1944 -0.6913
vn -0.0896 0.1541 0.9840
vn -0.2526 0.1927 -0.9482
vn 0.0632 0.0618 -0.9961
vn -0.0964 0.8566 0.5069
vn 0.7175 0.6100 0.3362
vn 0.9893 0.1418 0.0351
vn -0.5731 0.6451 -0.5054
vn -0.2293 0.3674 -0.9014
vn 0.3254 0.0197 -0.9454
vn -0.7330 0.3610 0.5765
vn -0.0225 0.8062 0.5912
vn 0.5803 0.7492 0.3194
vt 0.822356 0.466105
vt 0.821778 0.470174
vt 0.822915 0.469571
vt 0.823561 0.466070
vt 0.823668 0.469181
vt 0.824309 0.466049
vt 0.823749 0.469151
vt 0.824305 0.466047
vt 0.823128 0.469494
vt 0.823579 0.466074
vt 0.822041 0.470079
vt 0.822366 0.466105
vt 0.820904 0.470682
vt 0.821151 0.466136
vt 0.820151 0.471072
vt 0.820373 0.466148
vt 0.820070 0.471102
vt 0.820371 0.466148
vt 0.823611 0.474030
vt 0.824217 0.473846
vt 0.820691 0.470759
vt 0.821143 0.466136
vt 0.824240 0.473847
vt 0.825965 0.475841
vt 0.826039 0.476110
vt 0.821960 0.476098
vt 0.822423 0.474652
vt 0.821172 0.475497
vt 0.821179 0.475378
vt 0.822042 0.476107
vt 0.822435 0.474849
vt 0.823656 0.474025
vt 0.823044 0.477484
vt 0.826783 0.480504
vt 0.826660 0.480525
vt 0.822961 0.477475
vt 0.822569 0.476541
vt 0.823930 0.476409
vt 0.822789 0.476502
vt 0.820093 0.478674
vt 0.819282 0.478017
vt 0.825673 0.476431
vt 0.825392 0.475829
vt 0.819885 0.479829
vt 0.820342 0.479424
vt 0.824530 0.476502
vt 0.818385 0.477839
vt 0.817927 0.478244
vt 0.828139 0.479736
vt 0.827811 0.480035
vt 0.827928 0.479793
vt 0.828235 0.479578
vt 0.826811 0.480482
vt 0.827205 0.480385
vt 0.828303 0.479561
vt 0.827509 0.480127
vt 0.829539 0.483623
vt 0.829459 0.483831
vt 0.818177 0.478995
vt 0.816223 0.480866
vt 0.816664 0.481390
vt 0.818591 0.481170
vt 0.818949 0.480555
vt 0.818988 0.479651
vt 0.817645 0.481516
vt 0.816581 0.480251
vt 0.815932 0.482714
vt 0.815753 0.482998
vt 0.818509 0.480032
vt 0.817058 0.482999
vt 0.816742 0.483136
vt 0.816328 0.483803
vt 0.816857 0.483396
vt 0.817527 0.479906
vt 0.815858 0.483692
vt 0.816272 0.483026
vt 0.828742 0.484193
vt 0.828549 0.483865
vt 0.829249 0.484008
vt 0.829514 0.483603
vt 0.828665 0.483742
vt 0.828983 0.484079
vt 0.829174 0.483427
vt 0.828841 0.483595
vt 0.829191 0.484479
vt 0.829467 0.484246
s 0
usemtl Winter_Pack_Texture
f 1/1/1 2/2/1 4/3/1 3/4/1
f 3/4/2 4/3/2 6/5/2 5/6/2
f 5/6/3 6/5/3 8/7/3 7/8/3
f 7/8/4 8/7/4 10/9/4 9/10/4
f 9/10/5 10/9/5 12/11/5 11/12/5
f 11/12/6 12/11/6 14/13/6 13/14/6
f 13/14/7 14/13/7 16/15/7 15/16/7
f 15/16/8 16/15/8 18/17/8 17/18/8
f 6/5/9 4/3/9 21/19/9 23/20/9
f 17/18/10 18/17/10 20/21/10 19/22/10
f 19/22/11 20/21/11 2/2/11 1/1/11
f 1/1/12 3/4/12 5/6/12 7/8/12 9/10/12 11/12/12 13/14/12 15/16/12 17/18/12 19/22/12
f 24/23/13 23/20/13 33/24/13 34/25/13
f 2/2/14 20/21/14 30/26/14 22/27/14
f 20/21/15 18/17/15 29/28/15 30/26/15
f 18/17/16 16/15/16 28/29/16 29/28/16
f 16/15/17 14/13/17 27/30/17 28/29/17
f 14/13/18 12/11/18 26/31/18 27/30/18
f 12/11/19 10/9/19 25/32/19 26/31/19
f 10/9/20 8/7/20 24/23/20 25/32/20
f 4/3/21 2/2/21 22/27/21 21/19/21
f 8/7/22 6/5/22 23/20/22 24/23/22
f 38/33/23 50/34/23 47/35/23 39/36/23
f 22/27/24 30/26/24 40/37/24 32/38/24
f 27/30/25 37/39/25 56/40/25 52/41/25
f 25/32/26 24/23/26 34/25/26 35/42/26
f 21/19/27 22/27/27 32/38/27 31/43/27
f 38/33/28 39/36/28 57/44/28 55/45/28
f 26/31/29 25/32/29 35/42/29 36/46/29
f 23/20/30 21/19/30 31/43/30 33/24/30
f 29/28/31 28/29/31 51/47/31 53/48/31
f 27/30/32 26/31/32 36/46/32 37/39/32
f 35/42/33 45/49/33 46/50/33 36/46/33
f 31/43/34 41/51/34 43/52/34 33/24/34
f 39/36/35 47/35/35 48/53/35 40/37/35
f 36/46/36 46/50/36 49/54/36 37/39/36
f 33/24/37 43/52/37 44/55/37 34/25/37
f 48/53/38 42/56/38 32/38/38 40/37/38
f 49/54/39 50/34/39 38/33/39 37/39/39
f 34/25/40 44/55/40 45/49/40 35/42/40
f 32/38/41 42/56/41 41/51/41 31/43/41
f 45/49/42 44/55/42 81/57/42 80/58/42
f 54/59/43 53/48/43 61/60/43 62/61/43
f 55/45/44 57/44/44 65/62/44 63/63/44
f 58/64/45 54/59/45 62/61/45 66/65/45
f 40/37/46 30/26/46 54/59/46 58/64/46
f 30/26/47 29/28/47 53/48/47 54/59/47
f 39/36/48 40/37/48 58/64/48 57/44/48
f 28/29/49 27/30/49 52/41/49 51/47/49
f 37/39/50 38/33/50 55/45/50 56/40/50
f 61/60/51 59/66/51 67/67/51 69/68/51
f 64/69/52 63/63/52 71/70/52 72/71/52
f 65/62/53 66/65/53 74/72/53 73/73/53
f 51/47/54 52/41/54 60/74/54 59/66/54
f 52/41/55 56/40/55 64/69/55 60/74/55
f 57/44/56 58/64/56 66/65/56 65/62/56
f 56/40/57 55/45/57 63/63/57 64/69/57
f 53/48/58 51/47/58 59/66/58 61/60/58
f 66/65/59 62/61/59 70/75/59 74/72/59
f 63/63/60 65/62/60 73/73/60 71/70/60
f 62/61/61 61/60/61 69/68/61 70/75/61
f 59/66/62 60/74/62 68/76/62 67/67/62
f 60/74/63 64/69/63 72/71/63 68/76/63
f 47/35/64 50/34/64 75/77/64 78/78/64
f 46/50/65 45/49/65 80/58/65 79/79/65
f 44/55/66 43/52/66 82/80/66 81/57/66
f 48/53/67 47/35/67 78/78/67 77/81/67
f 50/34/68 49/54/68 76/82/68 75/77/68
f 43/52/69 41/51/69 84/83/69 82/80/69
f 49/54/70 46/50/70 79/79/70 76/82/70
f 42/56/71 48/53/71 77/81/71 83/84/71
f 41/51/72 42/56/72 83/84/72 84/83/72
f 76/82/73 79/79/73 85/85/73 75/77/73
f 79/79/74 80/58/74 86/86/74 85/85/74
f 80/58/75 81/57/75 82/80/75 86/86/75
f 75/77/76 85/85/76 77/81/76 78/78/76
f 85/85/77 86/86/77 83/84/77 77/81/77
f 86/86/78 82/80/78 84/83/78 83/84/78
f 67/67/79 68/76/79 70/75/79 69/68/79
f 68/76/80 72/71/80 74/72/80 70/75/80
f 72/71/81 71/70/81 73/73/81 74/72/81
