# Blender 5.0.0
# www.blender.org
mtllib Fence_Door_Snow.mtl
o Fence_Door_Snow
v 0.055769 -0.473948 0.052997
v 0.092095 0.509097 0.043723
v 0.055769 -0.473948 0.016166
v 0.092095 0.509097 0.025440
v 0.173395 -0.473948 0.052997
v 0.137069 0.509097 0.043723
v 0.173395 -0.473948 0.016166
v 0.137069 0.509097 0.025440
v 0.055769 0.428837 0.052997
v 0.055769 0.428837 0.016166
v 0.173395 0.428837 0.016166
v 0.173395 0.428837 0.052997
v 0.770874 -0.473948 0.052998
v 0.807199 0.509097 0.043723
v 0.770874 -0.473948 0.016166
v 0.807199 0.509097 0.025440
v 0.888499 -0.473948 0.052997
v 0.852174 0.509097 0.043723
v 0.888499 -0.473948 0.016166
v 0.852174 0.509097 0.025440
v 0.770874 0.428837 0.052997
v 0.770874 0.428837 0.016166
v 0.888499 0.428837 0.016166
v 0.888499 0.428837 0.052997
v 0.592097 -0.473948 0.052998
v 0.628423 0.509097 0.043723
v 0.592097 -0.473948 0.016166
v 0.628423 0.509097 0.025440
v 0.709723 -0.473948 0.052998
v 0.673397 0.509097 0.043723
v 0.709723 -0.473948 0.016166
v 0.673397 0.509097 0.025440
v 0.592097 0.428837 0.052997
v 0.592097 0.428837 0.016166
v 0.709723 0.428837 0.016166
v 0.709723 0.428837 0.052997
v 0.413321 -0.473948 0.052998
v 0.449647 0.509097 0.043724
v 0.413321 -0.473948 0.016166
v 0.449647 0.509097 0.025440
v 0.530947 -0.473948 0.052998
v 0.494621 0.509097 0.043724
v 0.530947 -0.473948 0.016166
v 0.494621 0.509097 0.025440
v 0.413321 0.428837 0.052998
v 0.413321 0.428837 0.016166
v 0.530947 0.428837 0.016166
v 0.530947 0.428837 0.052997
v 0.234545 -0.473948 0.052998
v 0.270871 0.509097 0.043724
v 0.234545 -0.473948 0.016167
v 0.270871 0.509097 0.025440
v 0.352171 -0.473948 0.052998
v 0.315845 0.509097 0.043724
v 0.352171 -0.473948 0.016166
v 0.315845 0.509097 0.025440
v 0.234545 0.428837 0.052998
v 0.234545 0.428837 0.016166
v 0.352171 0.428837 0.016166
v 0.352171 0.428837 0.052998
v -0.002434 0.428361 0.017379
v -0.002434 0.428361 -0.009467
v -0.002434 0.282187 0.017379
v -0.002434 0.282187 -0.009467
v 0.901942 0.428361 0.017378
v 0.901942 0.428361 -0.009468
v 0.901942 0.282187 -0.009468
v 0.901942 0.282187 0.017378
v -0.002434 -0.327299 0.017379
v -0.002434 -0.327299 -0.009467
v -0.002434 -0.473474 0.017379
v -0.002434 -0.473474 -0.009467
v 0.901942 -0.327299 0.017378
v 0.901942 -0.327299 -0.009467
v 0.901942 -0.473474 -0.009467
v 0.901942 -0.473474 0.017378
v 0.107453 0.271033 0.018783
v 0.107453 0.271033 -0.002125
v 0.061870 0.156938 0.018783
v 0.061870 0.156938 -0.002125
v 0.883905 -0.208031 0.018782
v 0.883905 -0.208031 -0.002126
v 0.838322 -0.322126 -0.002126
v 0.838322 -0.322126 0.018783
vn -1.0000 -0.0000 -0.0000
vn -0.0000 -0.0000 -1.0000
vn 1.0000 -0.0000 -0.0000
vn -0.0000 -0.0000 1.0000
vn -0.0000 -1.0000 -0.0000
vn -0.0000 1.0000 -0.0000
vn -0.9110 0.4123 -0.0000
vn -0.0000 0.1148 -0.9934
vn 0.9110 0.4123 -0.0000
vn -0.0000 0.1148 0.9934
vn 0.5251 0.8510 -0.0000
vn -0.5251 -0.8510 -0.0000
vn -0.9286 0.3710 -0.0000
vn 0.9286 -0.3710 -0.0000
vt 0.221397 0.249540
vt 0.221397 0.288348
vt 0.226453 0.288348
vt 0.226453 0.249540
vt 0.224892 0.291798
vt 0.222958 0.291798
vt 0.252137 0.249540
vt 0.252137 0.288348
vt 0.257193 0.288348
vt 0.257193 0.249540
vt 0.255632 0.291798
vt 0.253698 0.291798
vt 0.244452 0.249540
vt 0.244452 0.288348
vt 0.249508 0.288348
vt 0.249508 0.249540
vt 0.247947 0.291798
vt 0.246013 0.291798
vt 0.236767 0.249540
vt 0.236767 0.288348
vt 0.241823 0.288348
vt 0.241823 0.249540
vt 0.240262 0.291798
vt 0.238328 0.291798
vt 0.229082 0.249540
vt 0.229082 0.288348
vt 0.234138 0.288348
vt 0.234138 0.249540
vt 0.232577 0.291798
vt 0.230643 0.291798
vt 0.218895 0.292823
vt 0.257771 0.292823
vt 0.257771 0.286539
vt 0.218895 0.286539
vt 0.218895 0.255844
vt 0.257771 0.255844
vt 0.257771 0.249561
vt 0.218895 0.249561
vt 0.223619 0.281565
vt 0.256996 0.260971
vt 0.255036 0.256067
vt 0.221659 0.276660
s 0
usemtl Winter_Pack_Texture
f 1/1/1 9/2/1 10/2/1 3/1/1
f 3/1/2 10/2/2 11/3/2 7/4/2
f 7/4/3 11/3/3 12/3/3 5/4/3
f 5/4/4 12/3/4 9/2/4 1/1/4
f 3/1/5 7/4/5 5/4/5 1/1/5
f 8/5/6 4/6/6 2/6/6 6/5/6
f 2/6/7 4/6/7 10/2/7 9/2/7
f 4/6/8 8/5/8 11/3/8 10/2/8
f 8/5/9 6/5/9 12/3/9 11/3/9
f 6/5/10 2/6/10 9/2/10 12/3/10
f 13/7/1 21/8/1 22/8/1 15/7/1
f 15/7/2 22/8/2 23/9/2 19/10/2
f 19/10/3 23/9/3 24/9/3 17/10/3
f 17/10/4 24/9/4 21/8/4 13/7/4
f 15/7/5 19/10/5 17/10/5 13/7/5
f 20/11/6 16/12/6 14/12/6 18/11/6
f 14/12/7 16/12/7 22/8/7 21/8/7
f 16/12/8 20/11/8 23/9/8 22/8/8
f 20/11/9 18/11/9 24/9/9 23/9/9
f 18/11/10 14/12/10 21/8/10 24/9/10
f 25/13/1 33/14/1 34/14/1 27/13/1
f 27/13/2 34/14/2 35/15/2 31/16/2
f 31/16/3 35/15/3 36/15/3 29/16/3
f 29/16/4 36/15/4 33/14/4 25/13/4
f 27/13/5 31/16/5 29/16/5 25/13/5
f 32/17/6 28/18/6 26/18/6 30/17/6
f 26/18/7 28/18/7 34/14/7 33/14/7
f 28/18/8 32/17/8 35/15/8 34/14/8
f 32/17/9 30/17/9 36/15/9 35/15/9
f 30/17/10 26/18/10 33/14/10 36/15/10
f 37/19/1 45/20/1 46/20/1 39/19/1
f 39/19/2 46/20/2 47/21/2 43/22/2
f 43/22/3 47/21/3 48/21/3 41/22/3
f 41/22/4 48/21/4 45/20/4 37/19/4
f 39/19/5 43/22/5 41/22/5 37/19/5
f 44/23/6 40/24/6 38/24/6 42/23/6
f 38/24/7 40/24/7 46/20/7 45/20/7
f 40/24/8 44/23/8 47/21/8 46/20/8
f 44/23/9 42/23/9 48/21/9 47/21/9
f 42/23/10 38/24/10 45/20/10 48/21/10
f 49/25/1 57/26/1 58/26/1 51/25/1
f 51/25/2 58/26/2 59/27/2 55/28/2
f 55/28/3 59/27/3 60/27/3 53/28/3
f 53/28/4 60/27/4 57/26/4 49/25/4
f 51/25/5 55/28/5 53/28/5 49/25/5
f 56/29/6 52/30/6 50/30/6 54/29/6
f 50/30/7 52/30/7 58/26/7 57/26/7
f 52/30/8 56/29/8 59/27/8 58/26/8
f 56/29/9 54/29/9 60/27/9 59/27/9
f 54/29/10 50/30/10 57/26/10 60/27/10
f 61/31/6 65/32/6 66/32/6 62/31/6
f 62/31/2 66/32/2 67/33/2 64/34/2
f 64/34/5 67/33/5 68/33/5 63/34/5
f 63/34/4 68/33/4 65/32/4 61/31/4
f 62/31/1 64/34/1 63/34/1 61/31/1
f 65/32/3 68/33/3 67/33/3 66/32/3
f 69/35/6 73/36/6 74/36/6 70/35/6
f 70/35/2 74/36/2 75/37/2 72/38/2
f 72/38/5 75/37/5 76/37/5 71/38/5
f 71/38/4 76/37/4 73/36/4 69/35/4
f 70/35/1 72/38/1 71/38/1 69/35/1
f 73/36/3 76/37/3 75/37/3 74/36/3
f 77/39/11 81/40/11 82/40/11 78/39/11
f 78/39/2 82/40/2 83/41/2 80/42/2
f 80/42/12 83/41/12 84/41/12 79/42/12
f 79/42/4 84/41/4 81/40/4 77/39/4
f 78/39/13 80/42/13 79/42/13 77/39/13
f 81/40/14 84/41/14 83/41/14 82/40/14
