# Blender 5.0.0
# www.blender.org
mtllib Fence_Door_Post.mtl
o Fence_Door_Post
v 1.122041 0.568679 -0.024822
v 1.121710 -0.538163 -0.024684
v 1.086939 0.568679 -0.059924
v 1.086802 -0.538163 -0.059593
v 1.037297 0.568679 -0.059924
v 1.037435 -0.538163 -0.059593
v 1.002195 0.568679 -0.024822
v 1.002526 -0.538163 -0.024684
v 1.002195 0.568679 0.024820
v 1.002527 -0.538163 0.024683
v 1.037297 0.568679 0.059922
v 1.037435 -0.538163 0.059591
v 1.086939 0.568679 0.059922
v 1.086802 -0.538163 0.059591
v 1.122041 0.568679 0.024820
v 1.121710 -0.538163 0.024683
v 1.141255 0.538163 -0.032780
v 1.094898 0.538163 -0.079137
v 1.029339 0.538163 -0.079137
v 0.982982 0.538163 -0.032780
v 0.982982 0.538163 0.032778
v 1.029339 0.538163 0.079135
v 1.094898 0.538163 0.079135
v 1.141255 0.538163 0.032778
v 1.094898 -0.538163 -0.079137
v 1.141255 -0.538163 -0.032780
v 1.029339 -0.538163 -0.079137
v 0.982982 -0.538163 -0.032780
v 0.982982 -0.538163 0.032779
v 1.029339 -0.538163 0.079136
v 1.094898 -0.538163 0.079136
v 1.141255 -0.538163 0.032779
v -0.062514 0.568679 -0.024821
v -0.062183 -0.538163 -0.024684
v -0.027412 0.568679 -0.059924
v -0.027275 -0.538163 -0.059592
v 0.022230 0.568679 -0.059924
v 0.022092 -0.538163 -0.059592
v 0.057332 0.568679 -0.024821
v 0.057001 -0.538163 -0.024684
v 0.057332 0.568679 0.024821
v 0.057001 -0.538163 0.024684
v 0.022230 0.568679 0.059923
v 0.022093 -0.538163 0.059592
v -0.027412 0.568679 0.059923
v -0.027275 -0.538163 0.059592
v -0.062514 0.568679 0.024821
v -0.062183 -0.538163 0.024684
v -0.081728 0.538163 -0.032780
v -0.035371 0.538163 -0.079137
v 0.030188 0.538163 -0.079137
v 0.076545 0.538163 -0.032780
v 0.076545 0.538163 0.032779
v 0.030188 0.538163 0.079136
v -0.035371 0.538163 0.079136
v -0.081728 0.538163 0.032779
v -0.035371 -0.538163 -0.079136
v -0.081728 -0.538163 -0.032779
v 0.030188 -0.538163 -0.079136
v 0.076545 -0.538163 -0.032779
v 0.076545 -0.538163 0.032779
v 0.030188 -0.538163 0.079136
v -0.035371 -0.538163 0.079136
v -0.081728 -0.538163 0.032779
vn -0.0000 -1.0000 -0.0000
vn 0.7071 -0.0000 -0.7071
vn -0.0000 -0.0000 -1.0000
vn -0.7071 -0.0000 -0.7071
vn -1.0000 -0.0000 -0.0000
vn -0.7071 -0.0000 0.7071
vn -0.0000 -0.0000 1.0000
vn 0.7071 -0.0000 0.7071
vn 1.0000 -0.0000 -0.0000
vn 0.5984 0.5328 -0.5984
vn -0.0000 0.5328 -0.8462
vn -0.5984 0.5328 -0.5984
vn -0.8462 0.5328 -0.0000
vn -0.5984 0.5328 0.5984
vn -0.0000 0.5328 0.8462
vn 0.5984 0.5328 0.5984
vn 0.8462 0.5328 -0.0000
vn -0.0000 1.0000 -0.0000
vt 0.235123 0.823116
vt 0.234735 0.823116
vt 0.234461 0.823116
vt 0.235397 0.823116
vt 0.235550 0.866406
vt 0.235550 0.823116
vt 0.235186 0.823116
vt 0.235186 0.866406
vt 0.234671 0.823116
vt 0.234671 0.866406
vt 0.234307 0.823116
vt 0.234307 0.866406
vt 0.860151 0.577657
vt 0.860689 0.570724
vt 0.860983 0.572296
vt 0.860273 0.581452
vt 0.859391 0.577657
vt 0.859269 0.581452
vt 0.858854 0.570724
vt 0.858559 0.572296
vt 0.858854 0.560919
vt 0.858559 0.559348
vt 0.859391 0.553986
vt 0.859269 0.550192
vt 0.860151 0.553986
vt 0.860273 0.550192
vt 0.860689 0.560919
vt 0.860983 0.559348
vt 0.226374 0.823116
vt 0.226100 0.823116
vt 0.226761 0.823116
vt 0.227036 0.823116
vt 0.225946 0.866406
vt 0.226310 0.866406
vt 0.226310 0.823116
vt 0.225946 0.823116
vt 0.226825 0.866406
vt 0.226825 0.823116
vt 0.227189 0.866406
vt 0.227189 0.823116
vt 0.843088 0.577657
vt 0.842966 0.581452
vt 0.842256 0.572296
vt 0.842550 0.570724
vt 0.843848 0.577657
vt 0.843970 0.581452
vt 0.844385 0.570724
vt 0.844679 0.572296
vt 0.844385 0.560920
vt 0.844679 0.559348
vt 0.843848 0.553986
vt 0.843970 0.550192
vt 0.843088 0.553986
vt 0.842966 0.550192
vt 0.842550 0.560919
vt 0.842256 0.559348
s 0
usemtl Winter_Pack_Texture
f 14/1/1 12/2/1 10/3/1 8/3/1 6/2/1 4/1/1 2/4/1 16/4/1
f 17/5/2 26/6/2 25/7/2 18/8/2
f 18/8/3 25/7/3 27/9/3 19/10/3
f 19/10/4 27/9/4 28/11/4 20/12/4
f 20/12/5 28/11/5 29/11/5 21/12/5
f 21/12/6 29/11/6 30/9/6 22/10/6
f 22/10/7 30/9/7 31/7/7 23/8/7
f 23/8/8 31/7/8 32/6/8 24/5/8
f 24/5/9 32/6/9 26/6/9 17/5/9
f 3/13/10 1/14/10 17/15/10 18/16/10
f 5/17/11 3/13/11 18/16/11 19/18/11
f 7/19/12 5/17/12 19/18/12 20/20/12
f 9/21/13 7/19/13 20/20/13 21/22/13
f 11/23/14 9/21/14 21/22/14 22/24/14
f 13/25/15 11/23/15 22/24/15 23/26/15
f 15/27/16 13/25/16 23/26/16 24/28/16
f 1/14/17 15/27/17 24/28/17 17/15/17
f 2/4/1 4/1/1 25/7/1 26/6/1
f 4/1/1 6/2/1 27/9/1 25/7/1
f 6/2/1 8/3/1 28/11/1 27/9/1
f 8/3/1 10/3/1 29/11/1 28/11/1
f 10/3/1 12/2/1 30/9/1 29/11/1
f 12/2/1 14/1/1 31/7/1 30/9/1
f 14/1/1 16/4/1 32/6/1 31/7/1
f 16/4/1 2/4/1 26/6/1 32/6/1
f 5/17/18 7/19/18 9/21/18 11/23/18 13/25/18 15/27/18 1/14/18 3/13/18
f 46/29/1 48/30/1 34/30/1 36/29/1 38/31/1 40/32/1 42/32/1 44/31/1
f 49/33/4 50/34/4 57/35/4 58/36/4
f 50/34/3 51/37/3 59/38/3 57/35/3
f 51/37/2 52/39/2 60/40/2 59/38/2
f 52/39/9 53/39/9 61/40/9 60/40/9
f 53/39/8 54/37/8 62/38/8 61/40/8
f 54/37/7 55/34/7 63/35/7 62/38/7
f 55/34/6 56/33/6 64/36/6 63/35/6
f 56/33/5 49/33/5 58/36/5 64/36/5
f 35/41/12 50/42/12 49/43/12 33/44/12
f 37/45/11 51/46/11 50/42/11 35/41/11
f 39/47/10 52/48/10 51/46/10 37/45/10
f 41/49/17 53/50/17 52/48/17 39/47/17
f 43/51/16 54/52/16 53/50/16 41/49/16
f 45/53/15 55/54/15 54/52/15 43/51/15
f 47/55/14 56/56/14 55/54/14 45/53/14
f 33/44/13 49/43/13 56/56/13 47/55/13
f 34/30/1 58/36/1 57/35/1 36/29/1
f 36/29/1 57/35/1 59/38/1 38/31/1
f 38/31/1 59/38/1 60/40/1 40/32/1
f 40/32/1 60/40/1 61/40/1 42/32/1
f 42/32/1 61/40/1 62/38/1 44/31/1
f 44/31/1 62/38/1 63/35/1 46/29/1
f 46/29/1 63/35/1 64/36/1 48/30/1
f 48/30/1 64/36/1 58/36/1 34/30/1
f 37/45/18 35/41/18 33/44/18 47/55/18 45/53/18 43/51/18 41/49/18 39/47/18
