# Blender 5.0.0
# www.blender.org
mtllib Fence_Post_Rails.mtl
o Fence_Post_Rails
v -1.414405 -0.308948 -0.019222
v -0.001197 -0.309211 -0.019653
v -1.414415 -0.336896 -0.047171
v -0.001207 -0.337005 -0.047447
v -1.414415 -0.376421 -0.047171
v -0.001207 -0.376311 -0.047447
v -1.414405 -0.404370 -0.019222
v -0.001197 -0.404105 -0.019653
v -1.414390 -0.404370 0.020303
v -0.001182 -0.404105 0.019653
v -1.414379 -0.376421 0.048251
v -0.001171 -0.376312 0.047447
v -1.414379 -0.336896 0.048251
v -0.001171 -0.337005 0.047447
v -1.414390 -0.308948 0.020303
v -0.001182 -0.309211 0.019653
v -1.414407 -0.293650 -0.025559
v -1.414421 -0.330560 -0.062468
v -1.414421 -0.382758 -0.062468
v -1.414407 -0.419667 -0.025559
v -1.414387 -0.419667 0.026639
v -1.414373 -0.382758 0.063549
v -1.414373 -0.330560 0.063549
v -1.414387 -0.293650 0.026639
v -0.001213 -0.330559 -0.063008
v -0.001199 -0.293650 -0.026099
v -0.001213 -0.382757 -0.063008
v -0.001199 -0.419667 -0.026099
v -0.001179 -0.419667 0.026099
v -0.001165 -0.382757 0.063008
v -0.001165 -0.330559 0.063008
v -0.001179 -0.293650 0.026099
v -1.414405 0.406157 -0.019223
v -0.001197 0.405894 -0.019654
v -1.414415 0.378209 -0.047171
v -0.001208 0.378100 -0.047447
v -1.414415 0.338684 -0.047171
v -0.001208 0.338793 -0.047447
v -1.414405 0.310735 -0.019223
v -0.001197 0.310999 -0.019654
v -1.414390 0.310735 0.020303
v -0.001182 0.310999 0.019653
v -1.414379 0.338684 0.048251
v -0.001171 0.338793 0.047447
v -1.414379 0.378209 0.048251
v -0.001171 0.378100 0.047447
v -1.414390 0.406157 0.020303
v -0.001182 0.405894 0.019653
v -1.414407 0.421455 -0.025559
v -1.414421 0.384545 -0.062468
v -1.414421 0.332347 -0.062468
v -1.414407 0.295438 -0.025559
v -1.414387 0.295438 0.026639
v -1.414373 0.332347 0.063548
v -1.414373 0.384545 0.063548
v -1.414387 0.421455 0.026639
v -0.001214 0.384546 -0.063009
v -0.001199 0.421455 -0.026099
v -0.001214 0.332348 -0.063009
v -0.001199 0.295438 -0.026099
v -0.001179 0.295438 0.026099
v -0.001165 0.332348 0.063008
v -0.001165 0.384546 0.063008
v -0.001180 0.421455 0.026099
v -1.414405 0.048605 -0.019222
v -0.001197 0.048341 -0.019653
v -1.414415 0.020656 -0.047171
v -0.001208 0.020547 -0.047447
v -1.414415 -0.018869 -0.047171
v -0.001208 -0.018759 -0.047447
v -1.414405 -0.046817 -0.019222
v -0.001197 -0.046553 -0.019653
v -1.414390 -0.046817 0.020303
v -0.001182 -0.046553 0.019653
v -1.414379 -0.018869 0.048251
v -0.001171 -0.018759 0.047447
v -1.414379 0.020656 0.048251
v -0.001171 0.020547 0.047447
v -1.414390 0.048605 0.020303
v -0.001182 0.048341 0.019653
v -1.414407 0.063902 -0.025559
v -1.414421 0.026993 -0.062468
v -1.414421 -0.025205 -0.062468
v -1.414407 -0.062115 -0.025559
v -1.414387 -0.062115 0.026639
v -1.414373 -0.025205 0.063549
v -1.414373 0.026993 0.063549
v -1.414387 0.063902 0.026639
v -0.001213 0.026993 -0.063009
v -0.001199 0.063903 -0.026099
v -0.001213 -0.025205 -0.063009
v -0.001199 -0.062114 -0.026099
v -0.001179 -0.062114 0.026099
v -0.001165 -0.025205 0.063008
v -0.001165 0.026993 0.063008
v -0.001179 0.063903 0.026099
vn 1.0000 -0.0000 -0.0004
vn -0.0003 0.7071 -0.7071
vn -0.0004 -0.0000 -1.0000
vn -0.0003 -0.7071 -0.7071
vn -0.0000 -1.0000 -0.0000
vn 0.0003 -0.7071 0.7071
vn 0.0004 -0.0000 1.0000
vn 0.0003 0.7071 0.7071
vn -0.0000 1.0000 -0.0000
vn -1.0000 -0.0000 0.0004
vt 0.246038 0.831207
vt 0.246038 0.829626
vt 0.246038 0.828508
vt 0.246038 0.832325
vt 0.234940 0.832951
vt 0.246038 0.832951
vt 0.246038 0.831466
vt 0.234940 0.831466
vt 0.246038 0.829367
vt 0.234940 0.829367
vt 0.246038 0.827882
vt 0.234940 0.827882
vt 0.234940 0.831211
vt 0.234940 0.832335
vt 0.234940 0.829622
vt 0.234940 0.828498
vt 0.246038 0.859968
vt 0.246038 0.858387
vt 0.246038 0.857270
vt 0.246038 0.861086
vt 0.234940 0.861712
vt 0.246038 0.861712
vt 0.246038 0.860228
vt 0.234940 0.860228
vt 0.246038 0.858128
vt 0.234940 0.858128
vt 0.246038 0.856644
vt 0.234940 0.856644
vt 0.234940 0.859973
vt 0.234940 0.861097
vt 0.234940 0.858383
vt 0.234940 0.857259
vt 0.246038 0.845588
vt 0.246038 0.844007
vt 0.246038 0.842889
vt 0.246038 0.846706
vt 0.234940 0.847331
vt 0.246038 0.847331
vt 0.246038 0.845847
vt 0.234940 0.845847
vt 0.246038 0.843747
vt 0.234940 0.843747
vt 0.246038 0.842263
vt 0.234940 0.842263
vt 0.234940 0.845592
vt 0.234940 0.846716
vt 0.234940 0.844002
vt 0.234940 0.842878
s 0
usemtl Winter_Pack_Texture
f 14/1/1 12/2/1 10/3/1 8/3/1 6/2/1 4/1/1 2/4/1 16/4/1
f 17/5/2 26/6/2 25/7/2 18/8/2
f 18/8/3 25/7/3 27/9/3 19/10/3
f 19/10/4 27/9/4 28/11/4 20/12/4
f 20/12/5 28/11/5 29/11/5 21/12/5
f 21/12/6 29/11/6 30/9/6 22/10/6
f 22/10/7 30/9/7 31/7/7 23/8/7
f 23/8/8 31/7/8 32/6/8 24/5/8
f 24/5/9 32/6/9 26/6/9 17/5/9
f 3/13/10 1/14/10 17/5/10 18/8/10
f 5/15/10 3/13/10 18/8/10 19/10/10
f 7/16/10 5/15/10 19/10/10 20/12/10
f 9/16/10 7/16/10 20/12/10 21/12/10
f 11/15/10 9/16/10 21/12/10 22/10/10
f 13/13/10 11/15/10 22/10/10 23/8/10
f 15/14/10 13/13/10 23/8/10 24/5/10
f 1/14/10 15/14/10 24/5/10 17/5/10
f 2/4/1 4/1/1 25/7/1 26/6/1
f 4/1/1 6/2/1 27/9/1 25/7/1
f 6/2/1 8/3/1 28/11/1 27/9/1
f 8/3/1 10/3/1 29/11/1 28/11/1
f 10/3/1 12/2/1 30/9/1 29/11/1
f 12/2/1 14/1/1 31/7/1 30/9/1
f 14/1/1 16/4/1 32/6/1 31/7/1
f 16/4/1 2/4/1 26/6/1 32/6/1
f 5/15/10 7/16/10 9/16/10 11/15/10 13/13/10 15/14/10 1/14/10 3/13/10
f 46/17/1 44/18/1 42/19/1 40/19/1 38/18/1 36/17/1 34/20/1 48/20/1
f 49/21/2 58/22/2 57/23/2 50/24/2
f 50/24/3 57/23/3 59/25/3 51/26/3
f 51/26/4 59/25/4 60/27/4 52/28/4
f 52/28/5 60/27/5 61/27/5 53/28/5
f 53/28/6 61/27/6 62/25/6 54/26/6
f 54/26/7 62/25/7 63/23/7 55/24/7
f 55/24/8 63/23/8 64/22/8 56/21/8
f 56/21/9 64/22/9 58/22/9 49/21/9
f 35/29/10 33/30/10 49/21/10 50/24/10
f 37/31/10 35/29/10 50/24/10 51/26/10
f 39/32/10 37/31/10 51/26/10 52/28/10
f 41/32/10 39/32/10 52/28/10 53/28/10
f 43/31/10 41/32/10 53/28/10 54/26/10
f 45/29/10 43/31/10 54/26/10 55/24/10
f 47/30/10 45/29/10 55/24/10 56/21/10
f 33/30/10 47/30/10 56/21/10 49/21/10
f 34/20/1 36/17/1 57/23/1 58/22/1
f 36/17/1 38/18/1 59/25/1 57/23/1
f 38/18/1 40/19/1 60/27/1 59/25/1
f 40/19/1 42/19/1 61/27/1 60/27/1
f 42/19/1 44/18/1 62/25/1 61/27/1
f 44/18/1 46/17/1 63/23/1 62/25/1
f 46/17/1 48/20/1 64/22/1 63/23/1
f 48/20/1 34/20/1 58/22/1 64/22/1
f 37/31/10 39/32/10 41/32/10 43/31/10 45/29/10 47/30/10 33/30/10 35/29/10
f 78/33/1 76/34/1 74/35/1 72/35/1 70/34/1 68/33/1 66/36/1 80/36/1
f 81/37/2 90/38/2 89/39/2 82/40/2
f 82/40/3 89/39/3 91/41/3 83/42/3
f 83/42/4 91/41/4 92/43/4 84/44/4
f 84/44/5 92/43/5 93/43/5 85/44/5
f 85/44/6 93/43/6 94/41/6 86/42/6
f 86/42/7 94/41/7 95/39/7 87/40/7
f 87/40/8 95/39/8 96/38/8 88/37/8
f 88/37/9 96/38/9 90/38/9 81/37/9
f 67/45/10 65/46/10 81/37/10 82/40/10
f 69/47/10 67/45/10 82/40/10 83/42/10
f 71/48/10 69/47/10 83/42/10 84/44/10
f 73/48/10 71/48/10 84/44/10 85/44/10
f 75/47/10 73/48/10 85/44/10 86/42/10
f 77/45/10 75/47/10 86/42/10 87/40/10
f 79/46/10 77/45/10 87/40/10 88/37/10
f 65/46/10 79/46/10 88/37/10 81/37/10
f 66/36/1 68/33/1 89/39/1 90/38/1
f 68/33/1 70/34/1 91/41/1 89/39/1
f 70/34/1 72/35/1 92/43/1 91/41/1
f 72/35/1 74/35/1 93/43/1 92/43/1
f 74/35/1 76/34/1 94/41/1 93/43/1
f 76/34/1 78/33/1 95/39/1 94/41/1
f 78/33/1 80/36/1 96/38/1 95/39/1
f 80/36/1 66/36/1 90/38/1 96/38/1
f 69/47/10 71/48/10 73/48/10 75/47/10 77/45/10 79/46/10 65/46/10 67/45/10
