# Blender 5.0.0
# www.blender.org
mtllib Fence_Post.mtl
o Fence_Post
v 0.059923 0.568679 -0.024821
v 0.059592 -0.538163 -0.024684
v 0.024821 0.568679 -0.059924
v 0.024684 -0.538163 -0.059592
v -0.024821 0.568679 -0.059923
v -0.024684 -0.538163 -0.059592
v -0.059923 0.568679 -0.024821
v -0.059592 -0.538163 -0.024684
v -0.059923 0.568679 0.024821
v -0.059592 -0.538163 0.024684
v -0.024821 0.568679 0.059923
v -0.024684 -0.538163 0.059592
v 0.024821 0.568679 0.059923
v 0.024684 -0.538163 0.059592
v 0.059923 0.568679 0.024821
v 0.059592 -0.538163 0.024684
v 0.079136 0.538163 -0.032780
v 0.032779 0.538163 -0.079137
v -0.032779 0.538163 -0.079137
v -0.079136 0.538163 -0.032780
v -0.079136 0.538163 0.032779
v -0.032779 0.538163 0.079136
v 0.032779 0.538163 0.079136
v 0.079136 0.538163 0.032779
v 0.032779 -0.538163 -0.079136
v 0.079137 -0.538163 -0.032779
v -0.032779 -0.538163 -0.079136
v -0.079136 -0.538163 -0.032779
v -0.079136 -0.538163 0.032780
v -0.032779 -0.538163 0.079137
v 0.032780 -0.538163 0.079137
v 0.079137 -0.538163 0.032779
v -1.414397 -0.308948 -0.019762
v -0.001189 -0.309211 -0.019654
v -1.414397 -0.336896 -0.047711
v -0.001189 -0.337005 -0.047448
v -1.414397 -0.376421 -0.047711
v -0.001189 -0.376311 -0.047448
v -1.414397 -0.404370 -0.019762
v -0.001189 -0.404105 -0.019654
v -1.414397 -0.404370 0.019763
v -0.001189 -0.404105 0.019653
v -1.414397 -0.376421 0.047711
v -0.001189 -0.376312 0.047447
v -1.414397 -0.336896 0.047711
v -0.001189 -0.337005 0.047447
v -1.414397 -0.308948 0.019763
v -0.001189 -0.309211 0.019653
v -1.414397 -0.293650 -0.026099
v -1.414397 -0.330560 -0.063008
v -1.414397 -0.382758 -0.063008
v -1.414397 -0.419667 -0.026099
v -1.414397 -0.419667 0.026099
v -1.414397 -0.382758 0.063009
v -1.414397 -0.330560 0.063009
v -1.414397 -0.293650 0.026099
v -0.001189 -0.330559 -0.063009
v -0.001189 -0.293650 -0.026099
v -0.001189 -0.382757 -0.063009
v -0.001189 -0.419667 -0.026099
v -0.001189 -0.419667 0.026098
v -0.001189 -0.382757 0.063008
v -0.001189 -0.330559 0.063008
v -0.001189 -0.293650 0.026098
v -1.414397 0.406157 -0.019763
v -0.001189 0.405894 -0.019654
v -1.414397 0.378209 -0.047711
v -0.001190 0.378100 -0.047448
v -1.414397 0.338684 -0.047711
v -0.001189 0.338793 -0.047448
v -1.414397 0.310735 -0.019763
v -0.001189 0.310999 -0.019654
v -1.414397 0.310735 0.019762
v -0.001189 0.310999 0.019653
v -1.414397 0.338684 0.047711
v -0.001189 0.338793 0.047446
v -1.414397 0.378209 0.047711
v -0.001189 0.378100 0.047446
v -1.414397 0.406157 0.019762
v -0.001189 0.405894 0.019653
v -1.414397 0.421455 -0.026099
v -1.414397 0.384545 -0.063009
v -1.414397 0.332347 -0.063009
v -1.414397 0.295438 -0.026099
v -1.414397 0.295438 0.026099
v -1.414397 0.332347 0.063008
v -1.414397 0.384545 0.063008
v -1.414397 0.421455 0.026099
v -0.001189 0.384546 -0.063009
v -0.001189 0.421455 -0.026100
v -0.001189 0.332348 -0.063009
v -0.001189 0.295438 -0.026100
v -0.001189 0.295438 0.026098
v -0.001189 0.332348 0.063008
v -0.001189 0.384546 0.063008
v -0.001189 0.421455 0.026098
v -1.414397 0.048605 -0.019763
v -0.001189 0.048341 -0.019654
v -1.414397 0.020656 -0.047711
v -0.001189 0.020547 -0.047448
v -1.414397 -0.018869 -0.047711
v -0.001189 -0.018759 -0.047448
v -1.414397 -0.046817 -0.019763
v -0.001189 -0.046553 -0.019654
v -1.414397 -0.046817 0.019763
v -0.001189 -0.046553 0.019653
v -1.414397 -0.018869 0.047711
v -0.001189 -0.018759 0.047447
v -1.414397 0.020656 0.047711
v -0.001189 0.020547 0.047446
v -1.414397 0.048605 0.019763
v -0.001189 0.048341 0.019653
v -1.414397 0.063902 -0.026099
v -1.414397 0.026993 -0.063008
v -1.414397 -0.025205 -0.063008
v -1.414397 -0.062115 -0.026099
v -1.414397 -0.062115 0.026099
v -1.414397 -0.025205 0.063008
v -1.414397 0.026993 0.063008
v -1.414397 0.063902 0.026099
v -0.001189 0.026993 -0.063009
v -0.001189 0.063903 -0.026100
v -0.001189 -0.025205 -0.063009
v -0.001189 -0.062114 -0.026100
v -0.001189 -0.062114 0.026098
v -0.001189 -0.025205 0.063008
v -0.001189 0.026993 0.063008
v -0.001189 0.063903 0.026098
vn -0.0000 -1.0000 -0.0000
vn 0.7071 -0.0000 -0.7071
vn -0.0000 -0.0000 -1.0000
vn -0.7071 -0.0000 -0.7071
vn -1.0000 -0.0000 -0.0000
vn -0.7071 -0.0000 0.7071
vn -0.0000 -0.0000 1.0000
vn 0.7071 -0.0000 0.7071
vn 1.0000 -0.0000 -0.0000
vn 0.5984 0.5328 -0.5984
vn -0.0000 0.5328 -0.8462
vn -0.5984 0.5328 -0.5984
vn -0.8462 0.5328 -0.0000
vn -0.5984 0.5328 0.5984
vn -0.0000 0.5328 0.8462
vn 0.5984 0.5328 0.5984
vn 0.8462 0.5328 -0.0000
vn -0.0000 1.0000 -0.0000
vn -0.0000 0.7071 -0.7071
vn -0.0000 -0.7071 -0.7071
vn -0.0000 -0.7071 0.7071
vn -0.0000 0.7071 0.7071
vt 0.246241 0.823116
vt 0.245853 0.823116
vt 0.245579 0.823116
vt 0.246515 0.823116
vt 0.246668 0.866406
vt 0.246668 0.823116
vt 0.246304 0.823116
vt 0.246304 0.866406
vt 0.245789 0.823116
vt 0.245789 0.866406
vt 0.245425 0.823116
vt 0.245425 0.866406
vt 0.881831 0.577657
vt 0.882368 0.570724
vt 0.882662 0.572296
vt 0.881952 0.581452
vt 0.881070 0.577657
vt 0.880949 0.581452
vt 0.880533 0.570724
vt 0.880239 0.572296
vt 0.880533 0.560919
vt 0.880239 0.559348
vt 0.881070 0.553986
vt 0.880949 0.550192
vt 0.881831 0.553986
vt 0.881952 0.550192
vt 0.882368 0.560919
vt 0.882662 0.559348
vt 0.246038 0.831207
vt 0.246038 0.829626
vt 0.246038 0.828508
vt 0.246038 0.832325
vt 0.234940 0.832951
vt 0.246038 0.832951
vt 0.246038 0.831466
vt 0.234940 0.831466
vt 0.246038 0.829367
vt 0.234940 0.829367
vt 0.246038 0.827882
vt 0.234940 0.827882
vt 0.234940 0.831211
vt 0.234940 0.832335
vt 0.234940 0.829622
vt 0.234940 0.828498
vt 0.246038 0.859968
vt 0.246038 0.858387
vt 0.246038 0.857270
vt 0.246038 0.861086
vt 0.234940 0.861712
vt 0.246038 0.861712
vt 0.246038 0.860228
vt 0.234940 0.860228
vt 0.246038 0.858128
vt 0.234940 0.858128
vt 0.246038 0.856644
vt 0.234940 0.856644
vt 0.234940 0.859973
vt 0.234940 0.861097
vt 0.234940 0.858383
vt 0.234940 0.857259
vt 0.246038 0.845588
vt 0.246038 0.844007
vt 0.246038 0.842889
vt 0.246038 0.846706
vt 0.234940 0.847331
vt 0.246038 0.847331
vt 0.246038 0.845847
vt 0.234940 0.845847
vt 0.246038 0.843747
vt 0.234940 0.843747
vt 0.246038 0.842263
vt 0.234940 0.842263
vt 0.234940 0.845592
vt 0.234940 0.846716
vt 0.234940 0.844002
vt 0.234940 0.842878
s 0
usemtl Winter_Pack_Texture
f 14/1/1 12/2/1 10/3/1 8/3/1 6/2/1 4/1/1 2/4/1 16/4/1
f 17/5/2 26/6/2 25/7/2 18/8/2
f 18/8/3 25/7/3 27/9/3 19/10/3
f 19/10/4 27/9/4 28/11/4 20/12/4
f 20/12/5 28/11/5 29/11/5 21/12/5
f 21/12/6 29/11/6 30/9/6 22/10/6
f 22/10/7 30/9/7 31/7/7 23/8/7
f 23/8/8 31/7/8 32/6/8 24/5/8
f 24/5/9 32/6/9 26/6/9 17/5/9
f 3/13/10 1/14/10 17/15/10 18/16/10
f 5/17/11 3/13/11 18/16/11 19/18/11
f 7/19/12 5/17/12 19/18/12 20/20/12
f 9/21/13 7/19/13 20/20/13 21/22/13
f 11/23/14 9/21/14 21/22/14 22/24/14
f 13/25/15 11/23/15 22/24/15 23/26/15
f 15/27/16 13/25/16 23/26/16 24/28/16
f 1/14/17 15/27/17 24/28/17 17/15/17
f 2/4/1 4/1/1 25/7/1 26/6/1
f 4/1/1 6/2/1 27/9/1 25/7/1
f 6/2/1 8/3/1 28/11/1 27/9/1
f 8/3/1 10/3/1 29/11/1 28/11/1
f 10/3/1 12/2/1 30/9/1 29/11/1
f 12/2/1 14/1/1 31/7/1 30/9/1
f 14/1/1 16/4/1 32/6/1 31/7/1
f 16/4/1 2/4/1 26/6/1 32/6/1
f 5/17/18 7/19/18 9/21/18 11/23/18 13/25/18 15/27/18 1/14/18 3/13/18
f 46/29/9 44/30/9 42/31/9 40/31/9 38/30/9 36/29/9 34/32/9 48/32/9
f 49/33/19 58/34/19 57/35/19 50/36/19
f 50/36/3 57/35/3 59/37/3 51/38/3
f 51/38/20 59/37/20 60/39/20 52/40/20
f 52/40/1 60/39/1 61/39/1 53/40/1
f 53/40/21 61/39/21 62/37/21 54/38/21
f 54/38/7 62/37/7 63/35/7 55/36/7
f 55/36/22 63/35/22 64/34/22 56/33/22
f 56/33/18 64/34/18 58/34/18 49/33/18
f 35/41/5 33/42/5 49/33/5 50/36/5
f 37/43/5 35/41/5 50/36/5 51/38/5
f 39/44/5 37/43/5 51/38/5 52/40/5
f 41/44/5 39/44/5 52/40/5 53/40/5
f 43/43/5 41/44/5 53/40/5 54/38/5
f 45/41/5 43/43/5 54/38/5 55/36/5
f 47/42/5 45/41/5 55/36/5 56/33/5
f 33/42/5 47/42/5 56/33/5 49/33/5
f 34/32/9 36/29/9 57/35/9 58/34/9
f 36/29/9 38/30/9 59/37/9 57/35/9
f 38/30/9 40/31/9 60/39/9 59/37/9
f 40/31/9 42/31/9 61/39/9 60/39/9
f 42/31/9 44/30/9 62/37/9 61/39/9
f 44/30/9 46/29/9 63/35/9 62/37/9
f 46/29/9 48/32/9 64/34/9 63/35/9
f 48/32/9 34/32/9 58/34/9 64/34/9
f 37/43/5 39/44/5 41/44/5 43/43/5 45/41/5 47/42/5 33/42/5 35/41/5
f 78/45/9 76/46/9 74/47/9 72/47/9 70/46/9 68/45/9 66/48/9 80/48/9
f 81/49/19 90/50/19 89/51/19 82/52/19
f 82/52/3 89/51/3 91/53/3 83/54/3
f 83/54/20 91/53/20 92/55/20 84/56/20
f 84/56/1 92/55/1 93/55/1 85/56/1
f 85/56/21 93/55/21 94/53/21 86/54/21
f 86/54/7 94/53/7 95/51/7 87/52/7
f 87/52/22 95/51/22 96/50/22 88/49/22
f 88/49/18 96/50/18 90/50/18 81/49/18
f 67/57/5 65/58/5 81/49/5 82/52/5
f 69/59/5 67/57/5 82/52/5 83/54/5
f 71/60/5 69/59/5 83/54/5 84/56/5
f 73/60/5 71/60/5 84/56/5 85/56/5
f 75/59/5 73/60/5 85/56/5 86/54/5
f 77/57/5 75/59/5 86/54/5 87/52/5
f 79/58/5 77/57/5 87/52/5 88/49/5
f 65/58/5 79/58/5 88/49/5 81/49/5
f 66/48/9 68/45/9 89/51/9 90/50/9
f 68/45/9 70/46/9 91/53/9 89/51/9
f 70/46/9 72/47/9 92/55/9 91/53/9
f 72/47/9 74/47/9 93/55/9 92/55/9
f 74/47/9 76/46/9 94/53/9 93/55/9
f 76/46/9 78/45/9 95/51/9 94/53/9
f 78/45/9 80/48/9 96/50/9 95/51/9
f 80/48/9 66/48/9 90/50/9 96/50/9
f 69/59/5 71/60/5 73/60/5 75/59/5 77/57/5 79/58/5 65/58/5 67/57/5
f 110/61/9 108/62/9 106/63/9 104/63/9 102/62/9 100/61/9 98/64/9 112/64/9
f 113/65/19 122/66/19 121/67/19 114/68/19
f 114/68/3 121/67/3 123/69/3 115/70/3
f 115/70/20 123/69/20 124/71/20 116/72/20
f 116/72/1 124/71/1 125/71/1 117/72/1
f 117/72/21 125/71/21 126/69/21 118/70/21
f 118/70/7 126/69/7 127/67/7 119/68/7
f 119/68/22 127/67/22 128/66/22 120/65/22
f 120/65/18 128/66/18 122/66/18 113/65/18
f 99/73/5 97/74/5 113/65/5 114/68/5
f 101/75/5 99/73/5 114/68/5 115/70/5
f 103/76/5 101/75/5 115/70/5 116/72/5
f 105/76/5 103/76/5 116/72/5 117/72/5
f 107/75/5 105/76/5 117/72/5 118/70/5
f 109/73/5 107/75/5 118/70/5 119/68/5
f 111/74/5 109/73/5 119/68/5 120/65/5
f 97/74/5 111/74/5 120/65/5 113/65/5
f 98/64/9 100/61/9 121/67/9 122/66/9
f 100/61/9 102/62/9 123/69/9 121/67/9
f 102/62/9 104/63/9 124/71/9 123/69/9
f 104/63/9 106/63/9 125/71/9 124/71/9
f 106/63/9 108/62/9 126/69/9 125/71/9
f 108/62/9 110/61/9 127/67/9 126/69/9
f 110/61/9 112/64/9 128/66/9 127/67/9
f 112/64/9 98/64/9 122/66/9 128/66/9
f 101/75/5 103/76/5 105/76/5 107/75/5 109/73/5 111/74/5 97/74/5 99/73/5
