# Blender 5.0.0
# www.blender.org
mtllib Flat_Rock_A.mtl
o Flat_Rock_A
v -0.195372 -0.029971 0.149257
v -0.133861 0.101952 0.117560
v -0.195877 -0.030944 -0.147331
v 0.206376 -0.029562 0.131753
v 0.164967 0.092692 0.049478
v 0.184342 -0.029498 -0.129456
v 0.126180 0.108192 -0.071507
v -0.281609 -0.029754 -0.021099
v -0.167277 0.056325 0.120837
v -0.178260 0.114532 -0.027361
v -0.178184 0.026242 -0.152551
v -0.046639 -0.029314 -0.211122
v -0.005338 0.095435 -0.112749
v 0.150115 0.039399 -0.135370
v 0.259271 -0.030177 0.002377
v 0.179527 0.043476 0.133254
v 0.002747 -0.028859 0.211303
v -0.001380 0.088025 0.161998
v -0.252870 0.041267 -0.018493
v -0.018571 0.022460 -0.190418
v 0.229032 0.047438 -0.008027
v -0.001796 -0.030278 -0.007672
v 0.032022 0.135677 -0.019651
v 0.105425 0.125941 -0.013542
v 0.017032 0.037100 0.188530
vn -0.8204 0.3682 0.4375
vn -0.6880 0.6567 0.3089
vn -0.8087 0.2824 -0.5160
vn -0.3006 0.2568 -0.9186
vn 0.1528 0.7040 -0.6936
vn 0.3159 0.1313 -0.9397
vn 0.8154 0.3039 -0.4927
vn 0.5366 0.8414 -0.0643
vn 0.8743 0.3511 0.3351
vn 0.0027 -1.0000 0.0010
vn 0.0008 -1.0000 -0.0052
vn -0.0004 -1.0000 0.0058
vn 0.0008 -1.0000 0.0029
vn -0.0485 0.9820 0.1827
vn 0.5379 0.8405 -0.0648
vn 0.0705 0.9286 -0.3642
vn 0.7036 0.6593 0.2650
vn 0.6420 0.6296 -0.4376
vn 0.1512 0.9432 0.2957
vn -0.1908 0.8021 -0.5658
vn -0.0796 0.9262 -0.3684
vn -0.6567 0.6161 -0.4349
vn -0.1404 0.7334 -0.6651
vn 0.2799 0.7510 0.5981
vn -0.2856 0.3230 0.9023
vn -0.2818 0.3753 0.8830
vn 0.3381 0.1722 0.9252
vt 0.291946 0.601986
vt 0.294021 0.606257
vt 0.287699 0.605512
vt 0.285577 0.601997
vt 0.296489 0.608516
vt 0.293210 0.609138
vt 0.293216 0.604768
vt 0.291909 0.601938
vt 0.305005 0.604581
vt 0.302931 0.602019
vt 0.305982 0.608193
vt 0.315696 0.608824
vt 0.317464 0.605420
vt 0.319992 0.602010
vt 0.323293 0.605818
vt 0.325526 0.601976
vt 0.318561 0.608057
vt 0.319636 0.605621
vt 0.321619 0.602006
vt 0.306244 0.601971
vt 0.306579 0.602041
vt 0.308741 0.610185
vt 0.306274 0.607826
vt 0.314163 0.609703
vt 0.307634 0.605306
s 0
usemtl Winter_Pack_Texture
f 1/1/1 9/2/1 19/3/1 8/4/1
f 9/2/2 2/5/2 10/6/2 19/3/2
f 8/4/3 19/3/3 11/7/3 3/8/3
f 3/8/4 11/7/4 20/9/4 12/10/4
f 20/9/5 13/11/5 7/12/5 14/13/5
f 12/10/6 20/9/6 14/13/6 6/14/6
f 6/14/7 14/13/7 21/15/7 15/16/7
f 7/12/8 5/17/8 21/15/8
f 15/16/9 21/15/9 16/18/9 4/19/9
f 3/8/10 12/10/10 22/20/10 8/4/10
f 12/10/11 6/14/11 15/16/11 22/20/11
f 22/20/12 15/16/12 4/19/12 17/21/12
f 8/4/13 22/20/13 17/21/13 1/1/13
f 23/22/14 10/6/14 2/5/14 18/23/14
f 24/24/15 5/17/15 7/12/15
f 7/12/16 13/11/16 23/22/16 24/24/16
f 21/15/17 5/17/17 16/18/17
f 14/13/18 7/12/18 21/15/18
f 5/17/19 24/24/19 23/22/19 18/23/19
f 13/11/20 11/7/20 10/6/20
f 13/11/21 10/6/21 23/22/21
f 19/3/22 10/6/22 11/7/22
f 11/7/23 13/11/23 20/9/23
f 16/18/24 5/17/24 18/23/24 25/25/24
f 25/25/25 18/23/25 2/5/25 9/2/25
f 17/21/26 25/25/26 9/2/26 1/1/26
f 4/19/27 16/18/27 25/25/27 17/21/27
