# Blender 5.0.0
# www.blender.org
mtllib Flat_Rock_B.mtl
o Flat_Rock_B
v -0.070310 -0.022980 0.105693
v -0.065224 0.075517 0.090370
v -0.112304 -0.018236 -0.102010
v 0.120924 -0.023581 0.124674
v 0.071791 0.083171 0.003122
v 0.107706 -0.021362 -0.114197
v 0.075414 0.066346 -0.090294
v -0.158330 -0.021787 -0.006868
v -0.071692 0.041213 0.103746
v -0.105955 0.088239 0.002709
v -0.088599 0.019034 -0.108927
v -0.020948 -0.021370 -0.133314
v -0.003945 0.051225 -0.119977
v 0.086105 0.025759 -0.109243
v 0.143828 -0.023237 0.019171
v 0.091580 0.029112 0.115532
v 0.004656 -0.022818 0.160167
v -0.015760 0.093654 0.143368
v -0.147311 0.027907 0.010984
v -0.001684 0.013672 -0.146871
v 0.113299 0.031722 0.004529
v 0.006588 -0.023188 0.001411
v 0.003046 0.126166 -0.051279
v 0.030930 0.132636 -0.063407
v 0.006193 0.038129 0.160911
vn -0.7812 -0.0210 0.6239
vn -0.7375 0.4811 0.4740
vn -0.8271 0.3821 -0.4123
vn -0.3636 -0.0473 -0.9303
vn 0.2447 0.5205 -0.8181
vn 0.2574 -0.0934 -0.9618
vn 0.8752 0.4250 -0.2312
vn 0.7767 0.6244 -0.0823
vn 0.8421 0.5082 0.1805
vn -0.0199 -0.9995 -0.0249
vn 0.0018 -0.9999 -0.0142
vn -0.0032 -1.0000 -0.0002
vn -0.0048 -1.0000 -0.0015
vn -0.3275 0.9287 0.1742
vn 0.8144 0.5758 -0.0721
vn 0.0215 0.5643 -0.8253
vn 0.7655 0.6221 0.1644
vn 0.9072 0.3487 -0.2351
vn 0.3626 0.8975 0.2511
vn -0.3608 0.7665 -0.5313
vn -0.5123 0.6058 -0.6087
vn -0.7760 0.4750 -0.4151
vn -0.3080 0.5416 -0.7822
vn 0.5444 0.7192 0.4316
vn -0.6572 0.1415 0.7403
vn -0.5897 0.0085 0.8076
vn 0.3741 0.1591 0.9136
vt 0.351294 0.602364
vt 0.351179 0.605938
vt 0.344897 0.605197
vt 0.343981 0.602430
vt 0.351717 0.607848
vt 0.348333 0.608556
vt 0.349775 0.604703
vt 0.347805 0.602628
vt 0.356996 0.604404
vt 0.355395 0.602453
vt 0.356808 0.606495
vt 0.363402 0.607337
vt 0.364290 0.605077
vt 0.366085 0.602454
vt 0.366549 0.605409
vt 0.369086 0.602350
vt 0.363101 0.608274
vt 0.364745 0.605264
vt 0.367183 0.602330
vt 0.357683 0.602352
vt 0.357523 0.602373
vt 0.357389 0.610668
vt 0.355826 0.608858
vt 0.359706 0.611028
vt 0.357650 0.605766
s 0
usemtl Winter_Pack_Texture
f 1/1/1 9/2/1 19/3/1 8/4/1
f 9/2/2 2/5/2 10/6/2 19/3/2
f 8/4/3 19/3/3 11/7/3 3/8/3
f 3/8/4 11/7/4 20/9/4 12/10/4
f 20/9/5 13/11/5 7/12/5 14/13/5
f 12/10/6 20/9/6 14/13/6 6/14/6
f 6/14/7 14/13/7 21/15/7 15/16/7
f 7/12/8 5/17/8 21/15/8
f 15/16/9 21/15/9 16/18/9 4/19/9
f 3/8/10 12/10/10 22/20/10 8/4/10
f 12/10/11 6/14/11 15/16/11 22/20/11
f 22/20/12 15/16/12 4/19/12 17/21/12
f 8/4/13 22/20/13 17/21/13 1/1/13
f 23/22/14 10/6/14 2/5/14 18/23/14
f 24/24/15 5/17/15 7/12/15
f 7/12/16 13/11/16 23/22/16 24/24/16
f 21/15/17 5/17/17 16/18/17
f 14/13/18 7/12/18 21/15/18
f 5/17/19 24/24/19 23/22/19 18/23/19
f 13/11/20 11/7/20 10/6/20
f 13/11/21 10/6/21 23/22/21
f 19/3/22 10/6/22 11/7/22
f 11/7/23 13/11/23 20/9/23
f 16/18/24 5/17/24 18/23/24 25/25/24
f 25/25/25 18/23/25 2/5/25 9/2/25
f 17/21/26 25/25/26 9/2/26 1/1/26
f 4/19/27 16/18/27 25/25/27 17/21/27
