# Blender 5.0.0
# www.blender.org
mtllib Flat_Rock_C.mtl
o Flat_Rock_C
v -0.102449 -0.022953 0.089109
v -0.077565 0.053223 0.056632
v -0.110108 -0.018356 -0.075240
v 0.120699 -0.022379 0.086605
v 0.074325 0.061050 0.000224
v 0.107590 -0.020660 -0.085401
v 0.075636 0.047343 -0.068154
v -0.150667 -0.020466 0.012202
v -0.092862 0.026619 0.074743
v -0.070290 0.066024 -0.005073
v -0.087105 0.010651 -0.081606
v -0.020009 -0.020666 -0.099167
v 0.002467 0.037239 -0.086832
v 0.086166 0.015863 -0.081834
v 0.143415 -0.022113 0.010634
v 0.091596 0.018462 0.080021
v 0.003682 -0.021177 0.113056
v -0.005005 0.062701 0.055063
v -0.143383 0.017779 0.012547
v -0.000904 0.006495 -0.108929
v 0.113136 0.020485 0.000090
v 0.007301 -0.022074 -0.002155
v 0.029434 0.071685 -0.007004
v 0.004900 0.024941 0.110469
vn -0.7965 0.2415 0.5543
vn -0.5748 0.7865 0.2258
vn -0.8283 0.3327 -0.4509
vn -0.2807 -0.0645 -0.9576
vn 0.1796 0.5058 -0.8438
vn 0.1900 -0.0882 -0.9778
vn 0.8115 0.5042 -0.2953
vn 0.7168 0.6862 -0.1238
vn 0.7707 0.5952 0.2275
vn -0.0189 -0.9996 -0.0204
vn 0.0014 -0.9999 -0.0153
vn -0.0048 -1.0000 0.0026
vn 0.0009 -1.0000 -0.0085
vn -0.0837 0.9858 0.1453
vn 0.2547 0.9491 -0.1854
vn -0.0282 0.9212 -0.3880
vn 0.7071 0.6759 0.2077
vn 0.8553 0.4187 -0.3052
vn 0.1867 0.9523 0.2415
vn -0.2702 0.8073 -0.5247
vn -0.0598 0.9237 -0.3784
vn -0.5705 0.7198 -0.3955
vn -0.2192 0.5852 -0.7807
vn 0.2730 0.8501 0.4503
vn -0.1632 0.7482 0.6431
vn -0.2754 0.1978 0.9408
vn 0.2708 0.1864 0.9444
vt 0.422150 0.602505
vt 0.423100 0.605797
vt 0.418093 0.605210
vt 0.417371 0.602670
vt 0.424617 0.607564
vt 0.425338 0.608414
vt 0.423671 0.604737
vt 0.421391 0.602810
vt 0.432214 0.604460
vt 0.430321 0.602657
vt 0.432548 0.606502
vt 0.439800 0.607173
vt 0.440844 0.605083
vt 0.442967 0.602657
vt 0.443517 0.605390
vt 0.446518 0.602561
vt 0.439670 0.608084
vt 0.441382 0.605255
vt 0.444266 0.602543
vt 0.433028 0.602563
vt 0.432669 0.602623
vt 0.435221 0.608790
vt 0.431808 0.608193
vt 0.432789 0.605686
s 0
usemtl Winter_Pack_Texture
f 1/1/1 9/2/1 19/3/1 8/4/1
f 9/2/2 2/5/2 10/6/2 19/3/2
f 8/4/3 19/3/3 11/7/3 3/8/3
f 3/8/4 11/7/4 20/9/4 12/10/4
f 20/9/5 13/11/5 7/12/5 14/13/5
f 12/10/6 20/9/6 14/13/6 6/14/6
f 6/14/7 14/13/7 21/15/7 15/16/7
f 7/12/8 5/17/8 21/15/8
f 15/16/9 21/15/9 16/18/9 4/19/9
f 3/8/10 12/10/10 22/20/10 8/4/10
f 12/10/11 6/14/11 15/16/11 22/20/11
f 22/20/12 15/16/12 4/19/12 17/21/12
f 8/4/13 22/20/13 17/21/13 1/1/13
f 23/22/14 10/6/14 2/5/14 18/23/14
f 23/22/15 5/17/15 7/12/15
f 7/12/16 13/11/16 23/22/16
f 21/15/17 5/17/17 16/18/17
f 14/13/18 7/12/18 21/15/18
f 5/17/19 23/22/19 18/23/19
f 13/11/20 11/7/20 10/6/20
f 13/11/21 10/6/21 23/22/21
f 19/3/22 10/6/22 11/7/22
f 11/7/23 13/11/23 20/9/23
f 16/18/24 5/17/24 18/23/24 24/24/24
f 24/24/25 18/23/25 2/5/25 9/2/25
f 17/21/26 24/24/26 9/2/26 1/1/26
f 4/19/27 16/18/27 24/24/27 17/21/27
