# Blender 5.0.0
# www.blender.org
mtllib gift_box_A_Small.mtl
o gift_box_A_Small
v 0.160000 -0.043860 -0.160000
v 0.160000 -0.043860 0.160000
v -0.160000 -0.043860 -0.160000
v -0.160000 -0.043860 0.160000
v 0.049124 -0.043860 -0.160000
v -0.049124 -0.043860 -0.160000
v 0.049124 -0.043860 0.160000
v -0.049124 -0.043860 0.160000
v -0.160000 -0.043860 0.049124
v -0.160000 -0.043860 -0.049123
v 0.160000 -0.043860 0.049124
v 0.160000 -0.043860 -0.049124
v 0.049124 -0.043860 0.049124
v -0.049124 -0.043860 0.049124
v -0.049124 -0.043860 -0.049123
v 0.049124 -0.043860 -0.049123
v -0.049124 0.311583 0.049124
v 0.049124 0.311583 0.049124
v 0.049124 0.311583 -0.049124
v -0.049124 0.311583 -0.049123
v 0.160000 0.220674 -0.160000
v -0.160000 0.220675 0.160000
v 0.160000 0.220675 0.160000
v -0.160000 0.220674 -0.160000
v 0.049124 0.220674 -0.160000
v -0.049124 0.220674 -0.160000
v -0.049124 0.220675 0.160000
v 0.049124 0.220675 0.160000
v 0.160000 0.220675 0.049123
v 0.160000 0.220675 -0.049124
v -0.160000 0.220675 -0.049123
v -0.160000 0.220675 0.049124
v -0.189244 0.220675 0.189244
v -0.189244 0.311583 0.189244
v -0.049124 0.311583 -0.189244
v 0.049124 0.311583 -0.189244
v -0.049124 0.220674 -0.189244
v 0.049125 0.311583 0.189243
v -0.049124 0.311583 0.189243
v 0.049125 0.220675 0.189243
v 0.189244 0.311583 0.049123
v 0.189244 0.311583 -0.049124
v 0.189244 0.220675 -0.049124
v -0.189244 0.311583 0.049124
v -0.189244 0.311583 -0.049123
v -0.189244 0.220675 0.049124
v -0.189244 0.311583 -0.189244
v 0.189244 0.311583 -0.189244
v 0.189244 0.311583 0.189243
v 0.189244 0.220674 -0.189244
v 0.189244 0.220675 0.189243
v -0.189244 0.220674 -0.189244
v 0.049124 0.220674 -0.189244
v -0.049124 0.220675 0.189243
v 0.189244 0.220675 0.049123
v -0.189244 0.220675 -0.049123
v 0.000000 0.332034 0.022836
v -0.000000 0.333885 -0.038739
v -0.011403 0.327627 0.022638
v -0.011403 0.329338 -0.037755
v 0.000000 0.309807 0.031284
v -0.000000 0.311905 -0.043922
v 0.000000 0.317021 0.031485
v -0.000000 0.320378 -0.043685
v -0.018996 0.319379 0.022390
v -0.018996 0.321055 -0.037717
v -0.071814 0.338056 -0.054254
v -0.071814 0.335119 0.051040
v -0.186587 0.377163 0.105779
v -0.186587 0.382407 -0.082249
v -0.018996 0.310063 0.022130
v -0.018996 0.311739 -0.037977
v -0.071814 0.320346 0.045688
v -0.071814 0.322975 -0.048584
v -0.172386 0.357453 -0.072438
v -0.205490 0.357746 -0.082937
v -0.205490 0.352502 0.105092
v -0.173524 0.352820 0.093706
v -0.000000 0.332960 -0.007952
v -0.011403 0.328483 -0.007559
v -0.018996 0.320217 -0.007664
v -0.071814 0.343515 -0.001414
v -0.186587 0.390748 0.012071
v -0.215925 0.355124 0.011077
v -0.117292 0.321904 0.203762
v -0.117292 0.335897 0.204153
v -0.160352 0.339840 0.204670
v -0.160352 0.321893 0.204169
v -0.094175 0.338729 0.244502
v -0.094175 0.320782 0.244001
v -0.009805 0.318323 0.026461
v 0.011403 0.327627 0.022638
v 0.011403 0.329338 -0.037755
v 0.018996 0.319379 0.022390
v 0.018996 0.321055 -0.037717
v 0.071814 0.338056 -0.054254
v 0.071814 0.335119 0.051039
v 0.186587 0.377163 0.105779
v 0.186587 0.382407 -0.082250
v 0.018996 0.310063 0.022130
v 0.018996 0.311739 -0.037977
v 0.071814 0.320346 0.045688
v 0.071814 0.322975 -0.048584
v 0.172386 0.357453 -0.072438
v 0.205490 0.357746 -0.082937
v 0.205490 0.352502 0.105091
v 0.173524 0.352820 0.093706
v 0.011403 0.328483 -0.007559
v 0.018996 0.320217 -0.007664
v 0.071814 0.343515 -0.001414
v 0.186587 0.390748 0.012071
v 0.215925 0.355124 0.011077
v 0.117292 0.321904 0.203762
v 0.117292 0.335897 0.204152
v 0.160352 0.339840 0.204670
v 0.160352 0.321893 0.204169
v 0.094175 0.338729 0.244501
v 0.094175 0.320782 0.244001
v 0.009805 0.318323 0.026461
v 0.000000 0.292145 0.021723
v -0.000000 0.293728 -0.039859
v -0.011403 0.292497 0.021658
v -0.011403 0.294156 -0.038737
v 0.000000 0.302594 0.031082
v -0.000000 0.303432 -0.044158
v -0.018996 0.300747 0.021870
v -0.018996 0.302423 -0.038237
v -0.071814 0.308233 -0.055086
v -0.071814 0.305297 0.050208
v -0.186587 0.327841 0.104404
v -0.186587 0.333085 -0.083625
v -0.000000 0.292937 -0.009068
v -0.011403 0.293326 -0.008539
v -0.018996 0.301585 -0.008183
v -0.071814 0.299838 -0.002632
v -0.186587 0.319500 0.010084
v -0.117292 0.307910 0.203372
v -0.160352 0.303945 0.203669
v -0.094175 0.302834 0.243500
v -0.009805 0.301574 0.025994
v 0.011403 0.292497 0.021658
v 0.011403 0.294156 -0.038737
v 0.018996 0.300747 0.021870
v 0.018996 0.302423 -0.038237
v 0.071814 0.308233 -0.055086
v 0.071814 0.305297 0.050208
v 0.186587 0.327841 0.104404
v 0.186587 0.333085 -0.083625
v 0.011403 0.293326 -0.008539
v 0.018996 0.301585 -0.008183
v 0.071814 0.299838 -0.002632
v 0.186587 0.319500 0.010083
v 0.117292 0.307910 0.203372
v 0.160352 0.303945 0.203668
v 0.094175 0.302834 0.243500
v 0.009805 0.301574 0.025994
vn -0.0000 -1.0000 -0.0000
vn -0.0000 1.0000 -0.0000
vn -0.0000 -0.0000 -1.0000
vn -0.0000 -0.0000 1.0000
vn 1.0000 -0.0000 -0.0000
vn -1.0000 -0.0000 -0.0000
vn 0.1071 -0.3253 -0.9395
vn -0.3664 0.9301 0.0272
vn 0.3251 -0.2744 0.9050
vn -0.2485 0.2944 -0.9228
vn -0.2746 0.4245 0.8628
vn -0.7367 0.6760 0.0190
vn 0.2946 -0.1998 -0.9345
vn 0.3915 -0.2088 0.8962
vn 0.3604 0.9314 -0.0519
vn 0.3265 -0.2915 0.8991
vn -0.7784 0.6202 0.0968
vn 0.3739 0.9234 -0.0866
vn 0.1895 -0.2126 -0.9586
vn -0.2988 0.0266 -0.9540
vn -0.4325 -0.0071 0.9016
vn 0.3941 0.9088 0.1367
vn -0.7784 0.6247 -0.0621
vn 0.3746 0.9214 0.1031
vn -0.7361 0.6766 0.0190
vn -0.3626 0.9315 0.0272
vn 0.0095 -0.0279 0.9996
vn -0.8672 -0.0139 0.4978
vn -0.7892 0.0171 -0.6139
vn 0.9141 -0.0113 0.4053
vn 0.0977 0.9945 -0.0376
vn -0.3569 0.3019 0.8840
vn 0.0536 0.9959 -0.0725
vn -0.1071 -0.3253 -0.9395
vn 0.3664 0.9301 0.0272
vn -0.3251 -0.2744 0.9050
vn 0.2485 0.2944 -0.9228
vn 0.2746 0.4245 0.8628
vn 0.7367 0.6760 0.0190
vn -0.2946 -0.1998 -0.9345
vn -0.3915 -0.2088 0.8962
vn -0.3604 0.9314 -0.0519
vn -0.3265 -0.2915 0.8991
vn 0.7784 0.6202 0.0968
vn -0.3739 0.9234 -0.0866
vn -0.1895 -0.2126 -0.9586
vn 0.2988 0.0266 -0.9540
vn 0.4325 -0.0071 0.9016
vn -0.3941 0.9088 0.1367
vn 0.7784 0.6247 -0.0621
vn -0.3746 0.9214 0.1031
vn 0.7361 0.6766 0.0190
vn 0.3626 0.9315 0.0272
vn -0.0095 -0.0279 0.9996
vn 0.8672 -0.0139 0.4978
vn 0.7892 0.0171 -0.6139
vn -0.9141 -0.0113 0.4053
vn -0.0977 0.9945 -0.0376
vn 0.3569 0.3019 0.8840
vn -0.0536 0.9959 -0.0725
vn 0.3026 0.2994 -0.9049
vn -0.0377 -0.9989 -0.0266
vn 0.3251 0.2235 0.9189
vn -0.2110 -0.2867 -0.9345
vn -0.1799 -0.5549 0.8122
vn -0.7367 -0.6760 -0.0187
vn 0.2946 0.2515 -0.9219
vn 0.4530 0.1535 0.8782
vn -0.0263 -0.9935 -0.1112
vn 0.4572 0.1817 0.8706
vn -0.7784 -0.6246 0.0621
vn -0.1786 -0.9730 -0.1463
vn 0.2820 0.2596 -0.9236
vn -0.4325 -0.0431 0.9006
vn -0.1540 -0.9838 0.0922
vn -0.7784 -0.6202 -0.0968
vn -0.0086 -0.9984 0.0556
vn -0.7361 -0.6766 -0.0187
vn -0.0331 -0.9991 -0.0266
vn 0.0848 -0.9928 0.0851
vn -0.3569 -0.3507 0.8658
vn -0.0852 -0.9960 -0.0273
vn -0.3026 0.2994 -0.9049
vn 0.0377 -0.9989 -0.0266
vn -0.3251 0.2235 0.9189
vn 0.2110 -0.2867 -0.9345
vn 0.1799 -0.5549 0.8122
vn 0.7367 -0.6760 -0.0187
vn -0.2946 0.2515 -0.9219
vn -0.4530 0.1535 0.8782
vn 0.0263 -0.9935 -0.1112
vn -0.4572 0.1817 0.8706
vn 0.7784 -0.6247 0.0621
vn 0.1786 -0.9730 -0.1463
vn -0.2820 0.2596 -0.9236
vn 0.4325 -0.0431 0.9006
vn 0.1540 -0.9838 0.0922
vn 0.7784 -0.6202 -0.0968
vn 0.0086 -0.9984 0.0556
vn 0.7361 -0.6766 -0.0187
vn 0.0331 -0.9991 -0.0266
vn -0.0848 -0.9928 0.0851
vn 0.3569 -0.3507 0.8658
vn 0.0852 -0.9960 -0.0273
vt 0.233398 0.773087
vt 0.100429 0.849872
vt 0.106628 0.849872
vt 0.118321 0.875124
vt 0.119956 0.875124
vt 0.112122 0.849872
vt 0.118321 0.849872
vt 0.106628 0.875124
vt 0.100429 0.875124
vt 0.098794 0.875124
vt 0.119956 0.883802
vt 0.112122 0.883802
vt 0.112122 0.875124
vt 0.098794 0.883802
vt 0.106628 0.883802
vt 0.033945 0.874502
vt 0.033945 0.873760
vt 0.021695 0.876782
vt 0.019966 0.878061
vt 0.041303 0.868784
vt 0.042692 0.868847
vt 0.042692 0.872599
vt 0.041303 0.872464
vt 0.019966 0.855150
vt 0.017663 0.855150
vt 0.021557 0.856538
vt 0.042692 0.873155
vt 0.040378 0.872431
vt 0.042692 0.865096
vt 0.041303 0.865105
vt 0.041498 0.864608
vt 0.042692 0.863992
vt 0.040378 0.868769
vt 0.017663 0.878061
vt 0.040378 0.865107
vt 0.033945 0.861672
vt 0.033945 0.862274
vt 0.033945 0.868087
vt 0.016392 0.866606
vt 0.019966 0.866606
vt 0.028406 0.843033
vt 0.023161 0.842983
vt 0.031222 0.838130
vt 0.051439 0.874502
vt 0.065419 0.878061
vt 0.063689 0.876782
vt 0.051439 0.873760
vt 0.044081 0.868784
vt 0.044081 0.872464
vt 0.065419 0.855150
vt 0.063827 0.856538
vt 0.067721 0.855150
vt 0.045006 0.872431
vt 0.043886 0.864608
vt 0.044081 0.865105
vt 0.045006 0.868769
vt 0.067721 0.878061
vt 0.045006 0.865107
vt 0.051439 0.862274
vt 0.051439 0.861672
vt 0.051439 0.868087
vt 0.068992 0.866606
vt 0.065419 0.866606
vt 0.056978 0.843033
vt 0.062223 0.842983
vt 0.054163 0.838130
s 0
usemtl Winter_Pack_Texture
f 13/1/1 14/1/1 15/1/1 16/1/1
f 17/1/2 18/1/2 19/1/2 20/1/2
f 25/1/3 5/1/3 6/1/3 26/1/3
f 13/1/1 7/1/1 8/1/1 14/1/1
f 27/1/4 8/1/4 7/1/4 28/1/4
f 18/1/2 41/1/2 42/1/2 19/1/2
f 5/1/1 16/1/1 15/1/1 6/1/1
f 17/1/2 39/1/2 38/1/2 18/1/2
f 20/1/2 45/1/2 44/1/2 17/1/2
f 14/1/1 9/1/1 10/1/1 15/1/1
f 29/1/5 11/1/5 12/1/5 30/1/5
f 11/1/1 13/1/1 16/1/1 12/1/1
f 31/1/6 10/1/6 9/1/6 32/1/6
f 3/2/1 6/3/1 15/3/1 10/2/1
f 23/4/1 29/4/1 55/5/1 51/5/1
f 5/6/1 1/7/1 12/7/1 16/6/1
f 26/8/1 24/9/1 52/10/1 37/8/1
f 49/11/2 41/11/2 18/12/2 38/12/2
f 9/2/1 14/3/1 8/3/1 4/2/1
f 13/6/1 11/7/1 2/7/1 7/6/1
f 21/4/1 25/13/1 53/13/1 50/5/1
f 19/12/2 42/11/2 48/11/2 36/12/2
f 22/9/1 27/8/1 54/8/1 33/10/1
f 11/7/5 29/4/5 23/4/5 2/7/5
f 1/7/5 21/4/5 30/4/5 12/7/5
f 10/2/6 31/9/6 24/9/6 3/2/6
f 4/2/6 22/9/6 32/9/6 9/2/6
f 2/7/4 23/4/4 28/13/4 7/6/4
f 8/3/4 27/8/4 22/9/4 4/2/4
f 5/6/3 25/13/3 21/4/3 1/7/3
f 3/2/3 24/9/3 26/8/3 6/3/3
f 28/13/1 23/4/1 51/5/1 40/13/1
f 25/1/1 26/1/1 37/1/1 53/1/1
f 52/10/3 47/14/3 35/15/3 37/8/3
f 53/13/3 36/12/3 48/11/3 50/5/3
f 54/8/4 39/15/4 34/14/4 33/10/4
f 51/5/4 49/11/4 38/12/4 40/13/4
f 33/10/6 34/14/6 44/14/6 46/10/6
f 56/10/6 45/14/6 47/14/6 52/10/6
f 50/5/5 48/11/5 42/11/5 43/5/5
f 55/5/5 41/11/5 49/11/5 51/5/5
f 45/1/6 56/1/6 46/1/6 44/1/6
f 41/1/5 55/1/5 43/1/5 42/1/5
f 39/1/4 54/1/4 40/1/4 38/1/4
f 36/1/3 53/1/3 37/1/3 35/1/3
f 31/1/1 32/1/1 46/1/1 56/1/1
f 20/15/2 35/15/2 47/14/2 45/14/2
f 30/4/1 21/4/1 50/5/1 43/5/1
f 29/1/1 30/1/1 43/1/1 55/1/1
f 24/9/1 31/9/1 56/10/1 52/10/1
f 27/1/1 28/1/1 40/1/1 54/1/1
f 32/9/1 22/9/1 33/10/1 46/10/1
f 34/14/2 39/15/2 17/15/2 44/14/2
f 19/1/2 36/1/2 35/1/2 20/1/2
f 67/16/7 74/17/7 75/18/7 70/19/7
f 80/20/8 79/21/8 58/22/8 60/23/8
f 69/24/9 77/25/9 78/26/9
f 60/23/10 58/22/10 64/27/10 66/28/10
f 57/29/11 59/30/11 91/31/11 63/32/11
f 80/20/12 60/23/12 66/28/12 81/33/12
f 70/19/13 75/18/13 76/34/13
f 71/35/14 65/35/14 68/36/14 73/37/14
f 81/33/15 66/28/15 67/16/15 82/38/15
f 73/37/16 68/36/16 69/24/16 78/26/16
f 84/39/17 77/25/17 69/24/17 83/40/17
f 82/38/18 67/16/18 70/19/18 83/40/18
f 66/28/19 72/28/19 74/17/19 67/16/19
f 66/28/20 64/27/20 62/27/20 72/28/20
f 63/32/21 91/31/21 65/35/21 71/35/21 61/32/21
f 68/36/22 82/38/22 83/40/22 69/24/22
f 76/34/23 84/39/23 83/40/23 70/19/23
f 65/35/24 81/33/24 82/38/24 68/36/24
f 59/30/25 80/20/25 81/33/25 65/35/25
f 59/30/26 57/29/26 79/21/26 80/20/26
f 86/41/27 87/42/27 88/42/27 85/41/27
f 86/41/28 85/41/28 90/43/28 89/43/28
f 88/42/29 87/42/29 65/35/29 71/35/29
f 89/43/30 90/43/30 61/32/30 63/32/30
f 91/31/31 65/35/31 87/42/31 86/41/31
f 91/31/32 59/30/32 65/35/32
f 86/41/33 89/43/33 63/32/33 91/31/33
f 96/44/34 99/45/34 104/46/34 103/47/34
f 108/48/35 93/49/35 58/22/35 79/21/35
f 98/50/36 107/51/36 106/52/36
f 93/49/37 95/53/37 64/27/37 58/22/37
f 57/29/38 63/32/38 119/54/38 92/55/38
f 108/48/39 109/56/39 95/53/39 93/49/39
f 99/45/40 105/57/40 104/46/40
f 100/58/41 102/59/41 97/60/41 94/58/41
f 109/56/42 110/61/42 96/44/42 95/53/42
f 102/59/43 107/51/43 98/50/43 97/60/43
f 112/62/44 111/63/44 98/50/44 106/52/44
f 110/61/45 111/63/45 99/45/45 96/44/45
f 95/53/46 96/44/46 103/47/46 101/53/46
f 95/53/47 101/53/47 62/27/47 64/27/47
f 63/32/48 61/32/48 100/58/48 94/58/48 119/54/48
f 97/60/49 98/50/49 111/63/49 110/61/49
f 105/57/50 99/45/50 111/63/50 112/62/50
f 94/58/51 97/60/51 110/61/51 109/56/51
f 92/55/52 94/58/52 109/56/52 108/48/52
f 92/55/53 108/48/53 79/21/53 57/29/53
f 114/64/54 113/64/54 116/65/54 115/65/54
f 114/64/55 117/66/55 118/66/55 113/64/55
f 116/65/56 100/58/56 94/58/56 115/65/56
f 117/66/57 63/32/57 61/32/57 118/66/57
f 119/54/58 114/64/58 115/65/58 94/58/58
f 119/54/59 94/58/59 92/55/59
f 114/64/60 119/54/60 63/32/60 117/66/60
f 128/16/61 131/19/61 75/18/61 74/17/61
f 133/20/62 123/23/62 121/22/62 132/21/62
f 130/24/63 78/26/63 77/25/63
f 123/23/64 127/28/64 125/27/64 121/22/64
f 120/29/65 124/32/65 140/31/65 122/30/65
f 133/20/66 134/33/66 127/28/66 123/23/66
f 131/19/67 76/34/67 75/18/67
f 71/35/68 73/37/68 129/36/68 126/35/68
f 134/33/69 135/38/69 128/16/69 127/28/69
f 73/37/70 78/26/70 130/24/70 129/36/70
f 84/39/71 136/40/71 130/24/71 77/25/71
f 135/38/72 136/40/72 131/19/72 128/16/72
f 127/28/73 128/16/73 74/17/73 72/28/73
f 127/28/20 72/28/20 62/27/20 125/27/20
f 124/32/74 61/32/74 71/35/74 126/35/74 140/31/74
f 129/36/75 130/24/75 136/40/75 135/38/75
f 76/34/76 131/19/76 136/40/76 84/39/76
f 126/35/77 129/36/77 135/38/77 134/33/77
f 122/30/78 126/35/78 134/33/78 133/20/78
f 122/30/79 133/20/79 132/21/79 120/29/79
f 137/41/27 85/41/27 88/42/27 138/42/27
f 137/41/28 139/43/28 90/43/28 85/41/28
f 88/42/29 71/35/29 126/35/29 138/42/29
f 139/43/30 124/32/30 61/32/30 90/43/30
f 140/31/80 137/41/80 138/42/80 126/35/80
f 140/31/81 126/35/81 122/30/81
f 137/41/82 140/31/82 124/32/82 139/43/82
f 145/44/83 103/47/83 104/46/83 148/45/83
f 149/48/84 132/21/84 121/22/84 142/49/84
f 147/50/85 106/52/85 107/51/85
f 142/49/86 121/22/86 125/27/86 144/53/86
f 120/29/87 141/55/87 156/54/87 124/32/87
f 149/48/88 142/49/88 144/53/88 150/56/88
f 148/45/89 104/46/89 105/57/89
f 100/58/90 143/58/90 146/60/90 102/59/90
f 150/56/91 144/53/91 145/44/91 151/61/91
f 102/59/92 146/60/92 147/50/92 107/51/92
f 112/62/93 106/52/93 147/50/93 152/63/93
f 151/61/94 145/44/94 148/45/94 152/63/94
f 144/53/95 101/53/95 103/47/95 145/44/95
f 144/53/47 125/27/47 62/27/47 101/53/47
f 124/32/96 156/54/96 143/58/96 100/58/96 61/32/96
f 146/60/97 151/61/97 152/63/97 147/50/97
f 105/57/98 112/62/98 152/63/98 148/45/98
f 143/58/99 150/56/99 151/61/99 146/60/99
f 141/55/100 149/48/100 150/56/100 143/58/100
f 141/55/101 120/29/101 132/21/101 149/48/101
f 153/64/54 154/65/54 116/65/54 113/64/54
f 153/64/55 113/64/55 118/66/55 155/66/55
f 116/65/56 154/65/56 143/58/56 100/58/56
f 155/66/57 118/66/57 61/32/57 124/32/57
f 156/54/102 143/58/102 154/65/102 153/64/102
f 156/54/103 141/55/103 143/58/103
f 153/64/104 155/66/104 124/32/104 156/54/104
