# Blender 5.0.0
# www.blender.org
mtllib gift_box_B_Long.mtl
o gift_box_B_Long
v -0.113541 -0.021985 -0.524187
v 0.121255 -0.021985 -0.524187
v -0.113540 -0.021985 0.524187
v 0.121255 -0.021985 0.524187
v -0.113541 -0.021985 -0.046243
v -0.113541 -0.021985 0.046242
v 0.121255 -0.021985 -0.046243
v 0.121255 -0.021985 0.046242
v 0.040206 -0.021985 0.524187
v -0.032491 -0.021985 0.524187
v 0.040206 -0.021985 -0.524187
v -0.032492 -0.021985 -0.524187
v 0.040206 -0.021985 -0.046243
v 0.040206 -0.021985 0.046242
v -0.032491 -0.021985 0.046242
v -0.032491 -0.021985 -0.046243
v 0.040206 0.108903 0.046242
v 0.040206 0.108903 -0.046243
v -0.032491 0.108903 -0.046243
v -0.032491 0.108903 0.046242
v -0.113541 0.063221 -0.524187
v 0.121255 0.063221 0.524187
v 0.121255 0.063221 -0.524187
v -0.113540 0.063221 0.524187
v -0.113541 0.063221 -0.046243
v -0.113541 0.063221 0.046242
v 0.121255 0.063221 0.046242
v 0.121255 0.063221 -0.046243
v 0.040206 0.063221 -0.524187
v -0.032492 0.063221 -0.524187
v -0.032491 0.063221 0.524187
v 0.040206 0.063221 0.524187
v 0.142712 0.063221 0.547393
v 0.142712 0.108903 0.547393
v -0.134998 0.108903 0.046242
v -0.134998 0.108903 -0.046243
v -0.134998 0.063221 0.046242
v 0.142712 0.108903 -0.046243
v 0.142712 0.108903 0.046242
v 0.142712 0.063221 -0.046243
v 0.040206 0.108903 -0.547393
v -0.032492 0.108903 -0.547393
v -0.032492 0.063221 -0.547393
v 0.040206 0.108903 0.547393
v -0.032491 0.108903 0.547393
v 0.040206 0.063221 0.547393
v -0.134998 0.108903 0.547393
v -0.134999 0.108903 -0.547393
v 0.142712 0.108903 -0.547393
v -0.134999 0.063221 -0.547393
v 0.142712 0.063221 -0.547393
v -0.134998 0.063221 0.547393
v -0.134998 0.063221 -0.046243
v 0.142712 0.063221 0.046242
v 0.040206 0.063221 -0.547393
v -0.032491 0.063221 0.547393
v -0.002160 0.124172 -0.011460
v -0.002160 0.125472 -0.054687
v -0.010165 0.121079 -0.011599
v -0.010165 0.122280 -0.053997
v -0.002160 0.108569 -0.005530
v -0.002160 0.110041 -0.058326
v -0.002160 0.113633 -0.005388
v -0.002160 0.115990 -0.058160
v -0.015496 0.115288 -0.011773
v -0.015496 0.116465 -0.053970
v -0.052575 0.128400 -0.065579
v -0.052575 0.126338 0.008340
v -0.133149 0.155854 0.046768
v -0.133149 0.159536 -0.085233
v -0.015496 0.108748 -0.011956
v -0.015496 0.109925 -0.054152
v -0.052575 0.115967 0.004583
v -0.052575 0.117813 -0.061599
v -0.123179 0.142017 -0.078345
v -0.146419 0.142223 -0.085715
v -0.146419 0.138541 0.046285
v -0.123978 0.138764 0.038293
v -0.002160 0.124822 -0.033074
v -0.010165 0.121679 -0.032798
v -0.015496 0.115876 -0.032871
v -0.052575 0.132232 -0.028484
v -0.133149 0.165391 -0.019017
v -0.153745 0.140382 -0.019715
v -0.084502 0.117061 0.115555
v -0.084502 0.126885 0.115829
v -0.114731 0.129653 0.116192
v -0.114731 0.117053 0.115841
v -0.068273 0.128873 0.144155
v -0.068273 0.116273 0.143803
v -0.009043 0.114547 -0.008915
v 0.005845 0.121079 -0.011599
v 0.005845 0.122280 -0.053997
v 0.011176 0.115288 -0.011773
v 0.011176 0.116465 -0.053970
v 0.048255 0.128400 -0.065580
v 0.048255 0.126338 0.008340
v 0.128829 0.155854 0.046768
v 0.128829 0.159536 -0.085233
v 0.011176 0.108748 -0.011956
v 0.011176 0.109925 -0.054152
v 0.048255 0.115967 0.004583
v 0.048255 0.117813 -0.061599
v 0.118859 0.142017 -0.078345
v 0.142099 0.142223 -0.085716
v 0.142100 0.138541 0.046285
v 0.119658 0.138764 0.038293
v 0.005845 0.121679 -0.032798
v 0.011176 0.115876 -0.032871
v 0.048255 0.132232 -0.028484
v 0.128829 0.165391 -0.019018
v 0.149425 0.140382 -0.019715
v 0.080182 0.117061 0.115555
v 0.080182 0.126885 0.115829
v 0.110411 0.129653 0.116192
v 0.110411 0.117053 0.115840
v 0.063954 0.128873 0.144155
v 0.063954 0.116273 0.143803
v 0.004723 0.114547 -0.008915
v -0.002160 0.096169 -0.012241
v -0.002160 0.097281 -0.055473
v -0.010165 0.096417 -0.012287
v -0.010165 0.097581 -0.054686
v -0.002160 0.103505 -0.005671
v -0.002160 0.104093 -0.058491
v -0.015496 0.102208 -0.012138
v -0.015496 0.103385 -0.054334
v -0.052575 0.107464 -0.066163
v -0.052575 0.105402 0.007756
v -0.133149 0.121229 0.045803
v -0.133149 0.124910 -0.086198
v -0.002160 0.096725 -0.033857
v -0.010165 0.096999 -0.033486
v -0.015496 0.102797 -0.033236
v -0.052575 0.101570 -0.029339
v -0.133149 0.115373 -0.020412
v -0.084502 0.107237 0.115281
v -0.114731 0.104453 0.115489
v -0.068273 0.103673 0.143452
v -0.009043 0.102789 -0.009243
v 0.005845 0.096417 -0.012287
v 0.005845 0.097581 -0.054686
v 0.011176 0.102208 -0.012138
v 0.011176 0.103385 -0.054334
v 0.048255 0.107464 -0.066163
v 0.048255 0.105402 0.007756
v 0.128829 0.121229 0.045802
v 0.128829 0.124910 -0.086198
v 0.005845 0.096999 -0.033486
v 0.011176 0.102797 -0.033236
v 0.048255 0.101570 -0.029340
v 0.128829 0.115373 -0.020413
v 0.080182 0.107237 0.115281
v 0.110411 0.104453 0.115489
v 0.063954 0.103673 0.143452
v 0.004723 0.102789 -0.009243
vn -0.0000 -1.0000 -0.0000
vn -0.0000 1.0000 -0.0000
vn -1.0000 -0.0000 -0.0000
vn 1.0000 -0.0000 -0.0000
vn -0.0000 -0.0000 -1.0000
vn -0.0000 -0.0000 1.0000
vn 0.1071 -0.3253 -0.9395
vn -0.3664 0.9301 0.0272
vn 0.3251 -0.2744 0.9050
vn -0.2485 0.2944 -0.9228
vn -0.2746 0.4245 0.8628
vn -0.7367 0.6760 0.0190
vn 0.2946 -0.1998 -0.9345
vn 0.3915 -0.2088 0.8962
vn 0.3604 0.9314 -0.0519
vn 0.3265 -0.2915 0.8991
vn -0.7784 0.6202 0.0968
vn 0.3739 0.9234 -0.0866
vn 0.1895 -0.2126 -0.9586
vn -0.2988 0.0266 -0.9540
vn -0.4325 -0.0071 0.9016
vn 0.3941 0.9088 0.1367
vn -0.7784 0.6246 -0.0621
vn 0.3746 0.9214 0.1031
vn -0.7361 0.6766 0.0190
vn -0.3626 0.9315 0.0272
vn 0.0095 -0.0279 0.9996
vn -0.8672 -0.0139 0.4978
vn -0.7892 0.0171 -0.6139
vn 0.9141 -0.0113 0.4053
vn 0.0977 0.9945 -0.0376
vn -0.3569 0.3019 0.8840
vn 0.0536 0.9959 -0.0725
vn -0.1071 -0.3253 -0.9395
vn 0.3664 0.9301 0.0272
vn -0.3251 -0.2744 0.9050
vn 0.2485 0.2944 -0.9228
vn 0.2746 0.4245 0.8628
vn 0.7367 0.6760 0.0190
vn -0.2946 -0.1998 -0.9345
vn -0.3915 -0.2088 0.8962
vn -0.3604 0.9314 -0.0519
vn -0.3265 -0.2915 0.8991
vn 0.7784 0.6202 0.0968
vn -0.3739 0.9234 -0.0866
vn -0.1895 -0.2126 -0.9586
vn 0.2988 0.0266 -0.9540
vn 0.4325 -0.0071 0.9016
vn -0.3941 0.9088 0.1367
vn 0.7784 0.6247 -0.0621
vn -0.3746 0.9214 0.1031
vn 0.7361 0.6766 0.0190
vn 0.3626 0.9315 0.0272
vn -0.0095 -0.0279 0.9996
vn 0.8672 -0.0139 0.4978
vn 0.7892 0.0171 -0.6139
vn -0.9141 -0.0113 0.4053
vn -0.0977 0.9945 -0.0376
vn 0.3569 0.3019 0.8840
vn -0.0536 0.9959 -0.0725
vn 0.3026 0.2994 -0.9049
vn -0.0377 -0.9989 -0.0266
vn 0.3251 0.2235 0.9189
vn -0.2110 -0.2867 -0.9345
vn -0.1799 -0.5549 0.8122
vn -0.7367 -0.6760 -0.0187
vn 0.2946 0.2515 -0.9219
vn 0.4530 0.1535 0.8782
vn -0.0263 -0.9935 -0.1112
vn 0.4572 0.1817 0.8706
vn -0.7784 -0.6246 0.0621
vn -0.1786 -0.9730 -0.1463
vn 0.2820 0.2596 -0.9236
vn -0.4325 -0.0431 0.9006
vn -0.1540 -0.9838 0.0922
vn -0.7784 -0.6202 -0.0968
vn -0.0086 -0.9984 0.0556
vn -0.7361 -0.6766 -0.0187
vn -0.0331 -0.9991 -0.0266
vn 0.0848 -0.9928 0.0851
vn -0.3569 -0.3507 0.8658
vn -0.0852 -0.9960 -0.0273
vn -0.3026 0.2994 -0.9049
vn 0.0377 -0.9989 -0.0266
vn -0.3251 0.2235 0.9189
vn 0.2110 -0.2867 -0.9345
vn 0.1799 -0.5549 0.8122
vn 0.7367 -0.6760 -0.0187
vn -0.2946 0.2515 -0.9219
vn -0.4530 0.1535 0.8782
vn 0.0263 -0.9935 -0.1112
vn -0.4572 0.1817 0.8706
vn 0.7784 -0.6246 0.0621
vn 0.1786 -0.9730 -0.1463
vn -0.2820 0.2596 -0.9236
vn 0.4325 -0.0431 0.9006
vn 0.1540 -0.9838 0.0922
vn 0.7784 -0.6202 -0.0968
vn 0.0086 -0.9984 0.0556
vn 0.7361 -0.6766 -0.0187
vn 0.0331 -0.9991 -0.0266
vn -0.0848 -0.9928 0.0851
vn 0.3569 -0.3507 0.8658
vn 0.0852 -0.9960 -0.0273
vt 0.438434 0.817765
vt 0.099419 0.900360
vt 0.105618 0.900360
vt 0.117311 0.925612
vt 0.118946 0.925612
vt 0.111112 0.900360
vt 0.117311 0.900360
vt 0.105618 0.925612
vt 0.099419 0.925612
vt 0.097784 0.925612
vt 0.118946 0.934290
vt 0.111112 0.934290
vt 0.111112 0.925612
vt 0.097784 0.934290
vt 0.105618 0.934290
vt 0.167706 0.583482
vt 0.167706 0.582907
vt 0.158215 0.585248
vt 0.156875 0.586240
vt 0.173407 0.579052
vt 0.174483 0.579101
vt 0.174483 0.582007
vt 0.173407 0.581903
vt 0.156875 0.568489
vt 0.155091 0.568489
vt 0.158108 0.569564
vt 0.174483 0.582439
vt 0.172690 0.581877
vt 0.174483 0.576194
vt 0.173407 0.576201
vt 0.173558 0.575816
vt 0.174483 0.575339
vt 0.172690 0.579040
vt 0.155091 0.586240
vt 0.172690 0.576203
vt 0.167706 0.573542
vt 0.167706 0.574008
vt 0.167706 0.578512
vt 0.154106 0.577364
vt 0.156875 0.577364
vt 0.163414 0.559101
vt 0.159351 0.559062
vt 0.165596 0.555302
vt 0.181260 0.583482
vt 0.192091 0.586240
vt 0.190750 0.585248
vt 0.181260 0.582907
vt 0.175559 0.579052
vt 0.175559 0.581903
vt 0.192091 0.568489
vt 0.190858 0.569564
vt 0.193874 0.568489
vt 0.176275 0.581877
vt 0.175408 0.575816
vt 0.175559 0.576201
vt 0.176275 0.579040
vt 0.193874 0.586240
vt 0.176275 0.576203
vt 0.181260 0.574008
vt 0.181260 0.573542
vt 0.181260 0.578512
vt 0.194859 0.577364
vt 0.192091 0.577364
vt 0.185551 0.559101
vt 0.189615 0.559062
vt 0.183370 0.555302
s 0
usemtl Winter_Pack_Texture
f 13/1/1 14/1/1 15/1/1 16/1/1
f 17/1/2 18/1/2 19/1/2 20/1/2
f 25/1/3 5/1/3 6/1/3 26/1/3
f 13/1/1 7/1/1 8/1/1 14/1/1
f 27/1/4 8/1/4 7/1/4 28/1/4
f 18/1/2 41/1/2 42/1/2 19/1/2
f 5/1/1 16/1/1 15/1/1 6/1/1
f 17/1/2 39/1/2 38/1/2 18/1/2
f 20/1/2 45/1/2 44/1/2 17/1/2
f 14/1/1 9/1/1 10/1/1 15/1/1
f 29/1/5 11/1/5 12/1/5 30/1/5
f 11/1/1 13/1/1 16/1/1 12/1/1
f 31/1/6 10/1/6 9/1/6 32/1/6
f 3/2/1 6/3/1 15/3/1 10/2/1
f 23/4/1 29/4/1 55/5/1 51/5/1
f 5/6/1 1/7/1 12/7/1 16/6/1
f 26/8/1 24/9/1 52/10/1 37/8/1
f 49/11/2 41/11/2 18/12/2 38/12/2
f 9/2/1 14/3/1 8/3/1 4/2/1
f 13/6/1 11/7/1 2/7/1 7/6/1
f 21/4/1 25/13/1 53/13/1 50/5/1
f 19/12/2 42/11/2 48/11/2 36/12/2
f 22/9/1 27/8/1 54/8/1 33/10/1
f 11/7/5 29/4/5 23/4/5 2/7/5
f 1/7/5 21/4/5 30/4/5 12/7/5
f 10/2/6 31/9/6 24/9/6 3/2/6
f 4/2/6 22/9/6 32/9/6 9/2/6
f 2/7/4 23/4/4 28/13/4 7/6/4
f 8/3/4 27/8/4 22/9/4 4/2/4
f 5/6/3 25/13/3 21/4/3 1/7/3
f 3/2/3 24/9/3 26/8/3 6/3/3
f 28/13/1 23/4/1 51/5/1 40/13/1
f 25/1/1 26/1/1 37/1/1 53/1/1
f 52/10/3 47/14/3 35/15/3 37/8/3
f 53/13/3 36/12/3 48/11/3 50/5/3
f 54/8/4 39/15/4 34/14/4 33/10/4
f 51/5/4 49/11/4 38/12/4 40/13/4
f 33/10/6 34/14/6 44/14/6 46/10/6
f 56/10/6 45/14/6 47/14/6 52/10/6
f 50/5/5 48/11/5 42/11/5 43/5/5
f 55/5/5 41/11/5 49/11/5 51/5/5
f 45/1/6 56/1/6 46/1/6 44/1/6
f 41/1/5 55/1/5 43/1/5 42/1/5
f 39/1/4 54/1/4 40/1/4 38/1/4
f 36/1/3 53/1/3 37/1/3 35/1/3
f 31/1/1 32/1/1 46/1/1 56/1/1
f 20/15/2 35/15/2 47/14/2 45/14/2
f 30/4/1 21/4/1 50/5/1 43/5/1
f 29/1/1 30/1/1 43/1/1 55/1/1
f 24/9/1 31/9/1 56/10/1 52/10/1
f 27/1/1 28/1/1 40/1/1 54/1/1
f 32/9/1 22/9/1 33/10/1 46/10/1
f 34/14/2 39/15/2 17/15/2 44/14/2
f 19/1/2 36/1/2 35/1/2 20/1/2
f 67/16/7 74/17/7 75/18/7 70/19/7
f 80/20/8 79/21/8 58/22/8 60/23/8
f 69/24/9 77/25/9 78/26/9
f 60/23/10 58/22/10 64/27/10 66/28/10
f 57/29/11 59/30/11 91/31/11 63/32/11
f 80/20/12 60/23/12 66/28/12 81/33/12
f 70/19/13 75/18/13 76/34/13
f 71/35/14 65/35/14 68/36/14 73/37/14
f 81/33/15 66/28/15 67/16/15 82/38/15
f 73/37/16 68/36/16 69/24/16 78/26/16
f 84/39/17 77/25/17 69/24/17 83/40/17
f 82/38/18 67/16/18 70/19/18 83/40/18
f 66/28/19 72/28/19 74/17/19 67/16/19
f 66/28/20 64/27/20 62/27/20 72/28/20
f 63/32/21 91/31/21 65/35/21 71/35/21 61/32/21
f 68/36/22 82/38/22 83/40/22 69/24/22
f 76/34/23 84/39/23 83/40/23 70/19/23
f 65/35/24 81/33/24 82/38/24 68/36/24
f 59/30/25 80/20/25 81/33/25 65/35/25
f 59/30/26 57/29/26 79/21/26 80/20/26
f 86/41/27 87/42/27 88/42/27 85/41/27
f 86/41/28 85/41/28 90/43/28 89/43/28
f 88/42/29 87/42/29 65/35/29 71/35/29
f 89/43/30 90/43/30 61/32/30 63/32/30
f 91/31/31 65/35/31 87/42/31 86/41/31
f 91/31/32 59/30/32 65/35/32
f 86/41/33 89/43/33 63/32/33 91/31/33
f 96/44/34 99/45/34 104/46/34 103/47/34
f 108/48/35 93/49/35 58/22/35 79/21/35
f 98/50/36 107/51/36 106/52/36
f 93/49/37 95/53/37 64/27/37 58/22/37
f 57/29/38 63/32/38 119/54/38 92/55/38
f 108/48/39 109/56/39 95/53/39 93/49/39
f 99/45/40 105/57/40 104/46/40
f 100/58/41 102/59/41 97/60/41 94/58/41
f 109/56/42 110/61/42 96/44/42 95/53/42
f 102/59/43 107/51/43 98/50/43 97/60/43
f 112/62/44 111/63/44 98/50/44 106/52/44
f 110/61/45 111/63/45 99/45/45 96/44/45
f 95/53/46 96/44/46 103/47/46 101/53/46
f 95/53/47 101/53/47 62/27/47 64/27/47
f 63/32/48 61/32/48 100/58/48 94/58/48 119/54/48
f 97/60/49 98/50/49 111/63/49 110/61/49
f 105/57/50 99/45/50 111/63/50 112/62/50
f 94/58/51 97/60/51 110/61/51 109/56/51
f 92/55/52 94/58/52 109/56/52 108/48/52
f 92/55/53 108/48/53 79/21/53 57/29/53
f 114/64/54 113/64/54 116/65/54 115/65/54
f 114/64/55 117/66/55 118/66/55 113/64/55
f 116/65/56 100/58/56 94/58/56 115/65/56
f 117/66/57 63/32/57 61/32/57 118/66/57
f 119/54/58 114/64/58 115/65/58 94/58/58
f 119/54/59 94/58/59 92/55/59
f 114/64/60 119/54/60 63/32/60 117/66/60
f 128/16/61 131/19/61 75/18/61 74/17/61
f 133/20/62 123/23/62 121/22/62 132/21/62
f 130/24/63 78/26/63 77/25/63
f 123/23/64 127/28/64 125/27/64 121/22/64
f 120/29/65 124/32/65 140/31/65 122/30/65
f 133/20/66 134/33/66 127/28/66 123/23/66
f 131/19/67 76/34/67 75/18/67
f 71/35/68 73/37/68 129/36/68 126/35/68
f 134/33/69 135/38/69 128/16/69 127/28/69
f 73/37/70 78/26/70 130/24/70 129/36/70
f 84/39/71 136/40/71 130/24/71 77/25/71
f 135/38/72 136/40/72 131/19/72 128/16/72
f 127/28/73 128/16/73 74/17/73 72/28/73
f 127/28/20 72/28/20 62/27/20 125/27/20
f 124/32/74 61/32/74 71/35/74 126/35/74 140/31/74
f 129/36/75 130/24/75 136/40/75 135/38/75
f 76/34/76 131/19/76 136/40/76 84/39/76
f 126/35/77 129/36/77 135/38/77 134/33/77
f 122/30/78 126/35/78 134/33/78 133/20/78
f 122/30/79 133/20/79 132/21/79 120/29/79
f 137/41/27 85/41/27 88/42/27 138/42/27
f 137/41/28 139/43/28 90/43/28 85/41/28
f 88/42/29 71/35/29 126/35/29 138/42/29
f 139/43/30 124/32/30 61/32/30 90/43/30
f 140/31/80 137/41/80 138/42/80 126/35/80
f 140/31/81 126/35/81 122/30/81
f 137/41/82 140/31/82 124/32/82 139/43/82
f 145/44/83 103/47/83 104/46/83 148/45/83
f 149/48/84 132/21/84 121/22/84 142/49/84
f 147/50/85 106/52/85 107/51/85
f 142/49/86 121/22/86 125/27/86 144/53/86
f 120/29/87 141/55/87 156/54/87 124/32/87
f 149/48/88 142/49/88 144/53/88 150/56/88
f 148/45/89 104/46/89 105/57/89
f 100/58/90 143/58/90 146/60/90 102/59/90
f 150/56/91 144/53/91 145/44/91 151/61/91
f 102/59/92 146/60/92 147/50/92 107/51/92
f 112/62/93 106/52/93 147/50/93 152/63/93
f 151/61/94 145/44/94 148/45/94 152/63/94
f 144/53/95 101/53/95 103/47/95 145/44/95
f 144/53/47 125/27/47 62/27/47 101/53/47
f 124/32/96 156/54/96 143/58/96 100/58/96 61/32/96
f 146/60/97 151/61/97 152/63/97 147/50/97
f 105/57/98 112/62/98 152/63/98 148/45/98
f 143/58/99 150/56/99 151/61/99 146/60/99
f 141/55/100 149/48/100 150/56/100 143/58/100
f 141/55/101 120/29/101 132/21/101 149/48/101
f 153/64/54 154/65/54 116/65/54 113/64/54
f 153/64/55 113/64/55 118/66/55 155/66/55
f 116/65/56 154/65/56 143/58/56 100/58/56
f 155/66/57 118/66/57 61/32/57 124/32/57
f 156/54/102 143/58/102 154/65/102 153/64/102
f 156/54/103 141/55/103 143/58/103
f 153/64/104 155/66/104 124/32/104 156/54/104
