# Blender 5.0.0
# www.blender.org
mtllib gift_box_B_Round.mtl
o gift_box_B_Round
v 0.138635 -0.053286 -0.127635
v 0.042294 -0.053286 -0.178127
v 0.191880 -0.053286 -0.037329
v 0.042791 -0.053286 -0.039852
v 0.042791 0.320922 -0.039852
v 0.138635 0.227770 -0.127635
v 0.042294 0.227770 -0.178127
v 0.191880 0.227770 -0.037329
v 0.042294 0.320922 -0.223157
v 0.229872 0.320922 -0.037329
v 0.229872 0.227770 -0.037329
v 0.173954 0.320922 -0.162040
v 0.173954 0.227770 -0.162039
v 0.042294 0.227770 -0.223157
v -0.138635 -0.053286 -0.127635
v -0.042294 -0.053286 -0.178127
v -0.191880 -0.053286 -0.037329
v -0.042791 -0.053286 -0.039852
v -0.042791 0.320922 -0.039852
v -0.138635 0.227770 -0.127635
v -0.042294 0.227770 -0.178127
v -0.191880 0.227770 -0.037329
v -0.042295 0.320922 -0.223157
v -0.229872 0.320922 -0.037329
v -0.229872 0.227770 -0.037329
v -0.173954 0.320922 -0.162039
v -0.173954 0.227770 -0.162039
v -0.042295 0.227770 -0.223157
v 0.138635 -0.053286 0.127635
v 0.042294 -0.053286 0.178127
v 0.191880 -0.053286 0.037329
v 0.042791 -0.053286 0.039852
v 0.042791 0.320922 0.039852
v 0.138635 0.227770 0.127635
v 0.042294 0.227770 0.178127
v 0.191880 0.227770 0.037329
v 0.042295 0.320922 0.223157
v 0.229872 0.320922 0.037329
v 0.229872 0.227770 0.037329
v 0.173954 0.320922 0.162039
v 0.173954 0.227770 0.162039
v 0.042295 0.227770 0.223157
v -0.138635 -0.053286 0.127635
v -0.042294 -0.053286 0.178127
v -0.191880 -0.053286 0.037329
v -0.042791 -0.053286 0.039852
v -0.042791 0.320922 0.039852
v -0.138635 0.227770 0.127635
v -0.042294 0.227770 0.178127
v -0.191880 0.227770 0.037329
v -0.042294 0.320922 0.223157
v -0.229872 0.320922 0.037329
v -0.229872 0.227770 0.037329
v -0.173954 0.320922 0.162039
v -0.173954 0.227770 0.162039
v -0.042294 0.227770 0.223157
v 0.001234 0.344203 0.022836
v 0.001234 0.346055 -0.038739
v -0.010169 0.339797 0.022638
v -0.010169 0.341507 -0.037755
v 0.001234 0.321977 0.031284
v 0.001234 0.324074 -0.043922
v 0.001234 0.329190 0.031485
v 0.001234 0.332547 -0.043685
v -0.017762 0.331548 0.022390
v -0.017762 0.333224 -0.037717
v -0.070580 0.350225 -0.054254
v -0.070580 0.347289 0.051040
v -0.185353 0.389332 0.105779
v -0.185353 0.394576 -0.082249
v -0.017762 0.322232 0.022130
v -0.017762 0.323909 -0.037977
v -0.070580 0.332515 0.045688
v -0.070580 0.335144 -0.048584
v -0.171152 0.369623 -0.072438
v -0.204256 0.369916 -0.082937
v -0.204256 0.364671 0.105092
v -0.172290 0.364989 0.093706
v 0.001234 0.345129 -0.007952
v -0.010169 0.340652 -0.007559
v -0.017762 0.332386 -0.007664
v -0.070580 0.355684 -0.001414
v -0.185353 0.402918 0.012071
v -0.214691 0.367293 0.011077
v -0.116058 0.334073 0.203762
v -0.116058 0.348067 0.204153
v -0.159118 0.352010 0.204670
v -0.159118 0.334062 0.204169
v -0.092941 0.350899 0.244501
v -0.092941 0.332951 0.244001
v -0.008571 0.330493 0.026461
v 0.012637 0.339797 0.022638
v 0.012637 0.341507 -0.037755
v 0.020230 0.331548 0.022390
v 0.020230 0.333224 -0.037717
v 0.073048 0.350225 -0.054254
v 0.073048 0.347289 0.051039
v 0.187821 0.389332 0.105779
v 0.187821 0.394576 -0.082250
v 0.020230 0.322232 0.022130
v 0.020230 0.323909 -0.037977
v 0.073048 0.332515 0.045688
v 0.073048 0.335144 -0.048584
v 0.173620 0.369623 -0.072438
v 0.206724 0.369916 -0.082937
v 0.206724 0.364671 0.105091
v 0.174758 0.364989 0.093706
v 0.012637 0.340652 -0.007559
v 0.020230 0.332386 -0.007664
v 0.073048 0.355684 -0.001414
v 0.187821 0.402918 0.012071
v 0.217159 0.367293 0.011077
v 0.118526 0.334073 0.203762
v 0.118526 0.348067 0.204152
v 0.161586 0.352010 0.204670
v 0.161586 0.334062 0.204169
v 0.095409 0.350899 0.244501
v 0.095409 0.332951 0.244001
v 0.011039 0.330493 0.026461
v 0.001234 0.304314 0.021723
v 0.001234 0.305898 -0.039859
v -0.010169 0.304667 0.021658
v -0.010169 0.306325 -0.038737
v 0.001234 0.314763 0.031082
v 0.001234 0.315601 -0.044158
v -0.017762 0.312916 0.021870
v -0.017762 0.314593 -0.038237
v -0.070580 0.320403 -0.055086
v -0.070580 0.317466 0.050208
v -0.185353 0.340010 0.104404
v -0.185353 0.345255 -0.083625
v 0.001234 0.305106 -0.009068
v -0.010169 0.305496 -0.008539
v -0.017762 0.313755 -0.008183
v -0.070580 0.312007 -0.002632
v -0.185353 0.331669 0.010084
v -0.116058 0.320080 0.203372
v -0.159118 0.316114 0.203669
v -0.092941 0.315003 0.243500
v -0.008571 0.313743 0.025994
v 0.012637 0.304667 0.021658
v 0.012637 0.306325 -0.038737
v 0.020230 0.312916 0.021870
v 0.020230 0.314593 -0.038237
v 0.073048 0.320403 -0.055086
v 0.073048 0.317466 0.050208
v 0.187821 0.340010 0.104404
v 0.187821 0.345255 -0.083625
v 0.012637 0.305496 -0.008539
v 0.020230 0.313755 -0.008183
v 0.073048 0.312007 -0.002632
v 0.187821 0.331669 0.010083
v 0.118526 0.320080 0.203372
v 0.161586 0.316114 0.203668
v 0.095409 0.315003 0.243500
v 0.011039 0.313743 0.025994
vn -0.0000 1.0000 -0.0000
vn 1.0000 -0.0000 -0.0000
vn -0.0000 -1.0000 -0.0000
vn 0.8614 -0.0000 -0.5079
vn 0.4642 -0.0000 -0.8857
vn 0.4211 -0.0000 -0.9070
vn 0.9125 -0.0000 -0.4091
vn -1.0000 -0.0000 -0.0000
vn -0.8614 -0.0000 -0.5079
vn -0.4642 -0.0000 -0.8857
vn -0.4211 -0.0000 -0.9070
vn -0.9125 -0.0000 -0.4091
vn 0.8614 -0.0000 0.5079
vn 0.4642 -0.0000 0.8857
vn 0.4211 -0.0000 0.9070
vn 0.9125 -0.0000 0.4091
vn -0.0000 -0.0000 1.0000
vn -0.0000 -0.0000 -1.0000
vn -0.8614 -0.0000 0.5079
vn -0.4642 -0.0000 0.8857
vn -0.4211 -0.0000 0.9070
vn -0.9125 -0.0000 0.4091
vn 0.1071 -0.3253 -0.9395
vn -0.3664 0.9301 0.0272
vn 0.3251 -0.2744 0.9050
vn -0.2485 0.2944 -0.9228
vn -0.2746 0.4245 0.8628
vn -0.7367 0.6760 0.0190
vn 0.2946 -0.1998 -0.9345
vn 0.3915 -0.2088 0.8962
vn 0.3604 0.9314 -0.0519
vn 0.3265 -0.2915 0.8991
vn -0.7784 0.6202 0.0968
vn 0.3739 0.9234 -0.0866
vn 0.1895 -0.2126 -0.9586
vn -0.2988 0.0266 -0.9540
vn -0.4325 -0.0071 0.9016
vn 0.3941 0.9088 0.1367
vn -0.7784 0.6246 -0.0621
vn 0.3746 0.9214 0.1031
vn -0.7362 0.6766 0.0190
vn -0.3626 0.9315 0.0272
vn 0.0095 -0.0279 0.9996
vn -0.8672 -0.0139 0.4978
vn -0.7892 0.0171 -0.6139
vn 0.9141 -0.0113 0.4053
vn 0.0977 0.9945 -0.0376
vn -0.3569 0.3019 0.8840
vn 0.0536 0.9959 -0.0725
vn -0.1071 -0.3253 -0.9395
vn 0.3664 0.9301 0.0272
vn -0.3251 -0.2744 0.9050
vn 0.2485 0.2944 -0.9228
vn 0.2746 0.4245 0.8628
vn 0.7367 0.6760 0.0190
vn -0.2946 -0.1998 -0.9345
vn -0.3915 -0.2088 0.8962
vn -0.3604 0.9314 -0.0519
vn -0.3265 -0.2915 0.8991
vn 0.7784 0.6202 0.0968
vn -0.3739 0.9234 -0.0866
vn -0.1895 -0.2126 -0.9586
vn 0.2988 0.0266 -0.9540
vn 0.4325 -0.0071 0.9016
vn -0.3941 0.9088 0.1367
vn 0.7784 0.6246 -0.0621
vn -0.3746 0.9214 0.1031
vn 0.7361 0.6766 0.0190
vn 0.3626 0.9315 0.0272
vn -0.0095 -0.0279 0.9996
vn 0.8672 -0.0139 0.4978
vn 0.7892 0.0171 -0.6139
vn -0.9141 -0.0113 0.4053
vn -0.0977 0.9945 -0.0376
vn 0.3569 0.3019 0.8840
vn -0.0536 0.9959 -0.0725
vn 0.3026 0.2994 -0.9049
vn -0.0377 -0.9989 -0.0266
vn 0.3251 0.2235 0.9189
vn -0.2110 -0.2867 -0.9345
vn -0.1799 -0.5549 0.8122
vn -0.7367 -0.6760 -0.0187
vn 0.2946 0.2515 -0.9219
vn 0.4530 0.1535 0.8782
vn -0.0263 -0.9935 -0.1112
vn 0.4572 0.1817 0.8706
vn -0.7784 -0.6246 0.0621
vn -0.1786 -0.9730 -0.1463
vn 0.2820 0.2596 -0.9236
vn -0.4325 -0.0431 0.9006
vn -0.1540 -0.9838 0.0922
vn -0.7784 -0.6202 -0.0968
vn -0.0086 -0.9984 0.0556
vn -0.7362 -0.6766 -0.0187
vn -0.0331 -0.9991 -0.0266
vn 0.0848 -0.9928 0.0851
vn -0.3569 -0.3507 0.8658
vn -0.0852 -0.9960 -0.0273
vn -0.3026 0.2994 -0.9049
vn 0.0377 -0.9989 -0.0266
vn -0.3251 0.2235 0.9189
vn 0.2110 -0.2867 -0.9345
vn 0.1799 -0.5549 0.8122
vn 0.7367 -0.6760 -0.0187
vn -0.2946 0.2515 -0.9219
vn -0.4530 0.1535 0.8782
vn 0.0263 -0.9935 -0.1112
vn -0.4572 0.1817 0.8706
vn 0.7784 -0.6246 0.0621
vn 0.1786 -0.9730 -0.1463
vn -0.2820 0.2596 -0.9236
vn 0.4325 -0.0431 0.9006
vn 0.1540 -0.9838 0.0922
vn 0.7784 -0.6202 -0.0968
vn 0.0086 -0.9984 0.0556
vn 0.7362 -0.6766 -0.0187
vn 0.0331 -0.9991 -0.0266
vn -0.0848 -0.9928 0.0851
vn 0.3569 -0.3507 0.8658
vn 0.0852 -0.9960 -0.0273
vt 0.438352 0.817773
vt 0.110195 0.901227
vt 0.114814 0.901227
vt 0.117367 0.901227
vt 0.110219 0.901227
vt 0.114814 0.925708
vt 0.110195 0.925708
vt 0.116507 0.925708
vt 0.110219 0.933822
vt 0.119188 0.933822
vt 0.116507 0.933822
vt 0.110195 0.933822
vt 0.117367 0.925708
vt 0.119188 0.925708
vt 0.106139 0.901227
vt 0.106115 0.901227
vt 0.098967 0.901227
vt 0.101520 0.901227
vt 0.101520 0.925708
vt 0.099827 0.925708
vt 0.106139 0.925708
vt 0.106115 0.933822
vt 0.106139 0.933822
vt 0.099827 0.933822
vt 0.097146 0.933822
vt 0.098967 0.925708
vt 0.097146 0.925708
vt 0.167706 0.583482
vt 0.167706 0.582907
vt 0.158215 0.585248
vt 0.156875 0.586240
vt 0.173407 0.579052
vt 0.174483 0.579101
vt 0.174483 0.582007
vt 0.173407 0.581903
vt 0.156875 0.568489
vt 0.155091 0.568489
vt 0.158108 0.569564
vt 0.174483 0.582439
vt 0.172690 0.581877
vt 0.174483 0.576194
vt 0.173407 0.576201
vt 0.173558 0.575816
vt 0.174483 0.575339
vt 0.172690 0.579040
vt 0.155091 0.586240
vt 0.172690 0.576203
vt 0.167706 0.573542
vt 0.167706 0.574008
vt 0.167706 0.578512
vt 0.154106 0.577364
vt 0.156875 0.577364
vt 0.163414 0.559101
vt 0.159351 0.559062
vt 0.165596 0.555302
vt 0.181260 0.583482
vt 0.192091 0.586240
vt 0.190750 0.585248
vt 0.181260 0.582907
vt 0.175559 0.579052
vt 0.175559 0.581903
vt 0.192091 0.568489
vt 0.190858 0.569564
vt 0.193874 0.568489
vt 0.176275 0.581877
vt 0.175408 0.575816
vt 0.175559 0.576201
vt 0.176275 0.579040
vt 0.193874 0.586240
vt 0.176275 0.576203
vt 0.181260 0.574008
vt 0.181260 0.573542
vt 0.181260 0.578512
vt 0.194859 0.577364
vt 0.192091 0.577364
vt 0.185551 0.559101
vt 0.189615 0.559062
vt 0.183370 0.555302
s 0
usemtl Winter_Pack_Texture
f 47/1/1 51/1/1 37/1/1 33/1/1
f 5/1/1 33/1/1 38/1/1 10/1/1
f 8/1/2 36/1/2 31/1/2 3/1/2
f 2/2/3 1/3/3 3/4/3 4/5/3
f 6/6/3 7/7/3 14/7/3 13/8/3
f 5/9/1 10/10/1 12/11/1 9/12/1
f 1/3/4 6/6/4 8/13/4 3/4/4
f 2/2/5 7/7/5 6/6/5 1/3/5
f 14/7/6 9/12/6 12/11/6 13/8/6
f 13/8/7 12/11/7 10/10/7 11/14/7
f 3/1/3 31/1/3 32/1/3 4/1/3
f 8/13/3 6/6/3 13/8/3 11/14/3
f 10/1/2 38/1/2 39/1/2 11/1/2
f 49/1/3 35/1/3 42/1/3 56/1/3
f 44/1/3 46/1/3 32/1/3 30/1/3
f 11/1/3 39/1/3 36/1/3 8/1/3
f 19/1/1 47/1/1 33/1/1 5/1/1
f 24/1/1 52/1/1 47/1/1 19/1/1
f 17/1/8 45/1/8 50/1/8 22/1/8
f 16/15/3 18/16/3 17/17/3 15/18/3
f 20/19/3 27/20/3 28/21/3 21/21/3
f 19/22/1 23/23/1 26/24/1 24/25/1
f 15/18/9 17/17/9 22/26/9 20/19/9
f 16/15/10 15/18/10 20/19/10 21/21/10
f 28/21/11 27/20/11 26/24/11 23/23/11
f 27/20/12 25/27/12 24/25/12 26/24/12
f 18/1/3 46/1/3 45/1/3 17/1/3
f 22/26/3 25/27/3 27/20/3 20/19/3
f 25/1/8 53/1/8 52/1/8 24/1/8
f 22/1/3 50/1/3 53/1/3 25/1/3
f 30/2/3 32/5/3 31/4/3 29/3/3
f 34/6/3 41/8/3 42/7/3 35/7/3
f 33/9/1 37/12/1 40/11/1 38/10/1
f 29/3/13 31/4/13 36/13/13 34/6/13
f 30/2/14 29/3/14 34/6/14 35/7/14
f 42/7/15 41/8/15 40/11/15 37/12/15
f 41/8/16 39/14/16 38/10/16 40/11/16
f 36/13/3 39/14/3 41/8/3 34/6/3
f 56/1/17 42/1/17 37/1/17 51/1/17
f 4/1/3 32/1/3 46/1/3 18/1/3
f 35/1/17 49/1/17 44/1/17 30/1/17
f 2/1/18 16/1/18 21/1/18 7/1/18
f 44/15/3 43/18/3 45/17/3 46/16/3
f 48/19/3 49/21/3 56/21/3 55/20/3
f 47/22/1 52/25/1 54/24/1 51/23/1
f 43/18/19 48/19/19 50/26/19 45/17/19
f 44/15/20 49/21/20 48/19/20 43/18/20
f 56/21/21 51/23/21 54/24/21 55/20/21
f 55/20/22 54/24/22 52/25/22 53/27/22
f 50/26/3 48/19/3 55/20/3 53/27/3
f 7/1/3 21/1/3 28/1/3 14/1/3
f 9/1/18 14/1/18 28/1/18 23/1/18
f 19/1/1 5/1/1 9/1/1 23/1/1
f 16/1/3 2/1/3 4/1/3 18/1/3
f 67/28/23 74/29/23 75/30/23 70/31/23
f 80/32/24 79/33/24 58/34/24 60/35/24
f 69/36/25 77/37/25 78/38/25
f 60/35/26 58/34/26 64/39/26 66/40/26
f 57/41/27 59/42/27 91/43/27 63/44/27
f 80/32/28 60/35/28 66/40/28 81/45/28
f 70/31/29 75/30/29 76/46/29
f 71/47/30 65/47/30 68/48/30 73/49/30
f 81/45/31 66/40/31 67/28/31 82/50/31
f 73/49/32 68/48/32 69/36/32 78/38/32
f 84/51/33 77/37/33 69/36/33 83/52/33
f 82/50/34 67/28/34 70/31/34 83/52/34
f 66/40/35 72/40/35 74/29/35 67/28/35
f 66/40/36 64/39/36 62/39/36 72/40/36
f 63/44/37 91/43/37 65/47/37 71/47/37 61/44/37
f 68/48/38 82/50/38 83/52/38 69/36/38
f 76/46/39 84/51/39 83/52/39 70/31/39
f 65/47/40 81/45/40 82/50/40 68/48/40
f 59/42/41 80/32/41 81/45/41 65/47/41
f 59/42/42 57/41/42 79/33/42 80/32/42
f 86/53/43 87/54/43 88/54/43 85/53/43
f 86/53/44 85/53/44 90/55/44 89/55/44
f 88/54/45 87/54/45 65/47/45 71/47/45
f 89/55/46 90/55/46 61/44/46 63/44/46
f 91/43/47 65/47/47 87/54/47 86/53/47
f 91/43/48 59/42/48 65/47/48
f 86/53/49 89/55/49 63/44/49 91/43/49
f 96/56/50 99/57/50 104/58/50 103/59/50
f 108/60/51 93/61/51 58/34/51 79/33/51
f 98/62/52 107/63/52 106/64/52
f 93/61/53 95/65/53 64/39/53 58/34/53
f 57/41/54 63/44/54 119/66/54 92/67/54
f 108/60/55 109/68/55 95/65/55 93/61/55
f 99/57/56 105/69/56 104/58/56
f 100/70/57 102/71/57 97/72/57 94/70/57
f 109/68/58 110/73/58 96/56/58 95/65/58
f 102/71/59 107/63/59 98/62/59 97/72/59
f 112/74/60 111/75/60 98/62/60 106/64/60
f 110/73/61 111/75/61 99/57/61 96/56/61
f 95/65/62 96/56/62 103/59/62 101/65/62
f 95/65/63 101/65/63 62/39/63 64/39/63
f 63/44/64 61/44/64 100/70/64 94/70/64 119/66/64
f 97/72/65 98/62/65 111/75/65 110/73/65
f 105/69/66 99/57/66 111/75/66 112/74/66
f 94/70/67 97/72/67 110/73/67 109/68/67
f 92/67/68 94/70/68 109/68/68 108/60/68
f 92/67/69 108/60/69 79/33/69 57/41/69
f 114/76/70 113/76/70 116/77/70 115/77/70
f 114/76/71 117/78/71 118/78/71 113/76/71
f 116/77/72 100/70/72 94/70/72 115/77/72
f 117/78/73 63/44/73 61/44/73 118/78/73
f 119/66/74 114/76/74 115/77/74 94/70/74
f 119/66/75 94/70/75 92/67/75
f 114/76/76 119/66/76 63/44/76 117/78/76
f 128/28/77 131/31/77 75/30/77 74/29/77
f 133/32/78 123/35/78 121/34/78 132/33/78
f 130/36/79 78/38/79 77/37/79
f 123/35/80 127/40/80 125/39/80 121/34/80
f 120/41/81 124/44/81 140/43/81 122/42/81
f 133/32/82 134/45/82 127/40/82 123/35/82
f 131/31/83 76/46/83 75/30/83
f 71/47/84 73/49/84 129/48/84 126/47/84
f 134/45/85 135/50/85 128/28/85 127/40/85
f 73/49/86 78/38/86 130/36/86 129/48/86
f 84/51/87 136/52/87 130/36/87 77/37/87
f 135/50/88 136/52/88 131/31/88 128/28/88
f 127/40/89 128/28/89 74/29/89 72/40/89
f 127/40/36 72/40/36 62/39/36 125/39/36
f 124/44/90 61/44/90 71/47/90 126/47/90 140/43/90
f 129/48/91 130/36/91 136/52/91 135/50/91
f 76/46/92 131/31/92 136/52/92 84/51/92
f 126/47/93 129/48/93 135/50/93 134/45/93
f 122/42/94 126/47/94 134/45/94 133/32/94
f 122/42/95 133/32/95 132/33/95 120/41/95
f 137/53/43 85/53/43 88/54/43 138/54/43
f 137/53/44 139/55/44 90/55/44 85/53/44
f 88/54/45 71/47/45 126/47/45 138/54/45
f 139/55/46 124/44/46 61/44/46 90/55/46
f 140/43/96 137/53/96 138/54/96 126/47/96
f 140/43/97 126/47/97 122/42/97
f 137/53/98 140/43/98 124/44/98 139/55/98
f 145/56/99 103/59/99 104/58/99 148/57/99
f 149/60/100 132/33/100 121/34/100 142/61/100
f 147/62/101 106/64/101 107/63/101
f 142/61/102 121/34/102 125/39/102 144/65/102
f 120/41/103 141/67/103 156/66/103 124/44/103
f 149/60/104 142/61/104 144/65/104 150/68/104
f 148/57/105 104/58/105 105/69/105
f 100/70/106 143/70/106 146/72/106 102/71/106
f 150/68/107 144/65/107 145/56/107 151/73/107
f 102/71/108 146/72/108 147/62/108 107/63/108
f 112/74/109 106/64/109 147/62/109 152/75/109
f 151/73/110 145/56/110 148/57/110 152/75/110
f 144/65/111 101/65/111 103/59/111 145/56/111
f 144/65/63 125/39/63 62/39/63 101/65/63
f 124/44/112 156/66/112 143/70/112 100/70/112 61/44/112
f 146/72/113 151/73/113 152/75/113 147/62/113
f 105/69/114 112/74/114 152/75/114 148/57/114
f 143/70/115 150/68/115 151/73/115 146/72/115
f 141/67/116 149/60/116 150/68/116 143/70/116
f 141/67/117 120/41/117 132/33/117 149/60/117
f 153/76/70 154/77/70 116/77/70 113/76/70
f 153/76/71 113/76/71 118/78/71 155/78/71
f 116/77/72 154/77/72 143/70/72 100/70/72
f 155/78/73 118/78/73 61/44/73 124/44/73
f 156/66/118 143/70/118 154/77/118 153/76/118
f 156/66/119 141/67/119 143/70/119
f 153/76/120 155/78/120 124/44/120 156/66/120
