# Blender 5.0.0
# www.blender.org
mtllib icicle_D.mtl
o icicle_D
v -0.007468 0.362030 -0.015885
v -0.027151 0.259042 0.020388
v 0.011025 0.258970 0.032001
v 0.033019 0.258996 -0.000941
v 0.007082 0.259056 -0.032891
v -0.029454 0.259133 -0.019729
v -0.023723 0.103453 0.039914
v 0.031736 0.086510 0.045657
v 0.053271 0.095942 -0.016199
v -0.004161 0.103637 -0.036846
v -0.038192 0.107768 -0.019407
v -0.024786 -0.030708 0.056856
v 0.044039 -0.030708 0.049076
v 0.054261 -0.030708 -0.019588
v -0.006472 -0.030708 -0.053883
v -0.073023 -0.030816 -0.028525
vn -0.2703 0.3654 0.8908
vn -0.9768 0.2066 0.0565
vn 0.7701 0.3772 0.5144
vn 0.7594 0.2091 -0.6161
vn -0.3368 0.1069 -0.9355
vn -0.9967 0.0577 0.0573
vn -0.2890 0.1129 0.9506
vn 0.8232 0.1424 0.5497
vn 0.7673 0.1536 -0.6226
vn -0.3384 0.0484 -0.9397
vn -0.9713 0.0084 0.2375
vn -0.0819 0.0689 0.9943
vn 0.9369 0.0846 0.3391
vn 0.3382 -0.0005 -0.9411
vn -0.4536 0.0243 -0.8909
vn 0.9445 -0.0014 0.3286
vn -0.3523 0.1493 -0.9239
vn 0.1122 0.0407 0.9928
vn 0.3494 0.1120 -0.9302
vn -0.8686 0.0688 0.4907
vn 0.9834 0.1075 0.1464
vn -0.4411 0.1204 -0.8893
vn -0.0642 0.1255 0.9900
vn 0.4915 0.0271 -0.8704
vn -0.9437 0.2210 0.2462
vt 0.039245 0.583454
vt 0.038087 0.564119
vt 0.040333 0.564105
vt 0.037952 0.564136
vt 0.041626 0.564110
vt 0.040101 0.564121
vt 0.037438 0.535719
vt 0.038289 0.534908
vt 0.041551 0.531728
vt 0.042817 0.533498
vt 0.039439 0.534943
vt 0.042875 0.509721
vt 0.039303 0.509721
vt 0.035389 0.509701
vt 0.038226 0.509721
vt 0.042274 0.509721
s 0
usemtl Winter_Pack_Texture
f 1/1/1 2/2/1 3/3/1
f 2/2/2 1/1/2 6/4/2
f 1/1/3 3/3/3 4/5/3
f 1/1/4 4/5/4 5/6/4
f 1/1/5 5/6/5 6/4/5
f 2/2/6 6/4/6 11/7/6
f 3/3/7 2/2/7 7/8/7
f 4/5/8 3/3/8 8/9/8
f 5/6/9 4/5/9 9/10/9
f 6/4/10 5/6/10 10/11/10
f 2/2/11 11/7/11 7/8/11
f 3/3/12 7/8/12 8/9/12
f 4/5/13 8/9/13 9/10/13
f 5/6/14 9/10/14 10/11/14
f 6/4/15 10/11/15 11/7/15
f 8/9/16 14/12/16 9/10/16
f 11/7/17 15/13/17 16/14/17
f 8/9/18 12/15/18 13/16/18
f 9/10/19 15/13/19 10/11/19
f 7/8/20 16/14/20 12/15/20
f 8/9/21 13/16/21 14/12/21
f 11/7/22 10/11/22 15/13/22
f 8/9/23 7/8/23 12/15/23
f 9/10/24 14/12/24 15/13/24
f 7/8/25 11/7/25 16/14/25
