# Blender 5.0.0
# www.blender.org
mtllib icicle_C.mtl
o icicle_C
v -0.026587 0.279822 0.006965
v 0.007392 0.388212 -0.000799
v 0.037899 0.268111 -0.002816
v 0.015891 0.279828 -0.040066
v -0.022323 0.279822 -0.032944
v -0.030022 0.084421 0.044348
v 0.025893 0.104293 0.056776
v 0.017501 0.118967 -0.045747
v -0.030873 0.107648 -0.020920
v -0.032128 -0.028729 0.057732
v 0.037576 -0.035003 0.053426
v 0.001258 -0.031911 -0.051426
v -0.054491 -0.032928 -0.016514
v 0.053015 -0.031773 -0.008016
vn -0.9513 0.2910 -0.1016
vn 0.8680 0.2279 -0.4412
vn -0.1734 0.3234 -0.9302
vn -0.9935 0.0419 -0.1061
vn -0.3688 0.1809 0.9118
vn 0.7460 0.1787 0.6416
vn -0.1831 0.0329 -0.9825
vn -0.9996 0.0215 0.0207
vn -0.2722 0.1742 0.9463
vn 0.8643 0.0264 -0.5023
vn -0.4488 -0.0401 -0.8927
vn 0.9503 0.0426 0.3084
vn -0.5305 0.0626 -0.8453
vn -0.2030 -0.0406 0.9783
vn 0.6422 -0.0403 -0.7655
vn -0.9570 0.0516 0.2853
vn 0.9662 0.0751 0.2467
vn -0.4704 0.0837 -0.8785
vn 0.0716 0.1159 0.9907
vn 0.8213 0.0512 -0.5683
vn -0.9832 0.1675 0.0724
vt 0.044717 0.568437
vt 0.046716 0.588786
vt 0.044968 0.568437
vt 0.048510 0.566238
vt 0.047216 0.568438
vt 0.044465 0.536113
vt 0.044515 0.531752
vt 0.047804 0.535483
vt 0.047310 0.538238
vt 0.049399 0.509938
vt 0.046355 0.509912
vt 0.043076 0.509721
vt 0.048491 0.509331
vt 0.044392 0.510509
s 0
usemtl Winter_Pack_Texture
f 1/1/1 2/2/1 5/3/1
f 2/2/2 3/4/2 4/5/2
f 2/2/3 4/5/3 5/3/3
f 1/1/4 5/3/4 9/6/4
f 2/2/5 1/1/5 6/7/5
f 3/4/6 2/2/6 7/8/6
f 5/3/7 4/5/7 8/9/7
f 1/1/8 9/6/8 6/7/8
f 2/2/9 6/7/9 7/8/9
f 4/5/10 3/4/10 8/9/10
f 5/3/11 8/9/11 9/6/11
f 7/8/12 14/10/12 3/4/12
f 9/6/13 12/11/13 13/12/13
f 6/7/14 11/13/14 7/8/14
f 8/9/15 14/10/15 12/11/15
f 6/7/16 13/12/16 10/14/16
f 7/8/17 11/13/17 14/10/17
f 9/6/18 8/9/18 12/11/18
f 6/7/19 10/14/19 11/13/19
f 8/9/20 3/4/20 14/10/20
f 6/7/21 9/6/21 13/12/21
