# Blender 5.0.0
# www.blender.org
mtllib icicle_A.mtl
o icicle_A
v 0.007818 0.356000 0.000440
v -0.020672 0.254593 0.019042
v 0.017500 0.254574 0.030648
v 0.039544 0.254591 -0.002250
v 0.011977 0.239125 -0.037865
v -0.022891 0.254633 -0.020997
v -0.018019 0.098973 0.039139
v 0.061194 -0.034462 -0.022345
v -0.035349 0.102432 -0.018063
v -0.018312 -0.035103 0.055503
v 0.048132 -0.026766 0.052097
v -0.003936 -0.025390 -0.063605
v -0.066981 -0.032886 -0.031744
vn -0.2816 0.2491 0.9266
vn -0.9588 0.2792 0.0534
vn 0.8068 0.2381 0.5407
vn 0.7141 0.2408 -0.6573
vn -0.3112 0.2860 -0.9063
vn -0.9951 0.0825 0.0552
vn -0.2888 0.1178 0.9501
vn 0.8235 0.1317 0.5518
vn 0.7649 0.1015 -0.6361
vn -0.9565 0.0213 0.2911
vn -0.0640 0.0689 0.9956
vn 0.9841 0.0622 0.1663
vn -0.4290 0.0177 -0.9031
vn -0.4608 0.1952 -0.8658
vn 0.5394 0.0494 -0.8406
vn -0.8710 0.0614 0.4874
vn -0.6420 0.1124 -0.7584
vn 0.0357 0.1210 0.9920
vn -0.9365 0.1891 0.2952
vt 0.060522 0.583147
vt 0.058846 0.564109
vt 0.061091 0.564105
vt 0.058716 0.564116
vt 0.062388 0.564108
vt 0.060766 0.561205
vt 0.057983 0.535542
vt 0.059002 0.534892
vt 0.062893 0.511286
vt 0.063661 0.509841
vt 0.059831 0.511545
vt 0.056123 0.510137
vt 0.058985 0.509721
s 0
usemtl Winter_Pack_Texture
f 1/1/1 2/2/1 3/3/1
f 2/2/2 1/1/2 6/4/2
f 1/1/3 3/3/3 4/5/3
f 1/1/4 4/5/4 5/6/4
f 1/1/5 5/6/5 6/4/5
f 2/2/6 6/4/6 9/7/6
f 3/3/7 2/2/7 7/8/7
f 4/5/8 3/3/8 11/9/8
f 5/6/9 4/5/9 8/10/9
f 2/2/10 9/7/10 7/8/10
f 3/3/11 7/8/11 11/9/11
f 4/5/12 11/9/12 8/10/12
f 6/4/13 5/6/13 9/7/13
f 9/7/14 12/11/14 13/12/14
f 8/10/15 12/11/15 5/6/15
f 7/8/16 13/12/16 10/13/16
f 9/7/17 5/6/17 12/11/17
f 11/9/18 7/8/18 10/13/18
f 7/8/19 9/7/19 13/12/19
