# Blender 5.0.0
# www.blender.org
mtllib icicle_F.mtl
o icicle_F
v 0.056767 -0.022830 -0.001055
v -0.031911 0.289803 -0.001556
v 0.007022 0.400239 -0.001556
v 0.029921 0.291920 -0.013518
v 0.010530 0.289803 -0.048588
v -0.027647 0.289803 -0.041465
v -0.037201 0.107396 0.033492
v 0.004038 0.117139 0.047278
v 0.048267 0.116191 0.007760
v -0.055363 -0.018665 -0.014236
v 0.029221 -0.021930 0.049797
v -0.000487 -0.021889 -0.060311
v -0.033154 -0.018304 0.043958
vn -0.9384 0.3308 -0.1003
vn 0.8453 0.2319 -0.4814
vn -0.1695 0.3816 -0.9087
vn -0.9912 0.0797 -0.1059
vn -0.5025 0.1772 0.8462
vn 0.7830 0.0977 0.6143
vn 0.8738 0.0325 -0.4852
vn -0.1832 0.0434 -0.9821
vn -0.9781 0.0663 0.1972
vn -0.3472 0.1630 0.9235
vn 0.6598 0.1578 0.7347
vn 0.8201 -0.0075 -0.5722
vn -0.6433 -0.0098 -0.7655
vn 0.8792 0.0236 0.4759
vn -0.3086 -0.0387 0.9504
vn -0.9343 -0.0004 0.3565
vn 0.6619 0.1332 0.7376
vn -0.0883 0.0798 0.9929
vn 0.7171 0.0877 -0.6915
vt 0.023959 0.568437
vt 0.026248 0.589170
vt 0.024209 0.568437
vt 0.027595 0.568834
vt 0.026455 0.568437
vt 0.022579 0.510525
vt 0.023648 0.534192
vt 0.026073 0.536021
vt 0.028674 0.535843
vt 0.025807 0.509920
vt 0.027554 0.509912
vt 0.029174 0.509743
vt 0.023886 0.510593
s 0
usemtl Winter_Pack_Texture
f 2/1/1 3/2/1 6/3/1
f 3/2/2 4/4/2 5/5/2
f 3/2/3 5/5/3 6/3/3
f 2/1/4 6/3/4 10/6/4
f 3/2/5 2/1/5 7/7/5
f 4/4/6 3/2/6 8/8/6
f 5/5/7 4/4/7 9/9/7
f 6/3/8 5/5/8 12/10/8
f 2/1/9 10/6/9 7/7/9
f 3/2/10 7/7/10 8/8/10
f 4/4/11 8/8/11 9/9/11
f 5/5/12 9/9/12 12/10/12
f 6/3/13 12/10/13 10/6/13
f 9/9/14 11/11/14 1/12/14
f 7/7/15 11/11/15 8/8/15
f 7/7/16 10/6/16 13/13/16
f 9/9/17 8/8/17 11/11/17
f 7/7/18 13/13/18 11/11/18
f 9/9/19 1/12/19 12/10/19
