# Blender 5.0.0
# www.blender.org
mtllib icicle_B.mtl
o icicle_B
v -0.002287 0.304179 -0.005489
v -0.020683 0.210231 0.014856
v 0.018909 0.211667 0.031938
v 0.034235 0.213629 0.004892
v 0.002939 0.212267 -0.025889
v -0.030181 0.210269 -0.021871
v -0.012554 0.097042 0.044119
v 0.039307 0.089175 0.034439
v 0.034567 0.087245 -0.020906
v -0.025276 0.089866 -0.044603
v -0.048790 0.092299 -0.005918
v -0.010160 -0.028927 0.063461
v 0.051319 -0.033008 0.036393
v 0.047498 -0.030502 -0.035131
v -0.017563 -0.033008 -0.055298
v -0.061280 -0.032108 -0.014995
vn -0.3899 0.2672 0.8812
vn -0.9405 0.2369 0.2435
vn 0.7945 0.3752 0.4775
vn 0.6834 0.1950 -0.7035
vn -0.1301 0.2078 -0.9695
vn -0.9517 0.1834 0.2463
vn -0.3941 0.2034 0.8963
vn 0.8551 0.1525 0.4956
vn 0.6904 0.1464 -0.7084
vn -0.1291 0.1789 -0.9754
vn -0.8106 0.0913 0.5784
vn 0.1908 0.0518 0.9803
vn 0.9961 0.0202 -0.0860
vn 0.3697 0.0566 -0.9274
vn -0.8510 0.0637 -0.5213
vn 0.9922 0.1149 -0.0490
vn -0.8446 0.1228 -0.5211
vn 0.4054 0.0544 0.9125
vn 0.3701 0.1036 -0.9232
vn -0.8110 0.0737 0.5803
vn 0.9915 0.0961 -0.0883
vn -0.6774 0.0215 -0.7353
vn 0.2036 0.1524 0.9671
vn 0.2878 0.1459 -0.9465
vn -0.8378 0.0444 0.5441
vt 0.053026 0.573047
vt 0.051944 0.555409
vt 0.054272 0.555678
vt 0.051385 0.555416
vt 0.055174 0.556047
vt 0.053333 0.555791
vt 0.050291 0.533268
vt 0.052422 0.534159
vt 0.055472 0.532682
vt 0.055193 0.532319
vt 0.051674 0.532811
vt 0.056178 0.509743
vt 0.055954 0.510213
vt 0.049556 0.509912
vt 0.052563 0.510509
vt 0.052127 0.509743
s 0
usemtl Winter_Pack_Texture
f 1/1/1 2/2/1 3/3/1
f 2/2/2 1/1/2 6/4/2
f 1/1/3 3/3/3 4/5/3
f 1/1/4 4/5/4 5/6/4
f 1/1/5 5/6/5 6/4/5
f 2/2/6 6/4/6 11/7/6
f 3/3/7 2/2/7 7/8/7
f 4/5/8 3/3/8 8/9/8
f 5/6/9 4/5/9 9/10/9
f 6/4/10 5/6/10 10/11/10
f 2/2/11 11/7/11 7/8/11
f 3/3/12 7/8/12 8/9/12
f 4/5/13 8/9/13 9/10/13
f 5/6/14 9/10/14 10/11/14
f 6/4/15 10/11/15 11/7/15
f 9/10/16 13/12/16 14/13/16
f 10/11/17 16/14/17 11/7/17
f 8/9/18 12/15/18 13/12/18
f 9/10/19 15/16/19 10/11/19
f 11/7/20 12/15/20 7/8/20
f 9/10/21 8/9/21 13/12/21
f 10/11/22 15/16/22 16/14/22
f 8/9/23 7/8/23 12/15/23
f 9/10/24 14/13/24 15/16/24
f 11/7/25 16/14/25 12/15/25
