# Blender 5.0.0
# www.blender.org
mtllib icicle_E.mtl
o icicle_E
v -0.005630 0.325495 -0.008926
v -0.020348 0.220250 0.012192
v 0.019393 0.221534 0.029285
v 0.034699 0.223778 0.002221
v 0.003237 0.222551 -0.028571
v -0.029859 0.220027 -0.024519
v -0.014128 0.084535 0.045842
v 0.036666 0.090095 0.032431
v 0.031817 0.090475 -0.019457
v -0.027805 0.084205 -0.037641
v -0.046875 0.077988 0.002715
v -0.014722 -0.022805 0.058833
v 0.051782 -0.023707 0.033776
v 0.048977 -0.023707 -0.035588
v -0.016815 -0.022170 -0.060609
v -0.050388 -0.023083 -0.001986
vn -0.3906 0.2333 0.8905
vn -0.9521 0.1824 0.2455
vn 0.7959 0.3682 0.4806
vn 0.6824 0.1933 -0.7050
vn -0.1328 0.1747 -0.9756
vn -0.9555 0.1618 0.2466
vn -0.3923 0.2044 0.8968
vn 0.8592 0.1248 0.4962
vn 0.6939 0.1009 -0.7130
vn -0.1280 0.0935 -0.9874
vn -0.7996 0.1098 0.5905
vn 0.2492 0.0559 0.9669
vn 0.9956 -0.0064 -0.0931
vn 0.2920 -0.0028 -0.9564
vn -0.9054 0.0272 -0.4237
vn 0.9873 0.1540 -0.0399
vn -0.9060 0.0510 -0.4203
vn 0.2504 0.0447 0.9671
vn 0.2618 0.2295 -0.9375
vn -0.7996 0.0765 0.5956
vn 0.9873 0.1301 -0.0913
vn -0.8678 0.0176 -0.4967
vn 0.3517 0.1106 0.9295
vn 0.3532 0.1827 -0.9175
vn -0.8626 0.0064 0.5058
vt 0.032043 0.575302
vt 0.031177 0.555544
vt 0.033515 0.555785
vt 0.030618 0.555502
vt 0.034415 0.556206
vt 0.032565 0.555976
vt 0.029617 0.528835
vt 0.031543 0.530064
vt 0.034531 0.531108
vt 0.034246 0.531180
vt 0.030739 0.530002
vt 0.035420 0.509743
vt 0.035255 0.509743
vt 0.029411 0.509860
vt 0.031385 0.510031
vt 0.031508 0.509912
s 0
usemtl Winter_Pack_Texture
f 1/1/1 2/2/1 3/3/1
f 2/2/2 1/1/2 6/4/2
f 1/1/3 3/3/3 4/5/3
f 1/1/4 4/5/4 5/6/4
f 1/1/5 5/6/5 6/4/5
f 2/2/6 6/4/6 11/7/6
f 3/3/7 2/2/7 7/8/7
f 4/5/8 3/3/8 8/9/8
f 5/6/9 4/5/9 9/10/9
f 6/4/10 5/6/10 10/11/10
f 2/2/11 11/7/11 7/8/11
f 3/3/12 7/8/12 8/9/12
f 4/5/13 8/9/13 9/10/13
f 5/6/14 9/10/14 10/11/14
f 6/4/15 10/11/15 11/7/15
f 9/10/16 13/12/16 14/13/16
f 10/11/17 16/14/17 11/7/17
f 7/8/18 13/12/18 8/9/18
f 9/10/19 15/15/19 10/11/19
f 11/7/20 12/16/20 7/8/20
f 9/10/21 8/9/21 13/12/21
f 10/11/22 15/15/22 16/14/22
f 7/8/23 12/16/23 13/12/23
f 9/10/24 14/13/24 15/15/24
f 11/7/25 16/14/25 12/16/25
