# Blender 5.0.0
# www.blender.org
mtllib icicle_joined.mtl
o icicle_joined
v 0.160123 0.348082 -0.003838
v 0.142789 0.259557 0.015333
v 0.180095 0.260910 0.031429
v 0.194537 0.262759 0.005944
v 0.165048 0.261476 -0.023059
v 0.133839 0.259593 -0.019274
v 0.150449 0.152903 0.042906
v 0.199315 0.145490 0.033785
v 0.194849 0.143672 -0.018365
v 0.138462 0.146142 -0.040693
v 0.116305 0.148434 -0.004242
v 0.152705 0.034207 0.061132
v 0.210634 0.030362 0.035626
v 0.207034 0.032723 -0.031768
v 0.145729 0.030362 -0.050771
v 0.027017 0.324945 0.001124
v 0.059034 0.427076 -0.006191
v 0.087780 0.313910 -0.008093
v 0.067043 0.324951 -0.043192
v 0.031035 0.324945 -0.036481
v 0.023781 0.140825 0.036349
v 0.076468 0.159550 0.048059
v 0.068560 0.173377 -0.048544
v 0.022979 0.162711 -0.025151
v 0.021797 0.034208 0.048960
v 0.087476 0.028296 0.044902
v 0.104536 0.031209 -0.012795
v 0.053254 0.031209 -0.053896
v 0.280220 0.398775 -0.000831
v 0.253375 0.303222 0.016697
v 0.289343 0.303205 0.027634
v 0.310115 0.303221 -0.003365
v 0.284139 0.288647 -0.036924
v 0.251284 0.303260 -0.021030
v 0.255874 0.156587 0.035634
v 0.330515 0.030856 -0.022300
v 0.239546 0.159846 -0.018265
v 0.255599 0.030252 0.051053
v 0.316897 0.061530 0.046330
v 0.269145 0.039404 -0.061178
v -0.176037 0.359402 -0.004610
v -0.189906 0.260234 0.015288
v -0.152459 0.261444 0.031395
v -0.138037 0.263558 0.005893
v -0.167683 0.262402 -0.023121
v -0.198868 0.260023 -0.019303
v -0.184045 0.132354 0.046995
v -0.136184 0.137594 0.034359
v -0.140752 0.137952 -0.014533
v -0.196932 0.132043 -0.031668
v -0.214902 0.126185 0.006359
v -0.184604 0.031211 0.059237
v -0.121940 0.030362 0.035626
v -0.124583 0.030362 -0.029734
v -0.186577 0.031809 -0.053310
v -0.221999 0.030362 0.001597
v -0.305558 0.324945 0.001125
v -0.268872 0.429004 0.001125
v -0.247295 0.326939 -0.010147
v -0.265567 0.324945 -0.043191
v -0.301540 0.324945 -0.036480
v -0.310541 0.153069 0.034149
v -0.271684 0.162249 0.047139
v -0.230008 0.161356 0.009903
v -0.334197 0.061212 -0.007503
v -0.358918 -0.021785 0.109084
v -0.247955 0.031209 0.049513
v -0.275948 0.031248 -0.054238
v -0.060658 0.400315 -0.017488
v -0.079204 0.303272 0.016691
v -0.043232 0.303205 0.027633
v -0.022509 0.303229 -0.003407
v -0.046948 0.303286 -0.033512
v -0.081374 0.303358 -0.021110
v -0.075974 0.156667 0.035090
v -0.023717 0.140702 0.040501
v -0.003425 0.149589 -0.017783
v -0.057542 0.156840 -0.037239
v -0.089608 0.160732 -0.020807
v -0.076975 0.030251 0.051054
v -0.012125 0.030252 0.043723
v -0.002492 0.030252 -0.020977
v -0.059719 0.030251 -0.053292
v 0.152705 -0.018789 0.106824
v 0.210860 -0.022658 0.076908
v 0.207034 -0.020274 -0.064867
v 0.145729 -0.022635 -0.074689
v 0.021797 -0.018789 0.102299
v 0.087476 -0.024700 0.069980
v 0.104536 -0.021787 -0.074689
v 0.059598 -0.016785 -0.103320
v 0.366277 -0.022745 0.099829
v 0.376014 -0.019987 -0.068039
v 0.268282 -0.014053 -0.083139
v -0.121093 -0.022688 0.076633
v -0.124583 -0.022635 -0.064867
v -0.186577 -0.021187 -0.092110
v -0.182087 -0.021783 0.107281
v -0.279320 -0.021787 -0.064866
v -0.377924 -0.021787 -0.051506
v -0.012125 -0.022745 0.096334
v -0.002492 -0.022745 -0.104608
v -0.056595 -0.021124 -0.076081
v -0.327145 0.051776 0.044011
vn -0.3899 0.2672 0.8812
vn -0.9405 0.2369 0.2435
vn 0.7945 0.3752 0.4775
vn 0.6834 0.1950 -0.7035
vn -0.1301 0.2078 -0.9695
vn -0.9517 0.1834 0.2463
vn -0.3941 0.2034 0.8963
vn 0.8550 0.1525 0.4956
vn 0.6904 0.1464 -0.7084
vn -0.1291 0.1789 -0.9754
vn -0.8106 0.0913 0.5784
vn 0.1908 0.0518 0.9803
vn 0.9961 0.0202 -0.0860
vn 0.3697 0.0566 -0.9274
vn -0.8510 0.0637 -0.5213
vn 0.9922 0.1149 -0.0490
vn -0.8446 0.1228 -0.5211
vn 0.4054 0.0544 0.9125
vn 0.3701 0.1036 -0.9232
vn -0.8110 0.0737 0.5803
vn -0.9513 0.2910 -0.1016
vn 0.8680 0.2279 -0.4412
vn -0.1734 0.3234 -0.9302
vn -0.9935 0.0419 -0.1061
vn -0.3688 0.1809 0.9118
vn 0.7460 0.1787 0.6416
vn -0.1831 0.0329 -0.9825
vn -0.9996 0.0215 0.0207
vn -0.2722 0.1742 0.9463
vn 0.8643 0.0264 -0.5023
vn -0.4488 -0.0401 -0.8927
vn 0.9431 0.0504 0.3286
vn -0.5081 0.0707 -0.8584
vn -0.2030 -0.0406 0.9783
vn 0.6249 -0.0379 -0.7797
vn -0.9441 0.0560 0.3247
vn -0.2816 0.2491 0.9266
vn -0.9588 0.2792 0.0534
vn 0.8068 0.2381 0.5407
vn 0.7141 0.2408 -0.6573
vn -0.3112 0.2860 -0.9063
vn -0.9951 0.0825 0.0552
vn -0.2888 0.1178 0.9501
vn 0.8229 0.1365 0.5515
vn 0.7649 0.1015 -0.6361
vn -0.9565 0.0213 0.2910
vn -0.0663 0.0694 0.9954
vn 0.9839 0.0621 0.1675
vn -0.4290 0.0177 -0.9031
vn -0.4368 0.2048 -0.8760
vn 0.5394 0.0494 -0.8406
vn -0.8601 0.0637 0.5062
vn -0.3906 0.2333 0.8905
vn -0.9521 0.1824 0.2455
vn 0.7959 0.3682 0.4806
vn 0.6824 0.1933 -0.7050
vn -0.1328 0.1747 -0.9756
vn -0.9555 0.1618 0.2466
vn -0.3923 0.2044 0.8968
vn 0.8592 0.1248 0.4962
vn 0.6939 0.1009 -0.7130
vn -0.1280 0.0935 -0.9874
vn -0.7996 0.1098 0.5905
vn 0.2492 0.0559 0.9669
vn 0.9956 -0.0064 -0.0931
vn 0.2920 -0.0028 -0.9564
vn -0.9054 0.0272 -0.4237
vn 0.9873 0.1540 -0.0399
vn -0.9058 0.0877 -0.4145
vn 0.2504 0.0447 0.9671
vn 0.2618 0.2295 -0.9375
vn -0.7996 0.0765 0.5956
vn -0.9384 0.3308 -0.1003
vn 0.8453 0.2319 -0.4814
vn -0.1695 0.3816 -0.9087
vn -0.9882 0.1108 -0.1056
vn -0.5025 0.1772 0.8462
vn 0.7830 0.0977 0.6143
vn 0.8738 0.0325 -0.4852
vn -0.1832 0.0434 -0.9821
vn -0.9388 0.0911 0.3323
vn -0.3472 0.1630 0.9235
vn 0.6598 0.1578 0.7347
vn 0.8201 -0.0075 -0.5722
vn -0.6282 -0.0077 -0.7780
vn 0.8792 0.0236 0.4759
vn -0.3086 -0.0387 0.9504
vn -0.9706 0.1752 0.1650
vn -0.2703 0.3654 0.8908
vn -0.9768 0.2066 0.0565
vn 0.7701 0.3772 0.5144
vn 0.7594 0.2091 -0.6161
vn -0.3368 0.1069 -0.9355
vn -0.9967 0.0577 0.0573
vn -0.2890 0.1129 0.9506
vn 0.8232 0.1424 0.5497
vn 0.7673 0.1536 -0.6226
vn -0.3384 0.0484 -0.9397
vn -0.9713 0.0084 0.2375
vn -0.0819 0.0689 0.9943
vn 0.9369 0.0846 0.3391
vn 0.3382 -0.0005 -0.9411
vn -0.4536 0.0243 -0.8909
vn 0.9445 -0.0014 0.3286
vn -0.3371 0.1540 -0.9288
vn 0.1122 0.0407 0.9928
vn 0.3494 0.1120 -0.9302
vn -0.8593 0.0708 0.5065
vn 0.3755 0.5706 0.7304
vn 0.1291 0.4079 -0.9038
vn -0.4298 0.3441 -0.8348
vn 0.4076 0.5621 0.7197
vn -0.1269 0.6988 0.7039
vn 0.5390 0.3126 -0.7821
vn 0.6263 0.7504 -0.2111
vn -0.1153 0.5120 -0.8512
vn -0.1280 0.4770 0.8695
vn 0.0068 0.7408 0.6717
vn 0.4511 0.6685 -0.5913
vn 0.4351 0.3851 0.8139
vn 0.3053 0.5625 -0.7683
vn -0.2770 0.2057 -0.9386
vn -0.2889 0.5290 -0.7979
vn -0.3139 0.8020 -0.5082
vn 0.0085 0.4113 -0.9114
vn -0.2933 0.5064 -0.8109
vn -0.4815 0.3749 0.7922
vn -0.2027 0.6899 0.6950
vn -0.0065 0.9997 0.0222
vn 0.0025 0.9999 -0.0163
vn 0.0025 1.0000 -0.0001
vn -0.1133 0.9934 -0.0169
vn -0.0956 0.9952 0.0220
vn -0.0097 0.9993 0.0355
vn 0.9915 0.0961 -0.0883
vn -0.6774 0.0215 -0.7353
vn 0.2036 0.1524 0.9671
vn 0.2878 0.1459 -0.9465
vn -0.8378 0.0444 0.5441
vn 0.9554 0.0732 0.2862
vn -0.4704 0.0837 -0.8785
vn 0.0716 0.1159 0.9907
vn 0.8091 0.0577 -0.5848
vn -0.9783 0.1907 0.0806
vn -0.6420 0.1124 -0.7584
vn 0.0147 0.1211 0.9925
vn -0.9327 0.2072 0.2951
vn 0.9873 0.1301 -0.0913
vn -0.8403 0.0301 -0.5413
vn 0.3517 0.1106 0.9295
vn 0.3532 0.1827 -0.9175
vn -0.8386 0.0351 0.5436
vn 0.6619 0.1332 0.7376
vn -0.0421 0.1037 0.9937
vn 0.7171 0.0877 -0.6915
vn 0.9834 0.1075 0.1464
vn -0.4411 0.1204 -0.8893
vn -0.0642 0.1255 0.9900
vn 0.4915 0.0271 -0.8704
vn -0.9402 0.2353 0.2464
vn 0.2748 0.6529 0.7058
vn 0.2357 0.5148 -0.8243
vn 0.2893 0.8086 -0.5124
vn 0.3526 0.6110 0.7087
vn 0.1048 0.3605 0.9268
vn 0.1345 0.7265 -0.6738
vn 0.8449 0.5317 0.0577
vn -0.5496 0.1976 -0.8117
vn -0.2362 0.5805 0.7793
vn 0.4622 0.6736 -0.5767
vn -0.9019 0.4186 0.1067
vn 0.1068 0.7053 0.7008
vn 0.3546 0.5166 -0.7793
vn 0.0047 0.5907 -0.8069
vn -0.1582 0.3923 -0.9061
vn -0.0539 0.7129 -0.6992
vn -0.5043 0.6559 -0.5616
vn -0.4315 0.3488 -0.8320
vn -0.2601 0.5925 0.7624
vn -0.2404 0.6338 0.7352
vn -0.1881 0.6967 0.6922
vn -0.2613 0.5877 0.7657
vn -0.1134 0.6644 0.7388
vn 0.1106 0.6313 0.7676
vn -0.8160 0.5385 0.2103
vt 0.051682 0.572673
vt 0.050741 0.557668
vt 0.052767 0.557898
vt 0.050255 0.557674
vt 0.053551 0.558211
vt 0.051950 0.557994
vt 0.049303 0.538833
vt 0.051157 0.539590
vt 0.053811 0.538334
vt 0.053568 0.538025
vt 0.050506 0.538444
vt 0.054425 0.518819
vt 0.054230 0.519220
vt 0.048664 0.518963
vt 0.051279 0.519471
vt 0.050900 0.518819
vt 0.044454 0.568751
vt 0.046193 0.586063
vt 0.044672 0.568751
vt 0.047754 0.566881
vt 0.046627 0.568752
vt 0.044235 0.541253
vt 0.044278 0.537543
vt 0.047139 0.540717
vt 0.046710 0.543061
vt 0.045879 0.518963
vt 0.042851 0.518801
vt 0.047737 0.518469
vt 0.044170 0.519471
vt 0.058204 0.581266
vt 0.056746 0.565069
vt 0.058700 0.565066
vt 0.056633 0.565076
vt 0.059827 0.565069
vt 0.058417 0.562599
vt 0.055995 0.540767
vt 0.056882 0.540214
vt 0.060196 0.524102
vt 0.060935 0.518903
vt 0.057603 0.520352
vt 0.056867 0.518801
vt 0.033427 0.574592
vt 0.032674 0.557783
vt 0.034707 0.557988
vt 0.032187 0.557747
vt 0.035491 0.558346
vt 0.033881 0.558150
vt 0.031316 0.535061
vt 0.032992 0.536107
vt 0.035591 0.536995
vt 0.035343 0.537056
vt 0.032292 0.536054
vt 0.036365 0.518819
vt 0.036221 0.518819
vt 0.030931 0.518819
vt 0.032855 0.519065
vt 0.032962 0.518963
vt 0.026393 0.568751
vt 0.028385 0.586390
vt 0.026611 0.568751
vt 0.029557 0.569090
vt 0.028565 0.568751
vt 0.024838 0.524048
vt 0.026123 0.539618
vt 0.028233 0.541174
vt 0.030496 0.541023
vt 0.028001 0.518970
vt 0.029521 0.518963
vt 0.025221 0.522449
vt 0.039693 0.581527
vt 0.038685 0.565078
vt 0.040639 0.565066
vt 0.038568 0.565093
vt 0.041764 0.565071
vt 0.040437 0.565080
vt 0.038120 0.540917
vt 0.038861 0.540228
vt 0.041699 0.537522
vt 0.042801 0.539028
vt 0.039862 0.540258
vt 0.039744 0.518801
vt 0.038806 0.518801
vt 0.042328 0.518801
vt 0.033098 0.509981
vt 0.036411 0.509828
vt 0.054230 0.510237
vt 0.050900 0.509836
vt 0.042851 0.509818
vt 0.039913 0.510092
vt 0.051279 0.510488
vt 0.054437 0.509833
vt 0.042328 0.509818
vt 0.057556 0.511291
vt 0.063406 0.510285
vt 0.027818 0.509980
vt 0.022463 0.509980
vt 0.062877 0.509818
vt 0.023495 0.509980
vt 0.048664 0.509980
vt 0.046223 0.510828
vt 0.044170 0.510488
vt 0.047737 0.509486
vt 0.032855 0.510082
vt 0.036221 0.509836
s 0
usemtl Winter_Pack_Texture
f 1/1/1 2/2/1 3/3/1
f 2/2/2 1/1/2 6/4/2
f 1/1/3 3/3/3 4/5/3
f 1/1/4 4/5/4 5/6/4
f 1/1/5 5/6/5 6/4/5
f 2/2/6 6/4/6 11/7/6
f 3/3/7 2/2/7 7/8/7
f 4/5/8 3/3/8 8/9/8
f 5/6/9 4/5/9 9/10/9
f 6/4/10 5/6/10 10/11/10
f 2/2/11 11/7/11 7/8/11
f 3/3/12 7/8/12 8/9/12
f 4/5/13 8/9/13 9/10/13
f 5/6/14 9/10/14 10/11/14
f 6/4/15 10/11/15 11/7/15
f 9/10/16 13/12/16 14/13/16
f 10/11/17 27/14/17 11/7/17
f 8/9/18 12/15/18 13/12/18
f 9/10/19 15/16/19 10/11/19
f 11/7/20 12/15/20 7/8/20
f 16/17/21 17/18/21 20/19/21
f 17/18/22 18/20/22 19/21/22
f 17/18/23 19/21/23 20/19/23
f 16/17/24 20/19/24 24/22/24
f 17/18/25 16/17/25 21/23/25
f 18/20/26 17/18/26 22/24/26
f 20/19/27 19/21/27 23/25/27
f 16/17/28 24/22/28 21/23/28
f 17/18/29 21/23/29 22/24/29
f 19/21/30 18/20/30 23/25/30
f 20/19/31 23/25/31 24/22/31
f 22/24/32 27/14/32 18/20/32
f 24/22/33 28/26/33 82/27/33
f 21/23/34 26/28/34 22/24/34
f 23/25/35 27/14/35 28/26/35
f 21/23/36 82/27/36 25/29/36
f 29/30/37 30/31/37 31/32/37
f 30/31/38 29/30/38 34/33/38
f 29/30/39 31/32/39 32/34/39
f 29/30/40 32/34/40 33/35/40
f 29/30/41 33/35/41 34/33/41
f 30/31/42 34/33/42 37/36/42
f 31/32/43 30/31/43 35/37/43
f 32/34/44 31/32/44 39/38/44
f 33/35/45 32/34/45 36/39/45
f 30/31/46 37/36/46 35/37/46
f 31/32/47 35/37/47 39/38/47
f 32/34/48 39/38/48 36/39/48
f 34/33/49 33/35/49 37/36/49
f 37/36/50 40/40/50 14/13/50
f 36/39/51 40/40/51 33/35/51
f 35/37/52 14/13/52 38/41/52
f 41/42/53 42/43/53 43/44/53
f 42/43/54 41/42/54 46/45/54
f 41/42/55 43/44/55 44/46/55
f 41/42/56 44/46/56 45/47/56
f 41/42/57 45/47/57 46/45/57
f 42/43/58 46/45/58 51/48/58
f 43/44/59 42/43/59 47/49/59
f 44/46/60 43/44/60 48/50/60
f 45/47/61 44/46/61 49/51/61
f 46/45/62 45/47/62 50/52/62
f 42/43/63 51/48/63 47/49/63
f 43/44/64 47/49/64 48/50/64
f 44/46/65 48/50/65 49/51/65
f 45/47/66 49/51/66 50/52/66
f 46/45/67 50/52/67 51/48/67
f 49/51/68 53/53/68 54/54/68
f 50/52/69 56/55/69 51/48/69
f 47/49/70 53/53/70 48/50/70
f 49/51/71 55/56/71 50/52/71
f 51/48/72 52/57/72 47/49/72
f 57/58/73 58/59/73 61/60/73
f 58/59/74 59/61/74 60/62/74
f 58/59/75 60/62/75 61/60/75
f 57/58/76 61/60/76 65/63/76
f 58/59/77 57/58/77 62/64/77
f 59/61/78 58/59/78 63/65/78
f 60/62/79 59/61/79 64/66/79
f 61/60/80 60/62/80 68/67/80
f 57/58/81 65/63/81 62/64/81
f 58/59/82 62/64/82 63/65/82
f 59/61/83 63/65/83 64/66/83
f 60/62/84 64/66/84 68/67/84
f 61/60/85 68/67/85 65/63/85
f 64/66/86 67/68/86 56/55/86
f 62/64/87 67/68/87 63/65/87
f 62/64/88 65/63/88 104/69/88
f 69/70/89 70/71/89 71/72/89
f 70/71/90 69/70/90 74/73/90
f 69/70/91 71/72/91 72/74/91
f 69/70/92 72/74/92 73/75/92
f 69/70/93 73/75/93 74/73/93
f 70/71/94 74/73/94 79/76/94
f 71/72/95 70/71/95 75/77/95
f 72/74/96 71/72/96 76/78/96
f 73/75/97 72/74/97 77/79/97
f 74/73/98 73/75/98 78/80/98
f 70/71/99 79/76/99 75/77/99
f 71/72/100 75/77/100 76/78/100
f 72/74/101 76/78/101 77/79/101
f 73/75/102 77/79/102 78/80/102
f 74/73/103 78/80/103 79/76/103
f 76/78/104 82/27/104 77/79/104
f 79/76/105 83/81/105 54/54/105
f 76/78/106 80/82/106 81/83/106
f 77/79/107 83/81/107 78/80/107
f 75/77/108 54/54/108 80/82/108
f 53/53/109 98/84/109 95/85/109
f 15/16/110 86/86/110 87/87/110
f 83/81/111 102/88/111 103/89/111
f 13/12/112 84/90/112 85/91/112
f 81/83/113 95/85/113 101/92/113
f 36/39/114 94/93/114 40/40/114
f 39/38/115 93/94/115 36/39/115
f 65/63/116 99/95/116 100/96/116
f 39/38/117 85/91/117 92/97/117
f 66/98/118 98/84/118 67/68/118
f 28/26/119 90/99/119 91/100/119
f 26/28/120 88/101/120 89/102/120
f 54/54/121 97/103/121 55/56/121
f 68/67/122 97/103/122 99/95/122
f 83/81/123 96/104/123 54/54/123
f 28/26/124 102/88/124 82/27/124
f 90/99/125 15/16/125 87/87/125
f 14/13/126 94/93/126 86/86/126
f 84/90/127 26/28/127 89/102/127
f 88/101/128 81/83/128 101/92/128
f 56/55/129 55/56/129 68/67/129
f 52/57/130 56/55/130 67/68/130
f 80/82/131 54/54/131 53/53/131
f 81/83/132 25/29/132 82/27/132
f 12/15/133 27/14/133 26/28/133
f 13/12/134 38/41/134 14/13/134
f 9/10/135 8/9/135 13/12/135
f 10/11/136 15/16/136 27/14/136
f 8/9/137 7/8/137 12/15/137
f 9/10/138 14/13/138 15/16/138
f 11/7/139 27/14/139 12/15/139
f 22/24/140 26/28/140 27/14/140
f 24/22/141 23/25/141 28/26/141
f 21/23/142 25/29/142 26/28/142
f 23/25/143 18/20/143 27/14/143
f 21/23/144 24/22/144 82/27/144
f 37/36/145 33/35/145 40/40/145
f 39/38/146 35/37/146 38/41/146
f 35/37/147 37/36/147 14/13/147
f 49/51/148 48/50/148 53/53/148
f 50/52/149 55/56/149 56/55/149
f 47/49/150 52/57/150 53/53/150
f 49/51/151 54/54/151 55/56/151
f 51/48/152 56/55/152 52/57/152
f 64/66/153 63/65/153 67/68/153
f 62/64/154 104/69/154 67/68/154
f 64/66/155 56/55/155 68/67/155
f 76/78/156 81/83/156 82/27/156
f 79/76/157 78/80/157 83/81/157
f 76/78/158 75/77/158 80/82/158
f 77/79/159 82/27/159 83/81/159
f 75/77/160 79/76/160 54/54/160
f 53/53/161 52/57/161 98/84/161
f 15/16/162 14/13/162 86/86/162
f 83/81/163 82/27/163 102/88/163
f 13/12/164 12/15/164 84/90/164
f 81/83/165 80/82/165 95/85/165
f 36/39/166 93/94/166 94/93/166
f 39/38/167 92/97/167 93/94/167
f 65/63/168 68/67/168 99/95/168
f 39/38/169 38/41/169 85/91/169
f 28/26/170 27/14/170 90/99/170
f 65/63/171 100/96/171 66/98/171
f 26/28/172 25/29/172 88/101/172
f 54/54/173 96/104/173 97/103/173
f 68/67/174 55/56/174 97/103/174
f 83/81/175 103/89/175 96/104/175
f 28/26/176 91/100/176 102/88/176
f 90/99/177 27/14/177 15/16/177
f 14/13/178 40/40/178 94/93/178
f 38/41/179 13/12/179 85/91/179
f 84/90/180 12/15/180 26/28/180
f 88/101/181 25/29/181 81/83/181
f 80/82/182 53/53/182 95/85/182
f 98/84/183 52/57/183 67/68/183
f 67/68/184 104/69/184 66/98/184
f 104/69/185 65/63/185 66/98/185
