# Blender 5.0.0
# www.blender.org
mtllib lamp_post.mtl
o lamp_post
v -1.072192 1.792182 0.054411
v -1.072192 1.924814 0.054411
v -1.072192 1.792182 -0.055471
v -1.072192 1.924814 -0.055471
v 0.095806 1.733052 0.056861
v 0.106492 1.872705 0.055930
v 0.095806 1.733052 -0.053021
v 0.106492 1.872705 -0.053952
v -0.109755 1.764113 -0.053021
v -0.099077 1.903761 -0.053951
v -0.109755 1.764113 0.056862
v -0.099077 1.903761 0.055931
v 0.097980 -0.000035 0.054411
v 0.097980 -0.000035 -0.055472
v -0.106534 -0.000035 0.054411
v -0.106534 -0.000035 -0.055471
v 0.124217 1.451307 0.054410
v 0.122077 1.524822 0.054592
v 0.122077 1.524822 -0.055290
v 0.124217 1.451307 -0.055472
v -0.082083 1.543802 -0.055375
v -0.080631 1.461231 -0.055472
v -0.080631 1.461231 0.054410
v -0.082083 1.543802 0.054507
v -0.313986 1.805847 -0.054718
v -0.376810 1.812987 -0.055273
v -0.374565 1.947094 0.054413
v -0.307794 1.942546 0.054624
v -0.374565 1.947094 -0.055469
v -0.307794 1.942546 -0.055258
v -0.313986 1.805847 0.055164
v -0.376810 1.812987 0.054609
v -0.095139 1.935293 -0.068777
v 0.112650 1.904328 -0.068779
v 0.097706 1.753677 -0.067477
v 0.112650 1.904328 0.070015
v 0.097706 1.753677 0.071317
v -0.110068 1.784781 0.071318
v -0.110068 1.784781 -0.067477
v -0.095139 1.935293 0.070017
v 0.099867 -0.060372 0.068867
v 0.099867 -0.060372 -0.069928
v -0.106857 -0.060372 0.068867
v -0.106857 -0.060372 -0.069927
v -0.082991 1.551742 -0.069783
v -0.080964 1.464299 -0.069928
v -0.080964 1.464299 0.068866
v -0.082991 1.551742 0.069011
v 0.126105 1.454067 0.068866
v 0.123337 1.531896 0.069102
v 0.123337 1.531896 -0.069692
v 0.126105 1.454067 -0.069928
v 0.101605 0.675486 0.054410
v -0.103593 0.676006 0.054411
v 0.101605 0.675486 -0.055472
v -0.103593 0.676006 -0.055472
v 0.103459 0.675511 0.068866
v -0.103946 0.676029 0.068867
v 0.103459 0.675511 -0.069928
v -0.103947 0.676029 -0.069928
v -0.712231 1.827229 -0.055471
v -0.712231 1.827229 0.054411
v -0.712231 1.959861 -0.055471
v -0.712231 1.959861 0.054411
vn -1.0000 -0.0000 -0.0000
vn -0.9956 0.0876 -0.0337
vn 0.9971 -0.0763 -0.0000
vn 0.9917 -0.0289 -0.1256
vn 0.7489 0.6627 -0.0000
vn -0.9900 -0.1188 -0.0759
vn 0.9892 -0.0864 0.1180
vn 0.0043 0.0051 -1.0000
vn -0.0043 -0.0051 1.0000
vn -0.7650 -0.6441 -0.0000
vn -0.9992 0.0292 0.0269
vn -0.9923 0.1239 -0.0000
vn 0.9996 0.0291 -0.0000
vn -1.0000 0.0054 -0.0000
vn 0.9921 0.1252 -0.0000
vn 1.0000 -0.0054 -0.0000
vn -0.9897 -0.1203 0.0771
vn -0.9992 -0.0204 -0.0351
vn 0.9903 -0.0051 0.1387
vn -1.0000 0.0043 -0.0000
vn -0.9922 -0.1246 -0.0000
vn 0.0057 -0.0029 -1.0000
vn 0.0679 0.9977 -0.0000
vn -0.0057 0.0029 1.0000
vn -0.0424 -0.9991 -0.0000
vn 0.0003 -0.0007 -1.0000
vn -0.2002 -0.9798 -0.0000
vn 0.0062 -0.0057 -1.0000
vn -0.0969 0.9953 -0.0000
vn -0.0062 0.0057 1.0000
vn -0.0000 -0.0000 1.0000
vn 0.1827 0.9832 -0.0000
vn -0.0013 -0.0085 -1.0000
vn 0.1474 0.9891 -0.0000
vn 0.0013 0.0085 1.0000
vn -0.0000 -1.0000 -0.0000
vn -0.0004 -0.0023 1.0000
vn 0.0004 0.0023 -1.0000
vn -0.0015 -0.0101 0.9999
vn -0.0000 -0.0000 -1.0000
vn 0.0015 0.0101 -0.9999
vn 0.9924 0.0325 -0.1189
vn 0.9816 -0.1911 -0.0000
vn -0.9999 0.0041 -0.0148
vn -0.9955 0.0881 0.0338
vn 0.9891 -0.0882 -0.1177
vn 0.9696 0.1148 0.2163
vn 0.9995 0.0313 -0.0000
vn 0.9924 0.0319 0.1191
vn -0.9992 -0.0205 0.0352
vn 0.9683 0.1192 -0.2196
vn -0.9992 0.0292 -0.0269
vn -0.9996 0.0292 -0.0000
vn 0.9917 -0.0289 0.1256
vn 0.9996 -0.0291 -0.0000
vn -0.9999 0.0041 0.0148
vn 0.9903 -0.0051 -0.1387
vn -0.0003 0.0007 1.0000
vn 0.0378 0.9993 -0.0000
vn 0.0969 -0.9953 -0.0000
vn 0.9999 -0.0167 -0.0000
vn 1.0000 -0.0000 -0.0000
vt 0.864390 0.460626
vt 0.864390 0.465619
vt 0.822781 0.502355
vt 0.822616 0.500188
vt 0.822611 0.500509
vt 0.822842 0.502845
vt 0.825806 0.499706
vt 0.825972 0.501873
vt 0.825896 0.483292
vt 0.826247 0.495333
vt 0.826276 0.495376
vt 0.825925 0.483293
vt 0.874533 0.550489
vt 0.865803 0.560353
vt 0.823045 0.496769
vt 0.823031 0.496892
vt 0.825835 0.500026
vt 0.826067 0.502364
vt 0.874588 0.547380
vt 0.863438 0.560622
vt 0.822711 0.483300
vt 0.823067 0.495487
vt 0.823062 0.495535
vt 0.822706 0.483301
vt 0.826214 0.496474
vt 0.822666 0.472808
vt 0.822661 0.471872
vt 0.825840 0.472808
vt 0.825869 0.471872
vt 0.893165 0.466287
vt 0.892932 0.461141
vt 0.890567 0.461409
vt 0.890651 0.466458
vt 0.877940 0.461946
vt 0.877940 0.466938
vt 0.900620 0.459570
vt 0.901022 0.464827
vt 0.826233 0.496584
s 0
usemtl Winter_Pack_Texture
f 1/1/1 2/2/1 4/2/1 3/1/1
f 12/3/2 11/4/2 38/5/2 40/6/2
f 7/7/3 8/8/3 6/8/3 5/7/3
f 53/9/4 17/10/4 49/11/4 57/12/4
f 24/13/5 21/13/5 25/14/5 31/14/5
f 21/15/6 9/4/6 39/5/6 45/16/6
f 8/8/7 7/7/7 35/17/7 34/18/7
f 21/13/8 22/19/8 26/20/8 25/14/8
f 23/19/9 24/13/9 31/14/9 32/20/9
f 22/19/10 23/19/10 32/20/10 26/20/10
f 56/21/11 22/22/11 46/23/11 60/24/11
f 10/3/12 12/3/12 40/6/12 33/6/12
f 17/10/13 20/10/13 19/25/13 18/25/13
f 15/26/14 16/26/14 44/27/14 43/27/14
f 7/7/15 5/7/15 18/25/15 19/25/15
f 55/9/16 53/9/16 13/28/16 14/28/16
f 11/4/17 24/15/17 48/16/17 38/5/17
f 24/15/18 23/22/18 47/23/18 48/16/18
f 55/9/19 14/28/19 42/29/19 59/12/19
f 54/21/20 56/21/20 16/26/20 15/26/20
f 11/4/21 9/4/21 21/15/21 24/15/21
f 30/30/22 25/31/22 26/32/22 29/33/22
f 29/33/23 27/33/23 28/30/23 30/30/23
f 27/33/24 32/32/24 31/31/24 28/30/24
f 61/34/25 26/32/25 32/32/25 62/34/25
f 61/34/26 63/35/26 29/33/26 26/32/26
f 25/31/27 9/36/27 11/36/27 31/31/27
f 25/31/28 30/30/28 10/37/28 9/36/28
f 63/35/29 4/2/29 2/2/29 64/35/29
f 11/36/30 12/37/30 28/30/30 31/31/30
f 62/34/31 64/35/31 2/2/31 1/1/31
f 10/37/32 30/30/32 28/30/32 12/37/32
f 39/5/33 33/6/33 34/18/33 35/17/33
f 34/18/34 33/6/34 40/6/34 36/18/34
f 37/17/35 36/18/35 40/6/35 38/5/35
f 44/27/36 42/29/36 41/29/36 43/27/36
f 47/23/37 49/11/37 50/38/37 48/16/37
f 52/11/38 46/23/38 45/16/38 51/38/38
f 57/12/31 58/24/31 43/27/31 41/29/31
f 37/17/39 38/5/39 48/16/39 50/38/39
f 60/24/40 59/12/40 42/29/40 44/27/40
f 39/5/41 35/17/41 51/38/41 45/16/41
f 17/10/42 18/25/42 50/38/42 49/11/42
f 6/8/43 8/8/43 34/18/43 36/18/43
f 54/21/44 15/26/44 43/27/44 58/24/44
f 9/4/45 10/3/45 33/6/45 39/5/45
f 5/7/46 6/8/46 36/18/46 37/17/46
f 7/7/47 19/25/47 51/38/47 35/17/47
f 14/28/48 13/28/48 41/29/48 42/29/48
f 19/25/49 20/10/49 52/11/49 51/38/49
f 22/22/50 21/15/50 45/16/50 46/23/50
f 18/25/51 5/7/51 37/17/51 50/38/51
f 23/22/52 54/21/52 58/24/52 47/23/52
f 46/23/40 52/11/40 59/12/40 60/24/40
f 49/11/31 47/23/31 58/24/31 57/12/31
f 23/22/53 22/22/53 56/21/53 54/21/53
f 20/10/54 55/9/54 59/12/54 52/11/54
f 20/10/55 17/10/55 53/9/55 55/9/55
f 16/26/56 56/21/56 60/24/56 44/27/56
f 13/28/57 53/9/57 57/12/57 41/29/57
f 32/32/58 27/33/58 64/35/58 62/34/58
f 29/33/59 63/35/59 64/35/59 27/33/59
f 3/1/40 4/2/40 63/35/40 61/34/40
f 3/1/60 61/34/60 62/34/60 1/1/60
f 32/32/61 26/32/61 29/33/61 27/33/61
f 63/35/62 64/35/62 62/34/62 61/34/62
