# Blender 5.0.0
# www.blender.org
mtllib Lamp_Snow.mtl
o Lamp_Snow
v -0.067946 -0.367518 0.067947
v -0.101159 -0.195244 0.101160
v -0.067946 -0.367519 -0.067947
v -0.101159 -0.195244 -0.101160
v 0.067948 -0.367518 0.067947
v 0.101161 -0.195244 0.101160
v 0.067948 -0.367519 -0.067947
v 0.101161 -0.195244 -0.101160
v -0.090515 -0.390088 -0.090516
v -0.090515 -0.390088 0.090516
v -0.134760 -0.161642 0.134761
v -0.134761 -0.161642 -0.134761
v 0.090517 -0.390088 -0.090516
v 0.134762 -0.161642 -0.134761
v 0.090517 -0.390088 0.090516
v 0.134762 -0.161642 0.134761
v -0.047290 -0.431634 -0.047291
v -0.047290 -0.431634 0.047291
v -0.103733 -0.126693 0.103734
v -0.103734 -0.126693 -0.103734
v 0.047292 -0.431634 -0.047291
v 0.103735 -0.126693 -0.103734
v 0.047292 -0.431634 0.047291
v 0.103735 -0.126693 0.103734
v -0.069675 -0.413562 -0.069676
v -0.069675 -0.413562 0.069676
v 0.069677 -0.413562 -0.069676
v 0.069677 -0.413562 0.069676
v -0.042448 -0.062639 0.042449
v -0.042448 -0.062639 -0.042449
v 0.042450 -0.062639 -0.042449
v 0.042450 -0.062639 0.042449
v -0.083677 -0.087638 0.083678
v -0.083677 -0.087638 -0.083677
v 0.083678 -0.087638 -0.083677
v 0.083678 -0.087638 0.083677
v -0.013603 -0.032324 0.022584
v -0.013603 -0.032324 -0.022584
v 0.013605 -0.032324 -0.022584
v 0.013605 -0.032324 0.022584
v -0.013603 0.000517 0.022584
v -0.013603 0.000517 -0.022584
v 0.013605 0.000517 -0.022584
v 0.013605 0.000517 0.022584
vn -0.9819 -0.1893 -0.0000
vn -0.0000 -0.1893 -0.9819
vn 0.9819 -0.1893 -0.0000
vn -0.0000 -0.1893 0.9819
vn -0.0000 -0.7071 0.7071
vn -0.7071 -0.7071 -0.0000
vn -0.0000 -0.6639 0.7478
vn -0.7478 0.6639 -0.0000
vn -0.7071 0.7071 -0.0000
vn 0.7071 0.7071 -0.0000
vn -0.0000 -0.7071 -0.7071
vn -0.0000 0.7071 0.7071
vn 0.7071 -0.7071 -0.0000
vn -0.0000 0.7071 -0.7071
vn -0.0000 -1.0000 -0.0000
vn -0.0000 0.4568 0.8896
vn 0.7478 -0.6639 -0.0000
vn -0.0000 -0.6639 -0.7478
vn -0.7478 -0.6639 -0.0000
vn -0.0000 0.6639 0.7478
vn 0.7478 0.6639 -0.0000
vn -0.0000 0.6639 -0.7478
vn -0.6282 -0.7781 -0.0000
vn -0.0000 -0.7781 -0.6282
vn 0.6282 -0.7781 -0.0000
vn -0.0000 -0.7781 0.6282
vn 0.8896 0.4568 -0.0000
vn -0.0000 0.4568 -0.8896
vn -0.8896 0.4568 -0.0000
vn -0.5185 0.8551 -0.0000
vn -0.0000 0.8551 -0.5185
vn 0.5185 0.8551 -0.0000
vn -0.0000 0.8551 0.5185
vn -0.0000 0.5481 0.8364
vn -0.0000 0.5481 -0.8364
vn 0.7245 0.6893 -0.0000
vn -0.7245 0.6893 -0.0000
vn 1.0000 -0.0000 -0.0000
vn -0.0000 1.0000 -0.0000
vn -1.0000 -0.0000 -0.0000
vn -0.0000 -0.0000 1.0000
vn -0.0000 -0.0000 -1.0000
vt 0.427779 0.799712
vt 0.422585 0.853614
vt 0.454222 0.853614
vt 0.449029 0.799712
vt 0.448613 0.074157
vt 0.454449 0.074157
vt 0.455418 0.075126
vt 0.447644 0.075126
vt 0.454142 0.068537
vt 0.448920 0.068537
vt 0.449521 0.067860
vt 0.453541 0.067860
vt 0.448539 0.076134
vt 0.449571 0.069188
vt 0.453491 0.069188
vt 0.450167 0.067339
vt 0.452895 0.067339
vt 0.454523 0.076134
vt 0.453944 0.077261
vt 0.449117 0.077261
vt 0.450306 0.077982
vt 0.452755 0.077982
vt 0.451923 0.078856
vt 0.451138 0.078856
vt 0.451923 0.079804
vt 0.451138 0.079804
s 0
usemtl Winter_Pack_Texture
f 1/1/1 2/2/1 4/2/1 3/1/1
f 3/1/2 4/2/2 8/3/2 7/4/2
f 7/4/3 8/3/3 6/3/3 5/4/3
f 5/4/4 6/3/4 2/2/4 1/1/4
f 2/5/5 6/6/5 16/7/5 11/8/5
f 4/5/6 2/5/6 11/8/6 12/8/6
f 15/9/7 10/10/7 26/11/7 28/12/7
f 12/8/8 11/8/8 19/13/8 20/13/8
f 1/14/9 3/14/9 9/10/9 10/10/9
f 7/15/10 5/15/10 15/9/10 13/9/10
f 8/6/11 4/5/11 12/8/11 14/7/11
f 5/15/12 1/14/12 10/10/12 15/9/12
f 6/6/13 8/6/13 14/7/13 16/7/13
f 3/14/14 7/15/14 13/9/14 9/10/14
f 17/16/15 21/17/15 23/17/15 18/16/15
f 19/13/16 24/18/16 36/19/16 33/20/16
f 13/9/17 15/9/17 28/12/17 27/12/17
f 9/10/18 13/9/18 27/12/18 25/11/18
f 10/10/19 9/10/19 25/11/19 26/11/19
f 11/8/20 16/7/20 24/18/20 19/13/20
f 16/7/21 14/7/21 22/18/21 24/18/21
f 14/7/22 12/8/22 20/13/22 22/18/22
f 17/16/23 18/16/23 26/11/23 25/11/23
f 21/17/24 17/16/24 25/11/24 27/12/24
f 23/17/25 21/17/25 27/12/25 28/12/25
f 18/16/26 23/17/26 28/12/26 26/11/26
f 24/18/27 22/18/27 35/19/27 36/19/27
f 22/18/28 20/13/28 34/20/28 35/19/28
f 20/13/29 19/13/29 33/20/29 34/20/29
f 29/21/30 30/21/30 34/20/30 33/20/30
f 30/21/31 31/22/31 35/19/31 34/20/31
f 31/22/32 32/22/32 36/19/32 35/19/32
f 32/22/33 29/21/33 33/20/33 36/19/33
f 29/21/34 32/22/34 40/23/34 37/24/34
f 31/22/35 30/21/35 38/24/35 39/23/35
f 32/22/36 31/22/36 39/23/36 40/23/36
f 30/21/37 29/21/37 37/24/37 38/24/37
f 40/23/38 39/23/38 43/25/38 44/25/38
f 41/26/39 44/25/39 43/25/39 42/26/39
f 38/24/40 37/24/40 41/26/40 42/26/40
f 37/24/41 40/23/41 44/25/41 41/26/41
f 39/23/42 38/24/42 42/26/42 43/25/42
