# Blender 5.0.0
# www.blender.org
mtllib Rock_B.mtl
o Rock_B
v -0.252519 -0.072814 0.349714
v -0.178990 0.351069 0.228091
v -0.302524 -0.052677 -0.277401
v 0.352509 -0.075367 0.359254
v 0.212258 0.379303 0.017260
v 0.315387 -0.065948 -0.311627
v 0.183203 0.477973 -0.272432
v -0.431787 -0.067748 -0.010188
v -0.188510 0.199701 0.300278
v -0.284691 0.399280 0.016707
v -0.236932 0.107415 -0.296610
v -0.045946 -0.065981 -0.365318
v -0.074792 0.381010 -0.337387
v 0.217130 0.167755 -0.313937
v 0.416836 -0.073906 0.062944
v 0.270096 0.148300 0.333576
v 0.035780 -0.072605 0.481681
v -0.022420 0.439331 0.183247
v -0.400841 0.143187 0.039949
v -0.012240 0.121858 -0.398938
v 0.331093 0.159381 0.021819
v 0.031390 -0.073695 0.013063
v -0.109469 0.491425 -0.070079
v 0.095581 0.524057 -0.178837
v 0.078129 0.180408 0.422449
vn -0.8402 0.1643 0.5168
vn -0.7763 0.3605 0.5171
vn -0.8649 0.2608 -0.4289
vn -0.3673 -0.0363 -0.9294
vn 0.2304 0.2110 -0.9499
vn 0.2318 -0.0473 -0.9716
vn 0.9049 0.3317 -0.2668
vn 0.8767 0.4753 0.0739
vn 0.9108 0.3637 0.1952
vn -0.0301 -0.9988 -0.0377
vn 0.0027 -0.9998 -0.0215
vn -0.0043 -1.0000 -0.0008
vn -0.0070 -1.0000 -0.0033
vn -0.3452 0.8776 0.3326
vn 0.6140 0.7639 0.1986
vn -0.2794 0.8428 -0.4601
vn 0.8629 0.4701 0.1855
vn 0.9381 0.1447 -0.3148
vn 0.1476 0.8357 0.5290
vn -0.7825 0.3916 -0.4841
vn -0.5703 0.7305 -0.3757
vn -0.8318 0.3372 -0.4409
vn -0.4178 0.1133 -0.9014
vn 0.4612 0.7266 0.5093
vn -0.2361 0.5537 0.7986
vn -0.3944 0.2620 0.8808
vn 0.3876 0.1931 0.9014
vn 0.3059 0.9478 0.0898
vt 0.358638 0.617220
vt 0.361807 0.630712
vt 0.351295 0.627914
vt 0.349763 0.617471
vt 0.362279 0.638207
vt 0.357045 0.640594
vt 0.359410 0.626143
vt 0.356162 0.618217
vt 0.370535 0.626858
vt 0.368866 0.617558
vt 0.367438 0.639689
vt 0.380211 0.644490
vt 0.381891 0.629131
vt 0.386756 0.617560
vt 0.387534 0.628716
vt 0.391779 0.617166
vt 0.381650 0.639605
vt 0.384514 0.628167
vt 0.388594 0.617093
vt 0.372695 0.617176
vt 0.372912 0.617230
vt 0.365721 0.645156
vt 0.370031 0.642577
vt 0.375873 0.646771
vt 0.375009 0.629757
s 0
usemtl Winter_Pack_Texture
f 1/1/1 9/2/1 19/3/1 8/4/1
f 9/2/2 2/5/2 10/6/2 19/3/2
f 8/4/3 19/3/3 11/7/3 3/8/3
f 3/8/4 11/7/4 20/9/4 12/10/4
f 20/9/5 13/11/5 7/12/5 14/13/5
f 12/10/6 20/9/6 14/13/6 6/14/6
f 6/14/7 14/13/7 21/15/7 15/16/7
f 7/12/8 5/17/8 21/15/8
f 15/16/9 21/15/9 16/18/9 4/19/9
f 3/8/10 12/10/10 22/20/10 8/4/10
f 12/10/11 6/14/11 15/16/11 22/20/11
f 22/20/12 15/16/12 4/19/12 17/21/12
f 8/4/13 22/20/13 17/21/13 1/1/13
f 23/22/14 10/6/14 2/5/14 18/23/14
f 24/24/15 5/17/15 7/12/15
f 7/12/16 13/11/16 23/22/16 24/24/16
f 21/15/17 5/17/17 16/18/17
f 14/13/18 7/12/18 21/15/18
f 5/17/19 24/24/19 23/22/19
f 13/11/20 11/7/20 10/6/20
f 13/11/21 10/6/21 23/22/21
f 19/3/22 10/6/22 11/7/22
f 11/7/23 13/11/23 20/9/23
f 16/18/24 5/17/24 18/23/24 25/25/24
f 25/25/25 18/23/25 2/5/25 9/2/25
f 17/21/26 25/25/26 9/2/26 1/1/26
f 4/19/27 16/18/27 25/25/27 17/21/27
f 23/22/28 18/23/28 5/17/28
