# Blender 5.0.0
# www.blender.org
mtllib Rock_A_Snow.mtl
o Rock_A_Snow
v -0.282509 -0.058924 0.215037
v -0.250286 0.446744 0.175681
v -0.283236 -0.061955 -0.192668
v 0.295592 -0.057653 0.190974
v 0.285019 0.410847 0.059172
v 0.263885 -0.057451 -0.168096
v 0.256646 0.422789 -0.189405
v -0.406601 -0.058249 -0.019143
v -0.279381 0.271276 0.207326
v -0.317762 0.501131 -0.036359
v -0.297446 0.163441 -0.225244
v -0.068488 -0.056878 -0.280359
v -0.040000 0.352492 -0.258666
v 0.270473 0.209851 -0.221195
v 0.371706 -0.059566 0.013128
v 0.295023 0.225218 0.226972
v 0.002576 -0.055462 0.300327
v -0.012967 0.392751 0.251726
v -0.421148 0.217299 -0.013129
v -0.031703 0.144182 -0.315397
v 0.377018 0.239421 0.003430
v -0.001653 -0.060276 -0.002666
v 0.058927 0.583106 -0.023167
v 0.190417 0.545358 -0.012711
v 0.025886 0.202362 0.314433
vn -0.8624 -0.0148 0.5060
vn -0.8593 0.2976 0.4160
vn -0.8447 -0.0766 -0.5297
vn -0.3476 -0.1289 -0.9288
vn 0.2124 0.2116 -0.9540
vn 0.3218 -0.2038 -0.9246
vn 0.8840 -0.0698 -0.4622
vn 0.8682 0.4905 -0.0755
vn 0.9304 -0.0241 0.3658
vn 0.0051 -1.0000 0.0013
vn 0.0025 -0.9999 -0.0130
vn -0.0003 -0.9999 0.0139
vn 0.0010 -1.0000 0.0075
vn -0.1053 0.8889 0.4458
vn 0.8329 0.5491 -0.0687
vn 0.0640 0.7553 -0.6522
vn 0.8699 0.3557 0.3417
vn 0.8902 0.1233 -0.4385
vn 0.3039 0.7051 0.6407
vn -0.4162 0.4247 -0.8040
vn -0.1369 0.7359 -0.6631
vn -0.8073 0.2503 -0.5344
vn -0.2962 0.2400 -0.9245
vn 0.3468 0.5225 0.7789
vn -0.2628 0.2344 0.9359
vn -0.3095 0.0036 0.9509
vn 0.3321 -0.1009 0.9378
vt 0.285489 0.033735
vt 0.285651 0.065781
vt 0.278305 0.060543
vt 0.279059 0.033800
vt 0.287159 0.082811
vt 0.283662 0.088089
vt 0.284715 0.055315
vt 0.285452 0.033440
vt 0.298487 0.053446
vt 0.296581 0.033933
vt 0.298057 0.073663
vt 0.313430 0.080486
vt 0.314147 0.059820
vt 0.313806 0.033878
vt 0.319668 0.062690
vt 0.319393 0.033672
vt 0.314901 0.079327
vt 0.315419 0.061311
vt 0.315449 0.033858
vt 0.300044 0.033603
vt 0.300264 0.034071
vt 0.303184 0.096045
vt 0.299458 0.077570
vt 0.309998 0.092381
vt 0.301472 0.059093
s 0
usemtl Winter_Pack_Texture
f 1/1/1 9/2/1 19/3/1 8/4/1
f 9/2/2 2/5/2 10/6/2 19/3/2
f 8/4/3 19/3/3 11/7/3 3/8/3
f 3/8/4 11/7/4 20/9/4 12/10/4
f 20/9/5 13/11/5 7/12/5 14/13/5
f 12/10/6 20/9/6 14/13/6 6/14/6
f 6/14/7 14/13/7 21/15/7 15/16/7
f 7/12/8 5/17/8 21/15/8
f 15/16/9 21/15/9 16/18/9 4/19/9
f 3/8/10 12/10/10 22/20/10 8/4/10
f 12/10/11 6/14/11 15/16/11 22/20/11
f 22/20/12 15/16/12 4/19/12 17/21/12
f 8/4/13 22/20/13 17/21/13 1/1/13
f 23/22/14 10/6/14 2/5/14 18/23/14
f 24/24/15 5/17/15 7/12/15
f 7/12/16 13/11/16 23/22/16 24/24/16
f 21/15/17 5/17/17 16/18/17
f 14/13/18 7/12/18 21/15/18
f 5/17/19 24/24/19 23/22/19 18/23/19
f 13/11/20 11/7/20 10/6/20
f 13/11/21 10/6/21 23/22/21
f 19/3/22 10/6/22 11/7/22
f 11/7/23 13/11/23 20/9/23
f 16/18/24 5/17/24 18/23/24 25/25/24
f 25/25/25 18/23/25 2/5/25 9/2/25
f 17/21/26 25/25/26 9/2/26 1/1/26
f 4/19/27 16/18/27 25/25/27 17/21/27
