# Blender 5.0.0
# www.blender.org
mtllib Rock_C.mtl
o Rock_C
v -0.345110 -0.060587 0.300172
v -0.261285 0.299721 0.190771
v -0.370912 -0.038842 -0.253455
v 0.406587 -0.057872 0.291737
v 0.250372 0.336739 0.000755
v 0.362427 -0.049737 -0.287684
v 0.254787 0.271907 -0.229584
v -0.507539 -0.048823 0.041104
v -0.312815 0.173887 0.251780
v -0.236779 0.360266 -0.017088
v -0.293423 0.098359 -0.274900
v -0.067405 -0.049766 -0.334055
v 0.008309 0.224117 -0.292503
v 0.290258 0.123012 -0.275667
v 0.483108 -0.056610 0.035822
v 0.308550 0.135303 0.269560
v 0.012404 -0.052183 0.380842
v -0.016861 0.344548 0.185485
v -0.483002 0.132075 0.042266
v -0.003044 0.078699 -0.366940
v 0.381111 0.144873 0.000304
v 0.024593 -0.056428 -0.007259
v 0.099153 0.387045 -0.023592
v 0.016505 0.165948 0.372126
vn -0.8082 0.1745 0.5625
vn -0.6894 0.6719 0.2708
vn -0.8518 0.2436 -0.4637
vn -0.2810 -0.0460 -0.9586
vn 0.1921 0.3853 -0.9026
vn 0.1903 -0.0629 -0.9797
vn 0.8677 0.3840 -0.3158
vn 0.8179 0.5577 -0.1413
vn 0.8483 0.4666 0.2504
vn -0.0266 -0.9992 -0.0287
vn 0.0020 -0.9998 -0.0215
vn -0.0067 -1.0000 0.0037
vn 0.0013 -0.9999 -0.0119
vn -0.1159 0.9726 0.2013
vn 0.3416 0.9064 -0.2486
vn -0.0369 0.8602 -0.5087
vn 0.8033 0.5468 0.2359
vn 0.8948 0.3120 -0.3193
vn 0.2511 0.9119 0.3247
vn -0.3280 0.6978 -0.6368
vn -0.0785 0.8642 -0.4971
vn -0.6611 0.5941 -0.4583
vn -0.2405 0.4571 -0.8563
vn 0.3402 0.7545 0.5612
vn -0.1918 0.6262 0.7557
vn -0.2781 0.1422 0.9500
vn 0.2732 0.1339 0.9526
vt 0.422232 0.615404
vt 0.423717 0.629823
vt 0.415892 0.627251
vt 0.414763 0.616127
vt 0.426087 0.637561
vt 0.427214 0.641284
vt 0.424609 0.625178
vt 0.421046 0.616741
vt 0.437962 0.623969
vt 0.435002 0.616069
vt 0.438484 0.632912
vt 0.449818 0.635851
vt 0.451449 0.626694
vt 0.454768 0.616071
vt 0.455627 0.628038
vt 0.460317 0.615648
vt 0.449615 0.639837
vt 0.452290 0.627450
vt 0.456798 0.615571
vt 0.439233 0.615659
vt 0.438672 0.615920
vt 0.442661 0.642931
vt 0.437327 0.640318
vt 0.438861 0.629334
s 0
usemtl Winter_Pack_Texture
f 1/1/1 9/2/1 19/3/1 8/4/1
f 9/2/2 2/5/2 10/6/2 19/3/2
f 8/4/3 19/3/3 11/7/3 3/8/3
f 3/8/4 11/7/4 20/9/4 12/10/4
f 20/9/5 13/11/5 7/12/5 14/13/5
f 12/10/6 20/9/6 14/13/6 6/14/6
f 6/14/7 14/13/7 21/15/7 15/16/7
f 7/12/8 5/17/8 21/15/8
f 15/16/9 21/15/9 16/18/9 4/19/9
f 3/8/10 12/10/10 22/20/10 8/4/10
f 12/10/11 6/14/11 15/16/11 22/20/11
f 22/20/12 15/16/12 4/19/12 17/21/12
f 8/4/13 22/20/13 17/21/13 1/1/13
f 23/22/14 10/6/14 2/5/14 18/23/14
f 23/22/15 5/17/15 7/12/15
f 7/12/16 13/11/16 23/22/16
f 21/15/17 5/17/17 16/18/17
f 14/13/18 7/12/18 21/15/18
f 5/17/19 23/22/19 18/23/19
f 13/11/20 11/7/20 10/6/20
f 13/11/21 10/6/21 23/22/21
f 19/3/22 10/6/22 11/7/22
f 11/7/23 13/11/23 20/9/23
f 16/18/24 5/17/24 18/23/24 24/24/24
f 24/24/25 18/23/25 2/5/25 9/2/25
f 17/21/26 24/24/26 9/2/26 1/1/26
f 4/19/27 16/18/27 24/24/27 17/21/27
