# Blender 5.0.0
# www.blender.org
mtllib santa_Hat.mtl
o santa_Hat
v -0.000000 -0.036058 -0.232386
v -0.000000 0.045742 -0.195006
v 0.149375 -0.036058 -0.178018
v 0.125347 0.045742 -0.149383
v 0.228855 -0.036058 -0.040354
v 0.192043 0.045743 -0.033863
v 0.201252 -0.036058 0.116193
v 0.168880 0.045743 0.097503
v 0.079481 -0.036058 0.218371
v 0.066696 0.045743 0.183245
v -0.079481 -0.036058 0.218371
v -0.066696 0.045743 0.183245
v -0.201252 -0.036058 0.116193
v -0.168880 0.045743 0.097503
v -0.228855 -0.036058 -0.040353
v -0.192043 0.045743 -0.033862
v -0.149375 -0.036058 -0.178018
v -0.125347 0.045742 -0.149383
v -0.000000 0.000000 -0.251877
v 0.161903 0.000000 -0.192949
v 0.248050 0.000000 -0.043738
v 0.218132 0.000000 0.125938
v 0.086147 0.000000 0.236687
v -0.086147 0.000000 0.236687
v -0.218132 0.000000 0.125939
v -0.248050 0.000000 -0.043738
v -0.161903 0.000000 -0.192949
v 0.153645 0.033637 -0.183108
v -0.000000 0.033637 -0.239030
v 0.235399 0.033637 -0.041507
v 0.207006 0.033637 0.119515
v 0.081753 0.033637 0.224615
v -0.081753 0.033637 0.224615
v -0.207006 0.033637 0.119515
v -0.235399 0.033637 -0.041507
v -0.153646 0.033637 -0.183107
v 0.156347 0.140613 -0.104574
v 0.082155 0.204228 -0.136511
v 0.195823 0.106764 -0.023705
v 0.182113 0.118520 0.068255
v 0.121632 0.170379 0.128278
v 0.042679 0.238076 0.128279
v -0.017803 0.289936 0.068256
v -0.031513 0.301691 -0.023705
v 0.007964 0.267842 -0.104574
v 0.196196 0.160078 -0.084774
v 0.160898 0.230723 -0.109197
v 0.214978 0.122489 -0.022932
v 0.208455 0.135543 0.047392
v 0.179680 0.193134 0.093293
v 0.142116 0.268312 0.093293
v 0.113340 0.325902 0.047392
v 0.106817 0.338957 -0.022932
v 0.125599 0.301368 -0.084774
v 0.282080 0.130238 -0.061871
v 0.286168 0.167649 -0.079718
v 0.279904 0.110332 -0.016681
v 0.280660 0.117245 0.034708
v 0.283993 0.147743 0.068250
v 0.288344 0.187556 0.068250
v 0.291677 0.218054 0.034708
v 0.292432 0.224967 -0.016681
v 0.290257 0.205061 -0.061871
v 0.302958 0.116909 -0.047069
v 0.322410 0.036057 -0.003109
v 0.370598 0.037054 0.024717
v 0.327882 0.068309 0.041915
v 0.301481 0.087626 -0.003109
v 0.327882 0.068309 -0.048134
v 0.370598 0.037054 -0.030936
v 0.379450 0.089239 0.041915
v 0.336734 0.120494 0.024717
v 0.336734 0.120494 -0.030936
v 0.379450 0.089239 -0.048134
v 0.405851 0.069922 -0.003109
v 0.384921 0.121491 -0.003109
v 0.310149 0.136863 -0.060395
v 0.299132 0.106291 -0.013325
v 0.300460 0.109979 0.025046
v 0.306323 0.126246 0.050092
v 0.313976 0.147481 0.050092
v 0.319838 0.163748 0.025046
v 0.321167 0.167435 -0.013325
v 0.317340 0.156818 -0.047069
v 0.339770 0.093947 -0.003434
vn 0.3219 0.3378 -0.8845
vn 0.8151 0.3378 -0.4706
vn 0.9269 0.3378 0.1634
vn 0.6050 0.3378 0.7210
vn -0.0000 0.3378 0.9412
vn -0.6050 0.3378 0.7210
vn -0.9269 0.3378 0.1634
vn 0.4064 0.1835 -0.8951
vn -0.8151 0.3378 -0.4706
vn -0.3219 0.3378 -0.8845
vn -0.0000 -1.0000 -0.0000
vn -0.3049 -0.4529 -0.8378
vn -0.7721 -0.4529 -0.4458
vn -0.8780 -0.4529 0.1548
vn -0.5731 -0.4529 0.6830
vn -0.0000 -0.4529 0.8916
vn 0.5731 -0.4529 0.6830
vn 0.8780 -0.4529 0.1548
vn 0.7721 -0.4529 -0.4458
vn 0.3049 -0.4529 -0.8378
vn 0.0961 0.9598 -0.2639
vn 0.2432 0.9598 -0.1404
vn 0.2766 0.9598 0.0488
vn 0.1805 0.9598 0.2151
vn -0.0000 0.9598 0.2808
vn -0.1805 0.9598 0.2151
vn -0.2766 0.9598 0.0488
vn -0.2432 0.9598 -0.1404
vn -0.0961 0.9598 -0.2639
vn 0.3906 -0.0668 -0.9181
vn -0.7232 0.4994 -0.4771
vn 0.0906 0.2841 0.9545
vn 0.8774 -0.0269 -0.4790
vn -0.2300 0.3741 -0.8984
vn -0.5134 0.4476 0.7322
vn 0.9807 -0.1008 0.1672
vn -0.8342 0.5261 0.1654
vn 0.6789 0.0771 0.7302
vn -0.0905 -0.6813 0.7264
vn -0.1930 0.8436 -0.5011
vn 0.3179 0.2593 0.9120
vn 0.5617 -0.6249 -0.5421
vn 0.0799 0.4405 -0.8942
vn -0.0210 0.6864 0.7269
vn 0.6280 -0.7538 0.1935
vn -0.2459 0.9531 0.1764
vn 0.6108 -0.2339 0.7564
vn 0.1618 -0.4956 -0.8534
vn 0.0814 -0.3426 -0.9359
vn 0.5038 0.7911 -0.3468
vn 0.2273 0.0656 0.9716
vn -0.1584 -0.8799 -0.4481
vn 0.3842 0.4305 -0.8167
vn 0.4553 0.6652 0.5918
vn -0.2077 -0.9668 0.1488
vn 0.5185 0.8474 0.1144
vn 0.8377 0.3551 0.4149
vn 0.7410 0.2023 -0.6403
vn -0.1084 -0.7686 0.6305
vn -0.2252 -0.9028 -0.3663
vn 0.5147 -0.1012 0.8514
vn 0.8905 0.4489 0.0737
vn -0.2585 -0.9586 0.1192
vn 0.8764 0.4230 -0.2302
vn -0.3178 -0.7521 0.5774
vn 0.0207 -0.9998 -0.0000
vn -0.8656 -0.3513 0.3568
vn -0.8656 -0.3513 -0.3568
vn -0.3178 -0.7521 -0.5774
vn 0.6819 -0.7314 -0.0000
vn 0.1342 -0.3306 0.9342
vn -0.7521 0.3178 0.5774
vn -0.7521 0.3178 -0.5774
vn 0.1342 -0.3306 -0.9342
vn 0.7521 -0.3178 0.5774
vn -0.1342 0.3306 0.9342
vn -0.6819 0.7314 -0.0000
vn -0.1342 0.3306 -0.9342
vn 0.7521 -0.3178 -0.5774
vn 0.8656 0.3513 0.3568
vn 0.3178 0.7521 0.5774
vn -0.0207 0.9998 -0.0000
vn 0.3178 0.7521 -0.5774
vn 0.8656 0.3513 -0.3568
vn 0.9659 0.2523 0.0577
vn -0.3117 -0.9447 0.1016
vn -0.2049 -0.9268 -0.3148
vn 0.8848 -0.0077 -0.4659
vn 0.4238 -0.6037 -0.6752
vn 0.9594 0.2190 -0.1777
vn 0.7373 -0.2657 0.6211
vn 0.0452 -0.8426 0.5367
vn 0.9397 0.1412 0.3116
vt 0.111321 0.291469
vt 0.111321 0.294194
vt 0.123767 0.294194
vt 0.124436 0.291469
vt 0.130390 0.294194
vt 0.131414 0.291469
vt 0.128090 0.294194
vt 0.128991 0.291469
vt 0.117944 0.294194
vt 0.118300 0.291469
vt 0.104699 0.294194
vt 0.104343 0.291469
vt 0.094553 0.294194
vt 0.093652 0.291469
vt 0.092253 0.294194
vt 0.091228 0.291469
vt 0.113662 0.856698
vt 0.103509 0.856698
vt 0.110164 0.869536
vt 0.116174 0.864383
vt 0.098875 0.294194
vt 0.098206 0.291469
vt 0.111321 0.288548
vt 0.123421 0.288548
vt 0.129860 0.288548
vt 0.127624 0.288548
vt 0.117760 0.288548
vt 0.104883 0.288548
vt 0.095019 0.288548
vt 0.092783 0.288548
vt 0.099221 0.288548
vt 0.111321 0.295175
vt 0.121475 0.295175
vt 0.126878 0.295175
vt 0.125001 0.295175
vt 0.116724 0.295175
vt 0.105919 0.295175
vt 0.097641 0.295175
vt 0.095765 0.295175
vt 0.101168 0.295175
vt 0.116542 0.871682
vt 0.119402 0.865960
vt 0.093355 0.856698
vt 0.087953 0.856698
vt 0.100956 0.877431
vt 0.104154 0.874689
vt 0.098106 0.856698
vt 0.108911 0.856698
vt 0.113361 0.866794
vt 0.106966 0.872278
vt 0.119065 0.856698
vt 0.119371 0.861641
vt 0.089829 0.856698
vt 0.102067 0.876479
vt 0.117189 0.856698
vt 0.118261 0.862593
vt 0.118064 0.868637
vt 0.120395 0.863972
vt 0.126243 0.862490
vt 0.126513 0.864961
vt 0.112161 0.880450
vt 0.113683 0.877405
vt 0.115021 0.874727
vt 0.120923 0.862915
vt 0.112690 0.879392
vt 0.126358 0.863543
vt 0.126690 0.866573
vt 0.128632 0.864079
vt 0.128050 0.862463
vt 0.127197 0.871216
vt 0.127021 0.869604
vt 0.126866 0.868186
vt 0.126182 0.861930
vt 0.127136 0.870656
vt 0.128942 0.864939
vt 0.129417 0.866257
vt 0.129215 0.865696
vt 0.127847 0.861901
vt 0.128322 0.863219
vt 0.127740 0.861603
vt 0.129525 0.866556
vt 0.105211 0.286578
vt 0.109115 0.286658
vt 0.105655 0.289190
vt 0.103516 0.290755
vt 0.111970 0.289321
vt 0.109832 0.290886
vt 0.106372 0.293417
vt 0.110275 0.293498
vt 0.131032 0.860603
s 0
usemtl Winter_Pack_Texture
f 19/1/1 29/2/1 28/3/1 20/4/1
f 20/4/2 28/3/2 30/5/2 21/6/2
f 21/6/3 30/5/3 31/7/3 22/8/3
f 22/8/4 31/7/4 32/9/4 23/10/4
f 23/10/5 32/9/5 33/11/5 24/12/5
f 24/12/6 33/11/6 34/13/6 25/14/6
f 25/14/7 34/13/7 35/15/7 26/16/7
f 4/17/8 2/18/8 38/19/8 37/20/8
f 26/16/9 35/15/9 36/21/9 27/22/9
f 27/22/10 36/21/10 29/2/10 19/1/10
f 1/23/11 3/24/11 5/25/11 7/26/11 9/27/11 11/28/11 13/29/11 15/30/11 17/31/11
f 17/31/12 27/22/12 19/1/12 1/23/12
f 15/30/13 26/16/13 27/22/13 17/31/13
f 13/29/14 25/14/14 26/16/14 15/30/14
f 11/28/15 24/12/15 25/14/15 13/29/15
f 9/27/16 23/10/16 24/12/16 11/28/16
f 7/26/17 22/8/17 23/10/17 9/27/17
f 5/25/18 21/6/18 22/8/18 7/26/18
f 3/24/19 20/4/19 21/6/19 5/25/19
f 1/23/20 19/1/20 20/4/20 3/24/20
f 2/32/21 4/33/21 28/3/21 29/2/21
f 4/33/22 6/34/22 30/5/22 28/3/22
f 6/34/23 8/35/23 31/7/23 30/5/23
f 8/35/24 10/36/24 32/9/24 31/7/24
f 10/36/25 12/37/25 33/11/25 32/9/25
f 12/37/26 14/38/26 34/13/26 33/11/26
f 14/38/27 16/39/27 35/15/27 34/13/27
f 16/39/28 18/40/28 36/21/28 35/15/28
f 18/40/29 2/32/29 29/2/29 36/21/29
f 37/20/30 38/19/30 47/41/30 46/42/30
f 18/43/31 16/44/31 44/45/31 45/46/31
f 12/47/32 10/48/32 41/49/32 42/50/32
f 6/51/33 4/17/33 37/20/33 39/52/33
f 2/18/34 18/43/34 45/46/34 38/19/34
f 14/53/35 12/47/35 42/50/35 43/54/35
f 8/55/36 6/51/36 39/52/36 40/56/36
f 16/44/37 14/53/37 43/54/37 44/45/37
f 10/48/38 8/55/38 40/56/38 41/49/38
f 50/57/39 49/58/39 58/59/39 59/60/39
f 45/46/40 44/45/40 53/61/40 54/62/40
f 42/50/41 41/49/41 50/57/41 51/63/41
f 39/52/42 37/20/42 46/42/42 48/64/42
f 38/19/43 45/46/43 54/62/43 47/41/43
f 43/54/44 42/50/44 51/63/44 52/65/44
f 40/56/45 39/52/45 48/64/45 49/58/45
f 44/45/46 43/54/46 52/65/46 53/61/46
f 41/49/47 40/56/47 49/58/47 50/57/47
f 55/66/48 56/67/48 77/68/48 64/69/48
f 46/42/49 47/41/49 56/67/49 55/66/49
f 54/62/50 53/61/50 62/70/50 63/71/50
f 51/63/51 50/57/51 59/60/51 60/72/51
f 48/64/52 46/42/52 55/66/52 57/73/52
f 47/41/53 54/62/53 63/71/53 56/67/53
f 52/65/54 51/63/54 60/72/54 61/74/54
f 49/58/55 48/64/55 57/73/55 58/59/55
f 53/61/56 52/65/56 61/74/56 62/70/56
f 61/74/57 60/72/57 81/75/57 82/76/57
f 56/67/58 63/71/58 84/77/58 77/68/58
f 59/60/59 58/59/59 79/78/59 80/79/59
f 57/73/60 55/66/60 64/69/60 78/80/60
f 60/72/61 59/60/61 80/79/61 81/75/61
f 62/70/62 61/74/62 82/76/62 83/81/62
f 58/59/63 57/73/63 78/80/63 79/78/63
f 63/71/64 62/70/64 83/81/64 84/77/64
f 65/82/65 66/83/65 67/84/65
f 66/83/66 65/82/66 70/83/66
f 65/82/67 67/84/67 68/85/67
f 65/82/68 68/85/68 69/84/68
f 65/82/69 69/84/69 70/83/69
f 66/83/70 70/83/70 75/86/70
f 67/84/71 66/83/71 71/87/71
f 68/85/72 67/84/72 72/88/72
f 69/84/73 68/85/73 73/88/73
f 70/83/74 69/84/74 74/87/74
f 66/83/75 75/86/75 71/87/75
f 67/84/76 71/87/76 72/88/76
f 68/85/77 72/88/77 73/88/77
f 69/84/78 73/88/78 74/87/78
f 70/83/79 74/87/79 75/86/79
f 71/87/80 75/86/80 76/89/80
f 72/88/81 71/87/81 76/89/81
f 73/88/82 72/88/82 76/89/82
f 74/87/83 73/88/83 76/89/83
f 75/86/84 74/87/84 76/89/84
f 83/81/85 82/76/85 85/90/85
f 79/78/86 78/80/86 85/90/86
f 78/80/87 64/69/87 85/90/87
f 77/68/88 84/77/88 85/90/88
f 64/69/89 77/68/89 85/90/89
f 84/77/90 83/81/90 85/90/90
f 81/75/91 80/79/91 85/90/91
f 80/79/92 79/78/92 85/90/92
f 82/76/93 81/75/93 85/90/93
