# Blender 5.0.0
# www.blender.org
mtllib snow_mound_C.mtl
o snow_mound_C
v 0.931856 -0.108807 1.336554
v 0.333449 -0.108808 -2.494198
v 2.159406 -0.108808 -1.122279
v -0.390853 0.640582 0.704374
v 1.754247 -0.108808 -0.216281
v -1.405173 -0.108807 2.260719
v -1.016326 -0.108808 -1.009369
v 1.807650 -0.108808 -2.097700
v 0.186651 0.338126 1.338553
v 0.863907 0.566737 -0.074101
v -1.959020 0.343667 1.548534
v -1.781941 0.360373 0.223613
v 0.413985 0.662645 -1.366735
v 1.325762 -0.108808 0.423438
v -0.466413 -0.108808 -1.564050
v 2.039009 -0.108808 -1.517478
v 0.759893 0.051962 1.395348
v 0.279884 0.650254 0.358685
v 0.338809 0.427919 -2.215646
v 2.044870 -0.108808 -0.687655
v 0.039612 -0.108807 1.975502
v 1.139549 -0.108808 -2.588590
v -0.075955 0.454824 1.039087
v 1.492535 0.204641 -0.742023
v -1.143987 0.598142 1.042242
v -1.114612 0.610088 0.582184
v 0.159711 0.703340 -0.093910
v 0.845035 0.620753 -0.810216
v 1.329715 0.312133 -1.193861
v 1.089755 0.372138 -2.074161
v -0.649979 0.493712 -0.088965
v -0.531107 0.477410 -0.917000
v -2.543859 -0.108808 -0.170219
v -2.044383 0.400602 0.601982
v -0.904366 0.394512 1.606999
v -2.305254 -0.108807 1.786150
v -0.797934 0.185326 1.938113
v 0.667301 0.451403 0.517076
v 1.137138 0.160693 0.433331
v 1.260880 0.265635 -0.127964
v 1.118229 0.067319 0.750781
v -0.185232 0.425078 -1.697746
v 1.549276 0.148494 -1.121914
v 0.452331 0.688564 -0.142436
v 1.179779 0.440243 -1.462999
v 0.857838 0.318819 -2.410364
v -0.452900 0.631214 0.215819
v -0.898966 0.332492 -0.386810
v -1.611794 0.537435 0.788339
v -0.700116 0.545113 1.399650
v -1.159854 0.323163 1.879246
v -0.137780 0.041258 1.974040
v 0.304766 0.552850 0.656219
v 1.022998 0.317045 0.271599
v 1.563855 0.123572 -0.536314
v -2.549525 -0.108807 1.120716
v -2.759301 -0.108808 0.243312
v -2.863061 -0.108808 0.518778
vn 0.8007 0.4536 0.3912
vn 0.7564 0.5146 0.4038
vn 0.4183 0.8696 0.2623
vn -0.7093 0.2775 -0.6480
vn -0.7219 0.4754 -0.5029
vn -0.2584 0.9431 -0.2091
vn 0.3866 0.9170 -0.0982
vn 0.4712 0.8756 -0.1061
vn 0.5318 0.8468 0.0098
vn 0.2663 0.9582 0.1046
vn 0.0948 0.9952 -0.0240
vn 0.0478 0.9934 0.1038
vn 0.5663 0.8224 0.0539
vn 0.5912 0.7994 -0.1067
vn 0.2603 0.9557 -0.1376
vn 0.4859 0.6614 -0.5713
vn -0.1668 0.3826 -0.9087
vn 0.1208 0.9570 -0.2639
vn -0.2496 0.9612 -0.1176
vn -0.1924 0.9358 -0.2955
vn -0.0778 0.9969 -0.0092
vn -0.2852 0.9566 -0.0598
vn -0.4043 0.7804 -0.4770
vn -0.2596 0.8719 -0.4153
vn -0.2185 0.9480 -0.2314
vn -0.2687 0.9556 0.1208
vn -0.0828 0.9964 0.0206
vn -0.1029 0.9210 0.3757
vn 0.2331 0.8710 0.4325
vn 0.1311 0.9726 0.1919
vn -0.2137 0.7963 0.5659
vn -0.2065 0.7109 0.6723
vn 0.1840 0.8566 0.4820
vn 0.1355 0.4950 0.8583
vn 0.5059 0.4307 0.7474
vn 0.2485 0.8227 0.5112
vn 0.2350 0.9148 0.3286
vn 0.3448 0.8956 0.2810
vn 0.1408 0.9296 0.3406
vn 0.5325 0.7445 0.4027
vn 0.6139 0.7404 0.2738
vn 0.5639 0.7706 0.2970
vn 0.5553 0.7943 0.2464
vn 0.4779 0.8668 0.1420
vn 0.5965 0.7891 0.1466
vn -0.4256 0.8773 -0.2217
vn -0.5986 0.7799 0.1829
vn -0.6980 0.6687 0.2562
vn -0.4478 0.8414 -0.3026
vt 0.577256 0.158373
vt 0.580924 0.158373
vt 0.578991 0.165030
vt 0.575654 0.164450
vt 0.584914 0.158373
vt 0.579167 0.168559
vt 0.570316 0.175266
vt 0.571683 0.158373
vt 0.564235 0.158373
vt 0.566853 0.178552
vt 0.571733 0.178660
vt 0.559114 0.158373
vt 0.563632 0.180530
vt 0.572433 0.187532
vt 0.588687 0.158373
vt 0.587566 0.158373
vt 0.583005 0.168098
vt 0.582477 0.170221
vt 0.585411 0.158373
vt 0.580961 0.174283
vt 0.576623 0.183907
vt 0.576447 0.185948
vt 0.572790 0.188511
vt 0.571184 0.187063
vt 0.570065 0.189070
vt 0.564938 0.186698
vt 0.579564 0.179126
vt 0.578726 0.176551
vt 0.579190 0.158373
vt 0.576566 0.174536
vt 0.562525 0.181147
vt 0.564361 0.186344
vt 0.551984 0.176107
vt 0.558199 0.185545
vt 0.560207 0.175053
vt 0.544889 0.158373
vt 0.549541 0.177627
vt 0.553569 0.182799
vt 0.550336 0.175475
vt 0.557925 0.185094
vt 0.560157 0.177397
vt 0.562059 0.183089
vt 0.567871 0.179677
vt 0.547111 0.158373
vt 0.557777 0.174700
vt 0.555493 0.158373
vt 0.561148 0.169490
vt 0.568947 0.158373
vt 0.567295 0.164045
vt 0.574792 0.179547
vt 0.571416 0.183382
vt 0.578104 0.174469
vt 0.580320 0.172526
vt 0.587620 0.158373
vt 0.583141 0.167156
vt 0.542883 0.158373
vt 0.541917 0.158373
vt 0.544837 0.158373
s 0
usemtl Winter_Pack_Texture
f 1/1/1 14/2/1 41/3/1 17/4/1
f 5/5/2 39/6/2 41/3/2 14/2/2
f 9/7/3 17/4/3 41/3/3 39/6/3
f 2/8/4 15/9/4 42/10/4 19/11/4
f 7/12/5 32/13/5 42/10/5 15/9/5
f 13/14/6 19/11/6 42/10/6 32/13/6
f 3/15/7 16/16/7 43/17/7 24/18/7
f 8/19/8 29/20/8 43/17/8 16/16/8
f 10/21/9 24/18/9 43/17/9 29/20/9
f 10/21/10 28/22/10 44/23/10 18/24/10
f 13/14/11 27/25/11 44/23/11 28/22/11
f 4/26/12 18/24/12 44/23/12 27/25/12
f 10/21/13 29/20/13 45/27/13 28/22/13
f 8/19/14 30/28/14 45/27/14 29/20/14
f 13/14/15 28/22/15 45/27/15 30/28/15
f 8/19/16 22/29/16 46/30/16 30/28/16
f 2/8/17 19/11/17 46/30/17 22/29/17
f 13/14/18 30/28/18 46/30/18 19/11/18
f 13/14/19 31/31/19 47/32/19 27/25/19
f 12/33/20 26/34/20 47/32/20 31/31/20
f 4/26/21 27/25/21 47/32/21 26/34/21
f 13/14/22 32/13/22 48/35/22 31/31/22
f 7/12/23 33/36/23 48/35/23 32/13/23
f 12/33/24 31/31/24 48/35/24 33/36/24
f 12/33/25 34/37/25 49/38/25 26/34/25
f 11/39/26 25/40/26 49/38/26 34/37/26
f 4/26/27 26/34/27 49/38/27 25/40/27
f 11/39/28 35/41/28 50/42/28 25/40/28
f 9/7/29 23/43/29 50/42/29 35/41/29
f 4/26/30 25/40/30 50/42/30 23/43/30
f 11/39/31 36/44/31 51/45/31 35/41/31
f 6/46/32 37/47/32 51/45/32 36/44/32
f 9/7/33 35/41/33 51/45/33 37/47/33
f 6/46/34 21/48/34 52/49/34 37/47/34
f 1/1/35 17/4/35 52/49/35 21/48/35
f 9/7/36 37/47/36 52/49/36 17/4/36
f 9/7/37 38/50/37 53/51/37 23/43/37
f 10/21/38 18/24/38 53/51/38 38/50/38
f 4/26/39 23/43/39 53/51/39 18/24/39
f 9/7/40 39/6/40 54/52/40 38/50/40
f 5/5/41 40/53/41 54/52/41 39/6/41
f 10/21/42 38/50/42 54/52/42 40/53/42
f 5/5/43 20/54/43 55/55/43 40/53/43
f 3/15/44 24/18/44 55/55/44 20/54/44
f 10/21/45 40/53/45 55/55/45 24/18/45
f 12/33/46 33/36/46 57/56/46
f 11/39/47 34/37/47 58/57/47 56/58/47
f 36/44/48 11/39/48 56/58/48
f 34/37/49 12/33/49 57/56/49 58/57/49
