# Blender 5.0.0
# www.blender.org
mtllib Snow_mound_A.mtl
o Snow_mound_A
v 0.638782 -0.078209 1.913987
v -1.602330 -0.078209 1.185799
v -1.616000 -0.078210 -1.178838
v 0.668189 -0.078210 -1.897518
v 2.024073 -0.078210 0.007518
v -0.073304 0.385692 -0.021728
v 1.607086 -0.078209 1.161002
v -0.586984 -0.078209 1.873894
v -1.947292 -0.078210 0.004973
v -0.582322 -0.078210 -1.860934
v 1.616330 -0.078210 -1.145501
v 0.301061 0.187437 1.102872
v 1.179049 0.455133 -0.002400
v -0.972296 0.462391 0.688641
v -0.970247 0.408553 -0.710368
v 0.464414 0.404529 -1.113976
v 1.173484 -0.078209 1.619689
v -1.157207 -0.078209 1.603302
v -1.872891 -0.078210 -0.624934
v 0.057324 -0.078210 -1.973914
v 1.909371 -0.078210 -0.591885
v 0.519866 0.160354 1.608037
v 0.545382 0.404321 -0.017890
v -1.348310 0.286957 1.001109
v -1.377754 0.119757 -1.003588
v 0.603402 0.118930 -1.597128
v 1.909361 -0.078209 0.606922
v 0.033342 -0.078209 1.990140
v -1.861847 -0.078209 0.633447
v -1.168226 -0.078210 -1.594774
v 1.197054 -0.078210 -1.603484
v 0.077973 0.242855 0.520049
v 1.709805 0.286965 0.007476
v -0.621909 0.414344 0.350356
v -0.583290 0.493343 -0.329655
v 0.212952 0.493380 -0.560666
v 0.881510 0.489085 -0.594142
v 1.459959 0.319223 -0.592551
v 1.085792 0.221634 -1.154758
v -0.269137 0.439740 -0.974595
v -0.068954 0.170202 -1.532130
v -0.786795 0.175361 -1.328773
v -1.147186 0.407320 0.014497
v -1.526068 0.149382 -0.362831
v -1.509741 0.242140 0.343956
v -0.377025 0.278561 0.948839
v -0.792402 0.281307 1.323370
v -0.144800 0.191927 1.533731
v 0.761242 0.278679 0.579011
v 0.998545 0.191991 1.162246
v 1.423736 0.281393 0.603320
v 0.909423 0.138488 1.484499
v -1.111240 0.219948 1.325823
v -1.608682 0.084402 -0.674070
v 0.207921 0.077171 -1.721613
v 1.711590 0.216976 -0.395076
v 0.569310 0.488850 -0.402048
v 1.167287 0.385942 -0.790192
v 0.975427 0.085680 -1.471832
v -0.185055 0.513053 -0.651595
v -0.379840 0.266043 -1.298242
v -1.133102 0.081860 -1.325482
v -0.882105 0.479082 0.040811
v -1.397788 0.242086 -0.018029
v -1.585719 0.214814 0.673410
v -0.296554 0.300068 0.612414
v -0.445528 0.263037 1.287102
v 0.143336 0.138460 1.733410
v 0.463118 0.297249 0.368764
v 1.075930 0.263143 0.792768
v 1.707542 0.219972 0.409956
vn 0.1957 0.7788 0.5959
vn -0.6234 0.6384 0.4514
vn -0.4612 0.8209 -0.3369
vn 0.1652 0.8319 -0.5298
vn 0.7704 0.6376 0.0006
vn 0.0589 0.9792 0.1942
vn 0.4217 0.8305 0.3638
vn -0.1355 0.8197 0.5566
vn -0.5591 0.8277 -0.0486
vn -0.1443 0.8595 -0.4904
vn 0.4996 0.7628 -0.4105
vn 0.0360 0.9938 0.1050
vn 0.1411 0.9853 0.0960
vn -0.0967 0.9887 0.1150
vn -0.2877 0.9336 -0.2137
vn 0.0772 0.9352 -0.3457
vn 0.3669 0.8259 0.4281
vn -0.3665 0.7036 0.6087
vn -0.5220 0.8432 -0.1283
vn -0.0268 0.8534 -0.5206
vn 0.6837 0.6790 -0.2673
vn 0.1132 0.9281 0.3547
vn -0.0515 0.9776 0.2040
vn -0.4560 0.8303 0.3203
vn -0.4203 0.8555 -0.3024
vn 0.1488 0.8548 -0.4972
vn 0.6453 0.7114 0.2783
vn -0.0405 0.8127 0.5813
vn -0.6831 0.7136 0.1554
vn -0.2888 0.8393 -0.4607
vn 0.3625 0.8096 -0.4616
vn 0.0595 0.9853 0.1601
vn 0.5560 0.8310 0.0172
vn 0.1316 0.9851 0.1108
vn -0.0397 0.9991 0.0141
vn 0.0112 0.9999 0.0104
vn 0.1217 0.9856 -0.1175
vn 0.4402 0.8628 -0.2487
vn 0.3302 0.8439 -0.4228
vn -0.0791 0.9502 -0.3015
vn -0.0600 0.8750 -0.4804
vn -0.2087 0.8729 -0.4411
vn -0.3201 0.9463 -0.0450
vn -0.4951 0.8635 -0.0955
vn -0.5087 0.8608 -0.0125
vn 0.1658 0.9793 0.1159
vn -0.0712 0.9051 0.4193
vn -0.0080 0.9463 0.3231
vn -0.0494 0.9803 0.1913
vn 0.1885 0.9494 0.2511
vn 0.2940 0.9098 0.2929
vn 0.2387 0.9064 0.3486
vn -0.3359 0.7912 0.5110
vn -0.4986 0.8518 -0.1609
vn 0.0126 0.8584 -0.5129
vn 0.5969 0.7791 -0.1915
vn -0.0243 0.9978 0.0623
vn 0.3200 0.8958 -0.3084
vn 0.3023 0.8321 -0.4650
vn -0.0056 0.9994 -0.0342
vn -0.1223 0.8862 -0.4470
vn -0.3131 0.8486 -0.4264
vn -0.0417 0.9990 0.0190
vn -0.4809 0.8733 -0.0779
vn -0.5857 0.7974 0.1450
vn 0.1898 0.9734 0.1281
vn 0.0765 0.9582 0.2756
vn 0.0111 0.9043 0.4268
vn -0.0612 0.9756 0.2108
vn 0.0980 0.9592 0.2653
vn 0.5590 0.8002 0.2173
vt 0.571533 0.174782
vt 0.577626 0.174782
vt 0.574617 0.181315
vt 0.570178 0.181974
vt 0.582568 0.174782
vt 0.575633 0.182928
vt 0.567684 0.182791
vt 0.545993 0.174782
vt 0.551066 0.174782
vt 0.551589 0.183771
vt 0.548888 0.185791
vt 0.557564 0.174782
vt 0.555223 0.185621
vt 0.553173 0.191080
vt 0.545837 0.174782
vt 0.542910 0.174782
vt 0.545921 0.179685
vt 0.548552 0.180750
vt 0.542062 0.174782
vt 0.546862 0.181644
vt 0.553196 0.189457
vt 0.571868 0.174782
vt 0.564907 0.174782
vt 0.566623 0.179467
vt 0.571130 0.180726
vt 0.557617 0.174782
vt 0.563468 0.182271
vt 0.569546 0.189336
vt 0.587320 0.174782
vt 0.586013 0.174782
vt 0.583759 0.183681
vt 0.583738 0.185791
vt 0.582673 0.174782
vt 0.580891 0.186764
vt 0.577690 0.190861
vt 0.574299 0.191885
vt 0.570741 0.191878
vt 0.570469 0.189330
vt 0.566680 0.192015
vt 0.563418 0.188768
vt 0.577556 0.188776
vt 0.576627 0.183822
vt 0.577895 0.174782
vt 0.575369 0.179723
vt 0.561186 0.190397
vt 0.562144 0.192608
vt 0.557606 0.192013
vt 0.559925 0.185161
vt 0.555287 0.182427
vt 0.550940 0.174782
vt 0.551340 0.179608
vt 0.551180 0.189420
vt 0.554201 0.191584
vt 0.557166 0.189632
vt 0.548324 0.184438
vt 0.547048 0.184440
vt 0.543036 0.174782
vt 0.546182 0.183616
vt 0.559957 0.185538
vt 0.560874 0.186187
vt 0.565142 0.184462
vt 0.559176 0.185070
vt 0.562603 0.182926
vt 0.564633 0.174782
vt 0.565887 0.181314
vt 0.572929 0.185542
vt 0.569531 0.186102
vt 0.576515 0.185073
vt 0.580478 0.185624
vt 0.586013 0.174782
vt 0.583713 0.183772
s 1
usemtl Winter_Pack_Texture
f 1/1/1 17/2/17 52/3/52 22/4/22
f 7/5/7 50/6/50 52/3/52 17/2/17
f 12/7/12 22/4/22 52/3/52 50/6/50
f 2/8/2 18/9/18 53/10/53 24/11/24
f 8/12/8 47/13/47 53/10/53 18/9/18
f 14/14/14 24/11/24 53/10/53 47/13/47
f 3/15/3 19/16/19 54/17/54 25/18/25
f 9/19/9 44/20/44 54/17/54 19/16/19
f 15/21/15 25/18/25 54/17/54 44/20/44
f 4/22/4 20/23/20 55/24/55 26/25/26
f 10/26/10 41/27/41 55/24/55 20/23/20
f 16/28/16 26/25/26 55/24/55 41/27/41
f 5/29/5 21/30/21 56/31/56 33/32/33
f 11/33/11 38/34/38 56/31/56 21/30/21
f 13/35/13 33/32/33 56/31/56 38/34/38
f 13/35/13 37/36/37 57/37/57 23/38/23
f 16/28/16 36/39/36 57/37/57 37/36/37
f 6/40/6 23/38/23 57/37/57 36/39/36
f 13/35/13 38/34/38 58/41/58 37/36/37
f 11/33/11 39/42/39 58/41/58 38/34/38
f 16/28/16 37/36/37 58/41/58 39/42/39
f 11/33/11 31/43/31 59/44/59 39/42/39
f 4/22/4 26/25/26 59/44/59 31/43/31
f 16/28/16 39/42/39 59/44/59 26/25/26
f 16/28/16 40/45/40 60/46/60 36/39/36
f 15/21/15 35/47/35 60/46/60 40/45/40
f 6/40/6 36/39/36 60/46/60 35/47/35
f 16/28/16 41/27/41 61/48/61 40/45/40
f 10/26/10 42/49/42 61/48/61 41/27/41
f 15/21/15 40/45/40 61/48/61 42/49/42
f 10/26/10 30/50/30 62/51/62 42/49/42
f 3/15/3 25/18/25 62/51/62 30/50/30
f 15/21/15 42/49/42 62/51/62 25/18/25
f 15/21/15 43/52/43 63/53/63 35/47/35
f 14/14/14 34/54/34 63/53/63 43/52/43
f 6/40/6 35/47/35 63/53/63 34/54/34
f 15/21/15 44/20/44 64/55/64 43/52/43
f 9/19/9 45/56/45 64/55/64 44/20/44
f 14/14/14 43/52/43 64/55/64 45/56/45
f 9/19/9 29/57/29 65/58/65 45/56/45
f 2/8/2 24/11/24 65/58/65 29/57/29
f 14/14/14 45/56/45 65/58/65 24/11/24
f 14/14/14 46/59/46 66/60/66 34/54/34
f 12/7/12 32/61/32 66/60/66 46/59/46
f 6/40/6 34/54/34 66/60/66 32/61/32
f 14/14/14 47/13/47 67/62/67 46/59/46
f 8/12/8 48/63/48 67/62/67 47/13/47
f 12/7/12 46/59/46 67/62/67 48/63/48
f 8/12/8 28/64/28 68/65/68 48/63/48
f 1/1/1 22/4/22 68/65/68 28/64/28
f 12/7/12 48/63/48 68/65/68 22/4/22
f 12/7/12 49/66/49 69/67/69 32/61/32
f 13/35/13 23/38/23 69/67/69 49/66/49
f 6/40/6 32/61/32 69/67/69 23/38/23
f 12/7/12 50/6/50 70/68/70 49/66/49
f 7/5/7 51/69/51 70/68/70 50/6/50
f 13/35/13 49/66/49 70/68/70 51/69/51
f 7/5/7 27/70/27 71/71/71 51/69/51
f 5/29/5 33/32/33 71/71/71 27/70/27
f 13/35/13 51/69/51 71/71/71 33/32/33
