# Blender 5.0.0
# www.blender.org
mtllib snow_mound_B.mtl
o snow_mound_B
v 0.684462 -0.098085 2.535055
v -1.526567 -0.098085 1.211400
v -1.525338 -0.098086 -1.236478
v 0.662684 -0.098086 -2.938389
v 1.830517 -0.098086 0.041646
v -0.146010 0.546490 -0.023984
v 1.538988 -0.098085 1.167930
v -0.524519 -0.098085 2.810604
v -1.686956 -0.098086 -0.163916
v -0.574455 -0.098086 -2.126018
v 1.615338 -0.098086 -1.499514
v 0.260444 0.209892 1.914688
v 0.639857 0.426654 0.073103
v -0.797085 0.588356 0.898305
v -0.762168 0.494926 -0.844675
v 0.461717 0.483528 -1.991941
v 1.195857 -0.098085 1.802445
v -1.119583 -0.098085 2.072860
v -1.673672 -0.098086 -0.754021
v 0.056402 -0.098086 -2.748873
v 1.757165 -0.098086 -0.577167
v 0.579612 -0.016322 2.493622
v 0.174826 0.470135 -0.006917
v -1.228248 0.327251 1.145921
v -1.224584 0.148350 -1.102369
v 0.595694 0.242648 -2.765778
v 1.749707 -0.098085 0.632910
v 0.153548 -0.098085 2.920113
v -1.659834 -0.098085 0.503368
v -1.149242 -0.098086 -1.605241
v 1.195077 -0.098086 -2.439632
v 0.071053 0.281162 0.985956
v 1.299798 0.200888 0.073069
v -0.432489 0.645514 0.451710
v -0.407940 0.651630 -0.461007
v 0.112747 0.510435 -0.867276
v 0.671302 0.473478 -0.933232
v 1.173290 0.259704 -0.722109
v 1.084396 0.289020 -1.957236
v -0.262755 0.439680 -1.337987
v -0.070112 0.235464 -2.320804
v -0.762592 0.147155 -1.465123
v -0.785660 0.668401 -0.219578
v -1.200259 0.313465 -0.574433
v -1.162153 0.490207 0.119746
v -0.283441 0.326566 1.817466
v -0.733604 0.107141 2.190887
v -0.202854 0.131475 2.610399
v 0.512819 0.277134 0.815060
v 0.985856 0.103290 1.478757
v 1.058800 0.213985 0.657977
v 0.946671 0.019484 1.946995
v -1.067440 0.101168 1.860261
v -1.371591 0.167321 -0.827973
v 0.203018 0.175858 -2.727554
v 1.375776 0.131088 -0.358440
v 0.296032 0.496859 -0.610255
v 1.064328 0.379156 -1.224129
v 0.970251 0.186798 -2.493574
v -0.177508 0.539385 -0.883869
v -0.374969 0.277492 -1.737113
v -1.070279 0.056779 -1.365007
v -0.584082 0.736051 -0.151825
v -1.015764 0.490819 -0.265383
v -1.327626 0.393989 0.518642
v -0.204766 0.489957 1.383268
v -0.390297 0.293031 2.353276
v 0.076788 0.022106 2.833171
v 0.229558 0.364879 0.593766
v 0.837005 0.211831 0.949958
v 1.365059 0.137580 0.464482
vn 0.5354 0.7499 0.3886
vn 0.4684 0.8538 0.2273
vn 0.2520 0.9442 0.2122
vn -0.7421 0.5720 0.3495
vn -0.5226 0.7239 0.4503
vn -0.3425 0.8734 0.3461
vn -0.6105 0.7492 -0.2570
vn -0.6542 0.7563 -0.0084
vn -0.4643 0.8512 -0.2448
vn -0.2309 0.3198 -0.9189
vn -0.6315 0.5100 -0.5840
vn -0.2175 0.9253 -0.3105
vn 0.4886 0.8707 -0.0566
vn 0.5320 0.8447 -0.0580
vn 0.3770 0.9262 0.0085
vn 0.0948 0.9940 0.0544
vn 0.0658 0.9978 -0.0017
vn 0.1571 0.9870 0.0349
vn 0.3604 0.9290 0.0839
vn 0.6463 0.7626 -0.0284
vn 0.2564 0.9640 -0.0702
vn 0.7402 0.5970 -0.3093
vn 0.6049 0.4115 -0.6818
vn 0.3045 0.9225 -0.2370
vn -0.0722 0.9932 -0.0917
vn -0.0900 0.9646 -0.2480
vn 0.2492 0.9683 -0.0171
vn -0.3027 0.9196 -0.2504
vn -0.5779 0.7148 -0.3939
vn -0.3951 0.8383 -0.3757
vn -0.3760 0.8291 -0.4137
vn -0.3991 0.7983 -0.4510
vn -0.3630 0.8075 -0.4650
vn -0.1446 0.9455 -0.2919
vn -0.1438 0.9836 0.1092
vn 0.3930 0.9194 0.0167
vn -0.5182 0.8262 -0.2210
vn -0.6648 0.7319 -0.1498
vn -0.4249 0.9052 0.0040
vn -0.7767 0.6283 -0.0441
vn -0.8079 0.5645 0.1690
vn -0.4142 0.9027 0.1167
vn -0.0268 0.9728 0.2301
vn 0.4048 0.9061 0.1231
vn 0.5453 0.8363 0.0564
vn -0.2423 0.9354 0.2576
vn -0.4355 0.7433 0.5078
vn 0.2593 0.9436 0.2058
vn -0.1647 0.6922 0.7026
vn 0.4141 0.7235 0.5524
vn 0.2143 0.9477 0.2366
vn 0.0536 0.9919 0.1151
vn 0.0946 0.9771 0.1905
vn 0.1411 0.9697 0.1993
vn 0.1932 0.9741 0.1174
vn 0.3580 0.9206 0.1560
vn 0.1688 0.9654 0.1986
vn 0.4095 0.8908 0.1972
vn 0.4962 0.8659 0.0636
vn 0.3166 0.9422 0.1093
vt 0.573056 0.158581
vt 0.579604 0.158581
vt 0.576414 0.163025
vt 0.571714 0.161671
vt 0.583998 0.158581
vt 0.576915 0.166192
vt 0.567627 0.170221
vt 0.544746 0.158581
vt 0.549957 0.158581
vt 0.550624 0.166112
vt 0.548565 0.174657
vt 0.557576 0.158581
vt 0.554899 0.166338
vt 0.554086 0.184526
vt 0.544761 0.158581
vt 0.542862 0.158581
vt 0.546730 0.168612
vt 0.548612 0.167895
vt 0.542692 0.158581
vt 0.548924 0.174136
vt 0.554533 0.180995
vt 0.572777 0.158581
vt 0.565014 0.158581
vt 0.566892 0.168935
vt 0.571920 0.171459
vt 0.556937 0.158581
vt 0.563394 0.171188
vt 0.570204 0.180564
vt 0.587731 0.158581
vt 0.586791 0.158581
vt 0.581908 0.167243
vt 0.580935 0.169881
vt 0.584975 0.158581
vt 0.579315 0.172104
vt 0.572485 0.178414
vt 0.572888 0.180184
vt 0.568083 0.181068
vt 0.566531 0.180058
vt 0.565736 0.181581
vt 0.562423 0.182944
vt 0.577920 0.176619
vt 0.578177 0.173212
vt 0.579594 0.158581
vt 0.576716 0.169349
vt 0.560928 0.178907
vt 0.562019 0.182675
vt 0.559069 0.186918
vt 0.559491 0.172777
vt 0.554528 0.167850
vt 0.549577 0.158581
vt 0.550588 0.164434
vt 0.554232 0.187552
vt 0.556813 0.190108
vt 0.558755 0.186686
vt 0.551286 0.180840
vt 0.549412 0.180816
vt 0.543039 0.158581
vt 0.547293 0.177180
vt 0.560663 0.174631
vt 0.561670 0.180807
vt 0.565202 0.172915
vt 0.559295 0.173364
vt 0.561695 0.167258
vt 0.566258 0.158581
vt 0.565275 0.163124
vt 0.570858 0.172763
vt 0.567231 0.176079
vt 0.575009 0.170295
vt 0.577849 0.170376
vt 0.586696 0.158581
vt 0.581771 0.167488
s 0
usemtl Winter_Pack_Texture
f 1/1/1 17/2/1 52/3/1 22/4/1
f 7/5/2 50/6/2 52/3/2 17/2/2
f 12/7/3 22/4/3 52/3/3 50/6/3
f 2/8/4 18/9/4 53/10/4 24/11/4
f 8/12/5 47/13/5 53/10/5 18/9/5
f 14/14/6 24/11/6 53/10/6 47/13/6
f 3/15/7 19/16/7 54/17/7 25/18/7
f 9/19/8 44/20/8 54/17/8 19/16/8
f 15/21/9 25/18/9 54/17/9 44/20/9
f 4/22/10 20/23/10 55/24/10 26/25/10
f 10/26/11 41/27/11 55/24/11 20/23/11
f 16/28/12 26/25/12 55/24/12 41/27/12
f 5/29/13 21/30/13 56/31/13 33/32/13
f 11/33/14 38/34/14 56/31/14 21/30/14
f 13/35/15 33/32/15 56/31/15 38/34/15
f 13/35/16 37/36/16 57/37/16 23/38/16
f 16/28/17 36/39/17 57/37/17 37/36/17
f 6/40/18 23/38/18 57/37/18 36/39/18
f 13/35/19 38/34/19 58/41/19 37/36/19
f 11/33/20 39/42/20 58/41/20 38/34/20
f 16/28/21 37/36/21 58/41/21 39/42/21
f 11/33/22 31/43/22 59/44/22 39/42/22
f 4/22/23 26/25/23 59/44/23 31/43/23
f 16/28/24 39/42/24 59/44/24 26/25/24
f 16/28/25 40/45/25 60/46/25 36/39/25
f 15/21/26 35/47/26 60/46/26 40/45/26
f 6/40/27 36/39/27 60/46/27 35/47/27
f 16/28/28 41/27/28 61/48/28 40/45/28
f 10/26/29 42/49/29 61/48/29 41/27/29
f 15/21/30 40/45/30 61/48/30 42/49/30
f 10/26/31 30/50/31 62/51/31 42/49/31
f 3/15/32 25/18/32 62/51/32 30/50/32
f 15/21/33 42/49/33 62/51/33 25/18/33
f 15/21/34 43/52/34 63/53/34 35/47/34
f 14/14/35 34/54/35 63/53/35 43/52/35
f 6/40/36 35/47/36 63/53/36 34/54/36
f 15/21/37 44/20/37 64/55/37 43/52/37
f 9/19/38 45/56/38 64/55/38 44/20/38
f 14/14/39 43/52/39 64/55/39 45/56/39
f 9/19/40 29/57/40 65/58/40 45/56/40
f 2/8/41 24/11/41 65/58/41 29/57/41
f 14/14/42 45/56/42 65/58/42 24/11/42
f 14/14/43 46/59/43 66/60/43 34/54/43
f 12/7/44 32/61/44 66/60/44 46/59/44
f 6/40/45 34/54/45 66/60/45 32/61/45
f 14/14/46 47/13/46 67/62/46 46/59/46
f 8/12/47 48/63/47 67/62/47 47/13/47
f 12/7/48 46/59/48 67/62/48 48/63/48
f 8/12/49 28/64/49 68/65/49 48/63/49
f 1/1/50 22/4/50 68/65/50 28/64/50
f 12/7/51 48/63/51 68/65/51 22/4/51
f 12/7/52 49/66/52 69/67/52 32/61/52
f 13/35/53 23/38/53 69/67/53 49/66/53
f 6/40/54 32/61/54 69/67/54 23/38/54
f 12/7/55 50/6/55 70/68/55 49/66/55
f 7/5/56 51/69/56 70/68/56 50/6/56
f 13/35/57 49/66/57 70/68/57 51/69/57
f 7/5/58 27/70/58 71/71/58 51/69/58
f 5/29/59 33/32/59 71/71/59 27/70/59
f 13/35/60 51/69/60 71/71/60 33/32/60
