# Blender 5.0.0
# www.blender.org
mtllib snowman.mtl
o snowman
v 0.000000 0.803361 -0.316043
v 0.000000 0.263788 -0.511368
v 0.000000 0.022484 -0.316043
v 0.266214 0.803361 -0.158022
v 0.430743 0.562057 -0.255685
v 0.430743 0.263788 -0.255684
v 0.266214 0.022484 -0.158022
v 0.266214 0.803362 0.158021
v 0.430743 0.562057 0.255684
v 0.430743 0.263789 0.255684
v 0.266214 0.022484 0.158021
v 0.000001 0.803362 0.316043
v 0.000001 0.562057 0.511368
v 0.000001 0.263789 0.511368
v 0.000001 0.022484 0.316043
v 0.000000 -0.069686 0.000000
v -0.266213 0.803362 0.158021
v -0.430742 0.562057 0.255684
v -0.430742 0.263789 0.255684
v -0.266213 0.022484 0.158022
v -0.266213 0.803361 -0.158022
v -0.430742 0.562057 -0.255684
v -0.430742 0.263788 -0.255684
v -0.266213 0.022484 -0.158021
v 0.000000 0.562057 -0.511368
v 0.000000 1.335379 -0.213268
v 0.000000 0.971272 -0.345075
v 0.000000 0.831578 -0.262338
v 0.179643 1.335379 -0.106634
v 0.290668 1.172546 -0.172538
v 0.290668 0.971272 -0.172538
v 0.220976 0.831578 -0.131169
v 0.179643 1.335379 0.106633
v 0.290668 1.172546 0.172537
v 0.290668 0.971272 0.172537
v 0.220976 0.831578 0.131168
v 0.000001 1.335379 0.213267
v 0.000001 1.172546 0.345074
v 0.000001 0.971272 0.345074
v 0.000001 0.831578 0.262337
v 0.000000 1.397576 -0.000000
v -0.179642 1.335379 0.106634
v -0.290667 1.172546 0.172537
v -0.290667 0.971272 0.172537
v -0.220975 0.831578 0.131169
v -0.179642 1.335379 -0.106634
v -0.290667 1.172546 -0.172537
v -0.290667 0.971272 -0.172537
v -0.220975 0.831578 -0.131169
v 0.000000 1.172546 -0.345075
v 0.000172 1.164466 0.291709
v 0.000172 1.077510 0.557309
v 0.075478 1.034032 0.291709
v -0.075135 1.034032 0.291709
v 0.294708 0.680707 0.037830
v 0.295893 0.692482 0.000719
v 0.461109 0.754502 0.043358
v 0.314323 0.663270 -0.022001
v 0.319738 0.641675 -0.021387
v 0.479028 0.701362 0.042855
v 0.318452 0.620183 0.025462
v 0.475044 0.697487 0.064003
v 0.308651 0.639121 0.039431
v 0.468478 0.712132 0.076481
v 0.630560 0.776365 0.055347
v 0.616529 0.763243 0.081652
v 0.616353 0.789692 0.101883
v 0.607423 0.858261 0.075038
v 0.617216 0.828198 0.097094
v 0.617260 0.845468 0.039427
v 0.644417 0.807442 0.050657
v 0.662046 0.828136 0.078811
v 0.706873 1.001152 0.054729
v 0.696083 1.028665 0.046757
v 0.725257 0.997005 0.048666
v 0.717238 1.041349 0.063091
v 0.716524 1.053715 0.023752
v 0.697891 1.017922 0.010867
v 0.728895 1.014532 0.012776
v 0.734684 1.020471 0.059420
v 0.855424 1.126344 0.057708
v 0.845365 1.142588 0.038285
v 0.862147 1.119720 0.035025
v 0.746976 0.752439 0.049333
v 0.748089 0.736537 0.070642
v 0.760023 0.751295 0.092803
v 0.754268 0.779312 0.053175
v 0.771337 0.777953 0.085104
v 0.831185 0.766006 0.011003
v 0.845383 0.768690 0.043973
v 0.808231 0.783727 0.015694
v 0.813980 0.802027 0.036255
v 0.833164 0.792408 0.052627
v 0.922967 0.874055 -0.062849
v 0.919828 0.889202 -0.048765
v 0.729671 1.012879 0.157745
v 0.743520 1.033455 0.143551
v 0.758473 1.018615 0.137607
v 0.754840 1.000236 0.145724
v 0.815747 1.018785 0.215036
v 0.814785 1.035686 0.212300
v 0.824079 1.028881 0.201739
v 0.460806 0.754009 0.054184
v 0.463713 0.737671 0.065197
v 0.475698 0.723854 0.029640
v 0.469662 0.745221 0.026152
v 0.295828 0.667367 0.050073
v 0.324808 0.620747 -0.003991
v -0.340880 0.674667 0.027145
v -0.350847 0.665807 0.057548
v -0.357961 0.637052 0.053957
v -0.507402 0.708932 -0.000964
v -0.355327 0.619051 0.006044
v -0.506634 0.700173 -0.023172
v -0.334369 0.660785 -0.006971
v -0.501800 0.708463 -0.037290
v -0.666476 0.784201 -0.025448
v -0.655522 0.773957 -0.045985
v -0.655384 0.794606 -0.061780
v -0.648413 0.848138 -0.040821
v -0.656058 0.824668 -0.058041
v -0.656093 0.838151 -0.013020
v -0.677294 0.808463 -0.021788
v -0.691057 0.824620 -0.043768
v -0.742085 0.903131 -0.021071
v -0.744795 0.932560 -0.013100
v -0.756650 0.891172 -0.015009
v -0.769393 0.934397 -0.029434
v -0.774305 0.945767 0.009905
v -0.741588 0.922148 0.022790
v -0.767770 0.905200 0.020881
v -0.775608 0.907909 -0.025763
v -0.931028 0.948310 -0.024050
v -0.929332 0.967341 -0.004628
v -0.934062 0.939373 -0.001368
v -0.783788 0.752439 -0.015676
v -0.784901 0.736537 -0.036985
v -0.796834 0.751295 -0.059145
v -0.791080 0.779312 -0.019518
v -0.808148 0.777953 -0.051446
v -0.836181 0.726694 0.022654
v -0.842706 0.713802 -0.010316
v -0.846822 0.753670 0.017964
v -0.865999 0.753235 -0.002598
v -0.862092 0.732134 -0.018970
v -0.965486 0.668570 0.096507
v -0.979164 0.675796 0.082422
v -0.767721 0.903375 -0.124087
v -0.789333 0.915545 -0.109894
v -0.796033 0.895570 -0.103949
v -0.784536 0.880779 -0.112067
v -0.847288 0.870011 -0.181379
v -0.854015 0.885544 -0.178643
v -0.859266 0.875292 -0.168082
v -0.490365 0.744111 0.019844
v -0.501067 0.725600 0.015439
v -0.481225 0.748943 -0.000253
v -0.483334 0.735120 -0.036077
v -0.347912 0.637553 -0.012655
v -0.361994 0.614698 0.034225
vn 0.1639 -0.9470 -0.2762
vn 0.5104 -0.0000 -0.8599
vn 0.2661 0.8533 -0.4483
vn 0.4189 -0.5713 -0.7058
vn 0.4189 0.5713 -0.7058
vn 0.8262 -0.5633 -0.0000
vn 0.8262 0.5633 -0.0000
vn 0.3272 -0.9450 -0.0000
vn 1.0000 -0.0000 -0.0000
vn 0.4189 -0.5713 0.7058
vn 0.4189 0.5713 0.7058
vn 0.1639 -0.9470 0.2762
vn 0.5104 -0.0000 0.8599
vn -0.4189 -0.5713 0.7058
vn -0.4189 0.5713 0.7058
vn -0.1639 -0.9470 0.2762
vn -0.5104 -0.0000 0.8599
vn -0.8262 -0.5633 -0.0000
vn -0.8262 0.5633 -0.0000
vn -0.3272 -0.9450 -0.0000
vn -1.0000 -0.0000 -0.0000
vn -0.4189 -0.5713 -0.7058
vn -0.4189 0.5713 -0.7058
vn -0.1639 -0.9470 -0.2762
vn -0.5104 -0.0000 -0.8599
vn -0.2661 0.8533 0.4483
vn 0.2661 0.8533 0.4483
vn 0.1639 0.9470 -0.2762
vn 0.4548 -0.4538 -0.7663
vn 0.8948 -0.4464 -0.0000
vn -0.2661 0.8533 -0.4483
vn 0.3272 0.9450 -0.0000
vn 0.4548 -0.4538 0.7663
vn 0.1639 0.9470 0.2762
vn -0.4548 -0.4538 0.7663
vn -0.1639 0.9470 0.2762
vn -0.8948 -0.4464 -0.0000
vn -0.5292 0.8485 -0.0000
vn -0.3272 0.9450 -0.0000
vn -0.4548 -0.4538 -0.7663
vn 0.5292 0.8485 -0.0000
vn -0.1639 0.9470 -0.2762
vn 0.8547 0.4934 0.1615
vn -0.0000 -0.9869 0.1615
vn -0.8547 0.4934 0.1615
vn -0.0000 -0.0000 -1.0000
vn -0.1526 0.9328 0.3265
vn 0.4500 -0.8929 0.0136
vn -0.6300 0.7375 0.2433
vn 0.0963 -0.0938 0.9909
vn 0.6222 -0.7265 -0.2917
vn -0.1879 0.4178 -0.8889
vn -0.4523 0.7559 -0.4734
vn -0.1401 0.7732 0.6184
vn 0.8174 -0.5755 0.0260
vn 0.1424 -0.9517 -0.2719
vn -0.4285 0.7311 -0.5309
vn -0.3892 -0.2711 -0.8803
vn 0.6704 -0.4067 -0.6207
vn -0.9256 -0.2940 0.2383
vn -0.5560 0.1019 0.8249
vn 0.2874 0.9002 -0.3271
vn -0.2297 -0.8707 0.4348
vn -0.1007 0.6814 -0.7250
vn 0.0882 -0.5894 0.8030
vn -0.5813 0.8134 0.0207
vn -0.2970 0.2154 0.9303
vn 0.1780 -0.5948 0.7839
vn 0.4406 -0.8851 -0.1498
vn 0.2683 -0.3524 -0.8966
vn 0.1854 -0.1375 -0.9730
vn -0.4269 0.4444 0.7876
vn 0.9044 -0.3876 -0.1784
vn -0.0174 -0.0083 -0.9998
vn -0.3178 0.3466 0.8825
vn 0.0755 -0.2037 -0.9761
vn 0.3613 0.0361 0.9318
vn -0.8801 0.3895 -0.2716
vn -0.3011 -0.9418 0.1492
vn -0.3536 0.6193 0.7011
vn 0.9291 -0.2473 -0.2750
vn 0.9091 -0.3051 -0.2838
vn -0.8398 0.5070 -0.1941
vn 0.5857 -0.6255 0.5155
vn 0.8090 0.5838 0.0693
vn 0.0535 0.1481 -0.9875
vn 0.4848 -0.0079 0.8746
vn -0.5683 0.7820 0.2561
vn 0.3804 -0.8511 0.3619
vn 0.1185 0.1655 0.9791
vn -0.1131 -0.6966 0.7085
vn -0.2032 -0.8106 -0.5492
vn 0.2758 0.6852 0.6741
vn -0.7380 0.5124 -0.4391
vn -0.4809 -0.0011 -0.8768
vn -0.6679 0.6840 0.2935
vn 0.7036 0.1061 0.7027
vn 0.5435 -0.7967 -0.2643
vn 0.7040 0.6870 -0.1800
vn 0.7867 0.1420 0.6008
vn -0.5111 0.6939 0.5073
vn 0.4520 0.6845 -0.5720
vn 0.3163 0.8345 -0.4512
vn -0.3128 0.5592 0.7678
vn 0.3078 -0.0088 -0.9514
vn 0.4733 -0.4446 -0.7605
vn -0.4019 0.8900 0.2153
vn -0.1423 -0.0347 0.9892
vn -0.5398 0.8099 -0.2295
vn -0.5088 -0.8609 0.0002
vn 0.2319 0.9418 -0.2433
vn -0.0439 -0.1270 -0.9909
vn -0.2298 -0.9285 0.2917
vn -0.0196 0.4577 0.8889
vn 0.3760 0.8485 0.3723
vn -0.7038 0.3495 -0.6184
vn 0.3256 -0.9452 -0.0260
vn 0.5378 -0.7737 0.3348
vn -0.2721 0.9334 0.2340
vn 0.3686 0.2985 0.8803
vn -0.4165 -0.6643 0.6207
vn 0.9591 0.1528 -0.2383
vn 0.4511 0.3407 -0.8249
vn -0.6609 0.6754 0.3271
vn 0.5961 -0.6749 -0.4348
vn 0.3944 0.8296 0.3952
vn -0.2352 -0.7080 -0.6658
vn 0.1598 0.0360 -0.9865
vn -0.2484 -0.6752 -0.6945
vn -0.4527 -0.8542 0.2556
vn -0.3598 -0.4422 0.8216
vn -0.2486 -0.0988 0.9636
vn 0.4781 0.6747 -0.5623
vn -0.7213 -0.6926 0.0075
vn 0.0467 0.0201 0.9987
vn 0.0589 0.4247 -0.9034
vn 0.0974 -0.3151 0.9441
vn -0.3832 0.0179 -0.9235
vn 0.7034 0.6611 0.2611
vn 0.6919 -0.7064 -0.1492
vn 0.0379 0.7121 -0.7011
vn -0.7192 -0.6380 0.2750
vn -0.6754 -0.6807 0.2838
vn 0.5228 0.8301 0.1941
vn -0.2426 -0.8218 -0.5155
vn -0.9849 0.1585 -0.0693
vn -0.1142 0.1083 0.9875
vn -0.4302 -0.3115 -0.8473
vn 0.1568 0.9539 -0.2561
vn 0.0563 -0.8168 -0.5742
vn -0.0859 0.1795 -0.9800
vn 0.1762 -0.6919 -0.7002
vn 0.2635 -0.7890 0.5550
vn -0.2545 0.7409 -0.6216
vn -0.2871 0.8513 0.4391
vn 0.4556 0.2853 0.8432
vn 0.2897 0.9110 -0.2935
vn -0.2975 -0.6463 -0.7027
vn -0.1280 -0.9559 0.2644
vn -0.9375 0.2978 0.1800
vn -0.7667 -0.2262 -0.6008
vn 0.1452 0.8495 -0.5073
vn -0.7112 0.4088 0.5720
vn -0.2937 0.8656 0.4056
vn -0.2890 -0.0528 0.9559
vn -0.5023 -0.5119 0.6969
vn 0.4816 0.8248 -0.2964
vn 0.1832 0.0183 -0.9829
vt 0.859821 0.031095
vt 0.859821 0.042399
vt 0.892470 0.042399
vt 0.817987 0.071994
vt 0.817987 0.108574
vt 0.820971 0.108574
vt 0.820971 0.071994
vt 0.817960 0.143030
vt 0.819204 0.143030
vt 0.819831 0.138168
vt 0.817987 0.138168
vt 0.817987 0.042399
vt 0.819831 0.042399
vt 0.912648 0.071994
vt 0.912648 0.108574
vt 0.892470 0.138168
vt 0.912648 0.108574
vt 0.859821 0.071994
vt 0.859821 0.138168
vt 0.859821 0.108574
vt 0.806993 0.071994
vt 0.827172 0.042399
vt 0.827172 0.138168
vt 0.806993 0.108574
vt 0.806993 0.108574
vt 0.816143 0.042399
vt 0.815004 0.071994
vt 0.815004 0.108574
vt 0.816143 0.138168
vt 0.859332 0.143030
vt 0.837301 0.143030
vt 0.881364 0.143030
vt 0.817960 0.160283
vt 0.817960 0.181609
vt 0.819973 0.181609
vt 0.819973 0.160283
vt 0.859332 0.198861
vt 0.859332 0.205451
vt 0.881364 0.198861
vt 0.817960 0.198861
vt 0.819204 0.198861
vt 0.894981 0.160283
vt 0.894981 0.160283
vt 0.894981 0.181609
vt 0.894981 0.181609
vt 0.816715 0.143030
vt 0.859332 0.160283
vt 0.859332 0.181609
vt 0.823684 0.160283
vt 0.837301 0.198861
vt 0.823684 0.181609
vt 0.823684 0.160283
vt 0.823684 0.181609
vt 0.815946 0.160283
vt 0.815946 0.181609
vt 0.816715 0.198861
vt 0.674558 0.166352
vt 0.722054 0.150802
vt 0.674558 0.143027
vt 0.867552 0.488804
vt 0.868527 0.490724
vt 0.875547 0.492130
vt 0.874059 0.489742
vt 0.828182 0.478540
vt 0.829290 0.475175
vt 0.836909 0.479693
vt 0.836428 0.481190
vt 0.882042 0.460728
vt 0.884891 0.461724
vt 0.885064 0.458935
vt 0.884977 0.463980
vt 0.903069 0.462362
vt 0.883744 0.462679
vt 0.903072 0.462210
vt 0.882654 0.465010
vt 0.903120 0.460307
vt 0.881319 0.460378
vt 0.838949 0.473348
vt 0.859971 0.474017
vt 0.859789 0.474019
vt 0.845559 0.473179
vt 0.889034 0.484783
vt 0.888572 0.485329
vt 0.875102 0.494060
vt 0.873009 0.492442
vt 0.864567 0.492371
vt 0.865094 0.490129
vt 0.872491 0.489669
vt 0.887567 0.469349
vt 0.894389 0.475418
vt 0.885826 0.470482
vt 0.881296 0.463846
vt 0.885042 0.469031
vt 0.893438 0.476067
vt 0.894216 0.474802
vt 0.887319 0.467851
vt 0.830519 0.472291
vt 0.830703 0.470698
vt 0.828716 0.476982
vt 0.845546 0.473153
vt 0.858183 0.478994
vt 0.843889 0.477231
vt 0.856266 0.481553
vt 0.854594 0.482528
vt 0.856337 0.481398
vt 0.859541 0.479335
vt 0.844184 0.477223
vt 0.862306 0.479970
vt 0.866458 0.492993
vt 0.830371 0.472243
vt 0.829249 0.475426
vt 0.843002 0.467180
vt 0.842377 0.465842
vt 0.837596 0.464717
vt 0.838561 0.466388
vt 0.869764 0.475120
vt 0.868928 0.477402
vt 0.861740 0.474875
vt 0.863704 0.473452
vt 0.832423 0.486102
vt 0.830493 0.485353
vt 0.830310 0.487262
vt 0.830485 0.483805
vt 0.818042 0.484500
vt 0.831301 0.484725
vt 0.818036 0.484604
vt 0.832101 0.483151
vt 0.817959 0.485908
vt 0.832911 0.486358
vt 0.859018 0.478528
vt 0.858802 0.478498
vt 0.868019 0.479352
vt 0.868066 0.479369
vt 0.828179 0.469446
vt 0.828509 0.469083
vt 0.837945 0.463403
vt 0.839343 0.464561
vt 0.845130 0.464803
vt 0.844718 0.466328
vt 0.839635 0.466474
vt 0.828831 0.480063
vt 0.824293 0.475745
vt 0.830051 0.479326
vt 0.833006 0.483980
vt 0.830556 0.480339
vt 0.824960 0.475323
vt 0.824397 0.476172
vt 0.828967 0.481096
vt 0.847862 0.477494
vt 0.847987 0.477496
vt 0.869321 0.476285
vt 0.863806 0.474130
vt 0.849202 0.474122
vt 0.859875 0.475801
vt 0.850576 0.472411
vt 0.851744 0.471781
vt 0.850523 0.472516
vt 0.848279 0.473857
vt 0.859169 0.476517
vt 0.846398 0.473358
vt 0.843848 0.464333
vt 0.868961 0.477231
s 0
usemtl Winter_Pack_Texture
f 16/1/1 3/2/1 7/3/1
f 2/4/2 25/5/2 5/6/2 6/7/2
f 28/8/3 32/9/3 4/10/3 1/11/3
f 3/12/4 2/4/4 6/7/4 7/13/4
f 25/5/5 1/11/5 4/10/5 5/6/5
f 7/3/6 6/14/6 10/14/6 11/3/6
f 5/15/7 4/16/7 8/16/7 9/17/7
f 16/1/8 7/3/8 11/3/8
f 6/14/9 5/15/9 9/17/9 10/14/9
f 11/3/10 10/14/10 14/18/10 15/2/10
f 9/17/11 8/16/11 12/19/11 13/20/11
f 16/1/12 11/3/12 15/2/12
f 10/14/13 9/17/13 13/20/13 14/18/13
f 15/2/14 14/18/14 19/21/14 20/22/14
f 13/20/15 12/19/15 17/23/15 18/24/15
f 16/1/16 15/2/16 20/22/16
f 14/18/17 13/20/17 18/24/17 19/21/17
f 20/22/18 19/21/18 23/21/18 24/22/18
f 18/24/19 17/23/19 21/23/19 22/25/19
f 16/1/20 20/22/20 24/22/20
f 19/21/21 18/24/21 22/25/21 23/21/21
f 24/26/22 23/27/22 2/4/22 3/12/22
f 22/28/23 21/29/23 1/11/23 25/5/23
f 16/1/24 24/22/24 3/2/24
f 23/27/25 22/28/25 25/5/25 2/4/25
f 40/30/26 45/31/26 17/23/26 12/19/26
f 36/32/27 40/30/27 12/19/27 8/16/27
f 27/33/2 50/34/2 30/35/2 31/36/2
f 26/37/28 41/38/28 29/39/28
f 28/8/29 27/33/29 31/36/29 32/9/29
f 50/34/5 26/40/5 29/41/5 30/35/5
f 32/32/30 31/42/30 35/43/30 36/32/30
f 30/44/7 29/39/7 33/39/7 34/45/7
f 49/46/31 28/8/31 1/11/31 21/29/31
f 31/42/9 30/44/9 34/45/9 35/43/9
f 29/39/32 41/38/32 33/39/32
f 36/32/33 35/43/33 39/47/33 40/30/33
f 34/45/11 33/39/11 37/37/11 38/48/11
f 35/43/13 34/45/13 38/48/13 39/47/13
f 33/39/34 41/38/34 37/37/34
f 40/30/35 39/47/35 44/49/35 45/31/35
f 38/48/15 37/37/15 42/50/15 43/51/15
f 39/47/17 38/48/17 43/51/17 44/49/17
f 37/37/36 41/38/36 42/50/36
f 45/31/37 44/49/37 48/52/37 49/31/37
f 43/51/19 42/50/19 46/50/19 47/53/19
f 45/31/38 49/31/38 21/23/38 17/23/38
f 44/49/21 43/51/21 47/53/21 48/52/21
f 42/50/39 41/38/39 46/50/39
f 49/46/40 48/54/40 27/33/40 28/8/40
f 47/55/23 46/56/23 26/40/23 50/34/23
f 32/32/41 36/32/41 8/16/41 4/16/41
f 48/54/25 47/55/25 50/34/25 27/33/25
f 46/50/42 41/38/42 26/37/42
f 51/57/43 52/58/43 53/59/43
f 53/59/44 52/58/44 54/59/44
f 54/59/45 52/58/45 51/57/45
f 51/57/46 53/59/46 54/59/46
f 87/60/47 88/61/47 93/62/47 92/63/47
f 61/64/48 108/65/48 60/66/48 62/67/48
f 74/68/49 76/69/49 77/70/49
f 80/71/50 81/72/50 76/69/50
f 79/73/51 83/74/51 75/75/51
f 77/70/52 82/76/52 78/77/52
f 57/78/53 68/79/53 70/80/53 106/81/53
f 93/62/54 95/82/54 92/63/54
f 94/83/55 95/82/55 90/84/55 89/85/55
f 89/85/56 90/84/56 85/86/56 84/87/56
f 87/60/57 92/63/57 91/88/57
f 91/88/58 94/83/58 89/85/58
f 98/89/59 102/90/59 99/91/59
f 73/92/60 96/93/60 74/68/60
f 96/93/61 100/94/61 101/95/61
f 97/96/62 101/95/62 102/90/62
f 99/91/63 100/94/63 96/93/63
f 106/81/64 58/97/64 56/98/64 57/78/64
f 63/99/65 61/64/65 62/67/65 64/66/65
f 57/78/66 103/100/66 68/79/66
f 69/101/67 104/102/67 64/66/67 67/103/67
f 66/104/68 67/103/68 64/66/68 62/67/68
f 66/104/69 62/67/69 60/66/69 65/105/69
f 71/106/70 65/105/70 60/66/70 105/107/70
f 71/106/71 105/107/71 106/81/71 70/80/71
f 69/101/72 68/79/72 103/100/72 104/102/72
f 79/73/73 75/75/73 72/108/73 71/106/73
f 84/87/74 65/105/74 71/106/74 87/60/74
f 73/92/75 74/68/75 68/79/75 69/101/75
f 79/73/76 71/106/76 70/80/76 78/77/76
f 73/92/77 69/101/77 72/108/77 75/75/77
f 74/68/78 78/77/78 70/80/78 68/79/78
f 99/91/79 96/93/79 73/92/79 75/75/79
f 76/69/80 81/72/80 82/76/80
f 75/75/81 80/71/81 99/91/81
f 80/71/82 98/89/82 99/91/82
f 78/77/83 74/68/83 77/70/83
f 83/74/84 81/72/84 80/71/84 75/75/84
f 81/72/85 83/74/85 82/76/85
f 83/74/86 79/73/86 78/77/86 82/76/86
f 90/84/87 93/62/87 88/61/87 86/109/87
f 77/70/88 76/69/88 82/76/88
f 86/109/89 85/86/89 90/84/89
f 86/109/90 88/61/90 69/101/90 67/103/90
f 86/109/91 67/103/91 66/104/91 85/86/91
f 85/86/92 66/104/92 65/105/92 84/87/92
f 72/108/93 69/101/93 88/61/93
f 95/82/94 94/83/94 91/88/94 92/63/94
f 91/88/95 89/85/95 84/87/95 87/60/95
f 96/93/96 97/96/96 76/69/96 74/68/96
f 93/62/97 90/84/97 95/82/97
f 99/91/98 102/90/98 100/94/98
f 97/96/99 98/89/99 80/71/99 76/69/99
f 100/94/100 102/90/100 101/95/100
f 97/96/101 96/93/101 101/95/101
f 98/89/102 97/96/102 102/90/102
f 87/60/103 71/106/103 72/108/103 88/61/103
f 104/102/104 103/100/104 55/110/104 107/111/104
f 106/81/105 105/107/105 59/65/105 58/97/105
f 59/65/106 105/107/106 60/66/106 108/65/106
f 103/100/107 57/78/107 56/98/107 55/110/107
f 104/102/108 107/111/108 63/99/108 64/66/108
f 139/112/109 140/113/109 145/114/109 144/115/109
f 113/116/110 160/117/110 112/118/110 114/119/110
f 126/120/111 128/121/111 129/122/111
f 132/123/112 133/124/112 128/121/112
f 131/125/113 135/126/113 127/127/113
f 129/122/114 134/128/114 130/129/114
f 157/130/115 155/131/115 110/132/115 109/133/115
f 145/114/116 147/134/116 144/115/116
f 146/135/117 147/134/117 142/136/117 141/137/117
f 141/137/118 142/136/118 137/138/118 136/139/118
f 139/112/119 144/115/119 143/140/119
f 143/140/120 146/135/120 141/137/120
f 150/141/121 154/142/121 151/143/121
f 125/144/122 148/145/122 126/120/122
f 148/145/123 152/146/123 153/147/123
f 149/148/124 153/147/124 154/142/124
f 151/143/125 152/146/125 148/145/125
f 155/131/126 157/130/126 120/149/126 122/150/126
f 159/151/127 113/116/127 114/119/127 116/152/127
f 121/153/128 158/154/128 116/152/128 119/155/128
f 118/156/129 119/155/129 116/152/129 114/119/129
f 118/156/130 114/119/130 112/118/130 117/157/130
f 123/158/131 117/157/131 112/118/131 156/159/131
f 123/158/132 156/159/132 155/131/132 122/150/132
f 121/153/133 120/149/133 157/130/133 158/154/133
f 131/125/134 127/127/134 124/160/134 123/158/134
f 136/139/135 117/157/135 123/158/135 139/112/135
f 125/144/136 126/120/136 120/149/136 121/153/136
f 131/125/137 123/158/137 122/150/137 130/129/137
f 125/144/138 121/153/138 124/160/138 127/127/138
f 126/120/139 130/129/139 122/150/139 120/149/139
f 151/143/140 148/145/140 125/144/140 127/127/140
f 128/121/141 133/124/141 134/128/141
f 127/127/142 132/123/142 151/143/142
f 132/123/143 150/141/143 151/143/143
f 130/129/144 126/120/144 129/122/144
f 135/126/145 133/124/145 132/123/145 127/127/145
f 133/124/146 135/126/146 134/128/146
f 135/126/147 131/125/147 130/129/147 134/128/147
f 142/136/148 145/114/148 140/113/148 138/161/148
f 129/122/149 128/121/149 134/128/149
f 138/161/150 137/138/150 142/136/150
f 138/161/151 140/113/151 121/153/151 119/155/151
f 138/161/152 119/155/152 118/156/152 137/138/152
f 137/138/153 118/156/153 117/157/153 136/139/153
f 124/160/154 121/153/154 140/113/154
f 147/134/155 146/135/155 143/140/155 144/115/155
f 143/140/156 141/137/156 136/139/156 139/112/156
f 148/145/157 149/148/157 128/121/157 126/120/157
f 145/114/158 142/136/158 147/134/158
f 151/143/159 154/142/159 152/146/159
f 149/148/160 150/141/160 132/123/160 128/121/160
f 152/146/161 154/142/161 153/147/161
f 149/148/162 148/145/162 153/147/162
f 150/141/163 149/148/163 154/142/163
f 139/112/164 123/158/164 124/160/164 140/113/164
f 155/131/165 156/159/165 111/117/165 110/132/165
f 112/118/166 160/117/166 111/117/166 156/159/166
f 158/154/167 157/130/167 109/133/167 115/162/167
f 116/152/168 158/154/168 115/162/168 159/151/168
