# Blender 5.0.0
# www.blender.org
mtllib Star.mtl
o Star
v 0.103402 0.144351 -0.024710
v 0.103402 0.144351 0.024709
v 0.167307 -0.052329 -0.024710
v 0.167308 -0.052329 0.024709
v -0.167303 -0.052329 -0.024710
v -0.167303 -0.052329 0.024710
v -0.103399 0.144351 -0.024710
v -0.103399 0.144351 0.024709
v 0.000001 0.353863 -0.000000
v 0.334612 0.110754 -0.000001
v 0.206802 -0.282604 -0.000000
v -0.206799 -0.282604 -0.000000
v -0.334610 0.110754 -0.000000
v 0.000001 0.002032 0.059893
v 0.000001 0.002032 -0.059893
v 0.000001 -0.191158 -0.020784
v 0.000001 -0.191158 0.020783
vn 0.0108 -0.1984 -0.9801
vn 0.1908 -0.0472 -0.9805
vn 0.1822 -0.0740 0.9805
vn -0.1822 -0.0740 -0.9805
vn -0.1908 -0.0472 -0.9805
vn -0.1266 0.1504 0.9805
vn 0.1266 0.1504 0.9805
vn 0.8967 0.4426 -0.0000
vn -0.8967 0.4426 -0.0000
vn 0.1266 0.1504 -0.9805
vn 0.0108 -0.1984 0.9801
vn 0.1438 0.9896 -0.0000
vn 0.6980 -0.7161 -0.0000
vn 0.1822 -0.0740 -0.9805
vn 0.1908 -0.0472 0.9805
vn 0.9856 0.1690 -0.0000
vn -0.1822 -0.0740 0.9805
vn -0.9856 0.1690 -0.0000
vn -0.1908 -0.0472 0.9805
vn -0.6980 -0.7161 -0.0000
vn -0.1438 0.9896 -0.0000
vn -0.1039 0.1669 0.9805
vn -0.1266 0.1504 -0.9805
vn -0.1039 0.1669 -0.9805
vn -0.0108 -0.1984 -0.9801
vn 0.4044 -0.9146 -0.0000
vn -0.4044 -0.9146 -0.0000
vn -0.0108 -0.1984 0.9801
vn 0.1039 0.1669 0.9805
vn 0.1039 0.1669 -0.9805
vt 0.431973 0.809874
vt 0.431973 0.824101
vt 0.447202 0.803140
vt 0.444293 0.820098
vt 0.456614 0.832108
vt 0.419652 0.820098
vt 0.416744 0.803140
vt 0.407331 0.832108
vt 0.424358 0.834582
vt 0.439587 0.834582
vt 0.431973 0.850011
vt 0.434393 0.809874
vt 0.429553 0.809874
s 0
usemtl Winter_Pack_Texture
f 16/1/1 15/2/1 11/3/1
f 3/4/2 15/2/2 10/5/2
f 4/4/3 14/2/3 11/3/3
f 5/6/4 15/2/4 12/7/4
f 13/8/5 15/2/5 5/6/5
f 13/8/6 14/2/6 8/9/6
f 2/10/7 14/2/7 10/5/7
f 9/11/8 2/10/8 1/10/8
f 7/9/9 8/9/9 9/11/9
f 10/5/10 15/2/10 1/10/10
f 17/12/11 11/3/11 14/2/11
f 1/10/12 2/10/12 10/5/12
f 10/5/13 4/4/13 3/4/13
f 11/3/14 15/2/14 3/4/14
f 10/5/15 14/2/15 4/4/15
f 3/4/16 4/4/16 11/3/16
f 12/7/17 14/2/17 6/6/17
f 12/7/18 6/6/18 5/6/18
f 6/6/19 14/2/19 13/8/19
f 5/6/20 6/6/20 13/8/20
f 13/8/21 8/9/21 7/9/21
f 8/9/22 14/2/22 9/11/22
f 7/9/23 15/2/23 13/8/23
f 9/11/24 15/2/24 7/9/24
f 16/13/25 12/7/25 15/2/25
f 16/13/26 17/13/26 12/7/26
f 11/3/27 17/12/27 16/12/27
f 17/1/28 14/2/28 12/7/28
f 9/11/29 14/2/29 2/10/29
f 1/10/30 15/2/30 9/11/30
