# Blender 5.0.0
# www.blender.org
mtllib Tree_birch.mtl
o Tree_birch
v -0.000000 -0.208976 -0.764799
v -0.000000 1.320622 -0.582953
v 0.727367 -0.208976 -0.236336
v 0.532541 1.166409 -0.180143
v 0.449538 -0.208976 0.618735
v 0.329129 1.225313 0.471618
v -0.449537 -0.208976 0.618736
v -0.329128 1.415931 0.471618
v -0.727367 -0.208976 -0.236335
v -0.532541 1.474834 -0.180142
v 0.579692 2.082312 -0.122908
v 0.205102 2.039217 -0.397736
v 0.445014 2.091760 0.329751
v -0.024005 1.984410 0.323576
v -0.164544 1.951568 -0.119199
v 0.319070 2.637958 -0.080100
v 0.074501 2.670583 -0.258646
v 0.225507 2.652438 0.209799
v -0.068728 2.643733 0.216542
v -0.160179 2.641780 -0.071566
v 1.607464 2.869342 0.341732
v 1.342123 3.777143 0.145108
v 2.109346 3.773835 0.727005
v 2.031204 3.427119 1.060230
v 1.571666 2.397507 1.096832
v 0.423268 2.877926 0.570400
v 1.332621 3.912621 1.852009
v -0.926662 3.008076 1.527744
v -0.721275 4.114437 0.677358
v 1.999091 3.274379 0.617361
v 1.640164 3.264386 0.148169
v 1.879419 3.894172 0.381074
v 1.556614 2.419866 0.531124
v 1.051732 2.270780 0.511498
v 0.439308 4.300624 0.306398
v -0.329500 3.455009 0.766608
v 1.383356 4.274239 0.928634
v 0.172838 4.348437 1.205861
v 1.728036 3.589404 1.615128
v 1.860183 3.942118 1.168326
v 0.831362 2.680206 1.740235
v 1.285180 3.186180 1.843591
v -0.278526 2.391805 0.496162
v 0.622980 2.300672 1.126780
v 0.386344 4.395210 1.626413
v 0.734895 3.537388 2.131996
v -1.274766 3.408827 0.909034
v -1.205036 3.631947 1.451089
v -0.549707 4.205418 1.786550
v -0.317985 3.200026 2.034724
v -0.616196 2.247906 0.179327
v -0.082415 2.774135 0.781761
v -1.548430 2.629579 0.940669
v -0.338984 3.107813 -0.376109
v -0.663075 4.111248 1.401874
v -1.663741 4.401678 0.482429
v -1.450852 4.399764 -0.560250
v -0.728991 4.959580 0.746551
v -1.093119 2.627515 1.130324
v -0.620230 2.722078 1.108766
v -0.014718 2.914741 0.058941
v -0.491008 2.495206 -0.273323
v -1.441897 2.479112 0.544641
v -1.400347 2.800619 -0.371148
v -1.038980 2.936057 -0.605246
v -0.831906 3.202400 1.328407
v -0.472496 3.622360 1.113919
v -1.741013 3.200234 0.968064
v -1.354126 3.061557 1.257721
v -2.026754 3.521386 -0.254349
v -1.263316 3.661665 -0.918005
v -1.728353 3.514873 -0.800872
v -0.471464 4.295523 0.890970
v -1.555574 4.672726 -0.144235
v -0.566113 4.796365 -0.197319
v -0.797290 4.557083 0.993704
v -0.973333 4.020723 1.296018
v -1.088919 5.076261 0.562981
v -0.564498 5.184003 0.319721
v 1.754202 5.187181 0.936323
v 1.363212 5.625753 1.063877
v 1.073204 4.080343 1.160372
v 1.439284 3.948038 0.271227
v 0.035319 4.058543 1.503818
v -0.543497 5.994943 0.526812
v -1.412435 4.674480 0.428214
v 1.560879 4.517461 1.247918
v 1.280717 4.905337 1.686147
v 0.987121 5.866318 0.142027
v 1.550703 5.259230 0.220758
v 1.223625 4.213078 1.503239
v 1.707221 4.489578 0.463778
v 1.294831 3.951394 0.692019
v 1.515545 4.726801 -0.004619
v 0.387232 6.035853 1.123692
v -0.378513 5.231380 1.304888
v 0.561190 3.938216 1.456299
v 1.149793 4.405306 1.783481
v 0.590841 3.962782 0.009600
v 1.009331 4.378522 -0.389893
v -1.195711 4.658911 0.939752
v -0.586456 4.779098 1.558953
v -0.230609 4.052293 0.933868
v -0.622308 5.944549 -0.263848
v -1.373735 5.152923 0.289227
v -0.850716 4.379014 0.955142
v -1.130342 4.345540 0.317739
v -1.333218 5.267309 -0.014148
v 0.004354 3.756624 -1.178707
v 1.018504 3.558620 -0.855671
v -1.171657 4.719117 -0.945698
v 0.904430 4.670584 -1.387908
v -1.122342 4.854583 0.369593
v -0.487863 6.080481 -0.539905
v 0.731006 3.659131 -1.115669
v 1.177644 4.219438 -1.184792
v 0.419428 4.228702 -1.490934
v -0.744059 4.032019 -1.264801
v -1.371610 3.980088 -0.665751
v -0.105084 4.636454 -1.553266
v 1.199997 4.303739 -0.370830
v 1.081252 5.095289 -0.839345
v -1.565240 5.269327 -0.161956
v -1.297700 3.999543 -0.160461
v -0.103622 5.509401 -1.367539
v -1.001164 5.714593 -0.942643
v -0.855757 5.842820 0.158074
v 0.449134 5.560640 -0.506300
v -0.516450 4.809413 0.451484
v -0.975666 2.636300 -0.053489
v -1.094056 2.897490 -0.177582
v -1.282351 2.650049 -1.273486
v -0.203641 2.170130 -1.425658
v -0.107140 3.119676 -0.371409
v 0.285551 4.003888 -1.131351
v -1.088197 2.473492 -0.803471
v -1.443466 2.874937 -0.486236
v -0.580345 3.261712 -0.567808
v -0.453435 2.709238 -0.316448
v -0.437325 2.294434 -0.607117
v -0.679451 2.168652 -1.356687
v -0.034428 2.509171 -0.932009
v -0.188716 3.794089 -0.523236
v -1.640286 3.653877 -0.954063
v -1.337804 3.708311 -0.533405
v -1.541214 3.072814 -1.675340
v -1.578314 2.922712 -1.034928
v -0.123183 2.829351 -1.831687
v -1.037778 2.959606 -1.845940
v 0.568645 3.279056 -0.540924
v 0.409929 2.767800 -1.399222
v -1.028874 4.305863 -0.670677
v -1.241934 3.597025 -1.866629
v -0.369990 4.025747 -1.756423
v -1.243715 4.249988 -0.829610
v -0.781239 4.494000 -1.023788
v -0.221517 4.584902 -0.924351
v 0.795710 2.205903 0.789567
v 0.016024 2.503915 0.403812
v 1.598299 2.584980 -1.177562
v 0.451100 3.989721 -1.716822
v 1.739632 3.897725 -0.355059
v 1.096557 1.924906 0.115063
v 1.491951 1.933005 0.078917
v 1.745884 2.166465 0.665729
v 1.794545 2.493148 -0.305632
v 1.244580 2.281813 -1.058422
v 0.028137 2.495881 -0.637871
v 0.210055 2.568573 -1.620644
v 0.849236 2.454779 -1.758329
v 1.748981 3.307191 0.563848
v 1.718793 3.459286 -1.028421
v 1.004837 2.645513 1.047976
v 1.209024 3.295557 1.020157
v -0.161407 2.867987 0.555921
v 0.375544 2.649090 0.888143
v -0.300688 3.066401 -1.268080
v -0.321898 3.052409 -0.053734
v 0.692729 3.258734 -2.188601
v 0.077594 3.059926 -2.028598
v 1.358050 3.905676 0.430396
v 0.217074 4.032768 -1.152593
v 1.173586 4.272141 -1.192517
v 0.965748 4.007116 0.493371
v 1.293547 4.220418 -0.071079
v 1.052797 4.377702 -0.484111
v 1.334978 3.845814 -0.039082
v 0.385718 5.122036 -1.116702
v 0.803597 5.994972 1.023744
v 0.088424 6.108328 -1.148888
v 1.262514 5.345152 -1.365367
v 1.461833 5.968498 -0.527664
v 1.381393 4.000246 0.422984
v 0.982097 4.239602 -0.570475
v 0.000977 5.246923 -0.803359
v 1.373805 4.352295 -0.646000
v 0.798119 5.201487 -1.364872
v 1.567639 4.672676 0.679779
v 1.588470 4.186737 0.110020
v 0.683815 5.642572 1.016693
v 1.229118 5.220659 0.968971
v -0.004275 5.609425 -1.304549
v -0.355756 5.707874 -0.865571
v 1.644087 4.835362 -0.483305
v 1.311828 5.752291 0.841451
v 0.165665 6.371919 0.757497
v 0.077897 6.290336 -0.503373
v 0.810376 5.752208 -1.391556
v 1.836416 5.124410 0.440145
v 1.396831 5.852879 -1.070579
v 1.023780 6.238266 0.407707
v 0.806185 6.340709 -0.182603
v -0.109816 6.239414 -0.339590
v 1.085996 5.701969 -0.050632
v 0.998654 6.140130 0.867465
v -0.138233 6.836461 0.364527
v 1.231046 6.369265 -0.595635
v 0.302379 8.099448 0.676690
v -0.466267 8.055754 -0.290818
v 0.237843 5.829359 -0.546280
v -0.269330 6.769436 -0.129039
v 0.581554 5.954356 0.607557
v 1.090200 5.890015 0.438399
v 0.500242 6.390787 0.871004
v -0.463985 7.103363 -0.624395
v -0.593661 7.450078 -0.033272
v 0.463806 6.315349 -0.788945
v 0.235564 7.435952 -0.810967
v 1.261580 5.871554 -0.366202
v 0.898294 5.805905 -0.618067
v 1.224465 6.876912 0.765735
v 1.359771 6.291467 -0.010147
v -0.214497 7.296011 0.922821
v 0.801781 6.884273 1.185698
v 0.594131 8.228330 -0.704893
v 0.671726 7.315986 -0.952567
v 1.319340 6.966005 -0.253363
v 0.950493 7.936789 0.389282
v -0.185418 8.428437 0.392516
v 0.282630 8.817359 -0.147550
v 0.556005 8.582761 -0.394554
v 0.732043 5.538889 0.900194
v -0.236763 5.560320 1.218359
v -0.748565 5.607015 0.952301
v -0.713160 5.836962 -0.290981
v -0.851332 6.699617 0.603032
v 0.064155 7.234894 0.847719
v -0.056420 5.433933 0.902011
v 0.267759 5.541106 1.177390
v 0.734670 5.772046 0.309620
v -0.479350 5.493598 0.592147
v -0.842751 5.644716 0.226520
v 0.897754 6.340760 0.777491
v 0.117402 6.051536 1.331454
v -0.771856 5.959139 1.196923
v -1.077605 6.186923 -0.184979
v -1.026559 6.048333 0.668705
v 0.445433 6.976711 0.961914
v 0.001610 7.038024 1.110349
v -0.666379 7.095326 -0.047114
v 0.415033 7.232772 0.734233
v -0.343841 7.152021 0.644983
v 0.169945 7.352574 0.497901
v -0.507913 7.129714 0.208275
v -0.720792 5.995204 0.292063
v 0.940200 5.864184 -0.489056
v -0.382969 5.416116 -0.950977
v 0.694528 5.258385 -1.126017
v 0.922808 6.419774 -1.069736
v -0.083815 6.547826 -1.282809
v -0.153087 7.034875 0.232260
v 0.039842 7.367074 0.201978
v 0.608977 6.734440 -0.212426
v -0.700480 6.687035 0.298696
v 0.561005 7.005812 -0.398992
v 1.055187 6.168705 -0.735793
v -0.660182 7.356429 -0.116072
v 0.181233 7.508971 -0.069922
v -0.982611 5.897459 0.308546
v -0.975318 6.647976 0.308013
v -0.756801 5.687521 -0.049036
v 1.023010 5.373156 -0.824240
v 0.273001 7.117875 -0.642090
v -1.186317 6.490122 0.106271
v -1.221648 5.900480 0.055259
v 0.079192 5.272625 -1.064276
v -0.459166 7.104781 -0.692017
v 0.539861 6.466762 -1.219594
v -1.045124 6.146180 -0.581505
v -0.445140 5.954651 -1.116927
v 0.320586 6.068048 -1.128704
vn 0.5994 0.1052 -0.7935
vn 0.9475 0.1159 0.2981
vn 0.0117 0.0957 0.9953
vn 0.6003 0.0259 -0.7994
vn -0.9468 0.0986 0.3062
vn -0.5842 0.0951 -0.8060
vn -0.0000 -1.0000 -0.0000
vn -0.6158 0.0523 -0.7862
vn 0.0091 0.1955 0.9807
vn -0.8006 0.5376 0.2644
vn 0.9524 -0.0731 0.2961
vn -0.5310 0.4076 -0.7429
vn -0.0019 0.9996 0.0268
vn -0.0262 0.1774 0.9838
vn 0.5597 0.3027 -0.7714
vn -0.9528 -0.0152 0.3032
vn 0.8809 0.3967 0.2580
vn 0.7505 -0.3399 -0.5668
vn 0.7467 -0.3283 -0.5786
vn 0.5512 0.8308 -0.0773
vn 0.0223 0.1194 -0.9926
vn 0.5689 0.8223 0.0076
vn 0.7050 -0.4770 0.5247
vn 0.1036 -0.8612 0.4976
vn -0.0660 0.2430 -0.9678
vn 0.0473 0.4976 0.8661
vn -0.8007 0.5831 -0.1370
vn -0.8922 -0.3655 0.2652
vn -0.5159 0.0913 0.8517
vn -0.5983 -0.1707 0.7829
vn -0.1544 0.2031 0.9669
vn 0.0547 0.5397 0.8401
vn -0.6703 0.7409 0.0429
vn -0.1561 0.2365 -0.9590
vn -0.7221 -0.6906 -0.0411
vn -0.2168 -0.7955 0.5658
vn -0.2168 -0.7979 0.5624
vn 0.0952 -0.5384 0.8373
vn 0.4618 -0.0047 0.8869
vn 0.4635 -0.0798 0.8825
vn 0.3682 0.8723 0.3217
vn 0.3805 0.8343 0.3990
vn -0.1999 0.9798 -0.0075
vn -0.2983 0.9444 -0.1386
vn -0.1749 0.9831 -0.0536
vn -0.3202 -0.8882 0.3294
vn -0.0904 -0.9958 -0.0146
vn 0.1046 -0.9871 0.1208
vn 0.1107 -0.2932 0.9496
vn 0.4293 -0.5338 0.7285
vn 0.7346 -0.3064 0.6054
vn 0.6992 0.4459 0.5588
vn 0.8829 0.2045 0.4226
vn 0.8837 0.2052 0.4207
vn -0.0955 0.7751 -0.6246
vn 0.0112 0.8855 -0.4646
vn 0.2845 -0.9576 -0.0454
vn 0.8890 -0.4561 -0.0417
vn 0.9117 -0.4043 0.0733
vn 0.9763 -0.2164 0.0038
vn 0.8222 -0.0572 -0.5664
vn 0.7927 -0.0775 -0.6047
vn 0.3566 0.2019 -0.9122
vn 0.7355 -0.6747 -0.0624
vn -0.1251 -0.9415 0.3131
vn -0.3845 -0.8654 -0.3213
vn -0.2229 -0.8282 -0.5141
vn 0.1161 -0.3703 0.9216
vn -0.7506 -0.6120 -0.2489
vn -0.0460 -0.3067 0.9507
vn -0.7255 -0.5674 -0.3894
vn 0.6393 0.6150 0.4616
vn -0.1510 0.8086 -0.5686
vn -0.1120 0.7952 -0.5959
vn -0.3232 0.8978 -0.2991
vn -0.7617 0.6321 0.1419
vn -0.2391 0.5361 0.8096
vn -0.5871 0.4174 0.6936
vn -0.2557 0.5370 0.8039
vn -0.4088 0.5462 0.7311
vn 0.1514 0.4620 -0.8739
vn -0.8094 0.3764 -0.4507
vn -0.8118 0.3750 -0.4477
vn -0.9256 0.3784 0.0039
vn -0.6419 0.3225 0.6957
vn -0.1382 0.0153 0.9903
vn -0.3183 -0.0175 0.9478
vn 0.9128 0.1272 0.3882
vn -0.3297 0.3426 -0.8797
vn -0.0953 -0.4187 -0.9031
vn -0.2749 -0.5852 -0.7629
vn -0.9491 0.1686 0.2661
vn -0.8979 -0.4294 0.0971
vn -0.9408 -0.3110 -0.1349
vn -0.5459 0.1841 0.8173
vn -0.6361 -0.2497 0.7301
vn -0.3452 -0.4494 0.8239
vn 0.3546 -0.2396 -0.9038
vn -0.1685 -0.7179 -0.6754
vn -0.1373 -0.9377 0.3193
vn 0.7041 -0.2839 -0.6508
vn 0.7159 -0.6767 -0.1717
vn 0.1950 -0.8733 0.4464
vn 0.3414 -0.8367 0.4283
vn 0.7239 0.6797 -0.1180
vn 0.9636 -0.1913 0.1866
vn 0.9587 0.1124 -0.2613
vn 0.3903 0.9172 0.0801
vn 0.3644 -0.9111 0.1929
vn -0.0179 -0.9998 0.0018
vn 0.1099 0.1177 0.9870
vn 0.1763 -0.7685 -0.6151
vn -0.5752 -0.5432 0.6116
vn -0.7156 0.6980 0.0268
vn -0.9923 0.0469 -0.1148
vn -0.6398 0.7434 0.1949
vn -0.6833 -0.3758 -0.6260
vn -0.4489 -0.8663 0.2190
vn -0.6182 -0.7488 0.2391
vn -0.5114 -0.5963 0.6189
vn -0.9027 0.1858 0.3881
vn -0.6638 0.4968 0.5590
vn -0.1719 -0.2217 0.9598
vn -0.0806 0.2107 0.9742
vn -0.6345 0.5792 0.5118
vn -0.6374 0.6858 0.3513
vn -0.4918 0.4672 0.7348
vn 0.6995 -0.2985 -0.6493
vn -0.0458 -0.5337 0.8444
vn 0.2727 -0.7584 0.5920
vn -0.0930 0.5198 0.8492
vn -0.0443 0.6559 0.7535
vn 0.9363 0.0826 -0.3413
vn 0.8451 -0.2501 -0.4725
vn 0.8154 -0.5044 0.2840
vn 0.8158 -0.5522 0.1719
vn 0.5485 -0.7027 0.4531
vn 0.6679 -0.7442 -0.0049
vn 0.7583 -0.4270 0.4926
vn 0.7346 0.6635 -0.1421
vn 0.7991 -0.0937 0.5938
vn 0.8446 0.0053 0.5353
vn 0.6794 0.4335 0.5920
vn -0.0837 -0.4975 -0.8634
vn 0.9719 -0.2352 -0.0023
vn -0.8761 0.0556 -0.4790
vn 0.1514 0.2055 -0.9669
vn -0.8395 0.1454 -0.5236
vn 0.4909 0.6052 -0.6267
vn -0.1128 0.2370 0.9650
vn 0.4396 0.8346 -0.3318
vn 0.4645 0.8149 -0.3466
vn -0.5696 0.8217 -0.0205
vn -0.6264 0.7794 -0.0081
vn -0.5914 0.3181 0.7410
vn -0.1001 0.7966 -0.5961
vn -0.3835 0.1928 -0.9032
vn -0.4881 0.0863 -0.8685
vn -0.8186 -0.1718 0.5480
vn -0.9676 -0.2037 0.1494
vn 0.9914 0.1249 -0.0402
vn 0.8274 0.2825 -0.4854
vn 0.1596 0.0546 -0.9857
vn -0.1303 -0.3115 -0.9413
vn -0.4866 0.1002 -0.8679
vn -0.6839 -0.0893 -0.7241
vn 0.3657 -0.1889 -0.9114
vn 0.3425 -0.3791 -0.8597
vn -0.0015 -0.5507 -0.8347
vn -0.3256 -0.9127 0.2470
vn 0.4438 -0.5026 0.7419
vn -0.9676 -0.1073 0.2285
vn -0.1219 -0.5097 -0.8517
vn 0.3253 -0.6183 0.7155
vn -0.3575 -0.7491 -0.5578
vn 0.5123 -0.4949 -0.7019
vn -0.6171 0.2551 0.7444
vn -0.6522 0.5441 -0.5279
vn -0.2800 0.7298 -0.6236
vn 0.5325 0.6555 -0.5355
vn -0.0370 0.8325 -0.5528
vn -0.5568 0.7025 -0.4433
vn -0.8766 0.4065 -0.2575
vn 0.6770 0.2203 -0.7023
vn 0.6322 0.1779 -0.7541
vn 0.1221 0.0069 -0.9925
vn -0.3460 -0.1409 -0.9276
vn -0.9943 -0.0759 -0.0754
vn -0.7372 0.4884 0.4669
vn 0.6835 -0.6757 0.2761
vn 0.6700 -0.6989 0.2503
vn 0.0252 0.0679 -0.9974
vn -0.0647 -0.5460 -0.8353
vn -0.5606 -0.6042 -0.5662
vn -0.7444 -0.6392 -0.1929
vn -0.8127 0.1351 0.5669
vn -0.6613 0.1257 0.7395
vn -0.3343 0.1683 0.9273
vn 0.6513 -0.4697 0.5960
vn 0.6950 -0.3943 0.6012
vn 0.6208 -0.7291 0.2880
vn 0.0259 -0.9872 0.1573
vn -0.3279 -0.9087 0.2584
vn -0.6264 -0.7787 -0.0337
vn -0.6764 -0.7366 0.0027
vn -0.2687 0.3471 0.8985
vn -0.6994 -0.7062 0.1104
vn -0.6157 -0.7458 0.2543
vn -0.6630 0.0542 0.7466
vn 0.8271 -0.5440 -0.1415
vn -0.3886 -0.9108 -0.1393
vn -0.0993 -0.9484 -0.3010
vn 0.9987 0.0018 0.0506
vn 0.0873 -0.5353 0.8401
vn -0.7486 -0.6365 -0.1856
vn 0.6186 -0.2737 -0.7365
vn 0.6432 0.0664 0.7628
vn -0.2266 -0.4112 0.8829
vn -0.8798 -0.4666 0.0905
vn -0.7667 -0.5197 -0.3769
vn 0.7482 0.0101 -0.6634
vn -0.2513 0.9516 -0.1768
vn 0.5759 0.8172 -0.0239
vn 0.5751 0.8178 -0.0238
vn -0.2399 0.9534 -0.1830
vn 0.2911 0.8267 0.4814
vn 0.6812 0.6563 0.3243
vn 0.8122 0.4770 -0.3357
vn 0.6803 0.3236 -0.6576
vn 0.3133 0.5859 -0.7474
vn -0.8119 0.4506 -0.3711
vn -0.7887 0.4699 -0.3963
vn 0.7441 0.5654 0.3558
vn -0.3535 0.4220 -0.8348
vn -0.0716 -0.4815 -0.8735
vn -0.2687 -0.6571 -0.7042
vn -0.8560 -0.5165 -0.0209
vn -0.8492 -0.5280 -0.0058
vn -0.5911 -0.5388 0.6003
vn -0.5247 -0.6258 0.5771
vn 0.4100 -0.0900 0.9076
vn 0.9997 -0.0161 -0.0205
vn 0.9975 0.0690 -0.0123
vn 0.9690 -0.0946 -0.2281
vn 0.4846 -0.7453 -0.4579
vn -0.2003 -0.9715 -0.1269
vn -0.4720 -0.8816 0.0013
vn -0.4272 -0.8863 0.1787
vn 0.5927 -0.7761 -0.2152
vn 0.7074 -0.6178 -0.3433
vn -0.0071 -0.9565 -0.2918
vn 0.0125 -0.9210 0.3893
vn 0.0512 -0.9354 0.3500
vn 0.0985 -0.7671 -0.6339
vn -0.5935 -0.6551 -0.4676
vn 0.8204 -0.4637 -0.3345
vn -0.3432 -0.5641 -0.7510
vn 0.5118 0.7207 0.4676
vn 0.2000 0.9439 -0.2629
vn 0.3924 0.3820 -0.8367
vn 0.1885 0.7846 -0.5906
vn 0.3828 0.8932 -0.2360
vn 0.1205 0.9017 -0.4152
vn 0.4831 0.8752 -0.0262
vn 0.3116 0.8405 0.4433
vn 0.7885 0.5811 0.2017
vn 0.7996 0.5870 0.1267
vn 0.9577 0.2359 -0.1649
vn 0.9673 0.1006 -0.2329
vn 0.9158 -0.0092 -0.4015
vn 0.0140 -0.0487 -0.9987
vn -0.0981 -0.0460 -0.9941
vn -0.1560 0.3205 -0.9343
vn -0.3350 0.0951 0.9374
vn 0.3983 0.1549 0.9041
vn 0.7032 0.0605 0.7084
vn 0.6326 0.0340 0.7737
vn 0.9685 -0.2080 -0.1366
vn 0.8671 -0.3746 -0.3282
vn 0.8110 -0.2809 -0.5132
vn -0.7002 0.3280 -0.6342
vn -0.6895 -0.5903 -0.4197
vn 0.0569 -0.0393 0.9976
vn 0.8780 -0.3479 0.3288
vn 0.8607 -0.3714 0.3482
vn 0.7666 -0.6282 0.1329
vn 0.1739 -0.5649 -0.8066
vn 0.0328 -0.6327 -0.7737
vn -0.3014 -0.6408 -0.7061
vn 0.9139 -0.2343 0.3316
vn -0.7137 -0.5855 0.3845
vn -0.0861 -0.3436 -0.9352
vn 0.8696 -0.4215 0.2573
vn 0.6990 -0.1168 0.7055
vn -0.8485 -0.4596 0.2624
vn 0.7678 0.2279 -0.5988
vn 0.9024 0.4164 -0.1110
vn 0.4320 0.6852 0.5864
vn -0.7004 0.7071 -0.0978
vn 0.1270 0.7495 0.6497
vn 0.7286 0.6613 0.1783
vn 0.8651 0.3799 -0.3275
vn 0.7692 0.2285 -0.5967
vn -0.1262 0.6458 -0.7530
vn -0.3828 0.5200 -0.7636
vn -0.9303 0.2908 0.2237
vn -0.8980 0.2053 0.3892
vn -0.2305 0.4175 0.8790
vn 0.4530 0.4964 0.7406
vn 0.6501 0.3980 0.6473
vn 0.9416 0.1627 0.2947
vn 0.9713 -0.0269 -0.2361
vn 0.9797 -0.0313 -0.1982
vn 0.3286 -0.1570 -0.9313
vn 0.1570 -0.1911 -0.9689
vn -0.2410 0.2351 -0.9416
vn -0.3717 0.2864 -0.8831
vn -0.3890 0.3037 -0.8697
vn -0.0994 0.3494 0.9317
vn -0.3608 -0.3347 0.8705
vn -0.2105 -0.4309 0.8775
vn 0.9694 0.2450 -0.0158
vn 0.9116 -0.2357 0.3368
vn 0.8918 -0.4249 0.1557
vn 0.5788 -0.3118 -0.7535
vn -0.3288 -0.0855 -0.9405
vn -0.5777 -0.1335 -0.8053
vn -0.6148 -0.1291 -0.7781
vn -0.9605 0.0900 -0.2635
vn -0.8979 -0.4362 0.0588
vn -0.8488 -0.4447 0.2858
vn -0.2629 -0.5340 0.8036
vn 0.0621 -0.8564 0.5125
vn 0.9737 -0.2134 -0.0799
vn 0.0677 -0.2700 0.9605
vn -0.6932 -0.6016 -0.3971
vn 0.5775 0.0056 0.8164
vn -0.1353 -0.1287 0.9824
vn -0.8748 -0.3141 0.3688
vn -0.2988 0.9282 0.2219
vn -0.3418 0.9361 0.0826
vn -0.6561 0.7130 0.2473
vn -0.3997 0.7766 0.4870
vn -0.5727 0.5896 0.5696
vn -0.5815 0.4701 0.6640
vn 0.2044 0.7593 0.6178
vn 0.3202 0.6504 0.6888
vn -0.9106 0.4133 -0.0075
vn -0.8474 0.2739 0.4549
vn -0.1666 0.1970 0.9661
vn 0.3377 0.2434 0.9092
vn 0.5377 0.1414 0.8312
vn -0.9581 0.2680 0.1008
vn -0.9145 -0.4044 -0.0110
vn -0.8672 -0.4903 0.0871
vn -0.4277 -0.5346 0.7289
vn 0.5093 -0.1077 0.8538
vn -0.3858 -0.9226 0.0021
vn -0.2316 -0.9640 0.1305
vn -0.2174 -0.9428 0.2527
vn -0.0055 -0.9297 0.3683
vn -0.3003 0.7098 0.6371
vn 0.0671 -0.0115 0.9977
vn -0.4790 0.5978 0.6428
vn 0.3086 -0.7223 0.6189
vn 0.9364 -0.0760 0.3426
vn 0.0107 0.9177 -0.3972
vn -0.9681 0.0786 -0.2380
vn -0.7996 -0.2592 -0.5417
vn 0.0646 -0.2554 -0.9647
vn 0.2999 -0.3658 -0.8811
vn 0.0784 0.0329 -0.9964
vn 0.0274 -0.2847 -0.9582
vn -0.0035 -0.0797 -0.9968
vn -0.3166 -0.3125 -0.8956
vn -0.6259 0.1683 -0.7615
vn -0.5979 -0.6781 -0.4274
vn -0.6415 0.3113 -0.7011
vn -0.8053 0.4474 -0.3890
vn -0.8106 0.3774 -0.4478
vn 0.1626 0.7674 -0.6202
vn 0.0384 0.6718 -0.7397
vn 0.3335 0.6984 -0.6333
vn 0.9304 0.0031 -0.3665
vn 0.6920 -0.1014 -0.7147
vn -0.3931 -0.9127 0.1117
vn -0.3381 -0.8891 0.3085
vn -0.6821 -0.0224 0.7309
vn -0.7543 0.5501 0.3585
vn -0.1156 0.8113 -0.5731
vn 0.5758 0.7438 -0.3393
vn -0.7272 0.0076 0.6864
vn 0.0338 0.0004 0.9994
vn 0.0051 0.1980 0.9802
vn -0.1852 0.9074 0.3772
vn 0.8662 0.4987 0.0315
vn 0.8653 0.3787 0.3284
vn 0.8221 0.1373 0.5525
vn -0.0372 0.1121 0.9930
vt 0.305445 0.617177
vt 0.305445 0.640645
vt 0.313616 0.638279
vt 0.316605 0.617177
vt 0.310495 0.639182
vt 0.312342 0.617177
vt 0.300396 0.642107
vt 0.298549 0.617177
vt 0.308592 0.651669
vt 0.314339 0.652330
vt 0.297275 0.643011
vt 0.294286 0.617177
vt 0.302921 0.650325
vt 0.302988 0.660914
vt 0.306588 0.661356
vt 0.312273 0.652475
vt 0.305077 0.650828
vt 0.310341 0.660855
vt 0.304391 0.660944
vt 0.308905 0.661077
vt 0.252666 0.915515
vt 0.253012 0.919692
vt 0.256807 0.919797
vt 0.252129 0.910762
vt 0.257973 0.925079
vt 0.255542 0.926351
vt 0.250297 0.930370
vt 0.240145 0.915606
vt 0.246790 0.909186
vt 0.232725 0.910466
vt 0.255339 0.926858
vt 0.257147 0.921412
vt 0.253941 0.923128
vt 0.249259 0.918865
vt 0.252288 0.910526
vt 0.244460 0.913515
vt 0.242257 0.909502
vt 0.232186 0.921707
vt 0.249760 0.926546
vt 0.239755 0.931649
vt 0.229857 0.929642
vt 0.228043 0.928680
vt 0.222191 0.921219
vt 0.222928 0.923578
vt 0.225872 0.916982
vt 0.232308 0.919011
vt 0.243440 0.922578
vt 0.237497 0.931154
vt 0.240315 0.930649
vt 0.249861 0.925113
vt 0.234798 0.914508
vt 0.229154 0.908944
vt 0.235514 0.915995
vt 0.224112 0.912958
vt 0.220424 0.911389
vt 0.220863 0.914788
vt 0.230478 0.911559
vt 0.229112 0.913958
vt 0.226874 0.919036
vt 0.214240 0.922409
vt 0.221352 0.917547
vt 0.217395 0.922340
vt 0.228659 0.928646
vt 0.230685 0.930595
vt 0.227240 0.933360
vt 0.220329 0.931697
vt 0.219222 0.934583
vt 0.229701 0.939989
vt 0.229684 0.935890
vt 0.224156 0.938850
vt 0.218078 0.931717
vt 0.225378 0.927689
vt 0.227962 0.937616
vt 0.222312 0.923892
vt 0.217261 0.919014
vt 0.230674 0.923477
vt 0.224684 0.916220
vt 0.219297 0.912980
vt 0.232086 0.918036
vt 0.250084 0.944660
vt 0.254218 0.940023
vt 0.246107 0.947203
vt 0.252174 0.932941
vt 0.253721 0.932646
vt 0.252066 0.940784
vt 0.239764 0.948996
vt 0.247017 0.928319
vt 0.248608 0.929723
vt 0.241604 0.926817
vt 0.250888 0.926920
vt 0.249361 0.926956
vt 0.241917 0.927076
vt 0.231668 0.940490
vt 0.246342 0.931472
vt 0.236043 0.928089
vt 0.229469 0.935708
vt 0.226675 0.931477
vt 0.229923 0.948564
vt 0.229090 0.948031
vt 0.221145 0.939660
vt 0.221573 0.940870
vt 0.220735 0.934602
vt 0.223718 0.931123
vt 0.233231 0.928023
vt 0.223027 0.934437
vt 0.247827 0.931755
vt 0.249212 0.937042
vt 0.251694 0.935155
vt 0.235716 0.924897
vt 0.227802 0.927808
vt 0.240105 0.929888
vt 0.246439 0.922803
vt 0.248122 0.929790
vt 0.248358 0.930681
vt 0.223281 0.935073
vt 0.221167 0.927259
vt 0.219120 0.940891
vt 0.245233 0.934560
vt 0.234559 0.934199
vt 0.234574 0.943430
vt 0.225084 0.945599
vt 0.247102 0.939051
vt 0.226621 0.946955
vt 0.223803 0.936506
vt 0.230209 0.936028
vt 0.240419 0.943971
vt 0.230511 0.949468
vt 0.221949 0.927465
vt 0.243399 0.923866
vt 0.225354 0.913051
vt 0.224164 0.911329
vt 0.231046 0.909436
vt 0.230875 0.913822
vt 0.218981 0.916079
vt 0.220407 0.915574
vt 0.218326 0.923810
vt 0.233517 0.908122
vt 0.228486 0.908106
vt 0.234367 0.915092
vt 0.234537 0.918162
vt 0.235306 0.911707
vt 0.241682 0.919847
vt 0.222111 0.913196
vt 0.219374 0.917666
vt 0.224697 0.916469
vt 0.240004 0.914441
vt 0.224791 0.930704
vt 0.222519 0.930113
vt 0.231758 0.927742
vt 0.222538 0.923209
vt 0.227409 0.932693
vt 0.238689 0.927511
vt 0.233328 0.933654
vt 0.221525 0.924386
vt 0.224102 0.915812
vt 0.229533 0.919664
vt 0.233674 0.925293
vt 0.254130 0.908083
vt 0.251445 0.905614
vt 0.254645 0.911537
vt 0.247264 0.905529
vt 0.235967 0.911566
vt 0.237891 0.912335
vt 0.248829 0.909303
vt 0.254163 0.920144
vt 0.244083 0.908500
vt 0.246295 0.913148
vt 0.232491 0.917598
vt 0.252569 0.912508
vt 0.244649 0.911131
vt 0.242994 0.919632
vt 0.248453 0.920021
vt 0.239641 0.913186
vt 0.235839 0.911651
vt 0.233963 0.915501
vt 0.232266 0.917450
vt 0.236490 0.917530
vt 0.253844 0.921753
vt 0.240440 0.927361
vt 0.237965 0.927816
vt 0.246802 0.931464
vt 0.254064 0.926388
vt 0.248079 0.930347
vt 0.249347 0.929801
vt 0.245881 0.927545
vt 0.250029 0.926473
vt 0.249785 0.925840
vt 0.246054 0.930003
vt 0.250196 0.931195
vt 0.239748 0.939334
vt 0.235680 0.940654
vt 0.235625 0.944487
vt 0.252466 0.929444
vt 0.244109 0.940174
vt 0.244167 0.948564
vt 0.249541 0.945998
vt 0.246495 0.951136
vt 0.236605 0.949762
vt 0.236493 0.951687
vt 0.250439 0.947061
vt 0.249019 0.941693
vt 0.244238 0.945997
vt 0.244194 0.952219
vt 0.251127 0.948284
vt 0.237422 0.952549
vt 0.255087 0.939359
vt 0.253054 0.936303
vt 0.242900 0.944838
vt 0.248666 0.940377
vt 0.252245 0.934582
vt 0.231908 0.945528
vt 0.250276 0.927472
vt 0.246229 0.950099
vt 0.247197 0.947454
vt 0.248617 0.957889
vt 0.234208 0.957461
vt 0.240959 0.952749
vt 0.233402 0.962320
vt 0.234509 0.951148
vt 0.230764 0.960283
vt 0.238161 0.963800
vt 0.247153 0.945466
vt 0.249009 0.947259
vt 0.250047 0.951699
vt 0.244147 0.957967
vt 0.229393 0.963949
vt 0.248686 0.952521
vt 0.242772 0.962532
vt 0.241952 0.972178
vt 0.245720 0.969096
vt 0.249620 0.958831
vt 0.241549 0.975926
vt 0.238867 0.970816
vt 0.238658 0.978406
vt 0.230740 0.970354
vt 0.233709 0.974294
vt 0.245168 0.946565
vt 0.240574 0.951951
vt 0.238185 0.946813
vt 0.232822 0.956753
vt 0.241819 0.948134
vt 0.243410 0.943741
vt 0.243438 0.946207
vt 0.245162 0.952220
vt 0.233166 0.943968
vt 0.238501 0.943765
vt 0.236911 0.949162
vt 0.228129 0.946893
vt 0.226759 0.944860
vt 0.224276 0.950593
vt 0.227509 0.948185
vt 0.227755 0.944462
vt 0.224815 0.949128
vt 0.237467 0.962918
vt 0.232034 0.960798
vt 0.236348 0.961674
vt 0.228624 0.960198
vt 0.226668 0.956014
vt 0.235687 0.959593
vt 0.240058 0.961652
vt 0.240380 0.958944
vt 0.230601 0.943262
vt 0.235073 0.942632
vt 0.230299 0.960562
vt 0.236091 0.963072
vt 0.228689 0.962959
vt 0.228049 0.948566
vt 0.228263 0.955881
vt 0.225280 0.947533
vt 0.225357 0.955468
vt 0.227668 0.945313
vt 0.245611 0.947181
vt 0.246487 0.941989
vt 0.246827 0.950401
vt 0.238556 0.960437
vt 0.230815 0.960298
vt 0.222753 0.947565
vt 0.223126 0.953799
vt 0.224619 0.950163
vt 0.231621 0.942443
vt 0.230963 0.948137
vt 0.241378 0.953552
vt 0.239060 0.949336
vt 0.234784 0.954409
vt 0.245427 0.953055
vt 0.243013 0.940775
vt 0.236507 0.940926
vt 0.237586 0.964572
vt 0.241602 0.959252
vt 0.242109 0.956383
vt 0.234051 0.959559
s 0
usemtl Winter_Pack_Texture
f 1/1/1 2/2/1 4/3/1 3/4/1
f 3/4/2 4/3/2 6/5/2 5/6/2
f 5/6/3 6/5/3 8/7/3 7/8/3
f 4/3/4 2/2/4 12/9/4 11/10/4
f 7/8/5 8/7/5 10/11/5 9/12/5
f 9/12/6 10/11/6 2/2/6 1/1/6
f 1/1/7 3/4/7 5/6/7 7/8/7 9/12/7
f 12/9/8 15/13/8 20/14/8 17/15/8
f 8/7/9 6/5/9 13/16/9 14/17/9
f 10/11/10 8/7/10 14/17/10 15/13/10
f 6/5/11 4/3/11 11/10/11 13/16/11
f 2/2/12 10/11/12 15/13/12 12/9/12
f 16/18/13 17/15/13 20/14/13 19/19/13 18/20/13
f 14/17/14 13/16/14 18/20/14 19/19/14
f 11/10/15 12/9/15 17/15/15 16/18/15
f 15/13/16 14/17/16 19/19/16 20/14/16
f 13/16/17 11/10/17 16/18/17 18/20/17
f 21/21/18 31/22/18 30/23/18
f 21/21/19 30/23/19 33/24/19
f 23/25/20 32/26/20 37/27/20
f 26/28/21 34/29/21 43/30/21
f 23/25/22 37/27/22 40/31/22
f 24/32/23 39/33/23 42/34/23
f 25/35/24 41/36/24 44/37/24
f 26/28/25 43/30/25 36/38/25
f 27/39/26 45/40/26 49/41/26
f 29/42/27 47/43/27 48/44/27
f 47/43/28 28/45/28 48/44/28
f 48/44/29 50/46/29 49/41/29
f 48/44/30 28/45/30 50/46/30
f 50/46/31 46/47/31 49/41/31
f 46/47/32 27/39/32 49/41/32
f 49/41/33 29/42/33 48/44/33
f 36/38/34 43/30/34 47/43/34
f 43/30/35 28/45/35 47/43/35
f 44/37/36 41/36/36 28/45/36
f 41/36/37 50/46/37 28/45/37
f 42/34/38 46/47/38 50/46/38
f 42/34/39 39/33/39 46/47/39
f 39/33/40 27/39/40 46/47/40
f 40/31/41 45/40/41 27/39/41
f 40/31/42 37/27/42 45/40/42
f 38/48/43 49/41/43 45/40/43
f 38/48/44 35/49/44 49/41/44
f 35/49/45 29/42/45 49/41/45
f 43/30/46 44/37/46 28/45/46
f 43/30/47 34/29/47 44/37/47
f 34/29/48 25/35/48 44/37/48
f 41/36/49 42/34/49 50/46/49
f 41/36/50 25/35/50 42/34/50
f 25/35/51 24/32/51 42/34/51
f 39/33/52 40/31/52 27/39/52
f 39/33/53 24/32/53 40/31/53
f 24/32/54 23/25/54 40/31/54
f 37/27/55 32/26/55 38/48/55
f 32/26/56 22/50/56 38/48/56
f 33/24/57 25/35/57 34/29/57
f 33/24/58 30/23/58 25/35/58
f 30/23/59 24/32/59 25/35/59
f 30/23/60 23/25/60 24/32/60
f 30/23/61 32/26/61 23/25/61
f 30/23/62 31/22/62 32/26/62
f 31/22/63 22/50/63 32/26/63
f 52/51/64 51/52/64 61/53/64
f 51/52/65 59/54/65 63/55/65
f 51/52/66 63/55/66 64/56/66
f 51/52/67 64/56/67 62/57/67
f 59/54/68 60/58/68 66/59/68
f 64/56/69 63/55/69 70/60/69
f 59/54/70 66/59/70 69/61/70
f 64/56/71 70/60/71 72/62/71
f 55/63/72 73/64/72 76/65/72
f 57/66/73 74/67/73 79/68/73
f 75/69/74 57/66/74 79/68/74
f 79/68/75 74/67/75 78/70/75
f 74/67/76 56/71/76 78/70/76
f 78/70/77 77/72/77 58/73/77
f 78/70/78 56/71/78 77/72/78
f 77/72/79 76/65/79 58/73/79
f 77/72/80 55/63/80 76/65/80
f 71/74/81 57/66/81 75/69/81
f 72/62/82 74/67/82 57/66/82
f 72/62/83 70/60/83 74/67/83
f 70/60/84 56/71/84 74/67/84
f 68/75/85 77/72/85 56/71/85
f 69/61/86 66/59/86 77/72/86
f 66/59/87 55/63/87 77/72/87
f 67/76/88 73/64/88 55/63/88
f 71/74/89 72/62/89 57/66/89
f 71/74/90 65/77/90 72/62/90
f 65/77/91 64/56/91 72/62/91
f 70/60/92 68/75/92 56/71/92
f 70/60/93 63/55/93 68/75/93
f 63/55/94 53/78/94 68/75/94
f 68/75/95 69/61/95 77/72/95
f 68/75/96 53/78/96 69/61/96
f 53/78/97 59/54/97 69/61/97
f 62/57/98 65/77/98 54/79/98
f 62/57/99 64/56/99 65/77/99
f 63/55/100 59/54/100 53/78/100
f 61/53/101 62/57/101 54/79/101
f 61/53/102 51/52/102 62/57/102
f 59/54/103 51/52/103 60/58/103
f 51/52/104 52/51/104 60/58/104
f 81/80/105 80/81/105 89/82/105
f 80/81/106 87/83/106 92/84/106
f 80/81/107 92/84/107 90/85/107
f 81/80/108 89/82/108 95/86/108
f 82/87/109 91/88/109 97/89/109
f 83/90/110 93/91/110 99/92/110
f 81/80/111 95/86/111 96/93/111
f 83/90/112 99/92/112 100/94/112
f 84/95/113 102/96/113 106/97/113
f 85/98/114 104/99/114 105/100/114
f 105/100/115 108/101/115 86/102/115
f 105/100/116 104/99/116 108/101/116
f 108/101/117 107/103/117 86/102/117
f 103/104/118 84/95/118 106/97/118
f 106/97/119 101/105/119 86/102/119
f 106/97/120 102/96/120 101/105/120
f 101/105/121 105/100/121 86/102/121
f 101/105/122 85/98/122 105/100/122
f 98/106/123 102/96/123 84/95/123
f 98/106/124 88/107/124 102/96/124
f 96/93/125 101/105/125 102/96/125
f 96/93/126 95/86/126 101/105/126
f 95/86/127 85/98/127 101/105/127
f 94/108/128 83/90/128 100/94/128
f 97/89/129 98/106/129 84/95/129
f 97/89/130 91/88/130 98/106/130
f 88/107/131 96/93/131 102/96/131
f 88/107/132 81/80/132 96/93/132
f 90/85/133 92/84/133 94/108/133
f 92/84/134 83/90/134 94/108/134
f 92/84/135 93/91/135 83/90/135
f 92/84/136 87/83/136 93/91/136
f 87/83/137 82/87/137 93/91/137
f 87/83/138 91/88/138 82/87/138
f 87/83/139 98/106/139 91/88/139
f 89/82/140 80/81/140 90/85/140
f 87/83/141 88/107/141 98/106/141
f 87/83/142 80/81/142 88/107/142
f 80/81/143 81/80/143 88/107/143
f 109/109/144 118/110/144 117/111/144
f 110/112/145 116/113/145 121/114/145
f 111/115/146 119/116/146 123/117/146
f 112/118/147 120/119/147 125/120/147
f 111/115/148 123/117/148 126/121/148
f 112/118/149 125/120/149 122/122/149
f 127/123/150 113/124/150 129/125/150
f 122/122/151 125/120/151 128/126/151
f 125/120/152 114/127/152 128/126/152
f 126/121/153 127/123/153 114/127/153
f 126/121/154 123/117/154 127/123/154
f 123/117/155 113/124/155 127/123/155
f 125/120/156 126/121/156 114/127/156
f 125/120/157 120/119/157 126/121/157
f 120/119/158 111/115/158 126/121/158
f 123/117/159 124/128/159 113/124/159
f 123/117/160 119/116/160 124/128/160
f 121/114/161 116/113/161 122/122/161
f 116/113/162 112/118/162 122/122/162
f 117/111/163 120/119/163 112/118/163
f 117/111/164 118/110/164 120/119/164
f 118/110/165 111/115/165 120/119/165
f 118/110/166 119/116/166 111/115/166
f 116/113/167 117/111/167 112/118/167
f 116/113/168 115/129/168 117/111/168
f 115/129/169 109/109/169 117/111/169
f 130/130/170 136/131/170 140/132/170
f 130/130/171 140/132/171 139/133/171
f 147/134/172 137/135/172 144/136/172
f 133/137/173 141/138/173 148/139/173
f 134/140/174 142/141/174 150/142/174
f 132/143/175 146/144/175 149/145/175
f 133/137/176 148/139/176 151/146/176
f 144/136/177 152/147/177 155/148/177
f 146/144/178 144/136/178 155/148/178
f 154/149/179 153/150/179 156/151/179
f 135/152/180 154/149/180 157/153/180
f 157/153/181 154/149/181 156/151/181
f 156/151/182 153/150/182 155/148/182
f 153/150/183 146/144/183 155/148/183
f 151/146/184 154/149/184 135/152/184
f 151/146/185 148/139/185 154/149/185
f 149/145/186 153/150/186 154/149/186
f 149/145/187 146/144/187 153/150/187
f 147/134/188 144/136/188 146/144/188
f 145/154/189 152/147/189 144/136/189
f 150/142/190 142/141/190 151/146/190
f 142/141/191 133/137/191 151/146/191
f 148/139/192 149/145/192 154/149/192
f 148/139/193 141/138/193 149/145/193
f 141/138/194 132/143/194 149/145/194
f 146/144/195 132/143/195 147/134/195
f 144/136/196 137/135/196 145/154/196
f 137/135/197 131/155/197 145/154/197
f 138/156/198 134/140/198 143/157/198
f 139/133/199 142/141/199 134/140/199
f 139/133/200 140/132/200 142/141/200
f 140/132/201 133/137/201 142/141/201
f 140/132/202 141/138/202 133/137/202
f 140/132/203 136/131/203 141/138/203
f 136/131/204 132/143/204 141/138/204
f 136/131/205 147/134/205 132/143/205
f 138/156/206 139/133/206 134/140/206
f 136/131/207 137/135/207 147/134/207
f 136/131/208 130/130/208 137/135/208
f 130/130/209 131/155/209 137/135/209
f 165/158/210 164/159/210 166/160/210
f 163/161/211 168/162/211 169/163/211
f 163/161/212 169/163/212 167/164/212
f 165/158/213 166/160/213 171/165/213
f 158/166/214 165/158/214 173/167/214
f 169/163/215 168/162/215 177/168/215
f 160/169/216 170/170/216 179/171/216
f 165/158/217 171/165/217 174/172/217
f 158/166/218 173/167/218 176/173/218
f 159/174/219 175/175/219 178/176/219
f 169/163/220 177/168/220 180/177/220
f 160/169/221 179/171/221 172/178/221
f 161/179/222 182/180/222 186/181/222
f 162/182/223 183/183/223 185/184/223
f 185/184/224 183/183/224 186/181/224
f 183/183/225 161/179/225 186/181/225
f 184/185/226 181/186/226 185/184/226
f 181/186/227 162/182/227 185/184/227
f 172/178/228 183/183/228 162/182/228
f 172/178/229 179/171/229 183/183/229
f 179/171/230 161/179/230 183/183/230
f 180/177/231 182/180/231 161/179/231
f 180/177/232 177/168/232 182/180/232
f 171/165/233 162/182/233 181/186/233
f 179/171/234 180/177/234 161/179/234
f 179/171/235 170/170/235 180/177/235
f 170/170/236 169/163/236 180/177/236
f 177/168/237 168/162/237 178/176/237
f 168/162/238 159/174/238 178/176/238
f 175/175/239 159/174/239 176/173/239
f 159/174/240 158/166/240 176/173/240
f 173/167/241 165/158/241 174/172/241
f 171/165/242 172/178/242 162/182/242
f 171/165/243 166/160/243 172/178/243
f 166/160/244 160/169/244 172/178/244
f 167/164/245 170/170/245 160/169/245
f 167/164/246 169/163/246 170/170/246
f 168/162/247 163/161/247 159/174/247
f 163/161/248 158/166/248 159/174/248
f 166/160/249 167/164/249 160/169/249
f 166/160/250 164/159/250 167/164/250
f 164/159/251 163/161/251 167/164/251
f 163/161/252 165/158/252 158/166/252
f 163/161/253 164/159/253 165/158/253
f 187/187/254 194/188/254 196/189/254
f 188/190/255 195/191/255 202/192/255
f 187/187/256 196/189/256 199/193/256
f 188/190/257 202/192/257 197/194/257
f 189/195/258 205/196/258 211/197/258
f 190/198/259 207/199/259 210/200/259
f 191/201/260 208/202/260 210/200/260
f 208/202/261 190/198/261 210/200/261
f 210/200/262 212/203/262 192/204/262
f 210/200/263 207/199/263 212/203/263
f 212/203/264 211/197/264 192/204/264
f 206/205/265 189/195/265 211/197/265
f 211/197/266 209/206/266 192/204/266
f 211/197/267 205/196/267 209/206/267
f 209/206/268 210/200/268 192/204/268
f 209/206/269 204/207/269 210/200/269
f 204/207/270 191/201/270 210/200/270
f 197/194/271 208/202/271 191/201/271
f 197/194/272 202/192/272 208/202/272
f 202/192/273 190/198/273 208/202/273
f 200/208/274 189/195/274 206/205/274
f 201/209/275 205/196/275 189/195/275
f 201/209/276 198/210/276 205/196/276
f 198/210/277 209/206/277 205/196/277
f 199/193/278 204/207/278 209/206/278
f 199/193/279 196/189/279 204/207/279
f 196/189/280 191/201/280 204/207/280
f 202/192/281 203/211/281 190/198/281
f 202/192/282 195/191/282 203/211/282
f 200/208/283 201/209/283 189/195/283
f 198/210/284 199/193/284 209/206/284
f 198/210/285 193/212/285 199/193/285
f 193/212/286 187/187/286 199/193/286
f 196/189/287 197/194/287 191/201/287
f 196/189/288 194/188/288 197/194/288
f 194/188/289 188/190/289 197/194/289
f 215/213/290 223/214/290 231/215/290
f 216/216/291 224/217/291 233/218/291
f 213/219/292 225/220/292 228/221/292
f 214/222/293 229/223/293 232/224/293
f 215/213/294 231/215/294 234/225/294
f 216/216/295 233/218/295 226/226/295
f 217/227/296 236/228/296 235/229/296
f 238/230/297 237/231/297 241/232/297
f 218/233/298 238/230/298 240/234/298
f 219/235/299 239/236/299 240/234/299
f 239/236/300 218/233/300 240/234/300
f 240/234/301 238/230/301 241/232/301
f 241/232/302 237/231/302 235/229/302
f 237/231/303 217/227/303 235/229/303
f 235/229/304 240/234/304 241/232/304
f 235/229/305 219/235/305 240/234/305
f 226/226/306 239/236/306 219/235/306
f 226/226/307 233/218/307 239/236/307
f 233/218/308 218/233/308 239/236/308
f 234/225/309 238/230/309 218/233/309
f 234/225/310 231/215/310 238/230/310
f 232/224/311 237/231/311 238/230/311
f 232/224/312 229/223/312 237/231/312
f 229/223/313 217/227/313 237/231/313
f 230/237/314 236/228/314 217/227/314
f 230/237/315 227/238/315 236/228/315
f 228/221/316 235/229/316 236/228/316
f 228/221/317 225/220/317 235/229/317
f 225/220/318 219/235/318 235/229/318
f 233/218/319 234/225/319 218/233/319
f 233/218/320 224/217/320 234/225/320
f 224/217/321 215/213/321 234/225/321
f 231/215/322 232/224/322 238/230/322
f 231/215/323 223/214/323 232/224/323
f 223/214/324 214/222/324 232/224/324
f 229/223/325 230/237/325 217/227/325
f 227/238/326 228/221/326 236/228/326
f 227/238/327 220/239/327 228/221/327
f 220/239/328 213/219/328 228/221/328
f 225/220/329 226/226/329 219/235/329
f 225/220/330 221/240/330 226/226/330
f 221/240/331 216/216/331 226/226/331
f 222/241/332 215/213/332 224/217/332
f 222/241/333 223/214/333 215/213/333
f 242/242/334 250/243/334 253/244/334
f 243/245/335 249/246/335 254/247/335
f 245/248/336 252/249/336 256/250/336
f 242/242/337 253/244/337 254/247/337
f 243/245/338 254/247/338 255/251/338
f 244/252/339 255/251/339 257/253/339
f 263/254/340 262/255/340 247/256/340
f 263/254/341 260/257/341 262/255/341
f 260/257/342 246/258/342 262/255/342
f 262/255/343 259/259/343 247/256/343
f 262/255/344 246/258/344 259/259/344
f 246/258/345 255/251/345 259/259/345
f 259/259/346 261/260/346 247/256/346
f 259/259/347 258/261/347 261/260/347
f 256/250/348 246/258/348 260/257/348
f 257/253/349 255/251/349 246/258/349
f 255/251/350 254/247/350 259/259/350
f 254/247/351 258/261/351 259/259/351
f 254/247/352 253/244/352 258/261/352
f 256/250/353 257/253/353 246/258/353
f 256/250/354 252/249/354 257/253/354
f 252/249/355 244/252/355 257/253/355
f 244/252/356 243/245/356 255/251/356
f 249/246/357 242/242/357 254/247/357
f 251/262/358 244/252/358 252/249/358
f 251/262/359 248/263/359 244/252/359
f 248/263/360 243/245/360 244/252/360
f 248/263/361 249/246/361 243/245/361
f 264/264/362 272/265/362 277/266/362
f 265/267/363 274/268/363 279/269/363
f 264/264/364 277/266/364 280/270/364
f 265/267/365 279/269/365 281/271/365
f 266/272/366 282/273/366 276/274/366
f 277/266/367 283/275/367 287/276/367
f 285/277/368 284/278/368 289/279/368
f 267/280/369 285/277/369 290/281/369
f 288/282/370 291/283/370 270/284/370
f 288/282/371 269/285/371 291/283/371
f 269/285/372 268/286/372 291/283/372
f 291/283/373 290/281/373 270/284/373
f 291/283/374 286/287/374 290/281/374
f 286/287/375 267/280/375 290/281/375
f 290/281/376 289/279/376 270/284/376
f 290/281/377 285/277/377 289/279/377
f 289/279/378 287/276/378 270/284/378
f 289/279/379 284/278/379 287/276/379
f 284/278/380 277/266/380 287/276/380
f 287/276/381 288/282/381 270/284/381
f 287/276/382 283/275/382 288/282/382
f 283/275/383 269/285/383 288/282/383
f 276/274/384 282/273/384 269/285/384
f 282/273/385 268/286/385 269/285/385
f 281/271/386 285/277/386 267/280/386
f 281/271/387 279/269/387 285/277/387
f 280/270/388 284/278/388 285/277/388
f 280/270/389 277/266/389 284/278/389
f 278/288/390 283/275/390 277/266/390
f 275/289/391 269/285/391 283/275/391
f 279/269/392 280/270/392 285/277/392
f 279/269/393 274/268/393 280/270/393
f 274/268/394 264/264/394 280/270/394
f 277/266/395 272/265/395 278/288/395
f 275/289/396 276/274/396 269/285/396
f 275/289/397 273/290/397 276/274/397
f 273/290/398 266/272/398 276/274/398
f 271/291/399 272/265/399 264/264/399
