# Blender 5.0.0
# www.blender.org
mtllib Tree_birch_bare.mtl
o Tree_birch_bare
v -0.123371 -0.155740 -0.674024
v -0.123371 1.373858 -0.492177
v 0.603997 -0.155740 -0.145561
v 0.409171 1.219645 -0.089368
v 0.326168 -0.155739 0.709510
v 0.205759 1.278550 0.562393
v -0.572907 -0.155739 0.709511
v -0.452498 1.469167 0.562393
v -0.850737 -0.155740 -0.145560
v -0.655911 1.528071 -0.089367
v 0.456322 2.135548 -0.032133
v 0.081732 2.092453 -0.306961
v 0.321644 2.144997 0.420526
v -0.147375 2.037647 0.414351
v -0.287914 2.004805 -0.028424
v 0.223033 2.670581 -0.066128
v -0.330813 3.155528 -0.301982
v 0.060976 2.753341 0.491044
v -0.534316 3.128235 0.357966
v -0.440876 3.018202 0.012192
v -0.407631 3.512920 0.075391
v -0.314191 3.402887 -0.270382
v 0.111476 3.479211 0.012033
v -0.517694 3.375594 0.389565
v -0.015282 3.528002 0.427918
v -0.150325 5.118217 0.084967
v 0.173236 5.076041 -0.191135
v 0.287754 5.226772 0.131285
v -0.042948 5.149186 0.436957
v 0.348299 5.008385 0.428657
v -0.519660 6.746521 0.129102
v -0.252979 6.674163 -0.089534
v -0.002694 6.530966 0.119129
v -0.419829 6.708291 0.465807
v -0.097562 6.587913 0.457927
v -0.021750 7.529611 0.205902
v 0.084804 7.500700 0.118545
v 0.184807 7.443484 0.201917
v 0.018138 7.514337 0.340435
v 0.146902 7.466238 0.337286
v 0.179807 4.488536 0.081190
v 0.294325 4.639268 0.403610
v -0.140222 4.333606 0.437274
v -0.250201 4.290502 0.054621
v 0.119262 4.706923 -0.216182
v 0.102102 5.919799 0.443323
v -0.231388 5.928739 0.451382
v -0.067606 5.949973 -0.116563
v 0.207048 5.897439 0.096836
v -0.334993 5.932369 0.107035
v 1.058800 5.481464 -0.257736
v 1.063088 5.369417 -0.448717
v 1.168644 5.404301 -0.081591
v 1.287064 5.103044 -0.287409
v 1.282776 5.215091 -0.096428
v 1.177220 5.180207 -0.463554
v 1.350807 5.698171 -0.442249
v 1.376755 5.636359 -0.556428
v 1.428504 5.678067 -0.336940
v 1.558095 5.534340 -0.459989
v 1.532148 5.596152 -0.345810
v 1.480399 5.554444 -0.565298
v -1.039347 3.250380 -0.215739
v -0.912939 3.308096 -0.463811
v -1.066129 3.361171 0.057285
v -0.840096 3.587396 -0.165836
v -0.813314 3.476605 -0.438860
v -0.966505 3.529680 0.082236
v -1.214450 3.697680 -0.336895
v -1.135147 3.703573 -0.478855
v -1.206839 3.762462 -0.180656
v -1.040622 3.839030 -0.308338
v -1.048234 3.774248 -0.464577
v -1.119925 3.833137 -0.166377
vn 0.5994 0.1052 -0.7935
vn 0.9475 0.1159 0.2981
vn 0.0117 0.0957 0.9953
vn 0.6003 0.0259 -0.7994
vn -0.9468 0.0986 0.3062
vn -0.5842 0.0951 -0.8060
vn -0.0000 -1.0000 -0.0000
vn -0.7287 -0.1840 -0.6596
vn 0.0091 0.1955 0.9807
vn -0.8006 0.5376 0.2644
vn 0.9524 -0.0731 0.2961
vn -0.5310 0.4076 -0.7429
vn -0.1500 0.0217 0.9885
vn -0.1452 -0.0635 0.9874
vn 0.5449 0.2055 -0.8129
vn -0.9637 -0.2465 0.1022
vn 0.8963 0.3799 0.2287
vn -0.0392 0.8413 0.5392
vn 0.5066 0.1341 -0.8517
vn 0.9567 0.1109 0.2690
vn -0.1684 -0.9072 -0.3855
vn 0.3006 0.0455 -0.9527
vn 0.0215 -0.0143 0.9997
vn -0.9561 0.1097 0.2718
vn -0.6538 0.1186 -0.7473
vn 0.0563 -0.0280 0.9980
vn 0.5592 -0.7805 0.2795
vn 0.9297 -0.2180 0.2970
vn 0.6596 0.2181 -0.7193
vn 0.9285 0.2853 0.2377
vn -0.9372 -0.2255 0.2661
vn -0.6402 -0.1298 -0.7571
vn 0.3756 0.9264 0.0268
vn -0.8184 0.4911 0.2984
vn -0.5134 0.4008 -0.7588
vn 0.0680 0.1172 0.9908
vn 0.6201 -0.0564 -0.7825
vn 0.7446 -0.1266 -0.6554
vn 0.0006 -0.0115 0.9999
vn -0.8299 0.2436 -0.5020
vn -0.9551 0.2937 0.0396
vn 0.9822 -0.1764 0.0640
vn -0.6440 -0.1191 -0.7557
vn -0.9301 -0.2244 0.2906
vn 0.9709 0.2022 0.1285
vn 0.7804 0.1780 -0.5994
vn 0.0201 -0.0120 0.9997
vn 0.5586 -0.5950 -0.5779
vn -0.6816 0.6047 -0.4120
vn 0.2315 -0.7857 -0.5737
vn 0.4914 -0.0093 0.8709
vn -0.4122 0.8439 -0.3434
vn -0.2655 0.0402 -0.9633
vn 0.5799 0.7643 -0.2820
vn 0.4562 0.2929 0.8403
vn -0.3232 0.8070 0.4943
vn 0.8655 -0.3935 0.3099
vn -0.2273 -0.0978 -0.9689
vn 0.1528 0.0427 -0.9873
vn -0.7642 -0.4369 -0.4743
vn -0.4571 -0.8621 0.2188
vn -0.5185 0.0287 0.8546
vn 0.0323 0.9400 0.3397
vn 0.2686 0.9226 -0.2770
vn -0.5749 0.7654 -0.2894
vn 0.5966 0.6803 0.4256
vn -0.9451 -0.3151 0.0867
vn -0.5533 0.3044 0.7754
vn 0.7967 0.5710 -0.1980
vt 0.303001 0.057503
vt 0.303001 0.065532
vt 0.305797 0.064723
vt 0.306819 0.057503
vt 0.304729 0.065032
vt 0.305361 0.057503
vt 0.301273 0.066032
vt 0.300641 0.057503
vt 0.304078 0.069304
vt 0.306044 0.069530
vt 0.300206 0.066342
vt 0.299183 0.057503
vt 0.302137 0.068844
vt 0.301334 0.074164
vt 0.301912 0.074884
vt 0.305337 0.069580
vt 0.302875 0.069016
vt 0.300844 0.074741
vt 0.303969 0.072773
vt 0.303568 0.076840
vt 0.300931 0.076040
vt 0.304819 0.072339
vt 0.305159 0.085757
vt 0.305477 0.084610
vt 0.309783 0.086689
vt 0.309207 0.087094
vt 0.301999 0.076183
vt 0.304234 0.076584
vt 0.298193 0.075382
vt 0.298857 0.075685
vt 0.299379 0.076570
vt 0.302434 0.089442
vt 0.304185 0.089395
vt 0.303137 0.092902
vt 0.301445 0.093534
vt 0.302335 0.080842
vt 0.302913 0.081068
vt 0.303423 0.085350
vt 0.302860 0.085187
vt 0.304275 0.083028
vt 0.304558 0.084966
vt 0.305194 0.082673
vt 0.304593 0.081882
vt 0.310405 0.085107
vt 0.310382 0.085695
vt 0.303635 0.092603
vt 0.304619 0.097393
vt 0.304420 0.097512
vt 0.304735 0.089277
vt 0.303294 0.089553
vt 0.302321 0.093354
vt 0.301890 0.089461
vt 0.300921 0.093734
vt 0.304094 0.097693
vt 0.303535 0.097845
vt 0.303744 0.097765
vt 0.301509 0.076760
vt 0.309828 0.085512
vt 0.311420 0.087477
vt 0.311827 0.087371
vt 0.309229 0.086506
vt 0.310739 0.088231
vt 0.310876 0.087907
vt 0.311691 0.087696
vt 0.311147 0.088126
vt 0.297690 0.077761
vt 0.298146 0.078132
vt 0.297274 0.077730
vt 0.298052 0.075964
vt 0.298575 0.076848
vt 0.299239 0.077151
vt 0.298186 0.078472
vt 0.297314 0.078070
vt 0.297770 0.078441
s 0
usemtl Winter_Pack_Texture
f 1/1/1 2/2/1 4/3/1 3/4/1
f 3/4/2 4/3/2 6/5/2 5/6/2
f 5/6/3 6/5/3 8/7/3 7/8/3
f 4/3/4 2/2/4 12/9/4 11/10/4
f 7/8/5 8/7/5 10/11/5 9/12/5
f 9/12/6 10/11/6 2/2/6 1/1/6
f 1/1/7 3/4/7 5/6/7 7/8/7 9/12/7
f 12/9/8 15/13/8 20/14/8 17/15/8
f 8/7/9 6/5/9 13/16/9 14/17/9
f 10/11/10 8/7/10 14/17/10 15/13/10
f 6/5/11 4/3/11 11/10/11 13/16/11
f 2/2/12 10/11/12 15/13/12 12/9/12
f 19/18/13 18/19/13 25/20/13 24/21/13
f 14/17/14 13/16/14 18/19/14 19/18/14
f 11/10/15 12/9/15 17/15/15 16/22/15
f 15/13/16 14/17/16 19/18/16 20/14/16
f 13/16/17 11/10/17 16/22/17 18/19/17
f 28/23/18 30/24/18 53/25/18 51/26/18
f 16/22/19 17/15/19 22/27/19 23/28/19
f 18/19/20 16/22/20 23/28/20 25/20/20
f 17/15/21 20/14/21 63/29/21 64/30/21
f 22/27/22 17/15/22 64/30/22 67/31/22
f 47/32/23 46/33/23 35/34/23 34/35/23
f 44/36/24 43/37/24 29/38/24 26/39/24
f 45/40/25 44/36/25 26/39/25 27/41/25
f 43/37/26 42/42/26 30/24/26 29/38/26
f 42/42/27 41/43/27 54/44/27 55/45/27
f 35/34/28 33/46/28 38/47/28 40/48/28
f 49/49/29 48/50/29 32/51/29 33/46/29
f 46/33/30 49/49/30 33/46/30 35/34/30
f 50/52/31 47/32/31 34/35/31 31/53/31
f 48/50/32 50/52/32 31/53/32 32/51/32
f 38/47/33 37/54/33 36/55/33 39/56/33 40/48/33
f 31/53/34 34/35/34 39/56/34 36/55/34
f 32/51/35 31/53/35 36/55/35 37/54/35
f 34/35/36 35/34/36 40/48/36 39/56/36
f 33/46/37 32/51/37 37/54/37 38/47/37
f 23/28/38 22/27/38 45/40/38 41/43/38
f 24/21/39 25/20/39 42/42/39 43/37/39
f 22/27/40 21/57/40 44/36/40 45/40/40
f 21/57/41 24/21/41 43/37/41 44/36/41
f 25/20/42 23/28/42 41/43/42 42/42/42
f 27/41/43 26/39/43 50/52/43 48/50/43
f 26/39/44 29/38/44 47/32/44 50/52/44
f 30/24/45 28/23/45 49/49/45 46/33/45
f 28/23/46 27/41/46 48/50/46 49/49/46
f 29/38/47 30/24/47 46/33/47 47/32/47
f 54/44/48 56/58/48 62/59/48 60/60/48
f 52/61/49 51/26/49 57/62/49 58/63/49
f 41/43/50 45/40/50 56/58/50 54/44/50
f 30/24/51 42/42/51 55/45/51 53/25/51
f 27/41/52 28/23/52 51/26/52 52/61/52
f 45/40/53 27/41/53 52/61/53 56/58/53
f 61/64/54 60/60/54 57/62/54 59/65/54
f 60/60/54 62/59/54 58/63/54 57/62/54
f 53/25/55 55/45/55 61/64/55 59/65/55
f 51/26/56 53/25/56 59/65/56 57/62/56
f 55/45/57 54/44/57 60/60/57 61/64/57
f 56/58/58 52/61/58 58/63/58 62/59/58
f 67/31/59 64/30/59 70/66/59 73/67/59
f 64/30/60 63/29/60 69/68/60 70/66/60
f 20/14/61 19/18/61 65/69/61 63/29/61
f 19/18/62 24/21/62 68/70/62 65/69/62
f 24/21/63 21/57/63 66/71/63 68/70/63
f 21/57/64 22/27/64 67/31/64 66/71/64
f 70/66/65 69/68/65 72/72/65 73/67/65
f 69/68/65 71/73/65 74/74/65 72/72/65
f 68/70/66 66/71/66 72/72/66 74/74/66
f 63/29/67 65/69/67 71/73/67 69/68/67
f 65/69/68 68/70/68 74/74/68 71/73/68
f 66/71/69 67/31/69 73/67/69 72/72/69
