# Blender 5.0.0
# www.blender.org
mtllib Tree_oak.mtl
o Tree_oak
v -5.350460 5.768892 -0.475965
v -5.074905 6.427176 -0.233476
v -3.102509 6.069813 2.001769
v -3.598753 3.391211 0.390851
v -3.938895 3.597823 0.463281
v -1.864578 5.368264 2.134697
v -0.348393 7.044814 2.740208
v -1.405088 5.011976 1.472914
v 0.536794 6.315017 2.462347
v -3.605552 7.237653 0.896763
v -4.140817 7.565110 -0.759287
v -1.528276 7.783063 2.010964
v -2.413078 8.181232 -0.305142
v -0.687770 9.456148 -0.153561
v -1.801199 8.924176 -1.554911
v -5.071960 3.534456 -1.749406
v -4.928081 5.647745 -2.580459
v -4.301603 3.047138 -2.603201
v -4.146592 7.236021 -3.024216
v -3.008490 3.052005 -1.345562
v -3.419274 2.914466 -3.545154
v -3.696573 5.204157 -4.390995
v -2.030797 3.281712 -3.250227
v -2.364727 3.468675 -4.598210
v -1.125657 4.368630 -2.180286
v -0.587531 3.964056 -3.219082
v -0.129478 4.274024 -4.635118
v -1.046555 5.705064 -4.844310
v -2.685100 8.108953 -2.133817
v -2.291246 7.407932 -3.663438
v -0.002002 5.079194 1.262636
v -0.493618 4.773830 -0.484914
v 1.411500 3.978803 0.533314
v 1.756320 5.481954 2.691391
v 1.738178 4.171368 1.395698
v 2.055650 6.632722 2.704705
v 2.960188 5.556406 2.005560
v 3.143993 3.692817 -0.085917
v 3.393526 6.772096 -0.090084
v 2.793835 3.391390 -0.384356
v 3.623304 5.525538 -1.425436
v -0.274133 9.265210 0.782388
v 0.212820 9.310707 -0.426338
v 2.010715 7.831664 1.421748
v 2.162656 8.456281 -0.780505
v 1.181412 3.881776 -2.775959
v 1.992558 4.256479 -3.647421
v 1.626224 5.790679 -4.110752
v 2.442733 4.421703 -2.789615
v 3.057346 6.847856 -1.992757
v -0.827729 9.277577 -1.463666
v 1.208370 7.888964 -2.657059
v 2.623648 7.860133 -1.816305
v -0.104592 -0.311259 -1.810877
v 0.400128 1.523497 -0.803064
v 1.413080 -0.311259 -0.665633
v 1.148598 1.548795 -0.121854
v 0.692719 -0.311258 1.502367
v 0.836556 1.471672 0.830551
v -1.192897 -0.311258 1.549264
v -0.061212 1.437902 0.891128
v -1.669129 -0.311259 -0.435621
v -0.370984 1.475643 -0.030572
v 0.906983 2.332692 -0.247988
v 0.141921 2.464359 -0.650186
v 0.646023 2.231719 0.451095
v -0.285168 2.405356 0.406560
v -0.438200 2.263714 -0.166076
v 0.802772 2.879181 -0.181024
v 0.173077 2.831094 -0.431510
v 0.579581 2.927660 0.363316
v -0.090587 2.917689 0.431220
v -0.091567 3.239768 -0.113991
v 1.278785 3.783855 -0.162562
v 0.900780 3.886579 -0.420487
v 1.086239 3.833370 0.281975
v 0.648861 3.951599 0.313579
v 0.511252 3.979668 -0.132093
v -1.511383 2.859206 -0.491531
v -1.437866 2.972244 -0.066018
v -1.179708 2.889450 -0.761202
v -1.092453 3.506225 -0.519222
v -1.207746 3.326176 -0.098139
v -1.007270 3.240906 -0.726846
v -2.533368 4.137804 -0.929503
v -2.446503 4.334312 -0.514285
v -2.248044 4.145785 -1.206418
v -1.978691 4.643445 -0.937351
v -2.137460 4.555430 -0.527803
v -1.994743 4.395264 -1.154391
v 1.308307 4.710139 -0.041930
v 1.033034 4.746280 -0.226171
v 1.183516 4.728855 0.255755
v 0.859509 4.769465 0.262401
v 0.766506 4.780235 -0.038750
v 0.151106 0.752967 -1.137004
v 1.122555 0.660126 -0.300937
v 0.690279 0.613109 1.034059
v -0.532064 0.678000 1.125727
v -0.910577 0.767189 -0.179586
v -1.864578 5.368264 2.134697
v 0.536794 6.315017 2.462347
vn -0.4603 -0.8489 0.2600
vn 0.2674 -0.7586 0.5941
vn 0.2291 -0.7818 0.5800
vn -0.6827 0.3251 0.6544
vn -0.6421 0.6856 0.3431
vn -0.3892 0.8714 0.2985
vn -0.5768 0.7393 0.3475
vn -0.5950 0.7844 0.1750
vn -0.8325 -0.1960 -0.5182
vn -0.7805 0.2206 -0.5849
vn -0.1371 -0.9799 0.1448
vn 0.2531 -0.9674 0.0132
vn -0.5662 -0.3451 -0.7486
vn 0.6242 -0.7466 0.2304
vn 0.2903 -0.9355 -0.2017
vn -0.2362 0.8589 -0.4544
vn -0.4160 0.7814 -0.4652
vn 0.1365 -0.7200 0.6804
vn 0.0701 -0.9858 0.1525
vn -0.5218 -0.5961 0.6102
vn -0.3531 -0.5679 0.7435
vn -0.4537 -0.8177 0.3544
vn 0.4967 -0.1391 0.8567
vn 0.9815 -0.0225 0.1899
vn -0.0486 0.6615 0.7484
vn 0.1920 0.9748 0.1140
vn 0.1231 0.6540 0.7464
vn 0.4238 0.8825 0.2039
vn 0.7947 0.4392 0.4191
vn -0.1297 -0.9524 0.2760
vn -0.1205 -0.9446 0.3055
vn 0.2637 0.0281 -0.9642
vn -0.3609 -0.9311 0.0524
vn 0.8219 -0.4541 -0.3439
vn 0.8034 0.0914 -0.5884
vn -0.3321 0.9387 -0.0925
vn 0.1338 0.6289 -0.7659
vn 0.3180 0.8760 -0.3626
vn 0.4279 0.5707 -0.7008
vn 0.9005 0.4107 -0.1428
vn -0.7430 0.0656 0.6661
vn -0.7183 -0.1759 0.6731
vn -0.1702 -0.5636 0.8083
vn -0.3273 -0.4170 0.8479
vn 0.5227 -0.8319 0.1865
vn -0.1992 -0.1685 0.9654
vn 0.0087 -0.3466 0.9380
vn 0.1363 -0.9738 0.1819
vn -0.5102 0.4649 0.7236
vn -0.3888 0.8718 0.2980
vn -0.3483 0.3153 0.8828
vn -0.5215 0.7611 0.3857
vn -0.8293 -0.3511 0.4347
vn -0.9805 -0.0104 -0.1962
vn -0.7795 -0.1825 -0.5992
vn -0.3653 -0.9112 0.1905
vn -0.7140 -0.3171 -0.6242
vn -0.0693 -0.9948 0.0752
vn 0.6361 -0.6874 0.3505
vn -0.1667 -0.0102 -0.9860
vn 0.3626 -0.7895 0.4953
vn -0.8948 0.4040 -0.1901
vn 0.0291 -0.1263 -0.9916
vn 0.8091 -0.4799 -0.3392
vn -0.7892 0.6080 -0.0863
vn -0.3389 0.9407 0.0132
vn -0.4503 0.8837 -0.1273
vn -0.7026 0.7074 0.0766
vn -0.2311 0.4347 -0.8704
vn -0.3255 0.4771 -0.8164
vn -0.4942 -0.8221 0.2827
vn -0.1639 0.0312 0.9860
vn 0.4081 -0.6447 0.6464
vn -0.2068 -0.9353 0.2872
vn 0.4317 -0.6543 0.6209
vn 0.2642 -0.8160 0.5142
vn 0.9750 -0.1165 0.1895
vn -0.0579 -0.4158 0.9076
vn 0.4557 0.8476 0.2718
vn 0.2622 0.7096 0.6540
vn 0.8147 0.4376 0.3804
vn 0.7381 0.6340 0.2307
vn -0.4095 -0.9106 0.0552
vn 0.0463 -0.9326 -0.3579
vn 0.0796 -0.9788 -0.1885
vn 0.4146 -0.1709 -0.8938
vn 0.8029 0.0117 -0.5960
vn 0.3549 -0.8395 -0.4114
vn 0.3931 -0.9190 -0.0293
vn 0.3017 0.8940 -0.3312
vn 0.9306 0.3334 -0.1511
vn 0.0597 0.8038 -0.5919
vn -0.1186 0.5415 -0.8323
vn 0.1973 0.5845 -0.7870
vn 0.2718 0.8619 -0.4280
vn 0.3706 -0.9169 -0.1482
vn 0.6583 0.3939 -0.6414
vn 0.8041 0.5942 0.0159
vn 0.6594 0.1201 -0.7421
vn 0.9485 -0.0893 0.3038
vn 0.0731 0.2345 0.9694
vn 0.0426 0.4551 0.8894
vn -0.7847 0.5560 0.2742
vn -0.5923 0.5175 -0.6175
vn -0.0000 -1.0000 -0.0000
vn 0.0748 0.8812 0.4668
vn -0.9529 -0.0525 0.2988
vn 0.8706 0.3552 0.3404
vn -0.6646 -0.1177 -0.7379
vn 0.5808 0.1806 -0.7937
vn -0.7459 0.5883 0.3122
vn 0.0197 0.0501 0.9986
vn 0.4189 0.3014 -0.8565
vn -0.2441 -0.8044 -0.5416
vn 0.9217 0.1327 0.3645
vn 0.0574 0.0348 0.9977
vn 0.8164 -0.4297 0.3858
vn -0.4774 0.3506 -0.8057
vn 0.0935 0.0420 0.9947
vn 0.4256 -0.2483 -0.8702
vn -0.4977 -0.6213 -0.6053
vn 0.7682 0.4662 -0.4387
vn -0.3349 0.1722 0.9264
vn 0.2392 0.2616 -0.9351
vn -0.5262 -0.7877 0.3204
vn 0.4066 0.6834 -0.6063
vn -0.5354 0.6072 -0.5871
vn -0.6383 0.7540 -0.1548
vn -0.1485 0.2159 0.9651
vn 0.6416 0.6425 0.4190
vn -0.7977 -0.5005 0.3364
vn 0.3072 -0.0813 -0.9482
vn 0.1272 0.9919 -0.0038
vn 0.5715 0.0920 -0.8154
vn -0.9196 0.2570 0.2973
vn 0.9134 -0.0842 0.3983
vn -0.5324 0.2636 -0.8044
vn -0.5581 0.5383 -0.6316
vn -0.7954 0.5640 0.2219
vn 0.0492 0.4080 0.9117
vn 0.9367 0.1617 0.3104
vn 0.5855 0.3763 -0.7180
vn -0.0000 1.0000 -0.0000
vt 0.827113 0.241557
vt 0.822572 0.246156
vt 0.807449 0.244746
vt 0.856393 0.277629
vt 0.850260 0.285559
vt 0.882313 0.306630
vt 0.807409 0.309126
vt 0.833736 0.301172
vt 0.827022 0.327164
vt 0.819877 0.334452
vt 0.854749 0.339303
vt 0.842939 0.348165
vt 0.865968 0.376539
vt 0.851106 0.364700
vt 0.825807 0.281906
vt 0.817731 0.233900
vt 0.809369 0.291779
vt 0.819800 0.327128
vt 0.834991 0.234008
vt 0.829508 0.230947
vt 0.848041 0.239120
vt 0.843584 0.243282
vt 0.860123 0.263311
vt 0.844565 0.330954
vt 0.839308 0.346556
vt 0.875122 0.279125
vt 0.868559 0.272329
vt 0.898591 0.288089
vt 0.898349 0.258921
vt 0.893988 0.254635
vt 0.902587 0.313701
vt 0.914660 0.289746
vt 0.920444 0.316803
vt 0.923511 0.289059
vt 0.870498 0.322872
vt 0.871489 0.372290
vt 0.877989 0.373302
vt 0.904015 0.354286
vt 0.901987 0.340385
vt 0.890918 0.252476
vt 0.867306 0.254307
vt 0.861179 0.293055
vt 0.896855 0.294960
vt 0.873420 0.261205
vt 0.912440 0.241561
vt 0.907753 0.264492
vt 0.901744 0.260815
vt 0.915957 0.318489
vt 0.864100 0.372565
vt 0.891277 0.341660
vt 0.910168 0.341018
vt 0.803731 0.294476
vt 0.917114 0.248270
vt 0.865241 0.454312
vt 0.866862 0.459329
vt 0.871736 0.459494
vt 0.871566 0.453708
vt 0.869704 0.458992
vt 0.868751 0.453401
vt 0.863858 0.458772
vt 0.860792 0.453824
vt 0.868463 0.463941
vt 0.862400 0.465071
vt 0.861841 0.459018
vt 0.858328 0.454405
vt 0.863576 0.447383
vt 0.873458 0.447383
vt 0.868767 0.447383
vt 0.856490 0.447383
vt 0.853389 0.447383
vt 0.863667 0.468407
vt 0.863661 0.470504
vt 0.857144 0.472239
vt 0.856393 0.471067
vt 0.861404 0.464149
vt 0.870162 0.464598
vt 0.865181 0.465455
vt 0.868482 0.475139
vt 0.867586 0.475322
vt 0.868031 0.468472
vt 0.865384 0.467843
vt 0.869484 0.468157
vt 0.854416 0.468026
vt 0.856575 0.468223
vt 0.871330 0.474370
vt 0.871963 0.480200
vt 0.869853 0.480465
vt 0.872583 0.474047
vt 0.870122 0.474716
vt 0.847761 0.476352
vt 0.849619 0.476404
vt 0.857698 0.470512
vt 0.851269 0.478028
vt 0.851373 0.479644
vt 0.854895 0.468762
vt 0.848327 0.477631
vt 0.850339 0.479071
vt 0.872776 0.480078
vt 0.870983 0.480314
vt 0.869248 0.480535
s 0
usemtl Winter_Pack_Texture
f 4/1/1 5/2/1 16/3/1
f 8/4/2 6/5/2 4/1/2
f 9/6/3 6/5/3 8/4/3
f 2/7/4 3/8/4 10/9/4
f 11/10/5 2/7/5 10/9/5
f 11/10/6 12/11/6 13/12/6
f 14/13/7 13/12/7 12/11/7
f 13/12/8 14/13/8 15/14/8
f 22/15/9 18/16/9 17/17/9
f 19/18/10 22/15/10 17/17/10
f 20/19/11 4/1/11 18/16/11
f 21/20/12 23/21/12 20/19/12
f 24/22/13 21/20/13 22/15/13
f 23/21/14 25/23/14 20/19/14
f 24/22/15 23/21/15 21/20/15
f 30/24/16 19/18/16 29/25/16
f 30/24/17 29/25/17 15/14/17
f 9/6/18 8/4/18 31/26/18
f 31/26/19 8/4/19 32/27/19
f 34/28/20 9/6/20 35/29/20
f 35/29/21 9/6/21 31/26/21
f 33/30/22 35/29/22 31/26/22
f 36/31/23 34/28/23 37/32/23
f 39/33/24 37/32/24 41/34/24
f 12/11/25 7/35/25 42/36/25
f 14/13/26 42/36/26 43/37/26
f 42/36/27 7/35/27 36/31/27
f 43/37/28 42/36/28 45/38/28
f 39/33/29 44/39/29 37/32/29
f 46/40/30 32/27/30 25/23/30
f 26/41/31 46/40/31 25/23/31
f 28/42/32 48/43/32 27/44/32
f 40/45/33 33/30/33 46/40/33
f 41/34/34 49/46/34 47/47/34
f 50/48/35 41/34/35 48/43/35
f 51/49/36 15/14/36 14/13/36
f 30/24/37 52/50/37 28/42/37
f 53/51/38 43/37/38 45/38/38
f 53/51/39 48/43/39 52/50/39
f 53/51/40 39/33/40 50/48/40
f 1/52/41 3/8/41 2/7/41
f 1/52/42 5/2/42 3/8/42
f 5/2/43 4/1/43 6/5/43
f 6/5/44 3/8/44 5/2/44
f 25/23/45 8/4/45 4/1/45
f 7/35/46 3/8/46 6/5/46
f 7/35/47 6/5/47 9/6/47
f 25/23/48 32/27/48 8/4/48
f 10/9/49 3/8/49 12/11/49
f 12/11/50 11/10/50 10/9/50
f 12/11/51 3/8/51 7/35/51
f 14/13/52 12/11/52 42/36/52
f 16/3/53 5/2/53 1/52/53
f 1/52/54 17/17/54 16/3/54
f 17/17/55 18/16/55 16/3/55
f 18/16/56 4/1/56 16/3/56
f 22/15/57 21/20/57 18/16/57
f 21/20/58 20/19/58 18/16/58
f 20/19/59 25/23/59 4/1/59
f 22/15/60 28/42/60 24/22/60
f 23/21/61 26/41/61 25/23/61
f 1/52/62 2/7/62 19/18/62 17/17/62
f 28/42/63 27/44/63 24/22/63
f 38/53/64 40/45/64 49/46/64 41/34/64
f 11/10/65 19/18/65 2/7/65
f 13/12/66 29/25/66 11/10/66
f 19/18/67 11/10/67 29/25/67
f 15/14/68 29/25/68 13/12/68
f 22/15/69 30/24/69 28/42/69
f 22/15/70 19/18/70 30/24/70
f 33/30/71 31/26/71 32/27/71
f 36/31/72 9/6/72 34/28/72
f 37/32/73 34/28/73 35/29/73
f 40/45/74 35/29/74 33/30/74
f 38/53/75 37/32/75 35/29/75
f 40/45/76 38/53/76 35/29/76
f 41/34/77 37/32/77 38/53/77
f 36/31/78 7/35/78 9/6/78
f 45/38/79 42/36/79 44/39/79
f 44/39/80 42/36/80 36/31/80
f 37/32/81 44/39/81 36/31/81
f 39/33/82 45/38/82 44/39/82
f 46/40/83 33/30/83 32/27/83
f 47/47/84 46/40/84 26/41/84
f 27/44/85 47/47/85 26/41/85
f 48/43/86 47/47/86 27/44/86
f 48/43/87 41/34/87 47/47/87
f 49/46/88 40/45/88 46/40/88
f 47/47/89 49/46/89 46/40/89
f 43/37/90 52/50/90 51/49/90 14/13/90
f 41/34/91 50/48/91 39/33/91
f 52/50/92 30/24/92 15/14/92
f 52/50/93 15/14/93 51/49/93
f 48/43/94 28/42/94 52/50/94
f 52/50/95 43/37/95 53/51/95
f 26/41/96 23/21/96 24/22/96 27/44/96
f 48/43/97 53/51/97 50/48/97
f 53/51/98 45/38/98 39/33/98
f 96/54/99 55/55/99 57/56/99 97/57/99
f 97/57/100 57/56/100 59/58/100 98/59/100
f 98/59/101 59/58/101 61/60/101 99/61/101
f 61/60/102 59/58/102 66/62/102 67/63/102
f 99/61/103 61/60/103 63/64/103 100/65/103
f 100/65/104 63/64/104 55/55/104 96/54/104
f 54/66/105 56/67/105 58/68/105 60/69/105 62/70/105
f 72/71/106 73/72/106 82/73/106 83/74/106
f 63/64/107 61/60/107 67/63/107 68/75/107
f 59/58/108 57/56/108 64/76/108 66/62/108
f 55/55/109 63/64/109 68/75/109 65/77/109
f 57/56/110 55/55/110 65/77/110 64/76/110
f 73/72/111 72/71/111 77/78/111 78/79/111
f 67/63/112 66/62/112 71/80/112 72/71/112
f 64/76/113 65/77/113 70/81/113 69/82/113
f 65/77/114 68/75/114 79/83/114 81/84/114
f 66/62/115 64/76/115 69/82/115 71/80/115
f 77/78/116 76/85/116 93/86/116 94/87/116
f 71/80/117 69/82/117 74/88/117 76/85/117
f 70/81/118 73/72/118 78/79/118 75/89/118
f 72/71/119 71/80/119 76/85/119 77/78/119
f 69/82/120 70/81/120 75/89/120 74/88/120
f 81/84/121 79/83/121 85/90/121 87/91/121
f 82/73/122 84/92/122 90/93/122 88/94/122
f 67/63/123 72/71/123 83/74/123 80/95/123
f 70/81/124 65/77/124 81/84/124 84/92/124
f 68/75/125 67/63/125 80/95/125 79/83/125
f 73/72/126 70/81/126 84/92/126 82/73/126
f 87/91/127 85/90/127 88/94/127 90/93/127
f 85/90/128 86/96/128 89/97/128 88/94/128
f 80/95/129 83/74/129 89/97/129 86/96/129
f 83/74/130 82/73/130 88/94/130 89/97/130
f 79/83/131 80/95/131 86/96/131 85/90/131
f 84/92/132 81/84/132 87/91/132 90/93/132
f 91/98/133 92/99/133 95/100/133 94/87/133 93/86/133
f 74/88/134 75/89/134 92/99/134 91/98/134
f 78/79/135 77/78/135 94/87/135 95/100/135
f 76/85/136 74/88/136 91/98/136 93/86/136
f 75/89/137 78/79/137 95/100/137 92/99/137
f 62/70/138 100/65/138 96/54/138 54/66/138
f 60/69/139 99/61/139 100/65/139 62/70/139
f 58/68/140 98/59/140 99/61/140 60/69/140
f 56/67/141 97/57/141 98/59/141 58/68/141
f 54/66/142 96/54/142 97/57/142 56/67/142
f 9/6/143 6/5/143 101/5/143 102/6/143
