# Blender 5.0.0
# www.blender.org
mtllib TreeStump.mtl
o TreeStump
v -0.024409 0.253810 -0.252635
v 0.000531 0.473951 -0.062325
v 0.129588 0.253810 -0.224453
v 0.031659 0.473951 -0.053984
v 0.224452 0.253810 -0.129588
v 0.054446 0.473951 -0.031197
v 0.253969 0.253810 0.019429
v 0.062786 0.473951 -0.000070
v 0.232104 0.253810 0.101032
v 0.054446 0.473951 0.031058
v 0.129588 0.253810 0.224452
v 0.031659 0.473951 0.053845
v 0.000000 0.253810 0.259175
v 0.004548 0.473951 0.061109
v -0.162540 0.253810 0.191500
v -0.026314 0.473951 0.048551
v -0.213778 0.253810 0.140262
v -0.053383 0.473951 0.031058
v -0.259175 0.253810 0.000000
v -0.061724 0.473951 -0.000070
v -0.224453 0.253810 -0.129588
v -0.053384 0.473951 -0.031197
v -0.129588 0.253810 -0.224452
v -0.030597 0.473951 -0.053984
v 0.101963 0.479925 -0.176606
v -0.000000 0.479925 -0.203927
v 0.176606 0.479925 -0.101964
v 0.203927 0.479925 -0.000000
v 0.176606 0.479925 0.101963
v 0.101964 0.479925 0.176606
v 0.000000 0.479925 0.203927
v -0.130942 0.479925 0.147627
v -0.176606 0.479925 0.101963
v -0.203927 0.479925 0.000000
v -0.176606 0.479925 -0.101963
v -0.101964 0.479925 -0.176606
v -0.036195 0.029176 -0.382230
v 0.117950 0.038115 -0.284747
v 0.278320 0.034018 -0.101335
v 0.363371 0.018047 0.077248
v 0.337877 0.019937 0.137795
v 0.151975 0.040088 0.263228
v 0.000000 0.040088 0.303950
v -0.229716 0.008267 0.296498
v -0.268537 0.019814 0.196292
v -0.303950 0.040088 0.000000
v -0.263229 0.040088 -0.151975
v -0.113916 0.030159 -0.371378
v 0.017534 -0.020394 -0.389732
v 0.154878 -0.023063 -0.291575
v 0.316842 -0.025283 -0.112401
v 0.391709 -0.028287 0.009942
v 0.309707 -0.028985 0.204700
v 0.150334 -0.023649 0.290745
v -0.001641 -0.023649 0.331466
v -0.194413 -0.026729 0.348912
v -0.308750 -0.025883 0.186768
v -0.341049 -0.023649 -0.005945
v -0.300328 -0.023649 -0.157921
v -0.169257 -0.014421 -0.363650
v 0.579901 -0.028346 0.139255
v -0.080121 -0.029559 -0.646661
v -0.116254 -0.027754 -0.636284
v 0.570237 -0.029287 0.197269
v -0.329619 -0.026253 0.467448
v -0.359217 -0.027412 0.443984
v 0.080136 0.473951 -0.138992
v -0.000071 0.473951 -0.160483
v 0.138851 0.473951 -0.080277
v 0.160342 0.473951 -0.000071
v 0.138851 0.473951 0.080136
v 0.080136 0.473951 0.138851
v -0.000070 0.473951 0.160342
v -0.099071 0.473951 0.120056
v -0.138992 0.473951 0.080136
v -0.160483 0.473951 -0.000070
v -0.138992 0.473951 -0.080277
v -0.080277 0.473951 -0.138992
vn 0.2074 0.2057 -0.9564
vn 0.6882 0.2297 -0.6882
vn 0.9535 0.2103 -0.2159
vn 0.9401 0.2297 0.2519
vn 0.7300 0.2019 0.6529
vn 0.2519 0.2297 0.9401
vn -0.3793 0.2233 0.8979
vn -0.6882 0.2297 0.6882
vn -0.9354 0.2149 0.2808
vn -0.9401 0.2297 -0.2519
vn -0.0000 1.0000 -0.0000
vn -0.6882 0.2297 -0.6882
vn -0.2519 0.2297 -0.9401
vn 0.6348 0.3018 0.7113
vn -0.0365 0.9900 0.1361
vn -0.0995 0.9900 0.0995
vn -0.1358 0.9901 0.0364
vn -0.1357 0.9901 -0.0364
vn -0.0993 0.9901 -0.0993
vn -0.0363 0.9901 -0.1357
vn 0.0587 0.9884 -0.1398
vn 0.0995 0.9900 -0.0995
vn 0.1361 0.9900 -0.0365
vn 0.1362 0.9900 0.0365
vn 0.0997 0.9900 0.0997
vn 0.0365 0.9900 0.1362
vn 0.4828 0.4840 0.7299
vn 0.8510 0.4458 0.2776
vn -0.1762 0.5157 -0.8385
vn 0.3440 0.3563 -0.8687
vn 0.9131 0.2694 -0.3062
vn -0.7560 0.2706 -0.5960
vn 0.7325 0.1203 -0.6701
vn -0.9467 0.1983 -0.2537
vn -0.9408 0.2392 0.2403
vn -0.7871 0.3667 0.4960
vn -0.2033 0.3303 0.9217
vn 0.2537 0.1983 0.9467
vn -0.0051 -1.0000 -0.0083
vn 0.3232 0.8730 0.3652
vn 0.6538 0.4945 -0.5726
vn -0.8157 0.5517 0.1739
vn 0.2394 0.3796 0.8936
vn 0.6768 0.6641 -0.3178
vn -0.8332 0.5058 -0.2233
vn -0.0329 0.6221 0.7823
vn 0.0035 -1.0000 -0.0011
vn -0.6825 0.5751 -0.4511
vn 0.4795 0.4870 -0.7300
vn 0.0009 -1.0000 -0.0062
vn 0.1951 0.9795 0.0500
vn -0.0275 -0.9986 0.0447
vn -0.6327 0.7577 -0.1601
vn -0.7289 0.6704 -0.1390
vn -0.1085 0.9838 0.1427
vn 0.0179 0.8035 0.5951
vn 0.3081 0.8393 -0.4480
vn -0.0160 0.9767 -0.2138
vn 0.6332 0.7266 -0.2666
vt 0.850146 0.435144
vt 0.852677 0.458586
vt 0.863248 0.458586
vt 0.866112 0.435144
vt 0.870987 0.458586
vt 0.875947 0.435144
vt 0.873819 0.458586
vt 0.879007 0.435144
vt 0.876740 0.435144
vt 0.866112 0.435144
vt 0.852677 0.435144
vt 0.839101 0.458586
vt 0.835825 0.435144
vt 0.834367 0.458586
vt 0.830513 0.435144
vt 0.831534 0.458586
vt 0.825806 0.435144
vt 0.829406 0.435144
vt 0.865270 0.570398
vt 0.858601 0.570398
vt 0.851931 0.570398
vt 0.847048 0.570398
vt 0.845262 0.570398
vt 0.852849 0.570398
vt 0.859461 0.570398
vt 0.870153 0.570398
vt 0.871940 0.570398
vt 0.842105 0.458586
vt 0.839241 0.435144
vt 0.868433 0.412986
vt 0.887707 0.410896
vt 0.852669 0.457967
vt 0.860985 0.457967
vt 0.867072 0.457967
vt 0.869300 0.457967
vt 0.842405 0.457967
vt 0.838266 0.457967
vt 0.836038 0.457967
vt 0.844354 0.457967
vt 0.868263 0.406378
vt 0.884786 0.405824
vt 0.890350 0.410700
vt 0.848924 0.411854
vt 0.840866 0.411956
vt 0.864905 0.412781
vt 0.881532 0.412356
vt 0.825386 0.412986
vt 0.821164 0.412986
vt 0.824836 0.410884
vt 0.828860 0.409687
vt 0.852677 0.412986
vt 0.854494 0.406715
vt 0.868734 0.406438
vt 0.885526 0.406208
vt 0.893288 0.405897
vt 0.852506 0.406378
vt 0.832521 0.406058
vt 0.820666 0.406146
vt 0.817318 0.406378
vt 0.821540 0.406378
vt 0.835129 0.407334
vt 0.818503 0.406108
vt 0.815434 0.405987
vt 0.912799 0.405891
vt 0.911797 0.405793
vt 0.840624 0.405952
vt 0.844370 0.405765
vt 0.875657 0.570398
vt 0.858472 0.570398
vt 0.888238 0.570398
vt 0.892842 0.570398
vt 0.837259 0.570398
vt 0.828706 0.570398
vt 0.824101 0.570398
vt 0.841286 0.570398
s 0
usemtl Winter_Pack_Texture
f 1/1/1 26/2/1 25/3/1 3/4/1
f 3/4/2 25/3/2 27/5/2 5/6/2
f 5/6/3 27/5/3 28/7/3 7/8/3
f 7/8/4 28/7/4 29/5/4 9/9/4
f 9/9/5 29/5/5 30/3/5 11/10/5
f 11/10/6 30/3/6 31/2/6 13/11/6
f 13/11/7 31/2/7 32/12/7 15/13/7
f 15/13/8 32/12/8 33/14/8 17/15/8
f 17/15/9 33/14/9 34/16/9 19/17/9
f 19/17/10 34/16/10 35/14/10 21/18/10
f 4/19/11 2/20/11 24/21/11 22/22/11 20/23/11 18/22/11 16/24/11 14/25/11 12/19/11 10/26/11 8/27/11 6/26/11
f 21/18/12 35/14/12 36/28/12 23/29/12
f 23/29/13 36/28/13 26/2/13 1/1/13
f 9/9/14 11/10/14 42/30/14 41/31/14
f 68/32/15 67/33/15 25/3/15 26/2/15
f 67/33/16 69/34/16 27/5/16 25/3/16
f 69/34/17 70/35/17 28/7/17 27/5/17
f 70/35/18 71/34/18 29/5/18 28/7/18
f 71/34/19 72/33/19 30/3/19 29/5/19
f 72/33/20 73/32/20 31/2/20 30/3/20
f 73/32/21 74/36/21 32/12/21 31/2/21
f 74/36/22 75/37/22 33/14/22 32/12/22
f 75/37/23 76/38/23 34/16/23 33/14/23
f 76/38/24 77/37/24 35/14/24 34/16/24
f 77/37/25 78/39/25 36/28/25 35/14/25
f 78/39/26 68/32/26 26/2/26 36/28/26
f 41/31/27 42/30/27 54/40/27 53/41/27
f 7/8/28 9/9/28 41/31/28 40/42/28
f 23/29/29 1/1/29 37/43/29 48/44/29
f 1/1/30 3/4/30 38/45/30 37/43/30
f 5/6/31 7/8/31 40/42/31 39/46/31
f 21/18/32 23/29/32 48/44/32 47/47/32
f 3/4/33 5/6/33 39/46/33 38/45/33
f 19/17/34 21/18/34 47/47/34 46/48/34
f 17/15/35 19/17/35 46/48/35 45/49/35
f 15/13/36 17/15/36 45/49/36 44/50/36
f 13/11/37 15/13/37 44/50/37 43/51/37
f 11/10/38 13/11/38 43/51/38 42/30/38
f 49/52/39 50/53/39 51/54/39 52/55/39 53/41/39 54/40/39 55/56/39 56/57/39 57/58/39 58/59/39 59/60/39 60/61/39
f 56/57/40 44/50/40 65/62/40
f 38/45/41 39/46/41 51/54/41 50/53/41
f 45/49/42 46/48/42 58/59/42 57/58/42
f 42/30/43 43/51/43 55/56/43 54/40/43
f 39/46/44 40/42/44 52/55/44 51/54/44
f 46/48/45 47/47/45 59/60/45 58/59/45
f 43/51/46 44/50/46 56/57/46 55/56/46
f 57/58/47 56/57/47 65/62/47 66/63/47
f 47/47/48 48/44/48 60/61/48 59/60/48
f 37/43/49 38/45/49 50/53/49 49/52/49
f 53/41/50 52/55/50 61/64/50 64/65/50
f 40/42/51 41/31/51 64/65/51 61/64/51
f 49/52/52 60/61/52 63/66/52 62/67/52
f 60/61/53 48/44/53 63/66/53
f 45/49/54 57/58/54 66/63/54
f 44/50/55 45/49/55 66/63/55 65/62/55
f 41/31/56 53/41/56 64/65/56
f 52/55/57 40/42/57 61/64/57
f 48/44/58 37/43/58 62/67/58 63/66/58
f 37/43/59 49/52/59 62/67/59
f 2/20/11 4/19/11 67/68/11 68/69/11
f 4/19/11 6/26/11 69/70/11 67/68/11
f 6/26/11 8/27/11 70/71/11 69/70/11
f 8/27/11 10/26/11 71/70/11 70/71/11
f 10/26/11 12/19/11 72/68/11 71/70/11
f 12/19/11 14/25/11 73/69/11 72/68/11
f 14/25/11 16/24/11 74/72/11 73/69/11
f 16/24/11 18/22/11 75/73/11 74/72/11
f 18/22/11 20/23/11 76/74/11 75/73/11
f 20/23/11 22/22/11 77/73/11 76/74/11
f 22/22/11 24/21/11 78/75/11 77/73/11
f 24/21/11 2/20/11 68/69/11 78/75/11
