# Blender 5.0.0
# www.blender.org
mtllib Tree_pine_B_snow.mtl
o Tree_pine_B_snow
v -0.345354 5.948842 -0.523892
v 0.033253 7.819716 -0.000002
v -0.043186 5.934013 -0.568571
v 0.258982 5.919184 -0.523893
v 0.448721 5.909873 -0.284286
v 0.561151 5.904356 -0.000002
v 0.448721 5.909873 0.284283
v 0.258983 5.919184 0.523890
v -0.043185 5.934013 0.568568
v -0.345354 5.948842 0.523890
v -0.535092 5.958153 0.284284
v -0.647523 5.963671 -0.000001
v -0.535092 5.958153 -0.284286
v -0.643106 5.177792 -0.985017
v -0.665276 5.449944 -1.042467
v -0.045883 5.867500 -0.942294
v -0.056848 5.596973 -1.069022
v 0.537266 5.390929 -1.042468
v 0.493164 5.122029 -0.985018
v 0.769356 5.827492 -0.471148
v 0.868032 5.551586 -0.534512
v 1.138537 5.361423 -0.000002
v 1.061300 5.094149 -0.000002
v 0.769357 5.827493 0.471145
v 0.868033 5.551586 0.534509
v 0.537268 5.390930 1.042465
v 0.493166 5.122030 0.985015
v -0.045882 5.867501 0.942291
v -0.056847 5.596974 1.069020
v -0.665274 5.449944 1.042466
v -0.643105 5.177793 0.985017
v -0.861121 5.907508 0.471146
v -0.981728 5.642363 0.534510
v -1.266545 5.479451 -0.000000
v -1.211239 5.205672 -0.000000
v -0.861122 5.907508 -0.471147
v -0.981728 5.642362 -0.534511
v -0.211448 4.704046 -0.826054
v 0.014187 6.364046 -0.000002
v 0.160499 4.581763 -0.672376
v 0.473990 4.478697 -0.413028
v 0.532446 4.459479 -0.000002
v 0.473991 4.478697 0.413025
v 0.160500 4.581763 0.672373
v -0.211447 4.704047 0.826051
v -0.583393 4.826330 0.672374
v -0.896885 4.929395 0.413026
v -0.955341 4.948614 -0.000001
v -0.896886 4.929395 -0.413027
v -0.583394 4.826330 -0.672375
v -0.268174 3.680874 -1.553139
v -0.257164 4.050451 -1.643724
v 0.404043 4.638011 -1.114330
v 0.479513 4.265316 -1.264196
v 1.165578 3.999138 -0.821863
v 1.076162 3.632390 -0.776571
v 1.047057 4.614821 -0.000002
v 1.209005 4.239006 -0.000002
v 1.165579 3.999139 0.821860
v 1.076163 3.632390 0.776567
v 0.404045 4.638012 1.114328
v 0.479515 4.265316 1.264194
v -0.257162 4.050452 1.643722
v -0.268171 3.680875 1.553138
v -0.881981 4.684394 1.114329
v -0.979468 4.317936 1.264195
v -1.679904 4.101765 0.821862
v -1.612509 3.729361 0.776570
v -1.524995 4.707585 -0.000000
v -1.708961 4.344246 0.000000
v -1.679905 4.101764 -0.821862
v -1.612508 3.729360 -0.776568
v -0.881982 4.684393 -1.114330
v -0.979470 4.317935 -1.264195
v -0.352693 3.545530 -0.855541
v -0.320652 5.464547 -0.000000
v 0.141253 3.545530 -0.928503
v 0.635200 3.545530 -0.855541
v 0.945361 3.545530 -0.464252
v 1.129148 3.545530 -0.000001
v 0.945361 3.545530 0.464251
v 0.635202 3.545530 0.855541
v 0.141255 3.545530 0.928503
v -0.352692 3.545530 0.855541
v -0.662853 3.545530 0.464252
v -0.846639 3.545530 0.000000
v -0.662853 3.545530 -0.464251
v -1.084099 2.297082 -1.608582
v -1.138265 2.739304 -1.702400
v -0.155384 3.470107 -1.538811
v -0.155383 3.027885 -1.745766
v 0.827498 2.739304 -1.702401
v 0.773332 2.297082 -1.608583
v 1.177266 3.470107 -0.769406
v 1.356495 3.027885 -0.872884
v 1.810381 2.739305 -0.000001
v 1.702049 2.297083 -0.000002
v 1.177267 3.470107 0.769406
v 1.356496 3.027886 0.872882
v 0.827500 2.739305 1.702401
v 0.773336 2.297083 1.608582
v -0.155382 3.470108 1.538812
v -0.155381 3.027886 1.745766
v -1.138263 2.739305 1.702402
v -1.084097 2.297083 1.608585
v -1.488032 3.470107 0.769407
v -1.667259 3.027886 0.872884
v -2.121146 2.739305 0.000001
v -2.012813 2.297083 0.000002
v -1.488034 3.470107 -0.769405
v -1.667260 3.027885 -0.872882
v -0.000002 2.248946 -0.633380
v -0.234526 4.492655 -0.000001
v 0.297649 2.248946 -0.515547
v 0.548521 2.248946 -0.316691
v 0.595301 2.248946 -0.000001
v 0.548522 2.248946 0.316689
v 0.297650 2.248946 0.515546
v -0.000001 2.248946 0.633380
v -0.297652 2.248946 0.515546
v -0.548524 2.248946 0.316690
v -0.595303 2.248946 -0.000000
v -0.548525 2.248946 -0.316690
v -0.297653 2.248946 -0.515547
v -0.000003 0.676783 -2.278276
v -0.000003 1.219200 -2.411154
v 0.943729 2.115583 -1.634594
v 1.070654 1.573166 -1.854430
v 2.088117 1.219201 -1.205579
v 1.973043 0.676783 -1.139140
v 1.887463 2.115584 -0.000002
v 2.141309 1.573167 -0.000002
v 2.088119 1.219201 1.205575
v 1.973045 0.676784 1.139136
v 0.943732 2.115584 1.634592
v 1.070656 1.573167 1.854428
v 0.000000 1.219202 2.411153
v 0.000002 0.676784 2.278275
v -0.943734 2.115584 1.634593
v -1.070654 1.573167 1.854430
v -2.088120 1.219201 1.205578
v -1.973046 0.676784 1.139140
v -1.887468 2.115584 0.000001
v -2.141311 1.573167 0.000001
v -2.088122 1.219201 -1.205576
v -1.973046 0.676783 -1.139136
v -0.943736 2.115583 -1.634593
v -1.070657 1.573166 -1.854429
v -0.000002 2.248946 -1.211725
v 0.569436 2.248946 -0.986297
v 1.049382 2.248946 -0.605863
v 1.138876 2.248946 -0.000001
v 1.049383 2.248946 0.605861
v 0.569437 2.248946 0.986295
v -0.000001 2.248947 1.211724
v -0.569439 2.248946 0.986296
v -1.049385 2.248946 0.605862
v -1.138878 2.248946 0.000000
v -1.049386 2.248946 -0.605862
v -0.569440 2.248946 -0.986296
v -0.000003 0.431084 -0.754331
v 0.354488 0.431084 -0.613996
v 0.653267 0.431084 -0.377166
v 0.708979 0.431084 -0.000001
v 0.653268 0.431084 0.377165
v 0.354488 0.431085 0.613995
v -0.000002 0.431085 0.754330
v -0.354492 0.431085 0.613996
v -0.653271 0.431084 0.377166
v -0.708983 0.431084 0.000000
v -0.653271 0.431084 -0.377165
v -0.354493 0.431084 -0.613995
v -0.000003 -0.243106 -0.992836
v 0.466571 -0.243106 -0.808130
v 0.859818 -0.243106 -0.496418
v 0.933146 -0.243105 -0.000001
v 0.859819 -0.243105 0.496417
v 0.466572 -0.243105 0.808129
v -0.000002 -0.243105 0.992836
v -0.466575 -0.243105 0.808130
v -0.859823 -0.243105 0.496419
v -0.933150 -0.243105 0.000001
v -0.859823 -0.243106 -0.496417
v -0.466576 -0.243106 -0.808129
vn -0.0490 -0.9988 -0.0000
vn -0.0733 0.1248 -0.9895
vn 0.0853 0.1184 -0.9893
vn 0.8217 0.0884 -0.5630
vn 0.9009 0.0852 -0.4256
vn 0.9009 0.0852 0.4256
vn 0.8217 0.0884 0.5630
vn 0.0853 0.1184 0.9893
vn -0.0733 0.1248 0.9895
vn -0.8111 0.1548 0.5640
vn -0.8906 0.1581 0.4264
vn -0.8906 0.1580 -0.4264
vn -0.8111 0.1548 -0.5640
vn 0.3940 -0.6631 0.6365
vn -0.6634 0.4564 -0.5929
vn 0.3060 -0.6592 0.6869
vn -0.1494 0.4347 -0.8881
vn 0.1912 0.4204 -0.8870
vn -0.4552 -0.6256 0.6335
vn 0.7020 0.3989 -0.5900
vn -0.3680 -0.6295 0.6844
vn 0.8714 0.3918 -0.2952
vn -0.7901 -0.6109 -0.0504
vn 0.8714 0.3918 0.2952
vn -0.7901 -0.6109 0.0504
vn 0.7020 0.3989 0.5900
vn -0.3680 -0.6295 -0.6844
vn 0.1912 0.4204 0.8870
vn -0.4552 -0.6256 -0.6335
vn -0.1494 0.4347 0.8881
vn 0.3940 -0.6631 -0.6365
vn -0.6634 0.4564 0.5929
vn 0.3060 -0.6592 -0.6869
vn -0.8347 0.4636 0.2971
vn 0.7332 -0.6781 0.0509
vn -0.8347 0.4636 -0.2971
vn 0.7332 -0.6781 -0.0509
vn -0.3123 -0.9500 -0.0000
vn 0.4300 0.1089 -0.8962
vn 0.5673 0.1048 -0.8168
vn 0.9926 0.0921 -0.0793
vn 0.9926 0.0921 0.0793
vn 0.5673 0.1048 0.8168
vn 0.4300 0.1089 0.8962
vn -0.4215 0.1344 0.8968
vn -0.5590 0.1385 0.8175
vn -0.9853 0.1512 0.0795
vn -0.9853 0.1512 -0.0794
vn -0.5590 0.1385 -0.8175
vn -0.4215 0.1344 -0.8968
vn 0.0073 -0.7008 0.7133
vn -0.0912 0.5838 -0.8067
vn -0.1244 -0.6261 0.7698
vn 0.1538 0.5602 -0.8139
vn 0.6465 0.5115 -0.5661
vn -0.7000 -0.6937 0.1694
vn 0.8340 0.4925 -0.2487
vn -0.4945 -0.7452 0.4475
vn 0.8340 0.4925 0.2487
vn -0.4945 -0.7452 -0.4475
vn 0.6465 0.5115 0.5661
vn -0.7000 -0.6937 -0.1694
vn 0.1538 0.5602 0.8139
vn 0.0073 -0.7008 -0.7133
vn -0.0912 0.5838 0.8067
vn -0.1244 -0.6261 -0.7698
vn -0.6283 0.6342 0.4507
vn 0.6486 -0.6466 -0.4016
vn -0.6884 0.6397 0.3418
vn 0.6614 -0.6227 -0.4181
vn -0.6884 0.6397 -0.3418
vn 0.6614 -0.6227 0.4181
vn -0.6283 0.6342 -0.4507
vn 0.6486 -0.6466 0.4016
vn -0.0000 -1.0000 -0.0000
vn -0.0794 0.1217 -0.9894
vn 0.0794 0.1217 -0.9894
vn 0.8171 0.1217 -0.5634
vn 0.8965 0.1217 -0.4259
vn 0.8965 0.1217 0.4259
vn 0.8171 0.1217 0.5634
vn 0.0794 0.1217 0.9894
vn -0.0794 0.1217 0.9894
vn -0.8171 0.1217 0.5634
vn -0.8965 0.1217 0.4259
vn -0.8965 0.1217 -0.4259
vn -0.8171 0.1217 -0.5634
vn 0.4496 -0.7253 0.5214
vn -0.5330 0.5575 -0.6365
vn 0.2663 -0.6986 0.6641
vn -0.2947 0.5683 -0.7682
vn 0.3199 0.5952 -0.7371
vn -0.4051 -0.5869 0.7010
vn 0.4687 0.6016 -0.6469
vn -0.4044 -0.5871 0.7013
vn 0.7862 0.6148 -0.0630
vn -0.8644 -0.4979 0.0701
vn 0.7862 0.6148 0.0630
vn -0.8644 -0.4979 -0.0701
vn 0.4687 0.6016 0.6469
vn -0.4044 -0.5871 -0.7013
vn 0.3199 0.5952 0.7371
vn -0.4051 -0.5869 -0.7010
vn -0.2947 0.5683 0.7682
vn 0.4496 -0.7253 -0.5214
vn -0.5330 0.5575 0.6365
vn 0.2663 -0.6986 -0.6641
vn -0.8235 0.5441 0.1609
vn 0.6409 -0.7514 0.1569
vn -0.8235 0.5441 -0.1609
vn 0.6409 -0.7514 -0.1569
vn 0.3674 0.0617 0.9280
vn 0.4259 0.1217 -0.8965
vn 0.5634 0.1217 -0.8171
vn 0.9894 0.1217 -0.0794
vn 0.9894 0.1217 0.0794
vn 0.5634 0.1217 0.8171
vn 0.4259 0.1217 0.8965
vn -0.4259 0.1217 0.8965
vn -0.5634 0.1217 0.8171
vn -0.9894 0.1217 0.0794
vn -0.9894 0.1217 -0.0794
vn -0.5634 0.1217 -0.8171
vn -0.4259 0.1217 -0.8965
vn 0.0506 -0.6450 0.7625
vn -0.1063 0.5847 -0.8042
vn -0.0506 -0.6450 0.7625
vn 0.0921 0.5948 -0.7986
vn 0.6506 0.6221 -0.4357
vn -0.6857 -0.6450 0.3374
vn 0.6994 0.6244 -0.3478
vn -0.6350 -0.6450 0.4251
vn 0.6994 0.6244 0.3478
vn -0.6350 -0.6450 -0.4251
vn 0.6506 0.6221 0.4357
vn -0.6857 -0.6450 -0.3374
vn 0.0921 0.5948 0.7986
vn 0.0506 -0.6450 -0.7625
vn -0.1063 0.5847 0.8042
vn -0.0506 -0.6450 -0.7625
vn -0.6363 0.5569 0.5338
vn 0.6857 -0.6450 -0.3374
vn -0.7890 0.5486 0.2766
vn 0.6350 -0.6450 -0.4251
vn -0.7890 0.5486 -0.2766
vn 0.6350 -0.6450 0.4251
vn -0.6363 0.5569 -0.5338
vn 0.6857 -0.6450 0.3374
vn -0.9397 0.3125 0.1388
vn 0.9874 0.0617 -0.1458
vn -0.9874 0.0617 -0.1458
vn -0.3674 0.0617 0.9280
vn 0.9874 0.0617 0.1458
vn -0.6200 0.0617 -0.7822
vn 0.3674 0.0617 -0.9280
vn -0.6200 0.0617 0.7822
vn 0.6200 0.0617 0.7822
vn -0.3674 0.0617 -0.9280
vn 0.6200 0.0617 -0.7822
vn -0.9874 0.0617 0.1458
vn 0.3497 0.3125 0.8832
vn 0.9397 0.3125 -0.1388
vn -0.9397 0.3125 -0.1388
vn -0.3497 0.3125 0.8832
vn 0.9397 0.3125 0.1388
vn -0.5901 0.3125 -0.7444
vn 0.3497 0.3125 -0.8832
vn -0.5901 0.3125 0.7444
vn 0.5901 0.3125 0.7444
vn -0.3497 0.3125 -0.8832
vn 0.5901 0.3125 -0.7444
vt 0.034966 0.381146
vt 0.038361 0.381146
vt 0.041756 0.381146
vt 0.043887 0.381146
vt 0.045150 0.381146
vt 0.032834 0.381146
vt 0.031571 0.381146
vt 0.031606 0.378636
vt 0.038361 0.380821
vt 0.038361 0.379499
vt 0.031978 0.377314
vt 0.045116 0.378636
vt 0.044744 0.377314
vt 0.047520 0.380821
vt 0.048752 0.379499
vt 0.051871 0.378636
vt 0.051126 0.377314
vt 0.029202 0.380821
vt 0.027970 0.379499
vt 0.024851 0.378636
vt 0.025595 0.377314
vt 0.038361 0.390361
vt 0.038361 0.374849
vt 0.042718 0.374849
vt 0.046390 0.374849
vt 0.047075 0.374849
vt 0.034004 0.374849
vt 0.030332 0.374849
vt 0.029647 0.374849
vt 0.038361 0.371422
vt 0.045582 0.374405
vt 0.046553 0.372600
vt 0.038361 0.369617
vt 0.054337 0.371422
vt 0.053457 0.369617
vt 0.052802 0.374405
vt 0.054744 0.372600
vt 0.031140 0.374405
vt 0.030169 0.372600
vt 0.022384 0.371422
vt 0.023265 0.369617
vt 0.023919 0.374405
vt 0.021977 0.372600
vt 0.038361 0.387432
vt 0.032817 0.368152
vt 0.038361 0.368152
vt 0.043905 0.368152
vt 0.047386 0.368152
vt 0.049448 0.368152
vt 0.029336 0.368152
vt 0.027273 0.368152
vt 0.027330 0.364053
vt 0.038361 0.367621
vt 0.038361 0.365462
vt 0.027938 0.361894
vt 0.049392 0.364053
vt 0.048784 0.361894
vt 0.053318 0.367621
vt 0.055329 0.365462
vt 0.060423 0.364053
vt 0.059208 0.361894
vt 0.053318 0.367621
vt 0.023404 0.367621
vt 0.021392 0.365462
vt 0.016298 0.364053
vt 0.017514 0.361894
vt 0.038361 0.383200
vt 0.243033 0.874110
vt 0.239258 0.874110
vt 0.239258 0.853155
vt 0.243754 0.853155
vt 0.038361 0.354681
vt 0.048953 0.359057
vt 0.050377 0.356409
vt 0.038361 0.352033
vt 0.061797 0.354681
vt 0.060505 0.352033
vt 0.059545 0.359057
vt 0.062394 0.356409
vt 0.038361 0.352033
vt 0.027769 0.359057
vt 0.026344 0.356409
vt 0.014925 0.354681
vt 0.016217 0.352033
vt 0.017177 0.359057
vt 0.014328 0.356409
vt 0.016217 0.352033
vt 0.044752 0.359708
vt 0.038361 0.359708
vt 0.038361 0.378166
vt 0.031970 0.359708
vt 0.050139 0.359708
vt 0.051143 0.359708
vt 0.026583 0.359708
vt 0.025579 0.359708
vt 0.041702 0.359708
vt 0.044517 0.359708
vt 0.045042 0.359708
vt 0.044517 0.359708
vt 0.035020 0.359708
vt 0.032205 0.359708
vt 0.031680 0.359708
vt 0.230972 0.853155
vt 0.230265 0.853155
vt 0.227422 0.845383
vt 0.228352 0.845383
vt 0.246215 0.874110
vt 0.246808 0.874110
vt 0.248250 0.853155
vt 0.247543 0.853155
vt 0.231707 0.874110
vt 0.232301 0.874110
vt 0.235482 0.874110
vt 0.234762 0.853155
vt 0.246215 0.874110
vt 0.239258 0.845383
vt 0.245175 0.845383
vt 0.250163 0.845383
vt 0.251093 0.845383
vt 0.233340 0.845383
s 0
usemtl Winter_Pack_Texture
f 1/1/1 3/2/1 4/3/1 5/4/1 6/5/1 7/4/1 8/3/1 9/2/1 10/1/1 11/6/1 12/7/1 13/6/1
f 15/8/2 16/9/2 17/10/2 14/11/2
f 16/9/3 18/12/3 19/13/3 17/10/3
f 18/12/4 20/14/4 21/15/4 19/13/4
f 20/14/5 22/16/5 23/17/5 21/15/5
f 22/16/6 24/14/6 25/15/6 23/17/6
f 24/14/7 26/12/7 27/13/7 25/15/7
f 26/12/8 28/9/8 29/10/8 27/13/8
f 28/9/9 30/8/9 31/11/9 29/10/9
f 30/8/10 32/18/10 33/19/10 31/11/10
f 32/18/11 34/20/11 35/21/11 33/19/11
f 34/20/12 36/18/12 37/19/12 35/21/12
f 36/18/13 15/8/13 14/11/13 37/19/13
f 3/2/14 1/1/14 14/11/14 17/10/14
f 36/18/15 2/22/15 15/8/15
f 1/1/16 13/6/16 37/19/16 14/11/16
f 15/8/17 2/22/17 16/9/17
f 16/9/18 2/22/18 18/12/18
f 4/3/19 3/2/19 17/10/19 19/13/19
f 18/12/20 2/22/20 20/14/20
f 5/4/21 4/3/21 19/13/21 21/15/21
f 20/14/22 2/22/22 22/16/22
f 6/5/23 5/4/23 21/15/23 23/17/23
f 22/16/24 2/22/24 24/14/24
f 7/4/25 6/5/25 23/17/25 25/15/25
f 24/14/26 2/22/26 26/12/26
f 8/3/27 7/4/27 25/15/27 27/13/27
f 26/12/28 2/22/28 28/9/28
f 9/2/29 8/3/29 27/13/29 29/10/29
f 28/9/30 2/22/30 30/8/30
f 10/1/31 9/2/31 29/10/31 31/11/31
f 30/8/32 2/22/32 32/18/32
f 11/6/33 10/1/33 31/11/33 33/19/33
f 32/18/34 2/22/34 34/20/34
f 12/7/35 11/6/35 33/19/35 35/21/35
f 34/20/36 2/22/36 36/18/36
f 13/6/37 12/7/37 35/21/37 37/19/37
f 38/23/38 40/24/38 41/25/38 42/26/38 43/25/38 44/24/38 45/23/38 46/27/38 47/28/38 48/29/38 49/28/38 50/27/38
f 52/30/39 53/31/39 54/32/39 51/33/39
f 53/31/40 55/34/40 56/35/40 54/32/40
f 55/34/41 57/36/41 58/37/41 56/35/41
f 57/36/42 59/34/42 60/35/42 58/37/42
f 59/34/43 61/31/43 62/32/43 60/35/43
f 61/31/44 63/30/44 64/33/44 62/32/44
f 63/30/45 65/38/45 66/39/45 64/33/45
f 65/38/46 67/40/46 68/41/46 66/39/46
f 67/40/47 69/42/47 70/43/47 68/41/47
f 69/42/48 71/40/48 72/41/48 70/43/48
f 71/40/49 73/38/49 74/39/49 72/41/49
f 73/38/50 52/30/50 51/33/50 74/39/50
f 40/24/51 38/23/51 51/33/51 54/32/51
f 73/38/52 39/44/52 52/30/52
f 38/23/53 50/27/53 74/39/53 51/33/53
f 52/30/54 39/44/54 53/31/54
f 53/31/55 39/44/55 55/34/55
f 41/25/56 40/24/56 54/32/56 56/35/56
f 55/34/57 39/44/57 57/36/57
f 42/26/58 41/25/58 56/35/58 58/37/58
f 57/36/59 39/44/59 59/34/59
f 43/25/60 42/26/60 58/37/60 60/35/60
f 59/34/61 39/44/61 61/31/61
f 44/24/62 43/25/62 60/35/62 62/32/62
f 61/31/63 39/44/63 63/30/63
f 45/23/64 44/24/64 62/32/64 64/33/64
f 63/30/65 39/44/65 65/38/65
f 46/27/66 45/23/66 64/33/66 66/39/66
f 65/38/67 39/44/67 67/40/67
f 47/28/68 46/27/68 66/39/68 68/41/68
f 67/40/69 39/44/69 69/42/69
f 48/29/70 47/28/70 68/41/70 70/43/70
f 69/42/71 39/44/71 71/40/71
f 49/28/72 48/29/72 70/43/72 72/41/72
f 71/40/73 39/44/73 73/38/73
f 50/27/74 49/28/74 72/41/74 74/39/74
f 75/45/75 77/46/75 78/47/75 79/48/75 80/49/75 81/48/75 82/47/75 83/46/75 84/45/75 85/50/75 86/51/75 87/50/75
f 89/52/76 90/53/76 91/54/76 88/55/76
f 90/53/77 92/56/77 93/57/77 91/54/77
f 92/56/78 94/58/78 95/59/78 93/57/78
f 94/58/79 96/60/79 97/61/79 95/59/79
f 96/60/80 98/62/80 99/59/80 97/61/80
f 98/62/81 100/56/81 101/57/81 99/59/81
f 100/56/82 102/53/82 103/54/82 101/57/82
f 102/53/83 104/52/83 105/55/83 103/54/83
f 104/52/84 106/63/84 107/64/84 105/55/84
f 106/63/85 108/65/85 109/66/85 107/64/85
f 108/65/86 110/63/86 111/64/86 109/66/86
f 110/63/87 89/52/87 88/55/87 111/64/87
f 77/46/88 75/45/88 88/55/88 91/54/88
f 110/63/89 76/67/89 89/52/89
f 75/45/90 87/50/90 111/64/90 88/55/90
f 89/52/91 76/67/91 90/53/91
f 90/53/92 76/67/92 92/56/92
f 78/47/93 77/46/93 91/54/93 93/57/93
f 92/56/94 76/67/94 94/58/94
f 79/48/95 78/47/95 93/57/95 95/59/95
f 94/58/96 76/67/96 96/60/96
f 80/49/97 79/48/97 95/59/97 97/61/97
f 96/60/98 76/67/98 98/62/98
f 81/48/99 80/49/99 97/61/99 99/59/99
f 98/62/100 76/67/100 100/56/100
f 82/47/101 81/48/101 99/59/101 101/57/101
f 100/56/102 76/67/102 102/53/102
f 83/46/103 82/47/103 101/57/103 103/54/103
f 102/53/104 76/67/104 104/52/104
f 84/45/105 83/46/105 103/54/105 105/55/105
f 104/52/106 76/67/106 106/63/106
f 85/50/107 84/45/107 105/55/107 107/64/107
f 106/63/108 76/67/108 108/65/108
f 86/51/109 85/50/109 107/64/109 109/66/109
f 108/65/110 76/67/110 110/63/110
f 87/50/111 86/51/111 109/66/111 111/64/111
f 118/68/112 119/69/112 167/70/112 166/71/112
f 126/72/113 127/73/113 128/74/113 125/75/113
f 127/73/114 129/76/114 130/77/114 128/74/114
f 129/76/115 131/78/115 132/79/115 130/77/115
f 131/78/116 133/76/116 134/77/116 132/79/116
f 133/76/117 135/73/117 136/74/117 134/77/117
f 135/73/118 137/72/118 138/80/118 136/74/118
f 137/72/119 139/81/119 140/82/119 138/80/119
f 139/81/120 141/83/120 142/84/120 140/82/120
f 141/83/121 143/85/121 144/86/121 142/84/121
f 143/85/122 145/83/122 146/87/122 144/86/122
f 145/83/123 147/81/123 148/82/123 146/87/123
f 147/81/124 126/72/124 125/75/124 148/82/124
f 150/88/125 149/89/125 125/75/125 128/74/125
f 147/81/126 113/90/126 126/72/126
f 149/89/127 160/91/127 148/82/127 125/75/127
f 126/72/128 113/90/128 127/73/128
f 127/73/129 113/90/129 129/76/129
f 151/92/130 150/88/130 128/74/130 130/77/130
f 129/76/131 113/90/131 131/78/131
f 152/93/132 151/92/132 130/77/132 132/79/132
f 131/78/133 113/90/133 133/76/133
f 153/92/134 152/93/134 132/79/134 134/77/134
f 133/76/135 113/90/135 135/73/135
f 154/88/136 153/92/136 134/77/136 136/74/136
f 135/73/137 113/90/137 137/72/137
f 155/89/138 154/88/138 136/74/138 138/80/138
f 137/72/139 113/90/139 139/81/139
f 156/91/140 155/89/140 138/80/140 140/82/140
f 139/81/141 113/90/141 141/83/141
f 157/94/142 156/91/142 140/82/142 142/84/142
f 141/83/143 113/90/143 143/85/143
f 158/95/144 157/94/144 142/84/144 144/86/144
f 143/85/145 113/90/145 145/83/145
f 159/94/146 158/95/146 144/86/146 146/87/146
f 145/83/147 113/90/147 147/81/147
f 160/91/148 159/94/148 146/87/148 148/82/148
f 114/96/75 112/89/75 149/89/75 150/88/75
f 115/97/75 114/96/75 150/88/75 151/92/75
f 116/98/75 115/97/75 151/92/75 152/93/75
f 117/99/75 116/98/75 152/93/75 153/92/75
f 118/96/75 117/99/75 153/92/75 154/88/75
f 119/89/75 118/96/75 154/88/75 155/89/75
f 120/100/75 119/89/75 155/89/75 156/91/75
f 121/101/75 120/100/75 156/91/75 157/94/75
f 122/102/75 121/101/75 157/94/75 158/95/75
f 123/101/75 122/102/75 158/95/75 159/94/75
f 124/100/75 123/101/75 159/94/75 160/91/75
f 112/89/75 124/100/75 160/91/75 149/89/75
f 169/103/149 170/104/149 182/105/149 181/106/149
f 115/107/150 116/108/150 164/109/150 163/110/150
f 122/111/151 123/112/151 171/103/151 170/104/151
f 119/69/152 120/113/152 168/114/152 167/70/152
f 116/108/153 117/115/153 165/110/153 164/109/153
f 123/112/154 124/113/154 172/114/154 171/103/154
f 112/69/155 114/68/155 162/71/155 161/70/155
f 120/113/156 121/112/156 169/103/156 168/114/156
f 117/115/157 118/68/157 166/71/157 165/110/157
f 124/113/158 112/69/158 161/70/158 172/114/158
f 114/68/159 115/107/159 163/110/159 162/71/159
f 121/112/160 122/111/160 170/104/160 169/103/160
f 173/116/75 174/117/75 175/118/75 176/119/75 177/118/75 178/117/75 179/116/75 180/120/75 181/106/75 182/105/75 183/106/75 184/120/75
f 166/71/161 167/70/161 179/116/161 178/117/161
f 163/110/162 164/109/162 176/119/162 175/118/162
f 170/104/163 171/103/163 183/106/163 182/105/163
f 167/70/164 168/114/164 180/120/164 179/116/164
f 164/109/165 165/110/165 177/118/165 176/119/165
f 171/103/166 172/114/166 184/120/166 183/106/166
f 161/70/167 162/71/167 174/117/167 173/116/167
f 168/114/168 169/103/168 181/106/168 180/120/168
f 165/110/169 166/71/169 178/117/169 177/118/169
f 172/114/170 161/70/170 173/116/170 184/120/170
f 162/71/171 163/110/171 175/118/171 174/117/171
