# Blender 5.0.0
# www.blender.org
mtllib Tree_pine_A_snow.mtl
o Tree_pine_A_snow
v -0.302469 6.640234 -0.523892
v -0.000000 8.527811 -0.000002
v -0.000001 6.640234 -0.568571
v 0.302467 6.640234 -0.523893
v 0.492394 6.640234 -0.284286
v 0.604936 6.640234 -0.000002
v 0.492394 6.640234 0.284283
v 0.302468 6.640234 0.523890
v 0.000000 6.640234 0.568568
v -0.302468 6.640234 0.523890
v -0.492395 6.640234 0.284284
v -0.604937 6.640234 -0.000001
v -0.492395 6.640234 -0.284286
v -0.568699 5.855352 -0.985018
v -0.601868 6.126147 -1.042467
v -0.000001 6.573655 -0.942294
v -0.000001 6.302860 -1.069023
v 0.601866 6.126147 -1.042468
v 0.568697 5.855352 -0.985019
v 0.816046 6.573656 -0.471148
v 0.925797 6.302861 -0.534512
v 1.203734 6.126148 -0.000002
v 1.137397 5.855353 -0.000002
v 0.816047 6.573656 0.471145
v 0.925798 6.302861 0.534509
v 0.601867 6.126148 1.042465
v 0.568699 5.855353 0.985015
v -0.000000 6.573656 0.942291
v 0.000001 6.302861 1.069020
v -0.601867 6.126148 1.042466
v -0.568698 5.855353 0.985017
v -0.816048 6.573656 0.471146
v -0.925797 6.302861 0.534510
v -1.203735 6.126148 -0.000001
v -1.137397 5.855353 -0.000000
v -0.816049 6.573656 -0.471147
v -0.925798 6.302861 -0.534511
v -0.000002 5.350367 -0.826054
v -0.000001 7.927886 -0.000002
v 0.388193 5.350368 -0.672376
v 0.715379 5.350368 -0.413028
v 0.776388 5.350368 -0.000002
v 0.715380 5.350368 0.413025
v 0.388194 5.350368 0.672373
v -0.000000 5.350368 0.826051
v -0.388195 5.350368 0.672373
v -0.715381 5.350368 0.413025
v -0.776390 5.350368 -0.000001
v -0.715382 5.350368 -0.413027
v -0.388196 5.350368 -0.672375
v -0.000002 4.278598 -1.553139
v -0.000002 4.648373 -1.643724
v 0.643355 5.259452 -1.114331
v 0.729881 4.889677 -1.264197
v 1.423501 4.648373 -0.821864
v 1.345053 4.278598 -0.776571
v 1.286712 5.259452 -0.000002
v 1.459763 4.889678 -0.000002
v 1.423502 4.648374 0.821859
v 1.345054 4.278599 0.776567
v 0.643356 5.259453 1.114327
v 0.729882 4.889678 1.264193
v 0.000000 4.648374 1.643722
v 0.000002 4.278599 1.553137
v -0.643358 5.259453 1.114328
v -0.729881 4.889678 1.264194
v -1.423503 4.648374 0.821861
v -1.345055 4.278599 0.776570
v -1.286715 5.259452 -0.000000
v -1.459764 4.889678 -0.000000
v -1.423504 4.648373 -0.821862
v -1.345055 4.278598 -0.776569
v -0.643359 5.259452 -1.114330
v -0.729883 4.889677 -1.264196
v -0.493948 3.978492 -0.855541
v -0.000002 7.061002 -0.000001
v -0.000002 3.978492 -0.928503
v 0.493944 3.978492 -0.855542
v 0.804103 3.978492 -0.464252
v 0.987890 3.978492 -0.000001
v 0.804104 3.978492 0.464251
v 0.493945 3.978492 0.855541
v -0.000001 3.978492 0.928503
v -0.493946 3.978492 0.855541
v -0.804107 3.978492 0.464252
v -0.987893 3.978492 0.000000
v -0.804107 3.978492 -0.464251
v -0.928716 2.696740 -1.608582
v -0.982882 3.138962 -1.702400
v -0.000003 3.869764 -1.538812
v -0.000002 3.427543 -1.745767
v 0.982877 3.138962 -1.702402
v 0.928711 2.696740 -1.608584
v 1.332644 3.869764 -0.769406
v 1.511873 3.427543 -0.872884
v 1.965757 3.138962 -0.000001
v 1.857426 2.696740 -0.000002
v 1.332645 3.869765 0.769405
v 1.511874 3.427543 0.872882
v 0.982879 3.138963 1.702400
v 0.928715 2.696741 1.608581
v -0.000001 3.869765 1.538812
v 0.000001 3.427544 1.745766
v -0.982880 3.138963 1.702402
v -0.928714 2.696741 1.608585
v -1.332648 3.869765 0.769407
v -1.511875 3.427543 0.872884
v -1.965760 3.138962 0.000001
v -1.857428 2.696740 0.000002
v -1.332649 3.869764 -0.769405
v -1.511876 3.427543 -0.872883
v -0.000002 2.248946 -0.633380
v -0.000001 6.029871 -0.000001
v 0.297648 2.248946 -0.515547
v 0.548520 2.248946 -0.316691
v 0.595300 2.248946 -0.000001
v 0.548521 2.248946 0.316689
v 0.297649 2.248946 0.515546
v -0.000001 2.248946 0.633380
v -0.297651 2.248946 0.515546
v -0.548523 2.248946 0.316690
v -0.595302 2.248946 -0.000000
v -0.548523 2.248946 -0.316690
v -0.297652 2.248946 -0.515547
v -0.000003 0.676783 -2.278276
v -0.000003 1.219200 -2.411154
v 0.943727 2.115583 -1.634594
v 1.070651 1.573166 -1.854430
v 2.088113 1.219201 -1.205579
v 1.973038 0.676783 -1.139140
v 1.887459 2.115584 -0.000002
v 2.141305 1.573167 -0.000002
v 2.088115 1.219201 1.205575
v 1.973040 0.676784 1.139136
v 0.943730 2.115584 1.634592
v 1.070654 1.573167 1.854428
v 0.000000 1.219202 2.411153
v 0.000002 0.676784 2.278275
v -0.943732 2.115584 1.634593
v -1.070652 1.573167 1.854430
v -2.088115 1.219201 1.205578
v -1.973042 0.676784 1.139140
v -1.887463 2.115584 0.000001
v -2.141306 1.573167 0.000001
v -2.088117 1.219201 -1.205576
v -1.973042 0.676783 -1.139136
v -0.943734 2.115583 -1.634593
v -1.070654 1.573166 -1.854429
v -0.000002 2.248946 -1.211725
v 0.569435 2.248946 -0.986297
v 1.049380 2.248946 -0.605863
v 1.138873 2.248946 -0.000001
v 1.049381 2.248946 0.605861
v 0.569436 2.248946 0.986295
v -0.000001 2.248947 1.211724
v -0.569438 2.248946 0.986296
v -1.049382 2.248946 0.605862
v -1.138876 2.248946 0.000000
v -1.049383 2.248946 -0.605862
v -0.569439 2.248946 -0.986296
v -0.000003 0.431084 -0.754331
v 0.354487 0.431084 -0.613996
v 0.653266 0.431084 -0.377166
v 0.708978 0.431084 -0.000001
v 0.653266 0.431084 0.377165
v 0.354488 0.431085 0.613995
v -0.000002 0.431085 0.754330
v -0.354491 0.431085 0.613996
v -0.653270 0.431084 0.377166
v -0.708982 0.431084 0.000000
v -0.653270 0.431084 -0.377165
v -0.354492 0.431084 -0.613995
v -0.000003 -0.243106 -0.992836
v 0.466570 -0.243106 -0.808130
v 0.859816 -0.243106 -0.496418
v 0.933144 -0.243105 -0.000001
v 0.859817 -0.243105 0.496417
v 0.466571 -0.243105 0.808129
v -0.000002 -0.243105 0.992836
v -0.466574 -0.243105 0.808130
v -0.859821 -0.243105 0.496419
v -0.933148 -0.243105 0.000001
v -0.859821 -0.243106 -0.496417
v -0.466575 -0.243106 -0.808129
vn -0.0000 -1.0000 -0.0000
vn -0.0794 0.1217 -0.9894
vn 0.0794 0.1217 -0.9894
vn 0.8171 0.1217 -0.5634
vn 0.8965 0.1217 -0.4259
vn 0.8965 0.1217 0.4259
vn 0.8171 0.1217 0.5634
vn 0.0794 0.1217 0.9894
vn -0.0794 0.1217 0.9894
vn -0.8171 0.1217 0.5634
vn -0.8965 0.1217 0.4259
vn -0.8965 0.1217 -0.4259
vn -0.8171 0.1217 -0.5634
vn 0.4251 -0.6450 0.6350
vn -0.6834 0.4280 -0.5914
vn 0.3374 -0.6450 0.6857
vn -0.1705 0.4280 -0.8876
vn 0.1705 0.4280 -0.8876
vn -0.4251 -0.6450 0.6350
vn 0.6834 0.4280 -0.5914
vn -0.3374 -0.6450 0.6857
vn 0.8539 0.4280 -0.2961
vn -0.7625 -0.6450 -0.0506
vn 0.8539 0.4280 0.2961
vn -0.7625 -0.6450 0.0506
vn 0.6834 0.4280 0.5914
vn -0.3374 -0.6450 -0.6857
vn 0.1705 0.4280 0.8876
vn -0.4251 -0.6450 -0.6350
vn -0.1705 0.4280 0.8876
vn 0.4251 -0.6450 -0.6350
vn -0.6834 0.4280 0.5914
vn 0.3374 -0.6450 -0.6857
vn -0.8539 0.4280 0.2961
vn 0.7625 -0.6450 0.0506
vn -0.8539 0.4280 -0.2961
vn 0.7625 -0.6450 -0.0506
vn 0.4259 0.1217 -0.8965
vn 0.5634 0.1217 -0.8171
vn 0.9894 0.1217 -0.0794
vn 0.9894 0.1217 0.0794
vn 0.5634 0.1217 0.8171
vn 0.4259 0.1217 0.8965
vn -0.4259 0.1217 0.8965
vn -0.5634 0.1217 0.8171
vn -0.9894 0.1217 0.0794
vn -0.9894 0.1217 -0.0794
vn -0.5634 0.1217 -0.8171
vn -0.4259 0.1217 -0.8965
vn 0.0506 -0.6450 0.7625
vn -0.2961 0.4280 -0.8539
vn -0.0506 -0.6450 0.7625
vn 0.2961 0.4280 -0.8539
vn 0.5914 0.4280 -0.6834
vn -0.6857 -0.6450 0.3374
vn 0.8876 0.4280 -0.1705
vn -0.6350 -0.6450 0.4251
vn 0.8876 0.4280 0.1705
vn -0.6350 -0.6450 -0.4251
vn 0.5914 0.4280 0.6834
vn -0.6857 -0.6450 -0.3374
vn 0.2961 0.4280 0.8539
vn 0.0506 -0.6450 -0.7625
vn -0.2961 0.4280 0.8539
vn -0.0506 -0.6450 -0.7625
vn -0.5914 0.4280 0.6834
vn 0.6857 -0.6450 -0.3374
vn -0.8876 0.4280 0.1705
vn 0.6350 -0.6450 -0.4251
vn -0.8876 0.4280 -0.1705
vn 0.6350 -0.6450 0.4251
vn -0.5914 0.4280 -0.6834
vn 0.6857 -0.6450 0.3374
vn 0.3674 0.0617 0.9280
vn -0.9397 0.3125 0.1388
vn 0.9874 0.0617 -0.1458
vn -0.9874 0.0617 -0.1458
vn -0.3674 0.0617 0.9280
vn 0.9874 0.0617 0.1458
vn -0.6200 0.0617 -0.7822
vn 0.3674 0.0617 -0.9280
vn -0.6200 0.0617 0.7822
vn 0.6200 0.0617 0.7822
vn -0.3674 0.0617 -0.9280
vn 0.6200 0.0617 -0.7822
vn -0.9874 0.0617 0.1458
vn 0.3497 0.3125 0.8832
vn 0.9397 0.3125 -0.1388
vn -0.9397 0.3125 -0.1388
vn -0.3497 0.3125 0.8832
vn 0.9397 0.3125 0.1388
vn -0.5901 0.3125 -0.7444
vn 0.3497 0.3125 -0.8832
vn -0.5901 0.3125 0.7444
vn 0.5901 0.3125 0.7444
vn -0.3497 0.3125 -0.8832
vn 0.5901 0.3125 -0.7444
vt 0.034966 0.381146
vt 0.038361 0.381146
vt 0.041756 0.381146
vt 0.043887 0.381146
vt 0.045150 0.381146
vt 0.032834 0.381146
vt 0.031571 0.381146
vt 0.031606 0.378636
vt 0.038361 0.380821
vt 0.038361 0.379499
vt 0.031978 0.377314
vt 0.045116 0.378636
vt 0.044744 0.377314
vt 0.047520 0.380821
vt 0.048752 0.379499
vt 0.051871 0.378636
vt 0.051126 0.377314
vt 0.029202 0.380821
vt 0.027970 0.379499
vt 0.024851 0.378636
vt 0.025595 0.377314
vt 0.038361 0.390361
vt 0.038361 0.374849
vt 0.042718 0.374849
vt 0.046390 0.374849
vt 0.047075 0.374849
vt 0.034004 0.374849
vt 0.030332 0.374849
vt 0.029647 0.374849
vt 0.038361 0.371422
vt 0.045582 0.374405
vt 0.046553 0.372600
vt 0.038361 0.369617
vt 0.054337 0.371422
vt 0.053457 0.369617
vt 0.052802 0.374405
vt 0.054744 0.372600
vt 0.031140 0.374405
vt 0.030169 0.372600
vt 0.022384 0.371422
vt 0.023265 0.369617
vt 0.023919 0.374405
vt 0.021977 0.372600
vt 0.038361 0.387432
vt 0.032817 0.368152
vt 0.038361 0.368152
vt 0.043905 0.368152
vt 0.047386 0.368152
vt 0.049448 0.368152
vt 0.029336 0.368152
vt 0.027273 0.368152
vt 0.027330 0.364053
vt 0.038361 0.367621
vt 0.038361 0.365462
vt 0.027938 0.361894
vt 0.049392 0.364053
vt 0.048784 0.361894
vt 0.053318 0.367621
vt 0.055329 0.365462
vt 0.060423 0.364053
vt 0.059208 0.361894
vt 0.053318 0.367621
vt 0.023404 0.367621
vt 0.021392 0.365462
vt 0.016298 0.364053
vt 0.017514 0.361894
vt 0.038361 0.383200
vt 0.243033 0.874110
vt 0.239258 0.874110
vt 0.239258 0.853155
vt 0.243754 0.853155
vt 0.038361 0.354681
vt 0.048953 0.359057
vt 0.050377 0.356409
vt 0.038361 0.352033
vt 0.061797 0.354681
vt 0.060505 0.352033
vt 0.059545 0.359057
vt 0.062394 0.356409
vt 0.038361 0.352033
vt 0.027769 0.359057
vt 0.026344 0.356409
vt 0.014925 0.354681
vt 0.016217 0.352033
vt 0.017177 0.359057
vt 0.014328 0.356409
vt 0.016217 0.352033
vt 0.044752 0.359708
vt 0.038361 0.359708
vt 0.038361 0.378166
vt 0.031970 0.359708
vt 0.050139 0.359708
vt 0.051143 0.359708
vt 0.026583 0.359708
vt 0.025579 0.359708
vt 0.041702 0.359708
vt 0.044517 0.359708
vt 0.045042 0.359708
vt 0.044517 0.359708
vt 0.035020 0.359708
vt 0.032205 0.359708
vt 0.031680 0.359708
vt 0.230972 0.853155
vt 0.230265 0.853155
vt 0.227422 0.845383
vt 0.228352 0.845383
vt 0.246215 0.874110
vt 0.246808 0.874110
vt 0.248250 0.853155
vt 0.247543 0.853155
vt 0.231707 0.874110
vt 0.232301 0.874110
vt 0.235482 0.874110
vt 0.234762 0.853155
vt 0.246215 0.874110
vt 0.239258 0.845383
vt 0.245175 0.845383
vt 0.250163 0.845383
vt 0.251093 0.845383
vt 0.233340 0.845383
s 0
usemtl Winter_Pack_Texture
f 1/1/1 3/2/1 4/3/1 5/4/1 6/5/1 7/4/1 8/3/1 9/2/1 10/1/1 11/6/1 12/7/1 13/6/1
f 15/8/2 16/9/2 17/10/2 14/11/2
f 16/9/3 18/12/3 19/13/3 17/10/3
f 18/12/4 20/14/4 21/15/4 19/13/4
f 20/14/5 22/16/5 23/17/5 21/15/5
f 22/16/6 24/14/6 25/15/6 23/17/6
f 24/14/7 26/12/7 27/13/7 25/15/7
f 26/12/8 28/9/8 29/10/8 27/13/8
f 28/9/9 30/8/9 31/11/9 29/10/9
f 30/8/10 32/18/10 33/19/10 31/11/10
f 32/18/11 34/20/11 35/21/11 33/19/11
f 34/20/12 36/18/12 37/19/12 35/21/12
f 36/18/13 15/8/13 14/11/13 37/19/13
f 3/2/14 1/1/14 14/11/14 17/10/14
f 36/18/15 2/22/15 15/8/15
f 1/1/16 13/6/16 37/19/16 14/11/16
f 15/8/17 2/22/17 16/9/17
f 16/9/18 2/22/18 18/12/18
f 4/3/19 3/2/19 17/10/19 19/13/19
f 18/12/20 2/22/20 20/14/20
f 5/4/21 4/3/21 19/13/21 21/15/21
f 20/14/22 2/22/22 22/16/22
f 6/5/23 5/4/23 21/15/23 23/17/23
f 22/16/24 2/22/24 24/14/24
f 7/4/25 6/5/25 23/17/25 25/15/25
f 24/14/26 2/22/26 26/12/26
f 8/3/27 7/4/27 25/15/27 27/13/27
f 26/12/28 2/22/28 28/9/28
f 9/2/29 8/3/29 27/13/29 29/10/29
f 28/9/30 2/22/30 30/8/30
f 10/1/31 9/2/31 29/10/31 31/11/31
f 30/8/32 2/22/32 32/18/32
f 11/6/33 10/1/33 31/11/33 33/19/33
f 32/18/34 2/22/34 34/20/34
f 12/7/35 11/6/35 33/19/35 35/21/35
f 34/20/36 2/22/36 36/18/36
f 13/6/37 12/7/37 35/21/37 37/19/37
f 38/23/1 40/24/1 41/25/1 42/26/1 43/25/1 44/24/1 45/23/1 46/27/1 47/28/1 48/29/1 49/28/1 50/27/1
f 52/30/38 53/31/38 54/32/38 51/33/38
f 53/31/39 55/34/39 56/35/39 54/32/39
f 55/34/40 57/36/40 58/37/40 56/35/40
f 57/36/41 59/34/41 60/35/41 58/37/41
f 59/34/42 61/31/42 62/32/42 60/35/42
f 61/31/43 63/30/43 64/33/43 62/32/43
f 63/30/44 65/38/44 66/39/44 64/33/44
f 65/38/45 67/40/45 68/41/45 66/39/45
f 67/40/46 69/42/46 70/43/46 68/41/46
f 69/42/47 71/40/47 72/41/47 70/43/47
f 71/40/48 73/38/48 74/39/48 72/41/48
f 73/38/49 52/30/49 51/33/49 74/39/49
f 40/24/50 38/23/50 51/33/50 54/32/50
f 73/38/51 39/44/51 52/30/51
f 38/23/52 50/27/52 74/39/52 51/33/52
f 52/30/53 39/44/53 53/31/53
f 53/31/54 39/44/54 55/34/54
f 41/25/55 40/24/55 54/32/55 56/35/55
f 55/34/56 39/44/56 57/36/56
f 42/26/57 41/25/57 56/35/57 58/37/57
f 57/36/58 39/44/58 59/34/58
f 43/25/59 42/26/59 58/37/59 60/35/59
f 59/34/60 39/44/60 61/31/60
f 44/24/61 43/25/61 60/35/61 62/32/61
f 61/31/62 39/44/62 63/30/62
f 45/23/63 44/24/63 62/32/63 64/33/63
f 63/30/64 39/44/64 65/38/64
f 46/27/65 45/23/65 64/33/65 66/39/65
f 65/38/66 39/44/66 67/40/66
f 47/28/67 46/27/67 66/39/67 68/41/67
f 67/40/68 39/44/68 69/42/68
f 48/29/69 47/28/69 68/41/69 70/43/69
f 69/42/70 39/44/70 71/40/70
f 49/28/71 48/29/71 70/43/71 72/41/71
f 71/40/72 39/44/72 73/38/72
f 50/27/73 49/28/73 72/41/73 74/39/73
f 75/45/1 77/46/1 78/47/1 79/48/1 80/49/1 81/48/1 82/47/1 83/46/1 84/45/1 85/50/1 86/51/1 87/50/1
f 89/52/2 90/53/2 91/54/2 88/55/2
f 90/53/3 92/56/3 93/57/3 91/54/3
f 92/56/4 94/58/4 95/59/4 93/57/4
f 94/58/5 96/60/5 97/61/5 95/59/5
f 96/60/6 98/62/6 99/59/6 97/61/6
f 98/62/7 100/56/7 101/57/7 99/59/7
f 100/56/8 102/53/8 103/54/8 101/57/8
f 102/53/9 104/52/9 105/55/9 103/54/9
f 104/52/10 106/63/10 107/64/10 105/55/10
f 106/63/11 108/65/11 109/66/11 107/64/11
f 108/65/12 110/63/12 111/64/12 109/66/12
f 110/63/13 89/52/13 88/55/13 111/64/13
f 77/46/14 75/45/14 88/55/14 91/54/14
f 110/63/15 76/67/15 89/52/15
f 75/45/16 87/50/16 111/64/16 88/55/16
f 89/52/17 76/67/17 90/53/17
f 90/53/18 76/67/18 92/56/18
f 78/47/19 77/46/19 91/54/19 93/57/19
f 92/56/20 76/67/20 94/58/20
f 79/48/21 78/47/21 93/57/21 95/59/21
f 94/58/22 76/67/22 96/60/22
f 80/49/23 79/48/23 95/59/23 97/61/23
f 96/60/24 76/67/24 98/62/24
f 81/48/25 80/49/25 97/61/25 99/59/25
f 98/62/26 76/67/26 100/56/26
f 82/47/27 81/48/27 99/59/27 101/57/27
f 100/56/28 76/67/28 102/53/28
f 83/46/29 82/47/29 101/57/29 103/54/29
f 102/53/30 76/67/30 104/52/30
f 84/45/31 83/46/31 103/54/31 105/55/31
f 104/52/32 76/67/32 106/63/32
f 85/50/33 84/45/33 105/55/33 107/64/33
f 106/63/34 76/67/34 108/65/34
f 86/51/35 85/50/35 107/64/35 109/66/35
f 108/65/36 76/67/36 110/63/36
f 87/50/37 86/51/37 109/66/37 111/64/37
f 118/68/74 119/69/74 167/70/74 166/71/74
f 126/72/38 127/73/38 128/74/38 125/75/38
f 127/73/39 129/76/39 130/77/39 128/74/39
f 129/76/40 131/78/40 132/79/40 130/77/40
f 131/78/41 133/76/41 134/77/41 132/79/41
f 133/76/42 135/73/42 136/74/42 134/77/42
f 135/73/43 137/72/43 138/80/43 136/74/43
f 137/72/44 139/81/44 140/82/44 138/80/44
f 139/81/45 141/83/45 142/84/45 140/82/45
f 141/83/46 143/85/46 144/86/46 142/84/46
f 143/85/47 145/83/47 146/87/47 144/86/47
f 145/83/48 147/81/48 148/82/48 146/87/48
f 147/81/49 126/72/49 125/75/49 148/82/49
f 150/88/50 149/89/50 125/75/50 128/74/50
f 147/81/51 113/90/51 126/72/51
f 149/89/52 160/91/52 148/82/52 125/75/52
f 126/72/53 113/90/53 127/73/53
f 127/73/54 113/90/54 129/76/54
f 151/92/55 150/88/55 128/74/55 130/77/55
f 129/76/56 113/90/56 131/78/56
f 152/93/57 151/92/57 130/77/57 132/79/57
f 131/78/58 113/90/58 133/76/58
f 153/92/59 152/93/59 132/79/59 134/77/59
f 133/76/60 113/90/60 135/73/60
f 154/88/61 153/92/61 134/77/61 136/74/61
f 135/73/62 113/90/62 137/72/62
f 155/89/63 154/88/63 136/74/63 138/80/63
f 137/72/64 113/90/64 139/81/64
f 156/91/65 155/89/65 138/80/65 140/82/65
f 139/81/66 113/90/66 141/83/66
f 157/94/67 156/91/67 140/82/67 142/84/67
f 141/83/68 113/90/68 143/85/68
f 158/95/69 157/94/69 142/84/69 144/86/69
f 143/85/70 113/90/70 145/83/70
f 159/94/71 158/95/71 144/86/71 146/87/71
f 145/83/72 113/90/72 147/81/72
f 160/91/73 159/94/73 146/87/73 148/82/73
f 114/96/1 112/89/1 149/89/1 150/88/1
f 115/97/1 114/96/1 150/88/1 151/92/1
f 116/98/1 115/97/1 151/92/1 152/93/1
f 117/99/1 116/98/1 152/93/1 153/92/1
f 118/96/1 117/99/1 153/92/1 154/88/1
f 119/89/1 118/96/1 154/88/1 155/89/1
f 120/100/1 119/89/1 155/89/1 156/91/1
f 121/101/1 120/100/1 156/91/1 157/94/1
f 122/102/1 121/101/1 157/94/1 158/95/1
f 123/101/1 122/102/1 158/95/1 159/94/1
f 124/100/1 123/101/1 159/94/1 160/91/1
f 112/89/1 124/100/1 160/91/1 149/89/1
f 169/103/75 170/104/75 182/105/75 181/106/75
f 115/107/76 116/108/76 164/109/76 163/110/76
f 122/111/77 123/112/77 171/103/77 170/104/77
f 119/69/78 120/113/78 168/114/78 167/70/78
f 116/108/79 117/115/79 165/110/79 164/109/79
f 123/112/80 124/113/80 172/114/80 171/103/80
f 112/69/81 114/68/81 162/71/81 161/70/81
f 120/113/82 121/112/82 169/103/82 168/114/82
f 117/115/83 118/68/83 166/71/83 165/110/83
f 124/113/84 112/69/84 161/70/84 172/114/84
f 114/68/85 115/107/85 163/110/85 162/71/85
f 121/112/86 122/111/86 170/104/86 169/103/86
f 173/116/1 174/117/1 175/118/1 176/119/1 177/118/1 178/117/1 179/116/1 180/120/1 181/106/1 182/105/1 183/106/1 184/120/1
f 166/71/87 167/70/87 179/116/87 178/117/87
f 163/110/88 164/109/88 176/119/88 175/118/88
f 170/104/89 171/103/89 183/106/89 182/105/89
f 167/70/90 168/114/90 180/120/90 179/116/90
f 164/109/91 165/110/91 177/118/91 176/119/91
f 171/103/92 172/114/92 184/120/92 183/106/92
f 161/70/93 162/71/93 174/117/93 173/116/93
f 168/114/94 169/103/94 181/106/94 180/120/94
f 165/110/95 166/71/95 178/117/95 177/118/95
f 172/114/96 161/70/96 173/116/96 184/120/96
f 162/71/97 163/110/97 175/118/97 174/117/97
