# Blender 5.0.0
# www.blender.org
mtllib Tree_oak_bare.mtl
o Tree_oak_bare
v -0.101419 -0.274234 -1.604877
v 0.223429 1.560522 -0.691099
v 1.416254 -0.274234 -0.459633
v 1.000451 1.562073 -0.003669
v 0.695893 -0.274234 1.708368
v 0.839730 1.508697 1.036552
v -1.189724 -0.274234 1.755264
v -0.284356 1.403162 1.039423
v -1.665956 -0.274234 -0.229620
v -0.546396 1.472244 0.115291
v 1.126966 2.326401 -0.003557
v 0.145095 2.501384 -0.444185
v 0.978142 2.337300 0.944371
v -0.281994 2.442380 0.612561
v -0.435027 2.300739 0.039925
v 1.163275 2.835073 0.085520
v 0.375334 3.152723 -0.293970
v 0.911700 3.033240 0.856591
v -0.087413 2.954714 0.637221
v -0.027948 3.414050 0.076543
v 1.402766 3.518350 0.029881
v 0.894736 3.656409 -0.316765
v 1.143988 3.584898 0.627329
v 0.556162 3.743794 0.669804
v 0.371218 3.781518 0.070830
v -1.508209 2.896231 -0.285531
v -1.434693 3.009269 0.139982
v -1.176534 2.926475 -0.555201
v -1.089280 3.543250 -0.313221
v -1.204573 3.363201 0.107861
v -1.004097 3.277930 -0.520845
v -2.492447 4.212031 -0.725312
v -2.405581 4.408539 -0.310093
v -2.207122 4.220012 -1.002226
v -1.937769 4.717672 -0.733159
v -2.096539 4.629657 -0.323611
v -1.953821 4.469491 -0.950200
v 1.474905 4.285807 0.122948
v 0.995594 4.348735 -0.197856
v 1.257617 4.318395 0.641284
v 0.693448 4.389108 0.652857
v 0.531510 4.407860 0.128486
v 0.154279 0.789992 -0.931003
v 1.125729 0.697151 -0.094936
v 0.693452 0.650134 1.240059
v -0.528891 0.715025 1.331728
v -0.907403 0.804214 0.026415
v -2.849682 5.880442 -1.258940
v -2.588127 5.729149 -1.517504
v -2.243430 5.786994 -1.434164
v -2.107540 5.976394 -1.200455
v 1.549936 5.603837 0.830679
v 0.906533 5.862790 0.614331
v 1.735692 5.727734 0.182740
v 1.108200 5.896502 -0.067148
v 0.801427 5.633497 0.253144
v 1.662538 6.198595 0.864309
v 1.213891 6.362315 0.682146
v 1.857228 6.286554 0.178365
v 1.246618 6.435924 0.019480
v 1.165790 6.694148 0.435548
v 1.839929 7.104380 0.895970
v 1.644206 7.234789 0.873693
v 1.957655 7.163822 0.573811
v 1.755912 7.313092 0.478357
v 1.569569 7.352423 0.661153
v 0.483652 6.673963 0.110483
v 0.377789 6.576555 0.337324
v 0.411926 6.708340 0.568883
v 0.623653 6.903158 0.115201
v 0.657789 7.034943 0.346760
v 0.551926 6.937534 0.573601
v 0.096849 7.473750 0.059325
v 0.006263 7.505550 0.210710
v 0.094597 7.526783 0.365243
v 0.275771 7.463185 0.062474
v 0.364106 7.484419 0.217007
v 0.273519 7.516218 0.368392
v -2.689741 7.170960 -2.235487
v -2.574345 7.104211 -2.349563
v -2.422267 7.129731 -2.312795
v -2.362314 7.213293 -2.209684
vn 0.6522 0.1719 -0.7383
vn 0.9702 0.0040 0.2424
vn 0.0333 0.2975 0.9542
vn -0.1315 0.2746 0.9525
vn -0.8610 0.4261 0.2776
vn -0.6573 0.3492 -0.6679
vn -0.0000 -1.0000 -0.0000
vn -0.0218 0.8395 0.5429
vn -0.9573 0.1280 0.2593
vn 0.9768 -0.1539 0.1488
vn -0.6978 0.0820 -0.7116
vn 0.5442 0.1052 -0.8323
vn -0.7015 0.6244 0.3436
vn -0.2355 0.0756 0.9689
vn 0.4381 0.0840 -0.8950
vn -0.2441 -0.8044 -0.5416
vn 0.9743 0.0241 0.2240
vn 0.0456 -0.0061 0.9989
vn 0.8897 -0.2521 0.3806
vn -0.4476 0.4466 -0.7748
vn -0.0980 0.2068 0.9735
vn 0.3828 -0.3024 -0.8729
vn -0.5083 -0.6019 -0.6159
vn 0.7896 0.4507 -0.4164
vn -0.3349 0.1722 0.9264
vn 0.1475 0.1214 -0.9816
vn -0.5262 -0.7877 0.3204
vn 0.2224 0.8069 -0.5472
vn 0.3315 -0.2436 -0.9115
vn -0.1482 0.2156 0.9652
vn 0.6639 0.6195 0.4190
vn -0.8138 -0.4775 0.3311
vn 0.3120 -0.0850 -0.9463
vn -0.1730 -0.0221 0.9847
vn 0.5666 0.0523 -0.8224
vn -0.9315 0.2084 0.2981
vn 0.9061 -0.1406 0.3991
vn -0.5451 0.2164 -0.8099
vn -0.5581 0.5383 -0.6316
vn -0.7954 0.5640 0.2219
vn 0.0492 0.4080 0.9117
vn 0.9367 0.1617 0.3104
vn 0.5855 0.3763 -0.7180
vn 0.2819 -0.4988 -0.8196
vn -0.1902 0.5119 0.8377
vn 0.8781 0.2660 0.3976
vn 0.9355 0.0371 -0.3513
vn -0.9582 -0.1225 0.2584
vn -0.6984 -0.3654 -0.6154
vn 0.5287 0.7435 -0.4096
vn 0.9279 -0.2159 0.3038
vn -0.6588 0.1586 -0.7354
vn -0.9547 0.1629 0.2492
vn 0.4582 -0.0006 -0.8889
vn 0.9422 -0.2094 0.2614
vn 0.3128 -0.0029 -0.9498
vn 0.9503 -0.1990 0.2394
vn -0.7945 -0.4175 0.4409
vn -0.3292 0.0389 0.9434
vn 0.4793 0.8219 0.3080
vn -0.5826 0.5938 -0.5550
vn -0.3082 -0.0141 0.9512
vn -0.8062 0.3004 0.5096
vn 0.3823 0.2938 -0.8761
vn -0.1679 0.2103 0.9631
vn 0.0561 -0.0459 -0.9974
vn -0.0729 0.1437 -0.9869
vn -0.1441 -0.0100 0.9895
vn -0.6587 -0.2960 -0.6918
vn 0.4031 0.6530 0.6412
vn 0.0611 0.9835 -0.1700
vn 0.0611 0.9835 -0.1701
vn 0.7973 0.4302 -0.4234
vn -0.7860 -0.3938 -0.4766
vn 0.7040 0.5414 0.4596
vn -0.8802 -0.2737 0.3877
vn -0.0405 0.8167 -0.5756
vn 0.9020 -0.1458 -0.4063
vn -0.1402 0.6084 0.7811
vn -0.7533 -0.3349 -0.5660
vt 0.233799 0.256923
vt 0.234096 0.260238
vt 0.237439 0.260244
vt 0.237978 0.256523
vt 0.236748 0.260015
vt 0.236118 0.256321
vt 0.231912 0.259561
vt 0.230860 0.256600
vt 0.237343 0.263579
vt 0.231922 0.264032
vt 0.230784 0.259858
vt 0.229231 0.256984
vt 0.232699 0.252344
vt 0.239228 0.252344
vt 0.236129 0.252344
vt 0.228017 0.252344
vt 0.225968 0.252344
vt 0.232759 0.266236
vt 0.233015 0.268212
vt 0.228449 0.268768
vt 0.227953 0.267993
vt 0.231263 0.263422
vt 0.237983 0.263533
vt 0.233759 0.264285
vt 0.235528 0.269630
vt 0.234732 0.269793
vt 0.237057 0.266574
vt 0.234750 0.267088
vt 0.238140 0.265721
vt 0.226646 0.265984
vt 0.228073 0.266114
vt 0.238057 0.268947
vt 0.238546 0.272103
vt 0.236118 0.272407
vt 0.239170 0.268661
vt 0.236984 0.269255
vt 0.222412 0.271645
vt 0.223639 0.271679
vt 0.228815 0.267626
vt 0.224729 0.272753
vt 0.224798 0.273820
vt 0.226963 0.266470
vt 0.222000 0.278172
vt 0.223483 0.278421
vt 0.224115 0.273442
vt 0.222786 0.272490
vt 0.239803 0.277633
vt 0.237035 0.278747
vt 0.237418 0.272233
vt 0.239480 0.271962
vt 0.235422 0.272487
vt 0.222060 0.284088
vt 0.222714 0.284198
vt 0.220875 0.278823
vt 0.224068 0.279236
vt 0.238150 0.282324
vt 0.238498 0.281213
vt 0.235818 0.283223
vt 0.235965 0.283790
vt 0.240602 0.278166
vt 0.236583 0.277760
vt 0.237903 0.278892
vt 0.240288 0.280192
vt 0.241125 0.280570
vt 0.241557 0.284344
vt 0.241051 0.284088
vt 0.234907 0.282385
vt 0.234760 0.281818
vt 0.238357 0.280896
vt 0.240689 0.284986
vt 0.239888 0.285156
vt 0.240209 0.284649
vt 0.235509 0.283371
vt 0.234312 0.285860
vt 0.233542 0.285906
vt 0.235216 0.282237
vt 0.233552 0.285678
vt 0.234321 0.285632
vt 0.233162 0.285814
vt 0.234701 0.285723
vt 0.221563 0.284375
vt 0.222972 0.284557
s 0
usemtl Winter_Pack_Texture
f 43/1/1 2/2/1 4/3/1 44/4/1
f 44/4/2 4/3/2 6/5/2 45/6/2
f 45/6/3 6/5/3 8/7/3 46/8/3
f 8/7/4 6/5/4 13/9/4 14/10/4
f 46/8/5 8/7/5 10/11/5 47/12/5
f 47/12/6 10/11/6 2/2/6 43/1/6
f 1/13/7 3/14/7 5/15/7 7/16/7 9/17/7
f 19/18/8 20/19/8 29/20/8 30/21/8
f 10/11/9 8/7/9 14/10/9 15/22/9
f 6/5/10 4/3/10 11/23/10 13/9/10
f 2/2/11 10/11/11 15/22/11 12/24/11
f 4/3/12 2/2/12 12/24/12 11/23/12
f 20/19/13 19/18/13 24/25/13 25/26/13
f 14/10/14 13/9/14 18/27/14 19/18/14
f 11/23/15 12/24/15 17/28/15 16/29/15
f 12/24/16 15/22/16 26/30/16 28/31/16
f 13/9/17 11/23/17 16/29/17 18/27/17
f 24/25/18 23/32/18 40/33/18 41/34/18
f 18/27/19 16/29/19 21/35/19 23/32/19
f 17/28/20 20/19/20 25/26/20 22/36/20
f 19/18/21 18/27/21 23/32/21 24/25/21
f 16/29/22 17/28/22 22/36/22 21/35/22
f 28/31/23 26/30/23 32/37/23 34/38/23
f 29/20/24 31/39/24 37/40/24 35/41/24
f 14/10/25 19/18/25 30/21/25 27/42/25
f 17/28/26 12/24/26 28/31/26 31/39/26
f 15/22/27 14/10/27 27/42/27 26/30/27
f 20/19/28 17/28/28 31/39/28 29/20/28
f 37/40/29 34/38/29 49/43/29 50/44/29
f 27/42/30 30/21/30 36/45/30 33/46/30
f 30/21/31 29/20/31 35/41/31 36/45/31
f 26/30/32 27/42/32 33/46/32 32/37/32
f 31/39/33 28/31/33 34/38/33 37/40/33
f 41/34/34 40/33/34 52/47/34 53/48/34
f 21/35/35 22/36/35 39/49/35 38/50/35
f 25/26/36 24/25/36 41/34/36 42/51/36
f 23/32/37 21/35/37 38/50/37 40/33/37
f 22/36/38 25/26/38 42/51/38 39/49/38
f 9/17/39 47/12/39 43/1/39 1/13/39
f 7/16/40 46/8/40 47/12/40 9/17/40
f 5/15/41 45/6/41 46/8/41 7/16/41
f 3/14/42 44/4/42 45/6/42 5/15/42
f 1/13/43 43/1/43 44/4/43 3/14/43
f 50/44/44 49/43/44 80/52/44 81/53/44
f 48/54/45 33/46/45 36/45/45 51/55/45
f 36/45/46 35/41/46 51/55/46
f 35/41/47 37/40/47 50/44/47 51/55/47
f 32/37/48 33/46/48 48/54/48
f 34/38/49 32/37/49 48/54/49 49/43/49
f 61/56/50 60/57/50 70/58/50 71/59/50
f 40/33/51 38/50/51 54/60/51 52/47/51
f 39/49/52 42/51/52 56/61/52 55/62/52
f 42/51/53 41/34/53 53/48/53 56/61/53
f 38/50/54 39/49/54 55/62/54 54/60/54
f 57/63/55 59/64/55 64/65/55 62/66/55
f 54/60/56 55/62/56 60/57/56 59/64/56
f 52/47/57 54/60/57 59/64/57 57/63/57
f 56/61/58 53/48/58 69/67/58 68/68/58
f 53/48/59 52/47/59 57/63/59 58/69/59
f 64/65/60 65/70/60 66/71/60 63/72/60 62/66/60
f 60/57/61 61/56/61 66/71/61 65/70/61
f 58/69/62 57/63/62 62/66/62 63/72/62
f 61/56/63 58/69/63 63/72/63 66/71/63
f 59/64/64 60/57/64 65/70/64 64/65/64
f 69/67/65 72/73/65 78/74/65 75/75/65
f 70/58/66 67/76/66 73/77/66 76/78/66
f 60/57/67 55/62/67 67/76/67 70/58/67
f 53/48/68 58/69/68 72/73/68 69/67/68
f 55/62/69 56/61/69 68/68/69 67/76/69
f 58/69/70 61/56/70 71/59/70 72/73/70
f 74/79/71 75/75/71 78/74/71 77/80/71
f 73/77/72 74/79/72 77/80/72 76/78/72
f 71/59/73 70/58/73 76/78/73 77/80/73
f 67/76/74 68/68/74 74/79/74 73/77/74
f 72/73/75 71/59/75 77/80/75 78/74/75
f 68/68/76 69/67/76 75/75/76 74/79/76
f 80/52/77 79/81/77 82/82/77 81/53/77
f 51/55/78 50/44/78 81/53/78 82/82/78
f 48/54/79 51/55/79 82/82/79 79/81/79
f 49/43/80 48/54/80 79/81/80 80/52/80
