# Blender 5.0.0
# www.blender.org
mtllib Tree_pine_C.mtl
o Tree_pine_C
v -0.185812 6.253208 -0.619535
v 0.490562 8.069250 -0.286215
v 0.124061 6.279147 -0.682857
v 0.447340 6.309725 -0.653779
v 0.676994 6.313125 -0.423207
v 0.828597 6.312539 -0.137198
v 0.741368 6.277223 0.156872
v 0.567774 6.241452 0.411458
v 0.249209 6.206945 0.467556
v -0.074631 6.186109 0.435805
v -0.300147 6.181901 0.200913
v -0.447224 6.195673 -0.078891
v -0.360572 6.219540 -0.370490
v -0.445532 5.632510 -1.017394
v -0.482382 5.874675 -1.075648
v 0.100083 6.281752 -1.034734
v 0.100852 6.070508 -1.141302
v 0.604938 5.983500 -1.128587
v 0.525541 5.733559 -1.067350
v 0.951446 6.340214 -0.602400
v 0.972298 6.126372 -0.649800
v 1.246392 5.963064 -0.098661
v 1.140005 5.698613 -0.092377
v 1.062627 6.273535 0.362342
v 1.118200 6.034662 0.449521
v 0.880445 5.806534 1.001022
v 0.822688 5.540293 0.949830
v 0.304359 6.156786 0.869402
v 0.360272 5.908698 1.024149
v -0.254423 5.724126 1.022837
v -0.195296 5.469452 0.971464
v -0.601207 6.131744 0.416781
v -0.680038 5.893142 0.504734
v -0.992878 5.767287 -0.014015
v -0.913268 5.523777 -0.009975
v -0.684294 6.188567 -0.526660
v -0.777992 5.959550 -0.567101
v -0.023839 5.209005 -0.890980
v 0.352746 7.442326 -0.257576
v 0.310421 5.228395 -0.756710
v 0.619759 5.231891 -0.509058
v 0.759952 5.175448 -0.089382
v 0.842071 5.101135 0.342524
v 0.617857 5.043848 0.620637
v 0.282713 5.014191 0.791332
v -0.154890 5.015364 0.645537
v -0.520940 5.032728 0.392326
v -0.610131 5.078324 -0.025729
v -0.589041 5.119781 -0.445256
v -0.336771 5.162953 -0.719951
v -0.145227 4.254795 -1.629047
v -0.130530 4.611456 -1.707901
v 0.458128 5.215134 -1.198241
v 0.476618 4.879197 -1.364176
v 1.218112 4.627508 -0.962680
v 1.167316 4.234942 -0.935044
v 1.288760 5.124601 -0.092022
v 1.526408 4.737613 -0.109409
v 1.608586 4.368424 0.742028
v 1.530665 3.998273 0.676979
v 0.929910 4.925318 1.080770
v 0.969324 4.553192 1.230378
v 0.206356 4.318646 1.636180
v 0.130362 3.979467 1.541913
v -0.414467 4.904705 1.107727
v -0.581478 4.553020 1.260894
v -1.431676 4.387139 0.821861
v -1.425823 4.042243 0.776570
v -1.146224 4.991756 -0.005954
v -1.419176 4.663085 -0.002143
v -1.366408 4.505630 -0.829689
v -1.354064 4.153464 -0.787344
v -0.579723 5.111736 -1.147411
v -0.693759 4.783660 -1.298594
v -0.590048 3.905665 -0.916743
v 0.149184 6.584682 -0.157429
v -0.153191 3.927839 -1.024330
v 0.316303 3.932514 -0.987007
v 0.735804 3.876642 -0.615450
v 1.113065 3.793725 -0.139034
v 0.939421 3.723160 0.360340
v 0.593609 3.699155 0.789918
v 0.033206 3.702145 0.887638
v -0.548785 3.725994 0.835530
v -0.897022 3.758773 0.446660
v -1.080829 3.805360 -0.018999
v -0.883932 3.856143 -0.502045
v -0.967972 2.690220 -1.621442
v -1.018820 3.130429 -1.717626
v -0.139656 3.864823 -1.620057
v -0.107407 3.440951 -1.817433
v 0.834990 3.156118 -1.814213
v 0.850282 2.706716 -1.705723
v 1.195690 3.815413 -0.935108
v 1.418418 3.384998 -1.028373
v 2.126373 3.042990 -0.165703
v 2.030158 2.624658 -0.158215
v 1.506167 3.619676 0.654685
v 1.650697 3.249457 0.749995
v 1.050341 3.022300 1.658257
v 0.965446 2.631191 1.564498
v 0.036038 3.630648 1.528679
v -0.031284 3.276600 1.742365
v -1.167543 3.045682 1.702402
v -1.143620 2.644248 1.608585
v -1.493208 3.673434 0.769407
v -1.720299 3.284672 0.872884
v -2.217790 3.037484 0.000001
v -2.131910 2.621797 0.000002
v -1.406614 3.766595 -0.778902
v -1.653828 3.351540 -0.874325
v -0.018822 2.249558 -0.689092
v 0.180420 5.698914 -0.081606
v 0.309933 2.244293 -0.585218
v 0.591300 2.232745 -0.392411
v 0.657279 2.224257 -0.073352
v 0.571032 2.224156 0.251884
v 0.274157 2.220879 0.474346
v -0.081890 2.220438 0.612652
v -0.417287 2.221827 0.501713
v -0.681288 2.224069 0.306727
v -0.718614 2.225482 -0.013887
v -0.644069 2.231493 -0.337878
v -0.351621 2.243642 -0.553148
v -0.000003 0.676783 -2.278276
v -0.000003 1.219200 -2.411154
v 0.928250 2.121602 -1.697440
v 1.071020 1.578110 -1.880213
v 2.104974 1.221945 -1.248574
v 1.973043 0.680489 -1.157664
v 2.046643 2.074636 -0.132348
v 2.248290 1.555368 -0.097277
v 2.104976 1.221946 1.162579
v 1.973045 0.680490 1.120612
v 0.946282 2.102870 1.602080
v 1.065610 1.575124 1.840592
v -0.051576 1.225507 2.411153
v -0.031606 0.680648 2.278275
v -1.141328 2.109756 1.634593
v -1.199404 1.585426 1.854430
v -2.244395 1.230981 1.205578
v -2.094369 0.691537 1.139140
v -2.141704 2.074269 0.000001
v -2.327034 1.554407 0.000001
v -2.109730 1.214442 -1.205576
v -1.974067 0.676853 -1.139136
v -0.963700 2.111679 -1.638192
v -1.070914 1.573107 -1.854429
v -0.019155 2.258158 -1.264271
v 0.567002 2.247753 -1.066245
v 1.107225 2.223278 -0.699245
v 1.263105 2.208065 -0.113190
v 1.118133 2.212578 0.512254
v 0.567021 2.217458 0.939927
v -0.108827 2.223982 1.203750
v -0.760831 2.222039 0.986116
v -1.260420 2.215251 0.605863
v -1.339977 2.207438 -0.000060
v -1.184844 2.218394 -0.609475
v -0.619871 2.242465 -1.010896
v -0.000003 0.431084 -0.754331
v 0.354488 0.431105 -0.614097
v 0.653267 0.431725 -0.380370
v 0.708979 0.432023 -0.004693
v 0.653268 0.431725 0.373960
v 0.350043 0.431646 0.613904
v -0.015100 0.432930 0.754330
v -0.373443 0.433401 0.613996
v -0.679667 0.434311 0.377166
v -0.725573 0.433113 0.000000
v -0.657421 0.431592 -0.377165
v -0.354493 0.431084 -0.613995
v -0.000003 -0.243106 -0.992836
v 0.466571 -0.243106 -0.808130
v 0.859818 -0.243106 -0.496418
v 0.933146 -0.243105 -0.000001
v 0.859819 -0.243105 0.496417
v 0.466572 -0.243105 0.808129
v -0.000581 -0.243035 0.992836
v -0.475032 -0.242071 0.808130
v -0.877710 -0.240919 0.496419
v -0.941607 -0.242072 0.000001
v -0.859890 -0.243097 -0.496417
v -0.466576 -0.243106 -0.808129
vn 0.0867 -0.9936 -0.0725
vn -0.1422 0.0932 -0.9854
vn 0.0408 0.0909 -0.9950
vn 0.8046 -0.1189 -0.5818
vn 0.8752 -0.1161 -0.4697
vn 0.9707 -0.0545 0.2341
vn 0.9142 0.0249 0.4044
vn 0.0820 0.1964 0.9771
vn -0.0586 0.1882 0.9804
vn -0.7576 0.0783 0.6479
vn -0.8625 0.0935 0.4974
vn -0.9370 0.0545 -0.3451
vn -0.8554 0.0839 -0.5112
vn 0.4925 -0.7008 0.5160
vn -0.6841 0.4957 -0.5350
vn 0.4010 -0.7040 0.5862
vn -0.2306 0.4183 -0.8786
vn 0.0504 0.3764 -0.9251
vn -0.3712 -0.7017 0.6081
vn 0.6880 0.3039 -0.6591
vn -0.2465 -0.6909 0.6796
vn 0.9042 0.2971 -0.3069
vn -0.7975 -0.6033 -0.0045
vn 0.9283 0.3454 0.1375
vn -0.7955 -0.5957 0.1105
vn 0.7404 0.4242 0.5214
vn -0.2273 -0.7248 -0.6503
vn 0.1122 0.5059 0.8553
vn -0.4057 -0.7385 -0.5385
vn -0.1746 0.5216 0.8351
vn 0.4099 -0.6700 -0.6189
vn -0.5253 0.5358 0.6610
vn 0.2579 -0.6917 -0.6746
vn -0.7964 0.5444 0.2635
vn 0.7391 -0.6715 -0.0532
vn -0.8423 0.5348 -0.0675
vn 0.7266 -0.6655 -0.1704
vn 0.0631 -0.9894 -0.1306
vn 0.4510 0.1138 -0.8852
vn 0.5076 0.1389 -0.8503
vn 0.9097 0.2134 -0.3562
vn 0.9783 0.2069 -0.0047
vn 0.6165 0.0575 0.7853
vn 0.4582 0.0455 0.8877
vn -0.3698 0.2073 0.9057
vn -0.4820 0.2419 0.8421
vn -0.9265 0.3608 0.1068
vn -0.9294 0.3472 -0.1253
vn -0.6165 0.2134 -0.7579
vn -0.5391 0.1881 -0.8210
vn 0.1864 -0.7026 0.6868
vn -0.4370 0.4681 -0.7681
vn 0.0169 -0.7056 0.7084
vn 0.3531 0.3781 -0.8558
vn 0.5156 0.3540 -0.7803
vn -0.6669 -0.6429 0.3768
vn 0.8995 0.3440 -0.2694
vn -0.5731 -0.6711 0.4703
vn 0.9275 0.3734 -0.0172
vn -0.6226 -0.6704 -0.4036
vn 0.6696 0.4625 0.5811
vn -0.7127 -0.6380 -0.2916
vn 0.2261 0.4972 0.8376
vn 0.0334 -0.6628 -0.7481
vn -0.2215 0.5131 0.8292
vn -0.0532 -0.6618 -0.7478
vn -0.4669 0.5243 0.7121
vn 0.5378 -0.7533 -0.3786
vn -0.8451 0.5265 0.0931
vn 0.5012 -0.7408 -0.4471
vn -0.8541 0.5147 -0.0754
vn 0.5841 -0.7416 0.3300
vn -0.6216 0.4839 -0.6160
vn 0.6847 -0.7029 0.1928
vn -0.0109 -0.9930 -0.1178
vn -0.1424 0.1016 -0.9846
vn 0.0345 0.1031 -0.9941
vn 0.7595 0.1947 -0.6206
vn 0.7941 0.1771 -0.5814
vn 0.8919 0.1118 0.4381
vn 0.8248 0.0657 0.5616
vn 0.1086 0.1363 0.9847
vn -0.0672 0.1601 0.9848
vn -0.7850 0.2089 0.5833
vn -0.8738 0.2098 0.4386
vn -0.8539 0.2200 -0.4717
vn -0.7640 0.1749 -0.6211
vn 0.5097 -0.6222 0.5942
vn -0.6417 0.4852 -0.5939
vn 0.3687 -0.6575 0.6571
vn -0.3060 0.4759 -0.8245
vn 0.1561 0.4549 -0.8768
vn -0.4101 -0.6776 0.6104
vn 0.6800 0.4248 -0.5976
vn -0.3048 -0.6651 0.6817
vn 0.7597 0.4252 -0.4920
vn -0.7075 -0.7022 0.0798
vn 0.8324 0.4640 0.3031
vn -0.7100 -0.7042 -0.0017
vn 0.6685 0.4649 0.5804
vn -0.3235 -0.7044 -0.6318
vn 0.1798 0.4824 0.8573
vn -0.3988 -0.7122 -0.5776
vn -0.1167 0.4957 0.8606
vn 0.3332 -0.7553 -0.5644
vn -0.6204 0.5331 0.5752
vn 0.2525 -0.7245 -0.6414
vn -0.7882 0.5391 0.2967
vn 0.6678 -0.7430 0.0450
vn -0.7884 0.5108 -0.3428
vn 0.6857 -0.7239 -0.0753
vn 0.3592 0.0874 0.9292
vn 0.4160 0.0962 -0.9043
vn 0.5388 0.0764 -0.8389
vn 0.9893 0.0487 -0.1373
vn 0.9895 0.0642 0.1295
vn 0.5741 0.1415 0.8064
vn 0.4145 0.1424 0.8988
vn -0.4121 0.0884 0.9068
vn -0.5440 0.0735 0.8359
vn -0.9967 0.0285 0.0760
vn -0.9818 0.0344 -0.1867
vn -0.5518 0.1006 -0.8279
vn -0.4291 0.1117 -0.8963
vn 0.0534 -0.6220 0.7812
vn -0.2631 0.4534 -0.8516
vn -0.0208 -0.6340 0.7730
vn 0.2373 0.4407 -0.8658
vn 0.5902 0.4315 -0.6822
vn -0.6818 -0.6330 0.3667
vn 0.8485 0.4410 -0.2925
vn -0.6180 -0.6188 0.4849
vn 0.8620 0.4403 0.2511
vn -0.6174 -0.6476 -0.4465
vn 0.5917 0.4418 0.6744
vn -0.6732 -0.6560 -0.3414
vn 0.2837 0.4555 0.8438
vn 0.0375 -0.6645 -0.7463
vn -0.2122 0.4841 0.8489
vn -0.0621 -0.6583 -0.7502
vn -0.6332 0.5111 0.5812
vn 0.6875 -0.6343 -0.3536
vn -0.8014 0.5201 0.2955
vn 0.6390 -0.6394 -0.4276
vn -0.7849 0.4944 -0.3735
vn 0.6184 -0.6177 0.4858
vn -0.6095 0.4711 -0.6376
vn 0.6823 -0.6217 0.3847
vn -0.0124 -0.9998 -0.0144
vn -0.0294 -0.9993 -0.0212
vn -0.0288 -0.9994 -0.0191
vn -0.0239 -0.9997 -0.0012
vn -0.0094 -0.9999 -0.0098
vn -0.0053 -1.0000 0.0015
vn -0.0005 -1.0000 0.0033
vn 0.0075 -1.0000 -0.0021
vn 0.0234 -0.9997 0.0040
vn 0.0292 -0.9995 -0.0110
vn 0.0313 -0.9994 -0.0152
vn 0.0182 -0.9998 -0.0119
vn -0.9464 0.3006 0.1181
vn 0.9847 0.0273 -0.1722
vn -0.9799 0.0069 -0.1994
vn -0.3399 0.0562 0.9388
vn 0.9792 0.0471 0.1975
vn -0.6049 0.0248 -0.7959
vn 0.3365 0.0303 -0.9412
vn -0.6033 0.0330 0.7969
vn 0.6079 0.0845 0.7895
vn -0.3730 0.0306 -0.9273
vn 0.5925 0.0212 -0.8053
vn -0.9930 0.0043 0.1184
vn -0.0006 -1.0000 0.0004
vn 0.3456 0.3165 0.8834
vn 0.9400 0.3114 -0.1392
vn -0.9384 0.3052 -0.1619
vn -0.3457 0.3062 0.8870
vn 0.9396 0.3129 0.1387
vn -0.5881 0.3106 -0.7468
vn 0.3496 0.3124 -0.8833
vn -0.5824 0.3041 0.7538
vn 0.5891 0.3156 0.7439
vn -0.3497 0.3125 -0.8832
vn 0.5882 0.3106 -0.7467
vt 0.041782 0.975706
vt 0.042969 0.975706
vt 0.044156 0.975706
vt 0.044901 0.975706
vt 0.045343 0.975706
vt 0.041036 0.975706
vt 0.040595 0.975706
vt 0.040607 0.973873
vt 0.042969 0.975469
vt 0.042969 0.974503
vt 0.040737 0.972907
vt 0.045331 0.973873
vt 0.045201 0.972907
vt 0.046171 0.975469
vt 0.046602 0.974503
vt 0.047693 0.973873
vt 0.047433 0.972907
vt 0.039766 0.975469
vt 0.039335 0.974503
vt 0.038245 0.973873
vt 0.038505 0.972907
vt 0.042969 0.982439
vt 0.042969 0.971106
vt 0.044492 0.971106
vt 0.045776 0.971106
vt 0.046016 0.971106
vt 0.041445 0.971106
vt 0.040161 0.971106
vt 0.039922 0.971106
vt 0.042969 0.968602
vt 0.045494 0.970781
vt 0.045833 0.969462
vt 0.042969 0.967283
vt 0.048555 0.968602
vt 0.048248 0.967283
vt 0.048019 0.970781
vt 0.048698 0.969462
vt 0.040444 0.970781
vt 0.040104 0.969462
vt 0.037382 0.968602
vt 0.037690 0.967283
vt 0.037919 0.970781
vt 0.037240 0.969462
vt 0.042969 0.980299
vt 0.041030 0.966212
vt 0.042969 0.966212
vt 0.044907 0.966212
vt 0.046125 0.966212
vt 0.046846 0.966212
vt 0.039813 0.966212
vt 0.039092 0.966212
vt 0.039111 0.963218
vt 0.042969 0.965824
vt 0.042969 0.964247
vt 0.039324 0.961641
vt 0.046826 0.963218
vt 0.046614 0.961641
vt 0.048199 0.965824
vt 0.048902 0.964247
vt 0.050684 0.963218
vt 0.050258 0.961641
vt 0.048199 0.965824
vt 0.037739 0.965824
vt 0.037035 0.964247
vt 0.035254 0.963218
vt 0.035679 0.961641
vt 0.042969 0.977207
vt 0.243033 0.874110
vt 0.239258 0.874110
vt 0.239258 0.853155
vt 0.243754 0.853155
vt 0.042969 0.956370
vt 0.046673 0.959568
vt 0.047171 0.957633
vt 0.042969 0.954436
vt 0.051164 0.956370
vt 0.050712 0.954436
vt 0.050376 0.959568
vt 0.051372 0.957633
vt 0.042969 0.954436
vt 0.039265 0.959568
vt 0.038767 0.957633
vt 0.034774 0.956370
vt 0.035225 0.954436
vt 0.035561 0.959568
vt 0.034565 0.957633
vt 0.035225 0.954436
vt 0.045204 0.960043
vt 0.042969 0.960043
vt 0.042969 0.973529
vt 0.040734 0.960043
vt 0.047087 0.960043
vt 0.047438 0.960043
vt 0.038850 0.960043
vt 0.038499 0.960043
vt 0.044137 0.960043
vt 0.045122 0.960043
vt 0.045305 0.960043
vt 0.045122 0.960043
vt 0.041801 0.960043
vt 0.040816 0.960043
vt 0.040633 0.960043
vt 0.230972 0.853155
vt 0.230265 0.853155
vt 0.227422 0.845383
vt 0.228352 0.845383
vt 0.246215 0.874110
vt 0.246808 0.874110
vt 0.248250 0.853155
vt 0.247543 0.853155
vt 0.231707 0.874110
vt 0.232301 0.874110
vt 0.235482 0.874110
vt 0.234762 0.853155
vt 0.246215 0.874110
vt 0.239258 0.845383
vt 0.245175 0.845383
vt 0.250163 0.845383
vt 0.251093 0.845383
vt 0.233340 0.845383
s 0
usemtl Winter_Pack_Texture
f 1/1/1 3/2/1 4/3/1 5/4/1 6/5/1 7/4/1 8/3/1 9/2/1 10/1/1 11/6/1 12/7/1 13/6/1
f 15/8/2 16/9/2 17/10/2 14/11/2
f 16/9/3 18/12/3 19/13/3 17/10/3
f 18/12/4 20/14/4 21/15/4 19/13/4
f 20/14/5 22/16/5 23/17/5 21/15/5
f 22/16/6 24/14/6 25/15/6 23/17/6
f 24/14/7 26/12/7 27/13/7 25/15/7
f 26/12/8 28/9/8 29/10/8 27/13/8
f 28/9/9 30/8/9 31/11/9 29/10/9
f 30/8/10 32/18/10 33/19/10 31/11/10
f 32/18/11 34/20/11 35/21/11 33/19/11
f 34/20/12 36/18/12 37/19/12 35/21/12
f 36/18/13 15/8/13 14/11/13 37/19/13
f 3/2/14 1/1/14 14/11/14 17/10/14
f 36/18/15 2/22/15 15/8/15
f 1/1/16 13/6/16 37/19/16 14/11/16
f 15/8/17 2/22/17 16/9/17
f 16/9/18 2/22/18 18/12/18
f 4/3/19 3/2/19 17/10/19 19/13/19
f 18/12/20 2/22/20 20/14/20
f 5/4/21 4/3/21 19/13/21 21/15/21
f 20/14/22 2/22/22 22/16/22
f 6/5/23 5/4/23 21/15/23 23/17/23
f 22/16/24 2/22/24 24/14/24
f 7/4/25 6/5/25 23/17/25 25/15/25
f 24/14/26 2/22/26 26/12/26
f 8/3/27 7/4/27 25/15/27 27/13/27
f 26/12/28 2/22/28 28/9/28
f 9/2/29 8/3/29 27/13/29 29/10/29
f 28/9/30 2/22/30 30/8/30
f 10/1/31 9/2/31 29/10/31 31/11/31
f 30/8/32 2/22/32 32/18/32
f 11/6/33 10/1/33 31/11/33 33/19/33
f 32/18/34 2/22/34 34/20/34
f 12/7/35 11/6/35 33/19/35 35/21/35
f 34/20/36 2/22/36 36/18/36
f 13/6/37 12/7/37 35/21/37 37/19/37
f 38/23/38 40/24/38 41/25/38 42/26/38 43/25/38 44/24/38 45/23/38 46/27/38 47/28/38 48/29/38 49/28/38 50/27/38
f 52/30/39 53/31/39 54/32/39 51/33/39
f 53/31/40 55/34/40 56/35/40 54/32/40
f 55/34/41 57/36/41 58/37/41 56/35/41
f 57/36/42 59/34/42 60/35/42 58/37/42
f 59/34/43 61/31/43 62/32/43 60/35/43
f 61/31/44 63/30/44 64/33/44 62/32/44
f 63/30/45 65/38/45 66/39/45 64/33/45
f 65/38/46 67/40/46 68/41/46 66/39/46
f 67/40/47 69/42/47 70/43/47 68/41/47
f 69/42/48 71/40/48 72/41/48 70/43/48
f 71/40/49 73/38/49 74/39/49 72/41/49
f 73/38/50 52/30/50 51/33/50 74/39/50
f 40/24/51 38/23/51 51/33/51 54/32/51
f 73/38/52 39/44/52 52/30/52
f 38/23/53 50/27/53 74/39/53 51/33/53
f 52/30/54 39/44/54 53/31/54
f 53/31/55 39/44/55 55/34/55
f 41/25/56 40/24/56 54/32/56 56/35/56
f 55/34/57 39/44/57 57/36/57
f 42/26/58 41/25/58 56/35/58 58/37/58
f 57/36/59 39/44/59 59/34/59
f 43/25/60 42/26/60 58/37/60 60/35/60
f 59/34/61 39/44/61 61/31/61
f 44/24/62 43/25/62 60/35/62 62/32/62
f 61/31/63 39/44/63 63/30/63
f 45/23/64 44/24/64 62/32/64 64/33/64
f 63/30/65 39/44/65 65/38/65
f 46/27/66 45/23/66 64/33/66 66/39/66
f 65/38/67 39/44/67 67/40/67
f 47/28/68 46/27/68 66/39/68 68/41/68
f 67/40/69 39/44/69 69/42/69
f 48/29/70 47/28/70 68/41/70 70/43/70
f 69/42/71 39/44/71 71/40/71
f 49/28/72 48/29/72 70/43/72 72/41/72
f 71/40/73 39/44/73 73/38/73
f 50/27/74 49/28/74 72/41/74 74/39/74
f 75/45/75 77/46/75 78/47/75 79/48/75 80/49/75 81/48/75 82/47/75 83/46/75 84/45/75 85/50/75 86/51/75 87/50/75
f 89/52/76 90/53/76 91/54/76 88/55/76
f 90/53/77 92/56/77 93/57/77 91/54/77
f 92/56/78 94/58/78 95/59/78 93/57/78
f 94/58/79 96/60/79 97/61/79 95/59/79
f 96/60/80 98/62/80 99/59/80 97/61/80
f 98/62/81 100/56/81 101/57/81 99/59/81
f 100/56/82 102/53/82 103/54/82 101/57/82
f 102/53/83 104/52/83 105/55/83 103/54/83
f 104/52/84 106/63/84 107/64/84 105/55/84
f 106/63/85 108/65/85 109/66/85 107/64/85
f 108/65/86 110/63/86 111/64/86 109/66/86
f 110/63/87 89/52/87 88/55/87 111/64/87
f 77/46/88 75/45/88 88/55/88 91/54/88
f 110/63/89 76/67/89 89/52/89
f 75/45/90 87/50/90 111/64/90 88/55/90
f 89/52/91 76/67/91 90/53/91
f 90/53/92 76/67/92 92/56/92
f 78/47/93 77/46/93 91/54/93 93/57/93
f 92/56/94 76/67/94 94/58/94
f 79/48/95 78/47/95 93/57/95 95/59/95
f 94/58/96 76/67/96 96/60/96
f 80/49/97 79/48/97 95/59/97 97/61/97
f 96/60/98 76/67/98 98/62/98
f 81/48/99 80/49/99 97/61/99 99/59/99
f 98/62/100 76/67/100 100/56/100
f 82/47/101 81/48/101 99/59/101 101/57/101
f 100/56/102 76/67/102 102/53/102
f 83/46/103 82/47/103 101/57/103 103/54/103
f 102/53/104 76/67/104 104/52/104
f 84/45/105 83/46/105 103/54/105 105/55/105
f 104/52/106 76/67/106 106/63/106
f 85/50/107 84/45/107 105/55/107 107/64/107
f 106/63/108 76/67/108 108/65/108
f 86/51/109 85/50/109 107/64/109 109/66/109
f 108/65/110 76/67/110 110/63/110
f 87/50/111 86/51/111 109/66/111 111/64/111
f 118/68/112 119/69/112 167/70/112 166/71/112
f 126/72/113 127/73/113 128/74/113 125/75/113
f 127/73/114 129/76/114 130/77/114 128/74/114
f 129/76/115 131/78/115 132/79/115 130/77/115
f 131/78/116 133/76/116 134/77/116 132/79/116
f 133/76/117 135/73/117 136/74/117 134/77/117
f 135/73/118 137/72/118 138/80/118 136/74/118
f 137/72/119 139/81/119 140/82/119 138/80/119
f 139/81/120 141/83/120 142/84/120 140/82/120
f 141/83/121 143/85/121 144/86/121 142/84/121
f 143/85/122 145/83/122 146/87/122 144/86/122
f 145/83/123 147/81/123 148/82/123 146/87/123
f 147/81/124 126/72/124 125/75/124 148/82/124
f 150/88/125 149/89/125 125/75/125 128/74/125
f 147/81/126 113/90/126 126/72/126
f 149/89/127 160/91/127 148/82/127 125/75/127
f 126/72/128 113/90/128 127/73/128
f 127/73/129 113/90/129 129/76/129
f 151/92/130 150/88/130 128/74/130 130/77/130
f 129/76/131 113/90/131 131/78/131
f 152/93/132 151/92/132 130/77/132 132/79/132
f 131/78/133 113/90/133 133/76/133
f 153/92/134 152/93/134 132/79/134 134/77/134
f 133/76/135 113/90/135 135/73/135
f 154/88/136 153/92/136 134/77/136 136/74/136
f 135/73/137 113/90/137 137/72/137
f 155/89/138 154/88/138 136/74/138 138/80/138
f 137/72/139 113/90/139 139/81/139
f 156/91/140 155/89/140 138/80/140 140/82/140
f 139/81/141 113/90/141 141/83/141
f 157/94/142 156/91/142 140/82/142 142/84/142
f 141/83/143 113/90/143 143/85/143
f 158/95/144 157/94/144 142/84/144 144/86/144
f 143/85/145 113/90/145 145/83/145
f 159/94/146 158/95/146 144/86/146 146/87/146
f 145/83/147 113/90/147 147/81/147
f 160/91/148 159/94/148 146/87/148 148/82/148
f 114/96/149 112/89/149 149/89/149 150/88/149
f 115/97/150 114/96/150 150/88/150 151/92/150
f 116/98/151 115/97/151 151/92/151 152/93/151
f 117/99/152 116/98/152 152/93/152 153/92/152
f 118/96/153 117/99/153 153/92/153 154/88/153
f 119/89/154 118/96/154 154/88/154 155/89/154
f 120/100/155 119/89/155 155/89/155 156/91/155
f 121/101/156 120/100/156 156/91/156 157/94/156
f 122/102/157 121/101/157 157/94/157 158/95/157
f 123/101/158 122/102/158 158/95/158 159/94/158
f 124/100/159 123/101/159 159/94/159 160/91/159
f 112/89/160 124/100/160 160/91/160 149/89/160
f 169/103/161 170/104/161 182/105/161 181/106/161
f 115/107/162 116/108/162 164/109/162 163/110/162
f 122/111/163 123/112/163 171/103/163 170/104/163
f 119/69/164 120/113/164 168/114/164 167/70/164
f 116/108/165 117/115/165 165/110/165 164/109/165
f 123/112/166 124/113/166 172/114/166 171/103/166
f 112/69/167 114/68/167 162/71/167 161/70/167
f 120/113/168 121/112/168 169/103/168 168/114/168
f 117/115/169 118/68/169 166/71/169 165/110/169
f 124/113/170 112/69/170 161/70/170 172/114/170
f 114/68/171 115/107/171 163/110/171 162/71/171
f 121/112/172 122/111/172 170/104/172 169/103/172
f 173/116/173 174/117/173 175/118/173 176/119/173 177/118/173 178/117/173 179/116/173 180/120/173 181/106/173 182/105/173 183/106/173 184/120/173
f 166/71/174 167/70/174 179/116/174 178/117/174
f 163/110/175 164/109/175 176/119/175 175/118/175
f 170/104/176 171/103/176 183/106/176 182/105/176
f 167/70/177 168/114/177 180/120/177 179/116/177
f 164/109/178 165/110/178 177/118/178 176/119/178
f 171/103/179 172/114/179 184/120/179 183/106/179
f 161/70/180 162/71/180 174/117/180 173/116/180
f 168/114/181 169/103/181 181/106/181 180/120/181
f 165/110/182 166/71/182 178/117/182 177/118/182
f 172/114/183 161/70/183 173/116/183 184/120/183
f 162/71/184 163/110/184 175/118/184 174/117/184
