# Blender 5.0.0
# www.blender.org
mtllib Tree_Pine_xmas.mtl
o Tree_Pine_xmas
v -0.201016 4.539680 -0.354763
v 0.004816 5.824191 0.001749
v 0.004816 4.539680 -0.385167
v 0.210649 4.539680 -0.354763
v 0.339895 4.539680 -0.191709
v 0.416481 4.539680 0.001749
v 0.339896 4.539680 0.195207
v 0.210649 4.539680 0.358261
v 0.004817 4.539680 0.388665
v -0.201016 4.539680 0.358261
v -0.330263 4.539680 0.195207
v -0.406848 4.539680 0.001749
v -0.330263 4.539680 -0.191709
v -0.382189 4.005561 -0.668563
v -0.404760 4.189839 -0.707658
v 0.004816 4.494372 -0.639489
v 0.004816 4.310094 -0.725729
v 0.414392 4.189839 -0.707658
v 0.391821 4.005561 -0.668563
v 0.560144 4.494372 -0.318870
v 0.634830 4.310094 -0.361990
v 0.823969 4.189839 0.001748
v 0.778826 4.005561 0.001748
v 0.560144 4.494372 0.322368
v 0.634831 4.310094 0.365487
v 0.414393 4.189839 0.711156
v 0.391822 4.005561 0.672060
v 0.004817 4.494372 0.642987
v 0.004817 4.310094 0.729226
v -0.404759 4.189839 0.711156
v -0.382188 4.005561 0.672062
v -0.550512 4.494372 0.322368
v -0.625197 4.310094 0.365488
v -0.814336 4.189839 0.001749
v -0.769193 4.005561 0.001750
v -0.550512 4.494372 -0.318870
v -0.625198 4.310094 -0.361990
v 0.004816 3.661915 -0.560386
v 0.004816 5.415936 0.001748
v 0.268986 3.661915 -0.455808
v 0.491639 3.661915 -0.279319
v 0.533156 3.661915 0.001749
v 0.491640 3.661915 0.282816
v 0.268986 3.661915 0.459305
v 0.004816 3.661915 0.563884
v -0.259354 3.661915 0.459305
v -0.482007 3.661915 0.282817
v -0.523524 3.661915 0.001749
v -0.482008 3.661915 -0.279319
v -0.259354 3.661915 -0.455807
v 0.004815 2.932567 -1.055174
v 0.004815 3.184201 -1.116818
v 0.442626 3.600046 -0.756561
v 0.501507 3.348411 -0.858546
v 0.973523 3.184202 -0.557535
v 0.920138 2.932567 -0.526713
v 0.880436 3.600046 0.001748
v 0.998199 3.348411 0.001748
v 0.973523 3.184202 0.561032
v 0.920139 2.932567 0.530210
v 0.442627 3.600046 0.760059
v 0.501509 3.348412 0.862043
v 0.004817 3.184202 1.120316
v 0.004818 2.932567 1.058672
v -0.432994 3.600046 0.760059
v -0.491874 3.348412 0.862044
v -0.963891 3.184202 0.561033
v -0.910506 2.932567 0.530212
v -0.870805 3.600046 0.001749
v -0.988567 3.348411 0.001750
v -0.963891 3.184202 -0.557534
v -0.910506 2.932567 -0.526711
v -0.432995 3.600046 -0.756561
v -0.491875 3.348411 -0.858546
v -0.331320 2.728342 -0.580453
v 0.004816 4.826015 0.001749
v 0.004815 2.728342 -0.630104
v 0.340950 2.728342 -0.580453
v 0.552017 2.728343 -0.314178
v 0.677085 2.728343 0.001749
v 0.552017 2.728343 0.317676
v 0.340951 2.728343 0.583952
v 0.004816 2.728343 0.633603
v -0.331319 2.728343 0.583952
v -0.542385 2.728343 0.317677
v -0.667454 2.728343 0.001750
v -0.542386 2.728343 -0.314177
v -0.627183 1.856100 -1.092903
v -0.664044 2.157035 -1.156747
v 0.004814 2.654352 -1.045424
v 0.004815 2.353417 -1.186258
v 0.673674 2.157035 -1.156748
v 0.636813 1.856100 -1.092904
v 0.911694 2.654352 -0.521837
v 1.033660 2.353417 -0.592255
v 1.342533 2.157036 0.001749
v 1.268813 1.856100 0.001749
v 0.911695 2.654353 0.525336
v 1.033662 2.353417 0.595753
v 0.673675 2.157036 1.160247
v 0.636816 1.856101 1.096402
v 0.004816 2.654353 1.048924
v 0.004817 2.353418 1.189757
v -0.664042 2.157036 1.160248
v -0.627182 1.856101 1.096405
v -0.902063 2.654353 0.525337
v -1.024029 2.353417 0.595754
v -1.332902 2.157036 0.001751
v -1.259181 1.856100 0.001751
v -0.902064 2.654352 -0.521836
v -1.024029 2.353417 -0.592254
v 0.004815 1.551373 -0.429271
v 0.004816 4.124322 0.001749
v 0.207369 1.551373 -0.349084
v 0.378090 1.551373 -0.213761
v 0.409924 1.551373 0.001749
v 0.378090 1.551373 0.217259
v 0.207370 1.551373 0.352583
v 0.004816 1.551373 0.432770
v -0.197738 1.551373 0.352583
v -0.368458 1.551373 0.217260
v -0.400292 1.551373 0.001750
v -0.368459 1.551373 -0.213760
v -0.197738 1.551373 -0.349084
v 0.004815 0.481503 -1.548635
v 0.004815 0.850622 -1.639060
v 0.647032 1.460618 -1.110605
v 0.733405 1.091499 -1.260205
v 1.425797 0.850623 -0.818656
v 1.347488 0.481503 -0.773444
v 1.289250 1.460618 0.001749
v 1.461995 1.091499 0.001749
v 1.425798 0.850623 0.822153
v 1.347489 0.481503 0.776941
v 0.647034 1.460619 1.114103
v 0.733407 1.091500 1.263703
v 0.004817 0.850623 1.642559
v 0.004818 0.481504 1.552135
v -0.637402 1.460619 1.114104
v -0.723772 1.091500 1.263704
v -1.416166 0.850623 0.822155
v -1.337857 0.481503 0.776944
v -1.279620 1.460618 0.001750
v -1.452363 1.091499 0.001750
v -1.416167 0.850623 -0.818654
v -1.337857 0.481503 -0.773441
v -0.637403 1.460618 -1.110604
v -0.723774 1.091499 -1.260204
v 0.004815 1.551372 -0.822839
v 0.392323 1.551372 -0.669433
v 0.718930 1.551373 -0.410545
v 0.779831 1.551373 0.001749
v 0.718930 1.551373 0.414043
v 0.392323 1.551373 0.672932
v 0.004816 1.551373 0.826338
v -0.382691 1.551373 0.672932
v -0.709298 1.551373 0.414044
v -0.770199 1.551373 0.001750
v -0.709299 1.551373 -0.410544
v -0.382692 1.551372 -0.669433
v 0.004815 0.314303 -0.511578
v 0.246048 0.314303 -0.416079
v 0.449370 0.314303 -0.254914
v 0.487283 0.314303 0.001749
v 0.449371 0.314303 0.258413
v 0.246049 0.314303 0.419578
v 0.004816 0.314303 0.515078
v -0.236418 0.314303 0.419579
v -0.439739 0.314303 0.258414
v -0.477652 0.314303 0.001750
v -0.439740 0.314303 -0.254914
v -0.236419 0.314303 -0.416079
v 0.004815 -0.144489 -0.673883
v 0.322322 -0.144489 -0.548189
v 0.589930 -0.144489 -0.336067
v 0.639830 -0.144489 0.001749
v 0.589931 -0.144488 0.339566
v 0.322322 -0.144488 0.551688
v 0.004816 -0.144488 0.677383
v -0.312692 -0.144488 0.551689
v -0.580299 -0.144488 0.339567
v -0.630199 -0.144489 0.001750
v -0.580300 -0.144489 -0.336066
v -0.312692 -0.144489 -0.548189
v -0.944048 2.804917 -0.475313
v -0.942557 2.830376 -0.628551
v -0.871463 2.811226 -0.591670
v -0.872209 2.798496 -0.515051
v -0.968674 2.678443 -0.575306
v -0.924456 2.917170 -0.499817
v -0.923785 2.928615 -0.568704
v -0.888928 2.919487 -0.552182
v -0.889263 2.913765 -0.517739
v -0.916488 2.960883 -0.492477
v -0.915818 2.972328 -0.561364
v -0.880961 2.963201 -0.544842
v -0.881296 2.957478 -0.510399
v -1.014396 2.836797 -0.588813
v -1.015141 2.824068 -0.512194
v -0.958978 2.932019 -0.550782
v -0.959313 2.926297 -0.516338
v -0.951011 2.975733 -0.543442
v -0.951346 2.970010 -0.508998
v 0.935435 2.826051 -0.459467
v 0.934478 2.842092 -0.613440
v 1.002579 2.865247 -0.573348
v 1.006609 2.841995 -0.497694
v 0.952075 2.699011 -0.560386
v 0.920683 2.939212 -0.483170
v 0.919189 2.950987 -0.551989
v 0.954851 2.952648 -0.534762
v 0.955598 2.946760 -0.500353
v 0.914936 2.983218 -0.475515
v 0.913442 2.994994 -0.544334
v 0.949104 2.996655 -0.527107
v 0.949851 2.990767 -0.492698
v 0.860937 2.836301 -0.574325
v 0.862599 2.823204 -0.497782
v 0.884274 2.943438 -0.534806
v 0.885021 2.937550 -0.500396
v 0.878526 2.987445 -0.527151
v 0.879273 2.981557 -0.492742
v -0.940942 2.810450 0.612127
v -0.940453 2.811775 0.456789
v -0.869632 2.795948 0.495714
v -0.869877 2.795285 0.573384
v -0.971299 2.671008 0.533167
v -0.917670 2.916742 0.570350
v -0.917451 2.917338 0.500518
v -0.882737 2.909595 0.518021
v -0.882847 2.909297 0.552937
v -0.908061 2.960739 0.570756
v -0.907841 2.961335 0.500924
v -0.873127 2.953591 0.518426
v -0.873237 2.953293 0.553342
v -1.011517 2.826940 0.495532
v -1.011762 2.826277 0.573202
v -0.952274 2.924783 0.517932
v -0.952384 2.924486 0.552848
v -0.942664 2.968780 0.518337
v -0.942774 2.968482 0.553253
v 0.004430 2.806135 -1.019791
v 0.004430 2.852111 -1.168177
v 0.077045 2.840617 -1.131080
v 0.077045 2.817629 -1.056887
v 0.004430 2.692133 -1.136428
v 0.004430 2.922360 -1.028540
v 0.004430 2.943028 -1.095246
v 0.040018 2.937861 -1.078570
v 0.040018 2.927527 -1.045217
v 0.004430 2.965378 -1.015211
v 0.004430 2.986046 -1.081918
v 0.040018 2.980879 -1.065241
v 0.040018 2.970546 -1.031888
v -0.068185 2.840617 -1.131080
v -0.068185 2.817629 -1.056887
v -0.031158 2.937861 -1.078570
v -0.031158 2.927527 -1.045217
v -0.031158 2.980879 -1.065241
v -0.031158 2.970546 -1.031888
v -0.001267 2.858019 1.151396
v -0.001268 2.830247 0.998553
v 0.071347 2.837190 1.036764
v 0.071348 2.851076 1.113185
v -0.001267 2.703030 1.100614
v -0.001267 2.957057 1.089945
v -0.001268 2.944573 1.021235
v 0.034320 2.947694 1.038413
v 0.034320 2.953936 1.072768
v -0.001267 3.001368 1.081894
v -0.001268 2.988883 1.013184
v 0.034320 2.992004 1.030362
v 0.034320 2.998246 1.064716
v -0.073883 2.837190 1.036764
v -0.073883 2.851076 1.113185
v -0.036856 2.947694 1.038413
v -0.036856 2.953936 1.072768
v -0.036856 2.992004 1.030362
v -0.036856 2.998246 1.064716
v 0.931047 2.833747 0.606304
v 0.930677 2.820739 0.451505
v 1.001226 2.841488 0.488566
v 1.001411 2.847992 0.565965
v 0.965568 2.688573 0.540474
v 0.904706 2.935008 0.554952
v 0.904539 2.929160 0.485362
v 0.939111 2.939198 0.501956
v 0.939194 2.942121 0.536751
v 0.893807 2.978554 0.551318
v 0.893641 2.972706 0.481729
v 0.928212 2.982743 0.498323
v 0.928296 2.985667 0.533118
v 0.860313 2.806494 0.491843
v 0.860498 2.812998 0.569243
v 0.870051 2.922047 0.503563
v 0.870134 2.924971 0.538357
v 0.859152 2.965593 0.499930
v 0.859235 2.968517 0.534724
v 0.334919 3.900165 -0.700634
v 0.476468 3.923682 -0.699257
v 0.442400 3.905993 -0.633586
v 0.371626 3.894234 -0.634274
v 0.427284 3.783338 -0.723381
v 0.357553 4.003856 -0.682536
v 0.421186 4.014427 -0.681917
v 0.405924 4.005996 -0.649718
v 0.374108 4.000710 -0.650028
v 0.350773 4.044234 -0.675176
v 0.414406 4.054806 -0.674557
v 0.399144 4.046375 -0.642359
v 0.367328 4.041089 -0.642668
v 0.439761 3.929613 -0.765616
v 0.368986 3.917855 -0.766304
v 0.404631 4.017572 -0.714425
v 0.372814 4.012286 -0.714734
v 0.397851 4.057951 -0.707065
v 0.366034 4.052665 -0.707375
v 0.323279 3.915667 0.692805
v 0.465507 3.930485 0.691921
v 0.428473 3.951873 0.754828
v 0.358590 3.930395 0.758550
v 0.416500 3.798317 0.708175
v 0.345174 4.020196 0.679178
v 0.408743 4.031073 0.677798
v 0.392831 4.032608 0.710740
v 0.361046 4.027169 0.711430
v 0.338103 4.060846 0.673869
v 0.401672 4.071723 0.672489
v 0.385760 4.073257 0.705431
v 0.353975 4.067819 0.706121
v 0.429375 3.925135 0.623990
v 0.358671 3.913037 0.625525
v 0.392871 4.024100 0.645546
v 0.361086 4.018661 0.646236
v 0.385800 4.064750 0.640237
v 0.354015 4.059311 0.640927
v -0.471031 3.906419 -0.698589
v -0.327541 3.907643 -0.698138
v -0.363497 3.893023 -0.632720
v -0.435242 3.892411 -0.632945
v -0.398093 3.777613 -0.726631
v -0.432440 4.004603 -0.677093
v -0.367935 4.005154 -0.676890
v -0.384102 3.998001 -0.644825
v -0.416355 3.997725 -0.644926
v -0.432814 4.045244 -0.668217
v -0.368309 4.045794 -0.668013
v -0.384477 4.038641 -0.635948
v -0.416729 4.038366 -0.636049
v -0.363329 3.921651 -0.763782
v -0.435074 3.921039 -0.764007
v -0.384020 4.012031 -0.709057
v -0.416272 4.011756 -0.709159
v -0.384394 4.052672 -0.700180
v -0.416647 4.052397 -0.700282
v 0.739333 3.899324 0.002696
v 0.876401 3.941793 0.002696
v 0.842134 3.931175 0.069772
v 0.773600 3.909941 0.069773
v 0.847074 3.794018 0.002696
v 0.747416 4.006683 0.002696
v 0.809034 4.025775 0.002696
v 0.793629 4.021002 0.035570
v 0.762820 4.011456 0.035570
v 0.735104 4.046420 0.002696
v 0.796722 4.065512 0.002696
v 0.781317 4.060739 0.035570
v 0.750508 4.051193 0.035570
v 0.842134 3.931175 -0.064380
v 0.773600 3.909941 -0.064380
v 0.793629 4.021002 -0.030177
v 0.762820 4.011456 -0.030177
v 0.781317 4.060739 -0.030177
v 0.750508 4.051193 -0.030177
v -0.871435 3.944214 -0.001518
v -0.730251 3.918561 -0.001518
v -0.765548 3.924974 0.065558
v -0.836140 3.937801 0.065559
v -0.824527 3.801047 -0.001518
v -0.814672 4.035698 -0.001518
v -0.751203 4.024166 -0.001518
v -0.767070 4.027050 0.031356
v -0.798805 4.032816 0.031356
v -0.807235 4.076629 -0.001518
v -0.743766 4.065097 -0.001518
v -0.759633 4.067980 0.031356
v -0.791368 4.073746 0.031356
v -0.765548 3.924974 -0.068594
v -0.836140 3.937801 -0.068594
v -0.767070 4.027050 -0.034391
v -0.798805 4.032816 -0.034391
v -0.759633 4.067980 -0.034391
v -0.791368 4.073746 -0.034391
v -0.467523 3.925065 0.690371
v -0.324532 3.913049 0.690029
v -0.358766 3.932215 0.755197
v -0.430261 3.938223 0.755368
v -0.406715 3.790964 0.722259
v -0.420088 4.018601 0.666039
v -0.355807 4.013200 0.665885
v -0.371135 4.022471 0.697820
v -0.403276 4.025172 0.697897
v -0.416732 4.058825 0.655972
v -0.352451 4.053424 0.655818
v -0.367779 4.062696 0.687753
v -0.399920 4.065396 0.687829
v -0.361793 3.899890 0.625032
v -0.433289 3.905898 0.625203
v -0.372619 4.006629 0.634027
v -0.404760 4.009330 0.634104
v -0.369263 4.046853 0.623960
v -0.401403 4.049554 0.624037
v -0.573999 1.748735 1.106795
v -0.724362 1.773716 1.105332
v -0.688173 1.754925 1.035572
v -0.612992 1.742434 1.036304
v -0.672116 1.624633 1.130959
v -0.598043 1.858882 1.087570
v -0.665638 1.870112 1.086913
v -0.649426 1.861156 1.052709
v -0.615629 1.855541 1.053038
v -0.590841 1.901775 1.079753
v -0.658436 1.913005 1.079095
v -0.642224 1.904049 1.044891
v -0.608426 1.898434 1.045220
v -0.685370 1.780016 1.175824
v -0.610188 1.767526 1.176555
v -0.648052 1.873452 1.121445
v -0.614255 1.867838 1.121774
v -0.640850 1.916346 1.113628
v -0.607052 1.910731 1.113956
v -0.555211 1.773816 -1.107764
v -0.706295 1.789556 -1.106825
v -0.666956 1.812276 -1.173648
v -0.592721 1.789461 -1.177602
v -0.654237 1.649159 -1.124091
v -0.578469 1.884854 -1.093289
v -0.645997 1.896408 -1.091822
v -0.629094 1.898038 -1.126816
v -0.595330 1.892261 -1.127549
v -0.570958 1.928035 -1.087649
v -0.638486 1.939590 -1.086183
v -0.621582 1.941219 -1.121176
v -0.587819 1.935442 -1.121909
v -0.667914 1.783874 -1.034663
v -0.592808 1.771022 -1.036294
v -0.629136 1.889001 -1.057562
v -0.595372 1.883224 -1.058295
v -0.621625 1.932182 -1.051923
v -0.587861 1.926405 -1.052656
v 0.707607 1.752928 1.102855
v 0.555182 1.754228 1.102376
v 0.593378 1.738698 1.032884
v 0.669590 1.738048 1.033124
v 0.630127 1.616101 1.132643
v 0.666613 1.857226 1.080021
v 0.598091 1.857810 1.079805
v 0.615266 1.850212 1.045743
v 0.649527 1.849920 1.045851
v 0.667011 1.900397 1.070591
v 0.598489 1.900982 1.070376
v 0.615664 1.893384 1.036313
v 0.649924 1.893091 1.036421
v 0.593199 1.769108 1.172107
v 0.669411 1.768458 1.172347
v 0.615178 1.865116 1.113975
v 0.649439 1.864824 1.114083
v 0.615576 1.908288 1.104545
v 0.649837 1.907995 1.104653
v -1.214744 1.752055 -0.010634
v -1.360347 1.797168 -0.010634
v -1.323946 1.785890 -0.081887
v -1.251145 1.763333 -0.081887
v -1.329194 1.640192 -0.010634
v -1.223330 1.866099 -0.010634
v -1.288785 1.886380 -0.010634
v -1.272421 1.881310 -0.045554
v -1.239694 1.871170 -0.045554
v -1.210251 1.908311 -0.010634
v -1.275706 1.928591 -0.010634
v -1.259342 1.923521 -0.045554
v -1.226615 1.913381 -0.045554
v -1.323946 1.785890 0.060619
v -1.251145 1.763333 0.060619
v -1.272421 1.881310 0.024287
v -1.239694 1.871170 0.024287
v -1.259342 1.923521 0.024287
v -1.226615 1.913381 0.024287
v 1.342375 1.806245 -0.003910
v 1.192399 1.778994 -0.003910
v 1.229893 1.785806 -0.075163
v 1.304881 1.799432 -0.075163
v 1.292545 1.654163 -0.003910
v 1.282076 1.903425 -0.003910
v 1.214656 1.891175 -0.003910
v 1.231511 1.894238 -0.038830
v 1.265221 1.900363 -0.038830
v 1.274176 1.946904 -0.003910
v 1.206755 1.934654 -0.003910
v 1.223611 1.937716 -0.038830
v 1.257321 1.943842 -0.038830
v 1.229893 1.785806 0.067343
v 1.304881 1.799432 0.067343
v 1.231511 1.894238 0.031011
v 1.265221 1.900363 0.031011
v 1.223611 1.937716 0.031011
v 1.257321 1.943842 0.031011
v 0.699870 1.778893 -1.101708
v 0.547974 1.766129 -1.101345
v 0.584340 1.786489 -1.170571
v 0.660288 1.792871 -1.170752
v 0.635275 1.636443 -1.135582
v 0.649481 1.878255 -1.075861
v 0.581197 1.872517 -1.075698
v 0.597480 1.882366 -1.109621
v 0.631622 1.885235 -1.109702
v 0.645916 1.920984 -1.065167
v 0.577632 1.915246 -1.065003
v 0.593915 1.925095 -1.098927
v 0.628057 1.927964 -1.099008
v 0.587556 1.752151 -1.032301
v 0.663504 1.758533 -1.032483
v 0.599056 1.865537 -1.041856
v 0.633198 1.868406 -1.041937
v 0.595491 1.908266 -1.031162
v 0.629633 1.911135 -1.031243
v 1.359780 0.398002 0.712662
v 1.356989 0.424511 0.872756
v 1.283604 0.401596 0.834138
v 1.284999 0.388341 0.754091
v 1.390569 0.266978 0.817160
v 1.334678 0.514380 0.738238
v 1.333423 0.526297 0.810208
v 1.297430 0.515335 0.792904
v 1.298057 0.509377 0.756919
v 1.324571 0.559687 0.730560
v 1.323316 0.571604 0.802530
v 1.287323 0.560642 0.785226
v 1.287950 0.554684 0.749241
v 1.431769 0.434171 0.831327
v 1.433165 0.420917 0.751280
v 1.370044 0.531300 0.791527
v 1.370672 0.525342 0.755542
v 1.359938 0.576607 0.783848
v 1.360565 0.570649 0.747864
v -1.359411 0.392740 0.714329
v -1.356788 0.406509 0.875458
v -1.424779 0.439116 0.834037
v -1.431534 0.416804 0.754590
v -1.391466 0.260941 0.817463
v -1.331091 0.508100 0.741125
v -1.328280 0.518913 0.813225
v -1.365096 0.525056 0.795281
v -1.366501 0.519650 0.759231
v -1.320043 0.553265 0.733921
v -1.317233 0.564078 0.806021
v -1.354048 0.570221 0.788077
v -1.355454 0.564815 0.752027
v -1.281035 0.392730 0.834451
v -1.284162 0.380702 0.754260
v -1.292870 0.507363 0.795119
v -1.294276 0.501956 0.759069
v -1.281822 0.552528 0.787915
v -1.283228 0.547121 0.751865
v 1.356187 0.405288 -0.860259
v 1.354779 0.391655 -0.698541
v 1.280422 0.381985 -0.740723
v 1.281126 0.388802 -0.821583
v 1.381510 0.251419 -0.791570
v 1.336122 0.512715 -0.806549
v 1.335489 0.506587 -0.733849
v 1.299033 0.501710 -0.752883
v 1.299349 0.504774 -0.789233
v 1.327949 0.558894 -0.802727
v 1.327316 0.552765 -0.730028
v 1.290860 0.547888 -0.749062
v 1.291176 0.550952 -0.785412
v 1.429840 0.408141 -0.737217
v 1.430544 0.414957 -0.818076
v 1.372261 0.514528 -0.751165
v 1.372578 0.517593 -0.787515
v 1.364088 0.560706 -0.747343
v 1.364405 0.563771 -0.783693
v -0.014166 0.343527 1.497182
v -0.014348 0.391560 1.652210
v -0.090167 0.379552 1.613364
v -0.090077 0.355535 1.535850
v -0.014309 0.224423 1.619040
v -0.014177 0.464954 1.506323
v -0.014258 0.486547 1.576015
v -0.051419 0.481149 1.558549
v -0.051378 0.470352 1.523703
v -0.014160 0.509897 1.492398
v -0.014242 0.531490 1.562090
v -0.051402 0.526092 1.544624
v -0.051362 0.515296 1.509778
v 0.061563 0.379552 1.613541
v 0.061654 0.355535 1.536028
v 0.022943 0.481149 1.558636
v 0.022984 0.470352 1.523790
v 0.022959 0.526092 1.544711
v 0.023000 0.515296 1.509865
v -0.002224 0.404424 -1.641794
v -0.002410 0.375409 -1.482111
v -0.078229 0.382663 -1.522120
v -0.078136 0.397170 -1.601962
v -0.002286 0.242498 -1.588739
v -0.002299 0.507896 -1.577593
v -0.002383 0.494852 -1.505808
v -0.039543 0.498113 -1.523798
v -0.039501 0.504635 -1.559690
v -0.002309 0.554189 -1.569181
v -0.002393 0.541146 -1.497396
v -0.039552 0.544406 -1.515386
v -0.039510 0.550928 -1.551279
v 0.073501 0.382663 -1.521942
v 0.073595 0.397170 -1.601784
v 0.034819 0.498113 -1.523711
v 0.034861 0.504635 -1.559603
v 0.034809 0.544406 -1.515299
v 0.034851 0.550928 -1.551191
v -1.348079 0.406524 -0.854243
v -1.347882 0.392934 -0.692515
v -1.421543 0.414612 -0.731320
v -1.421642 0.421407 -0.812184
v -1.384226 0.254853 -0.785508
v -1.320621 0.512318 -0.800560
v -1.320533 0.506208 -0.727856
v -1.356631 0.516695 -0.745235
v -1.356676 0.519749 -0.781587
v -1.309239 0.557812 -0.796750
v -1.309151 0.551703 -0.724046
v -1.345249 0.562189 -0.741426
v -1.345294 0.565244 -0.777778
v -1.274319 0.378051 -0.734572
v -1.274418 0.384846 -0.815437
v -1.284478 0.498776 -0.746828
v -1.284522 0.501831 -0.783180
v -1.273096 0.544271 -0.743019
v -1.273141 0.547326 -0.779371
v 0.102690 6.060308 -0.022962
v 0.102690 6.060308 0.026458
v 0.166595 5.863627 -0.022962
v 0.166595 5.863627 0.026458
v -0.168016 5.863627 -0.022961
v -0.168016 5.863627 0.026458
v -0.104111 6.060308 -0.022961
v -0.104111 6.060308 0.026458
v -0.000711 6.269820 0.001748
v 0.333900 6.026711 0.001748
v 0.206090 5.633352 0.001748
v -0.207512 5.633352 0.001749
v -0.335322 6.026711 0.001749
v -0.000711 5.917989 0.061641
v -0.000711 5.917989 -0.058145
v -0.000711 5.724798 -0.019035
v -0.000711 5.724798 0.022532
vn -0.0000 -1.0000 -0.0000
vn -0.0794 0.1217 -0.9894
vn 0.0794 0.1217 -0.9894
vn 0.8171 0.1217 -0.5634
vn 0.8965 0.1217 -0.4259
vn 0.8965 0.1217 0.4259
vn 0.8171 0.1217 0.5634
vn 0.0794 0.1217 0.9894
vn -0.0794 0.1217 0.9894
vn -0.8171 0.1217 0.5634
vn -0.8965 0.1217 0.4259
vn -0.8965 0.1217 -0.4259
vn -0.8171 0.1217 -0.5634
vn 0.4251 -0.6450 0.6350
vn -0.6834 0.4280 -0.5914
vn 0.3374 -0.6450 0.6857
vn -0.1705 0.4280 -0.8876
vn 0.1705 0.4280 -0.8876
vn -0.4251 -0.6450 0.6350
vn 0.6834 0.4280 -0.5914
vn -0.3374 -0.6450 0.6857
vn 0.8539 0.4280 -0.2961
vn -0.7625 -0.6450 -0.0506
vn 0.8539 0.4280 0.2961
vn -0.7625 -0.6450 0.0506
vn 0.6834 0.4280 0.5914
vn -0.3374 -0.6450 -0.6857
vn 0.1705 0.4280 0.8876
vn -0.4251 -0.6450 -0.6350
vn -0.1705 0.4280 0.8876
vn 0.4251 -0.6450 -0.6350
vn -0.6834 0.4280 0.5914
vn 0.3374 -0.6450 -0.6857
vn -0.8539 0.4280 0.2961
vn 0.7625 -0.6450 0.0506
vn -0.8539 0.4280 -0.2961
vn 0.7625 -0.6450 -0.0506
vn 0.4259 0.1217 -0.8965
vn 0.5634 0.1217 -0.8171
vn 0.9894 0.1217 -0.0794
vn 0.9894 0.1217 0.0794
vn 0.5634 0.1217 0.8171
vn 0.4259 0.1217 0.8965
vn -0.4259 0.1217 0.8965
vn -0.5634 0.1217 0.8171
vn -0.9894 0.1217 0.0794
vn -0.9894 0.1217 -0.0794
vn -0.5634 0.1217 -0.8171
vn -0.4259 0.1217 -0.8965
vn 0.0506 -0.6450 0.7625
vn -0.2961 0.4280 -0.8539
vn -0.0506 -0.6450 0.7625
vn 0.2961 0.4280 -0.8539
vn 0.5914 0.4280 -0.6834
vn -0.6857 -0.6450 0.3374
vn 0.8876 0.4280 -0.1705
vn -0.6350 -0.6450 0.4251
vn 0.8876 0.4280 0.1705
vn -0.6350 -0.6450 -0.4251
vn 0.5914 0.4280 0.6834
vn -0.6857 -0.6450 -0.3374
vn 0.2961 0.4280 0.8539
vn 0.0506 -0.6450 -0.7625
vn -0.2961 0.4280 0.8539
vn -0.0506 -0.6450 -0.7625
vn -0.5914 0.4280 0.6834
vn 0.6857 -0.6450 -0.3374
vn -0.8876 0.4280 0.1705
vn 0.6350 -0.6450 -0.4251
vn -0.8876 0.4280 -0.1705
vn 0.6350 -0.6450 0.4251
vn -0.5914 0.4280 -0.6834
vn 0.6857 -0.6450 0.3374
vn 0.3674 0.0617 0.9280
vn -0.9397 0.3125 0.1388
vn 0.9874 0.0617 -0.1458
vn -0.9874 0.0617 -0.1458
vn -0.3674 0.0617 0.9280
vn 0.9874 0.0617 0.1458
vn -0.6200 0.0617 -0.7822
vn 0.3674 0.0617 -0.9280
vn -0.6200 0.0617 0.7822
vn 0.6200 0.0617 0.7822
vn -0.3674 0.0617 -0.9280
vn 0.6200 0.0617 -0.7822
vn -0.9874 0.0617 0.1458
vn 0.3497 0.3125 0.8832
vn 0.9397 0.3125 -0.1388
vn -0.9397 0.3125 -0.1388
vn -0.3497 0.3125 0.8832
vn 0.9397 0.3125 0.1388
vn -0.5901 0.3125 -0.7444
vn 0.3497 0.3125 -0.8832
vn -0.5901 0.3125 0.7444
vn 0.5901 0.3125 0.7444
vn -0.3497 0.3125 -0.8832
vn 0.5901 0.3125 -0.7444
vn 0.3502 -0.3628 -0.8635
vn 0.7981 -0.5955 -0.0912
vn 0.9842 -0.1761 -0.0197
vn 0.4790 0.0989 0.8722
vn 0.9885 0.1471 0.0340
vn 0.4951 0.3741 -0.7842
vn 0.3350 -0.6236 0.7063
vn 0.4249 -0.2247 0.8769
vn 0.4421 0.0696 -0.8943
vn -0.4874 -0.2130 -0.8468
vn -0.9580 -0.2814 -0.0561
vn -0.9842 0.1761 0.0197
vn -0.3808 0.2527 0.8894
vn -0.8742 0.4803 0.0713
vn -0.3647 0.5279 -0.7670
vn -0.5027 -0.4738 0.7231
vn -0.4421 -0.0696 0.8943
vn -0.4249 0.2247 -0.8769
vn 0.5506 -0.2299 -0.8025
vn 0.9440 -0.2979 -0.1418
vn 0.9916 0.1294 0.0006
vn 0.4099 0.2305 0.8825
vn 0.8926 0.4439 0.0788
vn 0.3194 0.5097 -0.7989
vn 0.4940 -0.5002 0.7111
vn 0.4559 -0.0944 0.8850
vn 0.4175 0.2084 -0.8845
vn -0.4157 -0.3607 -0.8349
vn -0.8270 -0.5568 -0.0773
vn -0.9916 -0.1294 -0.0006
vn -0.4564 0.1174 0.8820
vn -0.9796 0.1933 0.0544
vn -0.4616 0.3897 -0.7969
vn -0.3500 -0.6104 0.7106
vn -0.4175 -0.2084 0.8845
vn -0.4559 0.0944 -0.8850
vn 0.3263 -0.5050 -0.7990
vn 0.7752 -0.6317 -0.0029
vn 0.9770 -0.2134 0.0013
vn 0.4930 0.2151 0.8430
vn 0.9935 0.1138 0.0041
vn 0.4983 0.2294 -0.8361
vn 0.3213 -0.5186 0.7923
vn 0.4275 -0.1016 0.8983
vn 0.4331 -0.0863 -0.8972
vn -0.5052 -0.3234 -0.8001
vn -0.9680 -0.2509 -0.0052
vn -0.9770 0.2134 -0.0013
vn -0.3605 0.4015 0.8419
vn -0.8556 0.5177 0.0017
vn -0.3552 0.4158 -0.8372
vn -0.5102 -0.3370 0.7913
vn -0.4331 0.0863 0.8972
vn -0.4275 0.1016 -0.8983
vn 0.4256 -0.1762 -0.8876
vn 0.8922 -0.4315 -0.1337
vn 1.0000 -0.0000 -0.0000
vn 0.4368 0.0599 0.8975
vn 0.9463 0.3087 0.0956
vn 0.4368 0.5569 -0.7064
vn 0.4256 -0.6471 0.6325
vn 0.4404 -0.2657 0.8576
vn 0.4404 0.2657 -0.8576
vn -0.4256 -0.1762 -0.8876
vn -0.8922 -0.4315 -0.1337
vn -1.0000 -0.0000 -0.0000
vn -0.4368 0.0599 0.8975
vn -0.9463 0.3087 0.0956
vn -0.4368 0.5569 -0.7064
vn -0.4256 -0.6471 0.6325
vn -0.4404 -0.2657 0.8576
vn -0.4404 0.2657 -0.8576
vn -0.1276 0.9772 0.1700
vn 0.2134 0.9769 0.0090
vn -0.0000 0.9552 0.2960
vn 0.1769 0.9706 0.1630
vn 0.4256 -0.5663 -0.7059
vn 0.8922 -0.4445 0.0808
vn 0.4368 0.4678 0.7684
vn 0.9463 0.3180 -0.0578
vn 0.4368 0.1676 -0.8838
vn 0.4256 -0.2818 0.8599
vn 0.4404 0.1605 0.8833
vn 0.4404 -0.1605 -0.8833
vn -0.4256 -0.5663 -0.7059
vn -0.8922 -0.4444 0.0808
vn -0.4368 0.4678 0.7684
vn -0.9463 0.3180 -0.0578
vn -0.4368 0.1676 -0.8838
vn -0.4256 -0.2818 0.8599
vn -0.4404 0.1605 0.8833
vn -0.4404 -0.1605 -0.8833
vn -0.0000 0.9839 -0.1788
vn 0.5153 -0.3808 -0.7678
vn 0.9750 -0.2218 0.0163
vn 0.9703 0.2410 -0.0226
vn 0.3477 0.4878 0.8007
vn 0.8400 0.5405 -0.0474
vn 0.3437 0.3472 -0.8726
vn 0.5191 -0.2475 0.8181
vn 0.4295 0.1813 0.8847
vn 0.4252 0.0309 -0.9046
vn -0.3105 -0.5859 -0.7485
vn -0.7563 -0.6518 0.0566
vn -0.9703 -0.2410 0.0226
vn -0.5000 0.2773 0.8205
vn -0.9964 0.0844 -0.0047
vn -0.5040 0.1366 -0.8528
vn -0.3067 -0.4526 0.8373
vn -0.4252 -0.0309 0.9046
vn -0.4295 -0.1813 -0.8847
vn -0.2420 0.9669 -0.0807
vn 0.8635 -0.3628 0.3502
vn 0.0912 -0.5955 0.7981
vn 0.0197 -0.1761 0.9842
vn -0.8722 0.0989 0.4790
vn -0.0340 0.1471 0.9885
vn 0.7842 0.3741 0.4951
vn -0.7063 -0.6236 0.3350
vn -0.8769 -0.2247 0.4249
vn 0.8943 0.0696 0.4421
vn 0.8468 -0.2130 -0.4874
vn 0.0561 -0.2814 -0.9580
vn -0.0197 0.1761 -0.9842
vn -0.8894 0.2527 -0.3808
vn -0.0713 0.4803 -0.8742
vn 0.7670 0.5279 -0.3647
vn -0.7231 -0.4738 -0.5027
vn -0.8943 -0.0696 -0.4421
vn 0.8769 0.2247 -0.4249
vn 0.8025 -0.2299 0.5506
vn 0.1418 -0.2979 0.9440
vn -0.0006 0.1294 0.9916
vn -0.8825 0.2305 0.4099
vn -0.0788 0.4439 0.8926
vn 0.7989 0.5097 0.3194
vn -0.7111 -0.5002 0.4940
vn -0.8850 -0.0944 0.4559
vn 0.8845 0.2084 0.4175
vn 0.8349 -0.3607 -0.4157
vn 0.0773 -0.5568 -0.8270
vn 0.0006 -0.1294 -0.9916
vn -0.8820 0.1174 -0.4564
vn -0.0544 0.1933 -0.9796
vn 0.7969 0.3897 -0.4616
vn -0.7106 -0.6104 -0.3500
vn -0.8845 -0.2084 -0.4175
vn 0.8850 0.0944 -0.4559
vn 0.7990 -0.5050 0.3263
vn 0.0029 -0.6317 0.7752
vn -0.0013 -0.2134 0.9770
vn -0.8430 0.2151 0.4930
vn -0.0041 0.1138 0.9935
vn 0.8361 0.2294 0.4983
vn -0.7923 -0.5186 0.3213
vn -0.8983 -0.1016 0.4275
vn 0.8972 -0.0863 0.4331
vn 0.8001 -0.3234 -0.5052
vn 0.0052 -0.2509 -0.9680
vn 0.0013 0.2134 -0.9770
vn -0.8419 0.4015 -0.3605
vn -0.0017 0.5177 -0.8556
vn 0.8372 0.4158 -0.3552
vn -0.7913 -0.3370 -0.5102
vn -0.8972 0.0863 -0.4331
vn 0.8983 0.1016 -0.4275
vn 0.8876 -0.1762 0.4256
vn 0.1337 -0.4315 0.8922
vn -0.0000 -0.0000 1.0000
vn -0.8975 0.0599 0.4368
vn -0.0956 0.3087 0.9463
vn 0.7064 0.5569 0.4368
vn -0.6325 -0.6471 0.4256
vn -0.8576 -0.2657 0.4404
vn 0.8576 0.2657 0.4404
vn 0.8876 -0.1762 -0.4256
vn 0.1337 -0.4315 -0.8922
vn -0.0000 -0.0000 -1.0000
vn -0.8976 0.0599 -0.4368
vn -0.0956 0.3087 -0.9463
vn 0.7064 0.5569 -0.4368
vn -0.6325 -0.6471 -0.4256
vn -0.8576 -0.2657 -0.4404
vn 0.8576 0.2657 -0.4404
vn -0.1700 0.9772 -0.1276
vn -0.0090 0.9769 0.2134
vn -0.2960 0.9552 -0.0000
vn -0.1630 0.9706 0.1769
vn 0.7059 -0.5663 0.4256
vn -0.0808 -0.4444 0.8922
vn -0.7684 0.4678 0.4368
vn 0.0578 0.3180 0.9463
vn 0.8838 0.1676 0.4368
vn -0.8599 -0.2818 0.4256
vn -0.8833 0.1605 0.4404
vn 0.8833 -0.1605 0.4404
vn 0.7058 -0.5663 -0.4256
vn -0.0808 -0.4444 -0.8922
vn -0.7684 0.4678 -0.4368
vn 0.0578 0.3180 -0.9463
vn 0.8838 0.1676 -0.4368
vn -0.8599 -0.2818 -0.4256
vn -0.8833 0.1605 -0.4404
vn 0.8833 -0.1605 -0.4404
vn 0.1788 0.9839 -0.0000
vn 0.7678 -0.3808 0.5153
vn -0.0163 -0.2218 0.9750
vn 0.0226 0.2410 0.9703
vn -0.8007 0.4878 0.3477
vn 0.0474 0.5405 0.8400
vn 0.8726 0.3472 0.3437
vn -0.8181 -0.2475 0.5191
vn -0.8847 0.1813 0.4295
vn 0.9046 0.0309 0.4252
vn 0.7485 -0.5859 -0.3105
vn -0.0566 -0.6518 -0.7563
vn -0.0226 -0.2410 -0.9703
vn -0.8205 0.2773 -0.5000
vn 0.0047 0.0844 -0.9964
vn 0.8528 0.1366 -0.5040
vn -0.8373 -0.4526 -0.3067
vn -0.9046 -0.0309 -0.4252
vn 0.8847 -0.1813 -0.4295
vn 0.0807 0.9669 -0.2420
vn -0.8635 -0.3628 -0.3502
vn -0.0912 -0.5955 -0.7981
vn -0.0197 -0.1761 -0.9842
vn 0.8722 0.0989 -0.4790
vn 0.0340 0.1471 -0.9885
vn -0.7842 0.3741 -0.4951
vn 0.7063 -0.6236 -0.3350
vn 0.8769 -0.2247 -0.4248
vn -0.8943 0.0696 -0.4421
vn -0.8468 -0.2130 0.4874
vn -0.0561 -0.2814 0.9580
vn 0.0197 0.1761 0.9842
vn 0.8894 0.2527 0.3808
vn 0.0713 0.4803 0.8742
vn -0.7670 0.5279 0.3647
vn 0.7231 -0.4738 0.5027
vn 0.8943 -0.0696 0.4421
vn -0.8769 0.2247 0.4249
vn -0.8025 -0.2299 -0.5506
vn -0.1418 -0.2979 -0.9440
vn 0.0006 0.1294 -0.9916
vn 0.8825 0.2305 -0.4099
vn 0.0788 0.4439 -0.8926
vn -0.7989 0.5097 -0.3194
vn 0.7111 -0.5002 -0.4940
vn 0.8850 -0.0944 -0.4559
vn -0.8845 0.2084 -0.4175
vn -0.8349 -0.3607 0.4157
vn -0.0773 -0.5568 0.8270
vn -0.0006 -0.1294 0.9916
vn 0.8820 0.1174 0.4564
vn 0.0544 0.1933 0.9796
vn -0.7969 0.3897 0.4616
vn 0.7106 -0.6104 0.3500
vn 0.8845 -0.2084 0.4175
vn -0.8850 0.0944 0.4559
vn -0.7990 -0.5050 -0.3263
vn -0.0029 -0.6317 -0.7752
vn 0.0013 -0.2134 -0.9770
vn 0.8430 0.2151 -0.4930
vn 0.0041 0.1138 -0.9935
vn -0.8361 0.2294 -0.4983
vn 0.7923 -0.5186 -0.3213
vn 0.8983 -0.1016 -0.4275
vn -0.8972 -0.0863 -0.4331
vn -0.8001 -0.3234 0.5052
vn -0.0052 -0.2509 0.9680
vn -0.0013 0.2134 0.9770
vn 0.8419 0.4015 0.3605
vn 0.0017 0.5177 0.8556
vn -0.8372 0.4158 0.3552
vn 0.7913 -0.3370 0.5102
vn 0.8972 0.0863 0.4331
vn -0.8983 0.1016 0.4275
vn -0.8876 -0.1762 -0.4256
vn -0.1337 -0.4315 -0.8922
vn 0.8975 0.0599 -0.4368
vn 0.0956 0.3087 -0.9463
vn -0.7064 0.5569 -0.4368
vn 0.6325 -0.6472 -0.4256
vn 0.8576 -0.2657 -0.4404
vn -0.8576 0.2657 -0.4404
vn -0.8876 -0.1762 0.4256
vn -0.1337 -0.4315 0.8922
vn 0.8975 0.0599 0.4368
vn 0.0956 0.3087 0.9463
vn -0.7064 0.5569 0.4368
vn 0.6325 -0.6472 0.4256
vn 0.8576 -0.2657 0.4404
vn -0.8576 0.2657 0.4404
vn 0.1700 0.9772 0.1276
vn 0.0090 0.9769 -0.2134
vn 0.2960 0.9552 -0.0000
vn 0.1630 0.9706 -0.1769
vn -0.7059 -0.5663 -0.4256
vn 0.0808 -0.4444 -0.8922
vn 0.7684 0.4678 -0.4368
vn -0.0578 0.3180 -0.9463
vn -0.8838 0.1676 -0.4368
vn 0.8599 -0.2818 -0.4256
vn 0.8833 0.1605 -0.4404
vn -0.8833 -0.1605 -0.4404
vn -0.7059 -0.5663 0.4256
vn 0.0808 -0.4444 0.8922
vn 0.7684 0.4678 0.4368
vn -0.0578 0.3180 0.9463
vn -0.8838 0.1676 0.4368
vn 0.8599 -0.2818 0.4256
vn 0.8833 0.1605 0.4404
vn -0.8833 -0.1605 0.4404
vn -0.1788 0.9839 -0.0000
vn -0.7678 -0.3808 -0.5153
vn 0.0163 -0.2218 -0.9750
vn -0.0226 0.2410 -0.9703
vn 0.8007 0.4878 -0.3477
vn -0.0474 0.5405 -0.8400
vn -0.8726 0.3472 -0.3437
vn 0.8181 -0.2475 -0.5191
vn 0.8847 0.1813 -0.4295
vn -0.9046 0.0309 -0.4252
vn -0.7485 -0.5859 0.3105
vn 0.0566 -0.6518 0.7563
vn 0.0226 -0.2410 0.9703
vn 0.8205 0.2773 0.5000
vn -0.0047 0.0844 0.9964
vn -0.8528 0.1366 0.5040
vn 0.8373 -0.4526 0.3067
vn 0.9046 -0.0309 0.4252
vn -0.8847 -0.1813 0.4295
vn -0.0807 0.9669 0.2420
vn -0.3367 -0.3764 0.8631
vn -0.7742 -0.6265 0.0902
vn -0.9765 -0.2147 0.0185
vn -0.4815 0.0800 -0.8728
vn -0.9935 0.1080 -0.0352
vn -0.5104 0.3543 0.7836
vn -0.3093 -0.6363 -0.7067
vn -0.4146 -0.2412 -0.8774
vn -0.4455 0.0521 0.8938
vn 0.4945 -0.1936 0.8474
vn 0.9682 -0.2434 0.0572
vn 0.9765 0.2147 -0.0185
vn 0.3716 0.2676 -0.8890
vn 0.8547 0.5144 -0.0703
vn 0.3428 0.5418 0.7674
vn 0.5218 -0.4536 -0.7225
vn 0.4455 -0.0521 -0.8938
vn 0.4146 0.2412 0.8774
vn -0.5737 -0.1815 0.7987
vn -0.9713 -0.1944 0.1372
vn -0.9713 0.2379 0.0022
vn -0.3808 0.2894 -0.8782
vn -0.8381 0.5409 -0.0706
vn -0.2623 0.5279 0.8078
vn -0.5452 -0.4304 -0.7194
vn -0.4624 -0.0283 -0.8862
vn -0.3932 0.2379 0.8882
vn 0.3722 -0.4187 0.8283
vn 0.7605 -0.6459 0.0672
vn 0.9713 -0.2379 -0.0022
vn 0.4677 0.0816 -0.8801
vn 0.9950 0.0850 -0.0515
vn 0.5007 0.3226 0.8033
vn 0.2815 -0.6329 -0.7213
vn 0.3932 -0.2379 -0.8882
vn 0.4624 0.0283 0.8862
vn -0.3511 -0.5632 0.7480
vn -0.8001 -0.5971 -0.0573
vn -0.9848 -0.1724 -0.0231
vn -0.4790 0.3121 -0.8205
vn -0.9881 0.1540 0.0044
vn -0.4935 0.1711 0.8527
vn -0.3373 -0.4295 -0.8377
vn -0.4259 -0.0005 -0.9048
vn -0.4415 -0.1513 0.8844
vn 0.4870 -0.4164 0.7677
vn 0.9570 -0.2896 -0.0161
vn 0.9848 0.1724 0.0231
vn 0.3814 0.4627 -0.8003
vn 0.8758 0.4803 0.0481
vn 0.3668 0.3217 0.8729
vn 0.5008 -0.2828 -0.8180
vn 0.4415 0.1513 -0.8844
vn 0.4259 0.0005 0.9048
vn -0.4266 -0.1762 0.8871
vn -0.8923 -0.4315 0.1326
vn -1.0000 -0.0000 -0.0012
vn -0.4358 0.0599 -0.8981
vn -0.9462 0.3087 -0.0968
vn -0.4376 0.5569 0.7059
vn -0.4248 -0.6471 -0.6330
vn -0.4394 -0.2657 -0.8581
vn -0.4414 0.2657 0.8570
vn 0.4245 -0.1761 0.8881
vn 0.8920 -0.4315 0.1347
vn 1.0000 -0.0000 0.0012
vn 0.4379 0.0599 -0.8970
vn 0.9465 0.3087 -0.0945
vn 0.4360 0.5569 0.7069
vn 0.4263 -0.6472 -0.6320
vn 0.4414 -0.2657 -0.8570
vn 0.4394 0.2657 0.8581
vn 0.2348 0.9599 -0.1531
vn -0.1737 0.9814 0.0812
vn 0.0003 0.9552 -0.2960
vn -0.2148 0.9629 -0.1632
vn -0.4264 -0.5663 0.7054
vn -0.8921 -0.4444 -0.0818
vn -0.4359 0.4678 -0.7689
vn -0.9464 0.3180 0.0567
vn -0.4379 0.1676 0.8833
vn -0.4246 -0.2818 -0.8604
vn -0.4394 0.1605 -0.8838
vn -0.4415 -0.1605 0.8828
vn 0.4247 -0.5663 0.7064
vn 0.8923 -0.4445 -0.0797
vn 0.4377 0.4678 -0.7678
vn 0.9463 0.3180 0.0589
vn 0.4358 0.1676 0.8843
vn 0.4266 -0.2818 -0.8594
vn 0.4415 0.1605 -0.8828
vn 0.4394 -0.1605 0.8838
vn -0.0002 0.9839 0.1788
vn -0.5162 -0.3808 0.7672
vn -0.9749 -0.2218 -0.0175
vn -0.9703 0.2410 0.0214
vn -0.3468 0.4878 -0.8012
vn -0.8401 0.5405 0.0464
vn -0.3447 0.3472 0.8722
vn -0.5181 -0.2475 -0.8187
vn -0.4284 0.1813 -0.8852
vn -0.4263 0.0309 0.9041
vn 0.3096 -0.5859 0.7489
vn 0.7564 -0.6518 -0.0557
vn 0.9703 -0.2410 -0.0214
vn 0.5009 0.2773 -0.8199
vn 0.9964 0.0844 0.0059
vn 0.5030 0.1366 0.8534
vn 0.3077 -0.4526 -0.8369
vn 0.4263 -0.0309 -0.9041
vn 0.4284 -0.1813 0.8852
vn 0.2419 0.9669 0.0810
vn 0.0108 -0.1984 -0.9801
vn 0.1908 -0.0472 -0.9805
vn 0.1822 -0.0740 0.9805
vn -0.1822 -0.0740 -0.9805
vn -0.1908 -0.0472 -0.9805
vn -0.1266 0.1504 0.9805
vn 0.1266 0.1504 0.9805
vn 0.8967 0.4426 -0.0000
vn -0.8967 0.4426 -0.0000
vn 0.1266 0.1504 -0.9805
vn 0.0108 -0.1984 0.9801
vn 0.1438 0.9896 -0.0000
vn 0.6980 -0.7161 -0.0000
vn 0.1822 -0.0740 -0.9805
vn 0.1908 -0.0472 0.9805
vn 0.9856 0.1690 -0.0000
vn -0.1822 -0.0740 0.9805
vn -0.9856 0.1690 -0.0000
vn -0.1908 -0.0472 0.9805
vn -0.6980 -0.7161 -0.0000
vn -0.1438 0.9896 -0.0000
vn -0.1039 0.1669 0.9805
vn -0.1266 0.1504 -0.9805
vn -0.1039 0.1669 -0.9805
vn -0.0108 -0.1984 -0.9801
vn 0.4044 -0.9146 -0.0000
vn -0.4044 -0.9146 -0.0000
vn -0.0108 -0.1984 0.9801
vn 0.1039 0.1669 0.9805
vn 0.1039 0.1669 -0.9805
vt 0.041782 0.975706
vt 0.042969 0.975706
vt 0.044156 0.975706
vt 0.044901 0.975706
vt 0.045343 0.975706
vt 0.041036 0.975706
vt 0.040595 0.975706
vt 0.040607 0.973873
vt 0.042969 0.975469
vt 0.042969 0.974503
vt 0.040737 0.972907
vt 0.045331 0.973873
vt 0.045201 0.972907
vt 0.046171 0.975469
vt 0.046602 0.974503
vt 0.047693 0.973873
vt 0.047433 0.972907
vt 0.039766 0.975469
vt 0.039335 0.974503
vt 0.038245 0.973873
vt 0.038505 0.972907
vt 0.042969 0.982439
vt 0.042969 0.971106
vt 0.044492 0.971106
vt 0.045776 0.971106
vt 0.046016 0.971106
vt 0.041445 0.971106
vt 0.040161 0.971106
vt 0.039922 0.971106
vt 0.042969 0.968602
vt 0.045494 0.970781
vt 0.045833 0.969462
vt 0.042969 0.967283
vt 0.048555 0.968602
vt 0.048248 0.967283
vt 0.048019 0.970781
vt 0.048698 0.969462
vt 0.040444 0.970781
vt 0.040104 0.969462
vt 0.037382 0.968602
vt 0.037690 0.967283
vt 0.037919 0.970781
vt 0.037240 0.969462
vt 0.042969 0.980299
vt 0.041030 0.966212
vt 0.042969 0.966212
vt 0.044907 0.966212
vt 0.046125 0.966212
vt 0.046846 0.966212
vt 0.039813 0.966212
vt 0.039092 0.966212
vt 0.039111 0.963218
vt 0.042969 0.965824
vt 0.042969 0.964247
vt 0.039324 0.961641
vt 0.046826 0.963218
vt 0.046614 0.961641
vt 0.048199 0.965824
vt 0.048902 0.964247
vt 0.050684 0.963218
vt 0.050258 0.961641
vt 0.048199 0.965824
vt 0.037739 0.965824
vt 0.037035 0.964247
vt 0.035254 0.963218
vt 0.035679 0.961641
vt 0.042969 0.977207
vt 0.243033 0.874110
vt 0.239258 0.874110
vt 0.239258 0.853155
vt 0.243754 0.853155
vt 0.042969 0.956370
vt 0.046673 0.959568
vt 0.047171 0.957633
vt 0.042969 0.954436
vt 0.051164 0.956370
vt 0.050712 0.954436
vt 0.050376 0.959568
vt 0.051372 0.957633
vt 0.042969 0.954436
vt 0.039265 0.959568
vt 0.038767 0.957633
vt 0.034774 0.956370
vt 0.035225 0.954436
vt 0.035561 0.959568
vt 0.034565 0.957633
vt 0.035225 0.954436
vt 0.045204 0.960043
vt 0.042969 0.960043
vt 0.042969 0.973529
vt 0.040734 0.960043
vt 0.047087 0.960043
vt 0.047438 0.960043
vt 0.038850 0.960043
vt 0.038499 0.960043
vt 0.044137 0.960043
vt 0.045122 0.960043
vt 0.045305 0.960043
vt 0.045122 0.960043
vt 0.041801 0.960043
vt 0.040816 0.960043
vt 0.040633 0.960043
vt 0.230972 0.853155
vt 0.230265 0.853155
vt 0.227422 0.845383
vt 0.228352 0.845383
vt 0.246215 0.874110
vt 0.246808 0.874110
vt 0.248250 0.853155
vt 0.247543 0.853155
vt 0.231707 0.874110
vt 0.232301 0.874110
vt 0.235482 0.874110
vt 0.234762 0.853155
vt 0.246215 0.874110
vt 0.239258 0.845383
vt 0.245175 0.845383
vt 0.250163 0.845383
vt 0.251093 0.845383
vt 0.233340 0.845383
vt 0.109559 0.850881
vt 0.095801 0.850881
vt 0.109559 0.823709
vt 0.102816 0.871424
vt 0.102816 0.879957
vt 0.109559 0.871424
vt 0.109559 0.879957
vt 0.123317 0.850881
vt 0.116302 0.871424
vt 0.116302 0.879957
vt 0.303895 0.750295
vt 0.290137 0.750295
vt 0.303895 0.723123
vt 0.297152 0.770838
vt 0.297152 0.779371
vt 0.303895 0.770838
vt 0.303895 0.779371
vt 0.317653 0.750295
vt 0.310638 0.770838
vt 0.310638 0.779371
vt 0.367371 0.850881
vt 0.353614 0.850881
vt 0.367371 0.823709
vt 0.360629 0.871424
vt 0.360629 0.879957
vt 0.367371 0.871424
vt 0.367371 0.879957
vt 0.381129 0.850881
vt 0.374114 0.871424
vt 0.374114 0.879957
vt 0.436707 0.850881
vt 0.422950 0.850881
vt 0.436707 0.823709
vt 0.429965 0.871424
vt 0.429965 0.879957
vt 0.436707 0.871424
vt 0.436707 0.879957
vt 0.450465 0.850881
vt 0.443450 0.871424
vt 0.443450 0.879957
vt 0.431973 0.809874
vt 0.431973 0.824101
vt 0.447202 0.803140
vt 0.444293 0.820098
vt 0.456614 0.832108
vt 0.419652 0.820098
vt 0.416744 0.803140
vt 0.407331 0.832108
vt 0.424358 0.834582
vt 0.439587 0.834582
vt 0.431973 0.850011
vt 0.434393 0.809874
vt 0.429553 0.809874
s 0
usemtl Winter_Pack_Texture
f 1/1/1 3/2/1 4/3/1 5/4/1 6/5/1 7/4/1 8/3/1 9/2/1 10/1/1 11/6/1 12/7/1 13/6/1
f 15/8/2 16/9/2 17/10/2 14/11/2
f 16/9/3 18/12/3 19/13/3 17/10/3
f 18/12/4 20/14/4 21/15/4 19/13/4
f 20/14/5 22/16/5 23/17/5 21/15/5
f 22/16/6 24/14/6 25/15/6 23/17/6
f 24/14/7 26/12/7 27/13/7 25/15/7
f 26/12/8 28/9/8 29/10/8 27/13/8
f 28/9/9 30/8/9 31/11/9 29/10/9
f 30/8/10 32/18/10 33/19/10 31/11/10
f 32/18/11 34/20/11 35/21/11 33/19/11
f 34/20/12 36/18/12 37/19/12 35/21/12
f 36/18/13 15/8/13 14/11/13 37/19/13
f 3/2/14 1/1/14 14/11/14 17/10/14
f 36/18/15 2/22/15 15/8/15
f 1/1/16 13/6/16 37/19/16 14/11/16
f 15/8/17 2/22/17 16/9/17
f 16/9/18 2/22/18 18/12/18
f 4/3/19 3/2/19 17/10/19 19/13/19
f 18/12/20 2/22/20 20/14/20
f 5/4/21 4/3/21 19/13/21 21/15/21
f 20/14/22 2/22/22 22/16/22
f 6/5/23 5/4/23 21/15/23 23/17/23
f 22/16/24 2/22/24 24/14/24
f 7/4/25 6/5/25 23/17/25 25/15/25
f 24/14/26 2/22/26 26/12/26
f 8/3/27 7/4/27 25/15/27 27/13/27
f 26/12/28 2/22/28 28/9/28
f 9/2/29 8/3/29 27/13/29 29/10/29
f 28/9/30 2/22/30 30/8/30
f 10/1/31 9/2/31 29/10/31 31/11/31
f 30/8/32 2/22/32 32/18/32
f 11/6/33 10/1/33 31/11/33 33/19/33
f 32/18/34 2/22/34 34/20/34
f 12/7/35 11/6/35 33/19/35 35/21/35
f 34/20/36 2/22/36 36/18/36
f 13/6/37 12/7/37 35/21/37 37/19/37
f 38/23/1 40/24/1 41/25/1 42/26/1 43/25/1 44/24/1 45/23/1 46/27/1 47/28/1 48/29/1 49/28/1 50/27/1
f 52/30/38 53/31/38 54/32/38 51/33/38
f 53/31/39 55/34/39 56/35/39 54/32/39
f 55/34/40 57/36/40 58/37/40 56/35/40
f 57/36/41 59/34/41 60/35/41 58/37/41
f 59/34/42 61/31/42 62/32/42 60/35/42
f 61/31/43 63/30/43 64/33/43 62/32/43
f 63/30/44 65/38/44 66/39/44 64/33/44
f 65/38/45 67/40/45 68/41/45 66/39/45
f 67/40/46 69/42/46 70/43/46 68/41/46
f 69/42/47 71/40/47 72/41/47 70/43/47
f 71/40/48 73/38/48 74/39/48 72/41/48
f 73/38/49 52/30/49 51/33/49 74/39/49
f 40/24/50 38/23/50 51/33/50 54/32/50
f 73/38/51 39/44/51 52/30/51
f 38/23/52 50/27/52 74/39/52 51/33/52
f 52/30/53 39/44/53 53/31/53
f 53/31/54 39/44/54 55/34/54
f 41/25/55 40/24/55 54/32/55 56/35/55
f 55/34/56 39/44/56 57/36/56
f 42/26/57 41/25/57 56/35/57 58/37/57
f 57/36/58 39/44/58 59/34/58
f 43/25/59 42/26/59 58/37/59 60/35/59
f 59/34/60 39/44/60 61/31/60
f 44/24/61 43/25/61 60/35/61 62/32/61
f 61/31/62 39/44/62 63/30/62
f 45/23/63 44/24/63 62/32/63 64/33/63
f 63/30/64 39/44/64 65/38/64
f 46/27/65 45/23/65 64/33/65 66/39/65
f 65/38/66 39/44/66 67/40/66
f 47/28/67 46/27/67 66/39/67 68/41/67
f 67/40/68 39/44/68 69/42/68
f 48/29/69 47/28/69 68/41/69 70/43/69
f 69/42/70 39/44/70 71/40/70
f 49/28/71 48/29/71 70/43/71 72/41/71
f 71/40/72 39/44/72 73/38/72
f 50/27/73 49/28/73 72/41/73 74/39/73
f 75/45/1 77/46/1 78/47/1 79/48/1 80/49/1 81/48/1 82/47/1 83/46/1 84/45/1 85/50/1 86/51/1 87/50/1
f 89/52/2 90/53/2 91/54/2 88/55/2
f 90/53/3 92/56/3 93/57/3 91/54/3
f 92/56/4 94/58/4 95/59/4 93/57/4
f 94/58/5 96/60/5 97/61/5 95/59/5
f 96/60/6 98/62/6 99/59/6 97/61/6
f 98/62/7 100/56/7 101/57/7 99/59/7
f 100/56/8 102/53/8 103/54/8 101/57/8
f 102/53/9 104/52/9 105/55/9 103/54/9
f 104/52/10 106/63/10 107/64/10 105/55/10
f 106/63/11 108/65/11 109/66/11 107/64/11
f 108/65/12 110/63/12 111/64/12 109/66/12
f 110/63/13 89/52/13 88/55/13 111/64/13
f 77/46/14 75/45/14 88/55/14 91/54/14
f 110/63/15 76/67/15 89/52/15
f 75/45/16 87/50/16 111/64/16 88/55/16
f 89/52/17 76/67/17 90/53/17
f 90/53/18 76/67/18 92/56/18
f 78/47/19 77/46/19 91/54/19 93/57/19
f 92/56/20 76/67/20 94/58/20
f 79/48/21 78/47/21 93/57/21 95/59/21
f 94/58/22 76/67/22 96/60/22
f 80/49/23 79/48/23 95/59/23 97/61/23
f 96/60/24 76/67/24 98/62/24
f 81/48/25 80/49/25 97/61/25 99/59/25
f 98/62/26 76/67/26 100/56/26
f 82/47/27 81/48/27 99/59/27 101/57/27
f 100/56/28 76/67/28 102/53/28
f 83/46/29 82/47/29 101/57/29 103/54/29
f 102/53/30 76/67/30 104/52/30
f 84/45/31 83/46/31 103/54/31 105/55/31
f 104/52/32 76/67/32 106/63/32
f 85/50/33 84/45/33 105/55/33 107/64/33
f 106/63/34 76/67/34 108/65/34
f 86/51/35 85/50/35 107/64/35 109/66/35
f 108/65/36 76/67/36 110/63/36
f 87/50/37 86/51/37 109/66/37 111/64/37
f 118/68/74 119/69/74 167/70/74 166/71/74
f 126/72/38 127/73/38 128/74/38 125/75/38
f 127/73/39 129/76/39 130/77/39 128/74/39
f 129/76/40 131/78/40 132/79/40 130/77/40
f 131/78/41 133/76/41 134/77/41 132/79/41
f 133/76/42 135/73/42 136/74/42 134/77/42
f 135/73/43 137/72/43 138/80/43 136/74/43
f 137/72/44 139/81/44 140/82/44 138/80/44
f 139/81/45 141/83/45 142/84/45 140/82/45
f 141/83/46 143/85/46 144/86/46 142/84/46
f 143/85/47 145/83/47 146/87/47 144/86/47
f 145/83/48 147/81/48 148/82/48 146/87/48
f 147/81/49 126/72/49 125/75/49 148/82/49
f 150/88/50 149/89/50 125/75/50 128/74/50
f 147/81/51 113/90/51 126/72/51
f 149/89/52 160/91/52 148/82/52 125/75/52
f 126/72/53 113/90/53 127/73/53
f 127/73/54 113/90/54 129/76/54
f 151/92/55 150/88/55 128/74/55 130/77/55
f 129/76/56 113/90/56 131/78/56
f 152/93/57 151/92/57 130/77/57 132/79/57
f 131/78/58 113/90/58 133/76/58
f 153/92/59 152/93/59 132/79/59 134/77/59
f 133/76/60 113/90/60 135/73/60
f 154/88/61 153/92/61 134/77/61 136/74/61
f 135/73/62 113/90/62 137/72/62
f 155/89/63 154/88/63 136/74/63 138/80/63
f 137/72/64 113/90/64 139/81/64
f 156/91/65 155/89/65 138/80/65 140/82/65
f 139/81/66 113/90/66 141/83/66
f 157/94/67 156/91/67 140/82/67 142/84/67
f 141/83/68 113/90/68 143/85/68
f 158/95/69 157/94/69 142/84/69 144/86/69
f 143/85/70 113/90/70 145/83/70
f 159/94/71 158/95/71 144/86/71 146/87/71
f 145/83/72 113/90/72 147/81/72
f 160/91/73 159/94/73 146/87/73 148/82/73
f 114/96/1 112/89/1 149/89/1 150/88/1
f 115/97/1 114/96/1 150/88/1 151/92/1
f 116/98/1 115/97/1 151/92/1 152/93/1
f 117/99/1 116/98/1 152/93/1 153/92/1
f 118/96/1 117/99/1 153/92/1 154/88/1
f 119/89/1 118/96/1 154/88/1 155/89/1
f 120/100/1 119/89/1 155/89/1 156/91/1
f 121/101/1 120/100/1 156/91/1 157/94/1
f 122/102/1 121/101/1 157/94/1 158/95/1
f 123/101/1 122/102/1 158/95/1 159/94/1
f 124/100/1 123/101/1 159/94/1 160/91/1
f 112/89/1 124/100/1 160/91/1 149/89/1
f 169/103/75 170/104/75 182/105/75 181/106/75
f 115/107/76 116/108/76 164/109/76 163/110/76
f 122/111/77 123/112/77 171/103/77 170/104/77
f 119/69/78 120/113/78 168/114/78 167/70/78
f 116/108/79 117/115/79 165/110/79 164/109/79
f 123/112/80 124/113/80 172/114/80 171/103/80
f 112/69/81 114/68/81 162/71/81 161/70/81
f 120/113/82 121/112/82 169/103/82 168/114/82
f 117/115/83 118/68/83 166/71/83 165/110/83
f 124/113/84 112/69/84 161/70/84 172/114/84
f 114/68/85 115/107/85 163/110/85 162/71/85
f 121/112/86 122/111/86 170/104/86 169/103/86
f 173/116/1 174/117/1 175/118/1 176/119/1 177/118/1 178/117/1 179/116/1 180/120/1 181/106/1 182/105/1 183/106/1 184/120/1
f 166/71/87 167/70/87 179/116/87 178/117/87
f 163/110/88 164/109/88 176/119/88 175/118/88
f 170/104/89 171/103/89 183/106/89 182/105/89
f 167/70/90 168/114/90 180/120/90 179/116/90
f 164/109/91 165/110/91 177/118/91 176/119/91
f 171/103/92 172/114/92 184/120/92 183/106/92
f 161/70/93 162/71/93 174/117/93 173/116/93
f 168/114/94 169/103/94 181/106/94 180/120/94
f 165/110/95 166/71/95 178/117/95 177/118/95
f 172/114/96 161/70/96 173/116/96 184/120/96
f 162/71/97 163/110/97 175/118/97 174/117/97
f 186/121/98 187/122/98 189/123/98
f 187/122/99 188/122/99 189/123/99
f 193/124/100 192/124/100 196/125/100 197/125/100
f 185/121/101 188/122/101 193/124/101 190/126/101
f 188/122/102 187/122/102 192/124/102 193/124/102
f 187/122/103 186/121/103 191/126/103 192/124/103
f 188/122/104 185/121/104 189/123/104
f 190/126/105 193/124/105 197/125/105 194/127/105
f 192/124/106 191/126/106 195/127/106 196/125/106
f 186/121/107 189/123/107 198/128/107
f 198/128/108 189/123/108 199/128/108
f 201/129/109 203/130/109 202/130/109 200/129/109
f 185/121/110 190/126/110 201/129/110 199/128/110
f 199/128/111 201/129/111 200/129/111 198/128/111
f 198/128/112 200/129/112 191/126/112 186/121/112
f 199/128/113 189/123/113 185/121/113
f 190/126/114 194/127/114 203/130/114 201/129/114
f 200/129/115 202/130/115 195/127/115 191/126/115
f 205/131/116 206/132/116 208/133/116
f 206/132/117 207/132/117 208/133/117
f 212/134/118 211/134/118 215/135/118 216/135/118
f 204/131/119 207/132/119 212/134/119 209/136/119
f 207/132/120 206/132/120 211/134/120 212/134/120
f 206/132/121 205/131/121 210/136/121 211/134/121
f 207/132/122 204/131/122 208/133/122
f 209/136/123 212/134/123 216/135/123 213/137/123
f 211/134/124 210/136/124 214/137/124 215/135/124
f 205/131/125 208/133/125 217/138/125
f 217/138/126 208/133/126 218/138/126
f 220/139/127 222/140/127 221/140/127 219/139/127
f 204/131/128 209/136/128 220/139/128 218/138/128
f 218/138/129 220/139/129 219/139/129 217/138/129
f 217/138/130 219/139/130 210/136/130 205/131/130
f 218/138/131 208/133/131 204/131/131
f 209/136/132 213/137/132 222/140/132 220/139/132
f 219/139/133 221/140/133 214/137/133 210/136/133
f 224/141/134 225/142/134 227/143/134
f 225/142/135 226/142/135 227/143/135
f 231/144/136 230/144/136 234/145/136 235/145/136
f 223/141/137 226/142/137 231/144/137 228/146/137
f 226/142/138 225/142/138 230/144/138 231/144/138
f 225/142/139 224/141/139 229/146/139 230/144/139
f 226/142/140 223/141/140 227/143/140
f 228/146/141 231/144/141 235/145/141 232/147/141
f 230/144/142 229/146/142 233/147/142 234/145/142
f 224/141/143 227/143/143 236/148/143
f 236/148/144 227/143/144 237/148/144
f 239/149/145 241/150/145 240/150/145 238/149/145
f 223/141/146 228/146/146 239/149/146 237/148/146
f 237/148/147 239/149/147 238/149/147 236/148/147
f 236/148/148 238/149/148 229/146/148 224/141/148
f 237/148/149 227/143/149 223/141/149
f 228/146/150 232/147/150 241/150/150 239/149/150
f 238/149/151 240/150/151 233/147/151 229/146/151
f 243/151/152 244/152/152 246/153/152
f 244/152/153 245/152/153 246/153/153
f 250/154/154 249/154/154 253/155/154 254/155/154
f 242/151/155 245/152/155 250/154/155 247/156/155
f 245/152/156 244/152/156 249/154/156 250/154/156
f 244/152/157 243/151/157 248/156/157 249/154/157
f 245/152/158 242/151/158 246/153/158
f 247/156/159 250/154/159 254/155/159 251/157/159
f 249/154/160 248/156/160 252/157/160 253/155/160
f 243/151/161 246/153/161 255/158/161
f 255/158/162 246/153/162 256/158/162
f 258/159/163 260/160/163 259/160/163 257/159/163
f 242/151/164 247/156/164 258/159/164 256/158/164
f 256/158/165 258/159/165 257/159/165 255/158/165
f 255/158/166 257/159/166 248/156/166 243/151/166
f 256/158/167 246/153/167 242/151/167
f 247/156/168 251/157/168 260/160/168 258/159/168
f 257/159/169 259/160/169 252/157/169 248/156/169
f 214/137/170 221/140/170 222/140/170 213/137/170 216/135/170 215/135/170
f 233/147/171 240/150/171 241/150/171 232/147/171 235/145/171 234/145/171
f 252/157/172 259/160/172 260/160/172 251/157/172 254/155/172 253/155/172
f 195/127/173 202/130/173 203/130/173 194/127/173 197/125/173 196/125/173
f 262/121/174 263/122/174 265/123/174
f 263/122/175 264/122/175 265/123/175
f 269/124/154 268/124/154 272/125/154 273/125/154
f 261/121/176 264/122/176 269/124/176 266/126/176
f 264/122/177 263/122/177 268/124/177 269/124/177
f 263/122/178 262/121/178 267/126/178 268/124/178
f 264/122/179 261/121/179 265/123/179
f 266/126/180 269/124/180 273/125/180 270/127/180
f 268/124/181 267/126/181 271/127/181 272/125/181
f 262/121/182 265/123/182 274/128/182
f 274/128/183 265/123/183 275/128/183
f 277/129/163 279/130/163 278/130/163 276/129/163
f 261/121/184 266/126/184 277/129/184 275/128/184
f 275/128/185 277/129/185 276/129/185 274/128/185
f 274/128/186 276/129/186 267/126/186 262/121/186
f 275/128/187 265/123/187 261/121/187
f 266/126/188 270/127/188 279/130/188 277/129/188
f 276/129/189 278/130/189 271/127/189 267/126/189
f 271/127/190 278/130/190 279/130/190 270/127/190 273/125/190 272/125/190
f 281/151/191 282/152/191 284/153/191
f 282/152/192 283/152/192 284/153/192
f 288/154/193 287/154/193 291/155/193 292/155/193
f 280/151/194 283/152/194 288/154/194 285/156/194
f 283/152/195 282/152/195 287/154/195 288/154/195
f 282/152/196 281/151/196 286/156/196 287/154/196
f 283/152/197 280/151/197 284/153/197
f 285/156/198 288/154/198 292/155/198 289/157/198
f 287/154/199 286/156/199 290/157/199 291/155/199
f 281/151/200 284/153/200 293/158/200
f 293/158/201 284/153/201 294/158/201
f 296/159/202 298/160/202 297/160/202 295/159/202
f 280/151/203 285/156/203 296/159/203 294/158/203
f 294/158/204 296/159/204 295/159/204 293/158/204
f 293/158/205 295/159/205 286/156/205 281/151/205
f 294/158/206 284/153/206 280/151/206
f 285/156/207 289/157/207 298/160/207 296/159/207
f 295/159/208 297/160/208 290/157/208 286/156/208
f 290/157/209 297/160/209 298/160/209 289/157/209 292/155/209 291/155/209
f 300/121/210 301/122/210 303/123/210
f 301/122/211 302/122/211 303/123/211
f 307/124/212 306/124/212 310/125/212 311/125/212
f 299/121/213 302/122/213 307/124/213 304/126/213
f 302/122/214 301/122/214 306/124/214 307/124/214
f 301/122/215 300/121/215 305/126/215 306/124/215
f 302/122/216 299/121/216 303/123/216
f 304/126/217 307/124/217 311/125/217 308/127/217
f 306/124/218 305/126/218 309/127/218 310/125/218
f 300/121/219 303/123/219 312/128/219
f 312/128/220 303/123/220 313/128/220
f 315/129/221 317/130/221 316/130/221 314/129/221
f 299/121/222 304/126/222 315/129/222 313/128/222
f 313/128/223 315/129/223 314/129/223 312/128/223
f 312/128/224 314/129/224 305/126/224 300/121/224
f 313/128/225 303/123/225 299/121/225
f 304/126/226 308/127/226 317/130/226 315/129/226
f 314/129/227 316/130/227 309/127/227 305/126/227
f 319/131/228 320/132/228 322/133/228
f 320/132/229 321/132/229 322/133/229
f 326/134/230 325/134/230 329/135/230 330/135/230
f 318/131/231 321/132/231 326/134/231 323/136/231
f 321/132/232 320/132/232 325/134/232 326/134/232
f 320/132/233 319/131/233 324/136/233 325/134/233
f 321/132/234 318/131/234 322/133/234
f 323/136/235 326/134/235 330/135/235 327/137/235
f 325/134/236 324/136/236 328/137/236 329/135/236
f 319/131/237 322/133/237 331/138/237
f 331/138/238 322/133/238 332/138/238
f 334/139/239 336/140/239 335/140/239 333/139/239
f 318/131/240 323/136/240 334/139/240 332/138/240
f 332/138/241 334/139/241 333/139/241 331/138/241
f 331/138/242 333/139/242 324/136/242 319/131/242
f 332/138/243 322/133/243 318/131/243
f 323/136/244 327/137/244 336/140/244 334/139/244
f 333/139/245 335/140/245 328/137/245 324/136/245
f 338/141/246 339/142/246 341/143/246
f 339/142/247 340/142/247 341/143/247
f 345/144/248 344/144/248 348/145/248 349/145/248
f 337/141/249 340/142/249 345/144/249 342/146/249
f 340/142/250 339/142/250 344/144/250 345/144/250
f 339/142/251 338/141/251 343/146/251 344/144/251
f 340/142/252 337/141/252 341/143/252
f 342/146/253 345/144/253 349/145/253 346/147/253
f 344/144/254 343/146/254 347/147/254 348/145/254
f 338/141/255 341/143/255 350/148/255
f 350/148/256 341/143/256 351/148/256
f 353/149/257 355/150/257 354/150/257 352/149/257
f 337/141/258 342/146/258 353/149/258 351/148/258
f 351/148/259 353/149/259 352/149/259 350/148/259
f 350/148/260 352/149/260 343/146/260 338/141/260
f 351/148/261 341/143/261 337/141/261
f 342/146/262 346/147/262 355/150/262 353/149/262
f 352/149/263 354/150/263 347/147/263 343/146/263
f 357/151/264 358/152/264 360/153/264
f 358/152/265 359/152/265 360/153/265
f 364/154/266 363/154/266 367/155/266 368/155/266
f 356/151/267 359/152/267 364/154/267 361/156/267
f 359/152/268 358/152/268 363/154/268 364/154/268
f 358/152/269 357/151/269 362/156/269 363/154/269
f 359/152/270 356/151/270 360/153/270
f 361/156/271 364/154/271 368/155/271 365/157/271
f 363/154/272 362/156/272 366/157/272 367/155/272
f 357/151/273 360/153/273 369/158/273
f 369/158/274 360/153/274 370/158/274
f 372/159/275 374/160/275 373/160/275 371/159/275
f 356/151/276 361/156/276 372/159/276 370/158/276
f 370/158/277 372/159/277 371/159/277 369/158/277
f 369/158/278 371/159/278 362/156/278 357/151/278
f 370/158/279 360/153/279 356/151/279
f 361/156/280 365/157/280 374/160/280 372/159/280
f 371/159/281 373/160/281 366/157/281 362/156/281
f 328/137/282 335/140/282 336/140/282 327/137/282 330/135/282 329/135/282
f 347/147/283 354/150/283 355/150/283 346/147/283 349/145/283 348/145/283
f 366/157/284 373/160/284 374/160/284 365/157/284 368/155/284 367/155/284
f 309/127/285 316/130/285 317/130/285 308/127/285 311/125/285 310/125/285
f 376/121/286 377/122/286 379/123/286
f 377/122/287 378/122/287 379/123/287
f 383/124/266 382/124/266 386/125/266 387/125/266
f 375/121/288 378/122/288 383/124/288 380/126/288
f 378/122/289 377/122/289 382/124/289 383/124/289
f 377/122/290 376/121/290 381/126/290 382/124/290
f 378/122/291 375/121/291 379/123/291
f 380/126/292 383/124/292 387/125/292 384/127/292
f 382/124/293 381/126/293 385/127/293 386/125/293
f 376/121/294 379/123/294 388/128/294
f 388/128/295 379/123/295 389/128/295
f 391/129/275 393/130/275 392/130/275 390/129/275
f 375/121/296 380/126/296 391/129/296 389/128/296
f 389/128/297 391/129/297 390/129/297 388/128/297
f 388/128/298 390/129/298 381/126/298 376/121/298
f 389/128/299 379/123/299 375/121/299
f 380/126/300 384/127/300 393/130/300 391/129/300
f 390/129/301 392/130/301 385/127/301 381/126/301
f 385/127/302 392/130/302 393/130/302 384/127/302 387/125/302 386/125/302
f 395/151/303 396/152/303 398/153/303
f 396/152/304 397/152/304 398/153/304
f 402/154/305 401/154/305 405/155/305 406/155/305
f 394/151/306 397/152/306 402/154/306 399/156/306
f 397/152/307 396/152/307 401/154/307 402/154/307
f 396/152/308 395/151/308 400/156/308 401/154/308
f 397/152/309 394/151/309 398/153/309
f 399/156/310 402/154/310 406/155/310 403/157/310
f 401/154/311 400/156/311 404/157/311 405/155/311
f 395/151/312 398/153/312 407/158/312
f 407/158/313 398/153/313 408/158/313
f 410/159/314 412/160/314 411/160/314 409/159/314
f 394/151/315 399/156/315 410/159/315 408/158/315
f 408/158/316 410/159/316 409/159/316 407/158/316
f 407/158/317 409/159/317 400/156/317 395/151/317
f 408/158/318 398/153/318 394/151/318
f 399/156/319 403/157/319 412/160/319 410/159/319
f 409/159/320 411/160/320 404/157/320 400/156/320
f 404/157/321 411/160/321 412/160/321 403/157/321 406/155/321 405/155/321
f 414/121/322 415/122/322 417/123/322
f 415/122/323 416/122/323 417/123/323
f 421/124/324 420/124/324 424/125/324 425/125/324
f 413/121/325 416/122/325 421/124/325 418/126/325
f 416/122/326 415/122/326 420/124/326 421/124/326
f 415/122/327 414/121/327 419/126/327 420/124/327
f 416/122/328 413/121/328 417/123/328
f 418/126/329 421/124/329 425/125/329 422/127/329
f 420/124/330 419/126/330 423/127/330 424/125/330
f 414/121/331 417/123/331 426/128/331
f 426/128/332 417/123/332 427/128/332
f 429/129/333 431/130/333 430/130/333 428/129/333
f 413/121/334 418/126/334 429/129/334 427/128/334
f 427/128/335 429/129/335 428/129/335 426/128/335
f 426/128/336 428/129/336 419/126/336 414/121/336
f 427/128/337 417/123/337 413/121/337
f 418/126/338 422/127/338 431/130/338 429/129/338
f 428/129/339 430/130/339 423/127/339 419/126/339
f 433/131/340 434/132/340 436/133/340
f 434/132/341 435/132/341 436/133/341
f 440/134/342 439/134/342 443/135/342 444/135/342
f 432/131/343 435/132/343 440/134/343 437/136/343
f 435/132/344 434/132/344 439/134/344 440/134/344
f 434/132/345 433/131/345 438/136/345 439/134/345
f 435/132/346 432/131/346 436/133/346
f 437/136/347 440/134/347 444/135/347 441/137/347
f 439/134/348 438/136/348 442/137/348 443/135/348
f 433/131/349 436/133/349 445/138/349
f 445/138/350 436/133/350 446/138/350
f 448/139/351 450/140/351 449/140/351 447/139/351
f 432/131/352 437/136/352 448/139/352 446/138/352
f 446/138/353 448/139/353 447/139/353 445/138/353
f 445/138/354 447/139/354 438/136/354 433/131/354
f 446/138/355 436/133/355 432/131/355
f 437/136/356 441/137/356 450/140/356 448/139/356
f 447/139/357 449/140/357 442/137/357 438/136/357
f 452/141/358 453/142/358 455/143/358
f 453/142/359 454/142/359 455/143/359
f 459/144/360 458/144/360 462/145/360 463/145/360
f 451/141/361 454/142/361 459/144/361 456/146/361
f 454/142/362 453/142/362 458/144/362 459/144/362
f 453/142/363 452/141/363 457/146/363 458/144/363
f 454/142/364 451/141/364 455/143/364
f 456/146/365 459/144/365 463/145/365 460/147/365
f 458/144/366 457/146/366 461/147/366 462/145/366
f 452/141/367 455/143/367 464/148/367
f 464/148/368 455/143/368 465/148/368
f 467/149/369 469/150/369 468/150/369 466/149/369
f 451/141/370 456/146/370 467/149/370 465/148/370
f 465/148/371 467/149/371 466/149/371 464/148/371
f 464/148/372 466/149/372 457/146/372 452/141/372
f 465/148/373 455/143/373 451/141/373
f 456/146/374 460/147/374 469/150/374 467/149/374
f 466/149/375 468/150/375 461/147/375 457/146/375
f 471/151/376 472/152/376 474/153/376
f 472/152/377 473/152/377 474/153/377
f 478/154/275 477/154/275 481/155/275 482/155/275
f 470/151/378 473/152/378 478/154/378 475/156/378
f 473/152/379 472/152/379 477/154/379 478/154/379
f 472/152/380 471/151/380 476/156/380 477/154/380
f 473/152/381 470/151/381 474/153/381
f 475/156/382 478/154/382 482/155/382 479/157/382
f 477/154/383 476/156/383 480/157/383 481/155/383
f 471/151/384 474/153/384 483/158/384
f 483/158/385 474/153/385 484/158/385
f 486/159/266 488/160/266 487/160/266 485/159/266
f 470/151/386 475/156/386 486/159/386 484/158/386
f 484/158/387 486/159/387 485/159/387 483/158/387
f 483/158/388 485/159/388 476/156/388 471/151/388
f 484/158/389 474/153/389 470/151/389
f 475/156/390 479/157/390 488/160/390 486/159/390
f 485/159/391 487/160/391 480/157/391 476/156/391
f 442/137/392 449/140/392 450/140/392 441/137/392 444/135/392 443/135/392
f 461/147/393 468/150/393 469/150/393 460/147/393 463/145/393 462/145/393
f 480/157/394 487/160/394 488/160/394 479/157/394 482/155/394 481/155/394
f 423/127/395 430/130/395 431/130/395 422/127/395 425/125/395 424/125/395
f 490/121/396 491/122/396 493/123/396
f 491/122/397 492/122/397 493/123/397
f 497/124/275 496/124/275 500/125/275 501/125/275
f 489/121/398 492/122/398 497/124/398 494/126/398
f 492/122/399 491/122/399 496/124/399 497/124/399
f 491/122/400 490/121/400 495/126/400 496/124/400
f 492/122/401 489/121/401 493/123/401
f 494/126/402 497/124/402 501/125/402 498/127/402
f 496/124/403 495/126/403 499/127/403 500/125/403
f 490/121/404 493/123/404 502/128/404
f 502/128/405 493/123/405 503/128/405
f 505/129/266 507/130/266 506/130/266 504/129/266
f 489/121/406 494/126/406 505/129/406 503/128/406
f 503/128/407 505/129/407 504/129/407 502/128/407
f 502/128/408 504/129/408 495/126/408 490/121/408
f 503/128/409 493/123/409 489/121/409
f 494/126/410 498/127/410 507/130/410 505/129/410
f 504/129/411 506/130/411 499/127/411 495/126/411
f 499/127/412 506/130/412 507/130/412 498/127/412 501/125/412 500/125/412
f 509/151/413 510/152/413 512/153/413
f 510/152/414 511/152/414 512/153/414
f 516/154/415 515/154/415 519/155/415 520/155/415
f 508/151/416 511/152/416 516/154/416 513/156/416
f 511/152/417 510/152/417 515/154/417 516/154/417
f 510/152/418 509/151/418 514/156/418 515/154/418
f 511/152/419 508/151/419 512/153/419
f 513/156/420 516/154/420 520/155/420 517/157/420
f 515/154/421 514/156/421 518/157/421 519/155/421
f 509/151/422 512/153/422 521/158/422
f 521/158/423 512/153/423 522/158/423
f 524/159/424 526/160/424 525/160/424 523/159/424
f 508/151/425 513/156/425 524/159/425 522/158/425
f 522/158/426 524/159/426 523/159/426 521/158/426
f 521/158/427 523/159/427 514/156/427 509/151/427
f 522/158/428 512/153/428 508/151/428
f 513/156/429 517/157/429 526/160/429 524/159/429
f 523/159/430 525/160/430 518/157/430 514/156/430
f 518/157/431 525/160/431 526/160/431 517/157/431 520/155/431 519/155/431
f 528/121/432 529/122/432 531/123/432
f 529/122/433 530/122/433 531/123/433
f 535/124/434 534/124/434 538/125/434 539/125/434
f 527/121/435 530/122/435 535/124/435 532/126/435
f 530/122/436 529/122/436 534/124/436 535/124/436
f 529/122/437 528/121/437 533/126/437 534/124/437
f 530/122/438 527/121/438 531/123/438
f 532/126/439 535/124/439 539/125/439 536/127/439
f 534/124/440 533/126/440 537/127/440 538/125/440
f 528/121/441 531/123/441 540/128/441
f 540/128/442 531/123/442 541/128/442
f 543/129/443 545/130/443 544/130/443 542/129/443
f 527/121/444 532/126/444 543/129/444 541/128/444
f 541/128/445 543/129/445 542/129/445 540/128/445
f 540/128/446 542/129/446 533/126/446 528/121/446
f 541/128/447 531/123/447 527/121/447
f 532/126/448 536/127/448 545/130/448 543/129/448
f 542/129/449 544/130/449 537/127/449 533/126/449
f 547/131/450 548/132/450 550/133/450
f 548/132/451 549/132/451 550/133/451
f 554/134/452 553/134/452 557/135/452 558/135/452
f 546/131/453 549/132/453 554/134/453 551/136/453
f 549/132/454 548/132/454 553/134/454 554/134/454
f 548/132/455 547/131/455 552/136/455 553/134/455
f 549/132/456 546/131/456 550/133/456
f 551/136/457 554/134/457 558/135/457 555/137/457
f 553/134/458 552/136/458 556/137/458 557/135/458
f 547/131/459 550/133/459 559/138/459
f 559/138/460 550/133/460 560/138/460
f 562/139/461 564/140/461 563/140/461 561/139/461
f 546/131/462 551/136/462 562/139/462 560/138/462
f 560/138/463 562/139/463 561/139/463 559/138/463
f 559/138/464 561/139/464 552/136/464 547/131/464
f 560/138/465 550/133/465 546/131/465
f 551/136/466 555/137/466 564/140/466 562/139/466
f 561/139/467 563/140/467 556/137/467 552/136/467
f 566/141/468 567/142/468 569/143/468
f 567/142/469 568/142/469 569/143/469
f 573/144/470 572/144/470 576/145/470 577/145/470
f 565/141/471 568/142/471 573/144/471 570/146/471
f 568/142/472 567/142/472 572/144/472 573/144/472
f 567/142/473 566/141/473 571/146/473 572/144/473
f 568/142/474 565/141/474 569/143/474
f 570/146/475 573/144/475 577/145/475 574/147/475
f 572/144/476 571/146/476 575/147/476 576/145/476
f 566/141/477 569/143/477 578/148/477
f 578/148/478 569/143/478 579/148/478
f 581/149/479 583/150/479 582/150/479 580/149/479
f 565/141/480 570/146/480 581/149/480 579/148/480
f 579/148/481 581/149/481 580/149/481 578/148/481
f 578/148/482 580/149/482 571/146/482 566/141/482
f 579/148/483 569/143/483 565/141/483
f 570/146/484 574/147/484 583/150/484 581/149/484
f 580/149/485 582/150/485 575/147/485 571/146/485
f 585/151/486 586/152/486 588/153/486
f 586/152/487 587/152/487 588/153/487
f 592/154/488 591/154/488 595/155/488 596/155/488
f 584/151/489 587/152/489 592/154/489 589/156/489
f 587/152/490 586/152/490 591/154/490 592/154/490
f 586/152/491 585/151/491 590/156/491 591/154/491
f 587/152/492 584/151/492 588/153/492
f 589/156/493 592/154/493 596/155/493 593/157/493
f 591/154/494 590/156/494 594/157/494 595/155/494
f 585/151/495 588/153/495 597/158/495
f 597/158/496 588/153/496 598/158/496
f 600/159/497 602/160/497 601/160/497 599/159/497
f 584/151/498 589/156/498 600/159/498 598/158/498
f 598/158/499 600/159/499 599/159/499 597/158/499
f 597/158/500 599/159/500 590/156/500 585/151/500
f 598/158/501 588/153/501 584/151/501
f 589/156/502 593/157/502 602/160/502 600/159/502
f 599/159/503 601/160/503 594/157/503 590/156/503
f 556/137/504 563/140/504 564/140/504 555/137/504 558/135/504 557/135/504
f 575/147/505 582/150/505 583/150/505 574/147/505 577/145/505 576/145/505
f 594/157/506 601/160/506 602/160/506 593/157/506 596/155/506 595/155/506
f 537/127/507 544/130/507 545/130/507 536/127/507 539/125/507 538/125/507
f 604/121/508 605/122/508 607/123/508
f 605/122/509 606/122/509 607/123/509
f 611/124/488 610/124/488 614/125/488 615/125/488
f 603/121/510 606/122/510 611/124/510 608/126/510
f 606/122/511 605/122/511 610/124/511 611/124/511
f 605/122/512 604/121/512 609/126/512 610/124/512
f 606/122/513 603/121/513 607/123/513
f 608/126/514 611/124/514 615/125/514 612/127/514
f 610/124/515 609/126/515 613/127/515 614/125/515
f 604/121/516 607/123/516 616/128/516
f 616/128/517 607/123/517 617/128/517
f 619/129/497 621/130/497 620/130/497 618/129/497
f 603/121/518 608/126/518 619/129/518 617/128/518
f 617/128/519 619/129/519 618/129/519 616/128/519
f 616/128/520 618/129/520 609/126/520 604/121/520
f 617/128/521 607/123/521 603/121/521
f 608/126/522 612/127/522 621/130/522 619/129/522
f 618/129/523 620/130/523 613/127/523 609/126/523
f 613/127/524 620/130/524 621/130/524 612/127/524 615/125/524 614/125/524
f 623/151/525 624/152/525 626/153/525
f 624/152/526 625/152/526 626/153/526
f 630/154/527 629/154/527 633/155/527 634/155/527
f 622/151/528 625/152/528 630/154/528 627/156/528
f 625/152/529 624/152/529 629/154/529 630/154/529
f 624/152/530 623/151/530 628/156/530 629/154/530
f 625/152/531 622/151/531 626/153/531
f 627/156/532 630/154/532 634/155/532 631/157/532
f 629/154/533 628/156/533 632/157/533 633/155/533
f 623/151/534 626/153/534 635/158/534
f 635/158/535 626/153/535 636/158/535
f 638/159/536 640/160/536 639/160/536 637/159/536
f 622/151/537 627/156/537 638/159/537 636/158/537
f 636/158/538 638/159/538 637/159/538 635/158/538
f 635/158/539 637/159/539 628/156/539 623/151/539
f 636/158/540 626/153/540 622/151/540
f 627/156/541 631/157/541 640/160/541 638/159/541
f 637/159/542 639/160/542 632/157/542 628/156/542
f 632/157/543 639/160/543 640/160/543 631/157/543 634/155/543 633/155/543
f 656/161/544 655/162/544 651/163/544
f 643/164/545 655/162/545 650/165/545
f 644/164/546 654/162/546 651/163/546
f 645/166/547 655/162/547 652/167/547
f 653/168/548 655/162/548 645/166/548
f 653/168/549 654/162/549 648/169/549
f 642/170/550 654/162/550 650/165/550
f 649/171/551 642/170/551 641/170/551
f 647/169/552 648/169/552 649/171/552
f 650/165/553 655/162/553 641/170/553
f 657/172/554 651/163/554 654/162/554
f 641/170/555 642/170/555 650/165/555
f 650/165/556 644/164/556 643/164/556
f 651/163/557 655/162/557 643/164/557
f 650/165/558 654/162/558 644/164/558
f 643/164/559 644/164/559 651/163/559
f 652/167/560 654/162/560 646/166/560
f 652/167/561 646/166/561 645/166/561
f 646/166/562 654/162/562 653/168/562
f 645/166/563 646/166/563 653/168/563
f 653/168/564 648/169/564 647/169/564
f 648/169/565 654/162/565 649/171/565
f 647/169/566 655/162/566 653/168/566
f 649/171/567 655/162/567 647/169/567
f 656/173/568 652/167/568 655/162/568
f 656/173/569 657/173/569 652/167/569
f 651/163/570 657/172/570 656/172/570
f 657/161/571 654/162/571 652/167/571
f 649/171/572 654/162/572 642/170/572
f 641/170/573 655/162/573 649/171/573
