# Blender 5.0.0
# www.blender.org
mtllib Wood_Bench_B.mtl
o Wood_Bench_B
v 0.765140 0.375272 0.171547
v -0.765140 0.375272 0.170600
v 0.765140 0.214810 0.121302
v -0.765140 0.215697 0.120633
v 0.765140 0.148344 0.000000
v -0.765140 0.149599 0.000001
v 0.765140 0.214810 -0.121302
v -0.765140 0.215697 -0.120630
v 0.765140 0.375272 -0.171547
v -0.765140 0.375272 -0.170597
v 0.765140 0.375272 0.226551
v 0.765140 0.163361 0.160196
v 0.765140 0.075585 0.000000
v 0.765140 0.163361 -0.160195
v 0.765140 0.375272 -0.226550
v -0.765140 0.375272 0.226551
v -0.765140 0.163361 0.160196
v -0.765140 0.075585 0.000001
v -0.765140 0.163361 -0.160194
v -0.765140 0.375272 -0.226549
v 0.619205 -0.023687 0.226316
v 0.618720 -0.023687 -0.226314
v 0.593538 0.049614 0.226316
v 0.593195 0.049209 -0.226314
v 0.531573 0.079977 0.226316
v 0.531573 0.079404 -0.226314
v 0.469607 0.049614 0.226316
v 0.469950 0.049209 -0.226314
v 0.443940 -0.023687 0.226316
v 0.444425 -0.023687 -0.226314
v 0.647303 -0.023687 0.183899
v 0.613406 0.073117 0.183899
v 0.531573 0.113215 0.183899
v 0.449739 0.073117 0.183899
v 0.415843 -0.023687 0.183899
v 0.647303 -0.023687 -0.183897
v 0.613406 0.073117 -0.183897
v 0.531573 0.113215 -0.183897
v 0.449739 0.073117 -0.183897
v 0.415842 -0.023687 -0.183897
v -0.619205 -0.023687 0.226317
v -0.618721 -0.023687 -0.226313
v -0.593538 0.049614 0.226317
v -0.593196 0.049209 -0.226313
v -0.531573 0.079977 0.226317
v -0.531573 0.079404 -0.226313
v -0.469607 0.049614 0.226317
v -0.469950 0.049209 -0.226313
v -0.443940 -0.023687 0.226317
v -0.444425 -0.023687 -0.226313
v -0.647303 -0.023687 0.183900
v -0.613406 0.073117 0.183900
v -0.531573 0.113215 0.183900
v -0.449739 0.073117 0.183900
v -0.415842 -0.023687 0.183900
v -0.647303 -0.023687 -0.183896
v -0.613406 0.073117 -0.183896
v -0.531573 0.113215 -0.183896
v -0.449739 0.073117 -0.183896
v -0.415843 -0.023687 -0.183896
vn -0.0000 -0.2988 0.9543
vn -0.0000 -0.8770 0.4805
vn -0.0000 -0.8770 -0.4805
vn -0.0000 -0.2988 -0.9543
vn 1.0000 -0.0000 -0.0000
vn -1.0000 -0.0000 -0.0000
vn -0.0000 1.0000 -0.0000
vn 0.9438 0.3305 -0.0000
vn 0.4400 0.8980 -0.0000
vn -0.4400 0.8980 -0.0000
vn -0.9438 0.3305 -0.0000
vn 0.8003 0.2802 0.5301
vn 0.3598 0.7344 0.5755
vn -0.3598 0.7344 0.5755
vn -0.8003 0.2802 0.5301
vn 0.7964 0.2789 -0.5366
vn 0.3578 0.7302 -0.5821
vn -0.3578 0.7302 -0.5821
vn -0.7964 0.2789 -0.5366
vn -0.0000 -0.0000 1.0000
vn -0.0000 -0.0000 -1.0000
vn -0.0000 -1.0000 -0.0000
vt 0.263569 0.854538
vt 0.213768 0.854538
vt 0.213768 0.837653
vt 0.263569 0.837653
vt 0.213768 0.830659
vt 0.263569 0.830659
vt 0.213768 0.854537
vt 0.263569 0.854537
vt 0.263569 0.841752
vt 0.263569 0.836456
vt 0.213768 0.841823
vt 0.213768 0.836556
vt 0.846436 0.584585
vt 0.881384 0.584585
vt 0.876266 0.568240
vt 0.863910 0.561469
vt 0.851554 0.568240
vt 0.881287 0.584585
vt 0.846532 0.584585
vt 0.851622 0.568330
vt 0.863910 0.561597
vt 0.876197 0.568330
vt 0.258323 0.860565
vt 0.258323 0.860565
vt 0.252579 0.876969
vt 0.238712 0.883764
vt 0.224844 0.876969
vt 0.219100 0.860565
vt 0.249212 0.872986
vt 0.253562 0.860565
vt 0.238712 0.878132
vt 0.228211 0.872986
vt 0.223862 0.860565
vt 0.253479 0.860565
vt 0.249154 0.872918
vt 0.238712 0.878034
vt 0.228269 0.872918
vt 0.223944 0.860565
vt 0.845808 0.569136
vt 0.873517 0.569136
vt 0.869459 0.580725
vt 0.859662 0.585525
vt 0.849866 0.580725
vt 0.873440 0.569136
vt 0.845884 0.569136
vt 0.849920 0.580661
vt 0.859662 0.585435
vt 0.869405 0.580661
vt 0.873482 0.569036
vt 0.869425 0.580625
vt 0.859628 0.585425
vt 0.849831 0.580625
vt 0.845773 0.569036
vt 0.845850 0.569036
vt 0.849886 0.580561
vt 0.859628 0.585335
vt 0.869370 0.580561
vt 0.873406 0.569036
s 0
usemtl Winter_Pack_Texture
f 11/1/1 16/2/1 17/3/1 12/4/1
f 12/4/2 17/3/2 18/5/2 13/6/2
f 13/6/3 18/5/3 19/3/3 14/4/3
f 14/4/4 19/3/4 20/7/4 15/8/4
f 3/9/5 1/1/5 11/1/5 12/4/5
f 5/10/5 3/9/5 12/4/5 13/6/5
f 7/9/5 5/10/5 13/6/5 14/4/5
f 9/8/5 7/9/5 14/4/5 15/8/5
f 2/2/6 4/11/6 17/3/6 16/2/6
f 4/11/6 6/12/6 18/5/6 17/3/6
f 6/12/6 8/11/6 19/3/6 18/5/6
f 8/11/6 10/7/6 20/7/6 19/3/6
f 9/13/5 1/14/5 3/15/5 5/16/5 7/17/5
f 2/18/6 10/19/6 8/20/6 6/21/6 4/22/6
f 11/1/7 1/1/7 2/2/7 16/2/7
f 1/14/7 9/13/7 10/19/7 2/18/7
f 9/8/7 15/8/7 20/7/7 10/7/7
f 31/23/8 36/24/8 37/25/8 32/25/8
f 32/25/9 37/25/9 38/26/9 33/26/9
f 33/26/10 38/26/10 39/27/10 34/27/10
f 34/27/11 39/27/11 40/28/11 35/28/11
f 23/29/12 21/30/12 31/23/12 32/25/12
f 25/31/13 23/29/13 32/25/13 33/26/13
f 27/32/14 25/31/14 33/26/14 34/27/14
f 29/33/15 27/32/15 34/27/15 35/28/15
f 22/34/16 24/35/16 37/25/16 36/24/16
f 24/35/17 26/36/17 38/26/17 37/25/17
f 26/36/18 28/37/18 39/27/18 38/26/18
f 28/37/19 30/38/19 40/28/19 39/27/19
f 29/39/20 21/40/20 23/41/20 25/42/20 27/43/20
f 22/44/21 30/45/21 28/46/21 26/47/21 24/48/21
f 31/23/22 21/30/22 22/34/22 36/24/22
f 21/40/22 29/39/22 30/45/22 22/44/22
f 29/33/22 35/28/22 40/28/22 30/38/22
f 51/23/11 52/25/11 57/25/11 56/24/11
f 52/25/10 53/26/10 58/26/10 57/25/10
f 53/26/9 54/27/9 59/27/9 58/26/9
f 54/27/8 55/28/8 60/28/8 59/27/8
f 43/29/15 52/25/15 51/23/15 41/30/15
f 45/31/14 53/26/14 52/25/14 43/29/14
f 47/32/13 54/27/13 53/26/13 45/31/13
f 49/33/12 55/28/12 54/27/12 47/32/12
f 42/34/19 56/24/19 57/25/19 44/35/19
f 44/35/18 57/25/18 58/26/18 46/36/18
f 46/36/17 58/26/17 59/27/17 48/37/17
f 48/37/16 59/27/16 60/28/16 50/38/16
f 49/49/20 47/50/20 45/51/20 43/52/20 41/53/20
f 42/54/21 44/55/21 46/56/21 48/57/21 50/58/21
f 51/23/22 56/24/22 42/34/22 41/30/22
f 41/53/22 42/54/22 50/58/22 49/49/22
f 49/33/22 50/38/22 60/28/22 55/28/22
