# Blender 5.0.0
# www.blender.org
mtllib Wood_Bench_A_Snow.mtl
o Wood_Bench_A_Snow
v -0.718207 0.304422 0.228909
v -0.718207 0.360694 0.228909
v -0.683527 0.304421 -0.234613
v -0.683527 0.360693 -0.234613
v 0.671344 0.304421 0.229466
v 0.671344 0.360694 0.229466
v 0.661406 0.304421 -0.220338
v 0.661406 0.360694 -0.220338
v 0.458822 0.304421 -0.232724
v 0.584900 0.304421 -0.226103
v -0.589336 0.304421 -0.258314
v -0.463257 0.304421 -0.246583
v -0.463257 0.360693 -0.246583
v -0.589336 0.360693 -0.258314
v 0.584900 0.360694 -0.226103
v 0.458822 0.360693 -0.232724
v -0.463257 0.304421 0.272336
v -0.589335 0.304421 0.258101
v 0.584900 0.304421 0.244737
v 0.458822 0.304421 0.244737
v 0.458822 0.360694 0.244737
v 0.584900 0.360694 0.244737
v -0.589335 0.360694 0.258101
v -0.463257 0.360694 0.272336
v -0.721307 0.304421 -0.166407
v -0.747606 0.304421 0.149953
v -0.747606 0.360694 0.149953
v -0.721307 0.360694 -0.166407
v 0.738536 0.304421 0.164565
v 0.718472 0.304421 -0.166408
v 0.718472 0.360694 -0.166408
v 0.738536 0.360694 0.164565
v 0.458822 0.390304 -0.166408
v 0.458822 0.390304 0.164565
v 0.584900 0.390304 0.164565
v 0.584900 0.390304 -0.166408
v -0.589336 0.390304 -0.166407
v -0.589335 0.390304 0.164566
v -0.463257 0.390304 0.164566
v -0.463257 0.390304 -0.166408
v -0.463257 0.304421 -0.166408
v -0.463257 0.304421 0.164566
v -0.589335 0.304421 0.164566
v -0.577211 0.304421 -0.154610
v 0.602426 0.304421 -0.153744
v 0.582285 0.304421 0.136314
v 0.469618 0.304421 0.152073
v 0.475892 0.304421 -0.159017
v -0.452781 -0.023494 -0.130874
v -0.470749 -0.023494 0.122403
v -0.568445 -0.023494 0.111713
v -0.555011 -0.023494 -0.110966
v 0.570416 -0.023494 -0.135420
v 0.563889 -0.023494 0.122862
v 0.480545 -0.023494 0.127989
v 0.503756 -0.023494 -0.127104
v -0.722625 0.304421 -0.030980
v -0.742971 0.304421 0.029139
v -0.742971 0.360694 0.029139
v -0.722625 0.360694 -0.030980
v 0.755342 0.304421 0.029138
v 0.738536 0.304421 -0.030981
v 0.738536 0.360694 -0.030981
v 0.755342 0.360694 0.029138
v 0.458822 0.390304 -0.030981
v 0.458822 0.390304 0.029138
v 0.584900 0.390304 0.029138
v 0.584900 0.390304 -0.030981
v -0.589335 0.390304 -0.030980
v -0.589335 0.390304 0.029139
v -0.463257 0.390304 0.029139
v -0.463257 0.390304 -0.030981
v -0.463257 0.304421 -0.030981
v -0.463257 0.304421 0.029139
v -0.589335 0.304421 0.029139
v -0.589335 0.304421 -0.030980
v 0.584900 0.304421 -0.030981
v 0.584900 0.304421 0.029138
v 0.458822 0.304421 0.029138
v 0.458822 0.304421 -0.030981
v -0.433203 -0.023494 -0.031569
v -0.442366 -0.023494 0.045263
v -0.589335 -0.023494 0.029139
v -0.589335 -0.023494 -0.030980
v 0.584900 -0.023494 -0.030981
v 0.584900 -0.023494 0.029138
v 0.453292 -0.023494 0.042360
v 0.456983 -0.023494 -0.041504
v 0.602426 0.084345 -0.153744
v 0.494777 0.084345 -0.157558
v 0.469618 0.084345 0.152073
v 0.582285 0.084345 0.136314
v 0.584900 0.084345 -0.030981
v 0.584900 0.084345 0.029138
v 0.458822 0.084345 0.029138
v 0.454686 0.084345 -0.039493
v -0.471314 0.084345 -0.155641
v -0.561420 0.084345 -0.123936
v -0.572811 0.084345 0.148588
v -0.475114 0.084345 0.159278
v -0.450518 0.084345 -0.048845
v -0.463257 0.084345 0.029139
v -0.589335 0.084345 0.029139
v -0.589335 0.084345 -0.030980
vn -0.8748 -0.0000 -0.4845
vn 0.6947 -0.0000 0.7193
vn -0.0000 0.9381 0.3465
vn -0.0159 0.9592 0.2822
vn -0.0000 -1.0000 -0.0000
vn -0.0000 -0.0000 1.0000
vn -0.1122 -0.0000 0.9937
vn 0.0926 -0.0000 -0.9957
vn 0.0524 -0.0000 -0.9986
vn 0.0028 0.9271 -0.3748
vn 0.0299 -0.0000 0.9996
vn 0.0751 -0.0000 -0.9972
vn -0.2440 -0.0000 -0.9698
vn -0.1292 0.9734 0.1891
vn 0.1344 0.9569 0.2576
vn 0.0150 -0.0000 -0.9999
vn -0.2209 -0.0000 0.9753
vn 0.1740 -0.0000 0.9848
vn -0.0000 1.0000 -0.0000
vn 0.1409 0.9385 -0.3153
vn 0.1797 0.9836 0.0112
vn -0.1488 0.9655 -0.2137
vn -0.1864 0.9825 -0.0034
vn -0.0252 -0.2180 -0.9756
vn -0.2542 -0.1951 -0.9473
vn 0.0151 0.9455 -0.3254
vn 0.0112 0.9050 -0.4253
vn 0.6868 -0.0000 -0.7268
vn 0.9924 -0.0000 0.1232
vn -0.9371 -0.0000 0.3489
vn -1.0000 -0.0000 -0.0097
vn -0.9153 -0.0993 -0.3904
vn -0.1028 -0.3256 0.9399
vn 0.9890 -0.0916 0.1163
vn 0.1043 -0.1740 0.9792
vn -0.9398 -0.0483 -0.3382
vn 0.9771 0.0962 0.1897
vn 0.9737 0.1247 -0.1907
vn 0.0016 0.1349 0.9909
vn -0.9820 -0.0510 0.1819
vn -1.0000 -0.0000 -0.0000
vn 0.9892 -0.1457 0.0132
vn 1.0000 -0.0000 -0.0000
vn -0.9832 -0.0336 0.1794
vn -0.9993 -0.0000 -0.0383
vn -0.9472 -0.0000 -0.3206
vn 0.9892 -0.0000 -0.1466
vn 0.9631 -0.0000 -0.2692
vn -0.2179 0.9760 -0.0011
vn -0.2020 0.9788 -0.0342
vn 0.2019 0.9793 -0.0150
vn 0.1797 0.9834 -0.0251
vn -0.9994 0.0088 0.0321
vn -0.9962 -0.0000 0.0875
vn 0.9900 -0.0000 0.1413
vn 0.1385 -0.0000 0.9904
vn 0.9997 -0.0000 0.0244
vn -0.9737 -0.0290 -0.2261
vn 0.0388 -0.0016 -0.9992
vn -0.9971 -0.0398 0.0646
vn 0.9955 0.0251 0.0918
vn 0.9963 0.0120 -0.0855
vn 0.9986 -0.0274 0.0446
vn -0.9822 -0.0479 -0.1816
vn -0.0477 -0.0487 0.9977
vn -0.2076 -0.0953 -0.9736
vn -0.0003 -0.0706 -0.9975
vn 0.0045 0.9538 0.3005
vt 0.676182 0.519590
vt 0.676182 0.530987
vt 0.677381 0.530987
vt 0.677381 0.519590
vt 0.722508 0.519590
vt 0.722508 0.530987
vt 0.720376 0.530987
vt 0.720376 0.519590
vt 0.713632 0.536984
vt 0.713632 0.530987
vt 0.717633 0.530987
vt 0.717633 0.536984
vt 0.680370 0.536984
vt 0.680370 0.530987
vt 0.684371 0.530987
vt 0.684371 0.536984
vt 0.225443 0.843952
vt 0.221859 0.843952
vt 0.255162 0.843952
vt 0.255237 0.843952
vt 0.251653 0.843952
vt 0.251960 0.843952
vt 0.713632 0.519590
vt 0.717633 0.519590
vt 0.680370 0.519590
vt 0.684371 0.519590
vt 0.684371 0.530987
vt 0.680370 0.530987
vt 0.717633 0.530987
vt 0.713632 0.530987
vt 0.259604 0.843952
vt 0.257694 0.843952
vt 0.720061 0.530987
vt 0.720061 0.519590
vt 0.217360 0.843952
vt 0.218196 0.843952
vt 0.675347 0.530987
vt 0.676280 0.530987
vt 0.676280 0.519590
vt 0.252138 0.843952
vt 0.721872 0.530987
vt 0.723042 0.530987
vt 0.675494 0.530987
vt 0.219181 0.843951
vt 0.222203 0.843952
vt 0.218108 0.843952
vt 0.845435 0.574392
vt 0.849312 0.574392
vt 0.845318 0.574392
vt 0.875757 0.574392
vt 0.876030 0.574392
vt 0.852493 0.574392
vt 0.257411 0.843952
vt 0.259033 0.843952
vt 0.255735 0.843951
vt 0.878939 0.574392
vt 0.883239 0.574392
vt 0.882815 0.574392
vt 0.878873 0.574392
vt 0.227127 0.849976
vt 0.228710 0.849976
vt 0.228239 0.843662
vt 0.227259 0.843662
vt 0.250198 0.850506
vt 0.252471 0.850506
vt 0.252939 0.843937
vt 0.250359 0.843937
vt 0.721872 0.519590
vt 0.723042 0.519590
vt 0.675347 0.519590
vt 0.676140 0.519590
vt 0.676140 0.530987
vt 0.228452 0.843662
vt 0.228143 0.843662
vt 0.226918 0.843662
vt 0.226517 0.843662
vt 0.253201 0.843937
vt 0.252485 0.843937
vt 0.250020 0.843937
vt 0.249493 0.843937
vt 0.226537 0.849976
vt 0.226571 0.843662
vt 0.252375 0.850506
vt 0.249910 0.850506
vt 0.228452 0.849976
vt 0.228414 0.849976
vt 0.226757 0.849976
vt 0.249493 0.850506
vt 0.252674 0.850506
vt 0.252996 0.850506
vt 0.253433 0.843937
vt 0.251355 0.822548
vt 0.251494 0.833380
vt 0.228229 0.833380
vt 0.228757 0.822548
vt 0.226598 0.849976
vt 0.251390 0.833380
vt 0.228551 0.833380
vt 0.675494 0.519590
vt 0.879381 0.574392
vt 0.882309 0.574392
vt 0.845982 0.574392
vt 0.849617 0.574392
vt 0.845949 0.574392
vt 0.876188 0.574392
vt 0.226598 0.862861
vt 0.226757 0.862861
vt 0.228452 0.862861
vt 0.228710 0.862861
vt 0.228414 0.862861
vt 0.226849 0.862861
vt 0.249493 0.863912
vt 0.252674 0.863912
vt 0.249799 0.863912
vt 0.251448 0.822548
vt 0.228988 0.822548
s 0
usemtl Winter_Pack_Texture
f 25/1/1 28/2/1 4/3/1 3/4/1
f 29/5/2 32/6/2 6/7/2 5/8/2
f 34/9/3 21/10/3 22/11/3 35/12/3
f 38/13/4 23/14/4 24/15/4 39/16/4
f 42/17/5 17/17/5 18/18/5 43/18/5
f 46/19/5 19/20/5 20/21/5 47/22/5
f 21/10/6 20/23/6 19/24/6 22/11/6
f 23/14/7 18/25/7 17/26/7 24/15/7
f 13/27/8 12/26/8 11/25/8 14/28/8
f 15/29/9 10/24/9 9/23/9 16/30/9
f 46/19/5 29/31/5 5/32/5 19/20/5
f 16/30/10 13/27/10 40/16/10 33/9/10
f 20/23/11 21/10/11 24/15/11 17/26/11
f 10/24/12 15/29/12 8/33/12 7/34/12
f 3/4/13 4/3/13 14/28/13 11/25/13
f 26/35/5 43/18/5 18/18/5 1/36/5
f 38/13/14 27/37/14 2/38/14 23/14/14
f 42/17/5 47/22/5 20/21/5 17/17/5
f 32/6/15 35/12/15 22/11/15 6/7/15
f 12/26/16 13/27/16 16/30/16 9/23/16
f 18/25/17 23/14/17 2/38/17 1/39/17
f 5/8/18 6/7/18 22/11/18 19/24/18
f 71/16/19 39/16/19 34/9/19 66/9/19
f 9/21/5 48/40/5 41/17/5 12/17/5
f 8/33/20 15/29/20 36/12/20 31/41/20
f 64/42/21 67/12/21 35/12/21 32/6/21
f 14/28/22 4/3/22 28/2/22 37/13/22
f 70/13/23 59/43/23 27/37/23 38/13/23
f 3/44/5 11/18/5 44/45/5 25/46/5
f 58/47/5 75/48/5 43/48/5 26/49/5
f 79/50/5 47/51/5 42/52/5 74/52/5
f 33/9/19 40/16/19 72/16/19 65/9/19
f 10/20/5 7/53/5 30/54/5 45/55/5
f 78/56/5 61/57/5 29/58/5 46/59/5
f 10/20/5 45/55/5 48/40/5 9/21/5
f 90/60/24 89/61/24 53/62/24 56/63/24
f 12/17/5 41/17/5 44/45/5 11/18/5
f 98/64/25 97/65/25 49/66/25 52/67/25
f 14/28/26 37/13/26 40/16/26 13/27/26
f 70/13/19 38/13/19 39/16/19 71/16/19
f 16/30/27 33/9/27 36/12/27 15/29/27
f 66/9/19 34/9/19 35/12/19 67/12/19
f 7/34/28 8/33/28 31/41/28 30/68/28
f 61/69/29 64/42/29 32/6/29 29/5/29
f 1/39/30 2/38/30 27/37/30 26/70/30
f 57/71/31 60/72/31 28/2/31 25/1/31
f 86/73/5 54/74/5 55/75/5 87/76/5
f 82/77/5 50/78/5 51/79/5 83/80/5
f 96/81/32 90/60/32 56/63/32 88/82/32
f 100/83/33 99/84/33 51/79/33 50/78/33
f 94/85/34 92/86/34 54/74/34 86/73/34
f 92/86/35 91/87/35 55/75/35 54/74/35
f 104/88/36 98/64/36 52/67/36 84/80/36
f 102/89/37 100/83/37 50/78/37 82/77/37
f 97/65/38 101/90/38 81/91/38 49/66/38
f 87/92/39 95/93/39 102/94/39 82/95/39
f 99/84/40 103/88/40 83/80/40 51/79/40
f 103/88/41 104/88/41 84/80/41 83/80/41
f 89/61/42 93/85/42 85/73/42 53/62/42
f 93/85/43 94/85/43 86/73/43 85/73/43
f 91/87/44 95/96/44 87/76/44 55/75/44
f 95/93/19 96/97/19 101/98/19 102/94/19
f 49/66/5 81/91/5 84/80/5 52/67/5
f 81/91/5 82/77/5 83/80/5 84/80/5
f 53/62/5 85/73/5 88/82/5 56/63/5
f 85/73/5 86/73/5 87/76/5 88/82/5
f 26/70/45 27/37/45 59/43/45 58/99/45
f 58/99/46 59/43/46 60/72/46 57/71/46
f 30/68/47 31/41/47 63/6/47 62/5/47
f 62/5/48 63/6/48 64/42/48 61/69/48
f 33/9/19 65/9/19 68/12/19 36/12/19
f 65/9/19 66/9/19 67/12/19 68/12/19
f 37/13/19 69/13/19 72/16/19 40/16/19
f 69/13/19 70/13/19 71/16/19 72/16/19
f 45/100/5 30/101/5 62/58/5 77/56/5
f 77/56/5 62/58/5 61/57/5 78/56/5
f 73/52/5 80/50/5 79/50/5 74/52/5
f 25/102/5 44/103/5 76/48/5 57/104/5
f 57/104/5 76/48/5 75/48/5 58/47/5
f 37/13/49 28/2/49 60/72/49 69/13/49
f 69/13/50 60/72/50 59/43/50 70/13/50
f 65/9/19 72/16/19 71/16/19 66/9/19
f 41/52/5 48/105/5 80/50/5 73/52/5
f 31/41/51 36/12/51 68/12/51 63/6/51
f 63/6/52 68/12/52 67/12/52 64/42/52
f 79/106/53 80/106/53 96/81/53 95/96/53
f 47/107/54 79/106/54 95/96/54 91/87/54
f 77/108/43 78/108/43 94/85/43 93/85/43
f 45/109/55 77/108/55 93/85/55 89/61/55
f 46/110/56 47/107/56 91/87/56 92/86/56
f 78/108/57 46/110/57 92/86/57 94/85/57
f 80/106/58 48/111/58 90/60/58 96/81/58
f 48/111/59 45/109/59 89/61/59 90/60/59
f 75/112/41 76/112/41 104/88/41 103/88/41
f 43/112/60 75/112/60 103/88/60 99/84/60
f 73/113/61 74/113/61 102/89/61 101/90/61
f 41/113/62 73/113/62 101/90/62 97/65/62
f 74/113/63 42/113/63 100/83/63 102/89/63
f 76/112/64 44/114/64 98/64/64 104/88/64
f 42/113/65 43/112/65 99/84/65 100/83/65
f 44/114/66 41/113/66 97/65/66 98/64/66
f 96/97/67 88/115/67 81/116/67 101/98/67
f 88/115/5 87/92/5 82/95/5 81/116/5
f 34/9/68 39/16/68 24/15/68 21/10/68
