# Blender 5.0.0
# www.blender.org
mtllib Wood_Bench_A.mtl
o Wood_Bench_A
v -0.718207 0.304422 0.228909
v -0.718207 0.360694 0.228909
v -0.683527 0.304421 -0.234613
v -0.683527 0.360693 -0.234613
v 0.671344 0.304421 0.229466
v 0.671344 0.360694 0.229466
v 0.661406 0.304421 -0.220338
v 0.661406 0.360694 -0.220338
v 0.458822 0.304421 -0.232724
v 0.584900 0.304421 -0.226103
v -0.589336 0.304421 -0.258314
v -0.463257 0.304421 -0.246583
v -0.463257 0.360693 -0.246583
v -0.589336 0.360693 -0.258314
v 0.584900 0.360694 -0.226103
v 0.458822 0.360693 -0.232724
v -0.463257 0.304421 0.272336
v -0.589335 0.304421 0.258101
v 0.584900 0.304421 0.244737
v 0.458822 0.304421 0.244737
v 0.458822 0.360694 0.244737
v 0.584900 0.360694 0.244737
v -0.589335 0.360694 0.258101
v -0.463257 0.360694 0.272336
v -0.721307 0.304421 -0.166407
v -0.747606 0.304421 0.149953
v -0.747606 0.360694 0.149953
v -0.721307 0.360694 -0.166407
v 0.738536 0.304421 0.164565
v 0.718472 0.304421 -0.166408
v 0.718472 0.360694 -0.166408
v 0.738536 0.360694 0.164565
v 0.458822 0.390304 -0.166408
v 0.458822 0.390304 0.164565
v 0.584900 0.390304 0.164565
v 0.584900 0.390304 -0.166408
v -0.589336 0.390304 -0.166407
v -0.589335 0.390304 0.164566
v -0.463257 0.390304 0.164566
v -0.463257 0.390304 -0.166408
v -0.463257 0.304421 -0.166408
v -0.463257 0.304421 0.164566
v -0.589335 0.304421 0.164566
v -0.577211 0.304421 -0.154610
v 0.602426 0.304421 -0.153744
v 0.582285 0.304421 0.136314
v 0.469618 0.304421 0.152073
v 0.475892 0.304421 -0.159017
v -0.452781 -0.023494 -0.130874
v -0.470749 -0.023494 0.122403
v -0.568445 -0.023494 0.111713
v -0.555011 -0.023494 -0.110966
v 0.570416 -0.023494 -0.135420
v 0.563889 -0.023494 0.122862
v 0.480545 -0.023494 0.127989
v 0.503756 -0.023494 -0.127104
v -0.722625 0.304421 -0.030980
v -0.742971 0.304421 0.029139
v -0.742971 0.360694 0.029139
v -0.722625 0.360694 -0.030980
v 0.755342 0.304421 0.029138
v 0.738536 0.304421 -0.030981
v 0.738536 0.360694 -0.030981
v 0.755342 0.360694 0.029138
v 0.458822 0.390304 -0.030981
v 0.458822 0.390304 0.029138
v 0.584900 0.390304 0.029138
v 0.584900 0.390304 -0.030981
v -0.589335 0.390304 -0.030980
v -0.589335 0.390304 0.029139
v -0.463257 0.390304 0.029139
v -0.463257 0.390304 -0.030981
v -0.463257 0.304421 -0.030981
v -0.463257 0.304421 0.029139
v -0.589335 0.304421 0.029139
v -0.589335 0.304421 -0.030980
v 0.584900 0.304421 -0.030981
v 0.584900 0.304421 0.029138
v 0.458822 0.304421 0.029138
v 0.458822 0.304421 -0.030981
v -0.433203 -0.023494 -0.031569
v -0.442366 -0.023494 0.045263
v -0.589335 -0.023494 0.029139
v -0.589335 -0.023494 -0.030980
v 0.584900 -0.023494 -0.030981
v 0.584900 -0.023494 0.029138
v 0.453292 -0.023494 0.042360
v 0.456983 -0.023494 -0.041504
v 0.602426 0.084345 -0.153744
v 0.494777 0.084345 -0.157558
v 0.469618 0.084345 0.152073
v 0.582285 0.084345 0.136314
v 0.584900 0.084345 -0.030981
v 0.584900 0.084345 0.029138
v 0.458822 0.084345 0.029138
v 0.454686 0.084345 -0.039493
v -0.471314 0.084345 -0.155641
v -0.561420 0.084345 -0.123936
v -0.572811 0.084345 0.148588
v -0.475114 0.084345 0.159278
v -0.450518 0.084345 -0.048845
v -0.463257 0.084345 0.029139
v -0.589335 0.084345 0.029139
v -0.589335 0.084345 -0.030980
vn -0.8748 -0.0000 -0.4845
vn 0.6947 -0.0000 0.7193
vn -0.0000 0.9381 0.3465
vn -0.0159 0.9592 0.2822
vn -0.0000 -1.0000 -0.0000
vn -0.0000 -0.0000 1.0000
vn -0.1122 -0.0000 0.9937
vn 0.0926 -0.0000 -0.9957
vn 0.0524 -0.0000 -0.9986
vn 0.0028 0.9271 -0.3748
vn 0.0299 -0.0000 0.9996
vn 0.0751 -0.0000 -0.9972
vn -0.2440 -0.0000 -0.9698
vn -0.1292 0.9734 0.1891
vn 0.1344 0.9569 0.2576
vn 0.0150 -0.0000 -0.9999
vn -0.2209 -0.0000 0.9753
vn 0.1740 -0.0000 0.9848
vn -0.0000 1.0000 -0.0000
vn 0.1409 0.9385 -0.3153
vn 0.1797 0.9836 0.0112
vn -0.1488 0.9655 -0.2137
vn -0.1864 0.9825 -0.0034
vn -0.0252 -0.2180 -0.9756
vn -0.2542 -0.1951 -0.9473
vn 0.0151 0.9455 -0.3254
vn 0.0112 0.9050 -0.4253
vn 0.6868 -0.0000 -0.7268
vn 0.9924 -0.0000 0.1232
vn -0.9371 -0.0000 0.3489
vn -1.0000 -0.0000 -0.0097
vn -0.9153 -0.0993 -0.3904
vn -0.1028 -0.3256 0.9399
vn 0.9890 -0.0916 0.1163
vn 0.1043 -0.1740 0.9792
vn -0.9398 -0.0483 -0.3382
vn 0.9771 0.0962 0.1897
vn 0.9737 0.1247 -0.1907
vn 0.0016 0.1349 0.9909
vn -0.9820 -0.0510 0.1819
vn -1.0000 -0.0000 -0.0000
vn 0.9892 -0.1457 0.0132
vn 1.0000 -0.0000 -0.0000
vn -0.9832 -0.0336 0.1794
vn -0.9993 -0.0000 -0.0383
vn -0.9472 -0.0000 -0.3206
vn 0.9892 -0.0000 -0.1466
vn 0.9631 -0.0000 -0.2692
vn -0.2179 0.9760 -0.0011
vn -0.2020 0.9788 -0.0342
vn 0.2019 0.9793 -0.0150
vn 0.1797 0.9834 -0.0251
vn -0.9994 0.0088 0.0321
vn -0.9962 -0.0000 0.0875
vn 0.9900 -0.0000 0.1413
vn 0.1385 -0.0000 0.9904
vn 0.9997 -0.0000 0.0244
vn -0.9737 -0.0290 -0.2261
vn 0.0388 -0.0016 -0.9992
vn -0.9971 -0.0398 0.0646
vn 0.9955 0.0251 0.0918
vn 0.9963 0.0120 -0.0855
vn 0.9986 -0.0274 0.0446
vn -0.9822 -0.0479 -0.1816
vn -0.0477 -0.0487 0.9977
vn -0.2076 -0.0953 -0.9736
vn -0.0003 -0.0706 -0.9975
vn 0.0045 0.9538 0.3005
vt 0.218108 0.864147
vt 0.218108 0.876053
vt 0.219181 0.876053
vt 0.219181 0.864147
vt 0.259604 0.864147
vt 0.259604 0.876054
vt 0.257694 0.876053
vt 0.257694 0.864147
vt 0.251653 0.882319
vt 0.251653 0.876054
vt 0.255237 0.876054
vt 0.255237 0.882319
vt 0.221859 0.882319
vt 0.221859 0.876054
vt 0.225443 0.876054
vt 0.225443 0.882319
vt 0.225443 0.864147
vt 0.221859 0.864147
vt 0.255162 0.864147
vt 0.255237 0.864147
vt 0.251653 0.864147
vt 0.251960 0.864147
vt 0.246642 0.872805
vt 0.246642 0.867153
vt 0.249823 0.867153
vt 0.249823 0.872805
vt 0.220196 0.872805
vt 0.220196 0.867153
vt 0.223377 0.867153
vt 0.223377 0.872805
vt 0.251653 0.876053
vt 0.225443 0.876053
vt 0.225443 0.882319
vt 0.251653 0.882319
vt 0.251754 0.872805
vt 0.251754 0.867153
vt 0.217820 0.867153
vt 0.217820 0.872805
vt 0.217360 0.864147
vt 0.218196 0.864147
vt 0.217360 0.876054
vt 0.218196 0.876054
vt 0.216945 0.872805
vt 0.216945 0.867153
vt 0.252004 0.867153
vt 0.252004 0.872805
vt 0.852493 0.583019
vt 0.875757 0.583019
vt 0.252138 0.864147
vt 0.257411 0.876053
vt 0.255237 0.876053
vt 0.255237 0.882319
vt 0.259033 0.876053
vt 0.883239 0.580044
vt 0.878939 0.583019
vt 0.882815 0.580044
vt 0.221859 0.876053
vt 0.221859 0.882319
vt 0.849312 0.583019
vt 0.845435 0.580044
vt 0.845318 0.580044
vt 0.222203 0.864147
vt 0.845435 0.574392
vt 0.849312 0.574392
vt 0.845318 0.574392
vt 0.875757 0.574392
vt 0.876030 0.574392
vt 0.852493 0.574392
vt 0.257411 0.864147
vt 0.259033 0.864147
vt 0.255735 0.864147
vt 0.878939 0.574392
vt 0.883239 0.574392
vt 0.882815 0.574392
vt 0.878873 0.574392
vt 0.227127 0.870171
vt 0.228710 0.870171
vt 0.228239 0.863858
vt 0.227259 0.863858
vt 0.250198 0.870701
vt 0.252471 0.870701
vt 0.252939 0.864132
vt 0.250359 0.864132
vt 0.845949 0.574392
vt 0.845949 0.580044
vt 0.845982 0.580044
vt 0.845982 0.574392
vt 0.228452 0.863858
vt 0.228143 0.863858
vt 0.226918 0.863858
vt 0.226517 0.863858
vt 0.253201 0.864132
vt 0.252485 0.864132
vt 0.250020 0.864132
vt 0.249493 0.864132
vt 0.226537 0.870171
vt 0.226571 0.863858
vt 0.252375 0.870701
vt 0.249910 0.870701
vt 0.228452 0.870171
vt 0.228414 0.870171
vt 0.226757 0.870171
vt 0.249493 0.870701
vt 0.252674 0.870701
vt 0.252996 0.870701
vt 0.253433 0.864132
vt 0.251355 0.842743
vt 0.251494 0.853576
vt 0.228229 0.853576
vt 0.228757 0.842743
vt 0.226598 0.870171
vt 0.251390 0.853576
vt 0.228551 0.853576
vt 0.882309 0.574392
vt 0.882309 0.580044
vt 0.879381 0.574392
vt 0.849617 0.574392
vt 0.876188 0.574392
vt 0.226598 0.883057
vt 0.226757 0.883057
vt 0.228452 0.883057
vt 0.228710 0.883057
vt 0.228414 0.883057
vt 0.226849 0.883057
vt 0.249493 0.884108
vt 0.252674 0.884108
vt 0.249799 0.884108
vt 0.251448 0.842743
vt 0.228988 0.842743
s 0
usemtl Winter_Pack_Texture
f 25/1/1 28/2/1 4/3/1 3/4/1
f 29/5/2 32/6/2 6/7/2 5/8/2
f 34/9/3 21/10/3 22/11/3 35/12/3
f 38/13/4 23/14/4 24/15/4 39/16/4
f 42/17/5 17/17/5 18/18/5 43/18/5
f 46/19/5 19/20/5 20/21/5 47/22/5
f 21/23/6 20/24/6 19/25/6 22/26/6
f 23/27/7 18/28/7 17/29/7 24/30/7
f 13/30/8 12/29/8 11/28/8 14/27/8
f 15/26/9 10/25/9 9/24/9 16/23/9
f 46/19/5 29/5/5 5/8/5 19/20/5
f 16/31/10 13/32/10 40/33/10 33/34/10
f 20/24/11 21/23/11 24/30/11 17/29/11
f 10/25/12 15/26/12 8/35/12 7/36/12
f 3/37/13 4/38/13 14/27/13 11/28/13
f 26/39/5 43/18/5 18/18/5 1/40/5
f 38/13/14 27/41/14 2/42/14 23/14/14
f 42/17/5 47/22/5 20/21/5 17/17/5
f 32/6/15 35/12/15 22/11/15 6/7/15
f 12/29/16 13/30/16 16/23/16 9/24/16
f 18/28/17 23/27/17 2/43/17 1/44/17
f 5/45/18 6/46/18 22/26/18 19/25/18
f 71/47/19 39/47/19 34/48/19 66/48/19
f 9/21/5 48/49/5 41/17/5 12/17/5
f 8/50/20 15/51/20 36/52/20 31/53/20
f 64/54/21 67/55/21 35/55/21 32/56/21
f 14/57/22 4/3/22 28/2/22 37/58/22
f 70/59/23 59/60/23 27/61/23 38/59/23
f 3/4/5 11/18/5 44/62/5 25/1/5
f 58/63/5 75/64/5 43/64/5 26/65/5
f 79/66/5 47/67/5 42/68/5 74/68/5
f 33/48/19 40/47/19 72/47/19 65/48/19
f 10/20/5 7/69/5 30/70/5 45/71/5
f 78/72/5 61/73/5 29/74/5 46/75/5
f 10/20/5 45/71/5 48/49/5 9/21/5
f 90/76/24 89/77/24 53/78/24 56/79/24
f 12/17/5 41/17/5 44/62/5 11/18/5
f 98/80/25 97/81/25 49/82/25 52/83/25
f 14/57/26 37/58/26 40/33/26 13/32/26
f 70/59/19 38/59/19 39/47/19 71/47/19
f 16/31/27 33/34/27 36/52/27 15/51/27
f 66/48/19 34/48/19 35/55/19 67/55/19
f 7/69/28 8/50/28 31/53/28 30/70/28
f 61/73/29 64/54/29 32/56/29 29/74/29
f 1/40/30 2/42/30 27/41/30 26/39/30
f 57/84/31 60/85/31 28/86/31 25/87/31
f 86/88/5 54/89/5 55/90/5 87/91/5
f 82/92/5 50/93/5 51/94/5 83/95/5
f 96/96/32 90/76/32 56/79/32 88/97/32
f 100/98/33 99/99/33 51/94/33 50/93/33
f 94/100/34 92/101/34 54/89/34 86/88/34
f 92/101/35 91/102/35 55/90/35 54/89/35
f 104/103/36 98/80/36 52/83/36 84/95/36
f 102/104/37 100/98/37 50/93/37 82/92/37
f 97/81/38 101/105/38 81/106/38 49/82/38
f 87/107/39 95/108/39 102/109/39 82/110/39
f 99/99/40 103/103/40 83/95/40 51/94/40
f 103/103/41 104/103/41 84/95/41 83/95/41
f 89/77/42 93/100/42 85/88/42 53/78/42
f 93/100/43 94/100/43 86/88/43 85/88/43
f 91/102/44 95/111/44 87/91/44 55/90/44
f 95/108/19 96/112/19 101/113/19 102/109/19
f 49/82/5 81/106/5 84/95/5 52/83/5
f 81/106/5 82/92/5 83/95/5 84/95/5
f 53/78/5 85/88/5 88/97/5 56/79/5
f 85/88/5 86/88/5 87/91/5 88/97/5
f 26/65/45 27/61/45 59/60/45 58/63/45
f 58/63/46 59/60/46 60/85/46 57/84/46
f 30/114/47 31/115/47 63/56/47 62/74/47
f 62/74/48 63/56/48 64/54/48 61/73/48
f 33/48/19 65/48/19 68/55/19 36/55/19
f 65/48/19 66/48/19 67/55/19 68/55/19
f 37/59/19 69/59/19 72/47/19 40/47/19
f 69/59/19 70/59/19 71/47/19 72/47/19
f 45/116/5 30/114/5 62/74/5 77/72/5
f 77/72/5 62/74/5 61/73/5 78/72/5
f 73/68/5 80/66/5 79/66/5 74/68/5
f 25/87/5 44/117/5 76/64/5 57/84/5
f 57/84/5 76/64/5 75/64/5 58/63/5
f 37/59/49 28/86/49 60/85/49 69/59/49
f 69/59/50 60/85/50 59/60/50 70/59/50
f 65/48/19 72/47/19 71/47/19 66/48/19
f 41/68/5 48/118/5 80/66/5 73/68/5
f 31/115/51 36/55/51 68/55/51 63/56/51
f 63/56/52 68/55/52 67/55/52 64/54/52
f 79/119/53 80/119/53 96/96/53 95/111/53
f 47/120/54 79/119/54 95/111/54 91/102/54
f 77/121/43 78/121/43 94/100/43 93/100/43
f 45/122/55 77/121/55 93/100/55 89/77/55
f 46/123/56 47/120/56 91/102/56 92/101/56
f 78/121/57 46/123/57 92/101/57 94/100/57
f 80/119/58 48/124/58 90/76/58 96/96/58
f 48/124/59 45/122/59 89/77/59 90/76/59
f 75/125/41 76/125/41 104/103/41 103/103/41
f 43/125/60 75/125/60 103/103/60 99/99/60
f 73/126/61 74/126/61 102/104/61 101/105/61
f 41/126/62 73/126/62 101/105/62 97/81/62
f 74/126/63 42/126/63 100/98/63 102/104/63
f 76/125/64 44/127/64 98/80/64 104/103/64
f 42/126/65 43/125/65 99/99/65 100/98/65
f 44/127/66 41/126/66 97/81/66 98/80/66
f 96/112/67 88/128/67 81/129/67 101/113/67
f 88/128/5 87/107/5 82/110/5 81/129/5
f 34/9/68 39/16/68 24/15/68 21/10/68
