# Blender 5.0.0
# www.blender.org
mtllib Wood_Bench_B_Snow.mtl
o Wood_Bench_B_Snow
v 0.765140 0.375272 0.171547
v -0.765140 0.375272 0.170600
v 0.765140 0.214810 0.121302
v -0.765140 0.215697 0.120633
v 0.765140 0.148344 0.000000
v -0.765140 0.149599 0.000001
v 0.765140 0.214810 -0.121302
v -0.765140 0.215697 -0.120630
v 0.765140 0.375272 -0.171547
v -0.765140 0.375272 -0.170597
v 0.765140 0.375272 0.226551
v 0.765140 0.163361 0.160196
v 0.765140 0.075585 0.000000
v 0.765140 0.163361 -0.160195
v 0.765140 0.375272 -0.226550
v -0.765140 0.375272 0.226551
v -0.765140 0.163361 0.160196
v -0.765140 0.075585 0.000001
v -0.765140 0.163361 -0.160194
v -0.765140 0.375272 -0.226549
v 0.619205 -0.023687 0.226316
v 0.618720 -0.023687 -0.226314
v 0.593538 0.049614 0.226316
v 0.593195 0.049209 -0.226314
v 0.531573 0.079977 0.226316
v 0.531573 0.079404 -0.226314
v 0.469607 0.049614 0.226316
v 0.469950 0.049209 -0.226314
v 0.443940 -0.023687 0.226316
v 0.444425 -0.023687 -0.226314
v 0.647303 -0.023687 0.183899
v 0.613406 0.073117 0.183899
v 0.531573 0.113215 0.183899
v 0.449739 0.073117 0.183899
v 0.415843 -0.023687 0.183899
v 0.647303 -0.023687 -0.183897
v 0.613406 0.073117 -0.183897
v 0.531573 0.113215 -0.183897
v 0.449739 0.073117 -0.183897
v 0.415842 -0.023687 -0.183897
v -0.619205 -0.023687 0.226317
v -0.618721 -0.023687 -0.226313
v -0.593538 0.049614 0.226317
v -0.593196 0.049209 -0.226313
v -0.531573 0.079977 0.226317
v -0.531573 0.079404 -0.226313
v -0.469607 0.049614 0.226317
v -0.469950 0.049209 -0.226313
v -0.443940 -0.023687 0.226317
v -0.444425 -0.023687 -0.226313
v -0.647303 -0.023687 0.183900
v -0.613406 0.073117 0.183900
v -0.531573 0.113215 0.183900
v -0.449739 0.073117 0.183900
v -0.415842 -0.023687 0.183900
v -0.647303 -0.023687 -0.183896
v -0.613406 0.073117 -0.183896
v -0.531573 0.113215 -0.183896
v -0.449739 0.073117 -0.183896
v -0.415843 -0.023687 -0.183896
vn -0.0000 -0.2988 0.9543
vn -0.0000 -0.8770 0.4805
vn -0.0000 -0.8770 -0.4805
vn -0.0000 -0.2988 -0.9543
vn 1.0000 -0.0000 -0.0000
vn -1.0000 -0.0000 -0.0000
vn -0.0000 1.0000 -0.0000
vn 0.9438 0.3305 -0.0000
vn 0.4400 0.8980 -0.0000
vn -0.4400 0.8980 -0.0000
vn -0.9438 0.3305 -0.0000
vn 0.8003 0.2802 0.5301
vn 0.3598 0.7344 0.5755
vn -0.3598 0.7344 0.5755
vn -0.8003 0.2802 0.5301
vn 0.7964 0.2789 -0.5366
vn 0.3578 0.7302 -0.5821
vn -0.3578 0.7302 -0.5821
vn -0.7964 0.2789 -0.5366
vn -0.0000 -0.0000 1.0000
vn -0.0000 -0.0000 -1.0000
vn -0.0000 -1.0000 -0.0000
vt 0.263569 0.283009
vt 0.213768 0.283009
vt 0.213768 0.266125
vt 0.263569 0.266125
vt 0.213768 0.259131
vt 0.263569 0.259131
vt 0.213768 0.283009
vt 0.263569 0.283009
vt 0.263569 0.270224
vt 0.263569 0.264928
vt 0.213768 0.270295
vt 0.213768 0.265028
vt 0.681467 0.543403
vt 0.709179 0.543403
vt 0.705120 0.488275
vt 0.695323 0.465440
vt 0.685525 0.488275
vt 0.709102 0.543403
vt 0.681544 0.543403
vt 0.685579 0.488580
vt 0.695323 0.465871
vt 0.705066 0.488580
vt 0.715782 0.576506
vt 0.680834 0.576506
vt 0.680930 0.576506
vt 0.715685 0.576506
vt 0.258323 0.255714
vt 0.258323 0.255714
vt 0.252579 0.272118
vt 0.238712 0.278913
vt 0.224844 0.272118
vt 0.219100 0.255714
vt 0.249212 0.268136
vt 0.253562 0.255714
vt 0.238712 0.273281
vt 0.228211 0.268136
vt 0.223862 0.255714
vt 0.253479 0.255714
vt 0.249154 0.268067
vt 0.238712 0.273184
vt 0.228269 0.268067
vt 0.223944 0.255714
vt 0.832681 0.569136
vt 0.860390 0.569136
vt 0.856332 0.580725
vt 0.846535 0.585525
vt 0.836739 0.580725
vt 0.860313 0.569136
vt 0.832757 0.569136
vt 0.836793 0.580661
vt 0.846535 0.585435
vt 0.856278 0.580661
vt 0.860355 0.569036
vt 0.856298 0.580625
vt 0.846501 0.585425
vt 0.836704 0.580625
vt 0.832646 0.569036
vt 0.832723 0.569036
vt 0.836759 0.580561
vt 0.846501 0.585335
vt 0.856243 0.580561
vt 0.860279 0.569036
s 0
usemtl Winter_Pack_Texture
f 11/1/1 16/2/1 17/3/1 12/4/1
f 12/4/2 17/3/2 18/5/2 13/6/2
f 13/6/3 18/5/3 19/3/3 14/4/3
f 14/4/4 19/3/4 20/7/4 15/8/4
f 3/9/5 1/1/5 11/1/5 12/4/5
f 5/10/5 3/9/5 12/4/5 13/6/5
f 7/9/5 5/10/5 13/6/5 14/4/5
f 9/8/5 7/9/5 14/4/5 15/8/5
f 2/2/6 4/11/6 17/3/6 16/2/6
f 4/11/6 6/12/6 18/5/6 17/3/6
f 6/12/6 8/11/6 19/3/6 18/5/6
f 8/11/6 10/7/6 20/7/6 19/3/6
f 9/13/5 1/14/5 3/15/5 5/16/5 7/17/5
f 2/18/6 10/19/6 8/20/6 6/21/6 4/22/6
f 11/1/7 1/1/7 2/2/7 16/2/7
f 1/23/7 9/24/7 10/25/7 2/26/7
f 9/8/7 15/8/7 20/7/7 10/7/7
f 31/27/8 36/28/8 37/29/8 32/29/8
f 32/29/9 37/29/9 38/30/9 33/30/9
f 33/30/10 38/30/10 39/31/10 34/31/10
f 34/31/11 39/31/11 40/32/11 35/32/11
f 23/33/12 21/34/12 31/27/12 32/29/12
f 25/35/13 23/33/13 32/29/13 33/30/13
f 27/36/14 25/35/14 33/30/14 34/31/14
f 29/37/15 27/36/15 34/31/15 35/32/15
f 22/38/16 24/39/16 37/29/16 36/28/16
f 24/39/17 26/40/17 38/30/17 37/29/17
f 26/40/18 28/41/18 39/31/18 38/30/18
f 28/41/19 30/42/19 40/32/19 39/31/19
f 29/43/20 21/44/20 23/45/20 25/46/20 27/47/20
f 22/48/21 30/49/21 28/50/21 26/51/21 24/52/21
f 31/27/22 21/34/22 22/38/22 36/28/22
f 21/44/22 29/43/22 30/49/22 22/48/22
f 29/37/22 35/32/22 40/32/22 30/42/22
f 51/27/11 52/29/11 57/29/11 56/28/11
f 52/29/10 53/30/10 58/30/10 57/29/10
f 53/30/9 54/31/9 59/31/9 58/30/9
f 54/31/8 55/32/8 60/32/8 59/31/8
f 43/33/15 52/29/15 51/27/15 41/34/15
f 45/35/14 53/30/14 52/29/14 43/33/14
f 47/36/13 54/31/13 53/30/13 45/35/13
f 49/37/12 55/32/12 54/31/12 47/36/12
f 42/38/19 56/28/19 57/29/19 44/39/19
f 44/39/18 57/29/18 58/30/18 46/40/18
f 46/40/17 58/30/17 59/31/17 48/41/17
f 48/41/16 59/31/16 60/32/16 50/42/16
f 49/53/20 47/54/20 45/55/20 43/56/20 41/57/20
f 42/58/21 44/59/21 46/60/21 48/61/21 50/62/21
f 51/27/22 56/28/22 42/38/22 41/34/22
f 41/57/22 42/58/22 50/62/22 49/53/22
f 49/37/22 50/42/22 60/32/22 55/32/22
