# Blender 5.0.0
# www.blender.org
mtllib wreath.mtl
o wreath
v 0.378494 -0.000000 0.000000
v 0.350627 -0.000000 0.047039
v 0.268313 -0.000000 0.052915
v 0.216520 -0.000000 0.000000
v 0.270505 -0.000000 -0.052930
v 0.351067 -0.000000 -0.057581
v 0.267636 0.267636 0.000000
v 0.247931 0.247931 0.047039
v 0.189726 0.189726 0.052915
v 0.153103 0.153103 0.000000
v 0.191276 0.191276 -0.052930
v 0.248242 0.248241 -0.057581
v 0.000000 0.378494 0.000001
v 0.000000 0.350627 0.047039
v 0.000000 0.268313 0.052915
v 0.000000 0.216520 0.000001
v -0.000000 0.270504 -0.052930
v -0.000000 0.351066 -0.057581
v -0.267636 0.267636 0.000001
v -0.247931 0.247931 0.047039
v -0.189726 0.189726 0.052916
v -0.153103 0.153103 0.000001
v -0.191276 0.191275 -0.052930
v -0.248242 0.248241 -0.057581
v -0.378494 -0.000000 0.000001
v -0.350627 -0.000000 0.047039
v -0.268313 -0.000000 0.052916
v -0.216520 -0.000000 0.000001
v -0.270505 -0.000000 -0.052930
v -0.351067 -0.000000 -0.057581
v -0.267636 -0.267636 0.000001
v -0.247931 -0.247931 0.047039
v -0.189726 -0.189726 0.052916
v -0.153103 -0.153103 0.000001
v -0.191276 -0.191276 -0.052930
v -0.248242 -0.248242 -0.057581
v 0.000000 -0.378494 0.000001
v 0.000000 -0.350628 0.047039
v 0.000000 -0.268314 0.052916
v 0.000000 -0.216520 0.000001
v -0.000000 -0.270505 -0.052930
v -0.000000 -0.351067 -0.057581
v 0.267636 -0.267636 0.000000
v 0.247931 -0.247931 0.047039
v 0.189726 -0.189727 0.052915
v 0.153103 -0.153103 0.000001
v 0.191276 -0.191276 -0.052930
v 0.248241 -0.248242 -0.057581
v 0.000000 0.250820 0.081742
v 0.000000 0.312422 0.081876
v -0.011403 0.250894 0.077332
v -0.011403 0.311312 0.077358
v 0.000000 0.241755 0.059760
v 0.000000 0.316990 0.059760
v 0.000000 0.241755 0.066976
v 0.000000 0.316990 0.068236
v -0.018997 0.250912 0.069079
v -0.018997 0.311042 0.069079
v -0.071814 0.328048 0.085613
v -0.071814 0.222713 0.085613
v -0.186587 0.169166 0.129166
v -0.186587 0.357268 0.129166
v -0.018997 0.250912 0.059760
v -0.018997 0.311042 0.059760
v -0.071814 0.227650 0.070696
v -0.071814 0.321959 0.070696
v -0.172386 0.346765 0.104496
v -0.205490 0.357268 0.104496
v -0.205490 0.169166 0.104496
v -0.173524 0.180556 0.104496
v 0.000000 0.281621 0.081809
v -0.011403 0.281103 0.077345
v -0.018997 0.280977 0.069079
v -0.071814 0.275380 0.092542
v -0.186587 0.263217 0.140134
v -0.215925 0.263217 0.104496
v -0.117292 0.069681 0.076660
v -0.117292 0.069681 0.090659
v -0.160352 0.069274 0.094615
v -0.160352 0.069274 0.076660
v -0.094175 0.029427 0.094615
v -0.094175 0.029427 0.076660
v -0.009805 0.246813 0.068138
v 0.011403 0.250894 0.077332
v 0.011403 0.311312 0.077358
v 0.018997 0.250912 0.069079
v 0.018997 0.311042 0.069079
v 0.071815 0.328048 0.085613
v 0.071815 0.222713 0.085613
v 0.186587 0.169166 0.129166
v 0.186587 0.357268 0.129166
v 0.018997 0.250912 0.059760
v 0.018997 0.311042 0.059760
v 0.071815 0.227650 0.070696
v 0.071815 0.321959 0.070695
v 0.172386 0.346765 0.104495
v 0.205491 0.357268 0.104495
v 0.205491 0.169166 0.104495
v 0.173524 0.180556 0.104495
v 0.011403 0.281103 0.077345
v 0.018997 0.280977 0.069079
v 0.071815 0.275380 0.092542
v 0.186587 0.263217 0.140133
v 0.215925 0.263217 0.104495
v 0.117292 0.069681 0.076660
v 0.117292 0.069681 0.090659
v 0.160352 0.069274 0.094615
v 0.160352 0.069274 0.076660
v 0.094175 0.029427 0.094615
v 0.094175 0.029427 0.076660
v 0.009805 0.246813 0.068138
v 0.000000 0.250820 0.041837
v 0.000000 0.312422 0.041704
v -0.011403 0.250894 0.042188
v -0.011403 0.311312 0.042162
v 0.000000 0.241755 0.052544
v 0.000000 0.316990 0.051284
v -0.018997 0.250912 0.050440
v -0.018997 0.311042 0.050440
v -0.071814 0.328048 0.055778
v -0.071814 0.222713 0.055778
v -0.186587 0.169166 0.079825
v -0.186587 0.357268 0.079825
v 0.000000 0.281621 0.041770
v -0.011403 0.281103 0.042175
v -0.018997 0.280977 0.050440
v -0.071814 0.275380 0.048849
v -0.186587 0.263217 0.068858
v -0.117292 0.069681 0.062661
v -0.160352 0.069274 0.058706
v -0.094175 0.029427 0.058706
v -0.009805 0.246813 0.051382
v 0.011403 0.250894 0.042188
v 0.011403 0.311312 0.042162
v 0.018997 0.250912 0.050440
v 0.018997 0.311042 0.050440
v 0.071815 0.328048 0.055778
v 0.071815 0.222713 0.055778
v 0.186587 0.169166 0.079825
v 0.186587 0.357268 0.079825
v 0.011403 0.281103 0.042175
v 0.018997 0.280977 0.050440
v 0.071815 0.275380 0.048849
v 0.186587 0.263217 0.068857
v 0.117292 0.069681 0.062661
v 0.160352 0.069274 0.058705
v 0.094175 0.029427 0.058705
v 0.009805 0.246813 0.051382
vn 0.8104 0.3357 0.4801
vn 0.0295 0.0712 0.9970
vn -0.6852 -0.2838 0.6707
vn -0.6724 -0.2785 -0.6858
vn -0.0239 -0.0576 -0.9981
vn 0.8456 0.3503 -0.4028
vn 0.3357 0.8104 0.4801
vn -0.0295 0.0712 0.9970
vn -0.2838 -0.6852 0.6707
vn -0.2785 -0.6724 -0.6858
vn 0.0239 -0.0576 -0.9981
vn 0.3503 0.8456 -0.4028
vn -0.3357 0.8104 0.4801
vn -0.0712 0.0295 0.9970
vn 0.2838 -0.6852 0.6707
vn 0.2785 -0.6724 -0.6858
vn 0.0576 -0.0239 -0.9981
vn -0.3503 0.8456 -0.4028
vn -0.8104 0.3357 0.4801
vn -0.0712 -0.0295 0.9970
vn 0.6852 -0.2838 0.6707
vn 0.6724 -0.2785 -0.6858
vn 0.0576 0.0239 -0.9981
vn -0.8456 0.3503 -0.4028
vn -0.8104 -0.3357 0.4801
vn -0.0295 -0.0712 0.9970
vn 0.6852 0.2838 0.6707
vn 0.6724 0.2785 -0.6858
vn 0.0239 0.0576 -0.9981
vn -0.8456 -0.3503 -0.4028
vn -0.3357 -0.8104 0.4801
vn 0.0295 -0.0712 0.9970
vn 0.2838 0.6852 0.6707
vn 0.2785 0.6724 -0.6858
vn -0.0239 0.0576 -0.9981
vn -0.3503 -0.8456 -0.4028
vn 0.3357 -0.8104 0.4801
vn 0.0712 -0.0295 0.9970
vn -0.2838 0.6852 0.6707
vn -0.2785 0.6724 -0.6858
vn -0.0576 0.0239 -0.9981
vn 0.3503 -0.8456 -0.4028
vn 0.8104 -0.3357 0.4801
vn -0.0576 -0.0239 -0.9981
vn -0.6852 0.2838 0.6707
vn -0.6724 0.2785 -0.6858
vn 0.8456 -0.3503 -0.4028
vn 0.0712 0.0295 0.9970
vn 0.1071 0.9301 -0.3514
vn -0.3664 -0.0012 0.9305
vn 0.3251 -0.9123 -0.2491
vn -0.2485 0.9306 0.2686
vn -0.2746 -0.8506 0.4484
vn -0.7367 -0.0001 0.6763
vn 0.2946 0.9286 -0.2257
vn 0.3915 -0.9017 -0.1837
vn 0.3604 0.0779 0.9296
vn 0.3265 -0.9069 -0.2663
vn -0.7784 -0.0795 0.6227
vn 0.3739 0.1123 0.9206
vn 0.1895 0.9523 -0.2392
vn -0.2988 0.9543 -0.0000
vn -0.4325 -0.9014 0.0180
vn 0.3941 -0.1113 0.9123
vn -0.7784 0.0795 0.6227
vn 0.3746 -0.0774 0.9240
vn -0.7361 -0.0001 0.6768
vn -0.3626 -0.0012 0.9319
vn 0.0095 -1.0000 -0.0000
vn -0.8672 -0.4980 -0.0000
vn -0.7892 0.6142 -0.0000
vn 0.9141 -0.4054 -0.0000
vn 0.0977 0.0653 0.9931
vn -0.3569 -0.8753 0.3265
vn 0.0536 0.1002 0.9935
vn -0.1071 0.9301 -0.3514
vn 0.3664 -0.0012 0.9305
vn -0.3251 -0.9123 -0.2491
vn 0.2485 0.9306 0.2686
vn 0.2746 -0.8506 0.4484
vn 0.7367 -0.0001 0.6763
vn -0.2946 0.9286 -0.2257
vn -0.3915 -0.9017 -0.1837
vn -0.3604 0.0779 0.9296
vn -0.3265 -0.9069 -0.2663
vn 0.7784 -0.0795 0.6227
vn -0.3739 0.1123 0.9206
vn -0.1895 0.9523 -0.2392
vn 0.2988 0.9543 -0.0000
vn 0.4325 -0.9014 0.0180
vn -0.3941 -0.1113 0.9123
vn 0.7784 0.0795 0.6227
vn -0.3746 -0.0774 0.9240
vn 0.7361 -0.0001 0.6768
vn 0.3626 -0.0012 0.9319
vn -0.0095 -1.0000 -0.0000
vn 0.8672 -0.4980 -0.0000
vn 0.7892 0.6142 -0.0000
vn -0.9141 -0.4054 -0.0000
vn -0.0977 0.0653 0.9931
vn 0.3569 -0.8753 0.3265
vn -0.0536 0.1002 0.9935
vn 0.3026 0.9129 0.2740
vn -0.0377 -0.0013 -0.9993
vn 0.3251 -0.9123 0.2491
vn -0.2110 0.9261 -0.3126
vn -0.1799 -0.8274 -0.5321
vn -0.7367 -0.0001 -0.6763
vn 0.2946 0.9286 0.2257
vn 0.4530 -0.8736 0.1780
vn -0.0263 0.0834 -0.9962
vn 0.4572 -0.8652 0.2059
vn -0.7784 -0.0795 -0.6227
vn -0.1786 0.1191 -0.9767
vn 0.2820 0.9305 0.2338
vn -0.4325 -0.9014 -0.0180
vn -0.1540 -0.1196 -0.9808
vn -0.7784 0.0795 -0.6227
vn -0.0086 -0.0835 -0.9965
vn -0.7361 -0.0001 -0.6768
vn -0.0331 -0.0013 -0.9995
vn 0.0848 -0.1128 -0.9900
vn -0.3569 -0.8753 -0.3265
vn -0.0852 -0.0005 -0.9964
vn -0.3026 0.9129 0.2740
vn 0.0377 -0.0013 -0.9993
vn -0.3251 -0.9123 0.2491
vn 0.2110 0.9261 -0.3126
vn 0.1799 -0.8274 -0.5321
vn 0.7367 -0.0001 -0.6763
vn -0.2946 0.9286 0.2257
vn -0.4530 -0.8736 0.1780
vn 0.0263 0.0834 -0.9962
vn -0.4572 -0.8652 0.2059
vn 0.7784 -0.0795 -0.6227
vn 0.1786 0.1191 -0.9767
vn -0.2820 0.9305 0.2338
vn 0.4325 -0.9014 -0.0180
vn 0.1540 -0.1196 -0.9808
vn 0.7784 0.0795 -0.6227
vn 0.0086 -0.0835 -0.9965
vn 0.7361 -0.0001 -0.6768
vn 0.0331 -0.0013 -0.9995
vn -0.0848 -0.1128 -0.9900
vn 0.3569 -0.8753 -0.3265
vn 0.0852 -0.0005 -0.9964
vt 0.918367 0.307986
vt 0.900571 0.350951
vt 0.897407 0.347788
vt 0.913894 0.307986
vt 0.857606 0.364274
vt 0.857606 0.351060
vt 0.888063 0.338444
vt 0.900679 0.307986
vt 0.882184 0.332565
vt 0.892365 0.307986
vt 0.888312 0.338693
vt 0.901031 0.307986
vt 0.857606 0.351412
vt 0.857606 0.364345
vt 0.897457 0.347838
vt 0.913964 0.307986
vt 0.857606 0.368748
vt 0.817804 0.347788
vt 0.827148 0.338444
vt 0.857606 0.342745
vt 0.826899 0.338693
vt 0.817754 0.347838
vt 0.814641 0.350951
vt 0.801318 0.307986
vt 0.814532 0.307986
vt 0.833027 0.332565
vt 0.814180 0.307986
vt 0.801247 0.307986
vt 0.796844 0.307986
vt 0.817804 0.268185
vt 0.827148 0.277529
vt 0.822847 0.307986
vt 0.826899 0.277280
vt 0.817754 0.268135
vt 0.814641 0.265021
vt 0.857606 0.251698
vt 0.857606 0.264913
vt 0.833027 0.283408
vt 0.857606 0.264561
vt 0.857606 0.251628
vt 0.857606 0.247225
vt 0.897407 0.268185
vt 0.888063 0.277529
vt 0.857606 0.273227
vt 0.888312 0.277280
vt 0.897457 0.268135
vt 0.900571 0.265021
vt 0.882184 0.283408
vt 0.033945 0.874502
vt 0.033945 0.873760
vt 0.021695 0.876782
vt 0.019966 0.878061
vt 0.041303 0.868784
vt 0.042692 0.868847
vt 0.042692 0.872599
vt 0.041303 0.872464
vt 0.019966 0.855150
vt 0.017663 0.855150
vt 0.021557 0.856538
vt 0.042692 0.873155
vt 0.040378 0.872431
vt 0.042692 0.865096
vt 0.041303 0.865105
vt 0.041498 0.864608
vt 0.042692 0.863992
vt 0.040378 0.868769
vt 0.017663 0.878061
vt 0.040378 0.865107
vt 0.033945 0.861672
vt 0.033945 0.862274
vt 0.033945 0.868087
vt 0.016392 0.866606
vt 0.019966 0.866606
vt 0.028406 0.843033
vt 0.023161 0.842983
vt 0.031222 0.838130
vt 0.051439 0.874502
vt 0.065419 0.878061
vt 0.063689 0.876782
vt 0.051439 0.873760
vt 0.044081 0.868784
vt 0.044081 0.872464
vt 0.065419 0.855150
vt 0.063827 0.856538
vt 0.067721 0.855150
vt 0.045006 0.872431
vt 0.043886 0.864608
vt 0.044081 0.865105
vt 0.045006 0.868769
vt 0.067721 0.878061
vt 0.045006 0.865107
vt 0.051439 0.862274
vt 0.051439 0.861672
vt 0.051439 0.868087
vt 0.068992 0.866606
vt 0.065419 0.866606
vt 0.056978 0.843033
vt 0.062223 0.842983
vt 0.054163 0.838130
s 0
usemtl Winter_Pack_Texture
f 1/1/1 7/2/1 8/3/1 2/4/1
f 14/5/2 15/6/2 9/7/2 8/3/2
f 3/8/3 9/7/3 10/9/3 4/10/3
f 4/10/4 10/9/4 11/11/4 5/12/4
f 17/13/5 18/14/5 12/15/5 11/11/5
f 6/16/6 12/15/6 7/2/6 1/1/6
f 7/2/7 13/17/7 14/5/7 8/3/7
f 20/18/8 21/19/8 15/6/8 14/5/8
f 9/7/9 15/6/9 16/20/9 10/9/9
f 10/9/10 16/20/10 17/13/10 11/11/10
f 23/21/11 24/22/11 18/14/11 17/13/11
f 12/15/12 18/14/12 13/17/12 7/2/12
f 13/17/13 19/23/13 20/18/13 14/5/13
f 26/24/14 27/25/14 21/19/14 20/18/14
f 15/6/15 21/19/15 22/26/15 16/20/15
f 16/20/16 22/26/16 23/21/16 17/13/16
f 29/27/17 30/28/17 24/22/17 23/21/17
f 18/14/18 24/22/18 19/23/18 13/17/18
f 19/23/19 25/29/19 26/24/19 20/18/19
f 32/30/20 33/31/20 27/25/20 26/24/20
f 21/19/21 27/25/21 28/32/21 22/26/21
f 22/26/22 28/32/22 29/27/22 23/21/22
f 35/33/23 36/34/23 30/28/23 29/27/23
f 24/22/24 30/28/24 25/29/24 19/23/24
f 25/29/25 31/35/25 32/30/25 26/24/25
f 38/36/26 39/37/26 33/31/26 32/30/26
f 27/25/27 33/31/27 34/38/27 28/32/27
f 28/32/28 34/38/28 35/33/28 29/27/28
f 41/39/29 42/40/29 36/34/29 35/33/29
f 30/28/30 36/34/30 31/35/30 25/29/30
f 31/35/31 37/41/31 38/36/31 32/30/31
f 44/42/32 45/43/32 39/37/32 38/36/32
f 33/31/33 39/37/33 40/44/33 34/38/33
f 34/38/34 40/44/34 41/39/34 35/33/34
f 47/45/35 48/46/35 42/40/35 41/39/35
f 36/34/36 42/40/36 37/41/36 31/35/36
f 37/41/37 43/47/37 44/42/37 38/36/37
f 2/4/38 3/8/38 45/43/38 44/42/38
f 39/37/39 45/43/39 46/48/39 40/44/39
f 40/44/40 46/48/40 47/45/40 41/39/40
f 5/12/41 6/16/41 48/46/41 47/45/41
f 42/40/42 48/46/42 43/47/42 37/41/42
f 43/47/43 1/1/43 2/4/43 44/42/43
f 11/11/44 12/15/44 6/16/44 5/12/44
f 45/43/45 3/8/45 4/10/45 46/48/45
f 46/48/46 4/10/46 5/12/46 47/45/46
f 48/46/47 6/16/47 1/1/47 43/47/47
f 8/3/48 9/7/48 3/8/48 2/4/48
f 59/49/49 66/50/49 67/51/49 62/52/49
f 72/53/50 71/54/50 50/55/50 52/56/50
f 61/57/51 69/58/51 70/59/51
f 52/56/52 50/55/52 56/60/52 58/61/52
f 49/62/53 51/63/53 83/64/53 55/65/53
f 72/53/54 52/56/54 58/61/54 73/66/54
f 62/52/55 67/51/55 68/67/55
f 63/68/56 57/68/56 60/69/56 65/70/56
f 73/66/57 58/61/57 59/49/57 74/71/57
f 65/70/58 60/69/58 61/57/58 70/59/58
f 76/72/59 69/58/59 61/57/59 75/73/59
f 74/71/60 59/49/60 62/52/60 75/73/60
f 58/61/61 64/61/61 66/50/61 59/49/61
f 58/61/62 56/60/62 54/60/62 64/61/62
f 55/65/63 83/64/63 57/68/63 63/68/63 53/65/63
f 60/69/64 74/71/64 75/73/64 61/57/64
f 68/67/65 76/72/65 75/73/65 62/52/65
f 57/68/66 73/66/66 74/71/66 60/69/66
f 51/63/67 72/53/67 73/66/67 57/68/67
f 51/63/68 49/62/68 71/54/68 72/53/68
f 78/74/69 79/75/69 80/75/69 77/74/69
f 78/74/70 77/74/70 82/76/70 81/76/70
f 80/75/71 79/75/71 57/68/71 63/68/71
f 81/76/72 82/76/72 53/65/72 55/65/72
f 83/64/73 57/68/73 79/75/73 78/74/73
f 83/64/74 51/63/74 57/68/74
f 78/74/75 81/76/75 55/65/75 83/64/75
f 88/77/76 91/78/76 96/79/76 95/80/76
f 100/81/77 85/82/77 50/55/77 71/54/77
f 90/83/78 99/84/78 98/85/78
f 85/82/79 87/86/79 56/60/79 50/55/79
f 49/62/80 55/65/80 111/87/80 84/88/80
f 100/81/81 101/89/81 87/86/81 85/82/81
f 91/78/82 97/90/82 96/79/82
f 92/91/83 94/92/83 89/93/83 86/91/83
f 101/89/84 102/94/84 88/77/84 87/86/84
f 94/92/85 99/84/85 90/83/85 89/93/85
f 104/95/86 103/96/86 90/83/86 98/85/86
f 102/94/87 103/96/87 91/78/87 88/77/87
f 87/86/88 88/77/88 95/80/88 93/86/88
f 87/86/89 93/86/89 54/60/89 56/60/89
f 55/65/90 53/65/90 92/91/90 86/91/90 111/87/90
f 89/93/91 90/83/91 103/96/91 102/94/91
f 97/90/92 91/78/92 103/96/92 104/95/92
f 86/91/93 89/93/93 102/94/93 101/89/93
f 84/88/94 86/91/94 101/89/94 100/81/94
f 84/88/95 100/81/95 71/54/95 49/62/95
f 106/97/96 105/97/96 108/98/96 107/98/96
f 106/97/97 109/99/97 110/99/97 105/97/97
f 108/98/98 92/91/98 86/91/98 107/98/98
f 109/99/99 55/65/99 53/65/99 110/99/99
f 111/87/100 106/97/100 107/98/100 86/91/100
f 111/87/101 86/91/101 84/88/101
f 106/97/102 111/87/102 55/65/102 109/99/102
f 120/49/103 123/52/103 67/51/103 66/50/103
f 125/53/104 115/56/104 113/55/104 124/54/104
f 122/57/105 70/59/105 69/58/105
f 115/56/106 119/61/106 117/60/106 113/55/106
f 112/62/107 116/65/107 132/64/107 114/63/107
f 125/53/108 126/66/108 119/61/108 115/56/108
f 123/52/109 68/67/109 67/51/109
f 63/68/110 65/70/110 121/69/110 118/68/110
f 126/66/111 127/71/111 120/49/111 119/61/111
f 65/70/112 70/59/112 122/57/112 121/69/112
f 76/72/113 128/73/113 122/57/113 69/58/113
f 127/71/114 128/73/114 123/52/114 120/49/114
f 119/61/115 120/49/115 66/50/115 64/61/115
f 119/61/62 64/61/62 54/60/62 117/60/62
f 116/65/116 53/65/116 63/68/116 118/68/116 132/64/116
f 121/69/117 122/57/117 128/73/117 127/71/117
f 68/67/118 123/52/118 128/73/118 76/72/118
f 118/68/119 121/69/119 127/71/119 126/66/119
f 114/63/120 118/68/120 126/66/120 125/53/120
f 114/63/121 125/53/121 124/54/121 112/62/121
f 129/74/69 77/74/69 80/75/69 130/75/69
f 129/74/70 131/76/70 82/76/70 77/74/70
f 80/75/71 63/68/71 118/68/71 130/75/71
f 131/76/72 116/65/72 53/65/72 82/76/72
f 132/64/122 129/74/122 130/75/122 118/68/122
f 132/64/123 118/68/123 114/63/123
f 129/74/124 132/64/124 116/65/124 131/76/124
f 137/77/125 95/80/125 96/79/125 140/78/125
f 141/81/126 124/54/126 113/55/126 134/82/126
f 139/83/127 98/85/127 99/84/127
f 134/82/128 113/55/128 117/60/128 136/86/128
f 112/62/129 133/88/129 148/87/129 116/65/129
f 141/81/130 134/82/130 136/86/130 142/89/130
f 140/78/131 96/79/131 97/90/131
f 92/91/132 135/91/132 138/93/132 94/92/132
f 142/89/133 136/86/133 137/77/133 143/94/133
f 94/92/134 138/93/134 139/83/134 99/84/134
f 104/95/135 98/85/135 139/83/135 144/96/135
f 143/94/136 137/77/136 140/78/136 144/96/136
f 136/86/137 93/86/137 95/80/137 137/77/137
f 136/86/89 117/60/89 54/60/89 93/86/89
f 116/65/138 148/87/138 135/91/138 92/91/138 53/65/138
f 138/93/139 143/94/139 144/96/139 139/83/139
f 97/90/140 104/95/140 144/96/140 140/78/140
f 135/91/141 142/89/141 143/94/141 138/93/141
f 133/88/142 141/81/142 142/89/142 135/91/142
f 133/88/143 112/62/143 124/54/143 141/81/143
f 145/97/96 146/98/96 108/98/96 105/97/96
f 145/97/97 105/97/97 110/99/97 147/99/97
f 108/98/98 146/98/98 135/91/98 92/91/98
f 147/99/99 110/99/99 53/65/99 116/65/99
f 148/87/144 135/91/144 146/98/144 145/97/144
f 148/87/145 133/88/145 135/91/145
f 145/97/146 147/99/146 116/65/146 148/87/146
